G75*
G70*
%OFA0B0*%
%FSLAX24Y24*%
%IPPOS*%
%LPD*%
%AMOC8*
5,1,8,0,0,1.08239X$1,22.5*
%
%ADD10C,0.0080*%
%ADD11C,0.0000*%
%ADD12R,0.1650X0.0800*%
%ADD13R,0.0217X0.0768*%
%ADD14C,0.0740*%
%ADD15R,0.0433X0.0394*%
%ADD16R,0.0394X0.0433*%
%ADD17R,0.0780X0.0210*%
%ADD18C,0.0600*%
%ADD19R,0.0630X0.1181*%
%ADD20R,0.2280X0.2470*%
%ADD21C,0.0780*%
%ADD22R,0.0256X0.0886*%
%ADD23R,0.0950X0.0950*%
%ADD24C,0.0950*%
%ADD25R,0.0594X0.0594*%
%ADD26OC8,0.0640*%
%ADD27R,0.0800X0.0800*%
%ADD28C,0.0800*%
%ADD29R,0.0590X0.0790*%
%ADD30R,0.1500X0.0790*%
%ADD31C,0.0100*%
%ADD32C,0.0436*%
%ADD33C,0.0200*%
%ADD34C,0.0800*%
%ADD35C,0.1200*%
D10*
X002016Y000796D02*
X002016Y035796D01*
X052016Y035796D01*
X052016Y000796D01*
X002016Y000796D01*
D11*
X000299Y002296D02*
X000301Y002325D01*
X000307Y002353D01*
X000316Y002381D01*
X000329Y002407D01*
X000346Y002430D01*
X000365Y002452D01*
X000387Y002471D01*
X000412Y002486D01*
X000438Y002499D01*
X000466Y002507D01*
X000494Y002512D01*
X000523Y002513D01*
X000552Y002510D01*
X000580Y002503D01*
X000607Y002493D01*
X000633Y002479D01*
X000656Y002462D01*
X000677Y002442D01*
X000695Y002419D01*
X000710Y002394D01*
X000721Y002367D01*
X000729Y002339D01*
X000733Y002310D01*
X000733Y002282D01*
X000729Y002253D01*
X000721Y002225D01*
X000710Y002198D01*
X000695Y002173D01*
X000677Y002150D01*
X000656Y002130D01*
X000633Y002113D01*
X000607Y002099D01*
X000580Y002089D01*
X000552Y002082D01*
X000523Y002079D01*
X000494Y002080D01*
X000466Y002085D01*
X000438Y002093D01*
X000412Y002106D01*
X000387Y002121D01*
X000365Y002140D01*
X000346Y002162D01*
X000329Y002185D01*
X000316Y002211D01*
X000307Y002239D01*
X000301Y002267D01*
X000299Y002296D01*
D12*
X038541Y007126D03*
X040541Y007126D03*
X040541Y017126D03*
X038541Y017126D03*
X038541Y027126D03*
X040541Y027126D03*
D13*
X011266Y019925D03*
X010766Y019925D03*
X010266Y019925D03*
X009766Y019925D03*
X009266Y019925D03*
X008766Y019925D03*
X008266Y019925D03*
X007766Y019925D03*
X007266Y019925D03*
X006766Y019925D03*
X006266Y019925D03*
X005766Y019925D03*
X005266Y019925D03*
X004766Y019925D03*
X004766Y016067D03*
X005266Y016067D03*
X005766Y016067D03*
X006266Y016067D03*
X006766Y016067D03*
X007266Y016067D03*
X007766Y016067D03*
X008266Y016067D03*
X008766Y016067D03*
X009266Y016067D03*
X009766Y016067D03*
X010266Y016067D03*
X010766Y016067D03*
X011266Y016067D03*
D14*
X013016Y015996D03*
X013016Y016996D03*
X013016Y017996D03*
X013016Y018996D03*
X013016Y019996D03*
X012516Y034996D03*
X011516Y034996D03*
X010516Y034996D03*
X009516Y034996D03*
X008516Y034996D03*
X007516Y034996D03*
X006516Y034996D03*
X005516Y034996D03*
X004516Y034996D03*
X003516Y034996D03*
X013516Y034996D03*
X014516Y034996D03*
X015516Y034996D03*
X016516Y034996D03*
X016516Y001496D03*
X015516Y001496D03*
X014516Y001496D03*
X013516Y001496D03*
X012516Y001496D03*
X011516Y001496D03*
X010516Y001496D03*
X009516Y001496D03*
X008516Y001496D03*
X007516Y001496D03*
X006516Y001496D03*
X005516Y001496D03*
X004516Y001496D03*
X003516Y001496D03*
D15*
X003016Y017662D03*
X003016Y018331D03*
X008681Y021496D03*
X009350Y021496D03*
X015681Y022496D03*
X016350Y022496D03*
X016016Y024162D03*
X016016Y024831D03*
X019181Y020496D03*
X019850Y020496D03*
X023681Y022496D03*
X024350Y022496D03*
X024016Y023662D03*
X024016Y024331D03*
X024350Y029496D03*
X023681Y029496D03*
X036181Y030996D03*
X036850Y030996D03*
X041181Y032996D03*
X041850Y032996D03*
X046316Y030631D03*
X046316Y029962D03*
X047216Y031462D03*
X047216Y032131D03*
X049316Y032962D03*
X049316Y033631D03*
X043350Y022996D03*
X042681Y022996D03*
X042681Y020996D03*
X043350Y020996D03*
X043350Y019496D03*
X042681Y019496D03*
X036850Y020996D03*
X036181Y020996D03*
X028016Y016331D03*
X028016Y015662D03*
X036181Y010496D03*
X036850Y010496D03*
X041681Y012996D03*
X042350Y012996D03*
X045181Y007996D03*
X045850Y007996D03*
X045850Y006996D03*
X045181Y006996D03*
X045681Y006096D03*
X046350Y006096D03*
X046350Y004996D03*
X045681Y004996D03*
X027516Y007162D03*
X027516Y007831D03*
D16*
X032181Y003996D03*
X032850Y003996D03*
X034181Y003996D03*
X034850Y003996D03*
X042516Y009162D03*
X042516Y009831D03*
X042516Y011162D03*
X042516Y011831D03*
X039850Y012996D03*
X039181Y012996D03*
X038350Y012996D03*
X037681Y012996D03*
X036850Y012496D03*
X036181Y012496D03*
X034850Y013996D03*
X034181Y013996D03*
X032850Y013996D03*
X032181Y013996D03*
X024350Y021496D03*
X023681Y021496D03*
X024516Y025662D03*
X024516Y026331D03*
X025681Y029496D03*
X026350Y029496D03*
X027381Y029496D03*
X028050Y029496D03*
X032181Y024496D03*
X032850Y024496D03*
X034181Y024496D03*
X034850Y024496D03*
X036181Y022496D03*
X036850Y022496D03*
X037681Y022996D03*
X038350Y022996D03*
X039181Y022996D03*
X039850Y022996D03*
X042816Y029462D03*
X042816Y030131D03*
X042816Y031462D03*
X042816Y032131D03*
X039850Y032996D03*
X039181Y032996D03*
X038350Y032996D03*
X037681Y032996D03*
X036850Y032996D03*
X036181Y032996D03*
X014850Y024996D03*
X014181Y024996D03*
X014181Y023996D03*
X014850Y023996D03*
X004016Y018331D03*
X004016Y017662D03*
D17*
X018171Y021746D03*
X018171Y022246D03*
X018171Y022746D03*
X018171Y023246D03*
X018171Y023746D03*
X018171Y024246D03*
X018171Y024746D03*
X018171Y025246D03*
X018171Y025746D03*
X018171Y026246D03*
X018171Y026746D03*
X018171Y027246D03*
X021861Y027246D03*
X021861Y026746D03*
X021861Y026246D03*
X021861Y025746D03*
X021861Y025246D03*
X021861Y024746D03*
X021861Y024246D03*
X021861Y023746D03*
X021861Y023246D03*
X021861Y022746D03*
X021861Y022246D03*
X021861Y021746D03*
D18*
X024846Y015870D03*
X024846Y015083D03*
X024846Y014295D03*
X024846Y013508D03*
X024846Y012721D03*
X024846Y011933D03*
X024846Y011146D03*
X024846Y010358D03*
X024846Y009571D03*
X024846Y008784D03*
X016185Y008784D03*
X016185Y009571D03*
X016185Y010358D03*
X016185Y011146D03*
X016185Y011933D03*
X016185Y012721D03*
X016185Y013508D03*
X016185Y014295D03*
X016185Y015083D03*
X016185Y015870D03*
D19*
X029116Y015586D03*
X030916Y015586D03*
X033616Y015586D03*
X035416Y015586D03*
X035416Y005586D03*
X033616Y005586D03*
X030916Y005586D03*
X029116Y005586D03*
X029116Y026086D03*
X030916Y026086D03*
X033616Y026086D03*
X035416Y026086D03*
D20*
X034516Y028621D03*
X030016Y028621D03*
X030016Y018121D03*
X034516Y018121D03*
X034516Y008121D03*
X030016Y008121D03*
D21*
X038016Y005496D03*
X038016Y004096D03*
X042016Y004096D03*
X042016Y005496D03*
X042016Y014096D03*
X042016Y015496D03*
X038016Y015496D03*
X038016Y014096D03*
X026516Y019996D03*
X025716Y022496D03*
X022516Y019996D03*
X025716Y026496D03*
X027516Y027996D03*
X023516Y027996D03*
X038016Y025496D03*
X038016Y024096D03*
X042016Y024096D03*
X042016Y025496D03*
X015016Y006796D03*
X015016Y004796D03*
X011016Y004796D03*
X011016Y006796D03*
D22*
X037766Y007126D03*
X038266Y007126D03*
X038766Y007126D03*
X039266Y007126D03*
X039766Y007126D03*
X040266Y007126D03*
X040766Y007126D03*
X041266Y007126D03*
X041266Y010866D03*
X040766Y010866D03*
X040266Y010866D03*
X039766Y010866D03*
X039266Y010866D03*
X038766Y010866D03*
X038266Y010866D03*
X037766Y010866D03*
X037766Y017126D03*
X038266Y017126D03*
X038766Y017126D03*
X039266Y017126D03*
X039766Y017126D03*
X040266Y017126D03*
X040766Y017126D03*
X041266Y017126D03*
X041266Y020866D03*
X040766Y020866D03*
X040266Y020866D03*
X039766Y020866D03*
X039266Y020866D03*
X038766Y020866D03*
X038266Y020866D03*
X037766Y020866D03*
X037766Y027126D03*
X038266Y027126D03*
X038766Y027126D03*
X039266Y027126D03*
X039766Y027126D03*
X040266Y027126D03*
X040766Y027126D03*
X041266Y027126D03*
X041266Y030866D03*
X040766Y030866D03*
X040266Y030866D03*
X039766Y030866D03*
X039266Y030866D03*
X038766Y030866D03*
X038266Y030866D03*
X037766Y030866D03*
D23*
X050016Y030396D03*
X050016Y022996D03*
X050016Y014296D03*
D24*
X050016Y012328D03*
X050016Y010359D03*
X050016Y019059D03*
X050016Y021028D03*
X050016Y026459D03*
X050016Y028428D03*
D25*
X031016Y003296D03*
X016016Y003296D03*
D26*
X010516Y005796D03*
X003516Y005796D03*
D27*
X050016Y006496D03*
D28*
X050016Y004528D03*
D29*
X046926Y009256D03*
X046026Y009256D03*
X045126Y009256D03*
D30*
X046016Y011736D03*
D31*
X043016Y011262D02*
X043016Y012896D01*
X043016Y013496D01*
X043016Y013096D02*
X043016Y013996D01*
X043016Y013096D02*
X042916Y012996D01*
X042350Y012996D01*
X042916Y012996D02*
X043016Y012896D01*
X042516Y011831D02*
X040366Y011831D01*
X040266Y011731D01*
X040266Y010866D01*
X040766Y010866D02*
X040766Y009262D01*
X040866Y009162D01*
X042516Y009162D01*
X042516Y009831D02*
X042516Y010766D01*
X042516Y011266D01*
X042516Y011162D02*
X042516Y010966D01*
X042416Y010866D01*
X041846Y010866D01*
X041816Y010896D01*
X041786Y010866D01*
X041266Y010866D01*
X042416Y010866D02*
X042516Y010766D01*
X042516Y011162D02*
X042916Y011162D01*
X043016Y011262D01*
X041681Y012996D02*
X039850Y012996D01*
X039850Y012396D01*
X039750Y012296D01*
X039366Y012296D01*
X039266Y012196D01*
X039266Y010866D01*
X039766Y010866D02*
X039766Y009796D01*
X039666Y009696D01*
X035916Y009696D01*
X033316Y012296D01*
X027716Y012296D01*
X026716Y013296D01*
X026716Y018896D01*
X026616Y018996D01*
X023316Y018996D01*
X023016Y019296D01*
X021716Y019296D01*
X021116Y018596D02*
X021016Y018696D01*
X021016Y022146D01*
X021116Y022246D01*
X021861Y022246D01*
X021861Y021746D02*
X022566Y021746D01*
X022816Y021496D01*
X023681Y021496D01*
X023681Y021896D01*
X023781Y021996D01*
X024250Y021996D01*
X024350Y022096D01*
X024350Y022496D01*
X023681Y022496D02*
X023116Y022496D01*
X023016Y022396D01*
X023016Y022596D01*
X023116Y022496D01*
X023016Y022396D02*
X023016Y022096D01*
X023016Y022596D02*
X023016Y022646D01*
X022916Y022746D01*
X021861Y022746D01*
X021861Y023246D02*
X023916Y023246D01*
X024016Y023346D01*
X024016Y023662D01*
X023616Y023662D01*
X023516Y023762D01*
X023516Y024896D01*
X023616Y024996D01*
X024416Y024996D01*
X024516Y025096D01*
X024516Y025662D01*
X024016Y025796D02*
X024016Y026231D01*
X024116Y026331D01*
X024516Y026331D01*
X024516Y026996D01*
X024616Y027096D01*
X027716Y027096D01*
X027816Y026996D01*
X027816Y025296D01*
X027916Y025196D01*
X030816Y025196D01*
X030916Y025296D01*
X030916Y026086D01*
X031216Y026086D01*
X031781Y024896D02*
X027716Y024896D01*
X026716Y025896D01*
X026716Y025096D02*
X026516Y024896D01*
X026516Y022296D01*
X027516Y021296D01*
X027516Y014096D01*
X027616Y013996D01*
X032181Y013996D01*
X032850Y013996D02*
X033516Y013996D01*
X033681Y013996D01*
X033716Y013996D02*
X033616Y014096D01*
X033616Y015586D01*
X035416Y015586D02*
X035416Y014096D01*
X035316Y013996D01*
X034850Y013996D01*
X034181Y013996D02*
X033716Y013996D01*
X033616Y014096D02*
X033516Y013996D01*
X031176Y015586D02*
X030916Y015586D01*
X030806Y015586D01*
X030716Y015496D01*
X030316Y015496D01*
X030016Y015196D01*
X029116Y015586D02*
X029040Y015662D01*
X028016Y015662D01*
X028016Y016331D02*
X028016Y023296D01*
X027516Y023696D02*
X027516Y021996D01*
X027516Y023696D02*
X027616Y023796D01*
X031016Y023796D01*
X031516Y023296D01*
X031516Y019896D01*
X031616Y019796D01*
X035816Y019796D01*
X036816Y018796D01*
X039666Y018796D01*
X039766Y018896D01*
X039766Y020866D01*
X040266Y020866D02*
X040266Y022146D01*
X040716Y022596D01*
X042216Y022596D01*
X042681Y022131D01*
X042681Y020996D01*
X042216Y020966D02*
X042216Y020796D01*
X042216Y020766D02*
X042216Y020396D01*
X042316Y020296D01*
X043250Y020296D01*
X043350Y020196D01*
X043350Y019496D01*
X042681Y019496D02*
X040866Y019496D01*
X040766Y019596D01*
X040766Y020866D01*
X041266Y020866D02*
X042116Y020866D01*
X042216Y020966D01*
X042216Y022096D01*
X042681Y022996D02*
X039850Y022996D01*
X039850Y022396D01*
X039750Y022296D01*
X039366Y022296D01*
X039266Y022196D01*
X039266Y020866D01*
X038766Y020866D02*
X038766Y022896D01*
X038666Y022996D01*
X038866Y022996D01*
X039181Y022996D01*
X039216Y023031D01*
X038866Y022996D02*
X038766Y022896D01*
X038666Y022996D02*
X038350Y022996D01*
X037681Y022996D02*
X037681Y022596D01*
X037581Y022496D01*
X037781Y022496D01*
X037681Y022596D01*
X037681Y022716D01*
X037781Y022496D02*
X038166Y022496D01*
X038266Y022396D01*
X038266Y020866D01*
X037766Y020866D02*
X037766Y021996D01*
X037666Y022096D01*
X037416Y022096D01*
X036950Y022096D01*
X036850Y021996D01*
X036850Y020996D01*
X036846Y021996D02*
X036746Y022096D01*
X036281Y022096D01*
X036181Y022196D01*
X036181Y022496D01*
X036181Y022862D01*
X036516Y023196D01*
X036516Y024996D01*
X035416Y024596D02*
X035416Y026086D01*
X033616Y026086D02*
X033616Y024596D01*
X033516Y024496D01*
X033681Y024496D01*
X033716Y024496D02*
X034181Y024496D01*
X033716Y024496D02*
X033616Y024596D01*
X033516Y024496D02*
X032850Y024496D01*
X032181Y024496D02*
X031781Y024896D01*
X029116Y026086D02*
X028216Y026086D01*
X028116Y026186D01*
X028116Y029431D01*
X028050Y029496D01*
X027381Y029496D02*
X027381Y028862D01*
X026616Y028096D01*
X026216Y028096D01*
X025316Y027996D02*
X026350Y029031D01*
X026350Y029496D01*
X025681Y029496D02*
X025681Y029896D01*
X025581Y029996D01*
X023781Y029996D01*
X023681Y029896D01*
X023681Y029496D01*
X018271Y029496D01*
X018171Y029396D01*
X018171Y027246D01*
X018171Y026746D02*
X015566Y026746D01*
X015516Y026796D01*
X015016Y026396D02*
X015166Y026246D01*
X018171Y026246D01*
X018171Y025746D02*
X016166Y025746D01*
X016116Y025796D01*
X016856Y025326D02*
X016936Y025246D01*
X018171Y025246D01*
X018171Y024746D02*
X019081Y024746D01*
X019181Y024846D01*
X019181Y025862D01*
X019216Y025896D01*
X019181Y025362D02*
X019181Y024646D01*
X019181Y022846D01*
X019081Y022746D01*
X019181Y022646D01*
X019181Y022346D01*
X019181Y024146D01*
X019181Y024643D02*
X019181Y024646D01*
X019081Y024746D01*
X018171Y024246D02*
X017566Y024246D01*
X016981Y024831D01*
X016016Y024831D01*
X015481Y024831D01*
X015316Y024996D01*
X014850Y024996D01*
X014181Y024996D02*
X014181Y023996D01*
X014181Y022596D01*
X014281Y022496D01*
X015681Y022496D01*
X015681Y020596D01*
X015781Y020496D01*
X019181Y020496D01*
X019181Y022346D01*
X019081Y022746D02*
X018171Y022746D01*
X018171Y023246D02*
X017466Y023246D01*
X016716Y022496D01*
X016350Y022496D01*
X016816Y021696D02*
X017366Y022246D01*
X018171Y022246D01*
X018171Y021746D02*
X017766Y021746D01*
X017016Y020996D01*
X017716Y019996D02*
X014716Y019996D01*
X013716Y020996D01*
X011376Y020996D01*
X011266Y020886D01*
X011266Y019925D01*
X010766Y019925D02*
X010766Y024246D01*
X015516Y028996D01*
X015516Y033146D01*
X015516Y034996D01*
X016516Y034996D02*
X016516Y029296D01*
X011266Y024046D01*
X011266Y021106D01*
X011376Y020996D01*
X011266Y020996D01*
X011266Y021106D01*
X011266Y020996D02*
X011266Y020886D01*
X009916Y020996D02*
X009766Y020846D01*
X009766Y019925D01*
X010266Y019925D02*
X010266Y024446D01*
X014516Y028696D01*
X014516Y032746D01*
X014516Y034996D01*
X013516Y034996D02*
X013516Y032796D01*
X013516Y032196D01*
X013516Y028396D01*
X009916Y024796D01*
X009916Y020996D01*
X009350Y020781D02*
X009350Y021496D01*
X009350Y024931D01*
X012516Y028096D01*
X012516Y034996D01*
X011516Y034996D02*
X011516Y027796D01*
X008681Y024962D01*
X008681Y021496D01*
X008666Y021481D01*
X008666Y021196D01*
X008766Y021096D01*
X008766Y019925D01*
X009266Y019925D02*
X009266Y020696D01*
X009350Y020781D01*
X009266Y019925D02*
X009266Y019146D01*
X009316Y019096D01*
X008266Y019925D02*
X008266Y020796D01*
X008266Y020846D01*
X008116Y020996D01*
X008116Y021996D01*
X008316Y022196D01*
X008316Y025296D01*
X010516Y027496D01*
X010516Y034996D01*
X009516Y034996D02*
X009516Y027196D01*
X007766Y025446D01*
X007766Y022496D01*
X007766Y019925D01*
X007266Y019925D02*
X007266Y025646D01*
X008516Y026896D01*
X008516Y034996D01*
X007516Y034996D02*
X007516Y026696D01*
X006766Y025946D01*
X006766Y019925D01*
X006266Y019925D02*
X006266Y025496D01*
X006266Y026246D01*
X006516Y026496D01*
X006516Y034996D01*
X005516Y034996D02*
X005516Y029496D01*
X005766Y029246D01*
X005766Y026996D01*
X005766Y019925D01*
X005266Y019925D02*
X005266Y029246D01*
X004516Y029996D01*
X004516Y034996D01*
X003516Y034996D02*
X003516Y030496D01*
X004766Y029246D01*
X004766Y019925D01*
X003116Y019925D01*
X003016Y019825D01*
X003016Y018331D01*
X003016Y017662D02*
X003016Y016167D01*
X003116Y016067D01*
X004766Y016067D01*
X004766Y017176D01*
X004866Y017276D01*
X007516Y017276D01*
X008266Y017996D02*
X006516Y017996D01*
X006181Y017662D01*
X004016Y017662D01*
X004016Y018331D02*
X004666Y018331D01*
X004766Y018431D01*
X004766Y018596D01*
X004866Y018696D01*
X010516Y018696D01*
X010816Y018996D01*
X009866Y017696D02*
X012316Y017696D01*
X013016Y016996D01*
X012116Y017296D02*
X012116Y016096D01*
X012216Y015996D01*
X013016Y015996D01*
X014016Y014996D02*
X014016Y017096D01*
X015616Y018696D01*
X015616Y017796D02*
X014616Y016796D01*
X014616Y014496D01*
X014898Y013796D02*
X011366Y013796D01*
X011266Y013896D01*
X011266Y016067D01*
X010766Y016067D02*
X010766Y011946D01*
X014316Y008396D01*
X014316Y003296D01*
X015516Y002096D01*
X015516Y001496D01*
X016516Y001496D02*
X016516Y006996D01*
X011266Y012246D01*
X011266Y013796D01*
X011366Y013796D01*
X011266Y013796D02*
X011266Y013896D01*
X010766Y016067D02*
X010766Y016896D01*
X010816Y016896D01*
X010366Y017396D02*
X012016Y017396D01*
X012116Y017296D01*
X013016Y017996D02*
X008266Y017996D01*
X008266Y016067D01*
X008266Y011046D01*
X009216Y010096D01*
X009216Y004096D01*
X010516Y002796D01*
X010516Y001496D01*
X011516Y001496D02*
X011516Y003196D01*
X009916Y004796D01*
X009916Y010096D01*
X008766Y011246D01*
X008766Y016067D01*
X009266Y016067D02*
X009266Y011446D01*
X012516Y008196D01*
X012516Y001496D01*
X013516Y001496D02*
X013516Y007896D01*
X009766Y011646D01*
X009766Y016067D01*
X009766Y017596D01*
X009866Y017696D01*
X010266Y017296D02*
X010366Y017396D01*
X010266Y017296D02*
X010266Y016296D01*
X010266Y016067D01*
X010266Y011746D01*
X014016Y007996D01*
X014016Y002496D01*
X014516Y001996D01*
X014516Y001496D01*
X009516Y001496D02*
X009516Y002296D01*
X008516Y003296D01*
X008516Y010096D01*
X007916Y010696D01*
X007916Y014496D01*
X007766Y014646D01*
X007766Y016067D01*
X007266Y016067D02*
X007266Y015246D01*
X007316Y015196D01*
X007316Y010596D01*
X008016Y009896D01*
X008016Y002796D01*
X008516Y002296D01*
X008516Y001496D01*
X007516Y001496D02*
X007516Y009696D01*
X006816Y010396D01*
X006816Y014496D01*
X006766Y014546D01*
X006766Y016067D01*
X006266Y016067D02*
X006266Y010246D01*
X006516Y009996D01*
X006516Y001496D01*
X005516Y001496D02*
X005516Y009996D01*
X005766Y010246D01*
X005766Y016067D01*
X005266Y016067D02*
X005266Y010546D01*
X004816Y010096D01*
X004816Y004796D01*
X004516Y004496D01*
X004516Y001496D01*
X003516Y001496D02*
X003516Y004596D01*
X004216Y005296D01*
X004216Y010496D01*
X004766Y011046D01*
X004766Y016067D01*
X004766Y018596D02*
X004766Y018696D01*
X004866Y018696D01*
X004766Y018796D01*
X004766Y019925D01*
X005266Y019925D02*
X005266Y019146D01*
X005316Y019096D01*
X004766Y018796D02*
X004766Y018696D01*
X013516Y021996D02*
X015016Y020496D01*
X013516Y021996D02*
X013516Y025596D01*
X019916Y031996D01*
X033516Y031996D01*
X035216Y030296D01*
X036416Y030296D01*
X037216Y029496D01*
X039666Y029496D01*
X039766Y029596D01*
X039766Y030866D01*
X040266Y030866D02*
X040266Y031696D01*
X040566Y031996D01*
X042716Y031996D01*
X042816Y032096D01*
X042816Y032131D01*
X042816Y031462D02*
X042250Y031462D01*
X042216Y031496D01*
X042216Y030966D01*
X042116Y030866D01*
X042017Y030866D01*
X042116Y030866D02*
X042216Y030766D01*
X042216Y030966D01*
X042116Y030866D02*
X041266Y030866D01*
X040766Y030866D02*
X040766Y029562D01*
X040866Y029462D01*
X042816Y029462D01*
X042816Y030131D02*
X042481Y030131D01*
X042216Y030396D01*
X042216Y030766D01*
X042216Y031496D02*
X042116Y031596D01*
X042816Y031462D02*
X043216Y031462D01*
X043316Y031562D01*
X043316Y032896D01*
X043216Y032996D01*
X041850Y032996D01*
X041181Y032996D02*
X039850Y032996D01*
X039850Y031996D01*
X039750Y031896D01*
X039366Y031896D01*
X039266Y031796D01*
X039266Y030866D01*
X038766Y030866D02*
X038766Y032896D01*
X038666Y032996D01*
X038866Y032996D01*
X038766Y032896D01*
X038866Y032996D02*
X039181Y032996D01*
X038666Y032996D02*
X038350Y032996D01*
X037681Y032996D02*
X036850Y032996D01*
X036181Y032996D02*
X036181Y031696D01*
X036181Y031496D01*
X036281Y031596D01*
X037316Y031596D01*
X037666Y031596D01*
X037766Y031496D01*
X037766Y030866D01*
X038266Y030866D02*
X038266Y031446D01*
X037681Y032031D01*
X037681Y032996D01*
X036281Y031596D02*
X036181Y031696D01*
X036181Y031496D02*
X036181Y030996D01*
X036850Y030996D02*
X036850Y030396D01*
X037250Y029996D01*
X038616Y029996D01*
X038966Y029996D01*
X038866Y029996D02*
X039216Y029996D01*
X038866Y029996D02*
X038766Y030096D01*
X038766Y030866D01*
X038766Y030096D02*
X038666Y029996D01*
X038616Y029996D01*
X044416Y030731D02*
X044516Y030631D01*
X045516Y030631D01*
X046016Y030631D01*
X045716Y030631D02*
X046316Y030631D01*
X045716Y030631D02*
X045616Y030531D01*
X045616Y028096D01*
X047253Y026459D01*
X050016Y026459D01*
X050016Y028428D02*
X047316Y028428D01*
X047216Y028528D01*
X047216Y031462D01*
X046116Y031462D01*
X046016Y031562D01*
X046016Y032996D01*
X045416Y033631D02*
X049316Y033631D01*
X049916Y033631D01*
X050016Y033531D01*
X050016Y030396D01*
X048816Y032196D02*
X048816Y032862D01*
X048716Y032962D01*
X048816Y032862D02*
X048916Y032962D01*
X047316Y032962D01*
X047216Y032862D01*
X047216Y032131D01*
X048916Y032962D02*
X049316Y032962D01*
X045416Y033631D02*
X045316Y033531D01*
X045316Y031896D01*
X044416Y030731D02*
X044416Y033196D01*
X045516Y030631D02*
X045616Y030531D01*
X046316Y029962D02*
X046316Y028596D01*
X044216Y022996D02*
X043350Y022996D01*
X043516Y022996D01*
X043350Y022996D02*
X043350Y020996D01*
X042216Y020766D02*
X042116Y020866D01*
X037581Y022496D02*
X036850Y022496D01*
X036950Y022096D02*
X036746Y022096D01*
X035316Y024496D02*
X034850Y024496D01*
X035316Y024496D02*
X035416Y024596D01*
X029116Y026086D02*
X029106Y026086D01*
X029016Y025996D01*
X025716Y026496D02*
X025716Y024431D01*
X025616Y024331D01*
X024016Y024331D01*
X023116Y024196D02*
X022666Y023746D01*
X021861Y023746D01*
X021861Y024246D02*
X022466Y024246D01*
X024016Y025796D01*
X023116Y026196D02*
X022666Y025746D01*
X021861Y025746D01*
X021861Y026246D02*
X022466Y026246D01*
X023116Y026896D01*
X022616Y026996D02*
X022616Y027596D01*
X022616Y028796D01*
X022716Y028896D01*
X024250Y028896D01*
X024350Y028996D01*
X024350Y029496D01*
X023516Y027996D02*
X025316Y027996D01*
X022616Y026996D02*
X022366Y026746D01*
X021861Y026746D01*
X021861Y027246D02*
X021116Y027246D01*
X021016Y027346D01*
X021016Y027596D01*
X020816Y024746D02*
X020716Y024646D01*
X020716Y018296D01*
X020816Y018196D01*
X025916Y018196D01*
X026016Y018096D01*
X026016Y004096D01*
X026116Y003996D01*
X032181Y003996D01*
X032850Y003996D02*
X033516Y003996D01*
X033716Y003996D01*
X033616Y004096D01*
X033616Y005586D01*
X035416Y005586D02*
X035416Y004096D01*
X035316Y003996D01*
X034850Y003996D01*
X034181Y003996D02*
X033716Y003996D01*
X033616Y004096D02*
X033516Y003996D01*
X031176Y005586D02*
X030916Y005586D01*
X030306Y005586D01*
X030016Y005296D01*
X029116Y005586D02*
X028626Y005586D01*
X027516Y006696D01*
X027516Y007162D01*
X027516Y007831D02*
X027516Y011496D01*
X026416Y012596D01*
X026416Y018496D01*
X026316Y018596D01*
X021116Y018596D01*
X022516Y019996D02*
X022516Y020796D01*
X022616Y020896D01*
X024250Y020896D01*
X024350Y020996D01*
X024350Y021496D01*
X021861Y024746D02*
X020816Y024746D01*
X018171Y023746D02*
X017266Y023746D01*
X017016Y023496D01*
X015450Y023496D01*
X015350Y023596D01*
X014850Y023996D01*
X017716Y019996D02*
X017816Y019896D01*
X017816Y014395D01*
X017716Y014295D01*
X016185Y014295D01*
X016185Y015083D02*
X014898Y013796D01*
X030016Y018121D02*
X030016Y018496D01*
X036516Y013996D02*
X036516Y013196D01*
X036181Y012862D01*
X036181Y012496D01*
X036181Y011996D01*
X036181Y011796D01*
X036281Y011896D01*
X037716Y011896D01*
X037766Y011846D01*
X037766Y010866D01*
X038266Y010866D02*
X038266Y012396D01*
X038166Y012496D01*
X037781Y012496D01*
X037681Y012596D01*
X037681Y012996D01*
X037681Y012596D02*
X037581Y012496D01*
X037866Y012496D01*
X037581Y012496D02*
X036850Y012496D01*
X036281Y011896D02*
X036181Y011996D01*
X036181Y011796D02*
X036181Y010496D01*
X036850Y010496D02*
X036850Y010096D01*
X036950Y009996D01*
X038666Y009996D01*
X038766Y010096D01*
X038766Y010866D01*
X038766Y012896D01*
X038666Y012996D01*
X038966Y012996D01*
X038866Y012996D02*
X039181Y012996D01*
X039181Y013862D01*
X039216Y013896D01*
X038866Y012996D02*
X038766Y012896D01*
X038666Y012996D02*
X038350Y012996D01*
X038169Y017030D02*
X038112Y017030D01*
X038016Y017126D01*
X046026Y009256D02*
X046016Y009066D01*
D32*
X041816Y010896D03*
X037716Y011896D03*
X035016Y012296D03*
X039216Y013896D03*
X043016Y013996D03*
X046016Y014296D03*
X047716Y015796D03*
X039216Y019796D03*
X037416Y022096D03*
X042216Y022096D03*
X044216Y022996D03*
X046316Y028596D03*
X042116Y031596D03*
X044416Y033196D03*
X045316Y031896D03*
X046016Y032996D03*
X048816Y032196D03*
X039216Y029996D03*
X037316Y031596D03*
X026716Y025896D03*
X026716Y025096D03*
X028016Y023296D03*
X027016Y022796D03*
X027516Y021996D03*
X023816Y019896D03*
X021716Y019296D03*
X020016Y019496D03*
X017116Y019396D03*
X015616Y018696D03*
X015616Y017796D03*
X014016Y014996D03*
X014616Y014496D03*
X010816Y016896D03*
X008266Y017996D03*
X007516Y017276D03*
X009316Y019096D03*
X010816Y018996D03*
X008266Y020796D03*
X007766Y022496D03*
X006266Y025496D03*
X005766Y026996D03*
X007516Y026696D03*
X008516Y026896D03*
X015016Y026396D03*
X015516Y026796D03*
X016116Y025796D03*
X016856Y025326D03*
X016916Y024096D03*
X019216Y025896D03*
X019916Y023996D03*
X023116Y024196D03*
X023116Y026196D03*
X023116Y026896D03*
X022616Y027596D03*
X021016Y027596D03*
X026216Y028096D03*
X023016Y022096D03*
X017016Y020996D03*
X016816Y021696D03*
X015016Y020496D03*
X007316Y015196D03*
X006816Y014496D03*
X007916Y014496D03*
X005316Y019096D03*
X013516Y032196D03*
X014516Y032746D03*
X015516Y033146D03*
X030016Y015196D03*
X030016Y005296D03*
X018016Y004296D03*
X045716Y004096D03*
D33*
X045681Y004131D01*
X045681Y004996D01*
X045681Y006096D01*
X045381Y006096D01*
X045181Y006296D01*
X045181Y006996D01*
X045181Y007996D01*
X045126Y008052D01*
X045126Y009256D01*
X046016Y009246D02*
X046016Y008596D01*
X045850Y008431D01*
X045850Y007996D01*
X045850Y006996D01*
X046350Y006631D02*
X046926Y007206D01*
X046926Y009256D01*
X047516Y009256D01*
X047716Y009056D01*
X047716Y009456D01*
X047716Y012128D01*
X047716Y012528D01*
X047716Y015796D01*
X046016Y014296D02*
X046016Y011736D01*
X046016Y009266D01*
X046026Y009256D01*
X046016Y009246D01*
X047516Y009256D02*
X047716Y009456D01*
X047716Y009056D02*
X047716Y001996D01*
X047516Y001796D01*
X026516Y001796D01*
X024016Y004296D01*
X018016Y004296D01*
X027116Y013996D02*
X028016Y013096D01*
X034216Y013096D01*
X035016Y012296D01*
X038016Y015496D02*
X038016Y017026D01*
X038116Y017126D01*
X038266Y017126D01*
X038766Y017126D01*
X039266Y017126D01*
X039766Y017126D02*
X040266Y017126D01*
X040766Y017126D01*
X041266Y017126D01*
X042016Y015496D02*
X042016Y014096D01*
X038266Y017126D02*
X038169Y017030D01*
X038566Y019796D02*
X036381Y019796D01*
X036181Y019996D01*
X036181Y020996D01*
X034616Y020996D01*
X031216Y024396D01*
X027216Y024396D01*
X027016Y024196D01*
X027016Y022796D01*
X025716Y022496D02*
X025716Y021496D01*
X025916Y021296D01*
X026316Y021296D01*
X026516Y021096D01*
X026516Y019996D01*
X026416Y019896D01*
X023816Y019896D01*
X026516Y019996D02*
X026916Y019996D01*
X027116Y019796D01*
X027116Y013996D01*
X020016Y019496D02*
X019850Y019662D01*
X019850Y020496D01*
X019850Y021931D01*
X019916Y021996D01*
X019916Y023996D01*
X019916Y025046D01*
X020116Y025246D01*
X021861Y025246D01*
X022966Y025246D01*
X023616Y025896D01*
X023616Y026996D01*
X024116Y027496D01*
X027016Y027496D01*
X027516Y027996D01*
X037766Y027126D02*
X038016Y027126D01*
X038016Y025496D01*
X038016Y027126D02*
X038266Y027126D01*
X038766Y027126D01*
X039266Y027126D01*
X039766Y027126D02*
X040266Y027126D01*
X040766Y027126D01*
X041266Y027126D01*
X042016Y025496D02*
X042016Y024096D01*
X038766Y020866D02*
X038766Y019996D01*
X038966Y019796D01*
X039216Y019796D01*
X039066Y019796D02*
X038566Y019796D01*
X038766Y019996D01*
X047716Y012528D02*
X047916Y012328D01*
X047716Y012128D01*
X047916Y012328D02*
X050016Y012328D01*
X046350Y006631D02*
X046350Y006096D01*
X046350Y004996D01*
X042016Y005496D02*
X042016Y004096D01*
X041266Y007126D02*
X040766Y007126D01*
X040266Y007126D01*
X039766Y007126D01*
X039266Y007126D02*
X038766Y007126D01*
X038266Y007126D01*
X038016Y007126D01*
X038016Y005496D01*
X038016Y007126D02*
X037766Y007126D01*
X037669Y007126D02*
X037516Y007126D01*
X017116Y016070D02*
X016916Y015870D01*
X016185Y015870D01*
X017116Y016070D02*
X017116Y019396D01*
X014416Y019396D01*
X014016Y018996D01*
X013016Y018996D01*
X016081Y024096D02*
X016016Y024162D01*
X016081Y024096D02*
X016916Y024096D01*
D34*
X030016Y020496D02*
X030016Y018496D01*
X032266Y017721D02*
X032666Y018121D01*
X034516Y018121D01*
X035991Y018121D01*
X036986Y017126D01*
X037766Y017126D01*
X038016Y017126D01*
X036116Y015586D02*
X035416Y015586D01*
X036116Y015586D02*
X036516Y015186D01*
X036516Y013996D01*
X032266Y015986D02*
X031866Y015586D01*
X031176Y015586D01*
X032266Y015986D02*
X032266Y017721D01*
X041266Y017126D02*
X043346Y017126D01*
X047247Y021028D01*
X050016Y021028D01*
X050016Y019059D02*
X047279Y019059D01*
X044016Y015796D01*
X044016Y007926D01*
X043216Y007126D01*
X041266Y007126D01*
X037766Y007126D02*
X037516Y007126D01*
X036986Y007126D01*
X035991Y008121D01*
X034516Y008121D01*
X032916Y008121D01*
X032516Y007721D01*
X032516Y005986D01*
X032116Y005586D01*
X031176Y005586D01*
X030016Y008121D02*
X030016Y010496D01*
X035416Y005586D02*
X036116Y005586D01*
X036516Y005186D01*
X036516Y004496D01*
X045816Y022996D02*
X050016Y022996D01*
X045816Y022996D02*
X045016Y023796D01*
X045016Y025196D01*
X043086Y027126D01*
X041266Y027126D01*
X037766Y027126D02*
X037486Y027126D01*
X035991Y028621D01*
X034516Y028621D01*
X032666Y028621D01*
X032266Y028221D01*
X032266Y026486D01*
X031866Y026086D01*
X031216Y026086D01*
X030016Y028621D02*
X030016Y030996D01*
X035416Y026086D02*
X035716Y026086D01*
X036516Y025286D01*
X036516Y024996D01*
D35*
X036516Y024996D03*
X030016Y020496D03*
X036516Y013996D03*
X030016Y010496D03*
X036516Y004496D03*
X030016Y030996D03*
M02*
