G75*
G70*
%OFA0B0*%
%FSLAX24Y24*%
%IPPOS*%
%LPD*%
%AMOC8*
5,1,8,0,0,1.08239X$1,22.5*
%
%ADD10R,0.0256X0.0079*%
%ADD11R,0.0079X0.0256*%
%ADD12R,0.1732X0.1732*%
%ADD13R,0.0433X0.0433*%
%ADD14R,0.0256X0.0236*%
%ADD15R,0.0630X0.0709*%
%ADD16R,0.1181X0.0630*%
%ADD17R,0.2470X0.2280*%
%ADD18R,0.0630X0.1181*%
%ADD19R,0.2280X0.2470*%
%ADD20R,0.0591X0.0118*%
%ADD21R,0.0118X0.0591*%
%ADD22R,0.0433X0.0394*%
%ADD23R,0.0354X0.0276*%
%ADD24R,0.0276X0.0354*%
%ADD25R,0.0790X0.0590*%
%ADD26R,0.0790X0.1500*%
%ADD27R,0.0709X0.0630*%
%ADD28R,0.0394X0.0433*%
%ADD29R,0.0433X0.0433*%
%ADD30R,0.0906X0.0689*%
%ADD31R,0.0689X0.0906*%
%ADD32R,0.0642X0.0598*%
%ADD33R,0.0591X0.0217*%
%ADD34R,0.0610X0.0236*%
D10*
X015269Y021090D03*
X015269Y021247D03*
X015269Y021405D03*
X015269Y021562D03*
X015269Y021720D03*
X015269Y021877D03*
X015269Y022035D03*
X015269Y022192D03*
X015269Y022349D03*
X015269Y022507D03*
X015269Y022664D03*
X015269Y022822D03*
X017533Y022822D03*
X017533Y022664D03*
X017533Y022507D03*
X017533Y022349D03*
X017533Y022192D03*
X017533Y022035D03*
X017533Y021877D03*
X017533Y021720D03*
X017533Y021562D03*
X017533Y021405D03*
X017533Y021247D03*
X017533Y021090D03*
D11*
X017267Y020824D03*
X017109Y020824D03*
X016952Y020824D03*
X016794Y020824D03*
X016637Y020824D03*
X016480Y020824D03*
X016322Y020824D03*
X016165Y020824D03*
X016007Y020824D03*
X015850Y020824D03*
X015692Y020824D03*
X015535Y020824D03*
X015535Y023088D03*
X015692Y023088D03*
X015850Y023088D03*
X016007Y023088D03*
X016165Y023088D03*
X016322Y023088D03*
X016480Y023088D03*
X016637Y023088D03*
X016794Y023088D03*
X016952Y023088D03*
X017109Y023088D03*
X017267Y023088D03*
D12*
X016401Y021956D03*
D13*
X004306Y004036D03*
X004306Y004705D03*
X007751Y004685D03*
X007751Y004016D03*
X011351Y004016D03*
X011351Y004685D03*
X014591Y004720D03*
X014591Y004051D03*
X015536Y005716D03*
X016205Y005716D03*
X017721Y007401D03*
X018390Y007401D03*
X018390Y008236D03*
X017721Y008236D03*
X020646Y005676D03*
X021315Y005676D03*
X013666Y011896D03*
X013666Y012565D03*
X012771Y012570D03*
X012771Y011901D03*
X010780Y013326D03*
X010111Y013326D03*
X010170Y012471D03*
X009501Y012471D03*
X008806Y012530D03*
X008806Y011861D03*
X009496Y011621D03*
X010165Y011621D03*
X010160Y010751D03*
X009491Y010751D03*
X010111Y014201D03*
X010780Y014201D03*
X011105Y015056D03*
X010436Y015056D03*
X010436Y015911D03*
X011105Y015911D03*
X011936Y016086D03*
X012605Y016086D03*
X011110Y016761D03*
X010441Y016761D03*
X010451Y017596D03*
X011120Y017596D03*
X012026Y017596D03*
X012695Y017596D03*
X011125Y018426D03*
X010456Y018426D03*
X009321Y018681D03*
X009321Y019350D03*
X010456Y019261D03*
X011125Y019261D03*
X011661Y019266D03*
X012330Y019266D03*
X011125Y020096D03*
X010456Y020096D03*
X010466Y020926D03*
X011135Y020926D03*
X011681Y020926D03*
X012350Y020926D03*
X012350Y021751D03*
X011681Y021751D03*
X011135Y021751D03*
X010466Y021751D03*
X010471Y022576D03*
X011140Y022576D03*
X011150Y023416D03*
X011751Y023561D03*
X012420Y023561D03*
X011150Y024241D03*
X010481Y024241D03*
X010481Y023416D03*
X009316Y023276D03*
X009316Y023945D03*
X009346Y025096D03*
X010015Y025096D03*
X010646Y025101D03*
X011315Y025101D03*
X010751Y025881D03*
X009995Y025936D03*
X009326Y025936D03*
X010751Y026550D03*
X014081Y024911D03*
X014750Y024911D03*
X015431Y025100D03*
X016236Y025100D03*
X016236Y024431D03*
X015431Y024431D03*
X017366Y024431D03*
X018186Y024615D03*
X018186Y023946D03*
X018061Y025276D03*
X018730Y025276D03*
X017366Y025100D03*
X015470Y025821D03*
X014801Y025821D03*
X015771Y027246D03*
X015771Y027915D03*
X016916Y029636D03*
X017585Y029636D03*
X018201Y027456D03*
X018870Y027456D03*
X020616Y023545D03*
X021481Y023550D03*
X022451Y023525D03*
X022451Y022856D03*
X021481Y022881D03*
X020616Y022876D03*
X024441Y021416D03*
X025110Y021416D03*
X025781Y021416D03*
X026450Y021416D03*
X026450Y022261D03*
X025781Y022261D03*
X025766Y023096D03*
X026435Y023096D03*
X027166Y022256D03*
X027835Y022256D03*
X027966Y022951D03*
X027966Y023620D03*
X026460Y020576D03*
X025791Y020576D03*
X025120Y020606D03*
X024451Y020606D03*
X024296Y018111D03*
X023715Y018116D03*
X023046Y018116D03*
X023051Y017276D03*
X023720Y017276D03*
X024311Y017271D03*
X024980Y017271D03*
X024965Y018111D03*
X021021Y018686D03*
X021021Y019355D03*
X017446Y019610D03*
X017446Y018941D03*
X015786Y019296D03*
X015786Y019965D03*
X009336Y020396D03*
X009336Y021065D03*
X009326Y021916D03*
X009326Y022585D03*
X006230Y021206D03*
X005561Y021206D03*
X005561Y020376D03*
X006230Y020376D03*
X006230Y019546D03*
X005561Y019546D03*
X005561Y018711D03*
X006230Y018711D03*
X006230Y017856D03*
X005561Y017856D03*
X005561Y017011D03*
X006230Y017011D03*
X006230Y016151D03*
X005561Y016151D03*
X005561Y015296D03*
X006230Y015296D03*
X009291Y015310D03*
X009291Y014641D03*
X009291Y015991D03*
X009291Y016660D03*
X009291Y017251D03*
X009291Y017920D03*
X016776Y016076D03*
X017445Y016076D03*
X018006Y016126D03*
X018675Y016126D03*
X017450Y015236D03*
X016781Y015236D03*
X020256Y012815D03*
X021081Y012815D03*
X021081Y012146D03*
X020256Y012146D03*
X045416Y028001D03*
X046085Y028001D03*
X046085Y029351D03*
X045416Y029351D03*
X050669Y030580D03*
X050669Y031250D03*
X051397Y031884D03*
X052066Y031884D03*
X052019Y030893D03*
X052688Y030893D03*
X053620Y030947D03*
X054289Y030947D03*
X054745Y029728D03*
X054745Y029059D03*
X050725Y029190D03*
X050725Y028521D03*
X054016Y023851D03*
X054685Y023851D03*
X055266Y020101D03*
X055935Y020101D03*
X051935Y020101D03*
X051266Y020101D03*
X049851Y018935D03*
X049851Y018266D03*
X057601Y017185D03*
X057601Y016516D03*
X060101Y016516D03*
X060101Y017185D03*
X038485Y028651D03*
X037816Y028651D03*
X037816Y030151D03*
X038485Y030151D03*
X043551Y033016D03*
X043551Y033685D03*
X045501Y033685D03*
X045501Y033016D03*
X010825Y034326D03*
X010156Y034326D03*
D14*
X008179Y023430D03*
X007293Y023056D03*
X008179Y022682D03*
X008179Y022005D03*
X007293Y021631D03*
X008179Y021257D03*
X008179Y020675D03*
X007293Y020301D03*
X008179Y019927D03*
X008179Y019330D03*
X007293Y018956D03*
X008179Y018582D03*
X008179Y018005D03*
X007293Y017631D03*
X008179Y017257D03*
X008179Y016720D03*
X007293Y016346D03*
X008179Y015972D03*
X008179Y015410D03*
X007293Y015036D03*
X008179Y014662D03*
X008179Y014095D03*
X007293Y013721D03*
X008179Y013347D03*
D15*
X016500Y016921D03*
X017602Y016921D03*
X027375Y008631D03*
X028477Y008631D03*
X008357Y026301D03*
X007255Y026301D03*
D16*
X011106Y030156D03*
X011106Y031956D03*
X022606Y031791D03*
X022606Y029991D03*
D17*
X020071Y030891D03*
X013641Y031056D03*
D18*
X015971Y030896D03*
X017771Y030896D03*
D19*
X016871Y033431D03*
D20*
X014782Y013402D03*
X014782Y013205D03*
X014782Y013008D03*
X014782Y012812D03*
X014782Y012615D03*
X014782Y012418D03*
X014782Y012221D03*
X014782Y012024D03*
X014782Y011827D03*
X014782Y011631D03*
X014782Y011434D03*
X014782Y011237D03*
X014782Y011040D03*
X014782Y010843D03*
X014782Y010646D03*
X014782Y010449D03*
X019270Y010449D03*
X019270Y010646D03*
X019270Y010843D03*
X019270Y011040D03*
X019270Y011237D03*
X019270Y011434D03*
X019270Y011631D03*
X019270Y011827D03*
X019270Y012024D03*
X019270Y012221D03*
X019270Y012418D03*
X019270Y012615D03*
X019270Y012812D03*
X019270Y013008D03*
X019270Y013205D03*
X019270Y013402D03*
D21*
X018502Y014170D03*
X018305Y014170D03*
X018108Y014170D03*
X017912Y014170D03*
X017715Y014170D03*
X017518Y014170D03*
X017321Y014170D03*
X017124Y014170D03*
X016927Y014170D03*
X016731Y014170D03*
X016534Y014170D03*
X016337Y014170D03*
X016140Y014170D03*
X015943Y014170D03*
X015746Y014170D03*
X015549Y014170D03*
X015549Y009682D03*
X015746Y009682D03*
X015943Y009682D03*
X016140Y009682D03*
X016337Y009682D03*
X016534Y009682D03*
X016731Y009682D03*
X016927Y009682D03*
X017124Y009682D03*
X017321Y009682D03*
X017518Y009682D03*
X017715Y009682D03*
X017912Y009682D03*
X018108Y009682D03*
X018305Y009682D03*
X018502Y009682D03*
D22*
X017180Y008406D03*
X016511Y008406D03*
D23*
X012306Y013615D03*
X012306Y014127D03*
D24*
X013610Y014251D03*
X014122Y014251D03*
D25*
X029841Y014111D03*
X029841Y013211D03*
X029841Y015011D03*
D26*
X027361Y014101D03*
D27*
X032101Y014550D03*
X032101Y013652D03*
X032101Y012550D03*
X032101Y015652D03*
D28*
X031101Y015435D03*
X031101Y014766D03*
X031101Y013585D03*
X031101Y012916D03*
D29*
G36*
X033609Y009260D02*
X033289Y008970D01*
X032999Y009290D01*
X033319Y009580D01*
X033609Y009260D01*
G37*
G36*
X033112Y008812D02*
X032792Y008522D01*
X032502Y008842D01*
X032822Y009132D01*
X033112Y008812D01*
G37*
G36*
X033604Y008615D02*
X033924Y008905D01*
X034214Y008585D01*
X033894Y008295D01*
X033604Y008615D01*
G37*
G36*
X033107Y008167D02*
X033427Y008457D01*
X033717Y008137D01*
X033397Y007847D01*
X033107Y008167D01*
G37*
G36*
X033264Y007740D02*
X032944Y007450D01*
X032654Y007770D01*
X032974Y008060D01*
X033264Y007740D01*
G37*
G36*
X032767Y007292D02*
X032447Y007002D01*
X032157Y007322D01*
X032477Y007612D01*
X032767Y007292D01*
G37*
G36*
X031537Y007977D02*
X031857Y008267D01*
X032147Y007947D01*
X031827Y007657D01*
X031537Y007977D01*
G37*
G36*
X032034Y008425D02*
X032354Y008715D01*
X032644Y008395D01*
X032324Y008105D01*
X032034Y008425D01*
G37*
G36*
X032282Y004990D02*
X031962Y005280D01*
X032252Y005600D01*
X032572Y005310D01*
X032282Y004990D01*
G37*
G36*
X032779Y004542D02*
X032459Y004832D01*
X032749Y005152D01*
X033069Y004862D01*
X032779Y004542D01*
G37*
G36*
X033242Y004725D02*
X033562Y004435D01*
X033272Y004115D01*
X032952Y004405D01*
X033242Y004725D01*
G37*
G36*
X032129Y003847D02*
X031809Y004137D01*
X032099Y004457D01*
X032419Y004167D01*
X032129Y003847D01*
G37*
G36*
X032607Y003990D02*
X032927Y003700D01*
X032637Y003380D01*
X032317Y003670D01*
X032607Y003990D01*
G37*
G36*
X031632Y004295D02*
X031312Y004585D01*
X031602Y004905D01*
X031922Y004615D01*
X031632Y004295D01*
G37*
G36*
X033104Y003542D02*
X033424Y003252D01*
X033134Y002932D01*
X032814Y003222D01*
X033104Y003542D01*
G37*
G36*
X033739Y004277D02*
X034059Y003987D01*
X033769Y003667D01*
X033449Y003957D01*
X033739Y004277D01*
G37*
D30*
X024791Y023656D03*
X024791Y025656D03*
X017071Y026471D03*
X017071Y028471D03*
X005011Y028101D03*
X005011Y030101D03*
D31*
X012476Y027706D03*
X014476Y027706D03*
X020601Y025026D03*
X022601Y025026D03*
D32*
X026526Y025572D03*
X026526Y023879D03*
X002746Y028159D03*
X002746Y029852D03*
D33*
X044538Y030651D03*
X044538Y031151D03*
X044538Y031651D03*
X044538Y032151D03*
X046664Y032151D03*
X046664Y031651D03*
X046664Y031151D03*
X046664Y030651D03*
D34*
X051584Y029483D03*
X051584Y028983D03*
X051584Y028483D03*
X051584Y027983D03*
X053710Y027983D03*
X053710Y028483D03*
X053710Y028983D03*
X053710Y029483D03*
X054664Y017351D03*
X054664Y016851D03*
X054664Y016351D03*
X054664Y015851D03*
X052538Y015851D03*
X052538Y016351D03*
X052538Y016851D03*
X052538Y017351D03*
M02*
