G75*
G70*
%OFA0B0*%
%FSLAX24Y24*%
%IPPOS*%
%LPD*%
%AMOC8*
5,1,8,0,0,1.08239X$1,22.5*
%
%ADD10R,0.0118X0.0591*%
%ADD11R,0.0591X0.0118*%
%ADD12R,0.0433X0.0394*%
%ADD13R,0.0433X0.0433*%
%ADD14R,0.0790X0.0590*%
%ADD15R,0.0790X0.1500*%
%ADD16R,0.0709X0.0630*%
%ADD17R,0.0138X0.0335*%
%ADD18R,0.0315X0.0138*%
%ADD19R,0.0354X0.0276*%
%ADD20R,0.1654X0.0433*%
%ADD21R,0.1457X0.0591*%
%ADD22R,0.0433X0.0433*%
%ADD23R,0.0630X0.0709*%
%ADD24R,0.0256X0.0886*%
%ADD25R,0.1063X0.0236*%
%ADD26R,0.0787X0.0472*%
%ADD27R,0.0276X0.0354*%
%ADD28R,0.0780X0.0210*%
%ADD29R,0.0610X0.0236*%
%ADD30R,0.5000X0.4150*%
%ADD31R,0.0598X0.0642*%
%ADD32R,0.0866X0.0236*%
%ADD33R,0.0236X0.0256*%
%ADD34R,0.0642X0.0598*%
%ADD35R,0.1181X0.0630*%
%ADD36R,0.2470X0.2280*%
%ADD37R,0.2760X0.2760*%
%ADD38R,0.0990X0.0590*%
%ADD39R,0.0906X0.0689*%
%ADD40R,0.0394X0.0433*%
%ADD41R,0.0236X0.0866*%
%ADD42R,0.0256X0.0236*%
%ADD43R,0.0591X0.0217*%
D10*
X026527Y014186D03*
X026724Y014186D03*
X026921Y014186D03*
X027118Y014186D03*
X027315Y014186D03*
X027511Y014186D03*
X027708Y014186D03*
X027905Y014186D03*
X028102Y014186D03*
X028299Y014186D03*
X028496Y014186D03*
X028693Y014186D03*
X028889Y014186D03*
X029086Y014186D03*
X029283Y014186D03*
X029480Y014186D03*
X029480Y018674D03*
X029283Y018674D03*
X029086Y018674D03*
X028889Y018674D03*
X028693Y018674D03*
X028496Y018674D03*
X028299Y018674D03*
X028102Y018674D03*
X027905Y018674D03*
X027708Y018674D03*
X027511Y018674D03*
X027315Y018674D03*
X027118Y018674D03*
X026921Y018674D03*
X026724Y018674D03*
X026527Y018674D03*
X084477Y008929D03*
X084674Y008929D03*
X084871Y008929D03*
X085068Y008929D03*
X085265Y008929D03*
X085461Y008929D03*
X085658Y008929D03*
X085855Y008929D03*
X086052Y008929D03*
X086249Y008929D03*
X086446Y008929D03*
X086643Y008929D03*
X086839Y008929D03*
X087036Y008929D03*
X087233Y008929D03*
X087430Y008929D03*
X087430Y004441D03*
X087233Y004441D03*
X087036Y004441D03*
X086839Y004441D03*
X086643Y004441D03*
X086446Y004441D03*
X086249Y004441D03*
X086052Y004441D03*
X085855Y004441D03*
X085658Y004441D03*
X085461Y004441D03*
X085265Y004441D03*
X085068Y004441D03*
X084871Y004441D03*
X084674Y004441D03*
X084477Y004441D03*
D11*
X083709Y005209D03*
X083709Y005405D03*
X083709Y005602D03*
X083709Y005799D03*
X083709Y005996D03*
X083709Y006193D03*
X083709Y006390D03*
X083709Y006587D03*
X083709Y006783D03*
X083709Y006980D03*
X083709Y007177D03*
X083709Y007374D03*
X083709Y007571D03*
X083709Y007768D03*
X083709Y007964D03*
X083709Y008161D03*
X088198Y008161D03*
X088198Y007964D03*
X088198Y007768D03*
X088198Y007571D03*
X088198Y007374D03*
X088198Y007177D03*
X088198Y006980D03*
X088198Y006783D03*
X088198Y006587D03*
X088198Y006390D03*
X088198Y006193D03*
X088198Y005996D03*
X088198Y005799D03*
X088198Y005602D03*
X088198Y005405D03*
X088198Y005209D03*
X030248Y014954D03*
X030248Y015150D03*
X030248Y015347D03*
X030248Y015544D03*
X030248Y015741D03*
X030248Y015938D03*
X030248Y016135D03*
X030248Y016332D03*
X030248Y016528D03*
X030248Y016725D03*
X030248Y016922D03*
X030248Y017119D03*
X030248Y017316D03*
X030248Y017513D03*
X030248Y017709D03*
X030248Y017906D03*
X025759Y017906D03*
X025759Y017709D03*
X025759Y017513D03*
X025759Y017316D03*
X025759Y017119D03*
X025759Y016922D03*
X025759Y016725D03*
X025759Y016528D03*
X025759Y016332D03*
X025759Y016135D03*
X025759Y015938D03*
X025759Y015741D03*
X025759Y015544D03*
X025759Y015347D03*
X025759Y015150D03*
X025759Y014954D03*
D12*
X032219Y015380D03*
X032888Y015380D03*
D13*
X032504Y016045D03*
X031704Y016045D03*
X031704Y016715D03*
X032504Y016715D03*
X034569Y015480D03*
X035238Y015480D03*
X039754Y016945D03*
X039754Y017615D03*
X039754Y018145D03*
X039754Y018815D03*
X038238Y021080D03*
X037569Y021080D03*
X042419Y022530D03*
X043088Y022530D03*
X043088Y023430D03*
X042419Y023430D03*
X043654Y024395D03*
X043654Y025065D03*
X043654Y026445D03*
X043654Y027115D03*
X041688Y028430D03*
X041019Y028430D03*
X043354Y028645D03*
X044354Y028645D03*
X044354Y029315D03*
X043354Y029315D03*
X053669Y026580D03*
X054338Y026580D03*
X047454Y024465D03*
X047454Y023795D03*
X048804Y021765D03*
X048804Y021095D03*
X053469Y020130D03*
X054138Y020130D03*
X047788Y015930D03*
X047119Y015930D03*
X053169Y013330D03*
X053838Y013330D03*
X059754Y007815D03*
X059754Y007145D03*
X069204Y002020D03*
X069204Y001350D03*
X072704Y001350D03*
X072704Y002020D03*
X076204Y002020D03*
X076204Y001350D03*
X079704Y001350D03*
X079704Y002020D03*
X084804Y002700D03*
X084804Y003370D03*
X086854Y003420D03*
X087904Y003420D03*
X087904Y002750D03*
X086854Y002750D03*
X090119Y003685D03*
X090788Y003685D03*
X090404Y006900D03*
X089354Y006900D03*
X089354Y007570D03*
X090404Y007570D03*
X090154Y009500D03*
X090154Y010170D03*
X086283Y010360D03*
X085614Y010360D03*
X082288Y010185D03*
X081619Y010185D03*
X080788Y010685D03*
X080119Y010685D03*
X083204Y011850D03*
X083204Y012520D03*
X085619Y011435D03*
X086288Y011435D03*
X083288Y013685D03*
X082619Y013685D03*
X079104Y016450D03*
X079104Y017120D03*
X075788Y017185D03*
X075119Y017185D03*
X089869Y021935D03*
X090538Y021935D03*
X087954Y024350D03*
X087954Y025020D03*
X087104Y027700D03*
X087104Y028370D03*
X087104Y029100D03*
X087104Y029770D03*
X093869Y014185D03*
X094538Y014185D03*
X079574Y007420D03*
X078604Y007420D03*
X078604Y006750D03*
X079574Y006750D03*
X080119Y004185D03*
X080788Y004185D03*
X040013Y004280D03*
X039344Y004280D03*
X039349Y005235D03*
X040018Y005235D03*
X040013Y003280D03*
X039344Y003280D03*
X035948Y007530D03*
X035279Y007530D03*
X027319Y006235D03*
X027319Y005565D03*
X019954Y005945D03*
X019954Y006615D03*
X019988Y007580D03*
X019319Y007580D03*
X017743Y004480D03*
X017074Y004480D03*
X018504Y004315D03*
X019173Y004315D03*
X018754Y002315D03*
X018754Y001645D03*
X022254Y001645D03*
X022254Y002315D03*
X015254Y002315D03*
X015254Y001645D03*
X011754Y001645D03*
X011754Y002315D03*
X004404Y006445D03*
X004404Y007115D03*
X007204Y011295D03*
X007204Y011965D03*
X012054Y012395D03*
X012054Y013065D03*
X021004Y012795D03*
X021004Y013465D03*
X021004Y014445D03*
X021004Y015115D03*
X023704Y016595D03*
X024554Y016595D03*
X024554Y017265D03*
X023704Y017265D03*
X024904Y018495D03*
X024904Y019165D03*
X023438Y018830D03*
X022769Y018830D03*
X027819Y019930D03*
X028488Y019930D03*
X028488Y020930D03*
X027819Y020930D03*
X031904Y020565D03*
X031904Y019895D03*
X028888Y022430D03*
X028219Y022430D03*
X027453Y022415D03*
X026784Y022415D03*
X025288Y023430D03*
X024619Y023430D03*
X024619Y024280D03*
X025288Y024280D03*
X028169Y024530D03*
X028838Y024530D03*
X028838Y023730D03*
X028169Y023730D03*
X023904Y026745D03*
X022904Y026745D03*
X022904Y027415D03*
X023904Y027415D03*
X011088Y025585D03*
X010419Y025585D03*
X027369Y012680D03*
X028038Y012680D03*
X027898Y011880D03*
X027229Y011880D03*
D14*
X019844Y013090D03*
X019844Y013990D03*
X019844Y014890D03*
X085844Y027845D03*
X085844Y028745D03*
X085844Y029645D03*
X088194Y019095D03*
X088194Y018195D03*
X088194Y017295D03*
D15*
X085714Y018185D03*
X083364Y028735D03*
X017364Y013980D03*
D16*
X022154Y013481D03*
X022154Y014529D03*
X022154Y015631D03*
X022904Y016679D03*
X022904Y017781D03*
X022154Y012379D03*
X045354Y028429D03*
X046304Y028429D03*
X046304Y029531D03*
X045354Y029531D03*
X088104Y029384D03*
X088104Y028236D03*
X088104Y027134D03*
X088104Y030486D03*
X090954Y019736D03*
X090954Y018634D03*
X090954Y017486D03*
X090954Y016384D03*
D17*
X081946Y012963D03*
X081749Y012963D03*
X081552Y012963D03*
X081355Y012963D03*
X081158Y012963D03*
X080961Y012963D03*
X080961Y011407D03*
X081158Y011407D03*
X081355Y011407D03*
X081552Y011407D03*
X081749Y011407D03*
X081946Y011407D03*
X018646Y006958D03*
X018449Y006958D03*
X018252Y006958D03*
X018055Y006958D03*
X017858Y006958D03*
X017661Y006958D03*
X017661Y005402D03*
X017858Y005402D03*
X018055Y005402D03*
X018252Y005402D03*
X018449Y005402D03*
X018646Y005402D03*
D18*
X018941Y005688D03*
X018941Y005885D03*
X018941Y006082D03*
X018941Y006278D03*
X018941Y006475D03*
X018941Y006672D03*
X017366Y006672D03*
X017366Y006475D03*
X017366Y006278D03*
X017366Y006082D03*
X017366Y005885D03*
X017366Y005688D03*
X080666Y011693D03*
X080666Y011890D03*
X080666Y012087D03*
X080666Y012283D03*
X080666Y012480D03*
X080666Y012677D03*
X082241Y012677D03*
X082241Y012480D03*
X082241Y012283D03*
X082241Y012087D03*
X082241Y011890D03*
X082241Y011693D03*
D19*
X081454Y014429D03*
X080454Y014429D03*
X080454Y014941D03*
X081454Y014941D03*
X032754Y013436D03*
X031954Y013436D03*
X031954Y012924D03*
X032754Y012924D03*
X018304Y009036D03*
X017254Y009036D03*
X017254Y008524D03*
X018304Y008524D03*
D20*
X003785Y008549D03*
X003785Y009336D03*
X003785Y010124D03*
X003785Y010911D03*
X003785Y013836D03*
X003785Y014624D03*
X003785Y017586D03*
X003785Y018374D03*
X003785Y005624D03*
X003785Y004836D03*
X060472Y008486D03*
X060472Y009274D03*
X093422Y011291D03*
X093422Y012079D03*
D21*
X001521Y003911D03*
X001521Y006549D03*
X001521Y007624D03*
X001521Y011836D03*
X001521Y012911D03*
X001521Y015549D03*
X001521Y016661D03*
X001521Y019299D03*
X062736Y010199D03*
X062736Y007561D03*
X095686Y010366D03*
X095686Y013004D03*
D22*
G36*
X042082Y003836D02*
X042402Y003546D01*
X042112Y003226D01*
X041792Y003516D01*
X042082Y003836D01*
G37*
G36*
X041585Y004284D02*
X041905Y003994D01*
X041615Y003674D01*
X041295Y003964D01*
X041585Y004284D01*
G37*
G36*
X040960Y003529D02*
X041280Y003239D01*
X040990Y002919D01*
X040670Y003209D01*
X040960Y003529D01*
G37*
G36*
X041457Y003081D02*
X041777Y002791D01*
X041487Y002471D01*
X041167Y002761D01*
X041457Y003081D01*
G37*
G36*
X041125Y007741D02*
X041445Y008031D01*
X041735Y007711D01*
X041415Y007421D01*
X041125Y007741D01*
G37*
G36*
X041622Y008189D02*
X041942Y008479D01*
X042232Y008159D01*
X041912Y007869D01*
X041622Y008189D01*
G37*
G36*
X041045Y008551D02*
X040725Y008261D01*
X040435Y008581D01*
X040755Y008871D01*
X041045Y008551D01*
G37*
G36*
X041542Y008999D02*
X041222Y008709D01*
X040932Y009029D01*
X041252Y009319D01*
X041542Y008999D01*
G37*
D23*
X036710Y008580D03*
X035607Y008580D03*
X085402Y012685D03*
X086505Y012685D03*
D24*
X028894Y025860D03*
X028394Y025860D03*
X027894Y025860D03*
X027394Y025860D03*
X026894Y025860D03*
X026394Y025860D03*
X025894Y025860D03*
X025394Y025860D03*
X025394Y029600D03*
X025894Y029600D03*
X026394Y029600D03*
X026894Y029600D03*
X027394Y029600D03*
X027894Y029600D03*
X028394Y029600D03*
X028894Y029600D03*
D25*
X061829Y006017D03*
X061829Y005624D03*
X061829Y005230D03*
X061829Y004836D03*
X061829Y004443D03*
D26*
X063010Y003931D03*
X063010Y006529D03*
D27*
X059359Y005480D03*
X058848Y005480D03*
X058848Y004980D03*
X059359Y004980D03*
X059359Y003880D03*
X058848Y003880D03*
D28*
X044499Y016230D03*
X044499Y016730D03*
X044499Y017230D03*
X044499Y017730D03*
X044499Y018230D03*
X044499Y018730D03*
X044499Y019230D03*
X044499Y019730D03*
X044499Y020230D03*
X044499Y020730D03*
X044499Y021230D03*
X044499Y021730D03*
X040808Y021730D03*
X040808Y021230D03*
X040808Y020730D03*
X040808Y020230D03*
X040808Y019730D03*
X040808Y019230D03*
X040808Y018730D03*
X040808Y018230D03*
X040808Y017730D03*
X040808Y017230D03*
X040808Y016730D03*
X040808Y016230D03*
D29*
X037417Y016480D03*
X037417Y016980D03*
X037417Y017480D03*
X037417Y017980D03*
X037417Y018480D03*
X037417Y018980D03*
X037417Y019480D03*
X037417Y019980D03*
X035291Y019980D03*
X035291Y019480D03*
X035291Y018980D03*
X035291Y018480D03*
X035291Y017980D03*
X035291Y017480D03*
X035291Y016980D03*
X035291Y016480D03*
D30*
X034534Y025780D03*
D31*
X046207Y025480D03*
X047900Y025480D03*
X048050Y017730D03*
X046357Y017730D03*
X047257Y014930D03*
X048950Y014930D03*
D32*
X010527Y012980D03*
X010527Y012480D03*
X010527Y011980D03*
X010527Y011480D03*
X008480Y011480D03*
X008480Y011980D03*
X008480Y012480D03*
X008480Y012980D03*
D33*
X008378Y014287D03*
X007630Y014287D03*
X008004Y015173D03*
D34*
X006404Y015076D03*
X006404Y013384D03*
X019914Y027134D03*
X019914Y028826D03*
X080354Y028639D03*
X080354Y030331D03*
X092454Y030031D03*
X092454Y028339D03*
D35*
X053714Y027580D03*
X053714Y029380D03*
X053714Y022680D03*
X053714Y020880D03*
X053714Y016180D03*
X053714Y014380D03*
D36*
X051179Y015280D03*
X051179Y021780D03*
X051179Y028480D03*
D37*
X009059Y028135D03*
D38*
X011779Y027235D03*
X011779Y029035D03*
D39*
X013474Y029425D03*
X013474Y027425D03*
D40*
X085854Y003420D03*
X085854Y002750D03*
X089954Y017100D03*
X089954Y017770D03*
X089954Y018600D03*
X089954Y019270D03*
D41*
X090204Y023161D03*
X089704Y023161D03*
X089204Y023161D03*
X088704Y023161D03*
X088704Y025209D03*
X089204Y025209D03*
X089704Y025209D03*
X090204Y025209D03*
D42*
X090861Y027311D03*
X091746Y027685D03*
X090861Y028059D03*
D43*
X078017Y016435D03*
X078017Y015935D03*
X078017Y015435D03*
X078017Y014935D03*
X075891Y014935D03*
X075891Y015435D03*
X075891Y015935D03*
X075891Y016435D03*
M02*
