G75*
G70*
%OFA0B0*%
%FSLAX24Y24*%
%IPPOS*%
%LPD*%
%AMOC8*
5,1,8,0,0,1.08239X$1,22.5*
%
%ADD10C,0.0820*%
%ADD11R,0.0966X0.0966*%
%ADD12R,0.0513X0.0513*%
%ADD13R,0.0580X0.0659*%
%ADD14R,0.1261X0.0710*%
%ADD15R,0.2550X0.2360*%
%ADD16C,0.1261*%
%ADD17C,0.1145*%
%ADD18C,0.0680*%
%ADD19C,0.0635*%
%ADD20C,0.0714*%
%ADD21C,0.0792*%
%ADD22R,0.0753X0.0753*%
%ADD23C,0.2030*%
%ADD24R,0.0714X0.0714*%
%ADD25C,0.0980*%
%ADD26C,0.1420*%
%ADD27R,0.0710X0.0789*%
%ADD28C,0.0730*%
%ADD29C,0.1025*%
D10*
X014351Y009304D03*
X014851Y014554D03*
X014851Y015554D03*
X014851Y016554D03*
X014851Y017554D03*
X014851Y018554D03*
X009351Y024054D03*
X001601Y043304D03*
X001601Y044304D03*
X001601Y045304D03*
X001601Y046304D03*
X001601Y047304D03*
X046601Y024304D03*
X044851Y010054D03*
X038351Y007054D03*
X027601Y001554D03*
X069451Y026004D03*
X073601Y021554D03*
X080851Y016554D03*
X080851Y015554D03*
X080851Y014554D03*
X080851Y013554D03*
X080851Y012554D03*
X076351Y007054D03*
X073601Y002054D03*
D11*
X079101Y007525D03*
X079101Y010084D03*
X069380Y011804D03*
X066821Y011804D03*
X018901Y021275D03*
X018901Y023834D03*
X002101Y018834D03*
X002101Y016275D03*
D12*
X051766Y005554D03*
X052435Y005554D03*
X052601Y006220D03*
X052601Y006889D03*
X052516Y011804D03*
X053185Y011804D03*
X052601Y013220D03*
X052601Y013889D03*
X052516Y018804D03*
X053185Y018804D03*
X052601Y020220D03*
X052601Y020889D03*
X053266Y035554D03*
X053935Y035554D03*
X054101Y036220D03*
X054101Y036889D03*
X057766Y039054D03*
X058435Y039054D03*
X054685Y041804D03*
X054016Y041804D03*
X054101Y043220D03*
X054101Y043889D03*
X057766Y046054D03*
X058435Y046054D03*
X054685Y048804D03*
X054016Y048804D03*
X054101Y050220D03*
X054101Y050889D03*
X057766Y053054D03*
X058435Y053054D03*
D13*
X057197Y053054D03*
X055504Y053054D03*
X055504Y046054D03*
X057197Y046054D03*
X057197Y039054D03*
X055504Y039054D03*
X055504Y023054D03*
X057197Y023054D03*
X053447Y023054D03*
X051754Y023054D03*
X051754Y016054D03*
X053447Y016054D03*
X055504Y016054D03*
X057197Y016054D03*
X057197Y009054D03*
X055504Y009054D03*
X053447Y009054D03*
X051754Y009054D03*
D14*
X053691Y007454D03*
X053691Y005654D03*
X053691Y012654D03*
X053691Y014454D03*
X053691Y019654D03*
X053691Y021454D03*
X055191Y035654D03*
X055191Y037454D03*
X055191Y042654D03*
X055191Y044454D03*
X055191Y049654D03*
X055191Y051454D03*
D15*
X057726Y050554D03*
X057726Y043554D03*
X057726Y036554D03*
X056226Y020554D03*
X056226Y013554D03*
X056226Y006554D03*
D16*
X062641Y013649D03*
X062641Y016959D03*
X038951Y024304D03*
X038951Y028054D03*
X032251Y025054D03*
X024451Y027554D03*
X017251Y027804D03*
X040451Y054304D03*
X040451Y058054D03*
X064141Y046959D03*
X064141Y043649D03*
D17*
X061271Y043654D03*
X061271Y045304D03*
X061271Y046954D03*
X045491Y054304D03*
X043321Y054304D03*
X043321Y058054D03*
X045491Y058054D03*
X043991Y028054D03*
X041821Y028054D03*
X041821Y024304D03*
X043991Y024304D03*
X029381Y025054D03*
X027211Y025054D03*
X027321Y027554D03*
X029491Y027554D03*
X014381Y027804D03*
X012211Y027804D03*
X059771Y016954D03*
X059771Y015304D03*
X059771Y013654D03*
D18*
X002388Y001224D03*
X003176Y001224D03*
X003963Y001224D03*
X004750Y001224D03*
X005538Y001224D03*
X006325Y001224D03*
X007113Y001224D03*
X007900Y001224D03*
X008687Y001224D03*
X009475Y001224D03*
X009475Y009885D03*
X008687Y009885D03*
X007900Y009885D03*
X007113Y009885D03*
X006325Y009885D03*
X005538Y009885D03*
X004750Y009885D03*
X003963Y009885D03*
X003176Y009885D03*
X002388Y009885D03*
D19*
X017601Y010017D03*
X017601Y010804D03*
X017601Y011592D03*
X017601Y013298D03*
X017601Y014086D03*
X017601Y014873D03*
X017601Y015661D03*
X017601Y016448D03*
X017601Y017235D03*
X017601Y018023D03*
X017601Y018810D03*
X032351Y027661D03*
X032351Y028448D03*
X040601Y032017D03*
X040601Y032804D03*
X040601Y033592D03*
X040351Y040298D03*
X040351Y041086D03*
X040351Y041873D03*
X040351Y042661D03*
X040351Y043448D03*
X040351Y044235D03*
X040351Y045023D03*
X040351Y045810D03*
X062601Y033198D03*
X062601Y032411D03*
X068351Y027948D03*
X068351Y027161D03*
X068351Y021735D03*
X068351Y020948D03*
X068351Y020161D03*
X068351Y019373D03*
X078351Y022873D03*
X078351Y023661D03*
X078351Y024448D03*
X078351Y025235D03*
X067851Y005448D03*
X067851Y004661D03*
X061101Y003198D03*
X061101Y002411D03*
X078851Y002661D03*
X078851Y003448D03*
X039101Y003592D03*
X039101Y002804D03*
X039101Y002017D03*
X032101Y005661D03*
X032101Y006448D03*
X038851Y010298D03*
X038851Y011086D03*
X038851Y011873D03*
X038851Y012661D03*
X038851Y013448D03*
X038851Y014235D03*
X038851Y015023D03*
X038851Y015810D03*
X024101Y006448D03*
X024101Y005661D03*
X017601Y002198D03*
X017601Y001411D03*
X003101Y023873D03*
X003101Y024661D03*
X003101Y025448D03*
X003101Y026235D03*
X003101Y027911D03*
X003101Y028698D03*
D20*
X023601Y023054D03*
X025601Y023054D03*
X029601Y023054D03*
X029601Y009054D03*
X027601Y009054D03*
X025601Y009054D03*
X023601Y009054D03*
D21*
X030931Y011054D03*
X022270Y021054D03*
D22*
X045351Y020474D03*
X045351Y019134D03*
X046851Y018464D03*
X046851Y019804D03*
X046851Y021144D03*
X048351Y048464D03*
X046851Y049134D03*
X048351Y049804D03*
X048351Y051144D03*
X046851Y050474D03*
D23*
X039481Y049804D03*
X037981Y019804D03*
D24*
X070871Y022904D03*
X071851Y022904D03*
X072831Y022904D03*
X072831Y024204D03*
X071851Y024204D03*
X070871Y024204D03*
D25*
X032601Y031194D03*
X024351Y031194D03*
X016101Y031194D03*
X007851Y031194D03*
X007851Y059414D03*
X016101Y059414D03*
X024351Y059414D03*
X032601Y059414D03*
D26*
X029451Y056179D03*
X021201Y056179D03*
X012951Y056179D03*
X004701Y056179D03*
X011001Y034429D03*
X019251Y034429D03*
X027501Y034429D03*
X035751Y034429D03*
D27*
X055800Y040054D03*
X056902Y040054D03*
X056902Y047054D03*
X055800Y047054D03*
X055800Y054054D03*
X056902Y054054D03*
D28*
X046101Y038804D03*
X049351Y034054D03*
X076751Y027004D03*
X076751Y025004D03*
X047851Y004054D03*
X044601Y008804D03*
X066601Y001304D03*
X014601Y006654D03*
X013551Y003854D03*
D29*
X072101Y002554D03*
M02*
