%
M48
M72
T01C0.0236
T02C0.0315
T03C0.0394
T04C0.0400
T05C0.0433
T06C0.0472
T07C0.0591
T08C0.0600
T09C0.0630
T10C0.0710
T11C0.0940
T12C0.1181
T13C0.1550
%
T01
X1731Y1994
X4101Y4054
X5601Y3054
X7101Y3054
X7101Y4054
X5101Y7554
X7701Y11354
X8301Y11354
X5851Y11954
X4001Y14554
X2171Y14414
X3521Y16224
X3266Y16904
X3601Y18254
X3951Y18874
X2701Y19754
X1951Y19674
X4991Y21994
X4951Y22654
X5901Y22604
X6701Y21504
X7751Y21504
X8401Y20954
X9451Y21254
X10701Y21254
X10151Y20414
X11551Y20404
X12851Y19754
X15701Y19704
X15851Y18304
X14001Y17404
X16471Y15834
X16471Y15114
X16581Y14154
X16591Y13514
X15551Y11804
X17201Y8804
X17201Y8054
X17201Y7054
X17201Y6304
X19101Y6704
X18601Y8804
X18401Y3204
X24601Y2054
X31601Y3304
X41101Y3054
X41101Y4054
X42101Y1604
X46051Y2554
X46701Y3504
X51051Y5454
X52601Y4954
X56301Y5004
X49501Y8554
X46951Y7854
X46251Y8804
X50151Y11354
X50201Y12654
X49501Y13304
X50201Y15004
X50101Y15904
X52451Y15754
X52701Y16904
X52701Y17504
X52701Y18104
X49501Y19554
X56251Y19004
X51651Y24904
X51151Y24904
X50651Y24904
X50151Y24904
X49651Y24904
X42351Y21304
X42351Y20804
X42351Y20304
X42351Y19804
X42351Y19304
X42351Y18804
X42351Y18304
X41951Y16654
X43571Y12314
X40001Y10504
X52551Y10554
X52551Y11204
X52501Y12404
X56251Y12004
X66876Y10304
X67501Y13229
X67826Y15129
X68191Y16934
X67631Y17574
X67071Y18214
X70651Y16954
X70801Y15554
X70271Y14854
X74801Y17454
X74601Y18804
X76501Y18814
X79011Y19304
X77601Y16804
X78351Y15004
X78901Y14079
X77451Y10654
X76591Y9174
X74351Y6804
X74851Y4804
X72851Y4204
X71501Y5004
X74851Y2804
X72651Y9304
X71701Y9454
X70521Y20094
X57801Y35004
X54101Y34954
X52551Y35454
X51001Y38554
X48451Y37854
X47751Y38804
X51651Y41354
X51701Y42654
X51001Y43304
X51701Y45004
X51601Y45904
X53951Y45754
X54201Y46904
X54201Y47504
X54201Y48104
X51001Y49554
X57751Y49004
X53151Y54904
X52651Y54904
X52151Y54904
X51651Y54904
X51151Y54904
X43851Y51304
X43851Y50804
X43851Y50304
X43851Y49804
X43851Y49304
X43851Y48804
X43851Y48304
X43451Y46654
X45071Y42314
X41501Y40504
X42601Y34054
X42601Y33054
X43601Y31604
X47551Y32554
X48201Y33504
X54051Y40554
X54051Y41204
X54001Y42404
X57751Y42004
X14601Y23904
X14861Y22494
X5901Y18804
X5411Y17914
X2211Y23134
X4301Y27304
X4301Y28804
X13591Y14824
X10891Y11694
X11401Y11454
X11401Y10054
X12356Y1079
T02
X2388Y1224
X3176Y1224
X3963Y1224
X4750Y1224
X5538Y1224
X6325Y1224
X7113Y1224
X7900Y1224
X8687Y1224
X9475Y1224
X17601Y1411
X17601Y2198
X24101Y5661
X24101Y6448
X17601Y10017
X17601Y10804
X17601Y11592
X17601Y13298
X17601Y14086
X17601Y14873
X17601Y15661
X17601Y16448
X17601Y17235
X17601Y18023
X17601Y18810
X9475Y9885
X8687Y9885
X7900Y9885
X7113Y9885
X6325Y9885
X5538Y9885
X4750Y9885
X3963Y9885
X3176Y9885
X2388Y9885
X3101Y23873
X3101Y24661
X3101Y25448
X3101Y26235
X3101Y27911
X3101Y28698
X32351Y28448
X32351Y27661
X40601Y32017
X40601Y32804
X40601Y33592
X40351Y40298
X40351Y41086
X40351Y41873
X40351Y42661
X40351Y43448
X40351Y44235
X40351Y45023
X40351Y45810
X62601Y33198
X62601Y32411
X68351Y27948
X68351Y27161
X68351Y21735
X68351Y20948
X68351Y20161
X68351Y19373
X78351Y22873
X78351Y23661
X78351Y24448
X78351Y25235
X67851Y5448
X67851Y4661
X61101Y3198
X61101Y2411
X78851Y2661
X78851Y3448
X39101Y3592
X39101Y2804
X39101Y2017
X32101Y5661
X32101Y6448
X38851Y10298
X38851Y11086
X38851Y11873
X38851Y12661
X38851Y13448
X38851Y14235
X38851Y15023
X38851Y15810
T03
X29601Y9054
X27601Y9054
X25601Y9054
X23601Y9054
X23601Y23054
X25601Y23054
X29601Y23054
X70871Y22904
X71851Y22904
X72831Y22904
X72831Y24204
X71851Y24204
X70871Y24204
T04
X69451Y26004
X73601Y21554
X80851Y16554
X80851Y15554
X80851Y14554
X80851Y13554
X80851Y12554
X76351Y7054
X73601Y2054
X44851Y10054
X38351Y7054
X27601Y1554
X14351Y9304
X14851Y14554
X14851Y15554
X14851Y16554
X14851Y17554
X14851Y18554
X9351Y24054
X1601Y43304
X1601Y44304
X1601Y45304
X1601Y46304
X1601Y47304
X46601Y24304
T05
X46851Y21144
X46851Y19804
X46851Y18464
X45351Y19134
X45351Y20474
X44601Y8804
X47851Y4054
X66601Y1304
X76751Y25004
X76751Y27004
X49351Y34054
X46101Y38804
X48351Y48464
X46851Y49134
X48351Y49804
X48351Y51144
X46851Y50474
X14601Y6654
X13551Y3854
T06
X30931Y11054
X22270Y21054
T07
X18901Y21275
X18901Y23834
X2101Y18834
X2101Y16275
X66821Y11804
X69380Y11804
X79101Y10084
X79101Y7525
T08
X32601Y31194
X24351Y31194
X16101Y31194
X7851Y31194
X7851Y59414
X16101Y59414
X24351Y59414
X32601Y59414
T09
X72101Y2554
T10
X59771Y13654
X59771Y15304
X59771Y16954
X43991Y24304
X41821Y24304
X41821Y28054
X43991Y28054
X29491Y27554
X27321Y27554
X27211Y25054
X29381Y25054
X14381Y27804
X12211Y27804
X43321Y54304
X45491Y54304
X45491Y58054
X43321Y58054
X61271Y46954
X61271Y45304
X61271Y43654
T11
X35751Y34429
X27501Y34429
X19251Y34429
X11001Y34429
X12951Y56179
X21201Y56179
X29451Y56179
X4701Y56179
T12
X40451Y54304
X40451Y58054
X64141Y46959
X64141Y43649
X38951Y28054
X38951Y24304
X32251Y25054
X24451Y27554
X17251Y27804
X62641Y16959
X62641Y13649
T13
X37981Y19804
X39481Y49804
M30
