G75*
G70*
%OFA0B0*%
%FSLAX24Y24*%
%IPPOS*%
%LPD*%
%AMOC8*
5,1,8,0,0,1.08239X$1,22.5*
%
%ADD10R,0.0671X0.0198*%
%ADD11R,0.0198X0.0671*%
%ADD12C,0.0820*%
%ADD13R,0.0513X0.0513*%
%ADD14R,0.0789X0.0710*%
%ADD15R,0.0474X0.0513*%
%ADD16R,0.0966X0.0966*%
%ADD17R,0.0860X0.0290*%
%ADD18R,0.0580X0.0659*%
%ADD19R,0.1261X0.0710*%
%ADD20R,0.2550X0.2360*%
%ADD21C,0.1261*%
%ADD22C,0.1145*%
%ADD23R,0.0611X0.0316*%
%ADD24R,0.0867X0.0552*%
%ADD25C,0.0680*%
%ADD26R,0.0513X0.0513*%
%ADD27R,0.0710X0.0789*%
%ADD28R,0.0415X0.0218*%
%ADD29R,0.0218X0.0395*%
%ADD30C,0.0635*%
%ADD31R,0.0218X0.0415*%
%ADD32R,0.0395X0.0218*%
%ADD33R,0.0336X0.0316*%
%ADD34R,0.0659X0.0580*%
%ADD35C,0.0714*%
%ADD36C,0.0792*%
%ADD37R,0.0336X0.0966*%
%ADD38R,0.0690X0.0316*%
%ADD39R,0.0946X0.0316*%
%ADD40R,0.0753X0.0753*%
%ADD41C,0.2030*%
%ADD42R,0.5080X0.4230*%
%ADD43R,0.0870X0.0670*%
%ADD44R,0.0870X0.1580*%
%ADD45R,0.0714X0.0714*%
%ADD46R,0.0316X0.0946*%
%ADD47C,0.0980*%
%ADD48C,0.1420*%
%ADD49C,0.0730*%
%ADD50C,0.1025*%
D10*
X006357Y014578D03*
X006357Y014775D03*
X006357Y014972D03*
X006357Y015169D03*
X006357Y015365D03*
X006357Y015562D03*
X006357Y015759D03*
X006357Y015956D03*
X006357Y016153D03*
X006357Y016350D03*
X006357Y016546D03*
X006357Y016743D03*
X006357Y016940D03*
X006357Y017137D03*
X006357Y017334D03*
X006357Y017531D03*
X010845Y017531D03*
X010845Y017334D03*
X010845Y017137D03*
X010845Y016940D03*
X010845Y016743D03*
X010845Y016546D03*
X010845Y016350D03*
X010845Y016153D03*
X010845Y015956D03*
X010845Y015759D03*
X010845Y015562D03*
X010845Y015365D03*
X010845Y015169D03*
X010845Y014972D03*
X010845Y014775D03*
X010845Y014578D03*
X071607Y014637D03*
X071607Y014834D03*
X071607Y015031D03*
X071607Y014440D03*
X071607Y014243D03*
X071607Y014046D03*
X071607Y013850D03*
X071607Y013653D03*
X071607Y013456D03*
X071607Y013259D03*
X071607Y013062D03*
X071607Y012865D03*
X071607Y012669D03*
X071607Y012472D03*
X071607Y012275D03*
X071607Y012078D03*
X076095Y012078D03*
X076095Y012275D03*
X076095Y012472D03*
X076095Y012669D03*
X076095Y012865D03*
X076095Y013062D03*
X076095Y013259D03*
X076095Y013456D03*
X076095Y013653D03*
X076095Y013850D03*
X076095Y014046D03*
X076095Y014243D03*
X076095Y014440D03*
X076095Y014637D03*
X076095Y014834D03*
X076095Y015031D03*
D11*
X075327Y015798D03*
X075130Y015798D03*
X074933Y015798D03*
X074737Y015798D03*
X074540Y015798D03*
X074343Y015798D03*
X074146Y015798D03*
X073949Y015798D03*
X073752Y015798D03*
X073556Y015798D03*
X073359Y015798D03*
X073162Y015798D03*
X072965Y015798D03*
X072768Y015798D03*
X072571Y015798D03*
X072374Y015798D03*
X072374Y011310D03*
X072571Y011310D03*
X072768Y011310D03*
X072965Y011310D03*
X073162Y011310D03*
X073359Y011310D03*
X073556Y011310D03*
X073752Y011310D03*
X073949Y011310D03*
X074146Y011310D03*
X074343Y011310D03*
X074540Y011310D03*
X074737Y011310D03*
X074933Y011310D03*
X075130Y011310D03*
X075327Y011310D03*
X010077Y013810D03*
X009880Y013810D03*
X009683Y013810D03*
X009487Y013810D03*
X009290Y013810D03*
X009093Y013810D03*
X008896Y013810D03*
X008699Y013810D03*
X008502Y013810D03*
X008306Y013810D03*
X008109Y013810D03*
X007912Y013810D03*
X007715Y013810D03*
X007518Y013810D03*
X007321Y013810D03*
X007124Y013810D03*
X007124Y018298D03*
X007321Y018298D03*
X007518Y018298D03*
X007715Y018298D03*
X007912Y018298D03*
X008109Y018298D03*
X008306Y018298D03*
X008502Y018298D03*
X008699Y018298D03*
X008896Y018298D03*
X009093Y018298D03*
X009290Y018298D03*
X009487Y018298D03*
X009683Y018298D03*
X009880Y018298D03*
X010077Y018298D03*
D12*
X014851Y018554D03*
X014851Y017554D03*
X014851Y016554D03*
X014851Y015554D03*
X014851Y014554D03*
X014351Y009304D03*
X027601Y001554D03*
X038351Y007054D03*
X044851Y010054D03*
X046601Y024304D03*
X069451Y026004D03*
X073601Y021554D03*
X080851Y016554D03*
X080851Y015554D03*
X080851Y014554D03*
X080851Y013554D03*
X080851Y012554D03*
X076351Y007054D03*
X073601Y002054D03*
X009351Y024054D03*
X001601Y043304D03*
X001601Y044304D03*
X001601Y045304D03*
X001601Y046304D03*
X001601Y047304D03*
D13*
X005016Y028804D03*
X005685Y028804D03*
X005685Y027304D03*
X005016Y027304D03*
X009101Y022889D03*
X009101Y022220D03*
X010101Y022389D03*
X010101Y021720D03*
X008435Y020304D03*
X007766Y020304D03*
X007766Y019304D03*
X008435Y019304D03*
X009766Y019554D03*
X010435Y019554D03*
X011266Y019554D03*
X011935Y019554D03*
X012516Y020304D03*
X013185Y020304D03*
X014101Y020389D03*
X014101Y019720D03*
X015016Y020304D03*
X015685Y020304D03*
X015601Y021220D03*
X015601Y021889D03*
X015601Y023220D03*
X015601Y023889D03*
X016601Y023889D03*
X016601Y023220D03*
X017266Y020554D03*
X017935Y020554D03*
X012601Y016389D03*
X011851Y016389D03*
X011851Y015720D03*
X012601Y015720D03*
X010351Y012119D03*
X010351Y011450D03*
X009601Y011450D03*
X009601Y012119D03*
X004851Y011889D03*
X004851Y011220D03*
X003851Y011220D03*
X003851Y011889D03*
X003851Y012720D03*
X004851Y012720D03*
X004851Y013389D03*
X003851Y013389D03*
X002851Y013389D03*
X001851Y013389D03*
X001851Y012720D03*
X001851Y011889D03*
X001851Y011220D03*
X002851Y011220D03*
X002851Y011889D03*
X002851Y012720D03*
X002435Y015054D03*
X001766Y015054D03*
X004101Y016220D03*
X004101Y016889D03*
X004851Y016889D03*
X004851Y016220D03*
X004601Y018720D03*
X004601Y019389D03*
X003935Y019554D03*
X003266Y019554D03*
X001851Y020220D03*
X001851Y020889D03*
X002101Y021720D03*
X002101Y022389D03*
X016016Y008804D03*
X016685Y008804D03*
X016685Y008054D03*
X016016Y008054D03*
X016016Y007054D03*
X016685Y007054D03*
X015601Y005389D03*
X015601Y004720D03*
X015601Y003889D03*
X015601Y003220D03*
X010435Y002554D03*
X009766Y002554D03*
X008435Y003054D03*
X007766Y003054D03*
X007766Y004054D03*
X008435Y004054D03*
X006435Y007554D03*
X005766Y007554D03*
X024601Y003639D03*
X024601Y002970D03*
X031601Y002139D03*
X031601Y001470D03*
X042101Y002220D03*
X042101Y002889D03*
X046101Y003470D03*
X046101Y004139D03*
X052851Y008720D03*
X052851Y009389D03*
X051851Y009470D03*
X051851Y010139D03*
X056266Y008054D03*
X056935Y008054D03*
X052601Y013970D03*
X052601Y014639D03*
X051601Y015220D03*
X051601Y015889D03*
X051851Y017720D03*
X051851Y018389D03*
X052601Y018970D03*
X052601Y019639D03*
X056266Y022054D03*
X056935Y022054D03*
X050351Y025970D03*
X050351Y026639D03*
X049601Y026639D03*
X049601Y025970D03*
X044935Y022304D03*
X044266Y022304D03*
X047851Y021139D03*
X047851Y020470D03*
X047851Y019139D03*
X047851Y018470D03*
X041935Y016054D03*
X041266Y016054D03*
X044101Y013889D03*
X044101Y013220D03*
X044101Y012639D03*
X044101Y011970D03*
X046266Y010304D03*
X046935Y010304D03*
X046935Y009554D03*
X046266Y009554D03*
X040685Y011054D03*
X040016Y011054D03*
X056266Y015054D03*
X056935Y015054D03*
X067101Y008889D03*
X067101Y008220D03*
X067101Y007389D03*
X067101Y006720D03*
X068101Y006720D03*
X068101Y007389D03*
X068101Y008220D03*
X068101Y008889D03*
X069101Y008889D03*
X069101Y008220D03*
X069101Y007389D03*
X069101Y006720D03*
X070101Y006720D03*
X070101Y007389D03*
X070101Y008220D03*
X070101Y008889D03*
X072016Y008554D03*
X072685Y008554D03*
X074851Y009220D03*
X074851Y009889D03*
X075851Y009889D03*
X075851Y009220D03*
X078766Y011054D03*
X079435Y011054D03*
X078101Y013720D03*
X078101Y014389D03*
X077101Y014389D03*
X077101Y013720D03*
X075435Y016804D03*
X074766Y016804D03*
X073685Y016804D03*
X073016Y016804D03*
X073016Y017804D03*
X073685Y017804D03*
X070435Y017554D03*
X069766Y017554D03*
X068935Y017554D03*
X068266Y017554D03*
X067851Y016389D03*
X067851Y015720D03*
X067896Y014574D03*
X068565Y014574D03*
X068601Y013889D03*
X068601Y013220D03*
X069601Y013220D03*
X069601Y013889D03*
X068435Y010304D03*
X067766Y010304D03*
X073516Y003804D03*
X074185Y003804D03*
X070101Y003639D03*
X070101Y002970D03*
X070101Y002139D03*
X070101Y001470D03*
X079266Y020554D03*
X079935Y020554D03*
X058435Y038054D03*
X057766Y038054D03*
X054351Y038720D03*
X054351Y039389D03*
X053351Y039470D03*
X053351Y040139D03*
X054101Y043970D03*
X054101Y044639D03*
X053101Y045220D03*
X053101Y045889D03*
X053351Y047720D03*
X053351Y048389D03*
X054101Y048970D03*
X054101Y049639D03*
X057766Y052054D03*
X058435Y052054D03*
X051851Y055970D03*
X051851Y056639D03*
X051101Y056639D03*
X051101Y055970D03*
X046435Y052304D03*
X045766Y052304D03*
X049351Y051139D03*
X049351Y050470D03*
X049351Y049139D03*
X049351Y048470D03*
X045601Y043889D03*
X045601Y043220D03*
X045601Y042639D03*
X045601Y041970D03*
X047766Y040304D03*
X048435Y040304D03*
X048435Y039554D03*
X047766Y039554D03*
X042185Y041054D03*
X041516Y041054D03*
X042766Y046054D03*
X043435Y046054D03*
X057766Y045054D03*
X058435Y045054D03*
X047601Y034139D03*
X047601Y033470D03*
X043601Y032889D03*
X043601Y032220D03*
D14*
X051101Y026856D03*
X052101Y026856D03*
X052101Y025753D03*
X051101Y025753D03*
X075851Y026106D03*
X075851Y027003D03*
X075851Y028106D03*
X075851Y025003D03*
X071101Y004106D03*
X071101Y003003D03*
X071101Y002106D03*
X071101Y001003D03*
X014601Y002753D03*
X014601Y003856D03*
X014601Y004753D03*
X014601Y005856D03*
X013601Y015503D03*
X013601Y016606D03*
X052601Y055753D03*
X053601Y055753D03*
X053601Y056856D03*
X052601Y056856D03*
D15*
X074851Y027639D03*
X074851Y026970D03*
X074851Y026139D03*
X074851Y025470D03*
X073851Y009889D03*
X073851Y009220D03*
X008851Y011450D03*
X008851Y012119D03*
D16*
X002101Y016275D03*
X002101Y018834D03*
X018901Y021275D03*
X018901Y023834D03*
X066821Y011804D03*
X069380Y011804D03*
X079101Y010084D03*
X079101Y007525D03*
D17*
X048696Y011054D03*
X048696Y011554D03*
X048696Y012054D03*
X048696Y012554D03*
X048696Y013054D03*
X048696Y013554D03*
X048696Y014054D03*
X048696Y014554D03*
X048696Y015054D03*
X048696Y015554D03*
X048696Y016054D03*
X048696Y016554D03*
X045006Y016554D03*
X045006Y016054D03*
X045006Y015554D03*
X045006Y015054D03*
X045006Y014554D03*
X045006Y014054D03*
X045006Y013554D03*
X045006Y013054D03*
X045006Y012554D03*
X045006Y012054D03*
X045006Y011554D03*
X045006Y011054D03*
X046506Y041054D03*
X046506Y041554D03*
X046506Y042054D03*
X046506Y042554D03*
X046506Y043054D03*
X046506Y043554D03*
X046506Y044054D03*
X046506Y044554D03*
X046506Y045054D03*
X046506Y045554D03*
X046506Y046054D03*
X046506Y046554D03*
X050196Y046554D03*
X050196Y046054D03*
X050196Y045554D03*
X050196Y045054D03*
X050196Y044554D03*
X050196Y044054D03*
X050196Y043554D03*
X050196Y043054D03*
X050196Y042554D03*
X050196Y042054D03*
X050196Y041554D03*
X050196Y041054D03*
D18*
X051754Y043554D03*
X053447Y043554D03*
X053447Y038304D03*
X051754Y038304D03*
X051754Y049554D03*
X053447Y049554D03*
X051947Y019554D03*
X050254Y019554D03*
X050254Y013554D03*
X051947Y013554D03*
X051947Y008304D03*
X050254Y008304D03*
D19*
X057011Y009154D03*
X057011Y010954D03*
X057011Y016154D03*
X057011Y017954D03*
X057011Y023154D03*
X057011Y024954D03*
X058511Y039154D03*
X058511Y040954D03*
X058511Y046154D03*
X058511Y047954D03*
X058511Y053154D03*
X058511Y054954D03*
D20*
X055976Y054054D03*
X055976Y047054D03*
X055976Y040054D03*
X054476Y024054D03*
X054476Y017054D03*
X054476Y010054D03*
D21*
X062641Y013649D03*
X062641Y016959D03*
X038951Y024304D03*
X038951Y028054D03*
X032251Y025054D03*
X024451Y027554D03*
X017251Y027804D03*
X040451Y054304D03*
X040451Y058054D03*
X064141Y046959D03*
X064141Y043649D03*
D22*
X061271Y043654D03*
X061271Y045304D03*
X061271Y046954D03*
X045491Y054304D03*
X043321Y054304D03*
X043321Y058054D03*
X045491Y058054D03*
X043991Y028054D03*
X041821Y028054D03*
X041821Y024304D03*
X043991Y024304D03*
X029381Y025054D03*
X027211Y025054D03*
X027321Y027554D03*
X029491Y027554D03*
X014381Y027804D03*
X012211Y027804D03*
X059771Y016954D03*
X059771Y015304D03*
X059771Y013654D03*
D23*
X067691Y023857D03*
X067691Y024251D03*
X079010Y018751D03*
X079010Y018357D03*
X032760Y002751D03*
X032760Y002357D03*
X023441Y002357D03*
X023441Y002751D03*
X018260Y006517D03*
X018260Y006911D03*
X018260Y007304D03*
X018260Y007698D03*
X018260Y008092D03*
D24*
X019707Y008604D03*
X019707Y006005D03*
X021994Y003263D03*
X021994Y001846D03*
X034207Y001846D03*
X034207Y003263D03*
X066244Y023346D03*
X066244Y024763D03*
X080457Y019263D03*
X080457Y017846D03*
D25*
X002388Y001224D03*
X003176Y001224D03*
X003963Y001224D03*
X004750Y001224D03*
X005538Y001224D03*
X006325Y001224D03*
X007113Y001224D03*
X007900Y001224D03*
X008687Y001224D03*
X009475Y001224D03*
X009475Y009885D03*
X008687Y009885D03*
X007900Y009885D03*
X007113Y009885D03*
X006325Y009885D03*
X005538Y009885D03*
X004750Y009885D03*
X003963Y009885D03*
X003176Y009885D03*
X002388Y009885D03*
D26*
G36*
X011726Y007818D02*
X011364Y007456D01*
X011002Y007818D01*
X011364Y008180D01*
X011726Y007818D01*
G37*
G36*
X012199Y008291D02*
X011837Y007929D01*
X011475Y008291D01*
X011837Y008653D01*
X012199Y008291D01*
G37*
G36*
X012699Y007791D02*
X012337Y007429D01*
X011975Y007791D01*
X012337Y008153D01*
X012699Y007791D01*
G37*
G36*
X012226Y007318D02*
X011864Y006956D01*
X011502Y007318D01*
X011864Y007680D01*
X012226Y007318D01*
G37*
G36*
X011864Y003429D02*
X011502Y003791D01*
X011864Y004153D01*
X012226Y003791D01*
X011864Y003429D01*
G37*
G36*
X012337Y002956D02*
X011975Y003318D01*
X012337Y003680D01*
X012699Y003318D01*
X012337Y002956D01*
G37*
G36*
X011837Y002456D02*
X011475Y002818D01*
X011837Y003180D01*
X012199Y002818D01*
X011837Y002456D01*
G37*
G36*
X011364Y002929D02*
X011002Y003291D01*
X011364Y003653D01*
X011726Y003291D01*
X011364Y002929D01*
G37*
D27*
X007152Y008554D03*
X006050Y008554D03*
X072800Y019054D03*
X073902Y019054D03*
D28*
X004378Y020562D03*
X004378Y020759D03*
X004378Y020956D03*
X004378Y021153D03*
X004378Y021350D03*
X004378Y021546D03*
X002823Y021546D03*
X002823Y021350D03*
X002823Y021153D03*
X002823Y020956D03*
X002823Y020759D03*
X002823Y020562D03*
D29*
X003109Y020267D03*
X003306Y020267D03*
X003502Y020267D03*
X003699Y020267D03*
X003896Y020267D03*
X004093Y020267D03*
X004093Y021842D03*
X003896Y021842D03*
X003699Y021842D03*
X003502Y021842D03*
X003306Y021842D03*
X003109Y021842D03*
D30*
X003101Y023873D03*
X003101Y024661D03*
X003101Y025448D03*
X003101Y026235D03*
X003101Y027911D03*
X003101Y028698D03*
X017601Y018810D03*
X017601Y018023D03*
X017601Y017235D03*
X017601Y016448D03*
X017601Y015661D03*
X017601Y014873D03*
X017601Y014086D03*
X017601Y013298D03*
X017601Y011592D03*
X017601Y010804D03*
X017601Y010017D03*
X024101Y006448D03*
X024101Y005661D03*
X017601Y002198D03*
X017601Y001411D03*
X032101Y005661D03*
X032101Y006448D03*
X039101Y003592D03*
X039101Y002804D03*
X039101Y002017D03*
X038851Y010298D03*
X038851Y011086D03*
X038851Y011873D03*
X038851Y012661D03*
X038851Y013448D03*
X038851Y014235D03*
X038851Y015023D03*
X038851Y015810D03*
X032351Y027661D03*
X032351Y028448D03*
X040601Y032017D03*
X040601Y032804D03*
X040601Y033592D03*
X040351Y040298D03*
X040351Y041086D03*
X040351Y041873D03*
X040351Y042661D03*
X040351Y043448D03*
X040351Y044235D03*
X040351Y045023D03*
X040351Y045810D03*
X062601Y033198D03*
X062601Y032411D03*
X068351Y027948D03*
X068351Y027161D03*
X068351Y021735D03*
X068351Y020948D03*
X068351Y020161D03*
X068351Y019373D03*
X078351Y022873D03*
X078351Y023661D03*
X078351Y024448D03*
X078351Y025235D03*
X067851Y005448D03*
X067851Y004661D03*
X061101Y003198D03*
X061101Y002411D03*
X078851Y002661D03*
X078851Y003448D03*
D31*
X069843Y015277D03*
X069646Y015277D03*
X069449Y015277D03*
X069252Y015277D03*
X069056Y015277D03*
X068859Y015277D03*
X068859Y016832D03*
X069056Y016832D03*
X069252Y016832D03*
X069449Y016832D03*
X069646Y016832D03*
X069843Y016832D03*
D32*
X070138Y016546D03*
X070138Y016350D03*
X070138Y016153D03*
X070138Y015956D03*
X070138Y015759D03*
X070138Y015562D03*
X068563Y015562D03*
X068563Y015759D03*
X068563Y015956D03*
X068563Y016153D03*
X068563Y016350D03*
X068563Y016546D03*
D33*
X074908Y004178D03*
X074908Y003430D03*
X075794Y003804D03*
X047544Y002554D03*
X046658Y002180D03*
X046658Y002928D03*
X048158Y032180D03*
X048158Y032928D03*
X049044Y032554D03*
D34*
X059351Y031958D03*
X059351Y033651D03*
X057851Y003651D03*
X057851Y001958D03*
X076851Y002208D03*
X076851Y003901D03*
D35*
X029601Y009054D03*
X027601Y009054D03*
X025601Y009054D03*
X023601Y009054D03*
X023601Y023054D03*
X025601Y023054D03*
X029601Y023054D03*
D36*
X022270Y021054D03*
X030931Y011054D03*
D37*
X014851Y021684D03*
X014351Y021684D03*
X013851Y021684D03*
X013351Y021684D03*
X012851Y021684D03*
X012351Y021684D03*
X011851Y021684D03*
X011351Y021684D03*
X011351Y025424D03*
X011851Y025424D03*
X012351Y025424D03*
X012851Y025424D03*
X013351Y025424D03*
X013851Y025424D03*
X014351Y025424D03*
X014851Y025424D03*
D38*
X040038Y015304D03*
X040038Y014804D03*
X040038Y014304D03*
X040038Y013804D03*
X040038Y013304D03*
X040038Y012804D03*
X040038Y012304D03*
X040038Y011804D03*
X042164Y011804D03*
X042164Y012304D03*
X042164Y012804D03*
X042164Y013304D03*
X042164Y013804D03*
X042164Y014304D03*
X042164Y014804D03*
X042164Y015304D03*
X041538Y041804D03*
X041538Y042304D03*
X041538Y042804D03*
X041538Y043304D03*
X041538Y043804D03*
X041538Y044304D03*
X041538Y044804D03*
X041538Y045304D03*
X043664Y045304D03*
X043664Y044804D03*
X043664Y044304D03*
X043664Y043804D03*
X043664Y043304D03*
X043664Y042804D03*
X043664Y042304D03*
X043664Y041804D03*
D39*
X044577Y034054D03*
X044577Y033554D03*
X044577Y033054D03*
X044577Y032554D03*
X046624Y032554D03*
X046624Y033054D03*
X046624Y033554D03*
X046624Y034054D03*
X045124Y004054D03*
X045124Y003554D03*
X045124Y003054D03*
X045124Y002554D03*
X043077Y002554D03*
X043077Y003054D03*
X043077Y003554D03*
X043077Y004054D03*
D40*
X046851Y018464D03*
X046851Y019804D03*
X046851Y021144D03*
X045351Y020474D03*
X045351Y019134D03*
X048351Y048464D03*
X046851Y049134D03*
X048351Y049804D03*
X048351Y051144D03*
X046851Y050474D03*
D41*
X039481Y049804D03*
X037981Y019804D03*
D42*
X038881Y019804D03*
X040381Y049804D03*
D43*
X073091Y027464D03*
X073091Y026564D03*
X073091Y025664D03*
X069091Y003464D03*
X069091Y002564D03*
X069091Y001664D03*
X016861Y003394D03*
X016861Y004294D03*
X016861Y005194D03*
D44*
X019341Y004304D03*
X066611Y002554D03*
X070611Y026554D03*
D45*
X070871Y024204D03*
X071851Y024204D03*
X072831Y024204D03*
X072831Y022904D03*
X071851Y022904D03*
X070871Y022904D03*
D46*
X072101Y007078D03*
X072601Y007078D03*
X073101Y007078D03*
X073601Y007078D03*
X073601Y005031D03*
X073101Y005031D03*
X072601Y005031D03*
X072101Y005031D03*
D47*
X032601Y031194D03*
X024351Y031194D03*
X016101Y031194D03*
X007851Y031194D03*
X007851Y059414D03*
X016101Y059414D03*
X024351Y059414D03*
X032601Y059414D03*
D48*
X029451Y056179D03*
X021201Y056179D03*
X012951Y056179D03*
X004701Y056179D03*
X011001Y034429D03*
X019251Y034429D03*
X027501Y034429D03*
X035751Y034429D03*
D49*
X046101Y038804D03*
X049351Y034054D03*
X076751Y027004D03*
X076751Y025004D03*
X047851Y004054D03*
X044601Y008804D03*
X066601Y001304D03*
X014601Y006654D03*
X013551Y003854D03*
D50*
X072101Y002554D03*
M02*
