G75*
G70*
%OFA0B0*%
%FSLAX24Y24*%
%IPPOS*%
%LPD*%
%AMOC8*
5,1,8,0,0,1.08239X$1,22.5*
%
%ADD10R,0.0966X0.0336*%
%ADD11R,0.0474X0.0513*%
%ADD12R,0.0513X0.0474*%
%ADD13R,0.0986X0.0986*%
%ADD14R,0.0178X0.0237*%
%ADD15R,0.0237X0.0178*%
%ADD16R,0.0198X0.0237*%
%ADD17R,0.0237X0.0198*%
%ADD18C,0.0600*%
%ADD19C,0.0730*%
%ADD20C,0.0820*%
%ADD21OC8,0.0820*%
%ADD22C,0.1009*%
%ADD23C,0.1261*%
%ADD24R,0.0670X0.0870*%
%ADD25R,0.1580X0.0870*%
%ADD26C,0.0437*%
%ADD27C,0.0480*%
D10*
X002980Y006350D03*
X002980Y006850D03*
X002980Y007350D03*
X002980Y007850D03*
X002980Y008350D03*
X002980Y008850D03*
X002980Y009350D03*
X002980Y009850D03*
X006720Y009850D03*
X006720Y009350D03*
X006720Y008850D03*
X006720Y008350D03*
X006720Y007850D03*
X006720Y007350D03*
X006720Y006850D03*
X006720Y006350D03*
D11*
X008100Y006265D03*
X008100Y006935D03*
X009600Y006935D03*
X009600Y006265D03*
X009100Y008765D03*
X009100Y009435D03*
X010600Y009435D03*
X010600Y008765D03*
X009850Y012015D03*
X009850Y012685D03*
X008850Y012685D03*
X008850Y012015D03*
X015350Y011435D03*
X015350Y010765D03*
X019100Y005935D03*
X019100Y005265D03*
X021765Y017100D03*
X022435Y017100D03*
X018100Y024265D03*
X018100Y024935D03*
D12*
X011685Y025100D03*
X011015Y025100D03*
X020265Y016100D03*
X020935Y016100D03*
X023265Y016100D03*
X023935Y016100D03*
X018185Y005100D03*
X017515Y005100D03*
X016685Y005100D03*
X016015Y005100D03*
X016015Y004100D03*
X016685Y004100D03*
X009935Y010350D03*
X009265Y010350D03*
X007435Y005350D03*
X006765Y005350D03*
D13*
X017600Y011100D03*
D14*
X017502Y010391D03*
X017698Y010391D03*
X017895Y010391D03*
X018092Y010391D03*
X017305Y010391D03*
X017108Y010391D03*
X017108Y011809D03*
X017305Y011809D03*
X017502Y011809D03*
X017698Y011809D03*
X017895Y011809D03*
X018092Y011809D03*
D15*
X018309Y011592D03*
X018309Y011395D03*
X018309Y011198D03*
X018309Y011002D03*
X018309Y010805D03*
X018309Y010608D03*
X016891Y010608D03*
X016891Y010805D03*
X016891Y011002D03*
X016891Y011198D03*
X016891Y011395D03*
X016891Y011592D03*
D16*
X016484Y007269D03*
X016228Y007269D03*
X015972Y007269D03*
X015716Y007269D03*
X015716Y005931D03*
X015972Y005931D03*
X016228Y005931D03*
X016484Y005931D03*
D17*
X016769Y006216D03*
X016769Y006472D03*
X016769Y006728D03*
X016769Y006984D03*
X015431Y006984D03*
X015431Y006728D03*
X015431Y006472D03*
X015431Y006216D03*
D18*
X019100Y020840D02*
X019100Y021360D01*
X020100Y021360D02*
X020100Y020840D01*
X021100Y020840D02*
X021100Y021360D01*
X022100Y021360D02*
X022100Y020840D01*
X023100Y020840D02*
X023100Y021360D01*
X024100Y021360D02*
X024100Y020840D01*
X025100Y020840D02*
X025100Y021360D01*
X025100Y023840D02*
X025100Y024360D01*
X024100Y024360D02*
X024100Y023840D01*
X023100Y023840D02*
X023100Y024360D01*
X022100Y024360D02*
X022100Y023840D01*
X021100Y023840D02*
X021100Y024360D01*
X020100Y024360D02*
X020100Y023840D01*
X019100Y023840D02*
X019100Y024360D01*
D19*
X021100Y019100D03*
X023100Y019100D03*
D20*
X022600Y026100D03*
X021600Y026100D03*
X020600Y026100D03*
X019600Y026100D03*
X023600Y026100D03*
X001100Y008600D03*
X001100Y007600D03*
D21*
X008600Y002100D03*
X008600Y001100D03*
X009600Y001100D03*
X010600Y001100D03*
X010600Y002100D03*
X009600Y002100D03*
X011600Y002100D03*
X012600Y002100D03*
X012600Y001100D03*
X011600Y001100D03*
X013600Y001100D03*
X014600Y001100D03*
X014600Y002100D03*
X013600Y002100D03*
X015600Y002100D03*
X016600Y002100D03*
X016600Y001100D03*
X015600Y001100D03*
X017600Y001100D03*
X018600Y001100D03*
X018600Y002100D03*
X017600Y002100D03*
X019600Y002100D03*
X020600Y002100D03*
X020600Y001100D03*
X019600Y001100D03*
X026600Y009100D03*
X026600Y010100D03*
X026600Y011100D03*
X026600Y012100D03*
X026600Y013100D03*
X027600Y013100D03*
X027600Y012100D03*
X027600Y011100D03*
X027600Y010100D03*
X027600Y009100D03*
D22*
X024498Y014350D03*
X003002Y014350D03*
D23*
X004824Y025047D03*
X009824Y025047D03*
D24*
X008490Y022840D03*
X007590Y022840D03*
X006690Y022840D03*
D25*
X007600Y020360D03*
D26*
X014600Y013100D03*
X014600Y011600D03*
X014600Y011600D03*
X019100Y011002D03*
X019850Y011350D03*
X021850Y008100D03*
X019850Y006850D03*
X019100Y007100D03*
X024850Y010663D03*
X025350Y010100D03*
X024850Y012600D03*
X009850Y009100D03*
X009850Y009100D03*
X008100Y007850D03*
X007600Y009850D03*
X008850Y011600D03*
D27*
X016100Y010600D03*
X019600Y022600D03*
M02*
