G75*
G70*
%OFA0B0*%
%FSLAX24Y24*%
%IPPOS*%
%LPD*%
%AMOC8*
5,1,8,0,0,1.08239X$1,22.5*
%
%ADD10R,0.0886X0.0256*%
%ADD11R,0.0394X0.0433*%
%ADD12R,0.0433X0.0394*%
%ADD13R,0.0906X0.0906*%
%ADD14R,0.0098X0.0157*%
%ADD15R,0.0157X0.0098*%
%ADD16R,0.0118X0.0157*%
%ADD17R,0.0157X0.0118*%
%ADD18R,0.0590X0.0790*%
%ADD19R,0.1500X0.0790*%
D10*
X002980Y006350D03*
X002980Y006850D03*
X002980Y007350D03*
X002980Y007850D03*
X002980Y008350D03*
X002980Y008850D03*
X002980Y009350D03*
X002980Y009850D03*
X006720Y009850D03*
X006720Y009350D03*
X006720Y008850D03*
X006720Y008350D03*
X006720Y007850D03*
X006720Y007350D03*
X006720Y006850D03*
X006720Y006350D03*
D11*
X008100Y006265D03*
X008100Y006935D03*
X009600Y006935D03*
X009600Y006265D03*
X009100Y008765D03*
X009100Y009435D03*
X010600Y009435D03*
X010600Y008765D03*
X009850Y012015D03*
X009850Y012685D03*
X008850Y012685D03*
X008850Y012015D03*
X015350Y011435D03*
X015350Y010765D03*
X019100Y005935D03*
X019100Y005265D03*
X021765Y017100D03*
X022435Y017100D03*
X018100Y024265D03*
X018100Y024935D03*
D12*
X011685Y025100D03*
X011015Y025100D03*
X020265Y016100D03*
X020935Y016100D03*
X023265Y016100D03*
X023935Y016100D03*
X018185Y005100D03*
X017515Y005100D03*
X016685Y005100D03*
X016015Y005100D03*
X016015Y004100D03*
X016685Y004100D03*
X009935Y010350D03*
X009265Y010350D03*
X007435Y005350D03*
X006765Y005350D03*
D13*
X017600Y011100D03*
D14*
X017502Y010391D03*
X017698Y010391D03*
X017895Y010391D03*
X018092Y010391D03*
X017305Y010391D03*
X017108Y010391D03*
X017108Y011809D03*
X017305Y011809D03*
X017502Y011809D03*
X017698Y011809D03*
X017895Y011809D03*
X018092Y011809D03*
D15*
X018309Y011592D03*
X018309Y011395D03*
X018309Y011198D03*
X018309Y011002D03*
X018309Y010805D03*
X018309Y010608D03*
X016891Y010608D03*
X016891Y010805D03*
X016891Y011002D03*
X016891Y011198D03*
X016891Y011395D03*
X016891Y011592D03*
D16*
X016484Y007269D03*
X016228Y007269D03*
X015972Y007269D03*
X015716Y007269D03*
X015716Y005931D03*
X015972Y005931D03*
X016228Y005931D03*
X016484Y005931D03*
D17*
X016769Y006216D03*
X016769Y006472D03*
X016769Y006728D03*
X016769Y006984D03*
X015431Y006984D03*
X015431Y006728D03*
X015431Y006472D03*
X015431Y006216D03*
D18*
X008490Y022840D03*
X007590Y022840D03*
X006690Y022840D03*
D19*
X007600Y020360D03*
M02*
