M48
;DRILL file {Pcbnew (2013-05-31 BZR 4019)-stable} date 7/11/2013 3:51:17 PM
;FORMAT={-:-/ absolute / inch / decimal}
FMAT,2
INCH,TZ
T1C0.020
T2C0.040
%
G90
G05
M72
T1
X2.265Y-2.43
X2.305Y-3.205
X2.325Y-2.49
X2.345Y-3.315
X2.35Y-2.415
X2.365Y-3.14
X2.45Y-3.255
X2.47Y-2.295
X2.47Y-2.365
X2.495Y-2.09
X2.555Y-2.385
X2.56Y-2.105
X2.57Y-2.175
X2.61Y-2.125
X2.62Y-2.26
X2.67Y-2.395
X2.735Y-3.405
X2.745Y-2.16
X2.75Y-2.215
X2.765Y-2.325
X2.775Y-2.38
X2.78Y-2.91
X2.855Y-2.825
X2.92Y-2.29
X2.965Y-2.625
X2.975Y-3.015
X3.005Y-2.935
X3.02Y-2.57
X3.05Y-2.965
X3.065Y-3.05
X3.065Y-3.17
X3.07Y-2.615
X3.075Y-2.505
X3.085Y-2.43
X3.105Y-2.96
X3.175Y-3.06
X3.22Y-2.065
T2
X2.06Y-0.605
X2.06Y-0.705
X2.06Y-0.805
X2.06Y-0.905
X2.06Y-1.005
X2.06Y-1.105
X2.06Y-1.205
X2.06Y-1.305
X2.06Y-1.405
X2.06Y-1.505
X2.06Y-1.605
X2.06Y-1.705
X2.06Y-1.805
X2.06Y-1.905
X2.06Y-2.005
X2.06Y-2.105
X2.06Y-2.205
X2.06Y-2.305
X2.06Y-2.405
X2.06Y-2.505
X2.06Y-2.605
X2.06Y-2.705
X2.06Y-2.805
X2.06Y-2.905
X2.06Y-3.005
X2.06Y-3.105
X2.06Y-3.205
X2.06Y-3.305
X2.06Y-3.405
X2.06Y-3.505
X2.06Y-3.605
X2.06Y-3.705
X2.47Y-3.525
X2.57Y-3.525
X2.67Y-3.525
X2.77Y-3.525
X2.87Y-3.525
X3.31Y-0.605
X3.31Y-0.705
X3.31Y-0.805
X3.31Y-0.905
X3.31Y-1.005
X3.31Y-1.105
X3.31Y-1.205
X3.31Y-1.305
X3.31Y-1.405
X3.31Y-1.505
X3.31Y-1.605
X3.31Y-1.705
X3.31Y-1.805
X3.31Y-1.905
X3.31Y-2.005
X3.31Y-2.105
X3.31Y-2.205
X3.31Y-2.305
X3.31Y-2.405
X3.31Y-2.505
X3.31Y-2.605
X3.31Y-2.705
X3.31Y-2.805
X3.31Y-2.905
X3.31Y-3.005
X3.31Y-3.105
X3.31Y-3.205
X3.31Y-3.305
X3.31Y-3.405
X3.31Y-3.505
X3.31Y-3.605
X3.31Y-3.705
T0
M30
