G04 (created by PCBNEW (2013-05-31 BZR 4019)-stable) date 7/11/2013 3:51:15 PM*
%MOIN*%
G04 Gerber Fmt 3.4, Leading zero omitted, Abs format*
%FSLAX34Y34*%
G01*
G70*
G90*
G04 APERTURE LIST*
%ADD10C,0.00590551*%
%ADD11C,0.005*%
%ADD12C,0.012*%
%ADD13C,0.015*%
%ADD14C,0.006*%
%ADD15C,0.0045*%
G04 APERTURE END LIST*
G54D10*
X21227Y-28825D02*
X21395Y-28825D01*
X21311Y-29118D02*
X21311Y-28825D01*
X21493Y-29118D02*
X21493Y-28825D01*
X21563Y-28825D01*
X21605Y-28839D01*
X21633Y-28867D01*
X21647Y-28895D01*
X21661Y-28951D01*
X21661Y-28993D01*
X21647Y-29048D01*
X21633Y-29076D01*
X21605Y-29104D01*
X21563Y-29118D01*
X21493Y-29118D01*
X21843Y-28825D02*
X21899Y-28825D01*
X21927Y-28839D01*
X21955Y-28867D01*
X21969Y-28923D01*
X21969Y-29020D01*
X21955Y-29076D01*
X21927Y-29104D01*
X21899Y-29118D01*
X21843Y-29118D01*
X21815Y-29104D01*
X21787Y-29076D01*
X21773Y-29020D01*
X21773Y-28923D01*
X21787Y-28867D01*
X21815Y-28839D01*
X21843Y-28825D01*
X22304Y-28811D02*
X22053Y-29188D01*
X22388Y-29034D02*
X22528Y-29034D01*
X22360Y-29118D02*
X22458Y-28825D01*
X22556Y-29118D01*
X22654Y-29118D02*
X22654Y-28825D01*
X22822Y-29118D01*
X22822Y-28825D01*
X23116Y-29118D02*
X22948Y-29118D01*
X23032Y-29118D02*
X23032Y-28825D01*
X23004Y-28867D01*
X22976Y-28895D01*
X22948Y-28909D01*
X23395Y-29118D02*
X23227Y-29118D01*
X23311Y-29118D02*
X23311Y-28825D01*
X23283Y-28867D01*
X23255Y-28895D01*
X23227Y-28909D01*
X23731Y-28811D02*
X23479Y-29188D01*
X23829Y-29118D02*
X23829Y-28825D01*
X23941Y-28825D01*
X23969Y-28839D01*
X23983Y-28853D01*
X23997Y-28881D01*
X23997Y-28923D01*
X23983Y-28951D01*
X23969Y-28965D01*
X23941Y-28979D01*
X23829Y-28979D01*
X24123Y-29118D02*
X24123Y-28825D01*
X24220Y-29034D01*
X24318Y-28825D01*
X24318Y-29118D01*
X24444Y-29034D02*
X24584Y-29034D01*
X24416Y-29118D02*
X24514Y-28825D01*
X24612Y-29118D01*
X24864Y-29118D02*
X24696Y-29118D01*
X24780Y-29118D02*
X24780Y-28825D01*
X24752Y-28867D01*
X24724Y-28895D01*
X24696Y-28909D01*
X24976Y-28853D02*
X24990Y-28839D01*
X25018Y-28825D01*
X25088Y-28825D01*
X25116Y-28839D01*
X25129Y-28853D01*
X25143Y-28881D01*
X25143Y-28909D01*
X25129Y-28951D01*
X24962Y-29118D01*
X25143Y-29118D01*
X25479Y-28811D02*
X25227Y-29188D01*
X25745Y-29118D02*
X25647Y-28979D01*
X25577Y-29118D02*
X25577Y-28825D01*
X25689Y-28825D01*
X25717Y-28839D01*
X25731Y-28853D01*
X25745Y-28881D01*
X25745Y-28923D01*
X25731Y-28951D01*
X25717Y-28965D01*
X25689Y-28979D01*
X25577Y-28979D01*
X25871Y-29118D02*
X25871Y-28825D01*
X25983Y-28825D01*
X26011Y-28839D01*
X26025Y-28853D01*
X26039Y-28881D01*
X26039Y-28923D01*
X26025Y-28951D01*
X26011Y-28965D01*
X25983Y-28979D01*
X25871Y-28979D01*
X26164Y-29118D02*
X26164Y-28825D01*
X26430Y-28923D02*
X26430Y-29118D01*
X26360Y-28811D02*
X26290Y-29020D01*
X26472Y-29020D01*
X26556Y-28825D02*
X26738Y-28825D01*
X26640Y-28937D01*
X26682Y-28937D01*
X26710Y-28951D01*
X26724Y-28965D01*
X26738Y-28993D01*
X26738Y-29062D01*
X26724Y-29090D01*
X26710Y-29104D01*
X26682Y-29118D01*
X26598Y-29118D01*
X26570Y-29104D01*
X26556Y-29090D01*
X27074Y-28811D02*
X26822Y-29188D01*
X27339Y-29118D02*
X27241Y-28979D01*
X27171Y-29118D02*
X27171Y-28825D01*
X27283Y-28825D01*
X27311Y-28839D01*
X27325Y-28853D01*
X27339Y-28881D01*
X27339Y-28923D01*
X27325Y-28951D01*
X27311Y-28965D01*
X27283Y-28979D01*
X27171Y-28979D01*
X27563Y-28965D02*
X27605Y-28979D01*
X27619Y-28993D01*
X27633Y-29020D01*
X27633Y-29062D01*
X27619Y-29090D01*
X27605Y-29104D01*
X27577Y-29118D01*
X27465Y-29118D01*
X27465Y-28825D01*
X27563Y-28825D01*
X27591Y-28839D01*
X27605Y-28853D01*
X27619Y-28881D01*
X27619Y-28909D01*
X27605Y-28937D01*
X27591Y-28951D01*
X27563Y-28965D01*
X27465Y-28965D01*
X27913Y-29118D02*
X27745Y-29118D01*
X27829Y-29118D02*
X27829Y-28825D01*
X27801Y-28867D01*
X27773Y-28895D01*
X27745Y-28909D01*
X28192Y-29118D02*
X28025Y-29118D01*
X28108Y-29118D02*
X28108Y-28825D01*
X28080Y-28867D01*
X28053Y-28895D01*
X28025Y-28909D01*
X21227Y-27825D02*
X21395Y-27825D01*
X21311Y-28118D02*
X21311Y-27825D01*
X21493Y-28118D02*
X21493Y-27825D01*
X21591Y-28034D01*
X21689Y-27825D01*
X21689Y-28118D01*
X21815Y-28104D02*
X21857Y-28118D01*
X21927Y-28118D01*
X21955Y-28104D01*
X21969Y-28090D01*
X21983Y-28062D01*
X21983Y-28034D01*
X21969Y-28006D01*
X21955Y-27993D01*
X21927Y-27979D01*
X21871Y-27965D01*
X21843Y-27951D01*
X21829Y-27937D01*
X21815Y-27909D01*
X21815Y-27881D01*
X21829Y-27853D01*
X21843Y-27839D01*
X21871Y-27825D01*
X21941Y-27825D01*
X21983Y-27839D01*
X22318Y-27811D02*
X22067Y-28188D01*
X22402Y-28034D02*
X22542Y-28034D01*
X22374Y-28118D02*
X22472Y-27825D01*
X22570Y-28118D01*
X22668Y-28118D02*
X22668Y-27825D01*
X22836Y-28118D01*
X22836Y-27825D01*
X23130Y-28118D02*
X22962Y-28118D01*
X23046Y-28118D02*
X23046Y-27825D01*
X23018Y-27867D01*
X22990Y-27895D01*
X22962Y-27909D01*
X23311Y-27825D02*
X23339Y-27825D01*
X23367Y-27839D01*
X23381Y-27853D01*
X23395Y-27881D01*
X23409Y-27937D01*
X23409Y-28006D01*
X23395Y-28062D01*
X23381Y-28090D01*
X23367Y-28104D01*
X23339Y-28118D01*
X23311Y-28118D01*
X23283Y-28104D01*
X23269Y-28090D01*
X23255Y-28062D01*
X23241Y-28006D01*
X23241Y-27937D01*
X23255Y-27881D01*
X23269Y-27853D01*
X23283Y-27839D01*
X23311Y-27825D01*
X23745Y-27811D02*
X23493Y-28188D01*
X24011Y-28090D02*
X23997Y-28104D01*
X23955Y-28118D01*
X23927Y-28118D01*
X23885Y-28104D01*
X23857Y-28076D01*
X23843Y-28048D01*
X23829Y-27993D01*
X23829Y-27951D01*
X23843Y-27895D01*
X23857Y-27867D01*
X23885Y-27839D01*
X23927Y-27825D01*
X23955Y-27825D01*
X23997Y-27839D01*
X24011Y-27853D01*
X24095Y-27825D02*
X24192Y-28118D01*
X24290Y-27825D01*
X24556Y-28118D02*
X24458Y-27979D01*
X24388Y-28118D02*
X24388Y-27825D01*
X24500Y-27825D01*
X24528Y-27839D01*
X24542Y-27853D01*
X24556Y-27881D01*
X24556Y-27923D01*
X24542Y-27951D01*
X24528Y-27965D01*
X24500Y-27979D01*
X24388Y-27979D01*
X24682Y-27965D02*
X24780Y-27965D01*
X24822Y-28118D02*
X24682Y-28118D01*
X24682Y-27825D01*
X24822Y-27825D01*
X25046Y-27965D02*
X24948Y-27965D01*
X24948Y-28118D02*
X24948Y-27825D01*
X25088Y-27825D01*
X25409Y-27811D02*
X25157Y-28188D01*
X25507Y-28118D02*
X25507Y-27825D01*
X25619Y-27825D01*
X25647Y-27839D01*
X25661Y-27853D01*
X25675Y-27881D01*
X25675Y-27923D01*
X25661Y-27951D01*
X25647Y-27965D01*
X25619Y-27979D01*
X25507Y-27979D01*
X25801Y-28118D02*
X25801Y-27825D01*
X25899Y-28034D01*
X25997Y-27825D01*
X25997Y-28118D01*
X26122Y-28034D02*
X26262Y-28034D01*
X26095Y-28118D02*
X26192Y-27825D01*
X26290Y-28118D01*
X26542Y-28118D02*
X26374Y-28118D01*
X26458Y-28118D02*
X26458Y-27825D01*
X26430Y-27867D01*
X26402Y-27895D01*
X26374Y-27909D01*
X26640Y-27825D02*
X26822Y-27825D01*
X26724Y-27937D01*
X26766Y-27937D01*
X26794Y-27951D01*
X26808Y-27965D01*
X26822Y-27993D01*
X26822Y-28062D01*
X26808Y-28090D01*
X26794Y-28104D01*
X26766Y-28118D01*
X26682Y-28118D01*
X26654Y-28104D01*
X26640Y-28090D01*
X27157Y-27811D02*
X26906Y-28188D01*
X27423Y-28118D02*
X27325Y-27979D01*
X27255Y-28118D02*
X27255Y-27825D01*
X27367Y-27825D01*
X27395Y-27839D01*
X27409Y-27853D01*
X27423Y-27881D01*
X27423Y-27923D01*
X27409Y-27951D01*
X27395Y-27965D01*
X27367Y-27979D01*
X27255Y-27979D01*
X27549Y-28118D02*
X27549Y-27825D01*
X27661Y-27825D01*
X27689Y-27839D01*
X27703Y-27853D01*
X27717Y-27881D01*
X27717Y-27923D01*
X27703Y-27951D01*
X27689Y-27965D01*
X27661Y-27979D01*
X27549Y-27979D01*
X27843Y-28118D02*
X27843Y-27825D01*
X28108Y-27923D02*
X28108Y-28118D01*
X28039Y-27811D02*
X27969Y-28020D01*
X28150Y-28020D01*
X28248Y-27853D02*
X28262Y-27839D01*
X28290Y-27825D01*
X28360Y-27825D01*
X28388Y-27839D01*
X28402Y-27853D01*
X28416Y-27881D01*
X28416Y-27909D01*
X28402Y-27951D01*
X28234Y-28118D01*
X28416Y-28118D01*
X28752Y-27811D02*
X28500Y-28188D01*
X29018Y-28118D02*
X28920Y-27979D01*
X28850Y-28118D02*
X28850Y-27825D01*
X28962Y-27825D01*
X28990Y-27839D01*
X29004Y-27853D01*
X29018Y-27881D01*
X29018Y-27923D01*
X29004Y-27951D01*
X28990Y-27965D01*
X28962Y-27979D01*
X28850Y-27979D01*
X29241Y-27965D02*
X29283Y-27979D01*
X29297Y-27993D01*
X29311Y-28020D01*
X29311Y-28062D01*
X29297Y-28090D01*
X29283Y-28104D01*
X29255Y-28118D01*
X29143Y-28118D01*
X29143Y-27825D01*
X29241Y-27825D01*
X29269Y-27839D01*
X29283Y-27853D01*
X29297Y-27881D01*
X29297Y-27909D01*
X29283Y-27937D01*
X29269Y-27951D01*
X29241Y-27965D01*
X29143Y-27965D01*
X29591Y-28118D02*
X29423Y-28118D01*
X29507Y-28118D02*
X29507Y-27825D01*
X29479Y-27867D01*
X29451Y-27895D01*
X29423Y-27909D01*
X29773Y-27825D02*
X29801Y-27825D01*
X29829Y-27839D01*
X29843Y-27853D01*
X29857Y-27881D01*
X29871Y-27937D01*
X29871Y-28006D01*
X29857Y-28062D01*
X29843Y-28090D01*
X29829Y-28104D01*
X29801Y-28118D01*
X29773Y-28118D01*
X29745Y-28104D01*
X29731Y-28090D01*
X29717Y-28062D01*
X29703Y-28006D01*
X29703Y-27937D01*
X29717Y-27881D01*
X29731Y-27853D01*
X29745Y-27839D01*
X29773Y-27825D01*
X21255Y-27034D02*
X21395Y-27034D01*
X21227Y-27118D02*
X21325Y-26825D01*
X21423Y-27118D01*
X21521Y-27118D02*
X21521Y-26825D01*
X21689Y-27118D01*
X21689Y-26825D01*
X21843Y-27118D02*
X21899Y-27118D01*
X21927Y-27104D01*
X21941Y-27090D01*
X21969Y-27048D01*
X21983Y-26993D01*
X21983Y-26881D01*
X21969Y-26853D01*
X21955Y-26839D01*
X21927Y-26825D01*
X21871Y-26825D01*
X21843Y-26839D01*
X21829Y-26853D01*
X21815Y-26881D01*
X21815Y-26951D01*
X21829Y-26979D01*
X21843Y-26993D01*
X21871Y-27006D01*
X21927Y-27006D01*
X21955Y-26993D01*
X21969Y-26979D01*
X21983Y-26951D01*
X22318Y-26811D02*
X22067Y-27188D01*
X22416Y-27118D02*
X22416Y-26825D01*
X22528Y-26825D01*
X22556Y-26839D01*
X22570Y-26853D01*
X22584Y-26881D01*
X22584Y-26923D01*
X22570Y-26951D01*
X22556Y-26965D01*
X22528Y-26979D01*
X22416Y-26979D01*
X22710Y-27118D02*
X22710Y-26825D01*
X22808Y-27034D01*
X22906Y-26825D01*
X22906Y-27118D01*
X23032Y-27034D02*
X23171Y-27034D01*
X23004Y-27118D02*
X23102Y-26825D01*
X23199Y-27118D01*
X23269Y-26825D02*
X23465Y-26825D01*
X23339Y-27118D01*
X23787Y-26811D02*
X23535Y-27188D01*
X24095Y-26811D02*
X23843Y-27188D01*
X24360Y-27118D02*
X24262Y-26979D01*
X24192Y-27118D02*
X24192Y-26825D01*
X24304Y-26825D01*
X24332Y-26839D01*
X24346Y-26853D01*
X24360Y-26881D01*
X24360Y-26923D01*
X24346Y-26951D01*
X24332Y-26965D01*
X24304Y-26979D01*
X24192Y-26979D01*
X24486Y-27118D02*
X24486Y-26825D01*
X24598Y-26825D01*
X24626Y-26839D01*
X24640Y-26853D01*
X24654Y-26881D01*
X24654Y-26923D01*
X24640Y-26951D01*
X24626Y-26965D01*
X24598Y-26979D01*
X24486Y-26979D01*
X24780Y-27118D02*
X24780Y-26825D01*
X25046Y-26923D02*
X25046Y-27118D01*
X24976Y-26811D02*
X24906Y-27020D01*
X25088Y-27020D01*
X25353Y-27118D02*
X25185Y-27118D01*
X25269Y-27118D02*
X25269Y-26825D01*
X25241Y-26867D01*
X25213Y-26895D01*
X25185Y-26909D01*
X25689Y-26811D02*
X25437Y-27188D01*
X25955Y-27118D02*
X25857Y-26979D01*
X25787Y-27118D02*
X25787Y-26825D01*
X25899Y-26825D01*
X25927Y-26839D01*
X25941Y-26853D01*
X25955Y-26881D01*
X25955Y-26923D01*
X25941Y-26951D01*
X25927Y-26965D01*
X25899Y-26979D01*
X25787Y-26979D01*
X26178Y-26965D02*
X26220Y-26979D01*
X26234Y-26993D01*
X26248Y-27020D01*
X26248Y-27062D01*
X26234Y-27090D01*
X26220Y-27104D01*
X26192Y-27118D01*
X26081Y-27118D01*
X26081Y-26825D01*
X26178Y-26825D01*
X26206Y-26839D01*
X26220Y-26853D01*
X26234Y-26881D01*
X26234Y-26909D01*
X26220Y-26937D01*
X26206Y-26951D01*
X26178Y-26965D01*
X26081Y-26965D01*
X26388Y-27118D02*
X26444Y-27118D01*
X26472Y-27104D01*
X26486Y-27090D01*
X26514Y-27048D01*
X26528Y-26993D01*
X26528Y-26881D01*
X26514Y-26853D01*
X26500Y-26839D01*
X26472Y-26825D01*
X26416Y-26825D01*
X26388Y-26839D01*
X26374Y-26853D01*
X26360Y-26881D01*
X26360Y-26951D01*
X26374Y-26979D01*
X26388Y-26993D01*
X26416Y-27006D01*
X26472Y-27006D01*
X26500Y-26993D01*
X26514Y-26979D01*
X26528Y-26951D01*
X21255Y-26084D02*
X21395Y-26084D01*
X21227Y-26168D02*
X21325Y-25875D01*
X21423Y-26168D01*
X21521Y-26168D02*
X21521Y-25875D01*
X21689Y-26168D01*
X21689Y-25875D01*
X21871Y-26001D02*
X21843Y-25987D01*
X21829Y-25973D01*
X21815Y-25945D01*
X21815Y-25931D01*
X21829Y-25903D01*
X21843Y-25889D01*
X21871Y-25875D01*
X21927Y-25875D01*
X21955Y-25889D01*
X21969Y-25903D01*
X21983Y-25931D01*
X21983Y-25945D01*
X21969Y-25973D01*
X21955Y-25987D01*
X21927Y-26001D01*
X21871Y-26001D01*
X21843Y-26015D01*
X21829Y-26029D01*
X21815Y-26056D01*
X21815Y-26112D01*
X21829Y-26140D01*
X21843Y-26154D01*
X21871Y-26168D01*
X21927Y-26168D01*
X21955Y-26154D01*
X21969Y-26140D01*
X21983Y-26112D01*
X21983Y-26056D01*
X21969Y-26029D01*
X21955Y-26015D01*
X21927Y-26001D01*
X22318Y-25861D02*
X22067Y-26238D01*
X22416Y-26168D02*
X22416Y-25875D01*
X22528Y-25875D01*
X22556Y-25889D01*
X22570Y-25903D01*
X22584Y-25931D01*
X22584Y-25973D01*
X22570Y-26001D01*
X22556Y-26015D01*
X22528Y-26029D01*
X22416Y-26029D01*
X22710Y-26168D02*
X22710Y-25875D01*
X22808Y-26084D01*
X22906Y-25875D01*
X22906Y-26168D01*
X23032Y-26084D02*
X23171Y-26084D01*
X23004Y-26168D02*
X23102Y-25875D01*
X23199Y-26168D01*
X23423Y-25875D02*
X23367Y-25875D01*
X23339Y-25889D01*
X23325Y-25903D01*
X23297Y-25945D01*
X23283Y-26001D01*
X23283Y-26112D01*
X23297Y-26140D01*
X23311Y-26154D01*
X23339Y-26168D01*
X23395Y-26168D01*
X23423Y-26154D01*
X23437Y-26140D01*
X23451Y-26112D01*
X23451Y-26043D01*
X23437Y-26015D01*
X23423Y-26001D01*
X23395Y-25987D01*
X23339Y-25987D01*
X23311Y-26001D01*
X23297Y-26015D01*
X23283Y-26043D01*
X23787Y-25861D02*
X23535Y-26238D01*
X24053Y-26168D02*
X23955Y-26029D01*
X23885Y-26168D02*
X23885Y-25875D01*
X23997Y-25875D01*
X24025Y-25889D01*
X24039Y-25903D01*
X24053Y-25931D01*
X24053Y-25973D01*
X24039Y-26001D01*
X24025Y-26015D01*
X23997Y-26029D01*
X23885Y-26029D01*
X24178Y-26168D02*
X24178Y-25875D01*
X24290Y-25875D01*
X24318Y-25889D01*
X24332Y-25903D01*
X24346Y-25931D01*
X24346Y-25973D01*
X24332Y-26001D01*
X24318Y-26015D01*
X24290Y-26029D01*
X24178Y-26029D01*
X24472Y-26168D02*
X24472Y-25875D01*
X24738Y-25973D02*
X24738Y-26168D01*
X24668Y-25861D02*
X24598Y-26070D01*
X24780Y-26070D01*
X24948Y-25875D02*
X24976Y-25875D01*
X25004Y-25889D01*
X25018Y-25903D01*
X25032Y-25931D01*
X25046Y-25987D01*
X25046Y-26056D01*
X25032Y-26112D01*
X25018Y-26140D01*
X25004Y-26154D01*
X24976Y-26168D01*
X24948Y-26168D01*
X24920Y-26154D01*
X24906Y-26140D01*
X24892Y-26112D01*
X24878Y-26056D01*
X24878Y-25987D01*
X24892Y-25931D01*
X24906Y-25903D01*
X24920Y-25889D01*
X24948Y-25875D01*
X25381Y-25861D02*
X25129Y-26238D01*
X25647Y-26168D02*
X25549Y-26029D01*
X25479Y-26168D02*
X25479Y-25875D01*
X25591Y-25875D01*
X25619Y-25889D01*
X25633Y-25903D01*
X25647Y-25931D01*
X25647Y-25973D01*
X25633Y-26001D01*
X25619Y-26015D01*
X25591Y-26029D01*
X25479Y-26029D01*
X25871Y-26015D02*
X25913Y-26029D01*
X25927Y-26043D01*
X25941Y-26070D01*
X25941Y-26112D01*
X25927Y-26140D01*
X25913Y-26154D01*
X25885Y-26168D01*
X25773Y-26168D01*
X25773Y-25875D01*
X25871Y-25875D01*
X25899Y-25889D01*
X25913Y-25903D01*
X25927Y-25931D01*
X25927Y-25959D01*
X25913Y-25987D01*
X25899Y-26001D01*
X25871Y-26015D01*
X25773Y-26015D01*
X26108Y-26001D02*
X26081Y-25987D01*
X26067Y-25973D01*
X26053Y-25945D01*
X26053Y-25931D01*
X26067Y-25903D01*
X26081Y-25889D01*
X26108Y-25875D01*
X26164Y-25875D01*
X26192Y-25889D01*
X26206Y-25903D01*
X26220Y-25931D01*
X26220Y-25945D01*
X26206Y-25973D01*
X26192Y-25987D01*
X26164Y-26001D01*
X26108Y-26001D01*
X26081Y-26015D01*
X26067Y-26029D01*
X26053Y-26056D01*
X26053Y-26112D01*
X26067Y-26140D01*
X26081Y-26154D01*
X26108Y-26168D01*
X26164Y-26168D01*
X26192Y-26154D01*
X26206Y-26140D01*
X26220Y-26112D01*
X26220Y-26056D01*
X26206Y-26029D01*
X26192Y-26015D01*
X26164Y-26001D01*
X21255Y-37154D02*
X21297Y-37168D01*
X21367Y-37168D01*
X21395Y-37154D01*
X21409Y-37140D01*
X21423Y-37112D01*
X21423Y-37084D01*
X21409Y-37056D01*
X21395Y-37043D01*
X21367Y-37029D01*
X21311Y-37015D01*
X21283Y-37001D01*
X21269Y-36987D01*
X21255Y-36959D01*
X21255Y-36931D01*
X21269Y-36903D01*
X21283Y-36889D01*
X21311Y-36875D01*
X21381Y-36875D01*
X21423Y-36889D01*
X21717Y-37140D02*
X21703Y-37154D01*
X21661Y-37168D01*
X21633Y-37168D01*
X21591Y-37154D01*
X21563Y-37126D01*
X21549Y-37098D01*
X21535Y-37043D01*
X21535Y-37001D01*
X21549Y-36945D01*
X21563Y-36917D01*
X21591Y-36889D01*
X21633Y-36875D01*
X21661Y-36875D01*
X21703Y-36889D01*
X21717Y-36903D01*
X21983Y-37168D02*
X21843Y-37168D01*
X21843Y-36875D01*
X22067Y-36903D02*
X22081Y-36889D01*
X22109Y-36875D01*
X22179Y-36875D01*
X22206Y-36889D01*
X22220Y-36903D01*
X22234Y-36931D01*
X22234Y-36959D01*
X22220Y-37001D01*
X22053Y-37168D01*
X22234Y-37168D01*
X22570Y-36861D02*
X22318Y-37238D01*
X22668Y-37168D02*
X22668Y-36875D01*
X22780Y-36875D01*
X22808Y-36889D01*
X22822Y-36903D01*
X22836Y-36931D01*
X22836Y-36973D01*
X22822Y-37001D01*
X22808Y-37015D01*
X22780Y-37029D01*
X22668Y-37029D01*
X22962Y-37168D02*
X22962Y-36875D01*
X23060Y-37084D01*
X23158Y-36875D01*
X23158Y-37168D01*
X23283Y-37084D02*
X23423Y-37084D01*
X23255Y-37168D02*
X23353Y-36875D01*
X23451Y-37168D01*
X23591Y-37001D02*
X23563Y-36987D01*
X23549Y-36973D01*
X23535Y-36945D01*
X23535Y-36931D01*
X23549Y-36903D01*
X23563Y-36889D01*
X23591Y-36875D01*
X23647Y-36875D01*
X23675Y-36889D01*
X23689Y-36903D01*
X23703Y-36931D01*
X23703Y-36945D01*
X23689Y-36973D01*
X23675Y-36987D01*
X23647Y-37001D01*
X23591Y-37001D01*
X23563Y-37015D01*
X23549Y-37029D01*
X23535Y-37056D01*
X23535Y-37112D01*
X23549Y-37140D01*
X23563Y-37154D01*
X23591Y-37168D01*
X23647Y-37168D01*
X23675Y-37154D01*
X23689Y-37140D01*
X23703Y-37112D01*
X23703Y-37056D01*
X23689Y-37029D01*
X23675Y-37015D01*
X23647Y-37001D01*
X24039Y-36861D02*
X23787Y-37238D01*
X24304Y-37168D02*
X24206Y-37029D01*
X24137Y-37168D02*
X24137Y-36875D01*
X24248Y-36875D01*
X24276Y-36889D01*
X24290Y-36903D01*
X24304Y-36931D01*
X24304Y-36973D01*
X24290Y-37001D01*
X24276Y-37015D01*
X24248Y-37029D01*
X24137Y-37029D01*
X24430Y-37168D02*
X24430Y-36875D01*
X24542Y-36875D01*
X24570Y-36889D01*
X24584Y-36903D01*
X24598Y-36931D01*
X24598Y-36973D01*
X24584Y-37001D01*
X24570Y-37015D01*
X24542Y-37029D01*
X24430Y-37029D01*
X24878Y-37168D02*
X24710Y-37168D01*
X24794Y-37168D02*
X24794Y-36875D01*
X24766Y-36917D01*
X24738Y-36945D01*
X24710Y-36959D01*
X25060Y-36875D02*
X25088Y-36875D01*
X25116Y-36889D01*
X25129Y-36903D01*
X25143Y-36931D01*
X25157Y-36987D01*
X25157Y-37056D01*
X25143Y-37112D01*
X25129Y-37140D01*
X25116Y-37154D01*
X25088Y-37168D01*
X25060Y-37168D01*
X25032Y-37154D01*
X25018Y-37140D01*
X25004Y-37112D01*
X24990Y-37056D01*
X24990Y-36987D01*
X25004Y-36931D01*
X25018Y-36903D01*
X25032Y-36889D01*
X25060Y-36875D01*
X25437Y-37168D02*
X25269Y-37168D01*
X25353Y-37168D02*
X25353Y-36875D01*
X25325Y-36917D01*
X25297Y-36945D01*
X25269Y-36959D01*
X25773Y-36861D02*
X25521Y-37238D01*
X26039Y-37168D02*
X25941Y-37029D01*
X25871Y-37168D02*
X25871Y-36875D01*
X25983Y-36875D01*
X26011Y-36889D01*
X26025Y-36903D01*
X26039Y-36931D01*
X26039Y-36973D01*
X26025Y-37001D01*
X26011Y-37015D01*
X25983Y-37029D01*
X25871Y-37029D01*
X26262Y-37015D02*
X26164Y-37015D01*
X26164Y-37168D02*
X26164Y-36875D01*
X26304Y-36875D01*
X26556Y-36875D02*
X26416Y-36875D01*
X26402Y-37015D01*
X26416Y-37001D01*
X26444Y-36987D01*
X26514Y-36987D01*
X26542Y-37001D01*
X26556Y-37015D01*
X26570Y-37043D01*
X26570Y-37112D01*
X26556Y-37140D01*
X26542Y-37154D01*
X26514Y-37168D01*
X26444Y-37168D01*
X26416Y-37154D01*
X26402Y-37140D01*
X21255Y-36154D02*
X21297Y-36168D01*
X21367Y-36168D01*
X21395Y-36154D01*
X21409Y-36140D01*
X21423Y-36112D01*
X21423Y-36084D01*
X21409Y-36056D01*
X21395Y-36043D01*
X21367Y-36029D01*
X21311Y-36015D01*
X21283Y-36001D01*
X21269Y-35987D01*
X21255Y-35959D01*
X21255Y-35931D01*
X21269Y-35903D01*
X21283Y-35889D01*
X21311Y-35875D01*
X21381Y-35875D01*
X21423Y-35889D01*
X21549Y-36168D02*
X21549Y-35875D01*
X21619Y-35875D01*
X21661Y-35889D01*
X21689Y-35917D01*
X21703Y-35945D01*
X21717Y-36001D01*
X21717Y-36043D01*
X21703Y-36098D01*
X21689Y-36126D01*
X21661Y-36154D01*
X21619Y-36168D01*
X21549Y-36168D01*
X21829Y-36084D02*
X21969Y-36084D01*
X21801Y-36168D02*
X21899Y-35875D01*
X21997Y-36168D01*
X22081Y-35903D02*
X22095Y-35889D01*
X22123Y-35875D01*
X22192Y-35875D01*
X22220Y-35889D01*
X22234Y-35903D01*
X22248Y-35931D01*
X22248Y-35959D01*
X22234Y-36001D01*
X22067Y-36168D01*
X22248Y-36168D01*
X22584Y-35861D02*
X22332Y-36238D01*
X22682Y-36168D02*
X22682Y-35875D01*
X22794Y-35875D01*
X22822Y-35889D01*
X22836Y-35903D01*
X22850Y-35931D01*
X22850Y-35973D01*
X22836Y-36001D01*
X22822Y-36015D01*
X22794Y-36029D01*
X22682Y-36029D01*
X22976Y-36168D02*
X22976Y-35875D01*
X23074Y-36084D01*
X23171Y-35875D01*
X23171Y-36168D01*
X23297Y-36084D02*
X23437Y-36084D01*
X23269Y-36168D02*
X23367Y-35875D01*
X23465Y-36168D01*
X23577Y-36168D02*
X23633Y-36168D01*
X23661Y-36154D01*
X23675Y-36140D01*
X23703Y-36098D01*
X23717Y-36043D01*
X23717Y-35931D01*
X23703Y-35903D01*
X23689Y-35889D01*
X23661Y-35875D01*
X23605Y-35875D01*
X23577Y-35889D01*
X23563Y-35903D01*
X23549Y-35931D01*
X23549Y-36001D01*
X23563Y-36029D01*
X23577Y-36043D01*
X23605Y-36056D01*
X23661Y-36056D01*
X23689Y-36043D01*
X23703Y-36029D01*
X23717Y-36001D01*
X24053Y-35861D02*
X23801Y-36238D01*
X24318Y-36168D02*
X24220Y-36029D01*
X24150Y-36168D02*
X24150Y-35875D01*
X24262Y-35875D01*
X24290Y-35889D01*
X24304Y-35903D01*
X24318Y-35931D01*
X24318Y-35973D01*
X24304Y-36001D01*
X24290Y-36015D01*
X24262Y-36029D01*
X24150Y-36029D01*
X24444Y-36168D02*
X24444Y-35875D01*
X24556Y-35875D01*
X24584Y-35889D01*
X24598Y-35903D01*
X24612Y-35931D01*
X24612Y-35973D01*
X24598Y-36001D01*
X24584Y-36015D01*
X24556Y-36029D01*
X24444Y-36029D01*
X24892Y-36168D02*
X24724Y-36168D01*
X24808Y-36168D02*
X24808Y-35875D01*
X24780Y-35917D01*
X24752Y-35945D01*
X24724Y-35959D01*
X25074Y-35875D02*
X25102Y-35875D01*
X25129Y-35889D01*
X25143Y-35903D01*
X25157Y-35931D01*
X25171Y-35987D01*
X25171Y-36056D01*
X25157Y-36112D01*
X25143Y-36140D01*
X25129Y-36154D01*
X25102Y-36168D01*
X25074Y-36168D01*
X25046Y-36154D01*
X25032Y-36140D01*
X25018Y-36112D01*
X25004Y-36056D01*
X25004Y-35987D01*
X25018Y-35931D01*
X25032Y-35903D01*
X25046Y-35889D01*
X25074Y-35875D01*
X25353Y-35875D02*
X25381Y-35875D01*
X25409Y-35889D01*
X25423Y-35903D01*
X25437Y-35931D01*
X25451Y-35987D01*
X25451Y-36056D01*
X25437Y-36112D01*
X25423Y-36140D01*
X25409Y-36154D01*
X25381Y-36168D01*
X25353Y-36168D01*
X25325Y-36154D01*
X25311Y-36140D01*
X25297Y-36112D01*
X25283Y-36056D01*
X25283Y-35987D01*
X25297Y-35931D01*
X25311Y-35903D01*
X25325Y-35889D01*
X25353Y-35875D01*
X25787Y-35861D02*
X25535Y-36238D01*
X26053Y-36168D02*
X25955Y-36029D01*
X25885Y-36168D02*
X25885Y-35875D01*
X25997Y-35875D01*
X26025Y-35889D01*
X26039Y-35903D01*
X26053Y-35931D01*
X26053Y-35973D01*
X26039Y-36001D01*
X26025Y-36015D01*
X25997Y-36029D01*
X25885Y-36029D01*
X26276Y-36015D02*
X26178Y-36015D01*
X26178Y-36168D02*
X26178Y-35875D01*
X26318Y-35875D01*
X26556Y-35973D02*
X26556Y-36168D01*
X26486Y-35861D02*
X26416Y-36070D01*
X26598Y-36070D01*
X21409Y-35118D02*
X21269Y-35118D01*
X21269Y-34825D01*
X21507Y-34965D02*
X21605Y-34965D01*
X21647Y-35118D02*
X21507Y-35118D01*
X21507Y-34825D01*
X21647Y-34825D01*
X21773Y-35118D02*
X21773Y-34825D01*
X21843Y-34825D01*
X21885Y-34839D01*
X21913Y-34867D01*
X21927Y-34895D01*
X21941Y-34951D01*
X21941Y-34993D01*
X21927Y-35048D01*
X21913Y-35076D01*
X21885Y-35104D01*
X21843Y-35118D01*
X21773Y-35118D01*
X22206Y-34825D02*
X22067Y-34825D01*
X22053Y-34965D01*
X22067Y-34951D01*
X22095Y-34937D01*
X22165Y-34937D01*
X22192Y-34951D01*
X22206Y-34965D01*
X22220Y-34993D01*
X22220Y-35062D01*
X22206Y-35090D01*
X22192Y-35104D01*
X22165Y-35118D01*
X22095Y-35118D01*
X22067Y-35104D01*
X22053Y-35090D01*
X21409Y-34118D02*
X21269Y-34118D01*
X21269Y-33825D01*
X21507Y-33965D02*
X21605Y-33965D01*
X21647Y-34118D02*
X21507Y-34118D01*
X21507Y-33825D01*
X21647Y-33825D01*
X21773Y-34118D02*
X21773Y-33825D01*
X21843Y-33825D01*
X21885Y-33839D01*
X21913Y-33867D01*
X21927Y-33895D01*
X21941Y-33951D01*
X21941Y-33993D01*
X21927Y-34048D01*
X21913Y-34076D01*
X21885Y-34104D01*
X21843Y-34118D01*
X21773Y-34118D01*
X22192Y-33923D02*
X22192Y-34118D01*
X22123Y-33811D02*
X22053Y-34020D01*
X22234Y-34020D01*
X21409Y-33118D02*
X21269Y-33118D01*
X21269Y-32825D01*
X21507Y-32965D02*
X21605Y-32965D01*
X21647Y-33118D02*
X21507Y-33118D01*
X21507Y-32825D01*
X21647Y-32825D01*
X21773Y-33118D02*
X21773Y-32825D01*
X21843Y-32825D01*
X21885Y-32839D01*
X21913Y-32867D01*
X21927Y-32895D01*
X21941Y-32951D01*
X21941Y-32993D01*
X21927Y-33048D01*
X21913Y-33076D01*
X21885Y-33104D01*
X21843Y-33118D01*
X21773Y-33118D01*
X22039Y-32825D02*
X22220Y-32825D01*
X22123Y-32937D01*
X22165Y-32937D01*
X22192Y-32951D01*
X22206Y-32965D01*
X22220Y-32993D01*
X22220Y-33062D01*
X22206Y-33090D01*
X22192Y-33104D01*
X22165Y-33118D01*
X22081Y-33118D01*
X22053Y-33104D01*
X22039Y-33090D01*
X21409Y-32118D02*
X21269Y-32118D01*
X21269Y-31825D01*
X21507Y-31965D02*
X21605Y-31965D01*
X21647Y-32118D02*
X21507Y-32118D01*
X21507Y-31825D01*
X21647Y-31825D01*
X21773Y-32118D02*
X21773Y-31825D01*
X21843Y-31825D01*
X21885Y-31839D01*
X21913Y-31867D01*
X21927Y-31895D01*
X21941Y-31951D01*
X21941Y-31993D01*
X21927Y-32048D01*
X21913Y-32076D01*
X21885Y-32104D01*
X21843Y-32118D01*
X21773Y-32118D01*
X22053Y-31853D02*
X22067Y-31839D01*
X22095Y-31825D01*
X22165Y-31825D01*
X22192Y-31839D01*
X22206Y-31853D01*
X22220Y-31881D01*
X22220Y-31909D01*
X22206Y-31951D01*
X22039Y-32118D01*
X22220Y-32118D01*
X21227Y-30875D02*
X21325Y-31168D01*
X21423Y-30875D01*
X21689Y-31140D02*
X21675Y-31154D01*
X21633Y-31168D01*
X21605Y-31168D01*
X21563Y-31154D01*
X21535Y-31126D01*
X21521Y-31098D01*
X21507Y-31043D01*
X21507Y-31001D01*
X21521Y-30945D01*
X21535Y-30917D01*
X21563Y-30889D01*
X21605Y-30875D01*
X21633Y-30875D01*
X21675Y-30889D01*
X21689Y-30903D01*
X21983Y-31140D02*
X21969Y-31154D01*
X21927Y-31168D01*
X21899Y-31168D01*
X21857Y-31154D01*
X21829Y-31126D01*
X21815Y-31098D01*
X21801Y-31043D01*
X21801Y-31001D01*
X21815Y-30945D01*
X21829Y-30917D01*
X21857Y-30889D01*
X21899Y-30875D01*
X21927Y-30875D01*
X21969Y-30889D01*
X21983Y-30903D01*
X21255Y-29903D02*
X21269Y-29889D01*
X21297Y-29875D01*
X21367Y-29875D01*
X21395Y-29889D01*
X21409Y-29903D01*
X21423Y-29931D01*
X21423Y-29959D01*
X21409Y-30001D01*
X21241Y-30168D01*
X21423Y-30168D01*
X21689Y-29875D02*
X21549Y-29875D01*
X21535Y-30015D01*
X21549Y-30001D01*
X21577Y-29987D01*
X21647Y-29987D01*
X21675Y-30001D01*
X21689Y-30015D01*
X21703Y-30043D01*
X21703Y-30112D01*
X21689Y-30140D01*
X21675Y-30154D01*
X21647Y-30168D01*
X21577Y-30168D01*
X21549Y-30154D01*
X21535Y-30140D01*
X21801Y-30280D02*
X21815Y-30266D01*
X21843Y-30224D01*
X21857Y-30196D01*
X21871Y-30154D01*
X21885Y-30084D01*
X21885Y-30029D01*
X21871Y-29959D01*
X21857Y-29917D01*
X21843Y-29889D01*
X21815Y-29847D01*
X21801Y-29833D01*
X22402Y-29889D02*
X22374Y-29875D01*
X22332Y-29875D01*
X22290Y-29889D01*
X22262Y-29917D01*
X22248Y-29945D01*
X22234Y-30001D01*
X22234Y-30043D01*
X22248Y-30098D01*
X22262Y-30126D01*
X22290Y-30154D01*
X22332Y-30168D01*
X22360Y-30168D01*
X22402Y-30154D01*
X22416Y-30140D01*
X22416Y-30043D01*
X22360Y-30043D01*
X22542Y-30168D02*
X22542Y-29875D01*
X22710Y-30168D01*
X22710Y-29875D01*
X22850Y-30168D02*
X22850Y-29875D01*
X22920Y-29875D01*
X22962Y-29889D01*
X22990Y-29917D01*
X23004Y-29945D01*
X23018Y-30001D01*
X23018Y-30043D01*
X23004Y-30098D01*
X22990Y-30126D01*
X22962Y-30154D01*
X22920Y-30168D01*
X22850Y-30168D01*
X21423Y-24889D02*
X21395Y-24875D01*
X21353Y-24875D01*
X21311Y-24889D01*
X21283Y-24917D01*
X21269Y-24945D01*
X21255Y-25001D01*
X21255Y-25043D01*
X21269Y-25098D01*
X21283Y-25126D01*
X21311Y-25154D01*
X21353Y-25168D01*
X21381Y-25168D01*
X21423Y-25154D01*
X21437Y-25140D01*
X21437Y-25043D01*
X21381Y-25043D01*
X21563Y-25168D02*
X21563Y-24875D01*
X21731Y-25168D01*
X21731Y-24875D01*
X21871Y-25168D02*
X21871Y-24875D01*
X21941Y-24875D01*
X21983Y-24889D01*
X22011Y-24917D01*
X22025Y-24945D01*
X22039Y-25001D01*
X22039Y-25043D01*
X22025Y-25098D01*
X22011Y-25126D01*
X21983Y-25154D01*
X21941Y-25168D01*
X21871Y-25168D01*
X21227Y-23925D02*
X21325Y-24218D01*
X21423Y-23925D01*
X21689Y-24190D02*
X21675Y-24204D01*
X21633Y-24218D01*
X21605Y-24218D01*
X21563Y-24204D01*
X21535Y-24176D01*
X21521Y-24148D01*
X21507Y-24093D01*
X21507Y-24051D01*
X21521Y-23995D01*
X21535Y-23967D01*
X21563Y-23939D01*
X21605Y-23925D01*
X21633Y-23925D01*
X21675Y-23939D01*
X21689Y-23953D01*
X21983Y-24190D02*
X21969Y-24204D01*
X21927Y-24218D01*
X21899Y-24218D01*
X21857Y-24204D01*
X21829Y-24176D01*
X21815Y-24148D01*
X21801Y-24093D01*
X21801Y-24051D01*
X21815Y-23995D01*
X21829Y-23967D01*
X21857Y-23939D01*
X21899Y-23925D01*
X21927Y-23925D01*
X21969Y-23939D01*
X21983Y-23953D01*
X21269Y-23218D02*
X21269Y-22925D01*
X21381Y-22925D01*
X21409Y-22939D01*
X21423Y-22953D01*
X21437Y-22981D01*
X21437Y-23023D01*
X21423Y-23051D01*
X21409Y-23065D01*
X21381Y-23079D01*
X21269Y-23079D01*
X21717Y-22939D02*
X21689Y-22925D01*
X21647Y-22925D01*
X21605Y-22939D01*
X21577Y-22967D01*
X21563Y-22995D01*
X21549Y-23051D01*
X21549Y-23093D01*
X21563Y-23148D01*
X21577Y-23176D01*
X21605Y-23204D01*
X21647Y-23218D01*
X21675Y-23218D01*
X21717Y-23204D01*
X21731Y-23190D01*
X21731Y-23093D01*
X21675Y-23093D01*
X21857Y-23065D02*
X21955Y-23065D01*
X21997Y-23218D02*
X21857Y-23218D01*
X21857Y-22925D01*
X21997Y-22925D01*
X22123Y-23218D02*
X22123Y-22925D01*
X22192Y-22925D01*
X22234Y-22939D01*
X22262Y-22967D01*
X22276Y-22995D01*
X22290Y-23051D01*
X22290Y-23093D01*
X22276Y-23148D01*
X22262Y-23176D01*
X22234Y-23204D01*
X22192Y-23218D01*
X22123Y-23218D01*
X22570Y-23218D02*
X22402Y-23218D01*
X22486Y-23218D02*
X22486Y-22925D01*
X22458Y-22967D01*
X22430Y-22995D01*
X22402Y-23009D01*
X21423Y-22218D02*
X21255Y-22218D01*
X21339Y-22218D02*
X21339Y-21925D01*
X21311Y-21967D01*
X21283Y-21995D01*
X21255Y-22009D01*
X21521Y-21925D02*
X21717Y-21925D01*
X21591Y-22218D01*
X21801Y-22330D02*
X21815Y-22316D01*
X21843Y-22274D01*
X21857Y-22246D01*
X21871Y-22204D01*
X21885Y-22134D01*
X21885Y-22079D01*
X21871Y-22009D01*
X21857Y-21967D01*
X21843Y-21939D01*
X21815Y-21897D01*
X21801Y-21883D01*
X22248Y-22218D02*
X22248Y-21925D01*
X22360Y-21925D01*
X22388Y-21939D01*
X22402Y-21953D01*
X22416Y-21981D01*
X22416Y-22023D01*
X22402Y-22051D01*
X22388Y-22065D01*
X22360Y-22079D01*
X22248Y-22079D01*
X22696Y-21939D02*
X22668Y-21925D01*
X22626Y-21925D01*
X22584Y-21939D01*
X22556Y-21967D01*
X22542Y-21995D01*
X22528Y-22051D01*
X22528Y-22093D01*
X22542Y-22148D01*
X22556Y-22176D01*
X22584Y-22204D01*
X22626Y-22218D01*
X22654Y-22218D01*
X22696Y-22204D01*
X22710Y-22190D01*
X22710Y-22093D01*
X22654Y-22093D01*
X22836Y-22065D02*
X22934Y-22065D01*
X22976Y-22218D02*
X22836Y-22218D01*
X22836Y-21925D01*
X22976Y-21925D01*
X23269Y-22190D02*
X23255Y-22204D01*
X23213Y-22218D01*
X23185Y-22218D01*
X23144Y-22204D01*
X23116Y-22176D01*
X23102Y-22148D01*
X23088Y-22093D01*
X23088Y-22051D01*
X23102Y-21995D01*
X23116Y-21967D01*
X23144Y-21939D01*
X23185Y-21925D01*
X23213Y-21925D01*
X23255Y-21939D01*
X23269Y-21953D01*
X23549Y-22218D02*
X23381Y-22218D01*
X23465Y-22218D02*
X23465Y-21925D01*
X23437Y-21967D01*
X23409Y-21995D01*
X23381Y-22009D01*
X21255Y-19084D02*
X21395Y-19084D01*
X21227Y-19168D02*
X21325Y-18875D01*
X21423Y-19168D01*
X21521Y-19168D02*
X21521Y-18875D01*
X21689Y-19168D01*
X21689Y-18875D01*
X21983Y-19168D02*
X21815Y-19168D01*
X21899Y-19168D02*
X21899Y-18875D01*
X21871Y-18917D01*
X21843Y-18945D01*
X21815Y-18959D01*
X22318Y-18861D02*
X22067Y-19238D01*
X22374Y-18875D02*
X22472Y-19168D01*
X22570Y-18875D01*
X22836Y-19168D02*
X22738Y-19029D01*
X22668Y-19168D02*
X22668Y-18875D01*
X22780Y-18875D01*
X22808Y-18889D01*
X22822Y-18903D01*
X22836Y-18931D01*
X22836Y-18973D01*
X22822Y-19001D01*
X22808Y-19015D01*
X22780Y-19029D01*
X22668Y-19029D01*
X22962Y-19015D02*
X23060Y-19015D01*
X23102Y-19168D02*
X22962Y-19168D01*
X22962Y-18875D01*
X23102Y-18875D01*
X23325Y-19015D02*
X23227Y-19015D01*
X23227Y-19168D02*
X23227Y-18875D01*
X23367Y-18875D01*
X23479Y-19056D02*
X23703Y-19056D01*
X24053Y-18861D02*
X23801Y-19238D01*
X24318Y-19168D02*
X24220Y-19029D01*
X24150Y-19168D02*
X24150Y-18875D01*
X24262Y-18875D01*
X24290Y-18889D01*
X24304Y-18903D01*
X24318Y-18931D01*
X24318Y-18973D01*
X24304Y-19001D01*
X24290Y-19015D01*
X24262Y-19029D01*
X24150Y-19029D01*
X24444Y-19168D02*
X24444Y-18875D01*
X24556Y-18875D01*
X24584Y-18889D01*
X24598Y-18903D01*
X24612Y-18931D01*
X24612Y-18973D01*
X24598Y-19001D01*
X24584Y-19015D01*
X24556Y-19029D01*
X24444Y-19029D01*
X24738Y-19168D02*
X24738Y-18875D01*
X24850Y-18875D02*
X25032Y-18875D01*
X24934Y-18987D01*
X24976Y-18987D01*
X25004Y-19001D01*
X25018Y-19015D01*
X25032Y-19043D01*
X25032Y-19112D01*
X25018Y-19140D01*
X25004Y-19154D01*
X24976Y-19168D01*
X24892Y-19168D01*
X24864Y-19154D01*
X24850Y-19140D01*
X25129Y-18875D02*
X25311Y-18875D01*
X25213Y-18987D01*
X25255Y-18987D01*
X25283Y-19001D01*
X25297Y-19015D01*
X25311Y-19043D01*
X25311Y-19112D01*
X25297Y-19140D01*
X25283Y-19154D01*
X25255Y-19168D01*
X25171Y-19168D01*
X25143Y-19154D01*
X25129Y-19140D01*
X25647Y-18861D02*
X25395Y-19238D01*
X25913Y-19168D02*
X25815Y-19029D01*
X25745Y-19168D02*
X25745Y-18875D01*
X25857Y-18875D01*
X25885Y-18889D01*
X25899Y-18903D01*
X25913Y-18931D01*
X25913Y-18973D01*
X25899Y-19001D01*
X25885Y-19015D01*
X25857Y-19029D01*
X25745Y-19029D01*
X26136Y-19015D02*
X26178Y-19029D01*
X26192Y-19043D01*
X26206Y-19070D01*
X26206Y-19112D01*
X26192Y-19140D01*
X26178Y-19154D01*
X26150Y-19168D01*
X26039Y-19168D01*
X26039Y-18875D01*
X26136Y-18875D01*
X26164Y-18889D01*
X26178Y-18903D01*
X26192Y-18931D01*
X26192Y-18959D01*
X26178Y-18987D01*
X26164Y-19001D01*
X26136Y-19015D01*
X26039Y-19015D01*
X26486Y-19168D02*
X26318Y-19168D01*
X26402Y-19168D02*
X26402Y-18875D01*
X26374Y-18917D01*
X26346Y-18945D01*
X26318Y-18959D01*
X21255Y-18084D02*
X21395Y-18084D01*
X21227Y-18168D02*
X21325Y-17875D01*
X21423Y-18168D01*
X21521Y-18168D02*
X21521Y-17875D01*
X21689Y-18168D01*
X21689Y-17875D01*
X21997Y-18140D02*
X21983Y-18154D01*
X21941Y-18168D01*
X21913Y-18168D01*
X21871Y-18154D01*
X21843Y-18126D01*
X21829Y-18098D01*
X21815Y-18043D01*
X21815Y-18001D01*
X21829Y-17945D01*
X21843Y-17917D01*
X21871Y-17889D01*
X21913Y-17875D01*
X21941Y-17875D01*
X21983Y-17889D01*
X21997Y-17903D01*
X22109Y-17903D02*
X22123Y-17889D01*
X22151Y-17875D01*
X22220Y-17875D01*
X22248Y-17889D01*
X22262Y-17903D01*
X22276Y-17931D01*
X22276Y-17959D01*
X22262Y-18001D01*
X22095Y-18168D01*
X22276Y-18168D01*
X21255Y-17084D02*
X21395Y-17084D01*
X21227Y-17168D02*
X21325Y-16875D01*
X21423Y-17168D01*
X21521Y-17168D02*
X21521Y-16875D01*
X21689Y-17168D01*
X21689Y-16875D01*
X21997Y-17140D02*
X21983Y-17154D01*
X21941Y-17168D01*
X21913Y-17168D01*
X21871Y-17154D01*
X21843Y-17126D01*
X21829Y-17098D01*
X21815Y-17043D01*
X21815Y-17001D01*
X21829Y-16945D01*
X21843Y-16917D01*
X21871Y-16889D01*
X21913Y-16875D01*
X21941Y-16875D01*
X21983Y-16889D01*
X21997Y-16903D01*
X22276Y-17168D02*
X22109Y-17168D01*
X22192Y-17168D02*
X22192Y-16875D01*
X22165Y-16917D01*
X22137Y-16945D01*
X22109Y-16959D01*
X21255Y-16084D02*
X21395Y-16084D01*
X21227Y-16168D02*
X21325Y-15875D01*
X21423Y-16168D01*
X21521Y-16168D02*
X21521Y-15875D01*
X21689Y-16168D01*
X21689Y-15875D01*
X21997Y-16140D02*
X21983Y-16154D01*
X21941Y-16168D01*
X21913Y-16168D01*
X21871Y-16154D01*
X21843Y-16126D01*
X21829Y-16098D01*
X21815Y-16043D01*
X21815Y-16001D01*
X21829Y-15945D01*
X21843Y-15917D01*
X21871Y-15889D01*
X21913Y-15875D01*
X21941Y-15875D01*
X21983Y-15889D01*
X21997Y-15903D01*
X22179Y-15875D02*
X22206Y-15875D01*
X22234Y-15889D01*
X22248Y-15903D01*
X22262Y-15931D01*
X22276Y-15987D01*
X22276Y-16056D01*
X22262Y-16112D01*
X22248Y-16140D01*
X22234Y-16154D01*
X22206Y-16168D01*
X22179Y-16168D01*
X22151Y-16154D01*
X22137Y-16140D01*
X22123Y-16112D01*
X22109Y-16056D01*
X22109Y-15987D01*
X22123Y-15931D01*
X22137Y-15903D01*
X22151Y-15889D01*
X22179Y-15875D01*
X21227Y-14875D02*
X21325Y-15168D01*
X21423Y-14875D01*
X21689Y-15140D02*
X21675Y-15154D01*
X21633Y-15168D01*
X21605Y-15168D01*
X21563Y-15154D01*
X21535Y-15126D01*
X21521Y-15098D01*
X21507Y-15043D01*
X21507Y-15001D01*
X21521Y-14945D01*
X21535Y-14917D01*
X21563Y-14889D01*
X21605Y-14875D01*
X21633Y-14875D01*
X21675Y-14889D01*
X21689Y-14903D01*
X21983Y-15140D02*
X21969Y-15154D01*
X21927Y-15168D01*
X21899Y-15168D01*
X21857Y-15154D01*
X21829Y-15126D01*
X21815Y-15098D01*
X21801Y-15043D01*
X21801Y-15001D01*
X21815Y-14945D01*
X21829Y-14917D01*
X21857Y-14889D01*
X21899Y-14875D01*
X21927Y-14875D01*
X21969Y-14889D01*
X21983Y-14903D01*
X21423Y-13889D02*
X21395Y-13875D01*
X21353Y-13875D01*
X21311Y-13889D01*
X21283Y-13917D01*
X21269Y-13945D01*
X21255Y-14001D01*
X21255Y-14043D01*
X21269Y-14098D01*
X21283Y-14126D01*
X21311Y-14154D01*
X21353Y-14168D01*
X21381Y-14168D01*
X21423Y-14154D01*
X21437Y-14140D01*
X21437Y-14043D01*
X21381Y-14043D01*
X21563Y-14168D02*
X21563Y-13875D01*
X21731Y-14168D01*
X21731Y-13875D01*
X21871Y-14168D02*
X21871Y-13875D01*
X21941Y-13875D01*
X21983Y-13889D01*
X22011Y-13917D01*
X22025Y-13945D01*
X22039Y-14001D01*
X22039Y-14043D01*
X22025Y-14098D01*
X22011Y-14126D01*
X21983Y-14154D01*
X21941Y-14168D01*
X21871Y-14168D01*
X21409Y-13218D02*
X21269Y-13218D01*
X21269Y-12925D01*
X21507Y-13065D02*
X21605Y-13065D01*
X21647Y-13218D02*
X21507Y-13218D01*
X21507Y-12925D01*
X21647Y-12925D01*
X21773Y-13218D02*
X21773Y-12925D01*
X21843Y-12925D01*
X21885Y-12939D01*
X21913Y-12967D01*
X21927Y-12995D01*
X21941Y-13051D01*
X21941Y-13093D01*
X21927Y-13148D01*
X21913Y-13176D01*
X21885Y-13204D01*
X21843Y-13218D01*
X21773Y-13218D01*
X22220Y-13218D02*
X22053Y-13218D01*
X22137Y-13218D02*
X22137Y-12925D01*
X22109Y-12967D01*
X22081Y-12995D01*
X22053Y-13009D01*
X21269Y-12218D02*
X21269Y-11925D01*
X21367Y-12134D01*
X21465Y-11925D01*
X21465Y-12218D01*
X21773Y-12190D02*
X21759Y-12204D01*
X21717Y-12218D01*
X21689Y-12218D01*
X21647Y-12204D01*
X21619Y-12176D01*
X21605Y-12148D01*
X21591Y-12093D01*
X21591Y-12051D01*
X21605Y-11995D01*
X21619Y-11967D01*
X21647Y-11939D01*
X21689Y-11925D01*
X21717Y-11925D01*
X21759Y-11939D01*
X21773Y-11953D01*
X22039Y-12218D02*
X21899Y-12218D01*
X21899Y-11925D01*
X22304Y-12218D02*
X22206Y-12079D01*
X22137Y-12218D02*
X22137Y-11925D01*
X22248Y-11925D01*
X22276Y-11939D01*
X22290Y-11953D01*
X22304Y-11981D01*
X22304Y-12023D01*
X22290Y-12051D01*
X22276Y-12065D01*
X22248Y-12079D01*
X22137Y-12079D01*
X21200Y-11835D02*
X22360Y-11835D01*
X21255Y-11154D02*
X21297Y-11168D01*
X21367Y-11168D01*
X21395Y-11154D01*
X21409Y-11140D01*
X21423Y-11112D01*
X21423Y-11084D01*
X21409Y-11056D01*
X21395Y-11043D01*
X21367Y-11029D01*
X21311Y-11015D01*
X21283Y-11001D01*
X21269Y-10987D01*
X21255Y-10959D01*
X21255Y-10931D01*
X21269Y-10903D01*
X21283Y-10889D01*
X21311Y-10875D01*
X21381Y-10875D01*
X21423Y-10889D01*
X21549Y-11168D02*
X21549Y-10875D01*
X21661Y-10875D01*
X21689Y-10889D01*
X21703Y-10903D01*
X21717Y-10931D01*
X21717Y-10973D01*
X21703Y-11001D01*
X21689Y-11015D01*
X21661Y-11029D01*
X21549Y-11029D01*
X21843Y-11168D02*
X21843Y-10875D01*
X21913Y-11196D02*
X22137Y-11196D01*
X22304Y-11015D02*
X22346Y-11029D01*
X22360Y-11043D01*
X22374Y-11070D01*
X22374Y-11112D01*
X22360Y-11140D01*
X22346Y-11154D01*
X22318Y-11168D01*
X22206Y-11168D01*
X22206Y-10875D01*
X22304Y-10875D01*
X22332Y-10889D01*
X22346Y-10903D01*
X22360Y-10931D01*
X22360Y-10959D01*
X22346Y-10987D01*
X22332Y-11001D01*
X22304Y-11015D01*
X22206Y-11015D01*
X22500Y-10875D02*
X22500Y-11112D01*
X22514Y-11140D01*
X22528Y-11154D01*
X22556Y-11168D01*
X22612Y-11168D01*
X22640Y-11154D01*
X22654Y-11140D01*
X22668Y-11112D01*
X22668Y-10875D01*
X22794Y-11154D02*
X22836Y-11168D01*
X22906Y-11168D01*
X22934Y-11154D01*
X22948Y-11140D01*
X22962Y-11112D01*
X22962Y-11084D01*
X22948Y-11056D01*
X22934Y-11043D01*
X22906Y-11029D01*
X22850Y-11015D01*
X22822Y-11001D01*
X22808Y-10987D01*
X22794Y-10959D01*
X22794Y-10931D01*
X22808Y-10903D01*
X22822Y-10889D01*
X22850Y-10875D01*
X22920Y-10875D01*
X22962Y-10889D01*
X23074Y-10903D02*
X23088Y-10889D01*
X23116Y-10875D01*
X23185Y-10875D01*
X23213Y-10889D01*
X23227Y-10903D01*
X23241Y-10931D01*
X23241Y-10959D01*
X23227Y-11001D01*
X23060Y-11168D01*
X23241Y-11168D01*
X21255Y-10154D02*
X21297Y-10168D01*
X21367Y-10168D01*
X21395Y-10154D01*
X21409Y-10140D01*
X21423Y-10112D01*
X21423Y-10084D01*
X21409Y-10056D01*
X21395Y-10043D01*
X21367Y-10029D01*
X21311Y-10015D01*
X21283Y-10001D01*
X21269Y-9987D01*
X21255Y-9959D01*
X21255Y-9931D01*
X21269Y-9903D01*
X21283Y-9889D01*
X21311Y-9875D01*
X21381Y-9875D01*
X21423Y-9889D01*
X21549Y-10168D02*
X21549Y-9875D01*
X21661Y-9875D01*
X21689Y-9889D01*
X21703Y-9903D01*
X21717Y-9931D01*
X21717Y-9973D01*
X21703Y-10001D01*
X21689Y-10015D01*
X21661Y-10029D01*
X21549Y-10029D01*
X21843Y-10168D02*
X21843Y-9875D01*
X21913Y-10196D02*
X22137Y-10196D01*
X22304Y-10015D02*
X22346Y-10029D01*
X22360Y-10043D01*
X22374Y-10070D01*
X22374Y-10112D01*
X22360Y-10140D01*
X22346Y-10154D01*
X22318Y-10168D01*
X22206Y-10168D01*
X22206Y-9875D01*
X22304Y-9875D01*
X22332Y-9889D01*
X22346Y-9903D01*
X22360Y-9931D01*
X22360Y-9959D01*
X22346Y-9987D01*
X22332Y-10001D01*
X22304Y-10015D01*
X22206Y-10015D01*
X22500Y-9875D02*
X22500Y-10112D01*
X22514Y-10140D01*
X22528Y-10154D01*
X22556Y-10168D01*
X22612Y-10168D01*
X22640Y-10154D01*
X22654Y-10140D01*
X22668Y-10112D01*
X22668Y-9875D01*
X22794Y-10154D02*
X22836Y-10168D01*
X22906Y-10168D01*
X22934Y-10154D01*
X22948Y-10140D01*
X22962Y-10112D01*
X22962Y-10084D01*
X22948Y-10056D01*
X22934Y-10043D01*
X22906Y-10029D01*
X22850Y-10015D01*
X22822Y-10001D01*
X22808Y-9987D01*
X22794Y-9959D01*
X22794Y-9931D01*
X22808Y-9903D01*
X22822Y-9889D01*
X22850Y-9875D01*
X22920Y-9875D01*
X22962Y-9889D01*
X23241Y-10168D02*
X23074Y-10168D01*
X23158Y-10168D02*
X23158Y-9875D01*
X23130Y-9917D01*
X23102Y-9945D01*
X23074Y-9959D01*
X21255Y-9154D02*
X21297Y-9168D01*
X21367Y-9168D01*
X21395Y-9154D01*
X21409Y-9140D01*
X21423Y-9112D01*
X21423Y-9084D01*
X21409Y-9056D01*
X21395Y-9043D01*
X21367Y-9029D01*
X21311Y-9015D01*
X21283Y-9001D01*
X21269Y-8987D01*
X21255Y-8959D01*
X21255Y-8931D01*
X21269Y-8903D01*
X21283Y-8889D01*
X21311Y-8875D01*
X21381Y-8875D01*
X21423Y-8889D01*
X21549Y-9168D02*
X21549Y-8875D01*
X21661Y-8875D01*
X21689Y-8889D01*
X21703Y-8903D01*
X21717Y-8931D01*
X21717Y-8973D01*
X21703Y-9001D01*
X21689Y-9015D01*
X21661Y-9029D01*
X21549Y-9029D01*
X21843Y-9168D02*
X21843Y-8875D01*
X21913Y-9196D02*
X22137Y-9196D01*
X22304Y-9015D02*
X22346Y-9029D01*
X22360Y-9043D01*
X22374Y-9070D01*
X22374Y-9112D01*
X22360Y-9140D01*
X22346Y-9154D01*
X22318Y-9168D01*
X22206Y-9168D01*
X22206Y-8875D01*
X22304Y-8875D01*
X22332Y-8889D01*
X22346Y-8903D01*
X22360Y-8931D01*
X22360Y-8959D01*
X22346Y-8987D01*
X22332Y-9001D01*
X22304Y-9015D01*
X22206Y-9015D01*
X22500Y-8875D02*
X22500Y-9112D01*
X22514Y-9140D01*
X22528Y-9154D01*
X22556Y-9168D01*
X22612Y-9168D01*
X22640Y-9154D01*
X22654Y-9140D01*
X22668Y-9112D01*
X22668Y-8875D01*
X22794Y-9154D02*
X22836Y-9168D01*
X22906Y-9168D01*
X22934Y-9154D01*
X22948Y-9140D01*
X22962Y-9112D01*
X22962Y-9084D01*
X22948Y-9056D01*
X22934Y-9043D01*
X22906Y-9029D01*
X22850Y-9015D01*
X22822Y-9001D01*
X22808Y-8987D01*
X22794Y-8959D01*
X22794Y-8931D01*
X22808Y-8903D01*
X22822Y-8889D01*
X22850Y-8875D01*
X22920Y-8875D01*
X22962Y-8889D01*
X23144Y-8875D02*
X23171Y-8875D01*
X23199Y-8889D01*
X23213Y-8903D01*
X23227Y-8931D01*
X23241Y-8987D01*
X23241Y-9056D01*
X23227Y-9112D01*
X23213Y-9140D01*
X23199Y-9154D01*
X23171Y-9168D01*
X23144Y-9168D01*
X23116Y-9154D01*
X23102Y-9140D01*
X23088Y-9112D01*
X23074Y-9056D01*
X23074Y-8987D01*
X23088Y-8931D01*
X23102Y-8903D01*
X23116Y-8889D01*
X23144Y-8875D01*
X29233Y-36875D02*
X29415Y-36875D01*
X29317Y-36987D01*
X29359Y-36987D01*
X29387Y-37001D01*
X29401Y-37015D01*
X29415Y-37043D01*
X29415Y-37112D01*
X29401Y-37140D01*
X29387Y-37154D01*
X29359Y-37168D01*
X29275Y-37168D01*
X29247Y-37154D01*
X29233Y-37140D01*
X29512Y-36875D02*
X29694Y-36875D01*
X29596Y-36987D01*
X29638Y-36987D01*
X29666Y-37001D01*
X29680Y-37015D01*
X29694Y-37043D01*
X29694Y-37112D01*
X29680Y-37140D01*
X29666Y-37154D01*
X29638Y-37168D01*
X29554Y-37168D01*
X29526Y-37154D01*
X29512Y-37140D01*
X29792Y-37280D02*
X29806Y-37266D01*
X29834Y-37224D01*
X29848Y-37196D01*
X29862Y-37154D01*
X29876Y-37084D01*
X29876Y-37029D01*
X29862Y-36959D01*
X29848Y-36917D01*
X29834Y-36889D01*
X29806Y-36847D01*
X29792Y-36833D01*
X30408Y-37168D02*
X30310Y-37029D01*
X30240Y-37168D02*
X30240Y-36875D01*
X30352Y-36875D01*
X30380Y-36889D01*
X30394Y-36903D01*
X30408Y-36931D01*
X30408Y-36973D01*
X30394Y-37001D01*
X30380Y-37015D01*
X30352Y-37029D01*
X30240Y-37029D01*
X30533Y-37168D02*
X30533Y-36875D01*
X30645Y-36875D01*
X30673Y-36889D01*
X30687Y-36903D01*
X30701Y-36931D01*
X30701Y-36973D01*
X30687Y-37001D01*
X30673Y-37015D01*
X30645Y-37029D01*
X30533Y-37029D01*
X30841Y-37168D02*
X30897Y-37168D01*
X30925Y-37154D01*
X30939Y-37140D01*
X30967Y-37098D01*
X30981Y-37043D01*
X30981Y-36931D01*
X30967Y-36903D01*
X30953Y-36889D01*
X30925Y-36875D01*
X30869Y-36875D01*
X30841Y-36889D01*
X30827Y-36903D01*
X30813Y-36931D01*
X30813Y-37001D01*
X30827Y-37029D01*
X30841Y-37043D01*
X30869Y-37056D01*
X30925Y-37056D01*
X30953Y-37043D01*
X30967Y-37029D01*
X30981Y-37001D01*
X31121Y-37168D02*
X31177Y-37168D01*
X31205Y-37154D01*
X31219Y-37140D01*
X31247Y-37098D01*
X31261Y-37043D01*
X31261Y-36931D01*
X31247Y-36903D01*
X31233Y-36889D01*
X31205Y-36875D01*
X31149Y-36875D01*
X31121Y-36889D01*
X31107Y-36903D01*
X31093Y-36931D01*
X31093Y-37001D01*
X31107Y-37029D01*
X31121Y-37043D01*
X31149Y-37056D01*
X31205Y-37056D01*
X31233Y-37043D01*
X31247Y-37029D01*
X31261Y-37001D01*
X31596Y-36861D02*
X31345Y-37238D01*
X31862Y-37168D02*
X31764Y-37029D01*
X31694Y-37168D02*
X31694Y-36875D01*
X31806Y-36875D01*
X31834Y-36889D01*
X31848Y-36903D01*
X31862Y-36931D01*
X31862Y-36973D01*
X31848Y-37001D01*
X31834Y-37015D01*
X31806Y-37029D01*
X31694Y-37029D01*
X32086Y-37015D02*
X31988Y-37015D01*
X31988Y-37168D02*
X31988Y-36875D01*
X32128Y-36875D01*
X32212Y-36875D02*
X32394Y-36875D01*
X32296Y-36987D01*
X32338Y-36987D01*
X32366Y-37001D01*
X32380Y-37015D01*
X32394Y-37043D01*
X32394Y-37112D01*
X32380Y-37140D01*
X32366Y-37154D01*
X32338Y-37168D01*
X32254Y-37168D01*
X32226Y-37154D01*
X32212Y-37140D01*
X31373Y-36015D02*
X31470Y-36015D01*
X31512Y-36168D02*
X31373Y-36168D01*
X31373Y-35875D01*
X31512Y-35875D01*
X31638Y-36168D02*
X31638Y-35875D01*
X31806Y-36168D01*
X31806Y-35875D01*
X32114Y-36140D02*
X32100Y-36154D01*
X32058Y-36168D01*
X32030Y-36168D01*
X31988Y-36154D01*
X31960Y-36126D01*
X31946Y-36098D01*
X31932Y-36043D01*
X31932Y-36001D01*
X31946Y-35945D01*
X31960Y-35917D01*
X31988Y-35889D01*
X32030Y-35875D01*
X32058Y-35875D01*
X32100Y-35889D01*
X32114Y-35903D01*
X32296Y-35875D02*
X32324Y-35875D01*
X32352Y-35889D01*
X32366Y-35903D01*
X32380Y-35931D01*
X32394Y-35987D01*
X32394Y-36056D01*
X32380Y-36112D01*
X32366Y-36140D01*
X32352Y-36154D01*
X32324Y-36168D01*
X32296Y-36168D01*
X32268Y-36154D01*
X32254Y-36140D01*
X32240Y-36112D01*
X32226Y-36056D01*
X32226Y-35987D01*
X32240Y-35931D01*
X32254Y-35903D01*
X32268Y-35889D01*
X32296Y-35875D01*
X31890Y-35118D02*
X31792Y-34979D01*
X31722Y-35118D02*
X31722Y-34825D01*
X31834Y-34825D01*
X31862Y-34839D01*
X31876Y-34853D01*
X31890Y-34881D01*
X31890Y-34923D01*
X31876Y-34951D01*
X31862Y-34965D01*
X31834Y-34979D01*
X31722Y-34979D01*
X31974Y-34825D02*
X32142Y-34825D01*
X32058Y-35118D02*
X32058Y-34825D01*
X32226Y-35104D02*
X32268Y-35118D01*
X32338Y-35118D01*
X32366Y-35104D01*
X32380Y-35090D01*
X32394Y-35062D01*
X32394Y-35034D01*
X32380Y-35006D01*
X32366Y-34993D01*
X32338Y-34979D01*
X32282Y-34965D01*
X32254Y-34951D01*
X32240Y-34937D01*
X32226Y-34909D01*
X32226Y-34881D01*
X32240Y-34853D01*
X32254Y-34839D01*
X32282Y-34825D01*
X32352Y-34825D01*
X32394Y-34839D01*
X31373Y-34015D02*
X31470Y-34015D01*
X31512Y-34168D02*
X31373Y-34168D01*
X31373Y-33875D01*
X31512Y-33875D01*
X31638Y-34168D02*
X31638Y-33875D01*
X31806Y-34168D01*
X31806Y-33875D01*
X32114Y-34140D02*
X32100Y-34154D01*
X32058Y-34168D01*
X32030Y-34168D01*
X31988Y-34154D01*
X31960Y-34126D01*
X31946Y-34098D01*
X31932Y-34043D01*
X31932Y-34001D01*
X31946Y-33945D01*
X31960Y-33917D01*
X31988Y-33889D01*
X32030Y-33875D01*
X32058Y-33875D01*
X32100Y-33889D01*
X32114Y-33903D01*
X32394Y-34168D02*
X32226Y-34168D01*
X32310Y-34168D02*
X32310Y-33875D01*
X32282Y-33917D01*
X32254Y-33945D01*
X32226Y-33959D01*
X31373Y-33015D02*
X31470Y-33015D01*
X31512Y-33168D02*
X31373Y-33168D01*
X31373Y-32875D01*
X31512Y-32875D01*
X31638Y-33168D02*
X31638Y-32875D01*
X31806Y-33168D01*
X31806Y-32875D01*
X32114Y-33140D02*
X32100Y-33154D01*
X32058Y-33168D01*
X32030Y-33168D01*
X31988Y-33154D01*
X31960Y-33126D01*
X31946Y-33098D01*
X31932Y-33043D01*
X31932Y-33001D01*
X31946Y-32945D01*
X31960Y-32917D01*
X31988Y-32889D01*
X32030Y-32875D01*
X32058Y-32875D01*
X32100Y-32889D01*
X32114Y-32903D01*
X32226Y-32903D02*
X32240Y-32889D01*
X32268Y-32875D01*
X32338Y-32875D01*
X32366Y-32889D01*
X32380Y-32903D01*
X32394Y-32931D01*
X32394Y-32959D01*
X32380Y-33001D01*
X32212Y-33168D01*
X32394Y-33168D01*
X31638Y-31875D02*
X31736Y-32168D01*
X31834Y-31875D01*
X32100Y-32140D02*
X32086Y-32154D01*
X32044Y-32168D01*
X32016Y-32168D01*
X31974Y-32154D01*
X31946Y-32126D01*
X31932Y-32098D01*
X31918Y-32043D01*
X31918Y-32001D01*
X31932Y-31945D01*
X31946Y-31917D01*
X31974Y-31889D01*
X32016Y-31875D01*
X32044Y-31875D01*
X32086Y-31889D01*
X32100Y-31903D01*
X32394Y-32140D02*
X32380Y-32154D01*
X32338Y-32168D01*
X32310Y-32168D01*
X32268Y-32154D01*
X32240Y-32126D01*
X32226Y-32098D01*
X32212Y-32043D01*
X32212Y-32001D01*
X32226Y-31945D01*
X32240Y-31917D01*
X32268Y-31889D01*
X32310Y-31875D01*
X32338Y-31875D01*
X32380Y-31889D01*
X32394Y-31903D01*
X31415Y-30875D02*
X31470Y-30875D01*
X31498Y-30889D01*
X31526Y-30917D01*
X31540Y-30973D01*
X31540Y-31070D01*
X31526Y-31126D01*
X31498Y-31154D01*
X31470Y-31168D01*
X31415Y-31168D01*
X31387Y-31154D01*
X31359Y-31126D01*
X31345Y-31070D01*
X31345Y-30973D01*
X31359Y-30917D01*
X31387Y-30889D01*
X31415Y-30875D01*
X31652Y-31154D02*
X31694Y-31168D01*
X31764Y-31168D01*
X31792Y-31154D01*
X31806Y-31140D01*
X31820Y-31112D01*
X31820Y-31084D01*
X31806Y-31056D01*
X31792Y-31043D01*
X31764Y-31029D01*
X31708Y-31015D01*
X31680Y-31001D01*
X31666Y-30987D01*
X31652Y-30959D01*
X31652Y-30931D01*
X31666Y-30903D01*
X31680Y-30889D01*
X31708Y-30875D01*
X31778Y-30875D01*
X31820Y-30889D01*
X32114Y-31140D02*
X32100Y-31154D01*
X32058Y-31168D01*
X32030Y-31168D01*
X31988Y-31154D01*
X31960Y-31126D01*
X31946Y-31098D01*
X31932Y-31043D01*
X31932Y-31001D01*
X31946Y-30945D01*
X31960Y-30917D01*
X31988Y-30889D01*
X32030Y-30875D01*
X32058Y-30875D01*
X32100Y-30889D01*
X32114Y-30903D01*
X32394Y-31168D02*
X32226Y-31168D01*
X32310Y-31168D02*
X32310Y-30875D01*
X32282Y-30917D01*
X32254Y-30945D01*
X32226Y-30959D01*
X31415Y-29875D02*
X31470Y-29875D01*
X31498Y-29889D01*
X31526Y-29917D01*
X31540Y-29973D01*
X31540Y-30070D01*
X31526Y-30126D01*
X31498Y-30154D01*
X31470Y-30168D01*
X31415Y-30168D01*
X31387Y-30154D01*
X31359Y-30126D01*
X31345Y-30070D01*
X31345Y-29973D01*
X31359Y-29917D01*
X31387Y-29889D01*
X31415Y-29875D01*
X31652Y-30154D02*
X31694Y-30168D01*
X31764Y-30168D01*
X31792Y-30154D01*
X31806Y-30140D01*
X31820Y-30112D01*
X31820Y-30084D01*
X31806Y-30056D01*
X31792Y-30043D01*
X31764Y-30029D01*
X31708Y-30015D01*
X31680Y-30001D01*
X31666Y-29987D01*
X31652Y-29959D01*
X31652Y-29931D01*
X31666Y-29903D01*
X31680Y-29889D01*
X31708Y-29875D01*
X31778Y-29875D01*
X31820Y-29889D01*
X32114Y-30140D02*
X32100Y-30154D01*
X32058Y-30168D01*
X32030Y-30168D01*
X31988Y-30154D01*
X31960Y-30126D01*
X31946Y-30098D01*
X31932Y-30043D01*
X31932Y-30001D01*
X31946Y-29945D01*
X31960Y-29917D01*
X31988Y-29889D01*
X32030Y-29875D01*
X32058Y-29875D01*
X32100Y-29889D01*
X32114Y-29903D01*
X32226Y-29903D02*
X32240Y-29889D01*
X32268Y-29875D01*
X32338Y-29875D01*
X32366Y-29889D01*
X32380Y-29903D01*
X32394Y-29931D01*
X32394Y-29959D01*
X32380Y-30001D01*
X32212Y-30168D01*
X32394Y-30168D01*
X31778Y-28839D02*
X31750Y-28825D01*
X31708Y-28825D01*
X31666Y-28839D01*
X31638Y-28867D01*
X31624Y-28895D01*
X31610Y-28951D01*
X31610Y-28993D01*
X31624Y-29048D01*
X31638Y-29076D01*
X31666Y-29104D01*
X31708Y-29118D01*
X31736Y-29118D01*
X31778Y-29104D01*
X31792Y-29090D01*
X31792Y-28993D01*
X31736Y-28993D01*
X31918Y-29118D02*
X31918Y-28825D01*
X32086Y-29118D01*
X32086Y-28825D01*
X32226Y-29118D02*
X32226Y-28825D01*
X32296Y-28825D01*
X32338Y-28839D01*
X32366Y-28867D01*
X32380Y-28895D01*
X32394Y-28951D01*
X32394Y-28993D01*
X32380Y-29048D01*
X32366Y-29076D01*
X32338Y-29104D01*
X32296Y-29118D01*
X32226Y-29118D01*
X31247Y-27839D02*
X31219Y-27825D01*
X31177Y-27825D01*
X31135Y-27839D01*
X31107Y-27867D01*
X31093Y-27895D01*
X31079Y-27951D01*
X31079Y-27993D01*
X31093Y-28048D01*
X31107Y-28076D01*
X31135Y-28104D01*
X31177Y-28118D01*
X31205Y-28118D01*
X31247Y-28104D01*
X31261Y-28090D01*
X31261Y-27993D01*
X31205Y-27993D01*
X31443Y-27979D02*
X31443Y-28118D01*
X31345Y-27825D02*
X31443Y-27979D01*
X31540Y-27825D01*
X31806Y-28118D02*
X31708Y-27979D01*
X31638Y-28118D02*
X31638Y-27825D01*
X31750Y-27825D01*
X31778Y-27839D01*
X31792Y-27853D01*
X31806Y-27881D01*
X31806Y-27923D01*
X31792Y-27951D01*
X31778Y-27965D01*
X31750Y-27979D01*
X31638Y-27979D01*
X31988Y-27825D02*
X32044Y-27825D01*
X32072Y-27839D01*
X32100Y-27867D01*
X32114Y-27923D01*
X32114Y-28020D01*
X32100Y-28076D01*
X32072Y-28104D01*
X32044Y-28118D01*
X31988Y-28118D01*
X31960Y-28104D01*
X31932Y-28076D01*
X31918Y-28020D01*
X31918Y-27923D01*
X31932Y-27867D01*
X31960Y-27839D01*
X31988Y-27825D01*
X32296Y-27825D02*
X32324Y-27825D01*
X32352Y-27839D01*
X32366Y-27853D01*
X32380Y-27881D01*
X32394Y-27937D01*
X32394Y-28006D01*
X32380Y-28062D01*
X32366Y-28090D01*
X32352Y-28104D01*
X32324Y-28118D01*
X32296Y-28118D01*
X32268Y-28104D01*
X32254Y-28090D01*
X32240Y-28062D01*
X32226Y-28006D01*
X32226Y-27937D01*
X32240Y-27881D01*
X32254Y-27853D01*
X32268Y-27839D01*
X32296Y-27825D01*
X31247Y-26889D02*
X31219Y-26875D01*
X31177Y-26875D01*
X31135Y-26889D01*
X31107Y-26917D01*
X31093Y-26945D01*
X31079Y-27001D01*
X31079Y-27043D01*
X31093Y-27098D01*
X31107Y-27126D01*
X31135Y-27154D01*
X31177Y-27168D01*
X31205Y-27168D01*
X31247Y-27154D01*
X31261Y-27140D01*
X31261Y-27043D01*
X31205Y-27043D01*
X31443Y-27029D02*
X31443Y-27168D01*
X31345Y-26875D02*
X31443Y-27029D01*
X31540Y-26875D01*
X31806Y-27168D02*
X31708Y-27029D01*
X31638Y-27168D02*
X31638Y-26875D01*
X31750Y-26875D01*
X31778Y-26889D01*
X31792Y-26903D01*
X31806Y-26931D01*
X31806Y-26973D01*
X31792Y-27001D01*
X31778Y-27015D01*
X31750Y-27029D01*
X31638Y-27029D01*
X31988Y-26875D02*
X32044Y-26875D01*
X32072Y-26889D01*
X32100Y-26917D01*
X32114Y-26973D01*
X32114Y-27070D01*
X32100Y-27126D01*
X32072Y-27154D01*
X32044Y-27168D01*
X31988Y-27168D01*
X31960Y-27154D01*
X31932Y-27126D01*
X31918Y-27070D01*
X31918Y-26973D01*
X31932Y-26917D01*
X31960Y-26889D01*
X31988Y-26875D01*
X32394Y-27168D02*
X32226Y-27168D01*
X32310Y-27168D02*
X32310Y-26875D01*
X32282Y-26917D01*
X32254Y-26945D01*
X32226Y-26959D01*
X31247Y-25889D02*
X31219Y-25875D01*
X31177Y-25875D01*
X31135Y-25889D01*
X31107Y-25917D01*
X31093Y-25945D01*
X31079Y-26001D01*
X31079Y-26043D01*
X31093Y-26098D01*
X31107Y-26126D01*
X31135Y-26154D01*
X31177Y-26168D01*
X31205Y-26168D01*
X31247Y-26154D01*
X31261Y-26140D01*
X31261Y-26043D01*
X31205Y-26043D01*
X31443Y-26029D02*
X31443Y-26168D01*
X31345Y-25875D02*
X31443Y-26029D01*
X31540Y-25875D01*
X31806Y-26168D02*
X31708Y-26029D01*
X31638Y-26168D02*
X31638Y-25875D01*
X31750Y-25875D01*
X31778Y-25889D01*
X31792Y-25903D01*
X31806Y-25931D01*
X31806Y-25973D01*
X31792Y-26001D01*
X31778Y-26015D01*
X31750Y-26029D01*
X31638Y-26029D01*
X31988Y-25875D02*
X32044Y-25875D01*
X32072Y-25889D01*
X32100Y-25917D01*
X32114Y-25973D01*
X32114Y-26070D01*
X32100Y-26126D01*
X32072Y-26154D01*
X32044Y-26168D01*
X31988Y-26168D01*
X31960Y-26154D01*
X31932Y-26126D01*
X31918Y-26070D01*
X31918Y-25973D01*
X31932Y-25917D01*
X31960Y-25889D01*
X31988Y-25875D01*
X32226Y-25903D02*
X32240Y-25889D01*
X32268Y-25875D01*
X32338Y-25875D01*
X32366Y-25889D01*
X32380Y-25903D01*
X32394Y-25931D01*
X32394Y-25959D01*
X32380Y-26001D01*
X32212Y-26168D01*
X32394Y-26168D01*
X30883Y-25084D02*
X31023Y-25084D01*
X30855Y-25168D02*
X30953Y-24875D01*
X31051Y-25168D01*
X31317Y-25140D02*
X31303Y-25154D01*
X31261Y-25168D01*
X31233Y-25168D01*
X31191Y-25154D01*
X31163Y-25126D01*
X31149Y-25098D01*
X31135Y-25043D01*
X31135Y-25001D01*
X31149Y-24945D01*
X31163Y-24917D01*
X31191Y-24889D01*
X31233Y-24875D01*
X31261Y-24875D01*
X31303Y-24889D01*
X31317Y-24903D01*
X31610Y-25140D02*
X31596Y-25154D01*
X31554Y-25168D01*
X31526Y-25168D01*
X31484Y-25154D01*
X31457Y-25126D01*
X31443Y-25098D01*
X31429Y-25043D01*
X31429Y-25001D01*
X31443Y-24945D01*
X31457Y-24917D01*
X31484Y-24889D01*
X31526Y-24875D01*
X31554Y-24875D01*
X31596Y-24889D01*
X31610Y-24903D01*
X31736Y-25015D02*
X31834Y-25015D01*
X31876Y-25168D02*
X31736Y-25168D01*
X31736Y-24875D01*
X31876Y-24875D01*
X32142Y-25168D02*
X32002Y-25168D01*
X32002Y-24875D01*
X32296Y-24875D02*
X32324Y-24875D01*
X32352Y-24889D01*
X32366Y-24903D01*
X32380Y-24931D01*
X32394Y-24987D01*
X32394Y-25056D01*
X32380Y-25112D01*
X32366Y-25140D01*
X32352Y-25154D01*
X32324Y-25168D01*
X32296Y-25168D01*
X32268Y-25154D01*
X32254Y-25140D01*
X32240Y-25112D01*
X32226Y-25056D01*
X32226Y-24987D01*
X32240Y-24931D01*
X32254Y-24903D01*
X32268Y-24889D01*
X32296Y-24875D01*
X31890Y-24140D02*
X31876Y-24154D01*
X31834Y-24168D01*
X31806Y-24168D01*
X31764Y-24154D01*
X31736Y-24126D01*
X31722Y-24098D01*
X31708Y-24043D01*
X31708Y-24001D01*
X31722Y-23945D01*
X31736Y-23917D01*
X31764Y-23889D01*
X31806Y-23875D01*
X31834Y-23875D01*
X31876Y-23889D01*
X31890Y-23903D01*
X31974Y-23875D02*
X32142Y-23875D01*
X32058Y-24168D02*
X32058Y-23875D01*
X32226Y-24154D02*
X32268Y-24168D01*
X32338Y-24168D01*
X32366Y-24154D01*
X32380Y-24140D01*
X32394Y-24112D01*
X32394Y-24084D01*
X32380Y-24056D01*
X32366Y-24043D01*
X32338Y-24029D01*
X32282Y-24015D01*
X32254Y-24001D01*
X32240Y-23987D01*
X32226Y-23959D01*
X32226Y-23931D01*
X32240Y-23903D01*
X32254Y-23889D01*
X32282Y-23875D01*
X32352Y-23875D01*
X32394Y-23889D01*
X30983Y-22734D02*
X31123Y-22734D01*
X30955Y-22818D02*
X31053Y-22525D01*
X31151Y-22818D01*
X31417Y-22790D02*
X31403Y-22804D01*
X31361Y-22818D01*
X31333Y-22818D01*
X31291Y-22804D01*
X31263Y-22776D01*
X31249Y-22748D01*
X31235Y-22693D01*
X31235Y-22651D01*
X31249Y-22595D01*
X31263Y-22567D01*
X31291Y-22539D01*
X31333Y-22525D01*
X31361Y-22525D01*
X31403Y-22539D01*
X31417Y-22553D01*
X31710Y-22790D02*
X31696Y-22804D01*
X31654Y-22818D01*
X31626Y-22818D01*
X31584Y-22804D01*
X31557Y-22776D01*
X31543Y-22748D01*
X31529Y-22693D01*
X31529Y-22651D01*
X31543Y-22595D01*
X31557Y-22567D01*
X31584Y-22539D01*
X31626Y-22525D01*
X31654Y-22525D01*
X31696Y-22539D01*
X31710Y-22553D01*
X31836Y-22665D02*
X31934Y-22665D01*
X31976Y-22818D02*
X31836Y-22818D01*
X31836Y-22525D01*
X31976Y-22525D01*
X32242Y-22818D02*
X32102Y-22818D01*
X32102Y-22525D01*
X32494Y-22818D02*
X32326Y-22818D01*
X32410Y-22818D02*
X32410Y-22525D01*
X32382Y-22567D01*
X32354Y-22595D01*
X32326Y-22609D01*
X30044Y-21973D02*
X30044Y-22168D01*
X29974Y-21861D02*
X29904Y-22070D01*
X30086Y-22070D01*
X30240Y-22001D02*
X30212Y-21987D01*
X30198Y-21973D01*
X30184Y-21945D01*
X30184Y-21931D01*
X30198Y-21903D01*
X30212Y-21889D01*
X30240Y-21875D01*
X30296Y-21875D01*
X30324Y-21889D01*
X30338Y-21903D01*
X30352Y-21931D01*
X30352Y-21945D01*
X30338Y-21973D01*
X30324Y-21987D01*
X30296Y-22001D01*
X30240Y-22001D01*
X30212Y-22015D01*
X30198Y-22029D01*
X30184Y-22056D01*
X30184Y-22112D01*
X30198Y-22140D01*
X30212Y-22154D01*
X30240Y-22168D01*
X30296Y-22168D01*
X30324Y-22154D01*
X30338Y-22140D01*
X30352Y-22112D01*
X30352Y-22056D01*
X30338Y-22029D01*
X30324Y-22015D01*
X30296Y-22001D01*
X30450Y-22280D02*
X30464Y-22266D01*
X30491Y-22224D01*
X30505Y-22196D01*
X30519Y-22154D01*
X30533Y-22084D01*
X30533Y-22029D01*
X30519Y-21959D01*
X30505Y-21917D01*
X30491Y-21889D01*
X30464Y-21847D01*
X30450Y-21833D01*
X30883Y-22084D02*
X31023Y-22084D01*
X30855Y-22168D02*
X30953Y-21875D01*
X31051Y-22168D01*
X31317Y-22140D02*
X31303Y-22154D01*
X31261Y-22168D01*
X31233Y-22168D01*
X31191Y-22154D01*
X31163Y-22126D01*
X31149Y-22098D01*
X31135Y-22043D01*
X31135Y-22001D01*
X31149Y-21945D01*
X31163Y-21917D01*
X31191Y-21889D01*
X31233Y-21875D01*
X31261Y-21875D01*
X31303Y-21889D01*
X31317Y-21903D01*
X31610Y-22140D02*
X31596Y-22154D01*
X31554Y-22168D01*
X31526Y-22168D01*
X31484Y-22154D01*
X31457Y-22126D01*
X31443Y-22098D01*
X31429Y-22043D01*
X31429Y-22001D01*
X31443Y-21945D01*
X31457Y-21917D01*
X31484Y-21889D01*
X31526Y-21875D01*
X31554Y-21875D01*
X31596Y-21889D01*
X31610Y-21903D01*
X31736Y-22015D02*
X31834Y-22015D01*
X31876Y-22168D02*
X31736Y-22168D01*
X31736Y-21875D01*
X31876Y-21875D01*
X32142Y-22168D02*
X32002Y-22168D01*
X32002Y-21875D01*
X32226Y-21903D02*
X32240Y-21889D01*
X32268Y-21875D01*
X32338Y-21875D01*
X32366Y-21889D01*
X32380Y-21903D01*
X32394Y-21931D01*
X32394Y-21959D01*
X32380Y-22001D01*
X32212Y-22168D01*
X32394Y-22168D01*
X30366Y-21118D02*
X30268Y-20979D01*
X30198Y-21118D02*
X30198Y-20825D01*
X30310Y-20825D01*
X30338Y-20839D01*
X30352Y-20853D01*
X30366Y-20881D01*
X30366Y-20923D01*
X30352Y-20951D01*
X30338Y-20965D01*
X30310Y-20979D01*
X30198Y-20979D01*
X30491Y-21118D02*
X30491Y-20825D01*
X30603Y-20825D01*
X30631Y-20839D01*
X30645Y-20853D01*
X30659Y-20881D01*
X30659Y-20923D01*
X30645Y-20951D01*
X30631Y-20965D01*
X30603Y-20979D01*
X30491Y-20979D01*
X30911Y-20825D02*
X30855Y-20825D01*
X30827Y-20839D01*
X30813Y-20853D01*
X30785Y-20895D01*
X30771Y-20951D01*
X30771Y-21062D01*
X30785Y-21090D01*
X30799Y-21104D01*
X30827Y-21118D01*
X30883Y-21118D01*
X30911Y-21104D01*
X30925Y-21090D01*
X30939Y-21062D01*
X30939Y-20993D01*
X30925Y-20965D01*
X30911Y-20951D01*
X30883Y-20937D01*
X30827Y-20937D01*
X30799Y-20951D01*
X30785Y-20965D01*
X30771Y-20993D01*
X31205Y-20825D02*
X31065Y-20825D01*
X31051Y-20965D01*
X31065Y-20951D01*
X31093Y-20937D01*
X31163Y-20937D01*
X31191Y-20951D01*
X31205Y-20965D01*
X31219Y-20993D01*
X31219Y-21062D01*
X31205Y-21090D01*
X31191Y-21104D01*
X31163Y-21118D01*
X31093Y-21118D01*
X31065Y-21104D01*
X31051Y-21090D01*
X31554Y-20811D02*
X31303Y-21188D01*
X31820Y-21118D02*
X31722Y-20979D01*
X31652Y-21118D02*
X31652Y-20825D01*
X31764Y-20825D01*
X31792Y-20839D01*
X31806Y-20853D01*
X31820Y-20881D01*
X31820Y-20923D01*
X31806Y-20951D01*
X31792Y-20965D01*
X31764Y-20979D01*
X31652Y-20979D01*
X31946Y-21118D02*
X31946Y-20825D01*
X32016Y-20825D01*
X32058Y-20839D01*
X32086Y-20867D01*
X32100Y-20895D01*
X32114Y-20951D01*
X32114Y-20993D01*
X32100Y-21048D01*
X32086Y-21076D01*
X32058Y-21104D01*
X32016Y-21118D01*
X31946Y-21118D01*
X32394Y-21118D02*
X32226Y-21118D01*
X32310Y-21118D02*
X32310Y-20825D01*
X32282Y-20867D01*
X32254Y-20895D01*
X32226Y-20909D01*
X30312Y-20015D02*
X30410Y-20015D01*
X30452Y-20168D02*
X30312Y-20168D01*
X30312Y-19875D01*
X30452Y-19875D01*
X30578Y-20168D02*
X30578Y-19875D01*
X30745Y-20168D01*
X30745Y-19875D01*
X31053Y-20140D02*
X31039Y-20154D01*
X30997Y-20168D01*
X30969Y-20168D01*
X30927Y-20154D01*
X30899Y-20126D01*
X30885Y-20098D01*
X30871Y-20043D01*
X30871Y-20001D01*
X30885Y-19945D01*
X30899Y-19917D01*
X30927Y-19889D01*
X30969Y-19875D01*
X30997Y-19875D01*
X31039Y-19889D01*
X31053Y-19903D01*
X31235Y-19875D02*
X31291Y-19875D01*
X31319Y-19889D01*
X31347Y-19917D01*
X31361Y-19973D01*
X31361Y-20070D01*
X31347Y-20126D01*
X31319Y-20154D01*
X31291Y-20168D01*
X31235Y-20168D01*
X31207Y-20154D01*
X31179Y-20126D01*
X31165Y-20070D01*
X31165Y-19973D01*
X31179Y-19917D01*
X31207Y-19889D01*
X31235Y-19875D01*
X31487Y-20168D02*
X31487Y-19875D01*
X31557Y-19875D01*
X31598Y-19889D01*
X31626Y-19917D01*
X31640Y-19945D01*
X31654Y-20001D01*
X31654Y-20043D01*
X31640Y-20098D01*
X31626Y-20126D01*
X31598Y-20154D01*
X31557Y-20168D01*
X31487Y-20168D01*
X31780Y-20015D02*
X31878Y-20015D01*
X31920Y-20168D02*
X31780Y-20168D01*
X31780Y-19875D01*
X31920Y-19875D01*
X32214Y-20168D02*
X32116Y-20029D01*
X32046Y-20168D02*
X32046Y-19875D01*
X32158Y-19875D01*
X32186Y-19889D01*
X32200Y-19903D01*
X32214Y-19931D01*
X32214Y-19973D01*
X32200Y-20001D01*
X32186Y-20015D01*
X32158Y-20029D01*
X32046Y-20029D01*
X32494Y-20168D02*
X32326Y-20168D01*
X32410Y-20168D02*
X32410Y-19875D01*
X32382Y-19917D01*
X32354Y-19945D01*
X32326Y-19959D01*
X30212Y-19065D02*
X30310Y-19065D01*
X30352Y-19218D02*
X30212Y-19218D01*
X30212Y-18925D01*
X30352Y-18925D01*
X30478Y-19218D02*
X30478Y-18925D01*
X30645Y-19218D01*
X30645Y-18925D01*
X30953Y-19190D02*
X30939Y-19204D01*
X30897Y-19218D01*
X30869Y-19218D01*
X30827Y-19204D01*
X30799Y-19176D01*
X30785Y-19148D01*
X30771Y-19093D01*
X30771Y-19051D01*
X30785Y-18995D01*
X30799Y-18967D01*
X30827Y-18939D01*
X30869Y-18925D01*
X30897Y-18925D01*
X30939Y-18939D01*
X30953Y-18953D01*
X31135Y-18925D02*
X31191Y-18925D01*
X31219Y-18939D01*
X31247Y-18967D01*
X31261Y-19023D01*
X31261Y-19120D01*
X31247Y-19176D01*
X31219Y-19204D01*
X31191Y-19218D01*
X31135Y-19218D01*
X31107Y-19204D01*
X31079Y-19176D01*
X31065Y-19120D01*
X31065Y-19023D01*
X31079Y-18967D01*
X31107Y-18939D01*
X31135Y-18925D01*
X31387Y-19218D02*
X31387Y-18925D01*
X31457Y-18925D01*
X31498Y-18939D01*
X31526Y-18967D01*
X31540Y-18995D01*
X31554Y-19051D01*
X31554Y-19093D01*
X31540Y-19148D01*
X31526Y-19176D01*
X31498Y-19204D01*
X31457Y-19218D01*
X31387Y-19218D01*
X31680Y-19065D02*
X31778Y-19065D01*
X31820Y-19218D02*
X31680Y-19218D01*
X31680Y-18925D01*
X31820Y-18925D01*
X32114Y-19218D02*
X32016Y-19079D01*
X31946Y-19218D02*
X31946Y-18925D01*
X32058Y-18925D01*
X32086Y-18939D01*
X32100Y-18953D01*
X32114Y-18981D01*
X32114Y-19023D01*
X32100Y-19051D01*
X32086Y-19065D01*
X32058Y-19079D01*
X31946Y-19079D01*
X32226Y-18953D02*
X32240Y-18939D01*
X32268Y-18925D01*
X32338Y-18925D01*
X32366Y-18939D01*
X32380Y-18953D01*
X32394Y-18981D01*
X32394Y-19009D01*
X32380Y-19051D01*
X32212Y-19218D01*
X32394Y-19218D01*
X30212Y-18015D02*
X30310Y-18015D01*
X30352Y-18168D02*
X30212Y-18168D01*
X30212Y-17875D01*
X30352Y-17875D01*
X30478Y-18168D02*
X30478Y-17875D01*
X30645Y-18168D01*
X30645Y-17875D01*
X30953Y-18140D02*
X30939Y-18154D01*
X30897Y-18168D01*
X30869Y-18168D01*
X30827Y-18154D01*
X30799Y-18126D01*
X30785Y-18098D01*
X30771Y-18043D01*
X30771Y-18001D01*
X30785Y-17945D01*
X30799Y-17917D01*
X30827Y-17889D01*
X30869Y-17875D01*
X30897Y-17875D01*
X30939Y-17889D01*
X30953Y-17903D01*
X31135Y-17875D02*
X31191Y-17875D01*
X31219Y-17889D01*
X31247Y-17917D01*
X31261Y-17973D01*
X31261Y-18070D01*
X31247Y-18126D01*
X31219Y-18154D01*
X31191Y-18168D01*
X31135Y-18168D01*
X31107Y-18154D01*
X31079Y-18126D01*
X31065Y-18070D01*
X31065Y-17973D01*
X31079Y-17917D01*
X31107Y-17889D01*
X31135Y-17875D01*
X31387Y-18168D02*
X31387Y-17875D01*
X31457Y-17875D01*
X31498Y-17889D01*
X31526Y-17917D01*
X31540Y-17945D01*
X31554Y-18001D01*
X31554Y-18043D01*
X31540Y-18098D01*
X31526Y-18126D01*
X31498Y-18154D01*
X31457Y-18168D01*
X31387Y-18168D01*
X31680Y-18015D02*
X31778Y-18015D01*
X31820Y-18168D02*
X31680Y-18168D01*
X31680Y-17875D01*
X31820Y-17875D01*
X32114Y-18168D02*
X32016Y-18029D01*
X31946Y-18168D02*
X31946Y-17875D01*
X32058Y-17875D01*
X32086Y-17889D01*
X32100Y-17903D01*
X32114Y-17931D01*
X32114Y-17973D01*
X32100Y-18001D01*
X32086Y-18015D01*
X32058Y-18029D01*
X31946Y-18029D01*
X32212Y-17875D02*
X32394Y-17875D01*
X32296Y-17987D01*
X32338Y-17987D01*
X32366Y-18001D01*
X32380Y-18015D01*
X32394Y-18043D01*
X32394Y-18112D01*
X32380Y-18140D01*
X32366Y-18154D01*
X32338Y-18168D01*
X32254Y-18168D01*
X32226Y-18154D01*
X32212Y-18140D01*
X30212Y-17015D02*
X30310Y-17015D01*
X30352Y-17168D02*
X30212Y-17168D01*
X30212Y-16875D01*
X30352Y-16875D01*
X30478Y-17168D02*
X30478Y-16875D01*
X30645Y-17168D01*
X30645Y-16875D01*
X30953Y-17140D02*
X30939Y-17154D01*
X30897Y-17168D01*
X30869Y-17168D01*
X30827Y-17154D01*
X30799Y-17126D01*
X30785Y-17098D01*
X30771Y-17043D01*
X30771Y-17001D01*
X30785Y-16945D01*
X30799Y-16917D01*
X30827Y-16889D01*
X30869Y-16875D01*
X30897Y-16875D01*
X30939Y-16889D01*
X30953Y-16903D01*
X31135Y-16875D02*
X31191Y-16875D01*
X31219Y-16889D01*
X31247Y-16917D01*
X31261Y-16973D01*
X31261Y-17070D01*
X31247Y-17126D01*
X31219Y-17154D01*
X31191Y-17168D01*
X31135Y-17168D01*
X31107Y-17154D01*
X31079Y-17126D01*
X31065Y-17070D01*
X31065Y-16973D01*
X31079Y-16917D01*
X31107Y-16889D01*
X31135Y-16875D01*
X31387Y-17168D02*
X31387Y-16875D01*
X31457Y-16875D01*
X31498Y-16889D01*
X31526Y-16917D01*
X31540Y-16945D01*
X31554Y-17001D01*
X31554Y-17043D01*
X31540Y-17098D01*
X31526Y-17126D01*
X31498Y-17154D01*
X31457Y-17168D01*
X31387Y-17168D01*
X31680Y-17015D02*
X31778Y-17015D01*
X31820Y-17168D02*
X31680Y-17168D01*
X31680Y-16875D01*
X31820Y-16875D01*
X32114Y-17168D02*
X32016Y-17029D01*
X31946Y-17168D02*
X31946Y-16875D01*
X32058Y-16875D01*
X32086Y-16889D01*
X32100Y-16903D01*
X32114Y-16931D01*
X32114Y-16973D01*
X32100Y-17001D01*
X32086Y-17015D01*
X32058Y-17029D01*
X31946Y-17029D01*
X32366Y-16973D02*
X32366Y-17168D01*
X32296Y-16861D02*
X32226Y-17070D01*
X32408Y-17070D01*
X31169Y-15875D02*
X31029Y-15875D01*
X31015Y-16015D01*
X31029Y-16001D01*
X31057Y-15987D01*
X31127Y-15987D01*
X31155Y-16001D01*
X31169Y-16015D01*
X31183Y-16043D01*
X31183Y-16112D01*
X31169Y-16140D01*
X31155Y-16154D01*
X31127Y-16168D01*
X31057Y-16168D01*
X31029Y-16154D01*
X31015Y-16140D01*
X31434Y-15973D02*
X31434Y-16168D01*
X31365Y-15861D02*
X31295Y-16070D01*
X31476Y-16070D01*
X31560Y-16280D02*
X31574Y-16266D01*
X31602Y-16224D01*
X31616Y-16196D01*
X31630Y-16154D01*
X31644Y-16084D01*
X31644Y-16029D01*
X31630Y-15959D01*
X31616Y-15917D01*
X31602Y-15889D01*
X31574Y-15847D01*
X31560Y-15833D01*
X31966Y-15875D02*
X32134Y-15875D01*
X32050Y-16168D02*
X32050Y-15875D01*
X32204Y-16168D02*
X32358Y-15973D01*
X32204Y-15973D02*
X32358Y-16168D01*
X32106Y-15168D02*
X32008Y-15029D01*
X31938Y-15168D02*
X31938Y-14875D01*
X32050Y-14875D01*
X32078Y-14889D01*
X32092Y-14903D01*
X32106Y-14931D01*
X32106Y-14973D01*
X32092Y-15001D01*
X32078Y-15015D01*
X32050Y-15029D01*
X31938Y-15029D01*
X32204Y-15168D02*
X32358Y-14973D01*
X32204Y-14973D02*
X32358Y-15168D01*
X31351Y-13925D02*
X31448Y-14218D01*
X31546Y-13925D01*
X31812Y-14190D02*
X31798Y-14204D01*
X31756Y-14218D01*
X31728Y-14218D01*
X31686Y-14204D01*
X31658Y-14176D01*
X31644Y-14148D01*
X31630Y-14093D01*
X31630Y-14051D01*
X31644Y-13995D01*
X31658Y-13967D01*
X31686Y-13939D01*
X31728Y-13925D01*
X31756Y-13925D01*
X31798Y-13939D01*
X31812Y-13953D01*
X32064Y-14218D02*
X32064Y-14065D01*
X32050Y-14037D01*
X32022Y-14023D01*
X31966Y-14023D01*
X31938Y-14037D01*
X32064Y-14204D02*
X32036Y-14218D01*
X31966Y-14218D01*
X31938Y-14204D01*
X31924Y-14176D01*
X31924Y-14148D01*
X31938Y-14120D01*
X31966Y-14106D01*
X32036Y-14106D01*
X32064Y-14093D01*
X32204Y-14023D02*
X32204Y-14316D01*
X32204Y-14037D02*
X32232Y-14023D01*
X32288Y-14023D01*
X32316Y-14037D01*
X32330Y-14051D01*
X32344Y-14079D01*
X32344Y-14162D01*
X32330Y-14190D01*
X32316Y-14204D01*
X32288Y-14218D01*
X32232Y-14218D01*
X32204Y-14204D01*
X31538Y-12925D02*
X31636Y-13218D01*
X31734Y-12925D01*
X32000Y-13190D02*
X31986Y-13204D01*
X31944Y-13218D01*
X31916Y-13218D01*
X31874Y-13204D01*
X31846Y-13176D01*
X31832Y-13148D01*
X31818Y-13093D01*
X31818Y-13051D01*
X31832Y-12995D01*
X31846Y-12967D01*
X31874Y-12939D01*
X31916Y-12925D01*
X31944Y-12925D01*
X31986Y-12939D01*
X32000Y-12953D01*
X32294Y-13190D02*
X32280Y-13204D01*
X32238Y-13218D01*
X32210Y-13218D01*
X32168Y-13204D01*
X32140Y-13176D01*
X32126Y-13148D01*
X32112Y-13093D01*
X32112Y-13051D01*
X32126Y-12995D01*
X32140Y-12967D01*
X32168Y-12939D01*
X32210Y-12925D01*
X32238Y-12925D01*
X32280Y-12939D01*
X32294Y-12953D01*
X30212Y-12015D02*
X30310Y-12015D01*
X30352Y-12168D02*
X30212Y-12168D01*
X30212Y-11875D01*
X30352Y-11875D01*
X30478Y-12168D02*
X30478Y-11875D01*
X30645Y-12168D01*
X30645Y-11875D01*
X30953Y-12140D02*
X30939Y-12154D01*
X30897Y-12168D01*
X30869Y-12168D01*
X30827Y-12154D01*
X30799Y-12126D01*
X30785Y-12098D01*
X30771Y-12043D01*
X30771Y-12001D01*
X30785Y-11945D01*
X30799Y-11917D01*
X30827Y-11889D01*
X30869Y-11875D01*
X30897Y-11875D01*
X30939Y-11889D01*
X30953Y-11903D01*
X31135Y-11875D02*
X31191Y-11875D01*
X31219Y-11889D01*
X31247Y-11917D01*
X31261Y-11973D01*
X31261Y-12070D01*
X31247Y-12126D01*
X31219Y-12154D01*
X31191Y-12168D01*
X31135Y-12168D01*
X31107Y-12154D01*
X31079Y-12126D01*
X31065Y-12070D01*
X31065Y-11973D01*
X31079Y-11917D01*
X31107Y-11889D01*
X31135Y-11875D01*
X31387Y-12168D02*
X31387Y-11875D01*
X31457Y-11875D01*
X31498Y-11889D01*
X31526Y-11917D01*
X31540Y-11945D01*
X31554Y-12001D01*
X31554Y-12043D01*
X31540Y-12098D01*
X31526Y-12126D01*
X31498Y-12154D01*
X31457Y-12168D01*
X31387Y-12168D01*
X31680Y-12015D02*
X31778Y-12015D01*
X31820Y-12168D02*
X31680Y-12168D01*
X31680Y-11875D01*
X31820Y-11875D01*
X32114Y-12168D02*
X32016Y-12029D01*
X31946Y-12168D02*
X31946Y-11875D01*
X32058Y-11875D01*
X32086Y-11889D01*
X32100Y-11903D01*
X32114Y-11931D01*
X32114Y-11973D01*
X32100Y-12001D01*
X32086Y-12015D01*
X32058Y-12029D01*
X31946Y-12029D01*
X32380Y-11875D02*
X32240Y-11875D01*
X32226Y-12015D01*
X32240Y-12001D01*
X32268Y-11987D01*
X32338Y-11987D01*
X32366Y-12001D01*
X32380Y-12015D01*
X32394Y-12043D01*
X32394Y-12112D01*
X32380Y-12140D01*
X32366Y-12154D01*
X32338Y-12168D01*
X32268Y-12168D01*
X32240Y-12154D01*
X32226Y-12140D01*
X30212Y-10965D02*
X30310Y-10965D01*
X30352Y-11118D02*
X30212Y-11118D01*
X30212Y-10825D01*
X30352Y-10825D01*
X30478Y-11118D02*
X30478Y-10825D01*
X30645Y-11118D01*
X30645Y-10825D01*
X30953Y-11090D02*
X30939Y-11104D01*
X30897Y-11118D01*
X30869Y-11118D01*
X30827Y-11104D01*
X30799Y-11076D01*
X30785Y-11048D01*
X30771Y-10993D01*
X30771Y-10951D01*
X30785Y-10895D01*
X30799Y-10867D01*
X30827Y-10839D01*
X30869Y-10825D01*
X30897Y-10825D01*
X30939Y-10839D01*
X30953Y-10853D01*
X31135Y-10825D02*
X31191Y-10825D01*
X31219Y-10839D01*
X31247Y-10867D01*
X31261Y-10923D01*
X31261Y-11020D01*
X31247Y-11076D01*
X31219Y-11104D01*
X31191Y-11118D01*
X31135Y-11118D01*
X31107Y-11104D01*
X31079Y-11076D01*
X31065Y-11020D01*
X31065Y-10923D01*
X31079Y-10867D01*
X31107Y-10839D01*
X31135Y-10825D01*
X31387Y-11118D02*
X31387Y-10825D01*
X31457Y-10825D01*
X31498Y-10839D01*
X31526Y-10867D01*
X31540Y-10895D01*
X31554Y-10951D01*
X31554Y-10993D01*
X31540Y-11048D01*
X31526Y-11076D01*
X31498Y-11104D01*
X31457Y-11118D01*
X31387Y-11118D01*
X31680Y-10965D02*
X31778Y-10965D01*
X31820Y-11118D02*
X31680Y-11118D01*
X31680Y-10825D01*
X31820Y-10825D01*
X32114Y-11118D02*
X32016Y-10979D01*
X31946Y-11118D02*
X31946Y-10825D01*
X32058Y-10825D01*
X32086Y-10839D01*
X32100Y-10853D01*
X32114Y-10881D01*
X32114Y-10923D01*
X32100Y-10951D01*
X32086Y-10965D01*
X32058Y-10979D01*
X31946Y-10979D01*
X32366Y-10825D02*
X32310Y-10825D01*
X32282Y-10839D01*
X32268Y-10853D01*
X32240Y-10895D01*
X32226Y-10951D01*
X32226Y-11062D01*
X32240Y-11090D01*
X32254Y-11104D01*
X32282Y-11118D01*
X32338Y-11118D01*
X32366Y-11104D01*
X32380Y-11090D01*
X32394Y-11062D01*
X32394Y-10993D01*
X32380Y-10965D01*
X32366Y-10951D01*
X32338Y-10937D01*
X32282Y-10937D01*
X32254Y-10951D01*
X32240Y-10965D01*
X32226Y-10993D01*
X28119Y-10168D02*
X28119Y-9875D01*
X28231Y-9875D01*
X28259Y-9889D01*
X28273Y-9903D01*
X28287Y-9931D01*
X28287Y-9973D01*
X28273Y-10001D01*
X28259Y-10015D01*
X28231Y-10029D01*
X28119Y-10029D01*
X28385Y-9875D02*
X28455Y-10168D01*
X28511Y-9959D01*
X28567Y-10168D01*
X28637Y-9875D01*
X28749Y-10168D02*
X28749Y-9875D01*
X28847Y-10084D01*
X28945Y-9875D01*
X28945Y-10168D01*
X29238Y-10168D02*
X29070Y-10168D01*
X29154Y-10168D02*
X29154Y-9875D01*
X29126Y-9917D01*
X29098Y-9945D01*
X29070Y-9959D01*
X29504Y-10168D02*
X29364Y-10168D01*
X29364Y-9875D01*
X29910Y-10280D02*
X29896Y-10266D01*
X29868Y-10224D01*
X29854Y-10196D01*
X29840Y-10154D01*
X29826Y-10084D01*
X29826Y-10029D01*
X29840Y-9959D01*
X29854Y-9917D01*
X29868Y-9889D01*
X29896Y-9847D01*
X29910Y-9833D01*
X30021Y-10168D02*
X30021Y-9875D01*
X30119Y-10084D01*
X30217Y-9875D01*
X30217Y-10168D01*
X30399Y-10168D02*
X30371Y-10154D01*
X30357Y-10140D01*
X30343Y-10112D01*
X30343Y-10029D01*
X30357Y-10001D01*
X30371Y-9987D01*
X30399Y-9973D01*
X30441Y-9973D01*
X30469Y-9987D01*
X30483Y-10001D01*
X30497Y-10029D01*
X30497Y-10112D01*
X30483Y-10140D01*
X30469Y-10154D01*
X30441Y-10168D01*
X30399Y-10168D01*
X30581Y-9973D02*
X30693Y-9973D01*
X30623Y-9875D02*
X30623Y-10126D01*
X30637Y-10154D01*
X30665Y-10168D01*
X30693Y-10168D01*
X30833Y-10168D02*
X30805Y-10154D01*
X30791Y-10140D01*
X30777Y-10112D01*
X30777Y-10029D01*
X30791Y-10001D01*
X30805Y-9987D01*
X30833Y-9973D01*
X30875Y-9973D01*
X30903Y-9987D01*
X30917Y-10001D01*
X30931Y-10029D01*
X30931Y-10112D01*
X30917Y-10140D01*
X30903Y-10154D01*
X30875Y-10168D01*
X30833Y-10168D01*
X31056Y-10168D02*
X31056Y-9973D01*
X31056Y-10029D02*
X31070Y-10001D01*
X31084Y-9987D01*
X31112Y-9973D01*
X31140Y-9973D01*
X31406Y-10140D02*
X31392Y-10154D01*
X31350Y-10168D01*
X31322Y-10168D01*
X31280Y-10154D01*
X31252Y-10126D01*
X31238Y-10098D01*
X31224Y-10043D01*
X31224Y-10001D01*
X31238Y-9945D01*
X31252Y-9917D01*
X31280Y-9889D01*
X31322Y-9875D01*
X31350Y-9875D01*
X31392Y-9889D01*
X31406Y-9903D01*
X31574Y-10168D02*
X31546Y-10154D01*
X31532Y-10140D01*
X31518Y-10112D01*
X31518Y-10029D01*
X31532Y-10001D01*
X31546Y-9987D01*
X31574Y-9973D01*
X31616Y-9973D01*
X31644Y-9987D01*
X31658Y-10001D01*
X31672Y-10029D01*
X31672Y-10112D01*
X31658Y-10140D01*
X31644Y-10154D01*
X31616Y-10168D01*
X31574Y-10168D01*
X31798Y-9973D02*
X31798Y-10168D01*
X31798Y-10001D02*
X31812Y-9987D01*
X31840Y-9973D01*
X31882Y-9973D01*
X31910Y-9987D01*
X31924Y-10015D01*
X31924Y-10168D01*
X32119Y-9875D02*
X32147Y-9875D01*
X32175Y-9889D01*
X32189Y-9903D01*
X32203Y-9931D01*
X32217Y-9987D01*
X32217Y-10056D01*
X32203Y-10112D01*
X32189Y-10140D01*
X32175Y-10154D01*
X32147Y-10168D01*
X32119Y-10168D01*
X32091Y-10154D01*
X32077Y-10140D01*
X32063Y-10112D01*
X32049Y-10056D01*
X32049Y-9987D01*
X32063Y-9931D01*
X32077Y-9903D01*
X32091Y-9889D01*
X32119Y-9875D01*
X32315Y-10280D02*
X32329Y-10266D01*
X32357Y-10224D01*
X32371Y-10196D01*
X32385Y-10154D01*
X32399Y-10084D01*
X32399Y-10029D01*
X32385Y-9959D01*
X32371Y-9917D01*
X32357Y-9889D01*
X32329Y-9847D01*
X32315Y-9833D01*
X28169Y-9168D02*
X28169Y-8875D01*
X28281Y-8875D01*
X28309Y-8889D01*
X28323Y-8903D01*
X28337Y-8931D01*
X28337Y-8973D01*
X28323Y-9001D01*
X28309Y-9015D01*
X28281Y-9029D01*
X28169Y-9029D01*
X28435Y-8875D02*
X28505Y-9168D01*
X28561Y-8959D01*
X28617Y-9168D01*
X28687Y-8875D01*
X28799Y-9168D02*
X28799Y-8875D01*
X28897Y-9084D01*
X28995Y-8875D01*
X28995Y-9168D01*
X29288Y-9168D02*
X29120Y-9168D01*
X29204Y-9168D02*
X29204Y-8875D01*
X29176Y-8917D01*
X29148Y-8945D01*
X29120Y-8959D01*
X29414Y-9168D02*
X29414Y-8875D01*
X29414Y-9015D02*
X29582Y-9015D01*
X29582Y-9168D02*
X29582Y-8875D01*
X30030Y-9280D02*
X30016Y-9266D01*
X29988Y-9224D01*
X29974Y-9196D01*
X29960Y-9154D01*
X29946Y-9084D01*
X29946Y-9029D01*
X29960Y-8959D01*
X29974Y-8917D01*
X29988Y-8889D01*
X30016Y-8847D01*
X30030Y-8833D01*
X30141Y-9168D02*
X30141Y-8875D01*
X30239Y-9084D01*
X30337Y-8875D01*
X30337Y-9168D01*
X30519Y-9168D02*
X30491Y-9154D01*
X30477Y-9140D01*
X30463Y-9112D01*
X30463Y-9029D01*
X30477Y-9001D01*
X30491Y-8987D01*
X30519Y-8973D01*
X30561Y-8973D01*
X30589Y-8987D01*
X30603Y-9001D01*
X30617Y-9029D01*
X30617Y-9112D01*
X30603Y-9140D01*
X30589Y-9154D01*
X30561Y-9168D01*
X30519Y-9168D01*
X30701Y-8973D02*
X30813Y-8973D01*
X30743Y-8875D02*
X30743Y-9126D01*
X30757Y-9154D01*
X30785Y-9168D01*
X30813Y-9168D01*
X30953Y-9168D02*
X30925Y-9154D01*
X30911Y-9140D01*
X30897Y-9112D01*
X30897Y-9029D01*
X30911Y-9001D01*
X30925Y-8987D01*
X30953Y-8973D01*
X30995Y-8973D01*
X31023Y-8987D01*
X31037Y-9001D01*
X31050Y-9029D01*
X31050Y-9112D01*
X31037Y-9140D01*
X31023Y-9154D01*
X30995Y-9168D01*
X30953Y-9168D01*
X31176Y-9168D02*
X31176Y-8973D01*
X31176Y-9029D02*
X31190Y-9001D01*
X31204Y-8987D01*
X31232Y-8973D01*
X31260Y-8973D01*
X31526Y-9140D02*
X31512Y-9154D01*
X31470Y-9168D01*
X31442Y-9168D01*
X31400Y-9154D01*
X31372Y-9126D01*
X31358Y-9098D01*
X31344Y-9043D01*
X31344Y-9001D01*
X31358Y-8945D01*
X31372Y-8917D01*
X31400Y-8889D01*
X31442Y-8875D01*
X31470Y-8875D01*
X31512Y-8889D01*
X31526Y-8903D01*
X31694Y-9168D02*
X31666Y-9154D01*
X31652Y-9140D01*
X31638Y-9112D01*
X31638Y-9029D01*
X31652Y-9001D01*
X31666Y-8987D01*
X31694Y-8973D01*
X31736Y-8973D01*
X31764Y-8987D01*
X31778Y-9001D01*
X31792Y-9029D01*
X31792Y-9112D01*
X31778Y-9140D01*
X31764Y-9154D01*
X31736Y-9168D01*
X31694Y-9168D01*
X31918Y-8973D02*
X31918Y-9168D01*
X31918Y-9001D02*
X31932Y-8987D01*
X31960Y-8973D01*
X32002Y-8973D01*
X32029Y-8987D01*
X32043Y-9015D01*
X32043Y-9168D01*
X32337Y-9168D02*
X32169Y-9168D01*
X32253Y-9168D02*
X32253Y-8875D01*
X32225Y-8917D01*
X32197Y-8945D01*
X32169Y-8959D01*
X32435Y-9280D02*
X32449Y-9266D01*
X32477Y-9224D01*
X32491Y-9196D01*
X32505Y-9154D01*
X32519Y-9084D01*
X32519Y-9029D01*
X32505Y-8959D01*
X32491Y-8917D01*
X32477Y-8889D01*
X32449Y-8847D01*
X32435Y-8833D01*
X28169Y-8168D02*
X28169Y-7875D01*
X28281Y-7875D01*
X28309Y-7889D01*
X28323Y-7903D01*
X28337Y-7931D01*
X28337Y-7973D01*
X28323Y-8001D01*
X28309Y-8015D01*
X28281Y-8029D01*
X28169Y-8029D01*
X28435Y-7875D02*
X28505Y-8168D01*
X28561Y-7959D01*
X28617Y-8168D01*
X28687Y-7875D01*
X28799Y-8168D02*
X28799Y-7875D01*
X28897Y-8084D01*
X28995Y-7875D01*
X28995Y-8168D01*
X29120Y-7903D02*
X29134Y-7889D01*
X29162Y-7875D01*
X29232Y-7875D01*
X29260Y-7889D01*
X29274Y-7903D01*
X29288Y-7931D01*
X29288Y-7959D01*
X29274Y-8001D01*
X29106Y-8168D01*
X29288Y-8168D01*
X29554Y-8168D02*
X29414Y-8168D01*
X29414Y-7875D01*
X29960Y-8280D02*
X29946Y-8266D01*
X29918Y-8224D01*
X29904Y-8196D01*
X29890Y-8154D01*
X29876Y-8084D01*
X29876Y-8029D01*
X29890Y-7959D01*
X29904Y-7917D01*
X29918Y-7889D01*
X29946Y-7847D01*
X29960Y-7833D01*
X30071Y-8168D02*
X30071Y-7875D01*
X30169Y-8084D01*
X30267Y-7875D01*
X30267Y-8168D01*
X30449Y-8168D02*
X30421Y-8154D01*
X30407Y-8140D01*
X30393Y-8112D01*
X30393Y-8029D01*
X30407Y-8001D01*
X30421Y-7987D01*
X30449Y-7973D01*
X30491Y-7973D01*
X30519Y-7987D01*
X30533Y-8001D01*
X30547Y-8029D01*
X30547Y-8112D01*
X30533Y-8140D01*
X30519Y-8154D01*
X30491Y-8168D01*
X30449Y-8168D01*
X30631Y-7973D02*
X30743Y-7973D01*
X30673Y-7875D02*
X30673Y-8126D01*
X30687Y-8154D01*
X30715Y-8168D01*
X30743Y-8168D01*
X30883Y-8168D02*
X30855Y-8154D01*
X30841Y-8140D01*
X30827Y-8112D01*
X30827Y-8029D01*
X30841Y-8001D01*
X30855Y-7987D01*
X30883Y-7973D01*
X30925Y-7973D01*
X30953Y-7987D01*
X30967Y-8001D01*
X30981Y-8029D01*
X30981Y-8112D01*
X30967Y-8140D01*
X30953Y-8154D01*
X30925Y-8168D01*
X30883Y-8168D01*
X31106Y-8168D02*
X31106Y-7973D01*
X31106Y-8029D02*
X31120Y-8001D01*
X31134Y-7987D01*
X31162Y-7973D01*
X31190Y-7973D01*
X31456Y-8140D02*
X31442Y-8154D01*
X31400Y-8168D01*
X31372Y-8168D01*
X31330Y-8154D01*
X31302Y-8126D01*
X31288Y-8098D01*
X31274Y-8043D01*
X31274Y-8001D01*
X31288Y-7945D01*
X31302Y-7917D01*
X31330Y-7889D01*
X31372Y-7875D01*
X31400Y-7875D01*
X31442Y-7889D01*
X31456Y-7903D01*
X31624Y-8168D02*
X31596Y-8154D01*
X31582Y-8140D01*
X31568Y-8112D01*
X31568Y-8029D01*
X31582Y-8001D01*
X31596Y-7987D01*
X31624Y-7973D01*
X31666Y-7973D01*
X31694Y-7987D01*
X31708Y-8001D01*
X31722Y-8029D01*
X31722Y-8112D01*
X31708Y-8140D01*
X31694Y-8154D01*
X31666Y-8168D01*
X31624Y-8168D01*
X31848Y-7973D02*
X31848Y-8168D01*
X31848Y-8001D02*
X31862Y-7987D01*
X31890Y-7973D01*
X31932Y-7973D01*
X31960Y-7987D01*
X31974Y-8015D01*
X31974Y-8168D01*
X32099Y-7903D02*
X32113Y-7889D01*
X32141Y-7875D01*
X32211Y-7875D01*
X32239Y-7889D01*
X32253Y-7903D01*
X32267Y-7931D01*
X32267Y-7959D01*
X32253Y-8001D01*
X32085Y-8168D01*
X32267Y-8168D01*
X32365Y-8280D02*
X32379Y-8266D01*
X32407Y-8224D01*
X32421Y-8196D01*
X32435Y-8154D01*
X32449Y-8084D01*
X32449Y-8029D01*
X32435Y-7959D01*
X32421Y-7917D01*
X32407Y-7889D01*
X32379Y-7847D01*
X32365Y-7833D01*
X28169Y-7218D02*
X28169Y-6925D01*
X28281Y-6925D01*
X28309Y-6939D01*
X28323Y-6953D01*
X28337Y-6981D01*
X28337Y-7023D01*
X28323Y-7051D01*
X28309Y-7065D01*
X28281Y-7079D01*
X28169Y-7079D01*
X28435Y-6925D02*
X28505Y-7218D01*
X28561Y-7009D01*
X28617Y-7218D01*
X28687Y-6925D01*
X28799Y-7218D02*
X28799Y-6925D01*
X28897Y-7134D01*
X28995Y-6925D01*
X28995Y-7218D01*
X29120Y-6953D02*
X29134Y-6939D01*
X29162Y-6925D01*
X29232Y-6925D01*
X29260Y-6939D01*
X29274Y-6953D01*
X29288Y-6981D01*
X29288Y-7009D01*
X29274Y-7051D01*
X29106Y-7218D01*
X29288Y-7218D01*
X29414Y-7218D02*
X29414Y-6925D01*
X29414Y-7065D02*
X29582Y-7065D01*
X29582Y-7218D02*
X29582Y-6925D01*
X30030Y-7330D02*
X30016Y-7316D01*
X29988Y-7274D01*
X29974Y-7246D01*
X29960Y-7204D01*
X29946Y-7134D01*
X29946Y-7079D01*
X29960Y-7009D01*
X29974Y-6967D01*
X29988Y-6939D01*
X30016Y-6897D01*
X30030Y-6883D01*
X30141Y-7218D02*
X30141Y-6925D01*
X30239Y-7134D01*
X30337Y-6925D01*
X30337Y-7218D01*
X30519Y-7218D02*
X30491Y-7204D01*
X30477Y-7190D01*
X30463Y-7162D01*
X30463Y-7079D01*
X30477Y-7051D01*
X30491Y-7037D01*
X30519Y-7023D01*
X30561Y-7023D01*
X30589Y-7037D01*
X30603Y-7051D01*
X30617Y-7079D01*
X30617Y-7162D01*
X30603Y-7190D01*
X30589Y-7204D01*
X30561Y-7218D01*
X30519Y-7218D01*
X30701Y-7023D02*
X30813Y-7023D01*
X30743Y-6925D02*
X30743Y-7176D01*
X30757Y-7204D01*
X30785Y-7218D01*
X30813Y-7218D01*
X30953Y-7218D02*
X30925Y-7204D01*
X30911Y-7190D01*
X30897Y-7162D01*
X30897Y-7079D01*
X30911Y-7051D01*
X30925Y-7037D01*
X30953Y-7023D01*
X30995Y-7023D01*
X31023Y-7037D01*
X31037Y-7051D01*
X31050Y-7079D01*
X31050Y-7162D01*
X31037Y-7190D01*
X31023Y-7204D01*
X30995Y-7218D01*
X30953Y-7218D01*
X31176Y-7218D02*
X31176Y-7023D01*
X31176Y-7079D02*
X31190Y-7051D01*
X31204Y-7037D01*
X31232Y-7023D01*
X31260Y-7023D01*
X31526Y-7190D02*
X31512Y-7204D01*
X31470Y-7218D01*
X31442Y-7218D01*
X31400Y-7204D01*
X31372Y-7176D01*
X31358Y-7148D01*
X31344Y-7093D01*
X31344Y-7051D01*
X31358Y-6995D01*
X31372Y-6967D01*
X31400Y-6939D01*
X31442Y-6925D01*
X31470Y-6925D01*
X31512Y-6939D01*
X31526Y-6953D01*
X31694Y-7218D02*
X31666Y-7204D01*
X31652Y-7190D01*
X31638Y-7162D01*
X31638Y-7079D01*
X31652Y-7051D01*
X31666Y-7037D01*
X31694Y-7023D01*
X31736Y-7023D01*
X31764Y-7037D01*
X31778Y-7051D01*
X31792Y-7079D01*
X31792Y-7162D01*
X31778Y-7190D01*
X31764Y-7204D01*
X31736Y-7218D01*
X31694Y-7218D01*
X31918Y-7023D02*
X31918Y-7218D01*
X31918Y-7051D02*
X31932Y-7037D01*
X31960Y-7023D01*
X32002Y-7023D01*
X32029Y-7037D01*
X32043Y-7065D01*
X32043Y-7218D01*
X32155Y-6925D02*
X32337Y-6925D01*
X32239Y-7037D01*
X32281Y-7037D01*
X32309Y-7051D01*
X32323Y-7065D01*
X32337Y-7093D01*
X32337Y-7162D01*
X32323Y-7190D01*
X32309Y-7204D01*
X32281Y-7218D01*
X32197Y-7218D01*
X32169Y-7204D01*
X32155Y-7190D01*
X32435Y-7330D02*
X32449Y-7316D01*
X32477Y-7274D01*
X32491Y-7246D01*
X32505Y-7204D01*
X32519Y-7134D01*
X32519Y-7079D01*
X32505Y-7009D01*
X32491Y-6967D01*
X32477Y-6939D01*
X32449Y-6897D01*
X32435Y-6883D01*
X28169Y-6218D02*
X28169Y-5925D01*
X28281Y-5925D01*
X28309Y-5939D01*
X28323Y-5953D01*
X28337Y-5981D01*
X28337Y-6023D01*
X28323Y-6051D01*
X28309Y-6065D01*
X28281Y-6079D01*
X28169Y-6079D01*
X28435Y-5925D02*
X28505Y-6218D01*
X28561Y-6009D01*
X28617Y-6218D01*
X28687Y-5925D01*
X28799Y-6218D02*
X28799Y-5925D01*
X28897Y-6134D01*
X28995Y-5925D01*
X28995Y-6218D01*
X29106Y-5925D02*
X29288Y-5925D01*
X29190Y-6037D01*
X29232Y-6037D01*
X29260Y-6051D01*
X29274Y-6065D01*
X29288Y-6093D01*
X29288Y-6162D01*
X29274Y-6190D01*
X29260Y-6204D01*
X29232Y-6218D01*
X29148Y-6218D01*
X29120Y-6204D01*
X29106Y-6190D01*
X29554Y-6218D02*
X29414Y-6218D01*
X29414Y-5925D01*
X29960Y-6330D02*
X29946Y-6316D01*
X29918Y-6274D01*
X29904Y-6246D01*
X29890Y-6204D01*
X29876Y-6134D01*
X29876Y-6079D01*
X29890Y-6009D01*
X29904Y-5967D01*
X29918Y-5939D01*
X29946Y-5897D01*
X29960Y-5883D01*
X30071Y-6218D02*
X30071Y-5925D01*
X30169Y-6134D01*
X30267Y-5925D01*
X30267Y-6218D01*
X30449Y-6218D02*
X30421Y-6204D01*
X30407Y-6190D01*
X30393Y-6162D01*
X30393Y-6079D01*
X30407Y-6051D01*
X30421Y-6037D01*
X30449Y-6023D01*
X30491Y-6023D01*
X30519Y-6037D01*
X30533Y-6051D01*
X30547Y-6079D01*
X30547Y-6162D01*
X30533Y-6190D01*
X30519Y-6204D01*
X30491Y-6218D01*
X30449Y-6218D01*
X30631Y-6023D02*
X30743Y-6023D01*
X30673Y-5925D02*
X30673Y-6176D01*
X30687Y-6204D01*
X30715Y-6218D01*
X30743Y-6218D01*
X30883Y-6218D02*
X30855Y-6204D01*
X30841Y-6190D01*
X30827Y-6162D01*
X30827Y-6079D01*
X30841Y-6051D01*
X30855Y-6037D01*
X30883Y-6023D01*
X30925Y-6023D01*
X30953Y-6037D01*
X30967Y-6051D01*
X30981Y-6079D01*
X30981Y-6162D01*
X30967Y-6190D01*
X30953Y-6204D01*
X30925Y-6218D01*
X30883Y-6218D01*
X31106Y-6218D02*
X31106Y-6023D01*
X31106Y-6079D02*
X31120Y-6051D01*
X31134Y-6037D01*
X31162Y-6023D01*
X31190Y-6023D01*
X31456Y-6190D02*
X31442Y-6204D01*
X31400Y-6218D01*
X31372Y-6218D01*
X31330Y-6204D01*
X31302Y-6176D01*
X31288Y-6148D01*
X31274Y-6093D01*
X31274Y-6051D01*
X31288Y-5995D01*
X31302Y-5967D01*
X31330Y-5939D01*
X31372Y-5925D01*
X31400Y-5925D01*
X31442Y-5939D01*
X31456Y-5953D01*
X31624Y-6218D02*
X31596Y-6204D01*
X31582Y-6190D01*
X31568Y-6162D01*
X31568Y-6079D01*
X31582Y-6051D01*
X31596Y-6037D01*
X31624Y-6023D01*
X31666Y-6023D01*
X31694Y-6037D01*
X31708Y-6051D01*
X31722Y-6079D01*
X31722Y-6162D01*
X31708Y-6190D01*
X31694Y-6204D01*
X31666Y-6218D01*
X31624Y-6218D01*
X31848Y-6023D02*
X31848Y-6218D01*
X31848Y-6051D02*
X31862Y-6037D01*
X31890Y-6023D01*
X31932Y-6023D01*
X31960Y-6037D01*
X31974Y-6065D01*
X31974Y-6218D01*
X32239Y-6023D02*
X32239Y-6218D01*
X32169Y-5911D02*
X32099Y-6120D01*
X32281Y-6120D01*
X32365Y-6330D02*
X32379Y-6316D01*
X32407Y-6274D01*
X32421Y-6246D01*
X32435Y-6204D01*
X32449Y-6134D01*
X32449Y-6079D01*
X32435Y-6009D01*
X32421Y-5967D01*
X32407Y-5939D01*
X32379Y-5897D01*
X32365Y-5883D01*
X21269Y-8268D02*
X21269Y-7975D01*
X21381Y-7975D01*
X21409Y-7989D01*
X21423Y-8003D01*
X21437Y-8031D01*
X21437Y-8073D01*
X21423Y-8101D01*
X21409Y-8115D01*
X21381Y-8129D01*
X21269Y-8129D01*
X21535Y-7975D02*
X21605Y-8268D01*
X21661Y-8059D01*
X21717Y-8268D01*
X21787Y-7975D01*
X21899Y-8268D02*
X21899Y-7975D01*
X21997Y-8184D01*
X22095Y-7975D01*
X22095Y-8268D01*
X22360Y-8073D02*
X22360Y-8268D01*
X22290Y-7961D02*
X22220Y-8170D01*
X22402Y-8170D01*
X22514Y-8268D02*
X22514Y-7975D01*
X22514Y-8115D02*
X22682Y-8115D01*
X22682Y-8268D02*
X22682Y-7975D01*
X23130Y-8380D02*
X23116Y-8366D01*
X23088Y-8324D01*
X23074Y-8296D01*
X23060Y-8254D01*
X23046Y-8184D01*
X23046Y-8129D01*
X23060Y-8059D01*
X23074Y-8017D01*
X23088Y-7989D01*
X23116Y-7947D01*
X23130Y-7933D01*
X23241Y-8268D02*
X23241Y-7975D01*
X23339Y-8184D01*
X23437Y-7975D01*
X23437Y-8268D01*
X23703Y-8268D02*
X23703Y-8115D01*
X23689Y-8087D01*
X23661Y-8073D01*
X23605Y-8073D01*
X23577Y-8087D01*
X23703Y-8254D02*
X23675Y-8268D01*
X23605Y-8268D01*
X23577Y-8254D01*
X23563Y-8226D01*
X23563Y-8198D01*
X23577Y-8170D01*
X23605Y-8156D01*
X23675Y-8156D01*
X23703Y-8143D01*
X23969Y-8073D02*
X23969Y-8310D01*
X23955Y-8338D01*
X23941Y-8352D01*
X23913Y-8366D01*
X23871Y-8366D01*
X23843Y-8352D01*
X23969Y-8254D02*
X23941Y-8268D01*
X23885Y-8268D01*
X23857Y-8254D01*
X23843Y-8240D01*
X23829Y-8212D01*
X23829Y-8129D01*
X23843Y-8101D01*
X23857Y-8087D01*
X23885Y-8073D01*
X23941Y-8073D01*
X23969Y-8087D01*
X24109Y-8073D02*
X24109Y-8268D01*
X24109Y-8101D02*
X24123Y-8087D01*
X24150Y-8073D01*
X24192Y-8073D01*
X24220Y-8087D01*
X24234Y-8115D01*
X24234Y-8268D01*
X24486Y-8254D02*
X24458Y-8268D01*
X24402Y-8268D01*
X24374Y-8254D01*
X24360Y-8226D01*
X24360Y-8115D01*
X24374Y-8087D01*
X24402Y-8073D01*
X24458Y-8073D01*
X24486Y-8087D01*
X24500Y-8115D01*
X24500Y-8143D01*
X24360Y-8170D01*
X24584Y-8073D02*
X24696Y-8073D01*
X24626Y-7975D02*
X24626Y-8226D01*
X24640Y-8254D01*
X24668Y-8268D01*
X24696Y-8268D01*
X24962Y-8240D02*
X24948Y-8254D01*
X24906Y-8268D01*
X24878Y-8268D01*
X24836Y-8254D01*
X24808Y-8226D01*
X24794Y-8198D01*
X24780Y-8143D01*
X24780Y-8101D01*
X24794Y-8045D01*
X24808Y-8017D01*
X24836Y-7989D01*
X24878Y-7975D01*
X24906Y-7975D01*
X24948Y-7989D01*
X24962Y-8003D01*
X25129Y-8268D02*
X25102Y-8254D01*
X25088Y-8240D01*
X25074Y-8212D01*
X25074Y-8129D01*
X25088Y-8101D01*
X25102Y-8087D01*
X25129Y-8073D01*
X25171Y-8073D01*
X25199Y-8087D01*
X25213Y-8101D01*
X25227Y-8129D01*
X25227Y-8212D01*
X25213Y-8240D01*
X25199Y-8254D01*
X25171Y-8268D01*
X25129Y-8268D01*
X25353Y-8073D02*
X25353Y-8268D01*
X25353Y-8101D02*
X25367Y-8087D01*
X25395Y-8073D01*
X25437Y-8073D01*
X25465Y-8087D01*
X25479Y-8115D01*
X25479Y-8268D01*
X25773Y-8268D02*
X25605Y-8268D01*
X25689Y-8268D02*
X25689Y-7975D01*
X25661Y-8017D01*
X25633Y-8045D01*
X25605Y-8059D01*
X25871Y-8380D02*
X25885Y-8366D01*
X25913Y-8324D01*
X25927Y-8296D01*
X25941Y-8254D01*
X25955Y-8184D01*
X25955Y-8129D01*
X25941Y-8059D01*
X25927Y-8017D01*
X25913Y-7989D01*
X25885Y-7947D01*
X25871Y-7933D01*
X21269Y-7118D02*
X21269Y-6825D01*
X21381Y-6825D01*
X21409Y-6839D01*
X21423Y-6853D01*
X21437Y-6881D01*
X21437Y-6923D01*
X21423Y-6951D01*
X21409Y-6965D01*
X21381Y-6979D01*
X21269Y-6979D01*
X21535Y-6825D02*
X21605Y-7118D01*
X21661Y-6909D01*
X21717Y-7118D01*
X21787Y-6825D01*
X21899Y-7118D02*
X21899Y-6825D01*
X21997Y-7034D01*
X22095Y-6825D01*
X22095Y-7118D01*
X22360Y-6923D02*
X22360Y-7118D01*
X22290Y-6811D02*
X22220Y-7020D01*
X22402Y-7020D01*
X22654Y-7118D02*
X22514Y-7118D01*
X22514Y-6825D01*
X23060Y-7230D02*
X23046Y-7216D01*
X23018Y-7174D01*
X23004Y-7146D01*
X22990Y-7104D01*
X22976Y-7034D01*
X22976Y-6979D01*
X22990Y-6909D01*
X23004Y-6867D01*
X23018Y-6839D01*
X23046Y-6797D01*
X23060Y-6783D01*
X23171Y-7118D02*
X23171Y-6825D01*
X23269Y-7034D01*
X23367Y-6825D01*
X23367Y-7118D01*
X23633Y-7118D02*
X23633Y-6965D01*
X23619Y-6937D01*
X23591Y-6923D01*
X23535Y-6923D01*
X23507Y-6937D01*
X23633Y-7104D02*
X23605Y-7118D01*
X23535Y-7118D01*
X23507Y-7104D01*
X23493Y-7076D01*
X23493Y-7048D01*
X23507Y-7020D01*
X23535Y-7006D01*
X23605Y-7006D01*
X23633Y-6993D01*
X23899Y-6923D02*
X23899Y-7160D01*
X23885Y-7188D01*
X23871Y-7202D01*
X23843Y-7216D01*
X23801Y-7216D01*
X23773Y-7202D01*
X23899Y-7104D02*
X23871Y-7118D01*
X23815Y-7118D01*
X23787Y-7104D01*
X23773Y-7090D01*
X23759Y-7062D01*
X23759Y-6979D01*
X23773Y-6951D01*
X23787Y-6937D01*
X23815Y-6923D01*
X23871Y-6923D01*
X23899Y-6937D01*
X24039Y-6923D02*
X24039Y-7118D01*
X24039Y-6951D02*
X24053Y-6937D01*
X24081Y-6923D01*
X24123Y-6923D01*
X24150Y-6937D01*
X24164Y-6965D01*
X24164Y-7118D01*
X24416Y-7104D02*
X24388Y-7118D01*
X24332Y-7118D01*
X24304Y-7104D01*
X24290Y-7076D01*
X24290Y-6965D01*
X24304Y-6937D01*
X24332Y-6923D01*
X24388Y-6923D01*
X24416Y-6937D01*
X24430Y-6965D01*
X24430Y-6993D01*
X24290Y-7020D01*
X24514Y-6923D02*
X24626Y-6923D01*
X24556Y-6825D02*
X24556Y-7076D01*
X24570Y-7104D01*
X24598Y-7118D01*
X24626Y-7118D01*
X24892Y-7090D02*
X24878Y-7104D01*
X24836Y-7118D01*
X24808Y-7118D01*
X24766Y-7104D01*
X24738Y-7076D01*
X24724Y-7048D01*
X24710Y-6993D01*
X24710Y-6951D01*
X24724Y-6895D01*
X24738Y-6867D01*
X24766Y-6839D01*
X24808Y-6825D01*
X24836Y-6825D01*
X24878Y-6839D01*
X24892Y-6853D01*
X25060Y-7118D02*
X25032Y-7104D01*
X25018Y-7090D01*
X25004Y-7062D01*
X25004Y-6979D01*
X25018Y-6951D01*
X25032Y-6937D01*
X25060Y-6923D01*
X25102Y-6923D01*
X25129Y-6937D01*
X25143Y-6951D01*
X25157Y-6979D01*
X25157Y-7062D01*
X25143Y-7090D01*
X25129Y-7104D01*
X25102Y-7118D01*
X25060Y-7118D01*
X25283Y-6923D02*
X25283Y-7118D01*
X25283Y-6951D02*
X25297Y-6937D01*
X25325Y-6923D01*
X25367Y-6923D01*
X25395Y-6937D01*
X25409Y-6965D01*
X25409Y-7118D01*
X25605Y-6825D02*
X25633Y-6825D01*
X25661Y-6839D01*
X25675Y-6853D01*
X25689Y-6881D01*
X25703Y-6937D01*
X25703Y-7006D01*
X25689Y-7062D01*
X25675Y-7090D01*
X25661Y-7104D01*
X25633Y-7118D01*
X25605Y-7118D01*
X25577Y-7104D01*
X25563Y-7090D01*
X25549Y-7062D01*
X25535Y-7006D01*
X25535Y-6937D01*
X25549Y-6881D01*
X25563Y-6853D01*
X25577Y-6839D01*
X25605Y-6825D01*
X25801Y-7230D02*
X25815Y-7216D01*
X25843Y-7174D01*
X25857Y-7146D01*
X25871Y-7104D01*
X25885Y-7034D01*
X25885Y-6979D01*
X25871Y-6909D01*
X25857Y-6867D01*
X25843Y-6839D01*
X25815Y-6797D01*
X25801Y-6783D01*
X21423Y-6218D02*
X21255Y-6218D01*
X21339Y-6218D02*
X21339Y-5925D01*
X21311Y-5967D01*
X21283Y-5995D01*
X21255Y-6009D01*
X21521Y-6330D02*
X21535Y-6316D01*
X21563Y-6274D01*
X21577Y-6246D01*
X21591Y-6204D01*
X21605Y-6134D01*
X21605Y-6079D01*
X21591Y-6009D01*
X21577Y-5967D01*
X21563Y-5939D01*
X21535Y-5897D01*
X21521Y-5883D01*
X21969Y-6218D02*
X21969Y-5925D01*
X22081Y-5925D01*
X22109Y-5939D01*
X22123Y-5953D01*
X22137Y-5981D01*
X22137Y-6023D01*
X22123Y-6051D01*
X22109Y-6065D01*
X22081Y-6079D01*
X21969Y-6079D01*
X22234Y-5925D02*
X22304Y-6218D01*
X22360Y-6009D01*
X22416Y-6218D01*
X22486Y-5925D01*
X22598Y-6218D02*
X22598Y-5925D01*
X22696Y-6134D01*
X22794Y-5925D01*
X22794Y-6218D01*
X22906Y-5925D02*
X23088Y-5925D01*
X22990Y-6037D01*
X23032Y-6037D01*
X23060Y-6051D01*
X23074Y-6065D01*
X23088Y-6093D01*
X23088Y-6162D01*
X23074Y-6190D01*
X23060Y-6204D01*
X23032Y-6218D01*
X22948Y-6218D01*
X22920Y-6204D01*
X22906Y-6190D01*
X23213Y-6218D02*
X23213Y-5925D01*
X23213Y-6065D02*
X23381Y-6065D01*
X23381Y-6218D02*
X23381Y-5925D01*
X23829Y-6330D02*
X23815Y-6316D01*
X23787Y-6274D01*
X23773Y-6246D01*
X23759Y-6204D01*
X23745Y-6134D01*
X23745Y-6079D01*
X23759Y-6009D01*
X23773Y-5967D01*
X23787Y-5939D01*
X23815Y-5897D01*
X23829Y-5883D01*
X23941Y-6218D02*
X23941Y-5925D01*
X24039Y-6134D01*
X24137Y-5925D01*
X24137Y-6218D01*
X24318Y-6218D02*
X24290Y-6204D01*
X24276Y-6190D01*
X24262Y-6162D01*
X24262Y-6079D01*
X24276Y-6051D01*
X24290Y-6037D01*
X24318Y-6023D01*
X24360Y-6023D01*
X24388Y-6037D01*
X24402Y-6051D01*
X24416Y-6079D01*
X24416Y-6162D01*
X24402Y-6190D01*
X24388Y-6204D01*
X24360Y-6218D01*
X24318Y-6218D01*
X24500Y-6023D02*
X24612Y-6023D01*
X24542Y-5925D02*
X24542Y-6176D01*
X24556Y-6204D01*
X24584Y-6218D01*
X24612Y-6218D01*
X24752Y-6218D02*
X24724Y-6204D01*
X24710Y-6190D01*
X24696Y-6162D01*
X24696Y-6079D01*
X24710Y-6051D01*
X24724Y-6037D01*
X24752Y-6023D01*
X24794Y-6023D01*
X24822Y-6037D01*
X24836Y-6051D01*
X24850Y-6079D01*
X24850Y-6162D01*
X24836Y-6190D01*
X24822Y-6204D01*
X24794Y-6218D01*
X24752Y-6218D01*
X24976Y-6218D02*
X24976Y-6023D01*
X24976Y-6079D02*
X24990Y-6051D01*
X25004Y-6037D01*
X25032Y-6023D01*
X25060Y-6023D01*
X25325Y-6190D02*
X25311Y-6204D01*
X25269Y-6218D01*
X25241Y-6218D01*
X25199Y-6204D01*
X25171Y-6176D01*
X25157Y-6148D01*
X25143Y-6093D01*
X25143Y-6051D01*
X25157Y-5995D01*
X25171Y-5967D01*
X25199Y-5939D01*
X25241Y-5925D01*
X25269Y-5925D01*
X25311Y-5939D01*
X25325Y-5953D01*
X25493Y-6218D02*
X25465Y-6204D01*
X25451Y-6190D01*
X25437Y-6162D01*
X25437Y-6079D01*
X25451Y-6051D01*
X25465Y-6037D01*
X25493Y-6023D01*
X25535Y-6023D01*
X25563Y-6037D01*
X25577Y-6051D01*
X25591Y-6079D01*
X25591Y-6162D01*
X25577Y-6190D01*
X25563Y-6204D01*
X25535Y-6218D01*
X25493Y-6218D01*
X25717Y-6023D02*
X25717Y-6218D01*
X25717Y-6051D02*
X25731Y-6037D01*
X25759Y-6023D01*
X25801Y-6023D01*
X25829Y-6037D01*
X25843Y-6065D01*
X25843Y-6218D01*
X26122Y-5925D02*
X25983Y-5925D01*
X25969Y-6065D01*
X25983Y-6051D01*
X26011Y-6037D01*
X26081Y-6037D01*
X26108Y-6051D01*
X26122Y-6065D01*
X26136Y-6093D01*
X26136Y-6162D01*
X26122Y-6190D01*
X26108Y-6204D01*
X26081Y-6218D01*
X26011Y-6218D01*
X25983Y-6204D01*
X25969Y-6190D01*
X26234Y-6330D02*
X26248Y-6316D01*
X26276Y-6274D01*
X26290Y-6246D01*
X26304Y-6204D01*
X26318Y-6134D01*
X26318Y-6079D01*
X26304Y-6009D01*
X26290Y-5967D01*
X26276Y-5939D01*
X26248Y-5897D01*
X26234Y-5883D01*
X23780Y-20442D02*
G75*
G03X23780Y-20442I-39J0D01*
G74*
G01*
X24646Y-20205D02*
X24725Y-20205D01*
X24055Y-20796D02*
X24055Y-20875D01*
X24055Y-24064D02*
X24055Y-24024D01*
X24685Y-24694D02*
X24725Y-24694D01*
X27953Y-24694D02*
X27874Y-24694D01*
X28544Y-24103D02*
X28544Y-24024D01*
X28544Y-20796D02*
X28544Y-20875D01*
X27953Y-20205D02*
X27874Y-20205D01*
X24646Y-20205D02*
X24055Y-20205D01*
X24055Y-20205D02*
X24055Y-20796D01*
X28544Y-20796D02*
X28544Y-20205D01*
X28544Y-20205D02*
X27953Y-20205D01*
X27953Y-24694D02*
X28544Y-24694D01*
X28544Y-24694D02*
X28544Y-24103D01*
X24055Y-24064D02*
X24055Y-24694D01*
X24055Y-24694D02*
X24685Y-24694D01*
G54D11*
X25250Y-33700D02*
X24350Y-33700D01*
X24350Y-33700D02*
X24350Y-33200D01*
X24350Y-33200D02*
X25250Y-33200D01*
X25250Y-33200D02*
X25250Y-33700D01*
X30650Y-23850D02*
X30650Y-22950D01*
X30650Y-22950D02*
X31150Y-22950D01*
X31150Y-22950D02*
X31150Y-23850D01*
X31150Y-23850D02*
X30650Y-23850D01*
G54D12*
X24200Y-34750D02*
X24200Y-35750D01*
X29200Y-35750D02*
X29200Y-34750D01*
X24200Y-34750D02*
X29200Y-34750D01*
X29200Y-35750D02*
X24200Y-35750D01*
G54D10*
X25866Y-31801D02*
G75*
G03X25866Y-31801I-39J0D01*
G74*
G01*
X26654Y-31998D02*
X27048Y-31998D01*
X27048Y-31998D02*
X27048Y-33691D01*
X27048Y-33691D02*
X25748Y-33691D01*
X25748Y-33691D02*
X25551Y-33691D01*
X25551Y-33691D02*
X25551Y-31998D01*
X25551Y-31998D02*
X25945Y-31998D01*
G54D13*
X30256Y-23200D02*
X30256Y-23830D01*
X30256Y-23830D02*
X29744Y-23830D01*
X29744Y-23830D02*
X29744Y-22570D01*
X29744Y-22570D02*
X30256Y-22570D01*
X30256Y-22570D02*
X30256Y-23200D01*
G54D10*
X21100Y-5550D02*
X21100Y-37550D01*
X21100Y-37550D02*
X20100Y-37550D01*
X20100Y-37550D02*
X20100Y-5550D01*
X21100Y-5550D02*
X20100Y-5550D01*
X32600Y-37550D02*
X33600Y-37550D01*
X33600Y-37550D02*
X33600Y-5550D01*
X33600Y-5550D02*
X32600Y-5550D01*
X32600Y-5550D02*
X32600Y-37550D01*
G54D14*
X24559Y-18526D02*
X24165Y-18526D01*
X24165Y-18433D01*
X24184Y-18376D01*
X24221Y-18339D01*
X24259Y-18320D01*
X24334Y-18301D01*
X24390Y-18301D01*
X24465Y-18320D01*
X24503Y-18339D01*
X24540Y-18376D01*
X24559Y-18433D01*
X24559Y-18526D01*
X24540Y-18151D02*
X24559Y-18095D01*
X24559Y-18001D01*
X24540Y-17964D01*
X24521Y-17945D01*
X24484Y-17926D01*
X24446Y-17926D01*
X24409Y-17945D01*
X24390Y-17964D01*
X24371Y-18001D01*
X24353Y-18076D01*
X24334Y-18114D01*
X24315Y-18132D01*
X24278Y-18151D01*
X24240Y-18151D01*
X24203Y-18132D01*
X24184Y-18114D01*
X24165Y-18076D01*
X24165Y-17982D01*
X24184Y-17926D01*
X24559Y-17757D02*
X24165Y-17757D01*
X24165Y-17607D01*
X24184Y-17570D01*
X24203Y-17551D01*
X24240Y-17532D01*
X24296Y-17532D01*
X24334Y-17551D01*
X24353Y-17570D01*
X24371Y-17607D01*
X24371Y-17757D01*
X24559Y-17363D02*
X24165Y-17363D01*
X24521Y-16950D02*
X24540Y-16969D01*
X24559Y-17026D01*
X24559Y-17063D01*
X24540Y-17119D01*
X24503Y-17157D01*
X24465Y-17176D01*
X24390Y-17194D01*
X24334Y-17194D01*
X24259Y-17176D01*
X24221Y-17157D01*
X24184Y-17119D01*
X24165Y-17063D01*
X24165Y-17026D01*
X24184Y-16969D01*
X24203Y-16950D01*
X24165Y-16819D02*
X24165Y-16575D01*
X24315Y-16707D01*
X24315Y-16650D01*
X24334Y-16613D01*
X24353Y-16594D01*
X24390Y-16575D01*
X24484Y-16575D01*
X24521Y-16594D01*
X24540Y-16613D01*
X24559Y-16650D01*
X24559Y-16763D01*
X24540Y-16800D01*
X24521Y-16819D01*
X24165Y-16444D02*
X24165Y-16200D01*
X24315Y-16331D01*
X24315Y-16275D01*
X24334Y-16238D01*
X24353Y-16219D01*
X24390Y-16200D01*
X24484Y-16200D01*
X24521Y-16219D01*
X24540Y-16238D01*
X24559Y-16275D01*
X24559Y-16388D01*
X24540Y-16425D01*
X24521Y-16444D01*
X24353Y-16031D02*
X24353Y-15900D01*
X24559Y-15844D02*
X24559Y-16031D01*
X24165Y-16031D01*
X24165Y-15844D01*
X24559Y-15675D02*
X24165Y-15675D01*
X24165Y-15525D01*
X24184Y-15487D01*
X24203Y-15468D01*
X24240Y-15450D01*
X24296Y-15450D01*
X24334Y-15468D01*
X24353Y-15487D01*
X24371Y-15525D01*
X24371Y-15675D01*
X24165Y-15093D02*
X24165Y-15281D01*
X24353Y-15299D01*
X24334Y-15281D01*
X24315Y-15243D01*
X24315Y-15149D01*
X24334Y-15112D01*
X24353Y-15093D01*
X24390Y-15074D01*
X24484Y-15074D01*
X24521Y-15093D01*
X24540Y-15112D01*
X24559Y-15149D01*
X24559Y-15243D01*
X24540Y-15281D01*
X24521Y-15299D01*
X24559Y-14699D02*
X24559Y-14924D01*
X24559Y-14812D02*
X24165Y-14812D01*
X24221Y-14849D01*
X24259Y-14887D01*
X24278Y-14924D01*
X24203Y-14549D02*
X24184Y-14530D01*
X24165Y-14493D01*
X24165Y-14399D01*
X24184Y-14361D01*
X24203Y-14343D01*
X24240Y-14324D01*
X24278Y-14324D01*
X24334Y-14343D01*
X24559Y-14568D01*
X24559Y-14324D01*
X24559Y-14155D02*
X24165Y-14155D01*
X24446Y-14024D01*
X24165Y-13892D01*
X24559Y-13892D01*
X24521Y-13479D02*
X24540Y-13498D01*
X24559Y-13555D01*
X24559Y-13592D01*
X24540Y-13648D01*
X24503Y-13686D01*
X24465Y-13705D01*
X24390Y-13723D01*
X24334Y-13723D01*
X24259Y-13705D01*
X24221Y-13686D01*
X24184Y-13648D01*
X24165Y-13592D01*
X24165Y-13555D01*
X24184Y-13498D01*
X24203Y-13479D01*
X24334Y-13254D02*
X24315Y-13292D01*
X24296Y-13311D01*
X24259Y-13329D01*
X24240Y-13329D01*
X24203Y-13311D01*
X24184Y-13292D01*
X24165Y-13254D01*
X24165Y-13179D01*
X24184Y-13142D01*
X24203Y-13123D01*
X24240Y-13104D01*
X24259Y-13104D01*
X24296Y-13123D01*
X24315Y-13142D01*
X24334Y-13179D01*
X24334Y-13254D01*
X24353Y-13292D01*
X24371Y-13311D01*
X24409Y-13329D01*
X24484Y-13329D01*
X24521Y-13311D01*
X24540Y-13292D01*
X24559Y-13254D01*
X24559Y-13179D01*
X24540Y-13142D01*
X24521Y-13123D01*
X24484Y-13104D01*
X24409Y-13104D01*
X24371Y-13123D01*
X24353Y-13142D01*
X24334Y-13179D01*
X24165Y-12860D02*
X24165Y-12823D01*
X24184Y-12785D01*
X24203Y-12767D01*
X24240Y-12748D01*
X24315Y-12729D01*
X24409Y-12729D01*
X24484Y-12748D01*
X24521Y-12767D01*
X24540Y-12785D01*
X24559Y-12823D01*
X24559Y-12860D01*
X24540Y-12898D01*
X24521Y-12917D01*
X24484Y-12935D01*
X24409Y-12954D01*
X24315Y-12954D01*
X24240Y-12935D01*
X24203Y-12917D01*
X24184Y-12898D01*
X24165Y-12860D01*
X24165Y-12391D02*
X24165Y-12466D01*
X24184Y-12504D01*
X24203Y-12523D01*
X24259Y-12560D01*
X24334Y-12579D01*
X24484Y-12579D01*
X24521Y-12560D01*
X24540Y-12541D01*
X24559Y-12504D01*
X24559Y-12429D01*
X24540Y-12391D01*
X24521Y-12373D01*
X24484Y-12354D01*
X24390Y-12354D01*
X24353Y-12373D01*
X24334Y-12391D01*
X24315Y-12429D01*
X24315Y-12504D01*
X24334Y-12541D01*
X24353Y-12560D01*
X24390Y-12579D01*
G54D15*
X24770Y-33530D02*
X24710Y-33435D01*
X24667Y-33530D02*
X24667Y-33330D01*
X24735Y-33330D01*
X24752Y-33340D01*
X24761Y-33350D01*
X24770Y-33369D01*
X24770Y-33397D01*
X24761Y-33416D01*
X24752Y-33426D01*
X24735Y-33435D01*
X24667Y-33435D01*
X24941Y-33530D02*
X24838Y-33530D01*
X24890Y-33530D02*
X24890Y-33330D01*
X24872Y-33359D01*
X24855Y-33378D01*
X24838Y-33388D01*
X30980Y-23430D02*
X30885Y-23490D01*
X30980Y-23532D02*
X30780Y-23532D01*
X30780Y-23464D01*
X30790Y-23447D01*
X30800Y-23438D01*
X30819Y-23430D01*
X30847Y-23430D01*
X30866Y-23438D01*
X30876Y-23447D01*
X30885Y-23464D01*
X30885Y-23532D01*
X30800Y-23361D02*
X30790Y-23352D01*
X30780Y-23335D01*
X30780Y-23292D01*
X30790Y-23275D01*
X30800Y-23267D01*
X30819Y-23258D01*
X30838Y-23258D01*
X30866Y-23267D01*
X30980Y-23370D01*
X30980Y-23258D01*
G54D10*
X26009Y-32609D02*
X26009Y-32215D01*
X26159Y-32215D01*
X26196Y-32234D01*
X26215Y-32253D01*
X26234Y-32290D01*
X26234Y-32346D01*
X26215Y-32384D01*
X26196Y-32403D01*
X26159Y-32421D01*
X26009Y-32421D01*
X26609Y-32609D02*
X26384Y-32609D01*
X26496Y-32609D02*
X26496Y-32215D01*
X26459Y-32271D01*
X26421Y-32309D01*
X26384Y-32328D01*
G54D12*
X29585Y-25200D02*
X29614Y-25228D01*
X29642Y-25314D01*
X29642Y-25371D01*
X29614Y-25457D01*
X29557Y-25514D01*
X29500Y-25542D01*
X29385Y-25571D01*
X29300Y-25571D01*
X29185Y-25542D01*
X29128Y-25514D01*
X29071Y-25457D01*
X29042Y-25371D01*
X29042Y-25314D01*
X29071Y-25228D01*
X29100Y-25200D01*
X29642Y-24600D02*
X29357Y-24800D01*
X29642Y-24942D02*
X29042Y-24942D01*
X29042Y-24714D01*
X29071Y-24657D01*
X29100Y-24628D01*
X29157Y-24600D01*
X29242Y-24600D01*
X29300Y-24628D01*
X29328Y-24657D01*
X29357Y-24714D01*
X29357Y-24942D01*
X29642Y-24028D02*
X29642Y-24371D01*
X29642Y-24200D02*
X29042Y-24200D01*
X29128Y-24257D01*
X29185Y-24314D01*
X29214Y-24371D01*
M02*
