G75*
G70*
%OFA0B0*%
%FSLAX24Y24*%
%IPPOS*%
%LPD*%
%AMOC8*
5,1,8,0,0,1.08239X$1,22.5*
%
%ADD10C,0.0060*%
%ADD11C,0.0040*%
%ADD12C,0.0100*%
%ADD13C,0.0080*%
%ADD14C,0.0030*%
%ADD15C,0.0050*%
%ADD16C,0.0220*%
%ADD17R,0.0340X0.0300*%
%ADD18R,0.0160X0.0320*%
D10*
X004716Y004946D02*
X005066Y004946D01*
X005116Y004996D01*
X008916Y004996D01*
X008966Y004946D01*
X009316Y004946D01*
X009333Y004948D01*
X009350Y004952D01*
X009366Y004959D01*
X009380Y004969D01*
X009393Y004982D01*
X009403Y004996D01*
X009410Y005012D01*
X009414Y005029D01*
X009416Y005046D01*
X009416Y006546D01*
X009414Y006563D01*
X009410Y006580D01*
X009403Y006596D01*
X009393Y006610D01*
X009380Y006623D01*
X009366Y006633D01*
X009350Y006640D01*
X009333Y006644D01*
X009316Y006646D01*
X008966Y006646D01*
X008916Y006596D01*
X005116Y006596D01*
X005066Y006646D01*
X004716Y006646D01*
X004699Y006644D01*
X004682Y006640D01*
X004666Y006633D01*
X004652Y006623D01*
X004639Y006610D01*
X004629Y006596D01*
X004622Y006580D01*
X004618Y006563D01*
X004616Y006546D01*
X004616Y005046D01*
X004618Y005029D01*
X004622Y005012D01*
X004629Y004996D01*
X004639Y004982D01*
X004652Y004969D01*
X004666Y004959D01*
X004682Y004952D01*
X004699Y004948D01*
X004716Y004946D01*
X019046Y004860D02*
X019046Y004753D01*
X019152Y004646D01*
X019366Y004646D01*
X019473Y004540D01*
X019473Y004433D01*
X019366Y004326D01*
X019152Y004326D01*
X019046Y004433D01*
X019046Y004860D02*
X019152Y004967D01*
X019366Y004967D01*
X019473Y004860D01*
X019690Y004860D02*
X019797Y004967D01*
X020011Y004967D01*
X020117Y004860D01*
X020117Y004433D01*
X020011Y004326D01*
X019797Y004326D01*
X019690Y004433D01*
X019690Y004860D01*
X019904Y004540D02*
X020117Y004326D01*
X020335Y004326D02*
X020335Y004967D01*
X020655Y004967D01*
X020762Y004860D01*
X020762Y004646D01*
X020655Y004540D01*
X020335Y004540D01*
X020979Y004646D02*
X021193Y004753D01*
X021300Y004753D01*
X021406Y004646D01*
X021406Y004433D01*
X021300Y004326D01*
X021086Y004326D01*
X020979Y004433D01*
X020979Y004646D02*
X020979Y004967D01*
X021406Y004967D01*
X021624Y004860D02*
X021731Y004967D01*
X021944Y004967D01*
X022051Y004860D01*
X021624Y004433D01*
X021731Y004326D01*
X021944Y004326D01*
X022051Y004433D01*
X022051Y004860D01*
X022268Y004860D02*
X022375Y004967D01*
X022589Y004967D01*
X022695Y004860D01*
X022268Y004433D01*
X022375Y004326D01*
X022589Y004326D01*
X022695Y004433D01*
X022695Y004860D01*
X022268Y004860D02*
X022268Y004433D01*
X021624Y004433D02*
X021624Y004860D01*
X022913Y004433D02*
X023020Y004326D01*
X023126Y004326D01*
X023233Y004433D01*
X023233Y004967D01*
X023126Y004967D02*
X023340Y004967D01*
X023557Y004967D02*
X023878Y004967D01*
X023984Y004860D01*
X023984Y004753D01*
X023878Y004646D01*
X023557Y004646D01*
X023557Y004326D02*
X023878Y004326D01*
X023984Y004433D01*
X023984Y004540D01*
X023878Y004646D01*
X024202Y004646D02*
X024629Y004646D01*
X024846Y004433D02*
X024953Y004326D01*
X025167Y004326D01*
X025274Y004433D01*
X025274Y004540D01*
X025167Y004646D01*
X025060Y004646D01*
X025167Y004646D02*
X025274Y004753D01*
X025274Y004860D01*
X025167Y004967D01*
X024953Y004967D01*
X024846Y004860D01*
X025491Y004646D02*
X025811Y004646D01*
X025918Y004540D01*
X025918Y004433D01*
X025811Y004326D01*
X025598Y004326D01*
X025491Y004433D01*
X025491Y004646D01*
X025705Y004860D01*
X025918Y004967D01*
X026136Y004860D02*
X026136Y004433D01*
X026563Y004860D01*
X026563Y004433D01*
X026456Y004326D01*
X026242Y004326D01*
X026136Y004433D01*
X026136Y004860D02*
X026242Y004967D01*
X026456Y004967D01*
X026563Y004860D01*
X026780Y004967D02*
X027100Y004967D01*
X027207Y004860D01*
X027207Y004646D01*
X027100Y004540D01*
X026780Y004540D01*
X026994Y004540D02*
X027207Y004326D01*
X026780Y004326D02*
X026780Y004967D01*
X023557Y004967D02*
X023557Y004326D01*
X021300Y006826D02*
X021086Y006826D01*
X020979Y006933D01*
X020979Y007146D01*
X021086Y007253D01*
X021300Y007253D01*
X021406Y007146D01*
X021406Y007040D01*
X020979Y007040D01*
X020762Y007040D02*
X020335Y007040D01*
X020335Y007146D02*
X020442Y007253D01*
X020655Y007253D01*
X020762Y007146D01*
X020762Y007040D01*
X020655Y006826D02*
X020442Y006826D01*
X020335Y006933D01*
X020335Y007146D01*
X020117Y007040D02*
X020117Y006933D01*
X020011Y006826D01*
X019690Y006826D01*
X019690Y007467D01*
X020011Y007467D01*
X020117Y007360D01*
X020117Y007253D01*
X020011Y007146D01*
X019690Y007146D01*
X020011Y007146D02*
X020117Y007040D01*
X019473Y006826D02*
X019046Y007467D01*
X019473Y007467D02*
X019046Y006826D01*
X044786Y009816D02*
X047246Y009816D01*
X047246Y011178D01*
X044786Y011178D01*
X044786Y009816D01*
X047345Y010077D02*
X047452Y009971D01*
X047345Y010077D02*
X047345Y010291D01*
X047452Y010398D01*
X047559Y010398D01*
X047986Y009971D01*
X047986Y010398D01*
X047772Y010615D02*
X047986Y010829D01*
X047772Y011042D01*
X047345Y011042D01*
X047345Y010615D02*
X047772Y010615D01*
X047986Y009753D02*
X047986Y009326D01*
X047986Y009540D02*
X047345Y009540D01*
X047559Y009326D01*
X047772Y007542D02*
X047345Y007542D01*
X047345Y007115D02*
X047772Y007115D01*
X047986Y007329D01*
X047772Y007542D01*
X047772Y006898D02*
X047879Y006898D01*
X047986Y006791D01*
X047986Y006577D01*
X047879Y006471D01*
X047772Y006471D01*
X047666Y006577D01*
X047666Y006791D01*
X047772Y006898D01*
X047666Y006791D02*
X047559Y006898D01*
X047452Y006898D01*
X047345Y006791D01*
X047345Y006577D01*
X047452Y006471D01*
X047559Y006471D01*
X047666Y006577D01*
X047666Y006253D02*
X047666Y005826D01*
X047345Y006146D01*
X047986Y006146D01*
X047879Y005042D02*
X047452Y005042D01*
X047345Y004936D01*
X047345Y004615D01*
X047986Y004615D01*
X047986Y004936D01*
X047879Y005042D01*
X047986Y004398D02*
X047345Y004398D01*
X047345Y003971D02*
X047986Y004398D01*
X047986Y003971D02*
X047345Y003971D01*
X047452Y003753D02*
X047345Y003646D01*
X047345Y003433D01*
X047452Y003326D01*
X047879Y003326D01*
X047986Y003433D01*
X047986Y003646D01*
X047879Y003753D01*
X047666Y003753D01*
X047666Y003540D01*
X047666Y011826D02*
X047345Y011826D01*
X047345Y012253D01*
X047345Y012471D02*
X047772Y012471D01*
X047986Y012684D01*
X047772Y012898D01*
X047345Y012898D01*
X047666Y012253D02*
X047879Y012253D01*
X047986Y012146D01*
X047986Y011933D01*
X047879Y011826D01*
X047666Y011826D02*
X047559Y012040D01*
X047559Y012146D01*
X047666Y012253D01*
X047879Y013826D02*
X047986Y013933D01*
X047986Y014146D01*
X047879Y014253D01*
X047772Y014253D01*
X047666Y014146D01*
X047666Y014040D01*
X047666Y014146D02*
X047559Y014253D01*
X047452Y014253D01*
X047345Y014146D01*
X047345Y013933D01*
X047452Y013826D01*
X047879Y014471D02*
X047879Y014577D01*
X047986Y014577D01*
X047986Y014471D01*
X047879Y014471D01*
X047879Y014793D02*
X047986Y014900D01*
X047986Y015113D01*
X047879Y015220D01*
X047772Y015220D01*
X047666Y015113D01*
X047666Y015006D01*
X047666Y015113D02*
X047559Y015220D01*
X047452Y015220D01*
X047345Y015113D01*
X047345Y014900D01*
X047452Y014793D01*
X047345Y015438D02*
X047772Y015438D01*
X047986Y015651D01*
X047772Y015865D01*
X047345Y015865D01*
D11*
X042252Y017441D02*
X041945Y017441D01*
X041791Y017595D01*
X041945Y017748D01*
X042252Y017748D01*
X042175Y017902D02*
X042252Y017978D01*
X042252Y018132D01*
X042175Y018209D01*
X042175Y018362D02*
X042252Y018439D01*
X042252Y018592D01*
X042175Y018669D01*
X042098Y018669D01*
X042021Y018592D01*
X042021Y018439D01*
X041945Y018362D01*
X041868Y018362D01*
X041791Y018439D01*
X041791Y018592D01*
X041868Y018669D01*
X041791Y018822D02*
X041791Y019129D01*
X041868Y019129D01*
X042175Y018822D01*
X042252Y018822D01*
X042252Y019283D02*
X042252Y019590D01*
X042252Y019436D02*
X041791Y019436D01*
X041945Y019283D01*
X042021Y019743D02*
X042021Y019973D01*
X042098Y020050D01*
X042175Y020050D01*
X042252Y019973D01*
X042252Y019820D01*
X042175Y019743D01*
X042021Y019743D01*
X041868Y019897D01*
X041791Y020050D01*
X041868Y018209D02*
X041791Y018132D01*
X041791Y017978D01*
X041868Y017902D01*
X042175Y017902D01*
X042021Y017748D02*
X042021Y017441D01*
X037134Y017912D02*
X037057Y017835D01*
X036673Y017835D01*
X036496Y017771D02*
X036496Y017465D01*
X036189Y017771D01*
X036112Y017771D01*
X036035Y017695D01*
X036035Y017541D01*
X036112Y017465D01*
X036112Y017311D02*
X036419Y017004D01*
X036496Y017081D01*
X036496Y017234D01*
X036419Y017311D01*
X036112Y017311D01*
X036035Y017234D01*
X036035Y017081D01*
X036112Y017004D01*
X036419Y017004D01*
X036496Y016851D02*
X036342Y016697D01*
X036342Y016774D02*
X036342Y016544D01*
X036496Y016544D02*
X036035Y016544D01*
X036035Y016774D01*
X036112Y016851D01*
X036266Y016851D01*
X036342Y016774D01*
X036496Y016390D02*
X036496Y016083D01*
X036035Y016083D01*
X036112Y015930D02*
X036266Y015930D01*
X036342Y015853D01*
X036342Y015623D01*
X036342Y015777D02*
X036496Y015930D01*
X036496Y015623D02*
X036035Y015623D01*
X036035Y015853D01*
X036112Y015930D01*
X036035Y015470D02*
X036035Y015316D01*
X036035Y015393D02*
X036496Y015393D01*
X036496Y015316D02*
X036496Y015470D01*
X036266Y017925D02*
X036266Y018232D01*
X036496Y018155D02*
X036035Y018155D01*
X036266Y017925D01*
X036673Y018142D02*
X037057Y018142D01*
X037134Y018065D01*
X037134Y017912D01*
X037057Y018295D02*
X037134Y018372D01*
X037134Y018526D01*
X037057Y018602D01*
X036980Y018602D01*
X036903Y018526D01*
X036903Y018372D01*
X036827Y018295D01*
X036750Y018295D01*
X036673Y018372D01*
X036673Y018526D01*
X036750Y018602D01*
X036750Y018756D02*
X036673Y018833D01*
X036673Y018986D01*
X036750Y019063D01*
X036827Y019063D01*
X036903Y018986D01*
X036980Y019063D01*
X037057Y019063D01*
X037134Y018986D01*
X037134Y018833D01*
X037057Y018756D01*
X036903Y018909D02*
X036903Y018986D01*
X036596Y018449D02*
X037210Y018449D01*
X031996Y018155D02*
X031535Y018155D01*
X031766Y017925D01*
X031766Y018232D01*
X031689Y017771D02*
X031612Y017771D01*
X031535Y017695D01*
X031535Y017541D01*
X031612Y017465D01*
X031612Y017311D02*
X031919Y017004D01*
X031996Y017081D01*
X031996Y017234D01*
X031919Y017311D01*
X031612Y017311D01*
X031535Y017234D01*
X031535Y017081D01*
X031612Y017004D01*
X031919Y017004D01*
X031996Y016851D02*
X031842Y016697D01*
X031842Y016774D02*
X031842Y016544D01*
X031996Y016544D02*
X031535Y016544D01*
X031535Y016774D01*
X031612Y016851D01*
X031766Y016851D01*
X031842Y016774D01*
X031996Y016390D02*
X031996Y016083D01*
X031535Y016083D01*
X031612Y015930D02*
X031766Y015930D01*
X031842Y015853D01*
X031842Y015623D01*
X031842Y015777D02*
X031996Y015930D01*
X031996Y015623D02*
X031535Y015623D01*
X031535Y015853D01*
X031612Y015930D01*
X031535Y015470D02*
X031535Y015316D01*
X031535Y015393D02*
X031996Y015393D01*
X031996Y015316D02*
X031996Y015470D01*
X031996Y017465D02*
X031689Y017771D01*
X031996Y017771D02*
X031996Y017465D01*
X041791Y010050D02*
X041868Y009897D01*
X042021Y009743D01*
X042021Y009973D01*
X042098Y010050D01*
X042175Y010050D01*
X042252Y009973D01*
X042252Y009820D01*
X042175Y009743D01*
X042021Y009743D01*
X042252Y009590D02*
X042252Y009283D01*
X042252Y009436D02*
X041791Y009436D01*
X041945Y009283D01*
X041868Y009129D02*
X042175Y008822D01*
X042252Y008822D01*
X042175Y008669D02*
X042252Y008592D01*
X042252Y008439D01*
X042175Y008362D01*
X042175Y008209D02*
X042252Y008132D01*
X042252Y007978D01*
X042175Y007902D01*
X041868Y007902D01*
X041791Y007978D01*
X041791Y008132D01*
X041868Y008209D01*
X041868Y008362D02*
X041945Y008362D01*
X042021Y008439D01*
X042021Y008592D01*
X042098Y008669D01*
X042175Y008669D01*
X041868Y008669D02*
X041791Y008592D01*
X041791Y008439D01*
X041868Y008362D01*
X041945Y007748D02*
X042252Y007748D01*
X042021Y007748D02*
X042021Y007441D01*
X041945Y007441D02*
X041791Y007595D01*
X041945Y007748D01*
X041945Y007441D02*
X042252Y007441D01*
X041791Y008822D02*
X041791Y009129D01*
X041868Y009129D01*
X043535Y009046D02*
X043612Y009123D01*
X043689Y009123D01*
X043766Y009046D01*
X043842Y009123D01*
X043919Y009123D01*
X043996Y009046D01*
X043996Y008893D01*
X043919Y008816D01*
X043766Y008970D02*
X043766Y009046D01*
X043535Y009046D02*
X043535Y008893D01*
X043612Y008816D01*
X043919Y009277D02*
X043919Y009353D01*
X043996Y009353D01*
X043996Y009277D01*
X043919Y009277D01*
X043919Y009507D02*
X043996Y009583D01*
X043996Y009737D01*
X043919Y009814D01*
X043842Y009814D01*
X043766Y009737D01*
X043766Y009660D01*
X043766Y009737D02*
X043689Y009814D01*
X043612Y009814D01*
X043535Y009737D01*
X043535Y009583D01*
X043612Y009507D01*
X043535Y009967D02*
X043842Y009967D01*
X043996Y010121D01*
X043842Y010274D01*
X043535Y010274D01*
X043535Y010888D02*
X043535Y011118D01*
X043612Y011195D01*
X043766Y011195D01*
X043842Y011118D01*
X043842Y010888D01*
X043842Y011041D02*
X043996Y011195D01*
X043996Y011348D02*
X043535Y011348D01*
X043535Y011655D01*
X043612Y011809D02*
X043919Y011809D01*
X043996Y011885D01*
X043996Y012039D01*
X043919Y012115D01*
X043766Y012115D01*
X043766Y011962D01*
X043612Y012115D02*
X043535Y012039D01*
X043535Y011885D01*
X043612Y011809D01*
X043766Y011502D02*
X043766Y011348D01*
X043996Y011348D02*
X043996Y011655D01*
X044235Y011578D02*
X044235Y011885D01*
X044312Y011885D01*
X044619Y011578D01*
X044696Y011578D01*
X044696Y011425D02*
X044696Y011118D01*
X044696Y011271D02*
X044235Y011271D01*
X044389Y011118D01*
X044696Y010965D02*
X044696Y010658D01*
X044696Y010811D02*
X044235Y010811D01*
X044389Y010658D01*
X044696Y010504D02*
X044696Y010197D01*
X044696Y010351D02*
X044235Y010351D01*
X044389Y010197D01*
X044466Y010044D02*
X044466Y009890D01*
X044466Y010044D02*
X044619Y010044D01*
X044696Y009967D01*
X044696Y009814D01*
X044619Y009737D01*
X044312Y009737D01*
X044235Y009814D01*
X044235Y009967D01*
X044312Y010044D01*
X044235Y009583D02*
X044235Y009277D01*
X044696Y009277D01*
X044696Y009583D01*
X044466Y009430D02*
X044466Y009277D01*
X044466Y009123D02*
X044542Y009046D01*
X044542Y008816D01*
X044542Y008970D02*
X044696Y009123D01*
X044466Y009123D02*
X044312Y009123D01*
X044235Y009046D01*
X044235Y008816D01*
X044696Y008816D01*
X043996Y010888D02*
X043535Y010888D01*
X037134Y008986D02*
X037134Y008833D01*
X037057Y008756D01*
X037057Y008602D02*
X036980Y008602D01*
X036903Y008526D01*
X036903Y008372D01*
X036827Y008295D01*
X036750Y008295D01*
X036673Y008372D01*
X036673Y008526D01*
X036750Y008602D01*
X036673Y008756D02*
X036903Y008756D01*
X036827Y008909D01*
X036827Y008986D01*
X036903Y009063D01*
X037057Y009063D01*
X037134Y008986D01*
X037057Y008602D02*
X037134Y008526D01*
X037134Y008372D01*
X037057Y008295D01*
X037057Y008142D02*
X036673Y008142D01*
X036396Y008255D02*
X035935Y008255D01*
X036166Y008025D01*
X036166Y008332D01*
X036596Y008449D02*
X037210Y008449D01*
X037057Y008142D02*
X037134Y008065D01*
X037134Y007912D01*
X037057Y007835D01*
X036673Y007835D01*
X036396Y007871D02*
X036396Y007565D01*
X036089Y007871D01*
X036012Y007871D01*
X035935Y007795D01*
X035935Y007641D01*
X036012Y007565D01*
X036012Y007411D02*
X036319Y007104D01*
X036396Y007181D01*
X036396Y007334D01*
X036319Y007411D01*
X036012Y007411D01*
X035935Y007334D01*
X035935Y007181D01*
X036012Y007104D01*
X036319Y007104D01*
X036396Y006951D02*
X036242Y006797D01*
X036242Y006874D02*
X036242Y006644D01*
X036396Y006644D02*
X035935Y006644D01*
X035935Y006874D01*
X036012Y006951D01*
X036166Y006951D01*
X036242Y006874D01*
X036396Y006490D02*
X036396Y006183D01*
X035935Y006183D01*
X036012Y006030D02*
X035935Y005953D01*
X035935Y005723D01*
X036396Y005723D01*
X036396Y005570D02*
X036396Y005416D01*
X036396Y005493D02*
X035935Y005493D01*
X035935Y005416D02*
X035935Y005570D01*
X036242Y005723D02*
X036242Y005953D01*
X036166Y006030D01*
X036012Y006030D01*
X036242Y005877D02*
X036396Y006030D01*
X036673Y008756D02*
X036673Y009063D01*
X031996Y008155D02*
X031535Y008155D01*
X031766Y007925D01*
X031766Y008232D01*
X031689Y007771D02*
X031612Y007771D01*
X031535Y007695D01*
X031535Y007541D01*
X031612Y007465D01*
X031612Y007311D02*
X031919Y007004D01*
X031996Y007081D01*
X031996Y007234D01*
X031919Y007311D01*
X031612Y007311D01*
X031535Y007234D01*
X031535Y007081D01*
X031612Y007004D01*
X031919Y007004D01*
X031996Y006851D02*
X031842Y006697D01*
X031842Y006774D02*
X031842Y006544D01*
X031996Y006544D02*
X031535Y006544D01*
X031535Y006774D01*
X031612Y006851D01*
X031766Y006851D01*
X031842Y006774D01*
X031996Y006390D02*
X031996Y006083D01*
X031535Y006083D01*
X031612Y005930D02*
X031766Y005930D01*
X031842Y005853D01*
X031842Y005623D01*
X031842Y005777D02*
X031996Y005930D01*
X031996Y005623D02*
X031535Y005623D01*
X031535Y005853D01*
X031612Y005930D01*
X031535Y005470D02*
X031535Y005316D01*
X031535Y005393D02*
X031996Y005393D01*
X031996Y005316D02*
X031996Y005470D01*
X031996Y007465D02*
X031689Y007771D01*
X031996Y007771D02*
X031996Y007465D01*
X027305Y002027D02*
X027152Y002027D01*
X027075Y001950D01*
X027075Y001873D01*
X027152Y001796D01*
X027382Y001796D01*
X027382Y001643D02*
X027382Y001950D01*
X027305Y002027D01*
X026922Y001950D02*
X026845Y002027D01*
X026692Y002027D01*
X026615Y001950D01*
X026461Y001950D02*
X026461Y001796D01*
X026385Y001720D01*
X026155Y001720D01*
X026308Y001720D02*
X026461Y001566D01*
X026615Y001566D02*
X026922Y001873D01*
X026922Y001950D01*
X027075Y001643D02*
X027152Y001566D01*
X027305Y001566D01*
X027382Y001643D01*
X026922Y001566D02*
X026615Y001566D01*
X026461Y001950D02*
X026385Y002027D01*
X026155Y002027D01*
X026155Y001566D01*
X020882Y001643D02*
X020805Y001566D01*
X020652Y001566D01*
X020575Y001643D01*
X020882Y001950D01*
X020882Y001643D01*
X020575Y001643D02*
X020575Y001950D01*
X020652Y002027D01*
X020805Y002027D01*
X020882Y001950D01*
X020422Y002027D02*
X020268Y001950D01*
X020115Y001796D01*
X020345Y001796D01*
X020422Y001720D01*
X020422Y001643D01*
X020345Y001566D01*
X020192Y001566D01*
X020115Y001643D01*
X020115Y001796D01*
X019961Y001720D02*
X019961Y001643D01*
X019885Y001566D01*
X019731Y001566D01*
X019655Y001643D01*
X019808Y001796D02*
X019885Y001796D01*
X019961Y001720D01*
X019885Y001796D02*
X019961Y001873D01*
X019961Y001950D01*
X019885Y002027D01*
X019731Y002027D01*
X019655Y001950D01*
X017596Y002023D02*
X017442Y001870D01*
X017442Y001946D02*
X017442Y001716D01*
X017596Y001716D02*
X017135Y001716D01*
X017135Y001946D01*
X017212Y002023D01*
X017366Y002023D01*
X017442Y001946D01*
X017442Y002177D02*
X017442Y002407D01*
X017366Y002483D01*
X017212Y002483D01*
X017135Y002407D01*
X017135Y002177D01*
X017596Y002177D01*
X017519Y002637D02*
X017596Y002714D01*
X017596Y002867D01*
X017519Y002944D01*
X017366Y002944D01*
X017289Y002867D01*
X017289Y002790D01*
X017366Y002637D01*
X017135Y002637D01*
X017135Y002944D01*
X015596Y002983D02*
X015519Y002907D01*
X015596Y002983D02*
X015596Y003137D01*
X015519Y003214D01*
X015442Y003214D01*
X015366Y003137D01*
X015366Y003060D01*
X015366Y003137D02*
X015289Y003214D01*
X015212Y003214D01*
X015135Y003137D01*
X015135Y002983D01*
X015212Y002907D01*
X015519Y002753D02*
X015596Y002753D01*
X015596Y002677D01*
X015519Y002677D01*
X015519Y002753D01*
X015519Y002523D02*
X015596Y002446D01*
X015596Y002293D01*
X015519Y002216D01*
X015366Y002370D02*
X015366Y002446D01*
X015442Y002523D01*
X015519Y002523D01*
X015366Y002446D02*
X015289Y002523D01*
X015212Y002523D01*
X015135Y002446D01*
X015135Y002293D01*
X015212Y002216D01*
X014696Y002216D02*
X014235Y002216D01*
X014235Y002446D01*
X014312Y002523D01*
X014466Y002523D01*
X014542Y002446D01*
X014542Y002216D01*
X014619Y002677D02*
X014312Y002677D01*
X014235Y002753D01*
X014235Y002907D01*
X014312Y002983D01*
X014466Y002983D02*
X014466Y002830D01*
X014466Y002983D02*
X014619Y002983D01*
X014696Y002907D01*
X014696Y002753D01*
X014619Y002677D01*
X014619Y003137D02*
X014312Y003137D01*
X014235Y003214D01*
X014235Y003367D01*
X014312Y003444D01*
X014312Y003597D02*
X014235Y003674D01*
X014235Y003827D01*
X014312Y003904D01*
X014389Y003904D01*
X014466Y003827D01*
X014542Y003904D01*
X014619Y003904D01*
X014696Y003827D01*
X014696Y003674D01*
X014619Y003597D01*
X014619Y003444D02*
X014696Y003367D01*
X014696Y003214D01*
X014619Y003137D01*
X015135Y003367D02*
X015442Y003367D01*
X015596Y003521D01*
X015442Y003674D01*
X015135Y003674D01*
X014466Y003751D02*
X014466Y003827D01*
X013696Y003827D02*
X013696Y003674D01*
X013619Y003597D01*
X013619Y003444D02*
X013312Y003444D01*
X013235Y003367D01*
X013235Y003137D01*
X013696Y003137D01*
X013696Y003367D01*
X013619Y003444D01*
X013466Y003751D02*
X013466Y003827D01*
X013542Y003904D01*
X013619Y003904D01*
X013696Y003827D01*
X013466Y003827D02*
X013389Y003904D01*
X013312Y003904D01*
X013235Y003827D01*
X013235Y003674D01*
X013312Y003597D01*
X012796Y003367D02*
X012796Y003214D01*
X012719Y003137D01*
X012796Y002983D02*
X012489Y002983D01*
X012335Y002830D01*
X012489Y002677D01*
X012796Y002677D01*
X012796Y002523D02*
X012642Y002370D01*
X012642Y002446D02*
X012642Y002216D01*
X012796Y002216D02*
X012335Y002216D01*
X012335Y002446D01*
X012412Y002523D01*
X012566Y002523D01*
X012642Y002446D01*
X012566Y002677D02*
X012566Y002983D01*
X012412Y003137D02*
X012335Y003214D01*
X012335Y003367D01*
X012412Y003444D01*
X012489Y003444D01*
X012566Y003367D01*
X012642Y003444D01*
X012719Y003444D01*
X012796Y003367D01*
X012566Y003367D02*
X012566Y003290D01*
X013235Y002907D02*
X013312Y002983D01*
X013235Y002907D02*
X013235Y002753D01*
X013312Y002677D01*
X013619Y002677D01*
X013696Y002753D01*
X013696Y002907D01*
X013619Y002983D01*
X013466Y002983D01*
X013466Y002830D01*
X013466Y002523D02*
X013542Y002446D01*
X013542Y002216D01*
X013696Y002216D02*
X013235Y002216D01*
X013235Y002446D01*
X013312Y002523D01*
X013466Y002523D01*
X011796Y002523D02*
X011642Y002370D01*
X011642Y002446D02*
X011642Y002216D01*
X011796Y002216D02*
X011335Y002216D01*
X011335Y002446D01*
X011412Y002523D01*
X011566Y002523D01*
X011642Y002446D01*
X011566Y002677D02*
X011566Y002983D01*
X011489Y002983D02*
X011796Y002983D01*
X011796Y003137D02*
X011489Y003444D01*
X011412Y003444D01*
X011335Y003367D01*
X011335Y003214D01*
X011412Y003137D01*
X011489Y002983D02*
X011335Y002830D01*
X011489Y002677D01*
X011796Y002677D01*
X011796Y003137D02*
X011796Y003444D01*
X010696Y003367D02*
X010696Y003137D01*
X010235Y003137D01*
X010235Y003367D01*
X010312Y003444D01*
X010619Y003444D01*
X010696Y003367D01*
X010696Y002983D02*
X010235Y002983D01*
X010235Y002677D02*
X010696Y002983D01*
X010696Y002677D02*
X010235Y002677D01*
X010312Y002523D02*
X010235Y002446D01*
X010235Y002293D01*
X010312Y002216D01*
X010619Y002216D01*
X010696Y002293D01*
X010696Y002446D01*
X010619Y002523D01*
X010466Y002523D01*
X010466Y002370D01*
X009696Y002523D02*
X009389Y002523D01*
X009235Y002370D01*
X009389Y002216D01*
X009696Y002216D01*
X009466Y002216D02*
X009466Y002523D01*
X009696Y002677D02*
X009235Y002677D01*
X009696Y002983D01*
X009235Y002983D01*
X009235Y003137D02*
X009466Y003137D01*
X009389Y003290D01*
X009389Y003367D01*
X009466Y003444D01*
X009619Y003444D01*
X009696Y003367D01*
X009696Y003214D01*
X009619Y003137D01*
X009235Y003137D02*
X009235Y003444D01*
X008696Y003367D02*
X008235Y003367D01*
X008466Y003137D01*
X008466Y003444D01*
X008696Y002983D02*
X008235Y002983D01*
X008235Y002677D02*
X008696Y002983D01*
X008696Y002677D02*
X008235Y002677D01*
X008389Y002523D02*
X008235Y002370D01*
X008389Y002216D01*
X008696Y002216D01*
X008466Y002216D02*
X008466Y002523D01*
X008389Y002523D02*
X008696Y002523D01*
X007696Y002523D02*
X007389Y002523D01*
X007235Y002370D01*
X007389Y002216D01*
X007696Y002216D01*
X007466Y002216D02*
X007466Y002523D01*
X007696Y002677D02*
X007235Y002677D01*
X007696Y002983D01*
X007235Y002983D01*
X007312Y003137D02*
X007235Y003214D01*
X007235Y003367D01*
X007312Y003444D01*
X007389Y003444D01*
X007466Y003367D01*
X007542Y003444D01*
X007619Y003444D01*
X007696Y003367D01*
X007696Y003214D01*
X007619Y003137D01*
X007466Y003290D02*
X007466Y003367D01*
X006696Y003367D02*
X006696Y003214D01*
X006619Y003137D01*
X006312Y003444D01*
X006619Y003444D01*
X006696Y003367D01*
X006619Y003137D02*
X006312Y003137D01*
X006235Y003214D01*
X006235Y003367D01*
X006312Y003444D01*
X006312Y002983D02*
X006389Y002983D01*
X006466Y002907D01*
X006466Y002677D01*
X006466Y002523D02*
X006542Y002446D01*
X006542Y002216D01*
X006542Y002370D02*
X006696Y002523D01*
X006696Y002677D02*
X006235Y002677D01*
X006235Y002907D01*
X006312Y002983D01*
X006466Y002907D02*
X006542Y002983D01*
X006619Y002983D01*
X006696Y002907D01*
X006696Y002677D01*
X006466Y002523D02*
X006312Y002523D01*
X006235Y002446D01*
X006235Y002216D01*
X006696Y002216D01*
X005796Y002216D02*
X005335Y002216D01*
X005335Y002446D01*
X005412Y002523D01*
X005566Y002523D01*
X005642Y002446D01*
X005642Y002216D01*
X005642Y002370D02*
X005796Y002523D01*
X005796Y002677D02*
X005489Y002677D01*
X005335Y002830D01*
X005489Y002983D01*
X005796Y002983D01*
X005796Y003137D02*
X005796Y003444D01*
X005796Y003290D02*
X005335Y003290D01*
X005489Y003137D01*
X005566Y002983D02*
X005566Y002677D01*
X004796Y002677D02*
X004489Y002677D01*
X004335Y002830D01*
X004489Y002983D01*
X004796Y002983D01*
X004719Y003137D02*
X004412Y003444D01*
X004719Y003444D01*
X004796Y003367D01*
X004796Y003214D01*
X004719Y003137D01*
X004412Y003137D01*
X004335Y003214D01*
X004335Y003367D01*
X004412Y003444D01*
X004566Y002983D02*
X004566Y002677D01*
X004566Y002523D02*
X004642Y002446D01*
X004642Y002216D01*
X004642Y002370D02*
X004796Y002523D01*
X004566Y002523D02*
X004412Y002523D01*
X004335Y002446D01*
X004335Y002216D01*
X004796Y002216D01*
X003796Y002216D02*
X003335Y002216D01*
X003489Y002370D01*
X003335Y002523D01*
X003796Y002523D01*
X003719Y002677D02*
X003412Y002677D01*
X003335Y002753D01*
X003335Y002907D01*
X003412Y002983D01*
X003335Y003137D02*
X003796Y003137D01*
X003796Y003444D01*
X003796Y003597D02*
X003335Y003597D01*
X003335Y003827D01*
X003412Y003904D01*
X003566Y003904D01*
X003642Y003827D01*
X003642Y003597D01*
X003642Y003751D02*
X003796Y003904D01*
X003719Y002983D02*
X003796Y002907D01*
X003796Y002753D01*
X003719Y002677D01*
X004836Y005616D02*
X005143Y005616D01*
X005296Y005616D02*
X005296Y006077D01*
X005526Y006077D01*
X005603Y006000D01*
X005603Y005846D01*
X005526Y005770D01*
X005296Y005770D01*
X005450Y005770D02*
X005603Y005616D01*
X005756Y005693D02*
X005756Y006000D01*
X005833Y006077D01*
X005987Y006077D01*
X006063Y006000D01*
X006063Y005846D02*
X005910Y005846D01*
X006063Y005846D02*
X006063Y005693D01*
X005987Y005616D01*
X005833Y005616D01*
X005756Y005693D01*
X006217Y005846D02*
X006524Y005846D01*
X006677Y006000D02*
X006754Y006077D01*
X006907Y006077D01*
X006984Y006000D01*
X006984Y005923D01*
X006677Y005616D01*
X006984Y005616D01*
X007138Y005693D02*
X007214Y005616D01*
X007368Y005616D01*
X007444Y005693D01*
X007444Y005770D01*
X007368Y005846D01*
X007214Y005846D01*
X007138Y005923D01*
X007138Y006000D01*
X007214Y006077D01*
X007368Y006077D01*
X007444Y006000D01*
X007751Y006077D02*
X007905Y006077D01*
X007828Y006077D02*
X007828Y005693D01*
X007751Y005616D01*
X007675Y005616D01*
X007598Y005693D01*
X008058Y005693D02*
X008135Y005616D01*
X008288Y005616D01*
X008365Y005693D01*
X008365Y005770D01*
X008288Y005846D01*
X008212Y005846D01*
X008288Y005846D02*
X008365Y005923D01*
X008365Y006000D01*
X008288Y006077D01*
X008135Y006077D01*
X008058Y006000D01*
X008519Y006000D02*
X008519Y005693D01*
X008825Y006000D01*
X008825Y005693D01*
X008749Y005616D01*
X008595Y005616D01*
X008519Y005693D01*
X008519Y006000D02*
X008595Y006077D01*
X008749Y006077D01*
X008825Y006000D01*
X008979Y006000D02*
X008979Y005693D01*
X009286Y006000D01*
X009286Y005693D01*
X009209Y005616D01*
X009056Y005616D01*
X008979Y005693D01*
X008979Y006000D02*
X009056Y006077D01*
X009209Y006077D01*
X009286Y006000D01*
X008144Y006816D02*
X008144Y007046D01*
X008068Y007123D01*
X007991Y007046D01*
X007991Y006816D01*
X007838Y006816D02*
X007838Y007123D01*
X007914Y007123D01*
X007991Y007046D01*
X007684Y007046D02*
X007684Y006816D01*
X007684Y007046D02*
X007607Y007123D01*
X007454Y007123D01*
X007377Y007046D01*
X007224Y006893D02*
X007224Y007200D01*
X007147Y007277D01*
X006994Y007277D01*
X006917Y007200D01*
X006917Y006893D01*
X006994Y006816D01*
X007147Y006816D01*
X007224Y006893D01*
X007377Y006816D02*
X007377Y007277D01*
X006303Y007200D02*
X006303Y006893D01*
X006226Y006816D01*
X006073Y006816D01*
X005996Y006893D01*
X006303Y007200D01*
X006226Y007277D01*
X006073Y007277D01*
X005996Y007200D01*
X005996Y006893D01*
X005843Y006893D02*
X005766Y006816D01*
X005612Y006816D01*
X005536Y006893D01*
X005689Y007046D02*
X005766Y007046D01*
X005843Y006970D01*
X005843Y006893D01*
X005766Y007046D02*
X005843Y007123D01*
X005843Y007200D01*
X005766Y007277D01*
X005612Y007277D01*
X005536Y007200D01*
X005143Y006077D02*
X004836Y006077D01*
X004836Y005616D01*
X004836Y005846D02*
X004989Y005846D01*
X011036Y005823D02*
X011189Y005977D01*
X011189Y005516D01*
X011036Y005516D02*
X011343Y005516D01*
X011496Y005516D02*
X011496Y005977D01*
X011803Y005516D01*
X011803Y005977D01*
X011956Y005746D02*
X012263Y005746D01*
X012417Y005593D02*
X012417Y005516D01*
X012417Y005593D02*
X012724Y005900D01*
X012724Y005977D01*
X012417Y005977D01*
X012187Y005977D02*
X011956Y005746D01*
X012187Y005516D02*
X012187Y005977D01*
X012877Y005746D02*
X013184Y005746D01*
X013338Y005900D02*
X013414Y005977D01*
X013568Y005977D01*
X013644Y005900D01*
X013644Y005823D01*
X013338Y005516D01*
X013644Y005516D01*
X013798Y005516D02*
X013798Y005823D01*
X013951Y005977D01*
X014105Y005823D01*
X014105Y005516D01*
X014105Y005746D02*
X013798Y005746D01*
X014258Y005746D02*
X014565Y005746D01*
X014719Y005977D02*
X015025Y005977D01*
X014872Y005977D02*
X014872Y005516D01*
X015179Y005516D02*
X015179Y005977D01*
X015409Y005977D01*
X015486Y005900D01*
X015486Y005746D01*
X015409Y005670D01*
X015179Y005670D01*
X015332Y005670D02*
X015486Y005516D01*
X013107Y005516D02*
X013107Y005977D01*
X012877Y005746D01*
X012954Y007516D02*
X012877Y007593D01*
X012954Y007516D02*
X013107Y007516D01*
X013184Y007593D01*
X013184Y007670D01*
X013107Y007746D01*
X013031Y007746D01*
X013107Y007746D02*
X013184Y007823D01*
X013184Y007900D01*
X013107Y007977D01*
X012954Y007977D01*
X012877Y007900D01*
X012724Y007900D02*
X012417Y007593D01*
X012417Y007516D01*
X012187Y007516D02*
X012187Y007977D01*
X011956Y007746D01*
X012263Y007746D01*
X012417Y007977D02*
X012724Y007977D01*
X012724Y007900D01*
X013338Y007900D02*
X013414Y007977D01*
X013568Y007977D01*
X013644Y007900D01*
X013644Y007823D01*
X013568Y007746D01*
X013644Y007670D01*
X013644Y007593D01*
X013568Y007516D01*
X013414Y007516D01*
X013338Y007593D01*
X013491Y007746D02*
X013568Y007746D01*
X013798Y007746D02*
X014105Y007746D01*
X014105Y007823D02*
X014105Y007516D01*
X014258Y007746D02*
X014565Y007746D01*
X014719Y007977D02*
X015025Y007977D01*
X014872Y007977D02*
X014872Y007516D01*
X015179Y007516D02*
X015179Y007977D01*
X015409Y007977D01*
X015486Y007900D01*
X015486Y007746D01*
X015409Y007670D01*
X015179Y007670D01*
X015332Y007670D02*
X015486Y007516D01*
X014105Y007823D02*
X013951Y007977D01*
X013798Y007823D01*
X013798Y007516D01*
X011803Y007516D02*
X011803Y007977D01*
X011496Y007977D02*
X011803Y007516D01*
X011496Y007516D02*
X011496Y007977D01*
X011189Y007977D02*
X011189Y007516D01*
X011036Y007516D02*
X011343Y007516D01*
X011036Y007823D02*
X011189Y007977D01*
X004119Y015516D02*
X003812Y015823D01*
X004119Y015823D01*
X004196Y015746D01*
X004196Y015593D01*
X004119Y015516D01*
X003812Y015516D01*
X003735Y015593D01*
X003735Y015746D01*
X003812Y015823D01*
X004119Y015977D02*
X004119Y016053D01*
X004196Y016053D01*
X004196Y015977D01*
X004119Y015977D01*
X004196Y016207D02*
X004196Y016514D01*
X004196Y016360D02*
X003735Y016360D01*
X003889Y016207D01*
X003889Y016667D02*
X004119Y016667D01*
X004196Y016744D01*
X004196Y016974D01*
X003889Y016974D01*
X003966Y017127D02*
X003966Y017281D01*
X004196Y017127D02*
X003735Y017127D01*
X003735Y017434D01*
X003196Y018716D02*
X002889Y019023D01*
X002812Y019023D01*
X002735Y018946D01*
X002735Y018793D01*
X002812Y018716D01*
X003196Y018716D02*
X003196Y019023D01*
X003196Y019177D02*
X003196Y019253D01*
X003119Y019253D01*
X003119Y019177D01*
X003196Y019177D01*
X003196Y019407D02*
X002889Y019714D01*
X002812Y019714D01*
X002735Y019637D01*
X002735Y019483D01*
X002812Y019407D01*
X003196Y019407D02*
X003196Y019714D01*
X003196Y019867D02*
X002735Y019867D01*
X002889Y020097D02*
X003042Y019867D01*
X003196Y020097D01*
X004036Y020816D02*
X004343Y020816D01*
X004496Y020816D02*
X004803Y021123D01*
X004803Y021200D01*
X004726Y021277D01*
X004573Y021277D01*
X004496Y021200D01*
X004189Y021277D02*
X004189Y020816D01*
X004496Y020816D02*
X004803Y020816D01*
X004956Y020816D02*
X004956Y021277D01*
X005110Y021123D01*
X005263Y021277D01*
X005263Y020816D01*
X005417Y020893D02*
X005494Y020816D01*
X005647Y020816D01*
X005724Y020893D01*
X005877Y020816D02*
X006184Y021123D01*
X006184Y021200D01*
X006107Y021277D01*
X005954Y021277D01*
X005877Y021200D01*
X005724Y021200D02*
X005647Y021277D01*
X005494Y021277D01*
X005417Y021200D01*
X005417Y020893D01*
X005877Y020816D02*
X006184Y020816D01*
X006338Y020893D02*
X006644Y021200D01*
X006644Y020893D01*
X006568Y020816D01*
X006414Y020816D01*
X006338Y020893D01*
X006338Y021200D01*
X006414Y021277D01*
X006568Y021277D01*
X006644Y021200D01*
X006798Y021200D02*
X006875Y021277D01*
X007028Y021277D01*
X007105Y021200D01*
X007105Y021123D01*
X006798Y020816D01*
X007105Y020816D01*
X007105Y021516D02*
X007105Y021977D01*
X007412Y021977D01*
X007258Y021746D02*
X007105Y021746D01*
X006951Y021670D02*
X006951Y021593D01*
X006875Y021516D01*
X006721Y021516D01*
X006644Y021593D01*
X006491Y021593D02*
X006414Y021516D01*
X006261Y021516D01*
X006184Y021593D01*
X006031Y021593D02*
X005954Y021516D01*
X005800Y021516D01*
X005724Y021593D01*
X005724Y021900D01*
X005800Y021977D01*
X005954Y021977D01*
X006031Y021900D01*
X006184Y021900D02*
X006261Y021977D01*
X006414Y021977D01*
X006491Y021900D01*
X006491Y021823D01*
X006414Y021746D01*
X006491Y021670D01*
X006491Y021593D01*
X006414Y021746D02*
X006337Y021746D01*
X006644Y021900D02*
X006721Y021977D01*
X006875Y021977D01*
X006951Y021900D01*
X006951Y021823D01*
X006875Y021746D01*
X006951Y021670D01*
X006875Y021746D02*
X006798Y021746D01*
X007565Y021593D02*
X007642Y021516D01*
X007719Y021516D01*
X007795Y021593D01*
X007795Y021977D01*
X007719Y021977D02*
X007872Y021977D01*
X005570Y021977D02*
X005417Y021977D01*
X005494Y021977D02*
X005494Y021516D01*
X005570Y021516D02*
X005417Y021516D01*
X005187Y021670D02*
X004956Y021670D01*
X004956Y021516D02*
X004956Y021977D01*
X005187Y021977D01*
X005263Y021900D01*
X005263Y021746D01*
X005187Y021670D01*
X004803Y021593D02*
X004726Y021670D01*
X004573Y021670D01*
X004496Y021746D01*
X004573Y021823D01*
X004803Y021823D01*
X004803Y021593D02*
X004726Y021516D01*
X004496Y021516D01*
X004343Y021516D02*
X004112Y021516D01*
X004036Y021593D01*
X004036Y021746D01*
X004112Y021823D01*
X004343Y021823D01*
X004343Y021977D02*
X004343Y021516D01*
X004189Y021277D02*
X004036Y021123D01*
X013936Y025416D02*
X014166Y025416D01*
X014243Y025493D01*
X014243Y025800D01*
X014166Y025877D01*
X013936Y025877D01*
X013936Y025416D01*
X014396Y025416D02*
X014396Y025877D01*
X014703Y025416D01*
X014703Y025877D01*
X014856Y025877D02*
X015010Y025877D01*
X014933Y025877D02*
X014933Y025416D01*
X014856Y025416D02*
X015010Y025416D01*
X015736Y023777D02*
X015966Y023777D01*
X016043Y023700D01*
X016043Y023393D01*
X015966Y023316D01*
X015736Y023316D01*
X015736Y023777D01*
X016196Y023777D02*
X016503Y023777D01*
X016350Y023777D02*
X016350Y023316D01*
X016424Y022077D02*
X016424Y021616D01*
X016424Y021846D02*
X016117Y021846D01*
X015963Y021770D02*
X015963Y021693D01*
X015887Y021616D01*
X015733Y021616D01*
X015656Y021693D01*
X015733Y021846D02*
X015887Y021846D01*
X015963Y021770D01*
X016117Y021616D02*
X016117Y022077D01*
X015963Y022000D02*
X015887Y022077D01*
X015733Y022077D01*
X015656Y022000D01*
X015656Y021923D01*
X015733Y021846D01*
X015503Y022077D02*
X015196Y022077D01*
X015196Y021616D01*
X015043Y021616D02*
X014889Y021770D01*
X014966Y021770D02*
X014736Y021770D01*
X014736Y021616D02*
X014736Y022077D01*
X014966Y022077D01*
X015043Y022000D01*
X015043Y021846D01*
X014966Y021770D01*
X015196Y021846D02*
X015350Y021846D01*
X014750Y023116D02*
X014596Y023270D01*
X014596Y023577D01*
X014443Y023577D02*
X014443Y023193D01*
X014366Y023116D01*
X014212Y023116D01*
X014136Y023193D01*
X014136Y023577D01*
X014903Y023577D02*
X014903Y023270D01*
X014750Y023116D01*
X018736Y021200D02*
X018736Y020893D01*
X019043Y021200D01*
X019043Y020893D01*
X018966Y020816D01*
X018812Y020816D01*
X018736Y020893D01*
X018736Y021200D02*
X018812Y021277D01*
X018966Y021277D01*
X019043Y021200D01*
X019196Y020893D02*
X019273Y020893D01*
X019273Y020816D01*
X019196Y020816D01*
X019196Y020893D01*
X019426Y020816D02*
X019733Y020816D01*
X019580Y020816D02*
X019580Y021277D01*
X019426Y021123D01*
X019887Y021123D02*
X019887Y020893D01*
X019963Y020816D01*
X020194Y020816D01*
X020194Y021123D01*
X020347Y021046D02*
X020500Y021046D01*
X020347Y020816D02*
X020347Y021277D01*
X020654Y021277D01*
X020721Y027816D02*
X020875Y027816D01*
X020951Y027893D01*
X020951Y027970D01*
X020875Y028046D01*
X020644Y028046D01*
X020644Y027893D01*
X020721Y027816D01*
X020491Y027893D02*
X020414Y027816D01*
X020261Y027816D01*
X020184Y027893D01*
X020184Y027970D01*
X020261Y028046D01*
X020414Y028046D01*
X020491Y027970D01*
X020491Y027893D01*
X020414Y028046D02*
X020491Y028123D01*
X020491Y028200D01*
X020414Y028277D01*
X020261Y028277D01*
X020184Y028200D01*
X020184Y028123D01*
X020261Y028046D01*
X020031Y027893D02*
X019954Y027816D01*
X019800Y027816D01*
X019724Y027893D01*
X020031Y028200D01*
X020031Y027893D01*
X020031Y028200D02*
X019954Y028277D01*
X019800Y028277D01*
X019724Y028200D01*
X019724Y027893D01*
X019570Y028046D02*
X019263Y028046D01*
X019494Y028277D01*
X019494Y027816D01*
X019110Y028046D02*
X019110Y028200D01*
X019033Y028277D01*
X018803Y028277D01*
X018803Y027816D01*
X018650Y027816D02*
X018496Y027816D01*
X018573Y027816D02*
X018573Y028277D01*
X018496Y028277D02*
X018650Y028277D01*
X018343Y028277D02*
X018343Y027816D01*
X018343Y028046D02*
X018036Y028046D01*
X018036Y027816D02*
X018036Y028277D01*
X018803Y027970D02*
X019033Y027970D01*
X019110Y028046D01*
X020644Y028046D02*
X020798Y028200D01*
X020951Y028277D01*
X016796Y033035D02*
X016335Y033035D01*
X016335Y033265D01*
X016412Y033342D01*
X016566Y033342D01*
X016642Y033265D01*
X016642Y033035D01*
X016642Y033189D02*
X016796Y033342D01*
X016796Y033495D02*
X016335Y033495D01*
X016335Y033726D01*
X016412Y033802D01*
X016566Y033802D01*
X016642Y033726D01*
X016642Y033495D01*
X015796Y033495D02*
X015796Y033726D01*
X015719Y033802D01*
X015642Y033802D01*
X015566Y033726D01*
X015566Y033495D01*
X015566Y033342D02*
X015642Y033265D01*
X015642Y033035D01*
X015642Y033189D02*
X015796Y033342D01*
X015796Y033495D02*
X015335Y033495D01*
X015335Y033726D01*
X015412Y033802D01*
X015489Y033802D01*
X015566Y033726D01*
X015719Y033956D02*
X015412Y034263D01*
X015335Y034263D01*
X015335Y033956D01*
X015719Y033956D02*
X015796Y033956D01*
X016335Y034263D02*
X016412Y034109D01*
X016566Y033956D01*
X016566Y034186D01*
X016642Y034263D01*
X016719Y034263D01*
X016796Y034186D01*
X016796Y034032D01*
X016719Y033956D01*
X016566Y033956D01*
X015566Y033342D02*
X015412Y033342D01*
X015335Y033265D01*
X015335Y033035D01*
X015796Y033035D01*
X014796Y033035D02*
X014335Y033035D01*
X014335Y033265D01*
X014412Y033342D01*
X014566Y033342D01*
X014642Y033265D01*
X014642Y033035D01*
X014642Y033189D02*
X014796Y033342D01*
X014796Y033495D02*
X014796Y033726D01*
X014719Y033802D01*
X014642Y033802D01*
X014566Y033726D01*
X014566Y033495D01*
X014796Y033495D02*
X014335Y033495D01*
X014335Y033726D01*
X014412Y033802D01*
X014489Y033802D01*
X014566Y033726D01*
X014642Y033956D02*
X014566Y034032D01*
X014566Y034186D01*
X014642Y034263D01*
X014719Y034263D01*
X014796Y034186D01*
X014796Y034032D01*
X014719Y033956D01*
X014642Y033956D01*
X014566Y034032D02*
X014489Y033956D01*
X014412Y033956D01*
X014335Y034032D01*
X014335Y034186D01*
X014412Y034263D01*
X014489Y034263D01*
X014566Y034186D01*
X013796Y034186D02*
X013719Y034263D01*
X013412Y034263D01*
X013335Y034186D01*
X013335Y034032D01*
X013412Y033956D01*
X013489Y033956D01*
X013566Y034032D01*
X013566Y034263D01*
X013796Y034186D02*
X013796Y034032D01*
X013719Y033956D01*
X013719Y033802D02*
X013796Y033726D01*
X013796Y033495D01*
X013335Y033495D01*
X013335Y033726D01*
X013412Y033802D01*
X013489Y033802D01*
X013566Y033726D01*
X013566Y033495D01*
X013566Y033342D02*
X013642Y033265D01*
X013642Y033035D01*
X013642Y033189D02*
X013796Y033342D01*
X013566Y033342D02*
X013412Y033342D01*
X013335Y033265D01*
X013335Y033035D01*
X013796Y033035D01*
X013566Y033726D02*
X013642Y033802D01*
X013719Y033802D01*
X012796Y033802D02*
X012335Y033802D01*
X012335Y033956D02*
X012335Y034186D01*
X012412Y034263D01*
X012719Y034263D01*
X012796Y034186D01*
X012796Y033956D01*
X012335Y033956D01*
X012335Y033495D02*
X012796Y033802D01*
X012796Y033495D02*
X012335Y033495D01*
X012412Y033342D02*
X012335Y033265D01*
X012335Y033112D01*
X012412Y033035D01*
X012719Y033035D01*
X012796Y033112D01*
X012796Y033265D01*
X012719Y033342D01*
X012566Y033342D01*
X012566Y033189D01*
X011796Y033112D02*
X011796Y033265D01*
X011719Y033342D01*
X011412Y033342D01*
X011335Y033265D01*
X011335Y033112D01*
X011412Y033035D01*
X011719Y033035D01*
X011796Y033112D01*
X011719Y032881D02*
X011796Y032805D01*
X011796Y032651D01*
X011719Y032575D01*
X011412Y032575D01*
X011335Y032651D01*
X011335Y032805D01*
X011412Y032881D01*
X010796Y032881D02*
X010335Y032881D01*
X010489Y032728D01*
X010335Y032575D01*
X010796Y032575D01*
X010796Y032421D02*
X010335Y032421D01*
X010335Y032114D02*
X010796Y032114D01*
X010642Y032268D01*
X010796Y032421D01*
X010566Y031961D02*
X010412Y031961D01*
X010335Y031884D01*
X010335Y031654D01*
X010796Y031654D01*
X010642Y031654D02*
X010642Y031884D01*
X010566Y031961D01*
X011335Y031884D02*
X011335Y031654D01*
X011796Y031654D01*
X011796Y031884D01*
X011719Y031961D01*
X011412Y031961D01*
X011335Y031884D01*
X011335Y032114D02*
X011335Y032344D01*
X011412Y032421D01*
X011719Y032421D01*
X011796Y032344D01*
X011796Y032114D01*
X011335Y032114D01*
X011335Y031500D02*
X011642Y031500D01*
X011796Y031347D01*
X011642Y031194D01*
X011335Y031194D01*
X009796Y031654D02*
X009335Y031654D01*
X009335Y031884D01*
X009412Y031961D01*
X009566Y031961D01*
X009642Y031884D01*
X009642Y031654D01*
X009796Y032114D02*
X009335Y032114D01*
X009335Y032421D02*
X009796Y032421D01*
X009642Y032268D01*
X009796Y032114D01*
X009796Y032575D02*
X009335Y032575D01*
X009489Y032728D01*
X009335Y032881D01*
X009796Y032881D01*
X009796Y033035D02*
X009796Y033342D01*
X009796Y033495D02*
X009796Y033802D01*
X009719Y033956D02*
X009796Y034032D01*
X009796Y034186D01*
X009719Y034263D01*
X009642Y034263D01*
X009566Y034186D01*
X009566Y034109D01*
X009566Y034186D02*
X009489Y034263D01*
X009412Y034263D01*
X009335Y034186D01*
X009335Y034032D01*
X009412Y033956D01*
X010335Y034032D02*
X010335Y034186D01*
X010412Y034263D01*
X010489Y034263D01*
X010566Y034186D01*
X010642Y034263D01*
X010719Y034263D01*
X010796Y034186D01*
X010796Y034032D01*
X010719Y033956D01*
X010796Y033802D02*
X010335Y033802D01*
X010412Y033956D02*
X010335Y034032D01*
X010566Y034109D02*
X010566Y034186D01*
X010566Y033802D02*
X010566Y033495D01*
X010796Y033495D02*
X010335Y033495D01*
X010335Y033188D02*
X010796Y033188D01*
X010796Y033035D02*
X010796Y033342D01*
X010489Y033035D02*
X010335Y033188D01*
X009796Y033188D02*
X009335Y033188D01*
X009489Y033035D01*
X009335Y033495D02*
X009796Y033495D01*
X008796Y033495D02*
X008335Y033495D01*
X008566Y033495D02*
X008566Y033802D01*
X008412Y033956D02*
X008335Y034032D01*
X008335Y034186D01*
X008412Y034263D01*
X008489Y034263D01*
X008796Y033956D01*
X008796Y034263D01*
X008796Y033802D02*
X008335Y033802D01*
X007796Y033802D02*
X007796Y033495D01*
X007335Y033495D01*
X007335Y033188D02*
X007796Y033188D01*
X007796Y033035D02*
X007796Y033342D01*
X007489Y033035D02*
X007335Y033188D01*
X007335Y032881D02*
X007796Y032881D01*
X007796Y032575D02*
X007335Y032575D01*
X007489Y032728D01*
X007335Y032881D01*
X006796Y032881D02*
X006335Y032881D01*
X006489Y032728D01*
X006335Y032575D01*
X006796Y032575D01*
X006796Y032421D02*
X006335Y032421D01*
X006335Y032114D02*
X006796Y032114D01*
X006642Y032268D01*
X006796Y032421D01*
X006566Y031961D02*
X006642Y031884D01*
X006642Y031654D01*
X006796Y031654D02*
X006335Y031654D01*
X006335Y031884D01*
X006412Y031961D01*
X006566Y031961D01*
X005796Y032114D02*
X005642Y032268D01*
X005796Y032421D01*
X005335Y032421D01*
X005335Y032575D02*
X005489Y032728D01*
X005335Y032881D01*
X005796Y032881D01*
X005796Y033035D02*
X005796Y033342D01*
X005796Y033495D02*
X005796Y033802D01*
X005796Y033956D02*
X005796Y034263D01*
X005796Y034109D02*
X005335Y034109D01*
X005489Y033956D01*
X004796Y033956D02*
X004796Y034186D01*
X004719Y034263D01*
X004412Y034263D01*
X004335Y034186D01*
X004335Y033956D01*
X004796Y033956D01*
X004796Y033802D02*
X004335Y033802D01*
X004335Y033495D02*
X004796Y033802D01*
X004796Y033495D02*
X004335Y033495D01*
X004412Y033342D02*
X004335Y033265D01*
X004335Y033112D01*
X004412Y033035D01*
X004719Y033035D01*
X004796Y033112D01*
X004796Y033265D01*
X004719Y033342D01*
X004566Y033342D01*
X004566Y033189D01*
X003796Y033265D02*
X003796Y033342D01*
X003719Y033342D01*
X003719Y033265D01*
X003796Y033265D01*
X003719Y033112D02*
X003642Y033112D01*
X003566Y033035D01*
X003566Y032958D01*
X003566Y033035D02*
X003489Y033112D01*
X003412Y033112D01*
X003335Y033035D01*
X003335Y032882D01*
X003412Y032805D01*
X003719Y032805D02*
X003796Y032882D01*
X003796Y033035D01*
X003719Y033112D01*
X003719Y033495D02*
X003796Y033572D01*
X003796Y033726D01*
X003719Y033802D01*
X003642Y033802D01*
X003566Y033726D01*
X003566Y033649D01*
X003566Y033726D02*
X003489Y033802D01*
X003412Y033802D01*
X003335Y033726D01*
X003335Y033572D01*
X003412Y033495D01*
X003335Y033956D02*
X003642Y033956D01*
X003796Y034109D01*
X003642Y034263D01*
X003335Y034263D01*
X005335Y033495D02*
X005796Y033495D01*
X005796Y033188D02*
X005335Y033188D01*
X005489Y033035D01*
X005335Y032575D02*
X005796Y032575D01*
X005796Y032114D02*
X005335Y032114D01*
X005412Y031961D02*
X005566Y031961D01*
X005642Y031884D01*
X005642Y031654D01*
X005796Y031654D02*
X005335Y031654D01*
X005335Y031884D01*
X005412Y031961D01*
X006489Y033035D02*
X006335Y033188D01*
X006796Y033188D01*
X006796Y033035D02*
X006796Y033342D01*
X006796Y033495D02*
X006335Y033495D01*
X006566Y033495D02*
X006566Y033802D01*
X006489Y033956D02*
X006335Y034109D01*
X006796Y034109D01*
X006796Y033956D02*
X006796Y034263D01*
X006796Y033802D02*
X006335Y033802D01*
X007335Y034032D02*
X007412Y033956D01*
X007335Y034032D02*
X007335Y034186D01*
X007412Y034263D01*
X007489Y034263D01*
X007796Y033956D01*
X007796Y034263D01*
X008796Y033342D02*
X008796Y033035D01*
X008796Y033188D02*
X008335Y033188D01*
X008489Y033035D01*
X008335Y032881D02*
X008796Y032881D01*
X008796Y032575D02*
X008335Y032575D01*
X008489Y032728D01*
X008335Y032881D01*
X008335Y032421D02*
X008796Y032421D01*
X008642Y032268D01*
X008796Y032114D01*
X008335Y032114D01*
X008412Y031961D02*
X008335Y031884D01*
X008335Y031654D01*
X008796Y031654D01*
X008642Y031654D02*
X008642Y031884D01*
X008566Y031961D01*
X008412Y031961D01*
X007796Y032114D02*
X007642Y032268D01*
X007796Y032421D01*
X007335Y032421D01*
X007335Y032114D02*
X007796Y032114D01*
X007642Y031884D02*
X007642Y031654D01*
X007796Y031654D02*
X007335Y031654D01*
X007335Y031884D01*
X007412Y031961D01*
X007566Y031961D01*
X007642Y031884D01*
X011335Y033495D02*
X011335Y033725D01*
X011412Y033802D01*
X011566Y033802D01*
X011642Y033725D01*
X011642Y033495D01*
X011642Y033649D02*
X011796Y033802D01*
X011796Y033956D02*
X011335Y033956D01*
X011335Y034263D01*
X011566Y034109D02*
X011566Y033956D01*
X011796Y033956D02*
X011796Y034263D01*
X011796Y033495D02*
X011335Y033495D01*
X031535Y028655D02*
X031766Y028425D01*
X031766Y028732D01*
X031996Y028655D02*
X031535Y028655D01*
X031612Y028271D02*
X031535Y028195D01*
X031535Y028041D01*
X031612Y027965D01*
X031612Y027811D02*
X031919Y027504D01*
X031996Y027581D01*
X031996Y027734D01*
X031919Y027811D01*
X031612Y027811D01*
X031535Y027734D01*
X031535Y027581D01*
X031612Y027504D01*
X031919Y027504D01*
X031996Y027351D02*
X031842Y027197D01*
X031842Y027274D02*
X031842Y027044D01*
X031996Y027044D02*
X031535Y027044D01*
X031535Y027274D01*
X031612Y027351D01*
X031766Y027351D01*
X031842Y027274D01*
X031996Y026890D02*
X031996Y026583D01*
X031535Y026583D01*
X031612Y026430D02*
X031766Y026430D01*
X031842Y026353D01*
X031842Y026123D01*
X031842Y026277D02*
X031996Y026430D01*
X031996Y026123D02*
X031535Y026123D01*
X031535Y026353D01*
X031612Y026430D01*
X031535Y025970D02*
X031535Y025816D01*
X031535Y025893D02*
X031996Y025893D01*
X031996Y025816D02*
X031996Y025970D01*
X031996Y027965D02*
X031689Y028271D01*
X031612Y028271D01*
X031996Y028271D02*
X031996Y027965D01*
X036035Y028041D02*
X036112Y027965D01*
X036035Y028041D02*
X036035Y028195D01*
X036112Y028271D01*
X036189Y028271D01*
X036496Y027965D01*
X036496Y028271D01*
X036673Y028372D02*
X036673Y028526D01*
X036750Y028602D01*
X036903Y028526D02*
X036903Y028372D01*
X036827Y028295D01*
X036750Y028295D01*
X036673Y028372D01*
X036596Y028449D02*
X037210Y028449D01*
X037134Y028372D02*
X037134Y028526D01*
X037057Y028602D01*
X036980Y028602D01*
X036903Y028526D01*
X036903Y028756D02*
X036903Y029063D01*
X036673Y028986D02*
X036903Y028756D01*
X037134Y028986D02*
X036673Y028986D01*
X036496Y028655D02*
X036035Y028655D01*
X036266Y028425D01*
X036266Y028732D01*
X036673Y028142D02*
X037057Y028142D01*
X037134Y028065D01*
X037134Y027912D01*
X037057Y027835D01*
X036673Y027835D01*
X036496Y027734D02*
X036496Y027581D01*
X036419Y027504D01*
X036112Y027811D01*
X036419Y027811D01*
X036496Y027734D01*
X036419Y027504D02*
X036112Y027504D01*
X036035Y027581D01*
X036035Y027734D01*
X036112Y027811D01*
X036112Y027351D02*
X036266Y027351D01*
X036342Y027274D01*
X036342Y027044D01*
X036342Y027197D02*
X036496Y027351D01*
X036496Y027044D02*
X036035Y027044D01*
X036035Y027274D01*
X036112Y027351D01*
X036496Y026890D02*
X036496Y026583D01*
X036035Y026583D01*
X036112Y026430D02*
X036266Y026430D01*
X036342Y026353D01*
X036342Y026123D01*
X036342Y026277D02*
X036496Y026430D01*
X036496Y026123D02*
X036035Y026123D01*
X036035Y026353D01*
X036112Y026430D01*
X036035Y025970D02*
X036035Y025816D01*
X036035Y025893D02*
X036496Y025893D01*
X036496Y025816D02*
X036496Y025970D01*
X037057Y028295D02*
X037134Y028372D01*
X036647Y031316D02*
X036647Y031777D01*
X036954Y031777D01*
X036800Y031546D02*
X036647Y031546D01*
X036494Y031623D02*
X036494Y031316D01*
X036263Y031316D01*
X036187Y031393D01*
X036187Y031623D01*
X036033Y031316D02*
X035726Y031316D01*
X035573Y031316D02*
X035496Y031316D01*
X035496Y031393D01*
X035573Y031393D01*
X035573Y031316D01*
X035343Y031393D02*
X035266Y031316D01*
X035112Y031316D01*
X035036Y031393D01*
X035343Y031700D01*
X035343Y031393D01*
X035343Y031700D02*
X035266Y031777D01*
X035112Y031777D01*
X035036Y031700D01*
X035036Y031393D01*
X035726Y031623D02*
X035880Y031777D01*
X035880Y031316D01*
X037336Y032370D02*
X037489Y032216D01*
X037643Y032370D01*
X037643Y032677D01*
X037796Y032600D02*
X037796Y032293D01*
X037873Y032216D01*
X038026Y032216D01*
X038103Y032293D01*
X038103Y032600D01*
X038026Y032677D01*
X037873Y032677D01*
X037796Y032600D01*
X038256Y032600D02*
X038256Y032293D01*
X038333Y032216D01*
X038487Y032216D01*
X038563Y032293D01*
X038717Y032216D02*
X038717Y032677D01*
X038563Y032600D02*
X038487Y032677D01*
X038333Y032677D01*
X038256Y032600D01*
X038717Y032446D02*
X039024Y032446D01*
X039024Y032216D02*
X039024Y032677D01*
X037336Y032677D02*
X037336Y032370D01*
X037374Y033316D02*
X037067Y033316D01*
X037067Y033777D01*
X036913Y033700D02*
X036837Y033777D01*
X036683Y033777D01*
X036606Y033700D01*
X036606Y033393D01*
X036683Y033316D01*
X036837Y033316D01*
X036913Y033393D01*
X036453Y033393D02*
X036453Y033700D01*
X036376Y033777D01*
X036223Y033777D01*
X036146Y033700D01*
X036146Y033393D01*
X036223Y033316D01*
X036376Y033316D01*
X036453Y033393D01*
X035993Y033470D02*
X035993Y033777D01*
X035686Y033777D02*
X035686Y033470D01*
X035839Y033316D01*
X035993Y033470D01*
X041791Y030050D02*
X041868Y029897D01*
X042021Y029743D01*
X042021Y029973D01*
X042098Y030050D01*
X042175Y030050D01*
X042252Y029973D01*
X042252Y029820D01*
X042175Y029743D01*
X042021Y029743D01*
X042252Y029590D02*
X042252Y029283D01*
X042252Y029436D02*
X041791Y029436D01*
X041945Y029283D01*
X041868Y029129D02*
X042175Y028822D01*
X042252Y028822D01*
X042175Y028669D02*
X042252Y028592D01*
X042252Y028439D01*
X042175Y028362D01*
X042175Y028209D02*
X042252Y028132D01*
X042252Y027978D01*
X042175Y027902D01*
X041868Y027902D01*
X041791Y027978D01*
X041791Y028132D01*
X041868Y028209D01*
X041868Y028362D02*
X041945Y028362D01*
X042021Y028439D01*
X042021Y028592D01*
X042098Y028669D01*
X042175Y028669D01*
X041868Y028669D02*
X041791Y028592D01*
X041791Y028439D01*
X041868Y028362D01*
X041791Y028822D02*
X041791Y029129D01*
X041868Y029129D01*
X043235Y029370D02*
X043696Y029370D01*
X043696Y029523D02*
X043696Y029216D01*
X043389Y029216D02*
X043235Y029370D01*
X043389Y029677D02*
X043389Y029907D01*
X043466Y029983D01*
X043696Y029983D01*
X043696Y030137D02*
X043235Y030137D01*
X043235Y030444D01*
X043466Y030290D02*
X043466Y030137D01*
X043389Y029677D02*
X043696Y029677D01*
X043596Y031216D02*
X043135Y031216D01*
X043135Y031446D01*
X043212Y031523D01*
X043519Y031523D01*
X043596Y031446D01*
X043596Y031216D01*
X043596Y031677D02*
X043135Y031677D01*
X043596Y031983D01*
X043135Y031983D01*
X043135Y032137D02*
X043135Y032290D01*
X043135Y032214D02*
X043596Y032214D01*
X043596Y032290D02*
X043596Y032137D01*
X045535Y030583D02*
X045842Y030277D01*
X045766Y030353D02*
X045996Y030583D01*
X045996Y030277D02*
X045535Y030277D01*
X045535Y029970D02*
X045996Y029970D01*
X045996Y030123D02*
X045996Y029816D01*
X045689Y029816D02*
X045535Y029970D01*
X042252Y027748D02*
X041945Y027748D01*
X041791Y027595D01*
X041945Y027441D01*
X042252Y027441D01*
X042021Y027441D02*
X042021Y027748D01*
X047535Y032970D02*
X047689Y032816D01*
X047535Y032970D02*
X047996Y032970D01*
X047996Y033123D02*
X047996Y032816D01*
X047996Y033277D02*
X047535Y033277D01*
X047766Y033353D02*
X047996Y033583D01*
X047842Y033277D02*
X047535Y033583D01*
X049535Y033583D02*
X049842Y033277D01*
X049766Y033353D02*
X049996Y033583D01*
X049996Y033277D02*
X049535Y033277D01*
X049535Y032970D02*
X049996Y032970D01*
X049996Y033123D02*
X049996Y032816D01*
X049689Y032816D02*
X049535Y032970D01*
D12*
X041266Y025996D02*
X039266Y025996D01*
X039266Y024996D01*
X041266Y024996D01*
X041266Y025496D01*
X041516Y025496D01*
X041266Y025496D02*
X041266Y025996D01*
X041266Y024596D02*
X040766Y024596D01*
X040766Y023596D01*
X041266Y023596D01*
X041266Y024096D01*
X041516Y024096D01*
X041266Y024096D02*
X041266Y024596D01*
X040766Y024596D02*
X038766Y024596D01*
X038766Y024096D01*
X038516Y024096D01*
X038766Y024096D02*
X038766Y023596D01*
X040766Y023596D01*
X039266Y024996D02*
X038766Y024996D01*
X038766Y025496D01*
X038516Y025496D01*
X038766Y025496D02*
X038766Y025996D01*
X039266Y025996D01*
X027016Y027996D02*
X026766Y027996D01*
X026766Y028496D01*
X024766Y028496D01*
X024766Y027496D01*
X026766Y027496D01*
X026766Y027996D01*
X024766Y027496D02*
X024266Y027496D01*
X024266Y027996D01*
X024016Y027996D01*
X024266Y027996D02*
X024266Y028496D01*
X024766Y028496D01*
X024716Y029246D02*
X024716Y029696D01*
X023216Y029696D02*
X023240Y029672D01*
X023261Y029646D01*
X023280Y029617D01*
X023295Y029587D01*
X023306Y029555D01*
X023314Y029522D01*
X023318Y029488D01*
X023318Y029454D01*
X023314Y029420D01*
X023306Y029387D01*
X023295Y029355D01*
X023280Y029325D01*
X023261Y029296D01*
X023240Y029270D01*
X023216Y029246D01*
X024316Y026796D02*
X024340Y026772D01*
X024366Y026751D01*
X024395Y026732D01*
X024425Y026717D01*
X024457Y026706D01*
X024490Y026698D01*
X024524Y026694D01*
X024558Y026694D01*
X024592Y026698D01*
X024625Y026706D01*
X024657Y026717D01*
X024687Y026732D01*
X024716Y026751D01*
X024742Y026772D01*
X024766Y026796D01*
X025716Y025996D02*
X025716Y025746D01*
X025216Y025746D01*
X025216Y025246D01*
X026216Y025246D01*
X026216Y025746D01*
X025716Y025746D01*
X026216Y025246D02*
X026216Y023246D01*
X025716Y023246D01*
X025716Y022996D01*
X025716Y023246D02*
X025216Y023246D01*
X025216Y025246D01*
X024766Y025296D02*
X024316Y025296D01*
X024766Y022696D02*
X024766Y022246D01*
X023266Y022246D02*
X023290Y022270D01*
X023311Y022296D01*
X023330Y022325D01*
X023345Y022355D01*
X023356Y022387D01*
X023364Y022420D01*
X023368Y022454D01*
X023368Y022488D01*
X023364Y022522D01*
X023356Y022555D01*
X023345Y022587D01*
X023330Y022617D01*
X023311Y022646D01*
X023290Y022672D01*
X023266Y022696D01*
X023266Y020496D02*
X023266Y019996D01*
X023016Y019996D01*
X023266Y019996D02*
X023266Y019496D01*
X023766Y019496D01*
X023766Y020496D01*
X023266Y020496D01*
X023766Y020496D02*
X025766Y020496D01*
X025766Y019996D01*
X026016Y019996D01*
X025766Y019996D02*
X025766Y019496D01*
X023766Y019496D01*
X014116Y019596D02*
X013716Y019996D01*
X014116Y020396D01*
X014116Y019596D01*
X014116Y019618D02*
X014094Y019618D01*
X014116Y019717D02*
X013995Y019717D01*
X013897Y019815D02*
X014116Y019815D01*
X014116Y019914D02*
X013798Y019914D01*
X013732Y020012D02*
X014116Y020012D01*
X014116Y020111D02*
X013830Y020111D01*
X013929Y020209D02*
X014116Y020209D01*
X014116Y020308D02*
X014027Y020308D01*
X014266Y007296D02*
X013766Y007296D01*
X013766Y006296D01*
X014266Y006296D01*
X014266Y006796D01*
X014516Y006796D01*
X014266Y006796D02*
X014266Y007296D01*
X013766Y007296D02*
X011766Y007296D01*
X011766Y006796D01*
X011516Y006796D01*
X011766Y006796D02*
X011766Y006296D01*
X013766Y006296D01*
X013766Y005296D02*
X013766Y004296D01*
X014266Y004296D01*
X014266Y004796D01*
X014516Y004796D01*
X014266Y004796D02*
X014266Y005296D01*
X013766Y005296D01*
X011766Y005296D01*
X011766Y004796D01*
X011516Y004796D01*
X011766Y004796D02*
X011766Y004296D01*
X013766Y004296D01*
X038516Y004096D02*
X038766Y004096D01*
X038766Y003596D01*
X040766Y003596D01*
X040766Y004596D01*
X038766Y004596D01*
X038766Y004096D01*
X038766Y004996D02*
X038766Y005496D01*
X038516Y005496D01*
X038766Y005496D02*
X038766Y005996D01*
X039266Y005996D01*
X039266Y004996D01*
X041266Y004996D01*
X041266Y005496D01*
X041516Y005496D01*
X041266Y005496D02*
X041266Y005996D01*
X039266Y005996D01*
X039266Y004996D02*
X038766Y004996D01*
X040766Y004596D02*
X041266Y004596D01*
X041266Y004096D01*
X041516Y004096D01*
X041266Y004096D02*
X041266Y003596D01*
X040766Y003596D01*
X040766Y013596D02*
X038766Y013596D01*
X038766Y014096D01*
X038516Y014096D01*
X038766Y014096D02*
X038766Y014596D01*
X040766Y014596D01*
X040766Y013596D01*
X041266Y013596D01*
X041266Y014096D01*
X041516Y014096D01*
X041266Y014096D02*
X041266Y014596D01*
X040766Y014596D01*
X041266Y014996D02*
X041266Y015496D01*
X041516Y015496D01*
X041266Y015496D02*
X041266Y015996D01*
X039266Y015996D01*
X039266Y014996D01*
X041266Y014996D01*
X039266Y014996D02*
X038766Y014996D01*
X038766Y015496D01*
X038516Y015496D01*
X038766Y015496D02*
X038766Y015996D01*
X039266Y015996D01*
D13*
X003016Y001746D02*
X003016Y001246D01*
X003266Y000996D01*
X003766Y000996D01*
X004016Y001246D01*
X004266Y000996D01*
X004766Y000996D01*
X005016Y001246D01*
X005266Y000996D01*
X005766Y000996D01*
X006016Y001246D01*
X006266Y000996D01*
X006766Y000996D01*
X007016Y001246D01*
X007266Y000996D01*
X007766Y000996D01*
X008016Y001246D01*
X008266Y000996D01*
X008766Y000996D01*
X009016Y001246D01*
X009266Y000996D01*
X009766Y000996D01*
X010016Y001246D01*
X010266Y000996D01*
X010766Y000996D01*
X011016Y001246D01*
X011266Y000996D01*
X011766Y000996D01*
X012016Y001246D01*
X012266Y000996D01*
X012766Y000996D01*
X013016Y001246D01*
X013266Y000996D01*
X013766Y000996D01*
X014016Y001246D01*
X014266Y000996D01*
X014766Y000996D01*
X015016Y001246D01*
X015266Y000996D01*
X015766Y000996D01*
X016016Y001246D01*
X016266Y000996D01*
X016766Y000996D01*
X017016Y001246D01*
X017016Y001746D01*
X016766Y001996D01*
X016266Y001996D01*
X016016Y001746D01*
X015766Y001996D01*
X015266Y001996D01*
X015016Y001746D01*
X014766Y001996D01*
X014266Y001996D01*
X014016Y001746D01*
X013766Y001996D01*
X013266Y001996D01*
X013016Y001746D01*
X012766Y001996D01*
X012266Y001996D01*
X012016Y001746D01*
X011766Y001996D01*
X011266Y001996D01*
X011016Y001746D01*
X010766Y001996D01*
X010266Y001996D01*
X010016Y001746D01*
X009766Y001996D01*
X009266Y001996D01*
X009016Y001746D01*
X008766Y001996D01*
X008266Y001996D01*
X008016Y001746D01*
X007766Y001996D01*
X007266Y001996D01*
X007016Y001746D01*
X006766Y001996D01*
X006266Y001996D01*
X006016Y001746D01*
X005766Y001996D01*
X005266Y001996D01*
X005016Y001746D01*
X004766Y001996D01*
X004266Y001996D01*
X004016Y001746D01*
X003766Y001996D01*
X003266Y001996D01*
X003016Y001746D01*
X015693Y007996D02*
X025339Y007996D01*
X025339Y008291D01*
X024354Y008291D01*
X024354Y016362D01*
X025339Y016362D01*
X025339Y008291D01*
X028726Y008467D02*
X028726Y006246D01*
X031306Y006246D01*
X031306Y008467D01*
X033226Y008467D02*
X033226Y006246D01*
X035806Y006246D01*
X035806Y008467D01*
X035806Y016246D02*
X033226Y016246D01*
X033226Y018467D01*
X031306Y018467D02*
X031306Y016246D01*
X028726Y016246D01*
X028726Y018467D01*
X022760Y018626D02*
X022484Y018862D01*
X018547Y018862D01*
X018272Y018626D01*
X016677Y016362D02*
X015693Y016362D01*
X015693Y008291D01*
X015693Y007996D01*
X015693Y008291D02*
X016677Y008291D01*
X016677Y016362D01*
X013516Y016246D02*
X013516Y015746D01*
X013266Y015496D01*
X012766Y015496D01*
X012516Y015746D01*
X012516Y016246D01*
X012766Y016496D01*
X012516Y016746D01*
X012516Y017246D01*
X012766Y017496D01*
X012516Y017746D01*
X012516Y018246D01*
X012766Y018496D01*
X012516Y018746D01*
X012516Y019246D01*
X012766Y019496D01*
X012516Y019746D01*
X012516Y020246D01*
X012766Y020496D01*
X013266Y020496D01*
X013516Y020246D01*
X013516Y019746D01*
X013266Y019496D01*
X013516Y019246D01*
X013516Y018746D01*
X013266Y018496D01*
X013516Y018246D01*
X013516Y017746D01*
X013266Y017496D01*
X013516Y017246D01*
X013516Y016746D01*
X013266Y016496D01*
X013516Y016246D01*
X028726Y026746D02*
X028726Y028967D01*
X031306Y028967D02*
X031306Y026746D01*
X028726Y026746D01*
X033226Y026746D02*
X033226Y028967D01*
X035806Y028967D02*
X035806Y026746D01*
X033226Y026746D01*
X035806Y018467D02*
X035806Y016246D01*
X047356Y018890D02*
X047509Y018736D01*
X047816Y018736D01*
X047970Y018890D01*
X047356Y018890D02*
X047356Y019504D01*
X047509Y019657D01*
X047816Y019657D01*
X047970Y019504D01*
X047816Y020736D02*
X047356Y020736D01*
X047356Y021657D01*
X047816Y021657D01*
X047970Y021504D01*
X047970Y021350D01*
X047816Y021197D01*
X047356Y021197D01*
X047816Y021197D02*
X047970Y021043D01*
X047970Y020890D01*
X047816Y020736D01*
X047970Y022636D02*
X047970Y023250D01*
X047663Y023557D01*
X047356Y023250D01*
X047356Y022636D01*
X047356Y023097D02*
X047970Y023097D01*
X048717Y024217D02*
X049110Y024217D01*
X049110Y017839D01*
X048717Y017839D01*
X048717Y024217D01*
X049110Y024217D02*
X051669Y024217D01*
X051669Y017839D01*
X049110Y017839D01*
X049110Y015517D02*
X048717Y015517D01*
X048717Y009139D01*
X049110Y009139D01*
X049110Y015517D01*
X051669Y015517D01*
X051669Y009139D01*
X049110Y009139D01*
X049110Y007717D02*
X048717Y007717D01*
X048717Y003307D01*
X049110Y003307D01*
X049110Y007717D01*
X051669Y007717D01*
X051669Y003307D01*
X049110Y003307D01*
X049110Y025239D02*
X048717Y025239D01*
X048717Y031617D01*
X049110Y031617D01*
X049110Y025239D01*
X051669Y025239D01*
X051669Y031617D01*
X049110Y031617D01*
X047663Y030857D02*
X047663Y029936D01*
X047356Y029936D02*
X047970Y029936D01*
X047356Y030550D02*
X047663Y030857D01*
X047716Y028957D02*
X047409Y028957D01*
X047256Y028804D01*
X047716Y028957D02*
X047870Y028804D01*
X047870Y028650D01*
X047256Y028036D01*
X047870Y028036D01*
X047716Y026957D02*
X047409Y026957D01*
X047256Y026804D01*
X047563Y026497D02*
X047716Y026497D01*
X047870Y026343D01*
X047870Y026190D01*
X047716Y026036D01*
X047409Y026036D01*
X047256Y026190D01*
X047716Y026497D02*
X047870Y026650D01*
X047870Y026804D01*
X047716Y026957D01*
X017016Y034746D02*
X016766Y034496D01*
X016266Y034496D01*
X016016Y034746D01*
X015766Y034496D01*
X015266Y034496D01*
X015016Y034746D01*
X014766Y034496D01*
X014266Y034496D01*
X014016Y034746D01*
X013766Y034496D01*
X013266Y034496D01*
X013016Y034746D01*
X012766Y034496D01*
X012266Y034496D01*
X012016Y034746D01*
X011766Y034496D01*
X011266Y034496D01*
X011016Y034746D01*
X010766Y034496D01*
X010266Y034496D01*
X010016Y034746D01*
X009766Y034496D01*
X009266Y034496D01*
X009016Y034746D01*
X008766Y034496D01*
X008266Y034496D01*
X008016Y034746D01*
X007766Y034496D01*
X007266Y034496D01*
X007016Y034746D01*
X006766Y034496D01*
X006266Y034496D01*
X006016Y034746D01*
X005766Y034496D01*
X005266Y034496D01*
X005016Y034746D01*
X004766Y034496D01*
X004266Y034496D01*
X004016Y034746D01*
X003766Y034496D01*
X003266Y034496D01*
X003016Y034746D01*
X003016Y035246D01*
X003266Y035496D01*
X003766Y035496D01*
X004016Y035246D01*
X004266Y035496D01*
X004766Y035496D01*
X005016Y035246D01*
X005266Y035496D01*
X005766Y035496D01*
X006016Y035246D01*
X006266Y035496D01*
X006766Y035496D01*
X007016Y035246D01*
X007266Y035496D01*
X007766Y035496D01*
X008016Y035246D01*
X008266Y035496D01*
X008766Y035496D01*
X009016Y035246D01*
X009266Y035496D01*
X009766Y035496D01*
X010016Y035246D01*
X010266Y035496D01*
X010766Y035496D01*
X011016Y035246D01*
X011266Y035496D01*
X011766Y035496D01*
X012016Y035246D01*
X012266Y035496D01*
X012766Y035496D01*
X013016Y035246D01*
X013266Y035496D01*
X013766Y035496D01*
X014016Y035246D01*
X014266Y035496D01*
X014766Y035496D01*
X015016Y035246D01*
X015266Y035496D01*
X015766Y035496D01*
X016016Y035246D01*
X016266Y035496D01*
X016766Y035496D01*
X017016Y035246D01*
X017016Y034746D01*
D14*
X023031Y030182D02*
X023216Y030182D01*
X023278Y030120D01*
X023278Y030058D01*
X023216Y029996D01*
X023031Y029996D01*
X023031Y029811D02*
X023031Y030182D01*
X023216Y029996D02*
X023278Y029935D01*
X023278Y029873D01*
X023216Y029811D01*
X023031Y029811D01*
X023399Y029873D02*
X023461Y029811D01*
X023584Y029811D01*
X023646Y029873D01*
X023646Y029935D01*
X023584Y029996D01*
X023461Y029996D01*
X023399Y030058D01*
X023399Y030120D01*
X023461Y030182D01*
X023584Y030182D01*
X023646Y030120D01*
X023767Y030120D02*
X023767Y029873D01*
X023829Y029811D01*
X023953Y029811D01*
X024014Y029873D01*
X024136Y029811D02*
X024136Y030058D01*
X024259Y030182D01*
X024383Y030058D01*
X024383Y029811D01*
X024504Y029811D02*
X024504Y030182D01*
X024689Y030182D01*
X024751Y030120D01*
X024751Y029996D01*
X024689Y029935D01*
X024504Y029935D01*
X024383Y029996D02*
X024136Y029996D01*
X024014Y030120D02*
X023953Y030182D01*
X023829Y030182D01*
X023767Y030120D01*
X025531Y030182D02*
X025531Y029811D01*
X025716Y029811D01*
X025778Y029873D01*
X025778Y029935D01*
X025716Y029996D01*
X025531Y029996D01*
X025716Y029996D02*
X025778Y030058D01*
X025778Y030120D01*
X025716Y030182D01*
X025531Y030182D01*
X025899Y030120D02*
X025899Y030058D01*
X025961Y029996D01*
X026084Y029996D01*
X026146Y029935D01*
X026146Y029873D01*
X026084Y029811D01*
X025961Y029811D01*
X025899Y029873D01*
X025899Y030120D02*
X025961Y030182D01*
X026084Y030182D01*
X026146Y030120D01*
X026267Y030182D02*
X026453Y030182D01*
X026514Y030120D01*
X026514Y029996D01*
X026453Y029935D01*
X026267Y029935D01*
X026391Y029935D02*
X026514Y029811D01*
X026267Y029811D02*
X026267Y030182D01*
X027431Y030058D02*
X027554Y030182D01*
X027554Y029811D01*
X027431Y029811D02*
X027678Y029811D01*
X027799Y029811D02*
X027799Y030182D01*
X027861Y029996D02*
X028046Y029811D01*
X027799Y029935D02*
X028046Y030182D01*
X026528Y027982D02*
X026281Y027982D01*
X026281Y027611D01*
X026528Y027611D01*
X026405Y027796D02*
X026281Y027796D01*
X026160Y027673D02*
X026160Y027920D01*
X026098Y027982D01*
X025913Y027982D01*
X025913Y027611D01*
X026098Y027611D01*
X026160Y027673D01*
X025791Y027673D02*
X025791Y027920D01*
X025730Y027982D01*
X025606Y027982D01*
X025545Y027920D01*
X025545Y027673D01*
X025606Y027611D01*
X025730Y027611D01*
X025791Y027673D01*
X025422Y027611D02*
X025299Y027611D01*
X025361Y027611D02*
X025361Y027982D01*
X025422Y027982D02*
X025299Y027982D01*
X025178Y027920D02*
X025116Y027982D01*
X024931Y027982D01*
X024931Y027611D01*
X025116Y027611D01*
X025178Y027673D01*
X025178Y027920D01*
X024077Y026770D02*
X024077Y026584D01*
X024201Y026584D02*
X023830Y026584D01*
X023830Y026770D01*
X023892Y026831D01*
X024016Y026831D01*
X024077Y026770D01*
X024016Y026463D02*
X024016Y026216D01*
X023954Y026216D02*
X024201Y026216D01*
X024139Y026095D02*
X024201Y026033D01*
X024201Y025910D01*
X024139Y025848D01*
X023892Y025848D01*
X023830Y025910D01*
X023830Y026033D01*
X023892Y026095D01*
X023954Y026216D02*
X023830Y026340D01*
X023954Y026463D01*
X024201Y026463D01*
X024139Y025726D02*
X024201Y025665D01*
X024201Y025541D01*
X024139Y025480D01*
X024139Y025358D02*
X024201Y025296D01*
X024201Y025111D01*
X023830Y025111D01*
X023830Y025296D01*
X023892Y025358D01*
X023954Y025358D01*
X024016Y025296D01*
X024016Y025111D01*
X024016Y025296D02*
X024077Y025358D01*
X024139Y025358D01*
X024016Y025541D02*
X024016Y025665D01*
X024077Y025726D01*
X024139Y025726D01*
X024016Y025541D02*
X023954Y025480D01*
X023892Y025480D01*
X023830Y025541D01*
X023830Y025665D01*
X023892Y025726D01*
X024392Y024495D02*
X024516Y024495D01*
X024577Y024433D01*
X024577Y024248D01*
X024577Y024126D02*
X024639Y024126D01*
X024701Y024065D01*
X024701Y023941D01*
X024639Y023880D01*
X024639Y023758D02*
X024701Y023696D01*
X024701Y023511D01*
X024330Y023511D01*
X024330Y023696D01*
X024392Y023758D01*
X024454Y023758D01*
X024516Y023696D01*
X024516Y023511D01*
X024516Y023696D02*
X024577Y023758D01*
X024639Y023758D01*
X024516Y023941D02*
X024516Y024065D01*
X024577Y024126D01*
X024701Y024248D02*
X024330Y024248D01*
X024330Y024433D01*
X024392Y024495D01*
X024577Y024371D02*
X024701Y024495D01*
X024392Y024126D02*
X024330Y024065D01*
X024330Y023941D01*
X024392Y023880D01*
X024454Y023880D01*
X024516Y023941D01*
X025530Y023884D02*
X025530Y023761D01*
X025530Y023822D02*
X025901Y023822D01*
X025901Y023761D02*
X025901Y023884D01*
X025839Y024006D02*
X025901Y024068D01*
X025901Y024191D01*
X025839Y024253D01*
X025592Y024253D01*
X025530Y024191D01*
X025530Y024068D01*
X025592Y024006D01*
X025839Y024006D01*
X025839Y023639D02*
X025592Y023639D01*
X025530Y023578D01*
X025530Y023392D01*
X025901Y023392D01*
X025901Y023578D01*
X025839Y023639D01*
X025901Y024375D02*
X025530Y024375D01*
X025530Y024560D01*
X025592Y024621D01*
X025839Y024621D01*
X025901Y024560D01*
X025901Y024375D01*
X025901Y024743D02*
X025530Y024743D01*
X025530Y024990D01*
X025716Y024866D02*
X025716Y024743D01*
X025901Y024743D02*
X025901Y024990D01*
X024889Y023182D02*
X024951Y023120D01*
X024951Y022996D01*
X024889Y022935D01*
X024704Y022935D01*
X024704Y022811D02*
X024704Y023182D01*
X024889Y023182D01*
X024583Y023058D02*
X024583Y022811D01*
X024583Y022996D02*
X024336Y022996D01*
X024336Y023058D02*
X024459Y023182D01*
X024583Y023058D01*
X024336Y023058D02*
X024336Y022811D01*
X024214Y022873D02*
X024153Y022811D01*
X024029Y022811D01*
X023967Y022873D01*
X023967Y023120D01*
X024029Y023182D01*
X024153Y023182D01*
X024214Y023120D01*
X023846Y023120D02*
X023784Y023182D01*
X023661Y023182D01*
X023599Y023120D01*
X023599Y023058D01*
X023661Y022996D01*
X023784Y022996D01*
X023846Y022935D01*
X023846Y022873D01*
X023784Y022811D01*
X023661Y022811D01*
X023599Y022873D01*
X023478Y022873D02*
X023416Y022811D01*
X023231Y022811D01*
X023231Y023182D01*
X023416Y023182D01*
X023478Y023120D01*
X023478Y023058D01*
X023416Y022996D01*
X023231Y022996D01*
X023416Y022996D02*
X023478Y022935D01*
X023478Y022873D01*
X023431Y021082D02*
X023616Y021082D01*
X023678Y021020D01*
X023678Y020958D01*
X023616Y020896D01*
X023431Y020896D01*
X023431Y020711D02*
X023431Y021082D01*
X023616Y020896D02*
X023678Y020835D01*
X023678Y020773D01*
X023616Y020711D01*
X023431Y020711D01*
X023799Y020773D02*
X023861Y020711D01*
X023984Y020711D01*
X024046Y020773D01*
X024046Y020835D01*
X023984Y020896D01*
X023861Y020896D01*
X023799Y020958D01*
X023799Y021020D01*
X023861Y021082D01*
X023984Y021082D01*
X024046Y021020D01*
X024167Y021082D02*
X024353Y021082D01*
X024414Y021020D01*
X024414Y020896D01*
X024353Y020835D01*
X024167Y020835D01*
X024291Y020835D02*
X024414Y020711D01*
X024167Y020711D02*
X024167Y021082D01*
X024131Y020182D02*
X024316Y020182D01*
X024378Y020120D01*
X024378Y019873D01*
X024316Y019811D01*
X024131Y019811D01*
X024131Y020182D01*
X024499Y020182D02*
X024622Y020182D01*
X024561Y020182D02*
X024561Y019811D01*
X024622Y019811D02*
X024499Y019811D01*
X024745Y019873D02*
X024745Y020120D01*
X024806Y020182D01*
X024930Y020182D01*
X024991Y020120D01*
X024991Y019873D01*
X024930Y019811D01*
X024806Y019811D01*
X024745Y019873D01*
X025113Y019811D02*
X025113Y020182D01*
X025298Y020182D01*
X025360Y020120D01*
X025360Y019873D01*
X025298Y019811D01*
X025113Y019811D01*
X025481Y019811D02*
X025728Y019811D01*
X025605Y019996D02*
X025481Y019996D01*
X025481Y019811D02*
X025481Y020182D01*
X025728Y020182D01*
X032231Y023811D02*
X032478Y023811D01*
X032599Y023811D02*
X032599Y024182D01*
X032784Y024058D02*
X032599Y023935D01*
X032784Y023811D01*
X032354Y023811D02*
X032354Y024182D01*
X032231Y024058D01*
X034231Y024058D02*
X034354Y024182D01*
X034354Y023811D01*
X034231Y023811D02*
X034478Y023811D01*
X034599Y023811D02*
X034599Y024182D01*
X034784Y024058D02*
X034599Y023935D01*
X034784Y023811D01*
X035731Y023182D02*
X035731Y022935D01*
X035854Y022811D01*
X035978Y022935D01*
X035978Y023182D01*
X036099Y023120D02*
X036099Y022873D01*
X036161Y022811D01*
X036284Y022811D01*
X036346Y022873D01*
X036346Y023120D01*
X036284Y023182D01*
X036161Y023182D01*
X036099Y023120D01*
X036467Y023120D02*
X036467Y022873D01*
X036529Y022811D01*
X036653Y022811D01*
X036714Y022873D01*
X036836Y022811D02*
X037083Y022811D01*
X036836Y022811D02*
X036836Y023182D01*
X036714Y023120D02*
X036653Y023182D01*
X036529Y023182D01*
X036467Y023120D01*
X037481Y022682D02*
X037481Y022435D01*
X037604Y022311D01*
X037728Y022435D01*
X037728Y022682D01*
X037849Y022620D02*
X037911Y022682D01*
X038034Y022682D01*
X038096Y022620D01*
X038096Y022373D01*
X038034Y022311D01*
X037911Y022311D01*
X037849Y022373D01*
X037849Y022620D01*
X038217Y022620D02*
X038279Y022682D01*
X038403Y022682D01*
X038464Y022620D01*
X038586Y022682D02*
X038586Y022311D01*
X038464Y022373D02*
X038403Y022311D01*
X038279Y022311D01*
X038217Y022373D01*
X038217Y022620D01*
X038586Y022496D02*
X038833Y022496D01*
X038833Y022311D02*
X038833Y022682D01*
X038992Y023311D02*
X038931Y023373D01*
X038992Y023311D02*
X039116Y023311D01*
X039178Y023373D01*
X039178Y023435D01*
X039116Y023496D01*
X039054Y023496D01*
X039116Y023496D02*
X039178Y023558D01*
X039178Y023620D01*
X039116Y023682D01*
X038992Y023682D01*
X038931Y023620D01*
X038931Y023911D02*
X039116Y023911D01*
X039178Y023973D01*
X039178Y024220D01*
X039116Y024282D01*
X038931Y024282D01*
X038931Y023911D01*
X039299Y023911D02*
X039422Y023911D01*
X039361Y023911D02*
X039361Y024282D01*
X039422Y024282D02*
X039299Y024282D01*
X039545Y024220D02*
X039545Y023973D01*
X039606Y023911D01*
X039730Y023911D01*
X039791Y023973D01*
X039791Y024220D01*
X039730Y024282D01*
X039606Y024282D01*
X039545Y024220D01*
X039913Y024282D02*
X039913Y023911D01*
X040098Y023911D01*
X040160Y023973D01*
X040160Y024220D01*
X040098Y024282D01*
X039913Y024282D01*
X040281Y024282D02*
X040281Y023911D01*
X040528Y023911D01*
X040405Y024096D02*
X040281Y024096D01*
X040281Y024282D02*
X040528Y024282D01*
X040283Y023682D02*
X040036Y023435D01*
X040097Y023496D02*
X040283Y023311D01*
X040036Y023311D02*
X040036Y023682D01*
X039914Y023620D02*
X039667Y023373D01*
X039729Y023311D01*
X039853Y023311D01*
X039914Y023373D01*
X039914Y023620D01*
X039853Y023682D01*
X039729Y023682D01*
X039667Y023620D01*
X039667Y023373D01*
X039546Y023373D02*
X039484Y023311D01*
X039361Y023311D01*
X039299Y023373D01*
X039422Y023496D02*
X039484Y023496D01*
X039546Y023435D01*
X039546Y023373D01*
X039484Y023496D02*
X039546Y023558D01*
X039546Y023620D01*
X039484Y023682D01*
X039361Y023682D01*
X039299Y023620D01*
X039531Y025311D02*
X039716Y025311D01*
X039778Y025373D01*
X039778Y025620D01*
X039716Y025682D01*
X039531Y025682D01*
X039531Y025311D01*
X039899Y025311D02*
X040022Y025311D01*
X039961Y025311D02*
X039961Y025682D01*
X040022Y025682D02*
X039899Y025682D01*
X040145Y025620D02*
X040145Y025373D01*
X040206Y025311D01*
X040330Y025311D01*
X040391Y025373D01*
X040391Y025620D01*
X040330Y025682D01*
X040206Y025682D01*
X040145Y025620D01*
X040513Y025682D02*
X040513Y025311D01*
X040698Y025311D01*
X040760Y025373D01*
X040760Y025620D01*
X040698Y025682D01*
X040513Y025682D01*
X040881Y025682D02*
X040881Y025311D01*
X041128Y025311D01*
X041005Y025496D02*
X040881Y025496D01*
X040881Y025682D02*
X041128Y025682D01*
X042431Y023682D02*
X042678Y023682D01*
X042799Y023558D02*
X042799Y023311D01*
X042799Y023496D02*
X043046Y023496D01*
X043046Y023558D02*
X043046Y023311D01*
X043167Y023373D02*
X043229Y023311D01*
X043353Y023311D01*
X043414Y023373D01*
X043414Y023682D01*
X043536Y023682D02*
X043536Y023311D01*
X043783Y023311D01*
X044027Y023311D02*
X044027Y023682D01*
X043904Y023682D02*
X044151Y023682D01*
X043167Y023682D02*
X043167Y023373D01*
X043046Y023558D02*
X042922Y023682D01*
X042799Y023558D01*
X042554Y023496D02*
X042431Y023496D01*
X042431Y023311D02*
X042431Y023682D01*
X042631Y020682D02*
X042816Y020682D01*
X042878Y020620D01*
X042878Y020373D01*
X042816Y020311D01*
X042631Y020311D01*
X042631Y020682D01*
X042999Y020682D02*
X043246Y020311D01*
X043246Y020682D01*
X043367Y020682D02*
X043491Y020682D01*
X043429Y020682D02*
X043429Y020311D01*
X043367Y020311D02*
X043491Y020311D01*
X042999Y020311D02*
X042999Y020682D01*
X043267Y019182D02*
X043514Y019182D01*
X043391Y018996D02*
X043267Y018996D01*
X043146Y018996D02*
X043146Y018811D01*
X043267Y018811D02*
X043267Y019182D01*
X043084Y019058D02*
X043146Y018996D01*
X043084Y019058D02*
X042899Y019058D01*
X042899Y018811D01*
X042778Y018811D02*
X042531Y018811D01*
X042654Y018811D02*
X042654Y019182D01*
X042531Y019058D01*
X041128Y015682D02*
X040881Y015682D01*
X040881Y015311D01*
X041128Y015311D01*
X041005Y015496D02*
X040881Y015496D01*
X040760Y015373D02*
X040760Y015620D01*
X040698Y015682D01*
X040513Y015682D01*
X040513Y015311D01*
X040698Y015311D01*
X040760Y015373D01*
X040391Y015373D02*
X040330Y015311D01*
X040206Y015311D01*
X040145Y015373D01*
X040145Y015620D01*
X040206Y015682D01*
X040330Y015682D01*
X040391Y015620D01*
X040391Y015373D01*
X040022Y015311D02*
X039899Y015311D01*
X039961Y015311D02*
X039961Y015682D01*
X040022Y015682D02*
X039899Y015682D01*
X039778Y015620D02*
X039716Y015682D01*
X039531Y015682D01*
X039531Y015311D01*
X039716Y015311D01*
X039778Y015373D01*
X039778Y015620D01*
X039830Y014282D02*
X039891Y014220D01*
X039891Y013973D01*
X039830Y013911D01*
X039706Y013911D01*
X039645Y013973D01*
X039645Y014220D01*
X039706Y014282D01*
X039830Y014282D01*
X040013Y014282D02*
X040198Y014282D01*
X040260Y014220D01*
X040260Y013973D01*
X040198Y013911D01*
X040013Y013911D01*
X040013Y014282D01*
X040381Y014282D02*
X040381Y013911D01*
X040628Y013911D01*
X040505Y014096D02*
X040381Y014096D01*
X040381Y014282D02*
X040628Y014282D01*
X039522Y014282D02*
X039399Y014282D01*
X039461Y014282D02*
X039461Y013911D01*
X039522Y013911D02*
X039399Y013911D01*
X039278Y013973D02*
X039278Y014220D01*
X039216Y014282D01*
X039031Y014282D01*
X039031Y013911D01*
X039216Y013911D01*
X039278Y013973D01*
X039316Y012582D02*
X039378Y012520D01*
X039378Y012458D01*
X039316Y012396D01*
X039378Y012335D01*
X039378Y012273D01*
X039316Y012211D01*
X039192Y012211D01*
X039131Y012273D01*
X039254Y012396D02*
X039316Y012396D01*
X039316Y012582D02*
X039192Y012582D01*
X039131Y012520D01*
X039499Y012520D02*
X039561Y012582D01*
X039684Y012582D01*
X039746Y012520D01*
X039746Y012458D01*
X039684Y012396D01*
X039746Y012335D01*
X039746Y012273D01*
X039684Y012211D01*
X039561Y012211D01*
X039499Y012273D01*
X039622Y012396D02*
X039684Y012396D01*
X039867Y012273D02*
X040114Y012520D01*
X040114Y012273D01*
X040053Y012211D01*
X039929Y012211D01*
X039867Y012273D01*
X039867Y012520D01*
X039929Y012582D01*
X040053Y012582D01*
X040114Y012520D01*
X040236Y012582D02*
X040236Y012211D01*
X040236Y012335D02*
X040421Y012458D01*
X040236Y012335D02*
X040421Y012211D01*
X041231Y012311D02*
X041231Y012682D01*
X041478Y012682D01*
X041599Y012558D02*
X041722Y012682D01*
X041846Y012558D01*
X041846Y012311D01*
X041967Y012373D02*
X042029Y012311D01*
X042153Y012311D01*
X042214Y012373D01*
X042214Y012682D01*
X042336Y012682D02*
X042336Y012311D01*
X042583Y012311D01*
X042827Y012311D02*
X042827Y012682D01*
X042704Y012682D02*
X042951Y012682D01*
X042201Y012171D02*
X042201Y012048D01*
X042201Y012110D02*
X041830Y012110D01*
X041830Y012171D02*
X041830Y012048D01*
X041830Y011926D02*
X042201Y011926D01*
X041830Y011680D01*
X042201Y011680D01*
X042139Y011558D02*
X041892Y011558D01*
X041830Y011496D01*
X041830Y011311D01*
X042201Y011311D01*
X042201Y011496D01*
X042139Y011558D01*
X041967Y012373D02*
X041967Y012682D01*
X041846Y012496D02*
X041599Y012496D01*
X041599Y012558D02*
X041599Y012311D01*
X041354Y012496D02*
X041231Y012496D01*
X038683Y012496D02*
X038436Y012496D01*
X038314Y012373D02*
X038253Y012311D01*
X038129Y012311D01*
X038067Y012373D01*
X038067Y012620D01*
X038129Y012682D01*
X038253Y012682D01*
X038314Y012620D01*
X038436Y012682D02*
X038436Y012311D01*
X038683Y012311D02*
X038683Y012682D01*
X037946Y012620D02*
X037946Y012373D01*
X037884Y012311D01*
X037761Y012311D01*
X037699Y012373D01*
X037699Y012620D01*
X037761Y012682D01*
X037884Y012682D01*
X037946Y012620D01*
X037578Y012682D02*
X037578Y012435D01*
X037454Y012311D01*
X037331Y012435D01*
X037331Y012682D01*
X037083Y012811D02*
X036836Y012811D01*
X036836Y013182D01*
X036714Y013120D02*
X036653Y013182D01*
X036529Y013182D01*
X036467Y013120D01*
X036467Y012873D01*
X036529Y012811D01*
X036653Y012811D01*
X036714Y012873D01*
X036346Y012873D02*
X036346Y013120D01*
X036284Y013182D01*
X036161Y013182D01*
X036099Y013120D01*
X036099Y012873D01*
X036161Y012811D01*
X036284Y012811D01*
X036346Y012873D01*
X035978Y012935D02*
X035978Y013182D01*
X035731Y013182D02*
X035731Y012935D01*
X035854Y012811D01*
X035978Y012935D01*
X034784Y013311D02*
X034599Y013435D01*
X034784Y013558D01*
X034599Y013682D02*
X034599Y013311D01*
X034478Y013311D02*
X034231Y013311D01*
X034354Y013311D02*
X034354Y013682D01*
X034231Y013558D01*
X032784Y013558D02*
X032599Y013435D01*
X032784Y013311D01*
X032599Y013311D02*
X032599Y013682D01*
X032354Y013682D02*
X032354Y013311D01*
X032231Y013311D02*
X032478Y013311D01*
X032231Y013558D02*
X032354Y013682D01*
X036015Y011058D02*
X036138Y011182D01*
X036138Y010811D01*
X036015Y010811D02*
X036262Y010811D01*
X036383Y010873D02*
X036445Y010811D01*
X036568Y010811D01*
X036630Y010873D01*
X036630Y011182D01*
X036751Y011182D02*
X036998Y011182D01*
X036875Y010996D02*
X036751Y010996D01*
X036751Y010811D02*
X036751Y011182D01*
X036383Y011182D02*
X036383Y010873D01*
X035892Y010873D02*
X035892Y010811D01*
X035831Y010811D01*
X035831Y010873D01*
X035892Y010873D01*
X039431Y005682D02*
X039616Y005682D01*
X039678Y005620D01*
X039678Y005373D01*
X039616Y005311D01*
X039431Y005311D01*
X039431Y005682D01*
X039799Y005682D02*
X039922Y005682D01*
X039861Y005682D02*
X039861Y005311D01*
X039922Y005311D02*
X039799Y005311D01*
X040045Y005373D02*
X040106Y005311D01*
X040230Y005311D01*
X040291Y005373D01*
X040291Y005620D01*
X040230Y005682D01*
X040106Y005682D01*
X040045Y005620D01*
X040045Y005373D01*
X040413Y005311D02*
X040413Y005682D01*
X040598Y005682D01*
X040660Y005620D01*
X040660Y005373D01*
X040598Y005311D01*
X040413Y005311D01*
X040781Y005311D02*
X040781Y005682D01*
X041028Y005682D01*
X040905Y005496D02*
X040781Y005496D01*
X040781Y005311D02*
X041028Y005311D01*
X040528Y004282D02*
X040281Y004282D01*
X040281Y003911D01*
X040528Y003911D01*
X040405Y004096D02*
X040281Y004096D01*
X040160Y003973D02*
X040160Y004220D01*
X040098Y004282D01*
X039913Y004282D01*
X039913Y003911D01*
X040098Y003911D01*
X040160Y003973D01*
X039791Y003973D02*
X039791Y004220D01*
X039730Y004282D01*
X039606Y004282D01*
X039545Y004220D01*
X039545Y003973D01*
X039606Y003911D01*
X039730Y003911D01*
X039791Y003973D01*
X039422Y003911D02*
X039299Y003911D01*
X039361Y003911D02*
X039361Y004282D01*
X039422Y004282D02*
X039299Y004282D01*
X039178Y004220D02*
X039116Y004282D01*
X038931Y004282D01*
X038931Y003911D01*
X039116Y003911D01*
X039178Y003973D01*
X039178Y004220D01*
X043631Y006811D02*
X043878Y006811D01*
X043754Y006811D02*
X043754Y007182D01*
X043631Y007058D01*
X043999Y007120D02*
X043999Y006873D01*
X044246Y007120D01*
X044246Y006873D01*
X044184Y006811D01*
X044061Y006811D01*
X043999Y006873D01*
X043999Y007120D02*
X044061Y007182D01*
X044184Y007182D01*
X044246Y007120D01*
X044367Y007058D02*
X044367Y006873D01*
X044429Y006811D01*
X044614Y006811D01*
X044614Y007058D01*
X044736Y006996D02*
X044859Y006996D01*
X044736Y006811D02*
X044736Y007182D01*
X044983Y007182D01*
X044651Y007811D02*
X044651Y008182D01*
X044898Y008182D01*
X044775Y007996D02*
X044651Y007996D01*
X044530Y008058D02*
X044530Y007811D01*
X044345Y007811D01*
X044283Y007873D01*
X044283Y008058D01*
X044038Y008182D02*
X044038Y007811D01*
X043915Y007811D02*
X044162Y007811D01*
X043915Y008058D02*
X044038Y008182D01*
X043792Y007873D02*
X043792Y007811D01*
X043731Y007811D01*
X043731Y007873D01*
X043792Y007873D01*
X043201Y009011D02*
X043201Y009258D01*
X043201Y009380D02*
X042954Y009380D01*
X042954Y009565D01*
X043016Y009626D01*
X043201Y009626D01*
X043201Y009748D02*
X042830Y009748D01*
X042830Y009995D01*
X043016Y009871D02*
X043016Y009748D01*
X042830Y009135D02*
X043201Y009135D01*
X042954Y009011D02*
X042830Y009135D01*
X044154Y006282D02*
X044154Y005911D01*
X044031Y005911D02*
X044278Y005911D01*
X044399Y005973D02*
X044646Y006220D01*
X044646Y005973D01*
X044584Y005911D01*
X044461Y005911D01*
X044399Y005973D01*
X044399Y006220D01*
X044461Y006282D01*
X044584Y006282D01*
X044646Y006220D01*
X044767Y006158D02*
X044767Y005973D01*
X044829Y005911D01*
X045014Y005911D01*
X045014Y006158D01*
X045136Y006096D02*
X045259Y006096D01*
X045136Y005911D02*
X045136Y006282D01*
X045383Y006282D01*
X045298Y005182D02*
X045051Y005182D01*
X045051Y004811D01*
X044930Y004811D02*
X044930Y005058D01*
X045051Y004996D02*
X045175Y004996D01*
X044930Y004811D02*
X044745Y004811D01*
X044683Y004873D01*
X044683Y005058D01*
X044438Y005182D02*
X044438Y004811D01*
X044315Y004811D02*
X044562Y004811D01*
X044315Y005058D02*
X044438Y005182D01*
X044192Y004873D02*
X044192Y004811D01*
X044131Y004811D01*
X044131Y004873D01*
X044192Y004873D01*
X044031Y006158D02*
X044154Y006282D01*
X034784Y003558D02*
X034599Y003435D01*
X034784Y003311D01*
X034599Y003311D02*
X034599Y003682D01*
X034354Y003682D02*
X034354Y003311D01*
X034231Y003311D02*
X034478Y003311D01*
X034231Y003558D02*
X034354Y003682D01*
X032784Y003558D02*
X032599Y003435D01*
X032784Y003311D01*
X032599Y003311D02*
X032599Y003682D01*
X032354Y003682D02*
X032354Y003311D01*
X032231Y003311D02*
X032478Y003311D01*
X032231Y003558D02*
X032354Y003682D01*
X035931Y020088D02*
X036054Y020211D01*
X035992Y020211D01*
X035992Y020273D01*
X036054Y020273D01*
X036054Y020211D01*
X036176Y020211D02*
X036423Y020211D01*
X036300Y020211D02*
X036300Y020582D01*
X036176Y020458D01*
X036545Y020582D02*
X036545Y020273D01*
X036606Y020211D01*
X036730Y020211D01*
X036791Y020273D01*
X036791Y020582D01*
X036913Y020582D02*
X037160Y020582D01*
X037036Y020396D02*
X036913Y020396D01*
X036913Y020211D02*
X036913Y020582D01*
X040731Y032311D02*
X040731Y032682D01*
X040978Y032682D01*
X041099Y032558D02*
X041222Y032682D01*
X041346Y032558D01*
X041346Y032311D01*
X041467Y032373D02*
X041529Y032311D01*
X041653Y032311D01*
X041714Y032373D01*
X041714Y032682D01*
X041836Y032682D02*
X041836Y032311D01*
X042083Y032311D01*
X042327Y032311D02*
X042327Y032682D01*
X042204Y032682D02*
X042451Y032682D01*
X041467Y032682D02*
X041467Y032373D01*
X041346Y032496D02*
X041099Y032496D01*
X041099Y032558D02*
X041099Y032311D01*
X040854Y032496D02*
X040731Y032496D01*
X040171Y033311D02*
X039986Y033435D01*
X040171Y033558D01*
X039986Y033682D02*
X039986Y033311D01*
X039864Y033373D02*
X039803Y033311D01*
X039679Y033311D01*
X039617Y033373D01*
X039864Y033620D01*
X039864Y033373D01*
X039617Y033373D02*
X039617Y033620D01*
X039679Y033682D01*
X039803Y033682D01*
X039864Y033620D01*
X039496Y033620D02*
X039496Y033558D01*
X039434Y033496D01*
X039496Y033435D01*
X039496Y033373D01*
X039434Y033311D01*
X039311Y033311D01*
X039249Y033373D01*
X039128Y033373D02*
X039066Y033311D01*
X038942Y033311D01*
X038881Y033373D01*
X039004Y033496D02*
X039066Y033496D01*
X039128Y033435D01*
X039128Y033373D01*
X039066Y033496D02*
X039128Y033558D01*
X039128Y033620D01*
X039066Y033682D01*
X038942Y033682D01*
X038881Y033620D01*
X039249Y033620D02*
X039311Y033682D01*
X039434Y033682D01*
X039496Y033620D01*
X039434Y033496D02*
X039372Y033496D01*
D15*
X037488Y030473D02*
X037488Y027520D01*
X037516Y027996D02*
X041516Y027996D01*
X041543Y027520D02*
X041543Y030473D01*
X041543Y020473D02*
X041543Y017520D01*
X041516Y017996D02*
X037516Y017996D01*
X037488Y017520D02*
X037488Y020473D01*
X037488Y010473D02*
X037488Y007520D01*
X037516Y007996D02*
X041516Y007996D01*
X041543Y007520D02*
X041543Y010473D01*
X030516Y003296D02*
X028146Y003296D01*
X028142Y001328D02*
X028142Y005265D01*
X018890Y005265D01*
X018890Y001328D01*
X028142Y001328D01*
X018886Y003296D02*
X016516Y003296D01*
X012861Y004738D02*
X012861Y004971D01*
X012861Y004738D02*
X012744Y004621D01*
X012627Y004738D01*
X012627Y004971D01*
X012493Y004913D02*
X012434Y004971D01*
X012317Y004971D01*
X012259Y004913D01*
X012493Y004913D02*
X012493Y004855D01*
X012259Y004621D01*
X012493Y004621D01*
X012124Y004621D02*
X011891Y004621D01*
X012007Y004621D02*
X012007Y004971D01*
X011891Y004855D01*
X011949Y006621D02*
X011891Y006680D01*
X011949Y006621D02*
X012066Y006621D01*
X012124Y006680D01*
X012124Y006796D01*
X012066Y006855D01*
X012007Y006855D01*
X011891Y006796D01*
X011891Y006971D01*
X012124Y006971D01*
X012259Y006680D02*
X012317Y006680D01*
X012317Y006621D01*
X012259Y006621D01*
X012259Y006680D01*
X012443Y006621D02*
X012677Y006621D01*
X012560Y006621D02*
X012560Y006971D01*
X012443Y006855D01*
X012811Y006971D02*
X012811Y006738D01*
X012928Y006621D01*
X013045Y006738D01*
X013045Y006971D01*
X011539Y016618D02*
X004492Y016618D01*
X004492Y019374D01*
X011539Y019374D01*
X011539Y016618D01*
X004768Y017110D02*
X004770Y017137D01*
X004776Y017164D01*
X004785Y017190D01*
X004798Y017214D01*
X004814Y017237D01*
X004833Y017256D01*
X004855Y017273D01*
X004879Y017287D01*
X004904Y017297D01*
X004931Y017304D01*
X004958Y017307D01*
X004986Y017306D01*
X005013Y017301D01*
X005039Y017293D01*
X005063Y017281D01*
X005086Y017265D01*
X005107Y017247D01*
X005124Y017226D01*
X005139Y017202D01*
X005150Y017177D01*
X005158Y017151D01*
X005162Y017124D01*
X005162Y017096D01*
X005158Y017069D01*
X005150Y017043D01*
X005139Y017018D01*
X005124Y016994D01*
X005107Y016973D01*
X005086Y016955D01*
X005064Y016939D01*
X005039Y016927D01*
X005013Y016919D01*
X004986Y016914D01*
X004958Y016913D01*
X004931Y016916D01*
X004904Y016923D01*
X004879Y016933D01*
X004855Y016947D01*
X004833Y016964D01*
X004814Y016983D01*
X004798Y017006D01*
X004785Y017030D01*
X004776Y017056D01*
X004770Y017083D01*
X004768Y017110D01*
X018520Y021425D02*
X021512Y021425D01*
X021512Y027567D02*
X020409Y027567D01*
X020410Y027567D02*
X020408Y027528D01*
X020402Y027490D01*
X020393Y027453D01*
X020380Y027416D01*
X020363Y027381D01*
X020344Y027348D01*
X020321Y027317D01*
X020295Y027288D01*
X020266Y027262D01*
X020235Y027239D01*
X020202Y027220D01*
X020167Y027203D01*
X020130Y027190D01*
X020093Y027181D01*
X020055Y027175D01*
X020016Y027173D01*
X019977Y027175D01*
X019939Y027181D01*
X019902Y027190D01*
X019865Y027203D01*
X019830Y027220D01*
X019797Y027239D01*
X019766Y027262D01*
X019737Y027288D01*
X019711Y027317D01*
X019688Y027348D01*
X019669Y027381D01*
X019652Y027416D01*
X019639Y027453D01*
X019630Y027490D01*
X019624Y027528D01*
X019622Y027567D01*
X018520Y027567D01*
D16*
X024016Y029484D02*
X024016Y029508D01*
X024504Y025996D02*
X024528Y025996D01*
X024016Y022508D02*
X024016Y022484D01*
X019516Y020508D02*
X019516Y020484D01*
X016016Y022484D02*
X016016Y022508D01*
X004028Y017996D02*
X004004Y017996D01*
X036516Y020984D02*
X036516Y021008D01*
X043016Y021008D02*
X043016Y020984D01*
X043016Y019508D02*
X043016Y019484D01*
X043016Y022984D02*
X043016Y023008D01*
X042828Y029796D02*
X042804Y029796D01*
X042828Y031796D02*
X042804Y031796D01*
X041516Y032984D02*
X041516Y033008D01*
X036516Y031008D02*
X036516Y030984D01*
X042016Y013008D02*
X042016Y012984D01*
X042504Y011496D02*
X042528Y011496D01*
X042504Y009496D02*
X042528Y009496D01*
X045516Y008008D02*
X045516Y007984D01*
X046016Y005008D02*
X046016Y004984D01*
X036516Y010484D02*
X036516Y010508D01*
D17*
X034516Y006096D03*
X030016Y006096D03*
X030016Y016096D03*
X034516Y016096D03*
X034516Y026596D03*
X030016Y026596D03*
D18*
X009496Y005796D03*
X004536Y005796D03*
M02*
