G75*
G70*
%OFA0B0*%
%FSLAX24Y24*%
%IPPOS*%
%LPD*%
%AMOC8*
5,1,8,0,0,1.08239X$1,22.5*
%
%ADD10C,0.0513*%
%ADD11C,0.0820*%
%ADD12C,0.0680*%
%ADD13C,0.0860*%
%ADD14R,0.1030X0.1030*%
%ADD15C,0.1030*%
%ADD16R,0.0674X0.0674*%
%ADD17OC8,0.0720*%
%ADD18R,0.0880X0.0880*%
%ADD19C,0.0880*%
%ADD20C,0.1280*%
D10*
X000516Y002296D03*
D11*
X003516Y001496D03*
X004516Y001496D03*
X005516Y001496D03*
X006516Y001496D03*
X007516Y001496D03*
X008516Y001496D03*
X009516Y001496D03*
X010516Y001496D03*
X011516Y001496D03*
X012516Y001496D03*
X013516Y001496D03*
X014516Y001496D03*
X015516Y001496D03*
X016516Y001496D03*
X013016Y015996D03*
X013016Y016996D03*
X013016Y017996D03*
X013016Y018996D03*
X013016Y019996D03*
X012516Y034996D03*
X011516Y034996D03*
X010516Y034996D03*
X009516Y034996D03*
X008516Y034996D03*
X007516Y034996D03*
X006516Y034996D03*
X005516Y034996D03*
X004516Y034996D03*
X003516Y034996D03*
X013516Y034996D03*
X014516Y034996D03*
X015516Y034996D03*
X016516Y034996D03*
D12*
X016185Y015870D03*
X016185Y015083D03*
X016185Y014295D03*
X016185Y013508D03*
X016185Y012721D03*
X016185Y011933D03*
X016185Y011146D03*
X016185Y010358D03*
X016185Y009571D03*
X016185Y008784D03*
X024846Y008784D03*
X024846Y009571D03*
X024846Y010358D03*
X024846Y011146D03*
X024846Y011933D03*
X024846Y012721D03*
X024846Y013508D03*
X024846Y014295D03*
X024846Y015083D03*
X024846Y015870D03*
D13*
X026516Y019996D03*
X025716Y022496D03*
X022516Y019996D03*
X025716Y026496D03*
X027516Y027996D03*
X023516Y027996D03*
X038016Y025496D03*
X038016Y024096D03*
X042016Y024096D03*
X042016Y025496D03*
X042016Y015496D03*
X042016Y014096D03*
X038016Y014096D03*
X038016Y015496D03*
X038016Y005496D03*
X038016Y004096D03*
X042016Y004096D03*
X042016Y005496D03*
X015016Y004796D03*
X015016Y006796D03*
X011016Y006796D03*
X011016Y004796D03*
D14*
X050016Y014296D03*
X050016Y022996D03*
X050016Y030396D03*
D15*
X050016Y028428D03*
X050016Y026459D03*
X050016Y021028D03*
X050016Y019059D03*
X050016Y012328D03*
X050016Y010359D03*
D16*
X031016Y003296D03*
X016016Y003296D03*
D17*
X010516Y005796D03*
X003516Y005796D03*
D18*
X050016Y006496D03*
D19*
X050016Y004528D03*
D20*
X036516Y004496D03*
X030016Y010496D03*
X036516Y013996D03*
X030016Y020496D03*
X036516Y024996D03*
X030016Y030996D03*
M02*
