%
M48
M72
T01C0.0236
T02C0.0315
T03C0.0354
T04C0.0394
T05C0.0400
T06C0.0433
T07C0.0512
T08C0.0800
%
T01
X18016Y4296
X30016Y5296
X37716Y11896
X35016Y12296
X39216Y13896
X43016Y13996
X46016Y14296
X47716Y15796
X41816Y10896
X45716Y4096
X30016Y15196
X23816Y19896
X21716Y19296
X20016Y19496
X17116Y19396
X15616Y18696
X15616Y17796
X14016Y14996
X14616Y14496
X10816Y16896
X8266Y17996
X7516Y17276
X9316Y19096
X10816Y18996
X8266Y20796
X7766Y22496
X6266Y25496
X5766Y26996
X7516Y26696
X8516Y26896
X15016Y26396
X15516Y26796
X16116Y25796
X16856Y25326
X16916Y24096
X19216Y25896
X19916Y23996
X23116Y24196
X23116Y26196
X23116Y26896
X22616Y27596
X21016Y27596
X26216Y28096
X26716Y25896
X26716Y25096
X28016Y23296
X27016Y22796
X27516Y21996
X23016Y22096
X17016Y20996
X16816Y21696
X15016Y20496
X7316Y15196
X6816Y14496
X7916Y14496
X5316Y19096
X13516Y32196
X14516Y32746
X15516Y33146
X37316Y31596
X39216Y29996
X42116Y31596
X44416Y33196
X45316Y31896
X46016Y32996
X48816Y32196
X46316Y28596
X44216Y22996
X42216Y22096
X39216Y19796
X37416Y22096
T02
X24846Y15870
X24846Y15083
X24846Y14295
X24846Y13508
X24846Y12721
X24846Y11933
X24846Y11146
X24846Y10358
X24846Y9571
X24846Y8784
X16185Y8784
X16185Y9571
X16185Y10358
X16185Y11146
X16185Y11933
X16185Y12721
X16185Y13508
X16185Y14295
X16185Y15083
X16185Y15870
T03
X16016Y3296
X31016Y3296
T04
X38016Y4096
X38016Y5496
X42016Y5496
X42016Y4096
X42016Y14096
X42016Y15496
X38016Y15496
X38016Y14096
X26516Y19996
X25716Y22496
X22516Y19996
X25716Y26496
X27516Y27996
X23516Y27996
X38016Y25496
X38016Y24096
X42016Y24096
X42016Y25496
X15016Y6796
X15016Y4796
X11016Y4796
X11016Y6796
T05
X10516Y5796
X10516Y1496
X11516Y1496
X12516Y1496
X13516Y1496
X14516Y1496
X15516Y1496
X16516Y1496
X9516Y1496
X8516Y1496
X7516Y1496
X6516Y1496
X5516Y1496
X4516Y1496
X3516Y1496
X3516Y5796
X13016Y15996
X13016Y16996
X13016Y17996
X13016Y18996
X13016Y19996
X12516Y34996
X11516Y34996
X10516Y34996
X9516Y34996
X8516Y34996
X7516Y34996
X6516Y34996
X5516Y34996
X4516Y34996
X3516Y34996
X13516Y34996
X14516Y34996
X15516Y34996
X16516Y34996
T06
X516Y2296
T07
X50016Y4528
X50016Y6496
X50016Y10359
X50016Y12328
X50016Y14296
X50016Y19059
X50016Y21028
X50016Y22996
X50016Y26459
X50016Y28428
X50016Y30396
T08
X36516Y24996
X30016Y20496
X36516Y13996
X30016Y10496
X36516Y4496
X30016Y30996
M30
