G75*
G70*
%OFA0B0*%
%FSLAX24Y24*%
%IPPOS*%
%LPD*%
%AMOC8*
5,1,8,0,0,1.08239X$1,22.5*
%
%ADD10C,0.0513*%
%ADD11R,0.0297X0.0848*%
%ADD12C,0.0820*%
%ADD13R,0.0513X0.0474*%
%ADD14R,0.0474X0.0513*%
%ADD15R,0.0860X0.0290*%
%ADD16C,0.0680*%
%ADD17R,0.0710X0.1261*%
%ADD18R,0.2360X0.2550*%
%ADD19C,0.0860*%
%ADD20R,0.0336X0.0966*%
%ADD21R,0.1030X0.1030*%
%ADD22C,0.1030*%
%ADD23R,0.0674X0.0674*%
%ADD24OC8,0.0720*%
%ADD25R,0.0880X0.0880*%
%ADD26C,0.0880*%
%ADD27R,0.0670X0.0870*%
%ADD28R,0.1580X0.0870*%
%ADD29C,0.1280*%
D10*
X000516Y002296D03*
D11*
X004766Y016067D03*
X005266Y016067D03*
X005766Y016067D03*
X006266Y016067D03*
X006766Y016067D03*
X007266Y016067D03*
X007766Y016067D03*
X008266Y016067D03*
X008766Y016067D03*
X009266Y016067D03*
X009766Y016067D03*
X010266Y016067D03*
X010766Y016067D03*
X011266Y016067D03*
X011266Y019925D03*
X010766Y019925D03*
X010266Y019925D03*
X009766Y019925D03*
X009266Y019925D03*
X008766Y019925D03*
X008266Y019925D03*
X007766Y019925D03*
X007266Y019925D03*
X006766Y019925D03*
X006266Y019925D03*
X005766Y019925D03*
X005266Y019925D03*
X004766Y019925D03*
D12*
X013016Y019996D03*
X013016Y018996D03*
X013016Y017996D03*
X013016Y016996D03*
X013016Y015996D03*
X013516Y001496D03*
X014516Y001496D03*
X015516Y001496D03*
X016516Y001496D03*
X012516Y001496D03*
X011516Y001496D03*
X010516Y001496D03*
X009516Y001496D03*
X008516Y001496D03*
X007516Y001496D03*
X006516Y001496D03*
X005516Y001496D03*
X004516Y001496D03*
X003516Y001496D03*
X003516Y034996D03*
X004516Y034996D03*
X005516Y034996D03*
X006516Y034996D03*
X007516Y034996D03*
X008516Y034996D03*
X009516Y034996D03*
X010516Y034996D03*
X011516Y034996D03*
X012516Y034996D03*
X013516Y034996D03*
X014516Y034996D03*
X015516Y034996D03*
X016516Y034996D03*
D13*
X023681Y029496D03*
X024350Y029496D03*
X024016Y024331D03*
X024016Y023662D03*
X024350Y022496D03*
X023681Y022496D03*
X019850Y020496D03*
X019181Y020496D03*
X016350Y022496D03*
X015681Y022496D03*
X016016Y024162D03*
X016016Y024831D03*
X009350Y021496D03*
X008681Y021496D03*
X003016Y018331D03*
X003016Y017662D03*
X027516Y007831D03*
X027516Y007162D03*
X036181Y010496D03*
X036850Y010496D03*
X041681Y012996D03*
X042350Y012996D03*
X045181Y007996D03*
X045850Y007996D03*
X045850Y006996D03*
X045181Y006996D03*
X045681Y006096D03*
X046350Y006096D03*
X046350Y004996D03*
X045681Y004996D03*
X028016Y015662D03*
X028016Y016331D03*
X036181Y020996D03*
X036850Y020996D03*
X042681Y020996D03*
X043350Y020996D03*
X043350Y019496D03*
X042681Y019496D03*
X042681Y022996D03*
X043350Y022996D03*
X046316Y029962D03*
X046316Y030631D03*
X047216Y031462D03*
X047216Y032131D03*
X049316Y032962D03*
X049316Y033631D03*
X041850Y032996D03*
X041181Y032996D03*
X036850Y030996D03*
X036181Y030996D03*
D14*
X036181Y032996D03*
X036850Y032996D03*
X037681Y032996D03*
X038350Y032996D03*
X039181Y032996D03*
X039850Y032996D03*
X042816Y032131D03*
X042816Y031462D03*
X042816Y030131D03*
X042816Y029462D03*
X034850Y024496D03*
X034181Y024496D03*
X032850Y024496D03*
X032181Y024496D03*
X036181Y022496D03*
X036850Y022496D03*
X037681Y022996D03*
X038350Y022996D03*
X039181Y022996D03*
X039850Y022996D03*
X028050Y029496D03*
X027381Y029496D03*
X026350Y029496D03*
X025681Y029496D03*
X024516Y026331D03*
X024516Y025662D03*
X024350Y021496D03*
X023681Y021496D03*
X014850Y023996D03*
X014181Y023996D03*
X014181Y024996D03*
X014850Y024996D03*
X004016Y018331D03*
X004016Y017662D03*
X032181Y013996D03*
X032850Y013996D03*
X034181Y013996D03*
X034850Y013996D03*
X036181Y012496D03*
X036850Y012496D03*
X037681Y012996D03*
X038350Y012996D03*
X039181Y012996D03*
X039850Y012996D03*
X042516Y011831D03*
X042516Y011162D03*
X042516Y009831D03*
X042516Y009162D03*
X034850Y003996D03*
X034181Y003996D03*
X032850Y003996D03*
X032181Y003996D03*
D15*
X021861Y021746D03*
X021861Y022246D03*
X021861Y022746D03*
X021861Y023246D03*
X021861Y023746D03*
X021861Y024246D03*
X021861Y024746D03*
X021861Y025246D03*
X021861Y025746D03*
X021861Y026246D03*
X021861Y026746D03*
X021861Y027246D03*
X018171Y027246D03*
X018171Y026746D03*
X018171Y026246D03*
X018171Y025746D03*
X018171Y025246D03*
X018171Y024746D03*
X018171Y024246D03*
X018171Y023746D03*
X018171Y023246D03*
X018171Y022746D03*
X018171Y022246D03*
X018171Y021746D03*
D16*
X016185Y015870D03*
X016185Y015083D03*
X016185Y014295D03*
X016185Y013508D03*
X016185Y012721D03*
X016185Y011933D03*
X016185Y011146D03*
X016185Y010358D03*
X016185Y009571D03*
X016185Y008784D03*
X024846Y008784D03*
X024846Y009571D03*
X024846Y010358D03*
X024846Y011146D03*
X024846Y011933D03*
X024846Y012721D03*
X024846Y013508D03*
X024846Y014295D03*
X024846Y015083D03*
X024846Y015870D03*
D17*
X029116Y015586D03*
X030916Y015586D03*
X033616Y015586D03*
X035416Y015586D03*
X035416Y005586D03*
X033616Y005586D03*
X030916Y005586D03*
X029116Y005586D03*
X029116Y026086D03*
X030916Y026086D03*
X033616Y026086D03*
X035416Y026086D03*
D18*
X034516Y028621D03*
X030016Y028621D03*
X030016Y018121D03*
X034516Y018121D03*
X034516Y008121D03*
X030016Y008121D03*
D19*
X038016Y005496D03*
X038016Y004096D03*
X042016Y004096D03*
X042016Y005496D03*
X042016Y014096D03*
X042016Y015496D03*
X038016Y015496D03*
X038016Y014096D03*
X026516Y019996D03*
X025716Y022496D03*
X022516Y019996D03*
X025716Y026496D03*
X027516Y027996D03*
X023516Y027996D03*
X038016Y025496D03*
X038016Y024096D03*
X042016Y024096D03*
X042016Y025496D03*
X015016Y006796D03*
X015016Y004796D03*
X011016Y004796D03*
X011016Y006796D03*
D20*
X037766Y007126D03*
X038266Y007126D03*
X038766Y007126D03*
X039266Y007126D03*
X039766Y007126D03*
X040266Y007126D03*
X040766Y007126D03*
X041266Y007126D03*
X041266Y010866D03*
X040766Y010866D03*
X040266Y010866D03*
X039766Y010866D03*
X039266Y010866D03*
X038766Y010866D03*
X038266Y010866D03*
X037766Y010866D03*
X037766Y017126D03*
X038266Y017126D03*
X038766Y017126D03*
X039266Y017126D03*
X039766Y017126D03*
X040266Y017126D03*
X040766Y017126D03*
X041266Y017126D03*
X041266Y020866D03*
X040766Y020866D03*
X040266Y020866D03*
X039766Y020866D03*
X039266Y020866D03*
X038766Y020866D03*
X038266Y020866D03*
X037766Y020866D03*
X037766Y027126D03*
X038266Y027126D03*
X038766Y027126D03*
X039266Y027126D03*
X039766Y027126D03*
X040266Y027126D03*
X040766Y027126D03*
X041266Y027126D03*
X041266Y030866D03*
X040766Y030866D03*
X040266Y030866D03*
X039766Y030866D03*
X039266Y030866D03*
X038766Y030866D03*
X038266Y030866D03*
X037766Y030866D03*
D21*
X050016Y030396D03*
X050016Y022996D03*
X050016Y014296D03*
D22*
X050016Y012328D03*
X050016Y010359D03*
X050016Y019059D03*
X050016Y021028D03*
X050016Y026459D03*
X050016Y028428D03*
D23*
X031016Y003296D03*
X016016Y003296D03*
D24*
X010516Y005796D03*
X003516Y005796D03*
D25*
X050016Y006496D03*
D26*
X050016Y004528D03*
D27*
X046926Y009256D03*
X046026Y009256D03*
X045126Y009256D03*
D28*
X046016Y011736D03*
D29*
X036516Y013996D03*
X030016Y010496D03*
X036516Y004496D03*
X030016Y020496D03*
X036516Y024996D03*
X030016Y030996D03*
M02*
