G75*
G70*
%OFA0B0*%
%FSLAX24Y24*%
%IPPOS*%
%LPD*%
%AMOC8*
5,1,8,0,0,1.08239X$1,22.5*
%
%ADD10C,0.0580*%
%ADD11C,0.0820*%
%ADD12R,0.0966X0.0966*%
%ADD13C,0.0680*%
%ADD14C,0.0595*%
%ADD15C,0.0905*%
%ADD16C,0.0730*%
%ADD17R,0.0730X0.0730*%
%ADD18C,0.2030*%
%ADD19R,0.0513X0.0513*%
%ADD20R,0.0678X0.0722*%
%ADD21C,0.1261*%
%ADD22C,0.1145*%
%ADD23R,0.1261X0.0710*%
%ADD24R,0.2550X0.2360*%
%ADD25C,0.0954*%
%ADD26C,0.1619*%
%ADD27C,0.1600*%
%ADD28C,0.0476*%
%ADD29C,0.0555*%
%ADD30C,0.0789*%
%ADD31C,0.0611*%
%ADD32C,0.0516*%
D10*
X033836Y009132D03*
D11*
X033916Y006422D03*
X033916Y006422D03*
X034916Y006422D03*
X034916Y006422D03*
X035916Y006422D03*
X035916Y006422D03*
X032916Y006422D03*
X032916Y006422D03*
X031916Y006422D03*
X031916Y006422D03*
X025726Y012622D03*
X010021Y015577D03*
X037140Y044565D03*
X051365Y043319D03*
D12*
X036966Y018682D03*
X034407Y018682D03*
X033602Y003452D03*
X036161Y003452D03*
D13*
X040879Y003481D03*
X041666Y003481D03*
X042453Y003481D03*
X043241Y003481D03*
X044028Y003481D03*
X044816Y003481D03*
X045603Y003481D03*
X046390Y003481D03*
X047178Y003481D03*
X047965Y003481D03*
X047965Y012143D03*
X047178Y012143D03*
X046390Y012143D03*
X045603Y012143D03*
X044816Y012143D03*
X044028Y012143D03*
X043241Y012143D03*
X042453Y012143D03*
X041666Y012143D03*
X040879Y012143D03*
D14*
X007177Y001922D03*
X007965Y001922D03*
X007811Y006728D03*
X007811Y007516D03*
X013236Y003478D03*
X013236Y002691D03*
X013236Y001903D03*
X013236Y001116D03*
X016635Y002177D03*
X017422Y002177D03*
X018210Y002177D03*
X018997Y002177D03*
X018406Y010292D03*
X016406Y010292D03*
X020406Y010292D03*
X022406Y010292D03*
X028062Y018487D03*
X028850Y018487D03*
X022406Y019292D03*
X018406Y019292D03*
X016406Y019292D03*
X040258Y018277D03*
X041045Y018277D03*
X041832Y018277D03*
X042620Y018277D03*
X043407Y018277D03*
X044195Y018277D03*
X046030Y018327D03*
X046817Y018327D03*
X047605Y018327D03*
X048392Y018327D03*
X050190Y018312D03*
X050978Y018312D03*
X051765Y018312D03*
X052552Y018312D03*
X053340Y018312D03*
X054127Y018312D03*
X054915Y018312D03*
X055702Y018312D03*
X054636Y016013D03*
X054636Y015226D03*
X054636Y014438D03*
X054636Y013651D03*
X055911Y011956D03*
X055911Y011168D03*
X054736Y008012D03*
X054736Y007225D03*
X054736Y006437D03*
X054736Y005650D03*
X054736Y004862D03*
X050715Y049412D03*
X049927Y049412D03*
X049140Y049412D03*
X048353Y049412D03*
X046564Y049392D03*
X045776Y049392D03*
X044989Y049392D03*
X044201Y049392D03*
X043414Y049392D03*
X042627Y049392D03*
X041839Y049392D03*
X041052Y049392D03*
D15*
X006816Y019757D03*
X006816Y017587D03*
D16*
X015371Y011292D03*
X023442Y018292D03*
D17*
X029760Y033800D03*
X029760Y035140D03*
X029760Y036480D03*
X031260Y035810D03*
X031260Y034470D03*
D18*
X038630Y035140D03*
D19*
X024340Y049850D03*
X023671Y049850D03*
X023450Y048940D03*
X023450Y048270D03*
X023200Y043345D03*
X022531Y043345D03*
X023150Y042040D03*
X023150Y041370D03*
X023210Y036820D03*
X022541Y036820D03*
X023205Y035460D03*
X023205Y034790D03*
D20*
X023887Y032770D03*
X022194Y032770D03*
X020317Y032780D03*
X018624Y032780D03*
X018954Y039105D03*
X020647Y039105D03*
X022194Y039090D03*
X023887Y039090D03*
X023887Y046255D03*
X022194Y046255D03*
X020197Y046255D03*
X018504Y046255D03*
D21*
X014341Y041480D03*
X011341Y040081D03*
D22*
X014054Y038179D03*
X015549Y038877D03*
X012558Y037482D03*
D23*
X022260Y036055D03*
X022260Y034255D03*
X022210Y040805D03*
X022210Y042605D03*
X022410Y047655D03*
X022410Y049455D03*
D24*
X019875Y048555D03*
X019675Y041705D03*
X019725Y035155D03*
D25*
X048333Y032551D03*
X049963Y032551D03*
D26*
X049148Y029661D03*
D27*
X052740Y039774D03*
X030240Y062274D03*
X007741Y039774D03*
D28*
X019905Y040115D03*
X023175Y039525D03*
X023180Y038775D03*
X023205Y038090D03*
X023125Y037520D03*
X020015Y033530D03*
X023205Y032315D03*
X028770Y037715D03*
X028800Y038515D03*
X031215Y040095D03*
X031410Y040940D03*
X032395Y040210D03*
X035630Y041770D03*
X037360Y038740D03*
X040201Y039312D03*
X041706Y039577D03*
X041476Y040617D03*
X042411Y041572D03*
X043386Y042287D03*
X045946Y044002D03*
X047181Y041057D03*
X047736Y038952D03*
X050881Y036402D03*
X040556Y044287D03*
X039066Y045237D03*
X031240Y045830D03*
X031155Y046610D03*
X029910Y045840D03*
X028430Y045840D03*
X027265Y045840D03*
X028250Y043125D03*
X028645Y042030D03*
X023615Y044400D03*
X023205Y043880D03*
X026415Y049860D03*
X040246Y020867D03*
X045576Y019597D03*
X045531Y018992D03*
X047286Y018947D03*
X047281Y019587D03*
X051751Y016092D03*
X048656Y011002D03*
X046371Y008302D03*
X047296Y007857D03*
X043496Y009167D03*
X040406Y009112D03*
X040381Y008282D03*
X039446Y010222D03*
X037081Y009492D03*
X037091Y008557D03*
X035766Y008187D03*
X034731Y008187D03*
X032591Y008132D03*
X030321Y005697D03*
X030046Y005147D03*
X029051Y005657D03*
X029436Y006442D03*
X027906Y005557D03*
X028096Y005082D03*
X027976Y003962D03*
X026306Y003717D03*
X025166Y003732D03*
X023946Y003557D03*
X024866Y005082D03*
X025601Y005142D03*
X023786Y005557D03*
X022826Y005142D03*
X022576Y003662D03*
X021186Y003252D03*
X020781Y003697D03*
X020496Y004232D03*
X020336Y004782D03*
X019226Y004207D03*
X019356Y003582D03*
X019771Y002912D03*
X020376Y002457D03*
X020456Y006142D03*
X019451Y006127D03*
X017581Y007557D03*
X015016Y003127D03*
X011816Y006107D03*
X011681Y018217D03*
X027936Y013707D03*
X029836Y014302D03*
X028866Y015512D03*
X030566Y017112D03*
X031761Y017152D03*
X032751Y017427D03*
X034396Y017327D03*
X030796Y020302D03*
X028941Y020332D03*
X033756Y013662D03*
X033246Y012632D03*
X033231Y011207D03*
X031941Y004507D03*
X032111Y002872D03*
X031506Y002257D03*
X030941Y001707D03*
X027736Y001512D03*
X036806Y001952D03*
X039246Y004597D03*
X040641Y013442D03*
X040541Y014447D03*
X053436Y007177D03*
X053451Y006327D03*
D29*
X041436Y008702D03*
X041401Y007492D03*
X040251Y005312D03*
X036281Y005307D03*
X033101Y000822D03*
X026206Y007622D03*
X021471Y001252D03*
X018091Y005822D03*
X018556Y007337D03*
X016126Y004422D03*
X015031Y003091D03*
X037581Y016527D03*
X038636Y015692D03*
X039881Y014407D03*
D30*
X025681Y008617D03*
X025501Y006577D03*
X012961Y011277D03*
X006661Y011142D03*
D31*
X025280Y033225D03*
X025630Y033775D03*
X025985Y033230D03*
X033570Y037755D03*
X035205Y037750D03*
D32*
X027450Y035120D03*
X027520Y042635D03*
X027510Y044965D03*
M02*
