G75*
G70*
%OFA0B0*%
%FSLAX24Y24*%
%IPPOS*%
%LPD*%
%AMOC8*
5,1,8,0,0,1.08239X$1,22.5*
%
%ADD10R,0.0198X0.0671*%
%ADD11R,0.0671X0.0198*%
%ADD12R,0.0513X0.0474*%
%ADD13R,0.0513X0.0513*%
%ADD14C,0.0580*%
%ADD15R,0.0870X0.0670*%
%ADD16R,0.0870X0.1580*%
%ADD17R,0.0789X0.0710*%
%ADD18C,0.0820*%
%ADD19R,0.0966X0.0966*%
%ADD20R,0.0218X0.0415*%
%ADD21R,0.0395X0.0218*%
%ADD22R,0.0434X0.0356*%
%ADD23C,0.0680*%
%ADD24R,0.0513X0.0513*%
%ADD25R,0.0710X0.0789*%
%ADD26R,0.0356X0.0434*%
%ADD27C,0.0595*%
%ADD28C,0.0905*%
%ADD29R,0.0946X0.0316*%
%ADD30R,0.0336X0.0316*%
%ADD31R,0.0722X0.0678*%
%ADD32C,0.0730*%
%ADD33R,0.2840X0.2840*%
%ADD34R,0.1070X0.0670*%
%ADD35R,0.0986X0.0769*%
%ADD36R,0.0678X0.0722*%
%ADD37R,0.0336X0.0966*%
%ADD38R,0.0860X0.0290*%
%ADD39R,0.0690X0.0316*%
%ADD40R,0.0730X0.0730*%
%ADD41C,0.2030*%
%ADD42R,0.5080X0.4230*%
%ADD43C,0.1261*%
%ADD44C,0.1145*%
%ADD45R,0.1261X0.0710*%
%ADD46R,0.2550X0.2360*%
%ADD47C,0.0954*%
%ADD48C,0.1619*%
%ADD49R,0.0769X0.0986*%
%ADD50R,0.0670X0.1070*%
%ADD51C,0.1600*%
%ADD52C,0.0476*%
%ADD53C,0.0555*%
%ADD54C,0.0789*%
%ADD55C,0.0611*%
%ADD56C,0.0516*%
D10*
X032435Y009988D03*
X032632Y009988D03*
X032828Y009988D03*
X033025Y009988D03*
X033222Y009988D03*
X033419Y009988D03*
X033616Y009988D03*
X033813Y009988D03*
X034010Y009988D03*
X034206Y009988D03*
X034403Y009988D03*
X034600Y009988D03*
X034797Y009988D03*
X034994Y009988D03*
X035191Y009988D03*
X035387Y009988D03*
X035387Y014476D03*
X035191Y014476D03*
X034994Y014476D03*
X034797Y014476D03*
X034600Y014476D03*
X034403Y014476D03*
X034206Y014476D03*
X034010Y014476D03*
X033813Y014476D03*
X033616Y014476D03*
X033419Y014476D03*
X033222Y014476D03*
X033025Y014476D03*
X032828Y014476D03*
X032632Y014476D03*
X032435Y014476D03*
D11*
X031667Y013709D03*
X031667Y013512D03*
X031667Y013315D03*
X031667Y013118D03*
X031667Y012921D03*
X031667Y012724D03*
X031667Y012527D03*
X031667Y012331D03*
X031667Y012134D03*
X031667Y011937D03*
X031667Y011740D03*
X031667Y011543D03*
X031667Y011346D03*
X031667Y011149D03*
X031667Y010953D03*
X031667Y010756D03*
X036155Y010756D03*
X036155Y010953D03*
X036155Y011149D03*
X036155Y011346D03*
X036155Y011543D03*
X036155Y011740D03*
X036155Y011937D03*
X036155Y012134D03*
X036155Y012331D03*
X036155Y012527D03*
X036155Y012724D03*
X036155Y012921D03*
X036155Y013118D03*
X036155Y013315D03*
X036155Y013512D03*
X036155Y013709D03*
D12*
X038626Y011182D03*
X039296Y011182D03*
D13*
X038911Y011847D03*
X038911Y012517D03*
X038111Y012517D03*
X038111Y011847D03*
X033806Y008477D03*
X033136Y008477D03*
X033136Y007682D03*
X033806Y007682D03*
X031296Y004762D03*
X030626Y004762D03*
X031261Y003797D03*
X031261Y003127D03*
X030421Y001712D03*
X029751Y001712D03*
X029051Y001702D03*
X028381Y001702D03*
X026836Y001622D03*
X026836Y002292D03*
X026836Y002872D03*
X026836Y003542D03*
X025676Y003542D03*
X025676Y002872D03*
X025676Y002292D03*
X025676Y001622D03*
X024526Y001622D03*
X024526Y002292D03*
X024526Y002872D03*
X024526Y003542D03*
X023356Y003542D03*
X023356Y002872D03*
X023356Y002292D03*
X023356Y001622D03*
X023586Y006942D03*
X023586Y007612D03*
X023586Y008592D03*
X023586Y009262D03*
X028676Y014632D03*
X029346Y014632D03*
X030426Y014312D03*
X030426Y014982D03*
X028866Y016097D03*
X028866Y016767D03*
X029611Y013067D03*
X029611Y012397D03*
X030461Y012397D03*
X030461Y013067D03*
X033721Y015917D03*
X034391Y015917D03*
X034396Y016732D03*
X033726Y016732D03*
X033596Y018312D03*
X032926Y018312D03*
X044336Y008752D03*
X045006Y008752D03*
X047581Y007017D03*
X048251Y007017D03*
X048246Y006062D03*
X047576Y006062D03*
X047576Y005062D03*
X048246Y005062D03*
X053151Y009902D03*
X053821Y009902D03*
X036156Y002322D03*
X036156Y001652D03*
X016976Y006697D03*
X016976Y007367D03*
X012731Y006967D03*
X012061Y006967D03*
X012621Y006267D03*
X012621Y005597D03*
X009296Y002257D03*
X009296Y001587D03*
X008466Y010182D03*
X008466Y010852D03*
X008471Y011472D03*
X008471Y012142D03*
X012546Y018017D03*
X013216Y018017D03*
X027850Y031595D03*
X027850Y032265D03*
X028850Y032265D03*
X028850Y031596D03*
X030671Y032465D03*
X031340Y032465D03*
X028705Y033780D03*
X028705Y034450D03*
X028705Y035830D03*
X028705Y036500D03*
X025260Y036760D03*
X025260Y036090D03*
X024000Y038470D03*
X024000Y039140D03*
X019335Y040105D03*
X018666Y040105D03*
X018966Y046905D03*
X019635Y046905D03*
X025016Y044305D03*
X025685Y044305D03*
X032066Y045520D03*
X032735Y045520D03*
X032735Y046420D03*
X032066Y046420D03*
X034925Y043050D03*
X034925Y042380D03*
X034925Y041850D03*
X034925Y041180D03*
X036041Y038440D03*
X036710Y038440D03*
X042041Y040080D03*
X042046Y040910D03*
X042715Y040910D03*
X042710Y040080D03*
X044096Y042780D03*
X044765Y042780D03*
X045326Y042770D03*
X045995Y042770D03*
X046191Y040400D03*
X046860Y040400D03*
X046860Y039550D03*
X046191Y039550D03*
X046325Y038480D03*
X046325Y037810D03*
X047165Y037810D03*
X047165Y038480D03*
X049530Y036747D03*
X050199Y036747D03*
X039945Y044095D03*
X039276Y044095D03*
X019305Y033610D03*
X018636Y033610D03*
D14*
X033836Y009132D03*
D15*
X022426Y009037D03*
X022426Y008137D03*
X022426Y007237D03*
X009431Y010337D03*
X009431Y011237D03*
X009431Y012137D03*
D16*
X011911Y011247D03*
X019946Y008127D03*
D17*
X024736Y007628D03*
X024736Y006526D03*
X024736Y008676D03*
X024736Y009778D03*
X028811Y012481D03*
X028811Y013583D03*
X026850Y031379D03*
X025900Y031379D03*
X025900Y032481D03*
X026850Y032481D03*
X007531Y012668D03*
X007531Y011566D03*
X007536Y010658D03*
X007536Y009556D03*
D18*
X010021Y015577D03*
X025726Y012622D03*
X031916Y006422D03*
X031916Y006422D03*
X032916Y006422D03*
X032916Y006422D03*
X033916Y006422D03*
X033916Y006422D03*
X034916Y006422D03*
X034916Y006422D03*
X035916Y006422D03*
X035916Y006422D03*
X051365Y043319D03*
X037140Y044565D03*
D19*
X036966Y018682D03*
X034407Y018682D03*
X033602Y003452D03*
X036161Y003452D03*
D20*
X029953Y004140D03*
X029756Y004140D03*
X029560Y004140D03*
X029363Y004140D03*
X029166Y004140D03*
X028969Y004140D03*
X028969Y002585D03*
X029166Y002585D03*
X029363Y002585D03*
X029560Y002585D03*
X029756Y002585D03*
X029953Y002585D03*
D21*
X030249Y002870D03*
X030249Y003067D03*
X030249Y003264D03*
X030249Y003461D03*
X030249Y003657D03*
X030249Y003854D03*
X028674Y003854D03*
X028674Y003657D03*
X028674Y003461D03*
X028674Y003264D03*
X028674Y003067D03*
X028674Y002870D03*
D22*
X028556Y005081D03*
X028556Y005593D03*
X029531Y005583D03*
X029531Y005071D03*
D23*
X040879Y003481D03*
X041666Y003481D03*
X042453Y003481D03*
X043241Y003481D03*
X044028Y003481D03*
X044816Y003481D03*
X045603Y003481D03*
X046390Y003481D03*
X047178Y003481D03*
X047965Y003481D03*
X047965Y012143D03*
X047178Y012143D03*
X046390Y012143D03*
X045603Y012143D03*
X044816Y012143D03*
X044028Y012143D03*
X043241Y012143D03*
X042453Y012143D03*
X041666Y012143D03*
X040879Y012143D03*
D24*
G36*
X049658Y010580D02*
X049279Y010237D01*
X048936Y010616D01*
X049315Y010959D01*
X049658Y010580D01*
G37*
G36*
X050156Y011028D02*
X049777Y010685D01*
X049434Y011064D01*
X049813Y011407D01*
X050156Y011028D01*
G37*
G36*
X050124Y010224D02*
X050503Y010567D01*
X050846Y010188D01*
X050467Y009845D01*
X050124Y010224D01*
G37*
G36*
X049626Y009776D02*
X050005Y010119D01*
X050348Y009740D01*
X049969Y009397D01*
X049626Y009776D01*
G37*
G36*
X050014Y006217D02*
X050393Y005874D01*
X050050Y005495D01*
X049671Y005838D01*
X050014Y006217D01*
G37*
G36*
X050512Y005769D02*
X050891Y005426D01*
X050548Y005047D01*
X050169Y005390D01*
X050512Y005769D01*
G37*
G36*
X049887Y005014D02*
X050266Y004671D01*
X049923Y004292D01*
X049544Y004635D01*
X049887Y005014D01*
G37*
G36*
X049389Y005462D02*
X049768Y005119D01*
X049425Y004740D01*
X049046Y005083D01*
X049389Y005462D01*
G37*
D25*
X045767Y009802D03*
X044665Y009802D03*
D26*
X052405Y007947D03*
X052917Y007947D03*
X052917Y007177D03*
X052405Y007177D03*
X052405Y006322D03*
X052917Y006322D03*
D27*
X007177Y001922D03*
X007965Y001922D03*
X007811Y006728D03*
X007811Y007516D03*
X013236Y003478D03*
X013236Y002691D03*
X013236Y001903D03*
X013236Y001116D03*
X016635Y002177D03*
X017422Y002177D03*
X018210Y002177D03*
X018997Y002177D03*
X018406Y010292D03*
X016406Y010292D03*
X020406Y010292D03*
X022406Y010292D03*
X028062Y018487D03*
X028850Y018487D03*
X022406Y019292D03*
X018406Y019292D03*
X016406Y019292D03*
X040258Y018277D03*
X041045Y018277D03*
X041832Y018277D03*
X042620Y018277D03*
X043407Y018277D03*
X044195Y018277D03*
X046030Y018327D03*
X046817Y018327D03*
X047605Y018327D03*
X048392Y018327D03*
X050190Y018312D03*
X050978Y018312D03*
X051765Y018312D03*
X052552Y018312D03*
X053340Y018312D03*
X054127Y018312D03*
X054915Y018312D03*
X055702Y018312D03*
X054636Y016013D03*
X054636Y015226D03*
X054636Y014438D03*
X054636Y013651D03*
X055911Y011956D03*
X055911Y011168D03*
X054736Y008012D03*
X054736Y007225D03*
X054736Y006437D03*
X054736Y005650D03*
X054736Y004862D03*
X050715Y049412D03*
X049927Y049412D03*
X049140Y049412D03*
X048353Y049412D03*
X046564Y049392D03*
X045776Y049392D03*
X044989Y049392D03*
X044201Y049392D03*
X043414Y049392D03*
X042627Y049392D03*
X041839Y049392D03*
X041052Y049392D03*
D28*
X006816Y019757D03*
X006816Y017587D03*
D29*
X013897Y007282D03*
X013897Y006782D03*
X013897Y006282D03*
X013897Y005782D03*
X015945Y005782D03*
X015945Y006282D03*
X015945Y006782D03*
X015945Y007282D03*
D30*
X012794Y007618D03*
X012794Y008366D03*
X011908Y007992D03*
D31*
X010741Y007914D03*
X010741Y006221D03*
D32*
X015371Y011292D03*
X023442Y018292D03*
D33*
X009831Y019737D03*
X045078Y028922D03*
D34*
X012551Y020637D03*
X012551Y018837D03*
D35*
X014296Y018642D03*
X014296Y020642D03*
D36*
X017030Y020577D03*
X018723Y020577D03*
X024794Y035110D03*
X026487Y035110D03*
X026447Y042645D03*
X024754Y042645D03*
X024719Y045355D03*
X026412Y045355D03*
D37*
X041710Y038825D03*
X042210Y038825D03*
X042710Y038825D03*
X043210Y038825D03*
X043710Y038825D03*
X044210Y038825D03*
X044710Y038825D03*
X045210Y038825D03*
X045210Y035085D03*
X044710Y035085D03*
X044210Y035085D03*
X043710Y035085D03*
X043210Y035085D03*
X042710Y035085D03*
X042210Y035085D03*
X041710Y035085D03*
D38*
X033535Y038515D03*
X033535Y039015D03*
X033535Y039515D03*
X033535Y040015D03*
X033535Y040515D03*
X033535Y041015D03*
X033535Y041515D03*
X033535Y042015D03*
X033535Y042515D03*
X033535Y043015D03*
X033535Y043515D03*
X033535Y044015D03*
X029845Y044015D03*
X029845Y043515D03*
X029845Y043015D03*
X029845Y042515D03*
X029845Y042015D03*
X029845Y041515D03*
X029845Y041015D03*
X029845Y040515D03*
X029845Y040015D03*
X029845Y039515D03*
X029845Y039015D03*
X029845Y038515D03*
D39*
X037147Y039530D03*
X037147Y040030D03*
X037147Y040530D03*
X037147Y041030D03*
X037147Y041530D03*
X037147Y042030D03*
X037147Y042530D03*
X037147Y043030D03*
X039273Y043030D03*
X039273Y042530D03*
X039273Y042030D03*
X039273Y041530D03*
X039273Y041030D03*
X039273Y040530D03*
X039273Y040030D03*
X039273Y039530D03*
D40*
X031260Y035810D03*
X031260Y034470D03*
X029760Y033800D03*
X029760Y035140D03*
X029760Y036480D03*
D41*
X038630Y035140D03*
D42*
X037730Y035140D03*
D43*
X014341Y041480D03*
X011341Y040081D03*
D44*
X014054Y038179D03*
X015549Y038877D03*
X012558Y037482D03*
D45*
X019090Y037555D03*
X019090Y039355D03*
X019090Y044055D03*
X019090Y045855D03*
X019090Y032655D03*
X019090Y030855D03*
D46*
X021625Y031755D03*
X021625Y038455D03*
X021625Y044955D03*
D47*
X048333Y032551D03*
X049963Y032551D03*
D48*
X049148Y029661D03*
D49*
X048429Y035792D03*
X046429Y035792D03*
D50*
X045978Y031642D03*
X044178Y031642D03*
D51*
X052740Y039774D03*
X030240Y062274D03*
X007741Y039774D03*
D52*
X019905Y040115D03*
X023175Y039525D03*
X023180Y038775D03*
X023205Y038090D03*
X023125Y037520D03*
X020015Y033530D03*
X023205Y032315D03*
X028770Y037715D03*
X028800Y038515D03*
X031215Y040095D03*
X031410Y040940D03*
X032395Y040210D03*
X035630Y041770D03*
X037360Y038740D03*
X040201Y039312D03*
X041706Y039577D03*
X041476Y040617D03*
X042411Y041572D03*
X043386Y042287D03*
X045946Y044002D03*
X047181Y041057D03*
X047736Y038952D03*
X050881Y036402D03*
X040556Y044287D03*
X039066Y045237D03*
X031240Y045830D03*
X031155Y046610D03*
X029910Y045840D03*
X028430Y045840D03*
X027265Y045840D03*
X028250Y043125D03*
X028645Y042030D03*
X023615Y044400D03*
X023205Y043880D03*
X026415Y049860D03*
X040246Y020867D03*
X045576Y019597D03*
X045531Y018992D03*
X047286Y018947D03*
X047281Y019587D03*
X051751Y016092D03*
X048656Y011002D03*
X046371Y008302D03*
X047296Y007857D03*
X043496Y009167D03*
X040406Y009112D03*
X040381Y008282D03*
X039446Y010222D03*
X037081Y009492D03*
X037091Y008557D03*
X035766Y008187D03*
X034731Y008187D03*
X032591Y008132D03*
X030321Y005697D03*
X030046Y005147D03*
X029051Y005657D03*
X029436Y006442D03*
X027906Y005557D03*
X028096Y005082D03*
X027976Y003962D03*
X026306Y003717D03*
X025166Y003732D03*
X023946Y003557D03*
X024866Y005082D03*
X025601Y005142D03*
X023786Y005557D03*
X022826Y005142D03*
X022576Y003662D03*
X021186Y003252D03*
X020781Y003697D03*
X020496Y004232D03*
X020336Y004782D03*
X019226Y004207D03*
X019356Y003582D03*
X019771Y002912D03*
X020376Y002457D03*
X020456Y006142D03*
X019451Y006127D03*
X017581Y007557D03*
X015016Y003127D03*
X011816Y006107D03*
X011681Y018217D03*
X027936Y013707D03*
X029836Y014302D03*
X028866Y015512D03*
X030566Y017112D03*
X031761Y017152D03*
X032751Y017427D03*
X034396Y017327D03*
X030796Y020302D03*
X028941Y020332D03*
X033756Y013662D03*
X033246Y012632D03*
X033231Y011207D03*
X031941Y004507D03*
X032111Y002872D03*
X031506Y002257D03*
X030941Y001707D03*
X027736Y001512D03*
X036806Y001952D03*
X039246Y004597D03*
X040641Y013442D03*
X040541Y014447D03*
X053436Y007177D03*
X053451Y006327D03*
D53*
X041436Y008702D03*
X041401Y007492D03*
X040251Y005312D03*
X036281Y005307D03*
X033101Y000822D03*
X026206Y007622D03*
X021471Y001252D03*
X018091Y005822D03*
X018556Y007337D03*
X016126Y004422D03*
X015031Y003091D03*
X037581Y016527D03*
X038636Y015692D03*
X039881Y014407D03*
D54*
X025681Y008617D03*
X025501Y006577D03*
X012961Y011277D03*
X006661Y011142D03*
D55*
X025280Y033225D03*
X025630Y033775D03*
X025985Y033230D03*
X033570Y037755D03*
X035205Y037750D03*
D56*
X027450Y035120D03*
X027520Y042635D03*
X027510Y044965D03*
M02*
