%
M48
M72
T01C0.0236
T02C0.0276
T03C0.0300
T04C0.0315
T05C0.0354
T06C0.0400
T07C0.0433
T08C0.0472
T09C0.0550
T10C0.0583
T11C0.0591
T12C0.0710
T13C0.1120
T14C0.1181
T15C0.1539
T16C0.1550
%
T01
X11816Y6107
X15016Y3127
X19226Y4207
X19356Y3582
X19771Y2912
X20376Y2457
X21186Y3252
X20781Y3697
X20496Y4232
X20336Y4782
X20456Y6142
X19451Y6127
X17581Y7557
X22576Y3662
X23946Y3557
X25166Y3732
X26306Y3717
X24866Y5082
X25601Y5142
X23786Y5557
X22826Y5142
X27906Y5557
X28096Y5082
X27976Y3962
X29051Y5657
X30046Y5147
X30321Y5697
X29436Y6442
X31941Y4507
X32111Y2872
X31506Y2257
X30941Y1707
X27736Y1512
X32591Y8132
X34731Y8187
X35766Y8187
X37091Y8557
X37081Y9492
X39446Y10222
X40406Y9112
X40381Y8282
X43496Y9167
X46371Y8302
X47296Y7857
X48656Y11002
X51751Y16092
X47286Y18947
X47281Y19587
X45576Y19597
X45531Y18992
X40246Y20867
X40541Y14447
X40641Y13442
X34396Y17327
X32751Y17427
X31761Y17152
X30566Y17112
X28866Y15512
X29836Y14302
X27936Y13707
X33246Y12632
X33756Y13662
X33231Y11207
X39246Y4597
X36806Y1952
X53451Y6327
X53436Y7177
X30796Y20302
X28941Y20332
X23205Y32315
X20015Y33530
X23125Y37520
X23205Y38090
X23180Y38775
X23175Y39525
X19905Y40115
X23205Y43880
X23615Y44400
X27265Y45840
X28430Y45840
X29910Y45840
X31240Y45830
X31155Y46610
X28250Y43125
X28645Y42030
X31215Y40095
X31410Y40940
X32395Y40210
X35630Y41770
X37360Y38740
X40201Y39312
X41706Y39577
X41476Y40617
X42411Y41572
X43386Y42287
X45946Y44002
X47181Y41057
X47736Y38952
X50881Y36402
X40556Y44287
X39066Y45237
X28800Y38515
X28770Y37715
X26415Y49860
X11681Y18217
T02
X27450Y35120
X27520Y42635
X27510Y44965
T03
X33836Y9132
T04
X7177Y1922
X7965Y1922
X7811Y6728
X7811Y7516
X13236Y3478
X13236Y2691
X13236Y1903
X13236Y1116
X15031Y3091
X16126Y4422
X16635Y2177
X17422Y2177
X18210Y2177
X18997Y2177
X21471Y1252
X18091Y5822
X18556Y7337
X18406Y10292
X16406Y10292
X20406Y10292
X22406Y10292
X26206Y7622
X33101Y822
X36281Y5307
X40251Y5312
X40879Y3481
X41666Y3481
X42453Y3481
X43241Y3481
X44028Y3481
X44816Y3481
X45603Y3481
X46390Y3481
X47178Y3481
X47965Y3481
X41436Y8702
X41401Y7492
X41666Y12143
X42453Y12143
X43241Y12143
X44028Y12143
X44816Y12143
X45603Y12143
X46390Y12143
X47178Y12143
X47965Y12143
X47605Y18327
X46817Y18327
X46030Y18327
X44195Y18277
X43407Y18277
X42620Y18277
X41832Y18277
X41045Y18277
X40258Y18277
X38636Y15692
X37581Y16527
X39881Y14407
X40879Y12143
X48392Y18327
X50190Y18312
X50978Y18312
X51765Y18312
X52552Y18312
X53340Y18312
X54127Y18312
X54915Y18312
X55702Y18312
X54636Y16013
X54636Y15226
X54636Y14438
X54636Y13651
X55911Y11956
X55911Y11168
X54736Y8012
X54736Y7225
X54736Y6437
X54736Y5650
X54736Y4862
X28850Y18487
X28062Y18487
X22406Y19292
X18406Y19292
X16406Y19292
X41052Y49392
X41839Y49392
X42627Y49392
X43414Y49392
X44201Y49392
X44989Y49392
X45776Y49392
X46564Y49392
X48353Y49412
X49140Y49412
X49927Y49412
X50715Y49412
T05
X35205Y37750
X33570Y37755
X25985Y33230
X25630Y33775
X25280Y33225
T06
X37140Y44565
X51365Y43319
X25726Y12622
X31916Y6422
X31916Y6422
X32916Y6422
X32916Y6422
X33916Y6422
X33916Y6422
X34916Y6422
X34916Y6422
X35916Y6422
X35916Y6422
X10021Y15577
T07
X15371Y11292
X23442Y18292
X29760Y33800
X29760Y35140
X29760Y36480
X31260Y35810
X31260Y34470
T08
X12961Y11277
X6661Y11142
X25681Y8617
X25501Y6577
T09
X6816Y17587
X6816Y19757
T10
X48333Y32551
X49963Y32551
T11
X36966Y18682
X34407Y18682
X33602Y3452
X36161Y3452
T12
X12558Y37482
X14054Y38179
X15549Y38877
T13
X7741Y39774
X30240Y62274
X52740Y39774
T14
X14341Y41480
X11341Y40081
T15
X49148Y29661
T16
X38630Y35140
M30
