G04 (created by PCBNEW (2013-05-31 BZR 4019)-stable) date 6/4/2013 8:20:18 PM*
%MOIN*%
G04 Gerber Fmt 3.4, Leading zero omitted, Abs format*
%FSLAX34Y34*%
G01*
G70*
G90*
G04 APERTURE LIST*
%ADD10C,0.00590551*%
%ADD11C,0.011811*%
%ADD12C,0.005*%
%ADD13C,0.0026*%
%ADD14C,0.004*%
%ADD15C,0.0045*%
G04 APERTURE END LIST*
G54D10*
G54D11*
X99149Y-55939D02*
X99149Y-55348D01*
X99149Y-55629D02*
X98812Y-55629D01*
X98812Y-55939D02*
X98812Y-55348D01*
X98277Y-55939D02*
X98277Y-55629D01*
X98306Y-55573D01*
X98362Y-55545D01*
X98474Y-55545D01*
X98531Y-55573D01*
X98277Y-55910D02*
X98334Y-55939D01*
X98474Y-55939D01*
X98531Y-55910D01*
X98559Y-55854D01*
X98559Y-55798D01*
X98531Y-55742D01*
X98474Y-55714D01*
X98334Y-55714D01*
X98277Y-55685D01*
X97912Y-55939D02*
X97968Y-55910D01*
X97996Y-55854D01*
X97996Y-55348D01*
X97603Y-55939D02*
X97659Y-55910D01*
X97687Y-55854D01*
X97687Y-55348D01*
X96928Y-55629D02*
X96731Y-55629D01*
X96646Y-55939D02*
X96928Y-55939D01*
X96928Y-55348D01*
X96646Y-55348D01*
X96478Y-55545D02*
X96253Y-55545D01*
X96393Y-55939D02*
X96393Y-55432D01*
X96365Y-55376D01*
X96309Y-55348D01*
X96253Y-55348D01*
X96140Y-55545D02*
X95915Y-55545D01*
X96056Y-55939D02*
X96056Y-55432D01*
X96028Y-55376D01*
X95971Y-55348D01*
X95915Y-55348D01*
X95493Y-55910D02*
X95550Y-55939D01*
X95662Y-55939D01*
X95718Y-55910D01*
X95747Y-55854D01*
X95747Y-55629D01*
X95718Y-55573D01*
X95662Y-55545D01*
X95550Y-55545D01*
X95493Y-55573D01*
X95465Y-55629D01*
X95465Y-55685D01*
X95747Y-55742D01*
X94959Y-55910D02*
X95015Y-55939D01*
X95128Y-55939D01*
X95184Y-55910D01*
X95212Y-55882D01*
X95240Y-55826D01*
X95240Y-55657D01*
X95212Y-55601D01*
X95184Y-55573D01*
X95128Y-55545D01*
X95015Y-55545D01*
X94959Y-55573D01*
X94790Y-55545D02*
X94565Y-55545D01*
X94706Y-55348D02*
X94706Y-55854D01*
X94678Y-55910D01*
X94622Y-55939D01*
X94565Y-55939D01*
X98109Y-56883D02*
X98109Y-56293D01*
X97828Y-56490D02*
X97828Y-56883D01*
X97828Y-56546D02*
X97799Y-56518D01*
X97743Y-56490D01*
X97659Y-56490D01*
X97603Y-56518D01*
X97574Y-56574D01*
X97574Y-56883D01*
X97293Y-56490D02*
X97293Y-57080D01*
X97293Y-56518D02*
X97237Y-56490D01*
X97124Y-56490D01*
X97068Y-56518D01*
X97040Y-56546D01*
X97012Y-56602D01*
X97012Y-56771D01*
X97040Y-56827D01*
X97068Y-56855D01*
X97124Y-56883D01*
X97237Y-56883D01*
X97293Y-56855D01*
X96506Y-56490D02*
X96506Y-56883D01*
X96759Y-56490D02*
X96759Y-56799D01*
X96731Y-56855D01*
X96675Y-56883D01*
X96590Y-56883D01*
X96534Y-56855D01*
X96506Y-56827D01*
X96309Y-56490D02*
X96084Y-56490D01*
X96225Y-56293D02*
X96225Y-56799D01*
X96196Y-56855D01*
X96140Y-56883D01*
X96084Y-56883D01*
X95915Y-56855D02*
X95859Y-56883D01*
X95747Y-56883D01*
X95690Y-56855D01*
X95662Y-56799D01*
X95662Y-56771D01*
X95690Y-56715D01*
X95747Y-56687D01*
X95831Y-56687D01*
X95887Y-56658D01*
X95915Y-56602D01*
X95915Y-56574D01*
X95887Y-56518D01*
X95831Y-56490D01*
X95747Y-56490D01*
X95690Y-56518D01*
X99520Y-65939D02*
X99520Y-65348D01*
X99323Y-65770D01*
X99126Y-65348D01*
X99126Y-65939D01*
X98592Y-65939D02*
X98592Y-65629D01*
X98620Y-65573D01*
X98676Y-65545D01*
X98788Y-65545D01*
X98845Y-65573D01*
X98592Y-65910D02*
X98648Y-65939D01*
X98788Y-65939D01*
X98845Y-65910D01*
X98873Y-65854D01*
X98873Y-65798D01*
X98845Y-65742D01*
X98788Y-65714D01*
X98648Y-65714D01*
X98592Y-65685D01*
X98057Y-65545D02*
X98057Y-66023D01*
X98085Y-66079D01*
X98114Y-66107D01*
X98170Y-66135D01*
X98254Y-66135D01*
X98310Y-66107D01*
X98057Y-65910D02*
X98114Y-65939D01*
X98226Y-65939D01*
X98282Y-65910D01*
X98310Y-65882D01*
X98339Y-65826D01*
X98339Y-65657D01*
X98310Y-65601D01*
X98282Y-65573D01*
X98226Y-65545D01*
X98114Y-65545D01*
X98057Y-65573D01*
X97776Y-65545D02*
X97776Y-65939D01*
X97776Y-65601D02*
X97748Y-65573D01*
X97692Y-65545D01*
X97607Y-65545D01*
X97551Y-65573D01*
X97523Y-65629D01*
X97523Y-65939D01*
X97017Y-65910D02*
X97073Y-65939D01*
X97186Y-65939D01*
X97242Y-65910D01*
X97270Y-65854D01*
X97270Y-65629D01*
X97242Y-65573D01*
X97186Y-65545D01*
X97073Y-65545D01*
X97017Y-65573D01*
X96989Y-65629D01*
X96989Y-65685D01*
X97270Y-65742D01*
X96820Y-65545D02*
X96595Y-65545D01*
X96736Y-65348D02*
X96736Y-65854D01*
X96707Y-65910D01*
X96651Y-65939D01*
X96595Y-65939D01*
X99224Y-66827D02*
X99252Y-66855D01*
X99337Y-66883D01*
X99393Y-66883D01*
X99477Y-66855D01*
X99534Y-66799D01*
X99562Y-66743D01*
X99590Y-66630D01*
X99590Y-66546D01*
X99562Y-66433D01*
X99534Y-66377D01*
X99477Y-66321D01*
X99393Y-66293D01*
X99337Y-66293D01*
X99252Y-66321D01*
X99224Y-66349D01*
X98887Y-66883D02*
X98943Y-66855D01*
X98971Y-66827D01*
X98999Y-66771D01*
X98999Y-66602D01*
X98971Y-66546D01*
X98943Y-66518D01*
X98887Y-66490D01*
X98803Y-66490D01*
X98746Y-66518D01*
X98718Y-66546D01*
X98690Y-66602D01*
X98690Y-66771D01*
X98718Y-66827D01*
X98746Y-66855D01*
X98803Y-66883D01*
X98887Y-66883D01*
X98437Y-66490D02*
X98437Y-66883D01*
X98437Y-66546D02*
X98409Y-66518D01*
X98353Y-66490D01*
X98268Y-66490D01*
X98212Y-66518D01*
X98184Y-66574D01*
X98184Y-66883D01*
X97987Y-66490D02*
X97762Y-66490D01*
X97903Y-66293D02*
X97903Y-66799D01*
X97875Y-66855D01*
X97818Y-66883D01*
X97762Y-66883D01*
X97565Y-66883D02*
X97565Y-66490D01*
X97565Y-66602D02*
X97537Y-66546D01*
X97509Y-66518D01*
X97453Y-66490D01*
X97396Y-66490D01*
X97115Y-66883D02*
X97171Y-66855D01*
X97200Y-66827D01*
X97228Y-66771D01*
X97228Y-66602D01*
X97200Y-66546D01*
X97171Y-66518D01*
X97115Y-66490D01*
X97031Y-66490D01*
X96975Y-66518D01*
X96947Y-66546D01*
X96918Y-66602D01*
X96918Y-66771D01*
X96947Y-66827D01*
X96975Y-66855D01*
X97031Y-66883D01*
X97115Y-66883D01*
X96581Y-66883D02*
X96637Y-66855D01*
X96665Y-66799D01*
X96665Y-66293D01*
X98582Y-60639D02*
X98582Y-60048D01*
X98385Y-60470D01*
X98188Y-60048D01*
X98188Y-60639D01*
X97823Y-60639D02*
X97879Y-60610D01*
X97907Y-60582D01*
X97935Y-60526D01*
X97935Y-60357D01*
X97907Y-60301D01*
X97879Y-60273D01*
X97823Y-60245D01*
X97739Y-60245D01*
X97682Y-60273D01*
X97654Y-60301D01*
X97626Y-60357D01*
X97626Y-60526D01*
X97654Y-60582D01*
X97682Y-60610D01*
X97739Y-60639D01*
X97823Y-60639D01*
X97457Y-60245D02*
X97232Y-60245D01*
X97373Y-60048D02*
X97373Y-60554D01*
X97345Y-60610D01*
X97289Y-60639D01*
X97232Y-60639D01*
X96951Y-60639D02*
X97007Y-60610D01*
X97035Y-60582D01*
X97064Y-60526D01*
X97064Y-60357D01*
X97035Y-60301D01*
X97007Y-60273D01*
X96951Y-60245D01*
X96867Y-60245D01*
X96811Y-60273D01*
X96782Y-60301D01*
X96754Y-60357D01*
X96754Y-60526D01*
X96782Y-60582D01*
X96811Y-60610D01*
X96867Y-60639D01*
X96951Y-60639D01*
X96501Y-60639D02*
X96501Y-60245D01*
X96501Y-60357D02*
X96473Y-60301D01*
X96445Y-60273D01*
X96389Y-60245D01*
X96332Y-60245D01*
X99116Y-61274D02*
X98920Y-61274D01*
X98835Y-61583D02*
X99116Y-61583D01*
X99116Y-60993D01*
X98835Y-60993D01*
X98582Y-61190D02*
X98582Y-61583D01*
X98582Y-61246D02*
X98554Y-61218D01*
X98498Y-61190D01*
X98413Y-61190D01*
X98357Y-61218D01*
X98329Y-61274D01*
X98329Y-61583D01*
X97795Y-61555D02*
X97851Y-61583D01*
X97964Y-61583D01*
X98020Y-61555D01*
X98048Y-61527D01*
X98076Y-61471D01*
X98076Y-61302D01*
X98048Y-61246D01*
X98020Y-61218D01*
X97964Y-61190D01*
X97851Y-61190D01*
X97795Y-61218D01*
X97457Y-61583D02*
X97514Y-61555D01*
X97542Y-61527D01*
X97570Y-61471D01*
X97570Y-61302D01*
X97542Y-61246D01*
X97514Y-61218D01*
X97457Y-61190D01*
X97373Y-61190D01*
X97317Y-61218D01*
X97289Y-61246D01*
X97260Y-61302D01*
X97260Y-61471D01*
X97289Y-61527D01*
X97317Y-61555D01*
X97373Y-61583D01*
X97457Y-61583D01*
X96754Y-61583D02*
X96754Y-60993D01*
X96754Y-61555D02*
X96811Y-61583D01*
X96923Y-61583D01*
X96979Y-61555D01*
X97007Y-61527D01*
X97035Y-61471D01*
X97035Y-61302D01*
X97007Y-61246D01*
X96979Y-61218D01*
X96923Y-61190D01*
X96811Y-61190D01*
X96754Y-61218D01*
X96248Y-61555D02*
X96304Y-61583D01*
X96417Y-61583D01*
X96473Y-61555D01*
X96501Y-61499D01*
X96501Y-61274D01*
X96473Y-61218D01*
X96417Y-61190D01*
X96304Y-61190D01*
X96248Y-61218D01*
X96220Y-61274D01*
X96220Y-61330D01*
X96501Y-61387D01*
X95967Y-61583D02*
X95967Y-61190D01*
X95967Y-61302D02*
X95939Y-61246D01*
X95911Y-61218D01*
X95854Y-61190D01*
X95798Y-61190D01*
G54D10*
X97870Y-54641D02*
X97870Y-55035D01*
X97870Y-55035D02*
X99641Y-55035D01*
X99641Y-55035D02*
X99641Y-54838D01*
X99641Y-52161D02*
X99641Y-51964D01*
X99641Y-51964D02*
X97870Y-51964D01*
X97870Y-51964D02*
X97870Y-52358D01*
X99641Y-54838D02*
X99641Y-54248D01*
X99641Y-52751D02*
X99641Y-52161D01*
X97791Y-52240D02*
G75*
G03X97791Y-52240I-39J0D01*
G74*
G01*
X99641Y-54248D02*
X99641Y-52948D01*
X99641Y-52948D02*
X99641Y-52751D01*
G54D12*
X85350Y-40950D02*
X86250Y-40950D01*
X86250Y-40950D02*
X86250Y-40450D01*
X86250Y-40450D02*
X85350Y-40450D01*
X85350Y-40450D02*
X85350Y-40950D01*
X84750Y-41450D02*
X84750Y-40550D01*
X84750Y-40550D02*
X84250Y-40550D01*
X84250Y-40550D02*
X84250Y-41450D01*
X84250Y-41450D02*
X84750Y-41450D01*
X68250Y-41950D02*
X68250Y-41050D01*
X68250Y-41050D02*
X67750Y-41050D01*
X67750Y-41050D02*
X67750Y-41950D01*
X67750Y-41950D02*
X68250Y-41950D01*
X63250Y-40550D02*
X63250Y-41450D01*
X63250Y-41450D02*
X63750Y-41450D01*
X63750Y-41450D02*
X63750Y-40550D01*
X63750Y-40550D02*
X63250Y-40550D01*
X63250Y-42050D02*
X63250Y-42950D01*
X63250Y-42950D02*
X63750Y-42950D01*
X63750Y-42950D02*
X63750Y-42050D01*
X63750Y-42050D02*
X63250Y-42050D01*
X81050Y-41050D02*
X80150Y-41050D01*
X80150Y-41050D02*
X80150Y-41550D01*
X80150Y-41550D02*
X81050Y-41550D01*
X81050Y-41550D02*
X81050Y-41050D01*
G54D10*
X97870Y-59444D02*
X97870Y-59838D01*
X97870Y-59838D02*
X99641Y-59838D01*
X99641Y-59838D02*
X99641Y-59248D01*
X99641Y-57751D02*
X99641Y-57161D01*
X99641Y-57161D02*
X97870Y-57161D01*
X97870Y-57161D02*
X97870Y-57555D01*
X97791Y-57437D02*
G75*
G03X97791Y-57437I-39J0D01*
G74*
G01*
X99641Y-59248D02*
X99641Y-57948D01*
X99641Y-57948D02*
X99641Y-57751D01*
X60972Y-63381D02*
G75*
G03X60972Y-63381I-78J0D01*
G74*
G01*
X68767Y-64169D02*
X68767Y-63775D01*
X68767Y-63775D02*
X60500Y-63775D01*
X60500Y-63775D02*
X58531Y-66137D01*
X58531Y-66137D02*
X58531Y-70862D01*
X58531Y-70862D02*
X60500Y-73224D01*
X60500Y-73224D02*
X68767Y-73224D01*
X68767Y-73224D02*
X68767Y-64169D01*
G54D12*
X95650Y-58050D02*
X96550Y-58050D01*
X96550Y-58050D02*
X96550Y-57550D01*
X96550Y-57550D02*
X95650Y-57550D01*
X95650Y-57550D02*
X95650Y-58050D01*
X95650Y-59050D02*
X96550Y-59050D01*
X96550Y-59050D02*
X96550Y-58550D01*
X96550Y-58550D02*
X95650Y-58550D01*
X95650Y-58550D02*
X95650Y-59050D01*
X95650Y-60150D02*
X96550Y-60150D01*
X96550Y-60150D02*
X96550Y-59650D01*
X96550Y-59650D02*
X95650Y-59650D01*
X95650Y-59650D02*
X95650Y-60150D01*
X95550Y-54450D02*
X96450Y-54450D01*
X96450Y-54450D02*
X96450Y-53950D01*
X96450Y-53950D02*
X95550Y-53950D01*
X95550Y-53950D02*
X95550Y-54450D01*
X95550Y-53550D02*
X96450Y-53550D01*
X96450Y-53550D02*
X96450Y-53050D01*
X96450Y-53050D02*
X95550Y-53050D01*
X95550Y-53050D02*
X95550Y-53550D01*
X95550Y-52650D02*
X96450Y-52650D01*
X96450Y-52650D02*
X96450Y-52150D01*
X96450Y-52150D02*
X95550Y-52150D01*
X95550Y-52150D02*
X95550Y-52650D01*
X61550Y-46250D02*
X62450Y-46250D01*
X62450Y-46250D02*
X62450Y-45750D01*
X62450Y-45750D02*
X61550Y-45750D01*
X61550Y-45750D02*
X61550Y-46250D01*
X90150Y-56750D02*
X91050Y-56750D01*
X91050Y-56750D02*
X91050Y-56250D01*
X91050Y-56250D02*
X90150Y-56250D01*
X90150Y-56250D02*
X90150Y-56750D01*
X64950Y-44250D02*
X64050Y-44250D01*
X64050Y-44250D02*
X64050Y-44750D01*
X64050Y-44750D02*
X64950Y-44750D01*
X64950Y-44750D02*
X64950Y-44250D01*
X82550Y-43750D02*
X83450Y-43750D01*
X83450Y-43750D02*
X83450Y-43250D01*
X83450Y-43250D02*
X82550Y-43250D01*
X82550Y-43250D02*
X82550Y-43750D01*
X79250Y-40850D02*
X79250Y-41750D01*
X79250Y-41750D02*
X79750Y-41750D01*
X79750Y-41750D02*
X79750Y-40850D01*
X79750Y-40850D02*
X79250Y-40850D01*
X91550Y-41250D02*
X92450Y-41250D01*
X92450Y-41250D02*
X92450Y-40750D01*
X92450Y-40750D02*
X91550Y-40750D01*
X91550Y-40750D02*
X91550Y-41250D01*
X68750Y-41050D02*
X68750Y-41950D01*
X68750Y-41950D02*
X69250Y-41950D01*
X69250Y-41950D02*
X69250Y-41050D01*
X69250Y-41050D02*
X68750Y-41050D01*
X79750Y-43450D02*
X79750Y-42550D01*
X79750Y-42550D02*
X79250Y-42550D01*
X79250Y-42550D02*
X79250Y-43450D01*
X79250Y-43450D02*
X79750Y-43450D01*
G54D10*
X97791Y-63027D02*
G75*
G03X97791Y-63027I-39J0D01*
G74*
G01*
X97948Y-63854D02*
X97948Y-64248D01*
X97948Y-64248D02*
X99641Y-64248D01*
X99641Y-64248D02*
X99641Y-62948D01*
X99641Y-62948D02*
X99641Y-62751D01*
X99641Y-62751D02*
X97948Y-62751D01*
X97948Y-62751D02*
X97948Y-63145D01*
X88100Y-65500D02*
X88100Y-64500D01*
X89300Y-63750D02*
X89900Y-63750D01*
X89900Y-66250D02*
X89300Y-66250D01*
G54D12*
X94550Y-71850D02*
X94550Y-70950D01*
X94550Y-70950D02*
X94050Y-70950D01*
X94050Y-70950D02*
X94050Y-71850D01*
X94050Y-71850D02*
X94550Y-71850D01*
X91150Y-58150D02*
X90250Y-58150D01*
X90250Y-58150D02*
X90250Y-58650D01*
X90250Y-58650D02*
X91150Y-58650D01*
X91150Y-58650D02*
X91150Y-58150D01*
X47050Y-56350D02*
X47950Y-56350D01*
X47950Y-56350D02*
X47950Y-55850D01*
X47950Y-55850D02*
X47050Y-55850D01*
X47050Y-55850D02*
X47050Y-56350D01*
X45750Y-58150D02*
X46650Y-58150D01*
X46650Y-58150D02*
X46650Y-57650D01*
X46650Y-57650D02*
X45750Y-57650D01*
X45750Y-57650D02*
X45750Y-58150D01*
X49050Y-57950D02*
X49950Y-57950D01*
X49950Y-57950D02*
X49950Y-57450D01*
X49950Y-57450D02*
X49050Y-57450D01*
X49050Y-57450D02*
X49050Y-57950D01*
X49950Y-56050D02*
X49050Y-56050D01*
X49050Y-56050D02*
X49050Y-56550D01*
X49050Y-56550D02*
X49950Y-56550D01*
X49950Y-56550D02*
X49950Y-56050D01*
X91050Y-48450D02*
X91950Y-48450D01*
X91950Y-48450D02*
X91950Y-47950D01*
X91950Y-47950D02*
X91050Y-47950D01*
X91050Y-47950D02*
X91050Y-48450D01*
X51650Y-65450D02*
X50750Y-65450D01*
X50750Y-65450D02*
X50750Y-65950D01*
X50750Y-65950D02*
X51650Y-65950D01*
X51650Y-65950D02*
X51650Y-65450D01*
X61050Y-65550D02*
X61950Y-65550D01*
X61950Y-65550D02*
X61950Y-65050D01*
X61950Y-65050D02*
X61050Y-65050D01*
X61050Y-65050D02*
X61050Y-65550D01*
X53450Y-64750D02*
X53450Y-63850D01*
X53450Y-63850D02*
X52950Y-63850D01*
X52950Y-63850D02*
X52950Y-64750D01*
X52950Y-64750D02*
X53450Y-64750D01*
X51650Y-61050D02*
X50750Y-61050D01*
X50750Y-61050D02*
X50750Y-61550D01*
X50750Y-61550D02*
X51650Y-61550D01*
X51650Y-61550D02*
X51650Y-61050D01*
X52979Y-62590D02*
X52979Y-63490D01*
X52979Y-63490D02*
X53479Y-63490D01*
X53479Y-63490D02*
X53479Y-62590D01*
X53479Y-62590D02*
X52979Y-62590D01*
X48450Y-62750D02*
X48450Y-63650D01*
X48450Y-63650D02*
X48950Y-63650D01*
X48950Y-63650D02*
X48950Y-62750D01*
X48950Y-62750D02*
X48450Y-62750D01*
X87350Y-65750D02*
X87350Y-64850D01*
X87350Y-64850D02*
X86850Y-64850D01*
X86850Y-64850D02*
X86850Y-65750D01*
X86850Y-65750D02*
X87350Y-65750D01*
X91150Y-66550D02*
X90250Y-66550D01*
X90250Y-66550D02*
X90250Y-67050D01*
X90250Y-67050D02*
X91150Y-67050D01*
X91150Y-67050D02*
X91150Y-66550D01*
G54D13*
X58423Y-63423D02*
X58423Y-63777D01*
X58423Y-63777D02*
X58266Y-63777D01*
X58266Y-63423D02*
X58266Y-63777D01*
X58423Y-63423D02*
X58266Y-63423D01*
X58934Y-63423D02*
X58934Y-63777D01*
X58934Y-63777D02*
X58777Y-63777D01*
X58777Y-63423D02*
X58777Y-63777D01*
X58934Y-63423D02*
X58777Y-63423D01*
X58600Y-63423D02*
X58600Y-63482D01*
X58600Y-63482D02*
X58482Y-63482D01*
X58482Y-63423D02*
X58482Y-63482D01*
X58600Y-63423D02*
X58482Y-63423D01*
X58600Y-63718D02*
X58600Y-63777D01*
X58600Y-63777D02*
X58482Y-63777D01*
X58482Y-63718D02*
X58482Y-63777D01*
X58600Y-63718D02*
X58482Y-63718D01*
X58600Y-63541D02*
X58600Y-63659D01*
X58600Y-63659D02*
X58482Y-63659D01*
X58482Y-63541D02*
X58482Y-63659D01*
X58600Y-63541D02*
X58482Y-63541D01*
G54D14*
X58423Y-63443D02*
X58777Y-63443D01*
X58423Y-63757D02*
X58777Y-63757D01*
G54D12*
X60250Y-63350D02*
X59350Y-63350D01*
X59350Y-63350D02*
X59350Y-63850D01*
X59350Y-63850D02*
X60250Y-63850D01*
X60250Y-63850D02*
X60250Y-63350D01*
G54D10*
X97778Y-51759D02*
X97778Y-51365D01*
X97628Y-51365D01*
X97590Y-51384D01*
X97571Y-51403D01*
X97553Y-51440D01*
X97553Y-51496D01*
X97571Y-51534D01*
X97590Y-51553D01*
X97628Y-51571D01*
X97778Y-51571D01*
X97178Y-51759D02*
X97403Y-51759D01*
X97290Y-51759D02*
X97290Y-51365D01*
X97328Y-51421D01*
X97365Y-51459D01*
X97403Y-51478D01*
X96840Y-51365D02*
X96915Y-51365D01*
X96953Y-51384D01*
X96971Y-51403D01*
X97009Y-51459D01*
X97028Y-51534D01*
X97028Y-51684D01*
X97009Y-51721D01*
X96990Y-51740D01*
X96953Y-51759D01*
X96878Y-51759D01*
X96840Y-51740D01*
X96821Y-51721D01*
X96803Y-51684D01*
X96803Y-51590D01*
X96821Y-51553D01*
X96840Y-51534D01*
X96878Y-51515D01*
X96953Y-51515D01*
X96990Y-51534D01*
X97009Y-51553D01*
X97028Y-51590D01*
G54D15*
X85915Y-41380D02*
X85975Y-41285D01*
X86018Y-41380D02*
X86018Y-41180D01*
X85950Y-41180D01*
X85932Y-41190D01*
X85924Y-41200D01*
X85915Y-41219D01*
X85915Y-41247D01*
X85924Y-41266D01*
X85932Y-41276D01*
X85950Y-41285D01*
X86018Y-41285D01*
X85847Y-41200D02*
X85838Y-41190D01*
X85821Y-41180D01*
X85778Y-41180D01*
X85761Y-41190D01*
X85752Y-41200D01*
X85744Y-41219D01*
X85744Y-41238D01*
X85752Y-41266D01*
X85855Y-41380D01*
X85744Y-41380D01*
X85684Y-41180D02*
X85572Y-41180D01*
X85632Y-41257D01*
X85607Y-41257D01*
X85590Y-41266D01*
X85581Y-41276D01*
X85572Y-41295D01*
X85572Y-41342D01*
X85581Y-41361D01*
X85590Y-41371D01*
X85607Y-41380D01*
X85658Y-41380D01*
X85675Y-41371D01*
X85684Y-41361D01*
X84115Y-41080D02*
X84175Y-40985D01*
X84218Y-41080D02*
X84218Y-40880D01*
X84150Y-40880D01*
X84132Y-40890D01*
X84124Y-40900D01*
X84115Y-40919D01*
X84115Y-40947D01*
X84124Y-40966D01*
X84132Y-40976D01*
X84150Y-40985D01*
X84218Y-40985D01*
X84047Y-40900D02*
X84038Y-40890D01*
X84021Y-40880D01*
X83978Y-40880D01*
X83961Y-40890D01*
X83952Y-40900D01*
X83944Y-40919D01*
X83944Y-40938D01*
X83952Y-40966D01*
X84055Y-41080D01*
X83944Y-41080D01*
X83875Y-40900D02*
X83867Y-40890D01*
X83850Y-40880D01*
X83807Y-40880D01*
X83790Y-40890D01*
X83781Y-40900D01*
X83772Y-40919D01*
X83772Y-40938D01*
X83781Y-40966D01*
X83884Y-41080D01*
X83772Y-41080D01*
X67530Y-41580D02*
X67590Y-41485D01*
X67632Y-41580D02*
X67632Y-41380D01*
X67564Y-41380D01*
X67547Y-41390D01*
X67538Y-41400D01*
X67530Y-41419D01*
X67530Y-41447D01*
X67538Y-41466D01*
X67547Y-41476D01*
X67564Y-41485D01*
X67632Y-41485D01*
X67470Y-41380D02*
X67358Y-41380D01*
X67418Y-41457D01*
X67392Y-41457D01*
X67375Y-41466D01*
X67367Y-41476D01*
X67358Y-41495D01*
X67358Y-41542D01*
X67367Y-41561D01*
X67375Y-41571D01*
X67392Y-41580D01*
X67444Y-41580D01*
X67461Y-41571D01*
X67470Y-41561D01*
X63115Y-41080D02*
X63175Y-40985D01*
X63218Y-41080D02*
X63218Y-40880D01*
X63150Y-40880D01*
X63132Y-40890D01*
X63124Y-40900D01*
X63115Y-40919D01*
X63115Y-40947D01*
X63124Y-40966D01*
X63132Y-40976D01*
X63150Y-40985D01*
X63218Y-40985D01*
X63047Y-40900D02*
X63038Y-40890D01*
X63021Y-40880D01*
X62978Y-40880D01*
X62961Y-40890D01*
X62952Y-40900D01*
X62944Y-40919D01*
X62944Y-40938D01*
X62952Y-40966D01*
X63055Y-41080D01*
X62944Y-41080D01*
X62832Y-40880D02*
X62815Y-40880D01*
X62798Y-40890D01*
X62790Y-40900D01*
X62781Y-40919D01*
X62772Y-40957D01*
X62772Y-41004D01*
X62781Y-41042D01*
X62790Y-41061D01*
X62798Y-41071D01*
X62815Y-41080D01*
X62832Y-41080D01*
X62850Y-41071D01*
X62858Y-41061D01*
X62867Y-41042D01*
X62875Y-41004D01*
X62875Y-40957D01*
X62867Y-40919D01*
X62858Y-40900D01*
X62850Y-40890D01*
X62832Y-40880D01*
X63115Y-42580D02*
X63175Y-42485D01*
X63218Y-42580D02*
X63218Y-42380D01*
X63150Y-42380D01*
X63132Y-42390D01*
X63124Y-42400D01*
X63115Y-42419D01*
X63115Y-42447D01*
X63124Y-42466D01*
X63132Y-42476D01*
X63150Y-42485D01*
X63218Y-42485D01*
X63047Y-42400D02*
X63038Y-42390D01*
X63021Y-42380D01*
X62978Y-42380D01*
X62961Y-42390D01*
X62952Y-42400D01*
X62944Y-42419D01*
X62944Y-42438D01*
X62952Y-42466D01*
X63055Y-42580D01*
X62944Y-42580D01*
X62772Y-42580D02*
X62875Y-42580D01*
X62824Y-42580D02*
X62824Y-42380D01*
X62841Y-42409D01*
X62858Y-42428D01*
X62875Y-42438D01*
X80630Y-40880D02*
X80690Y-40785D01*
X80732Y-40880D02*
X80732Y-40680D01*
X80664Y-40680D01*
X80647Y-40690D01*
X80638Y-40700D01*
X80630Y-40719D01*
X80630Y-40747D01*
X80638Y-40766D01*
X80647Y-40776D01*
X80664Y-40785D01*
X80732Y-40785D01*
X80475Y-40747D02*
X80475Y-40880D01*
X80518Y-40671D02*
X80561Y-40814D01*
X80450Y-40814D01*
G54D10*
X99728Y-56565D02*
X99728Y-56846D01*
X99746Y-56903D01*
X99784Y-56940D01*
X99840Y-56959D01*
X99878Y-56959D01*
X99540Y-56959D02*
X99540Y-56565D01*
X99390Y-56565D01*
X99353Y-56584D01*
X99334Y-56603D01*
X99315Y-56640D01*
X99315Y-56696D01*
X99334Y-56734D01*
X99353Y-56753D01*
X99390Y-56771D01*
X99540Y-56771D01*
X98940Y-56959D02*
X99165Y-56959D01*
X99053Y-56959D02*
X99053Y-56565D01*
X99090Y-56621D01*
X99128Y-56659D01*
X99165Y-56678D01*
X58371Y-66765D02*
X58109Y-67159D01*
X58109Y-66765D02*
X58371Y-67159D01*
X57828Y-66953D02*
X57771Y-66971D01*
X57753Y-66990D01*
X57734Y-67028D01*
X57734Y-67084D01*
X57753Y-67121D01*
X57771Y-67140D01*
X57809Y-67159D01*
X57959Y-67159D01*
X57959Y-66765D01*
X57828Y-66765D01*
X57790Y-66784D01*
X57771Y-66803D01*
X57753Y-66840D01*
X57753Y-66878D01*
X57771Y-66915D01*
X57790Y-66934D01*
X57828Y-66953D01*
X57959Y-66953D01*
X57565Y-66953D02*
X57434Y-66953D01*
X57378Y-67159D02*
X57565Y-67159D01*
X57565Y-66765D01*
X57378Y-66765D01*
X57209Y-66953D02*
X57078Y-66953D01*
X57021Y-67159D02*
X57209Y-67159D01*
X57209Y-66765D01*
X57021Y-66765D01*
X56646Y-67159D02*
X56871Y-67159D01*
X56759Y-67159D02*
X56759Y-66765D01*
X56796Y-66821D01*
X56834Y-66859D01*
X56871Y-66878D01*
X60265Y-67000D02*
X60659Y-67262D01*
X60265Y-67262D02*
X60659Y-67000D01*
X60453Y-67543D02*
X60471Y-67600D01*
X60490Y-67618D01*
X60528Y-67637D01*
X60584Y-67637D01*
X60621Y-67618D01*
X60640Y-67600D01*
X60659Y-67562D01*
X60659Y-67412D01*
X60265Y-67412D01*
X60265Y-67543D01*
X60284Y-67581D01*
X60303Y-67600D01*
X60340Y-67618D01*
X60378Y-67618D01*
X60415Y-67600D01*
X60434Y-67581D01*
X60453Y-67543D01*
X60453Y-67412D01*
X60453Y-67806D02*
X60453Y-67937D01*
X60659Y-67993D02*
X60659Y-67806D01*
X60265Y-67806D01*
X60265Y-67993D01*
X60453Y-68162D02*
X60453Y-68293D01*
X60659Y-68350D02*
X60659Y-68162D01*
X60265Y-68162D01*
X60265Y-68350D01*
X60509Y-68518D02*
X60509Y-68818D01*
X60659Y-69212D02*
X60659Y-68987D01*
X60659Y-69099D02*
X60265Y-69099D01*
X60321Y-69062D01*
X60359Y-69024D01*
X60378Y-68987D01*
X60453Y-69512D02*
X60471Y-69568D01*
X60490Y-69587D01*
X60528Y-69606D01*
X60584Y-69606D01*
X60621Y-69587D01*
X60640Y-69568D01*
X60659Y-69531D01*
X60659Y-69381D01*
X60265Y-69381D01*
X60265Y-69512D01*
X60284Y-69549D01*
X60303Y-69568D01*
X60340Y-69587D01*
X60378Y-69587D01*
X60415Y-69568D01*
X60434Y-69549D01*
X60453Y-69512D01*
X60453Y-69381D01*
X60303Y-69756D02*
X60284Y-69774D01*
X60265Y-69812D01*
X60265Y-69906D01*
X60284Y-69943D01*
X60303Y-69962D01*
X60340Y-69981D01*
X60378Y-69981D01*
X60434Y-69962D01*
X60659Y-69737D01*
X60659Y-69981D01*
G54D15*
X97115Y-57880D02*
X97175Y-57785D01*
X97218Y-57880D02*
X97218Y-57680D01*
X97150Y-57680D01*
X97132Y-57690D01*
X97124Y-57700D01*
X97115Y-57719D01*
X97115Y-57747D01*
X97124Y-57766D01*
X97132Y-57776D01*
X97150Y-57785D01*
X97218Y-57785D01*
X96961Y-57747D02*
X96961Y-57880D01*
X97004Y-57671D02*
X97047Y-57814D01*
X96935Y-57814D01*
X96884Y-57680D02*
X96764Y-57680D01*
X96841Y-57880D01*
X97115Y-58880D02*
X97175Y-58785D01*
X97218Y-58880D02*
X97218Y-58680D01*
X97150Y-58680D01*
X97132Y-58690D01*
X97124Y-58700D01*
X97115Y-58719D01*
X97115Y-58747D01*
X97124Y-58766D01*
X97132Y-58776D01*
X97150Y-58785D01*
X97218Y-58785D01*
X96961Y-58747D02*
X96961Y-58880D01*
X97004Y-58671D02*
X97047Y-58814D01*
X96935Y-58814D01*
X96841Y-58766D02*
X96858Y-58757D01*
X96867Y-58747D01*
X96875Y-58728D01*
X96875Y-58719D01*
X96867Y-58700D01*
X96858Y-58690D01*
X96841Y-58680D01*
X96807Y-58680D01*
X96790Y-58690D01*
X96781Y-58700D01*
X96772Y-58719D01*
X96772Y-58728D01*
X96781Y-58747D01*
X96790Y-58757D01*
X96807Y-58766D01*
X96841Y-58766D01*
X96858Y-58776D01*
X96867Y-58785D01*
X96875Y-58804D01*
X96875Y-58842D01*
X96867Y-58861D01*
X96858Y-58871D01*
X96841Y-58880D01*
X96807Y-58880D01*
X96790Y-58871D01*
X96781Y-58861D01*
X96772Y-58842D01*
X96772Y-58804D01*
X96781Y-58785D01*
X96790Y-58776D01*
X96807Y-58766D01*
X97115Y-59980D02*
X97175Y-59885D01*
X97218Y-59980D02*
X97218Y-59780D01*
X97150Y-59780D01*
X97132Y-59790D01*
X97124Y-59800D01*
X97115Y-59819D01*
X97115Y-59847D01*
X97124Y-59866D01*
X97132Y-59876D01*
X97150Y-59885D01*
X97218Y-59885D01*
X96961Y-59847D02*
X96961Y-59980D01*
X97004Y-59771D02*
X97047Y-59914D01*
X96935Y-59914D01*
X96858Y-59980D02*
X96824Y-59980D01*
X96807Y-59971D01*
X96798Y-59961D01*
X96781Y-59933D01*
X96772Y-59895D01*
X96772Y-59819D01*
X96781Y-59800D01*
X96790Y-59790D01*
X96807Y-59780D01*
X96841Y-59780D01*
X96858Y-59790D01*
X96867Y-59800D01*
X96875Y-59819D01*
X96875Y-59866D01*
X96867Y-59885D01*
X96858Y-59895D01*
X96841Y-59904D01*
X96807Y-59904D01*
X96790Y-59895D01*
X96781Y-59885D01*
X96772Y-59866D01*
X97015Y-54280D02*
X97075Y-54185D01*
X97118Y-54280D02*
X97118Y-54080D01*
X97050Y-54080D01*
X97032Y-54090D01*
X97024Y-54100D01*
X97015Y-54119D01*
X97015Y-54147D01*
X97024Y-54166D01*
X97032Y-54176D01*
X97050Y-54185D01*
X97118Y-54185D01*
X96861Y-54147D02*
X96861Y-54280D01*
X96904Y-54071D02*
X96947Y-54214D01*
X96835Y-54214D01*
X96690Y-54147D02*
X96690Y-54280D01*
X96732Y-54071D02*
X96775Y-54214D01*
X96664Y-54214D01*
X97015Y-53380D02*
X97075Y-53285D01*
X97118Y-53380D02*
X97118Y-53180D01*
X97050Y-53180D01*
X97032Y-53190D01*
X97024Y-53200D01*
X97015Y-53219D01*
X97015Y-53247D01*
X97024Y-53266D01*
X97032Y-53276D01*
X97050Y-53285D01*
X97118Y-53285D01*
X96861Y-53247D02*
X96861Y-53380D01*
X96904Y-53171D02*
X96947Y-53314D01*
X96835Y-53314D01*
X96681Y-53180D02*
X96767Y-53180D01*
X96775Y-53276D01*
X96767Y-53266D01*
X96750Y-53257D01*
X96707Y-53257D01*
X96690Y-53266D01*
X96681Y-53276D01*
X96672Y-53295D01*
X96672Y-53342D01*
X96681Y-53361D01*
X96690Y-53371D01*
X96707Y-53380D01*
X96750Y-53380D01*
X96767Y-53371D01*
X96775Y-53361D01*
X97015Y-52480D02*
X97075Y-52385D01*
X97118Y-52480D02*
X97118Y-52280D01*
X97050Y-52280D01*
X97032Y-52290D01*
X97024Y-52300D01*
X97015Y-52319D01*
X97015Y-52347D01*
X97024Y-52366D01*
X97032Y-52376D01*
X97050Y-52385D01*
X97118Y-52385D01*
X96861Y-52347D02*
X96861Y-52480D01*
X96904Y-52271D02*
X96947Y-52414D01*
X96835Y-52414D01*
X96690Y-52280D02*
X96724Y-52280D01*
X96741Y-52290D01*
X96750Y-52300D01*
X96767Y-52328D01*
X96775Y-52366D01*
X96775Y-52442D01*
X96767Y-52461D01*
X96758Y-52471D01*
X96741Y-52480D01*
X96707Y-52480D01*
X96690Y-52471D01*
X96681Y-52461D01*
X96672Y-52442D01*
X96672Y-52395D01*
X96681Y-52376D01*
X96690Y-52366D01*
X96707Y-52357D01*
X96741Y-52357D01*
X96758Y-52366D01*
X96767Y-52376D01*
X96775Y-52395D01*
X62061Y-45470D02*
X62071Y-45461D01*
X62080Y-45435D01*
X62080Y-45418D01*
X62071Y-45392D01*
X62052Y-45375D01*
X62033Y-45367D01*
X61995Y-45358D01*
X61966Y-45358D01*
X61928Y-45367D01*
X61909Y-45375D01*
X61890Y-45392D01*
X61880Y-45418D01*
X61880Y-45435D01*
X61890Y-45461D01*
X61900Y-45470D01*
X61966Y-45572D02*
X61957Y-45555D01*
X61947Y-45547D01*
X61928Y-45538D01*
X61919Y-45538D01*
X61900Y-45547D01*
X61890Y-45555D01*
X61880Y-45572D01*
X61880Y-45607D01*
X61890Y-45624D01*
X61900Y-45632D01*
X61919Y-45641D01*
X61928Y-45641D01*
X61947Y-45632D01*
X61957Y-45624D01*
X61966Y-45607D01*
X61966Y-45572D01*
X61976Y-45555D01*
X61985Y-45547D01*
X62004Y-45538D01*
X62042Y-45538D01*
X62061Y-45547D01*
X62071Y-45555D01*
X62080Y-45572D01*
X62080Y-45607D01*
X62071Y-45624D01*
X62061Y-45632D01*
X62042Y-45641D01*
X62004Y-45641D01*
X61985Y-45632D01*
X61976Y-45624D01*
X61966Y-45607D01*
X90715Y-56061D02*
X90724Y-56071D01*
X90750Y-56080D01*
X90767Y-56080D01*
X90792Y-56071D01*
X90810Y-56052D01*
X90818Y-56033D01*
X90827Y-55995D01*
X90827Y-55966D01*
X90818Y-55928D01*
X90810Y-55909D01*
X90792Y-55890D01*
X90767Y-55880D01*
X90750Y-55880D01*
X90724Y-55890D01*
X90715Y-55900D01*
X90544Y-56080D02*
X90647Y-56080D01*
X90595Y-56080D02*
X90595Y-55880D01*
X90612Y-55909D01*
X90630Y-55928D01*
X90647Y-55938D01*
X90458Y-56080D02*
X90424Y-56080D01*
X90407Y-56071D01*
X90398Y-56061D01*
X90381Y-56033D01*
X90372Y-55995D01*
X90372Y-55919D01*
X90381Y-55900D01*
X90390Y-55890D01*
X90407Y-55880D01*
X90441Y-55880D01*
X90458Y-55890D01*
X90467Y-55900D01*
X90475Y-55919D01*
X90475Y-55966D01*
X90467Y-55985D01*
X90458Y-55995D01*
X90441Y-56004D01*
X90407Y-56004D01*
X90390Y-55995D01*
X90381Y-55985D01*
X90372Y-55966D01*
X64530Y-44561D02*
X64538Y-44571D01*
X64564Y-44580D01*
X64581Y-44580D01*
X64607Y-44571D01*
X64624Y-44552D01*
X64632Y-44533D01*
X64641Y-44495D01*
X64641Y-44466D01*
X64632Y-44428D01*
X64624Y-44409D01*
X64607Y-44390D01*
X64581Y-44380D01*
X64564Y-44380D01*
X64538Y-44390D01*
X64530Y-44400D01*
X64470Y-44380D02*
X64350Y-44380D01*
X64427Y-44580D01*
X83030Y-43561D02*
X83038Y-43571D01*
X83064Y-43580D01*
X83081Y-43580D01*
X83107Y-43571D01*
X83124Y-43552D01*
X83132Y-43533D01*
X83141Y-43495D01*
X83141Y-43466D01*
X83132Y-43428D01*
X83124Y-43409D01*
X83107Y-43390D01*
X83081Y-43380D01*
X83064Y-43380D01*
X83038Y-43390D01*
X83030Y-43400D01*
X82944Y-43580D02*
X82910Y-43580D01*
X82892Y-43571D01*
X82884Y-43561D01*
X82867Y-43533D01*
X82858Y-43495D01*
X82858Y-43419D01*
X82867Y-43400D01*
X82875Y-43390D01*
X82892Y-43380D01*
X82927Y-43380D01*
X82944Y-43390D01*
X82952Y-43400D01*
X82961Y-43419D01*
X82961Y-43466D01*
X82952Y-43485D01*
X82944Y-43495D01*
X82927Y-43504D01*
X82892Y-43504D01*
X82875Y-43495D01*
X82867Y-43485D01*
X82858Y-43466D01*
X79561Y-41270D02*
X79571Y-41261D01*
X79580Y-41235D01*
X79580Y-41218D01*
X79571Y-41192D01*
X79552Y-41175D01*
X79533Y-41167D01*
X79495Y-41158D01*
X79466Y-41158D01*
X79428Y-41167D01*
X79409Y-41175D01*
X79390Y-41192D01*
X79380Y-41218D01*
X79380Y-41235D01*
X79390Y-41261D01*
X79400Y-41270D01*
X79380Y-41424D02*
X79380Y-41390D01*
X79390Y-41372D01*
X79400Y-41364D01*
X79428Y-41347D01*
X79466Y-41338D01*
X79542Y-41338D01*
X79561Y-41347D01*
X79571Y-41355D01*
X79580Y-41372D01*
X79580Y-41407D01*
X79571Y-41424D01*
X79561Y-41432D01*
X79542Y-41441D01*
X79495Y-41441D01*
X79476Y-41432D01*
X79466Y-41424D01*
X79457Y-41407D01*
X79457Y-41372D01*
X79466Y-41355D01*
X79476Y-41347D01*
X79495Y-41338D01*
X92115Y-41061D02*
X92124Y-41071D01*
X92150Y-41080D01*
X92167Y-41080D01*
X92192Y-41071D01*
X92210Y-41052D01*
X92218Y-41033D01*
X92227Y-40995D01*
X92227Y-40966D01*
X92218Y-40928D01*
X92210Y-40909D01*
X92192Y-40890D01*
X92167Y-40880D01*
X92150Y-40880D01*
X92124Y-40890D01*
X92115Y-40900D01*
X91961Y-40947D02*
X91961Y-41080D01*
X92004Y-40871D02*
X92047Y-41014D01*
X91935Y-41014D01*
X91858Y-41080D02*
X91824Y-41080D01*
X91807Y-41071D01*
X91798Y-41061D01*
X91781Y-41033D01*
X91772Y-40995D01*
X91772Y-40919D01*
X91781Y-40900D01*
X91790Y-40890D01*
X91807Y-40880D01*
X91841Y-40880D01*
X91858Y-40890D01*
X91867Y-40900D01*
X91875Y-40919D01*
X91875Y-40966D01*
X91867Y-40985D01*
X91858Y-40995D01*
X91841Y-41004D01*
X91807Y-41004D01*
X91790Y-40995D01*
X91781Y-40985D01*
X91772Y-40966D01*
X69530Y-41561D02*
X69538Y-41571D01*
X69564Y-41580D01*
X69581Y-41580D01*
X69607Y-41571D01*
X69624Y-41552D01*
X69632Y-41533D01*
X69641Y-41495D01*
X69641Y-41466D01*
X69632Y-41428D01*
X69624Y-41409D01*
X69607Y-41390D01*
X69581Y-41380D01*
X69564Y-41380D01*
X69538Y-41390D01*
X69530Y-41400D01*
X69470Y-41380D02*
X69358Y-41380D01*
X69418Y-41457D01*
X69392Y-41457D01*
X69375Y-41466D01*
X69367Y-41476D01*
X69358Y-41495D01*
X69358Y-41542D01*
X69367Y-41561D01*
X69375Y-41571D01*
X69392Y-41580D01*
X69444Y-41580D01*
X69461Y-41571D01*
X69470Y-41561D01*
X79561Y-42884D02*
X79571Y-42875D01*
X79580Y-42850D01*
X79580Y-42832D01*
X79571Y-42807D01*
X79552Y-42790D01*
X79533Y-42781D01*
X79495Y-42772D01*
X79466Y-42772D01*
X79428Y-42781D01*
X79409Y-42790D01*
X79390Y-42807D01*
X79380Y-42832D01*
X79380Y-42850D01*
X79390Y-42875D01*
X79400Y-42884D01*
X79580Y-43055D02*
X79580Y-42952D01*
X79580Y-43004D02*
X79380Y-43004D01*
X79409Y-42987D01*
X79428Y-42970D01*
X79438Y-42952D01*
X79380Y-43167D02*
X79380Y-43184D01*
X79390Y-43201D01*
X79400Y-43210D01*
X79419Y-43218D01*
X79457Y-43227D01*
X79504Y-43227D01*
X79542Y-43218D01*
X79561Y-43210D01*
X79571Y-43201D01*
X79580Y-43184D01*
X79580Y-43167D01*
X79571Y-43150D01*
X79561Y-43141D01*
X79542Y-43132D01*
X79504Y-43124D01*
X79457Y-43124D01*
X79419Y-43132D01*
X79400Y-43141D01*
X79390Y-43150D01*
X79380Y-43167D01*
G54D10*
X98290Y-65159D02*
X98290Y-64765D01*
X98140Y-64765D01*
X98103Y-64784D01*
X98084Y-64803D01*
X98065Y-64840D01*
X98065Y-64896D01*
X98084Y-64934D01*
X98103Y-64953D01*
X98140Y-64971D01*
X98290Y-64971D01*
X97709Y-64765D02*
X97896Y-64765D01*
X97915Y-64953D01*
X97896Y-64934D01*
X97859Y-64915D01*
X97765Y-64915D01*
X97728Y-64934D01*
X97709Y-64953D01*
X97690Y-64990D01*
X97690Y-65084D01*
X97709Y-65121D01*
X97728Y-65140D01*
X97765Y-65159D01*
X97859Y-65159D01*
X97896Y-65140D01*
X97915Y-65121D01*
X90169Y-64962D02*
X90150Y-64925D01*
X90113Y-64887D01*
X90056Y-64831D01*
X90038Y-64793D01*
X90038Y-64756D01*
X90131Y-64775D02*
X90113Y-64737D01*
X90075Y-64700D01*
X90000Y-64681D01*
X89869Y-64681D01*
X89794Y-64700D01*
X89756Y-64737D01*
X89738Y-64775D01*
X89738Y-64850D01*
X89756Y-64887D01*
X89794Y-64925D01*
X89869Y-64943D01*
X90000Y-64943D01*
X90075Y-64925D01*
X90113Y-64887D01*
X90131Y-64850D01*
X90131Y-64775D01*
X89869Y-65281D02*
X90131Y-65281D01*
X89719Y-65187D02*
X90000Y-65093D01*
X90000Y-65337D01*
G54D15*
X94915Y-71461D02*
X94924Y-71471D01*
X94950Y-71480D01*
X94967Y-71480D01*
X94992Y-71471D01*
X95010Y-71452D01*
X95018Y-71433D01*
X95027Y-71395D01*
X95027Y-71366D01*
X95018Y-71328D01*
X95010Y-71309D01*
X94992Y-71290D01*
X94967Y-71280D01*
X94950Y-71280D01*
X94924Y-71290D01*
X94915Y-71300D01*
X94855Y-71280D02*
X94744Y-71280D01*
X94804Y-71357D01*
X94778Y-71357D01*
X94761Y-71366D01*
X94752Y-71376D01*
X94744Y-71395D01*
X94744Y-71442D01*
X94752Y-71461D01*
X94761Y-71471D01*
X94778Y-71480D01*
X94830Y-71480D01*
X94847Y-71471D01*
X94855Y-71461D01*
X94684Y-71280D02*
X94572Y-71280D01*
X94632Y-71357D01*
X94607Y-71357D01*
X94590Y-71366D01*
X94581Y-71376D01*
X94572Y-71395D01*
X94572Y-71442D01*
X94581Y-71461D01*
X94590Y-71471D01*
X94607Y-71480D01*
X94658Y-71480D01*
X94675Y-71471D01*
X94684Y-71461D01*
X90815Y-57961D02*
X90824Y-57971D01*
X90850Y-57980D01*
X90867Y-57980D01*
X90892Y-57971D01*
X90910Y-57952D01*
X90918Y-57933D01*
X90927Y-57895D01*
X90927Y-57866D01*
X90918Y-57828D01*
X90910Y-57809D01*
X90892Y-57790D01*
X90867Y-57780D01*
X90850Y-57780D01*
X90824Y-57790D01*
X90815Y-57800D01*
X90661Y-57847D02*
X90661Y-57980D01*
X90704Y-57771D02*
X90747Y-57914D01*
X90635Y-57914D01*
X90490Y-57780D02*
X90524Y-57780D01*
X90541Y-57790D01*
X90550Y-57800D01*
X90567Y-57828D01*
X90575Y-57866D01*
X90575Y-57942D01*
X90567Y-57961D01*
X90558Y-57971D01*
X90541Y-57980D01*
X90507Y-57980D01*
X90490Y-57971D01*
X90481Y-57961D01*
X90472Y-57942D01*
X90472Y-57895D01*
X90481Y-57876D01*
X90490Y-57866D01*
X90507Y-57857D01*
X90541Y-57857D01*
X90558Y-57866D01*
X90567Y-57876D01*
X90575Y-57895D01*
X47615Y-55761D02*
X47624Y-55771D01*
X47650Y-55780D01*
X47667Y-55780D01*
X47692Y-55771D01*
X47710Y-55752D01*
X47718Y-55733D01*
X47727Y-55695D01*
X47727Y-55666D01*
X47718Y-55628D01*
X47710Y-55609D01*
X47692Y-55590D01*
X47667Y-55580D01*
X47650Y-55580D01*
X47624Y-55590D01*
X47615Y-55600D01*
X47461Y-55647D02*
X47461Y-55780D01*
X47504Y-55571D02*
X47547Y-55714D01*
X47435Y-55714D01*
X47290Y-55647D02*
X47290Y-55780D01*
X47332Y-55571D02*
X47375Y-55714D01*
X47264Y-55714D01*
X46315Y-58461D02*
X46324Y-58471D01*
X46350Y-58480D01*
X46367Y-58480D01*
X46392Y-58471D01*
X46410Y-58452D01*
X46418Y-58433D01*
X46427Y-58395D01*
X46427Y-58366D01*
X46418Y-58328D01*
X46410Y-58309D01*
X46392Y-58290D01*
X46367Y-58280D01*
X46350Y-58280D01*
X46324Y-58290D01*
X46315Y-58300D01*
X46161Y-58347D02*
X46161Y-58480D01*
X46204Y-58271D02*
X46247Y-58414D01*
X46135Y-58414D01*
X46084Y-58280D02*
X45972Y-58280D01*
X46032Y-58357D01*
X46007Y-58357D01*
X45990Y-58366D01*
X45981Y-58376D01*
X45972Y-58395D01*
X45972Y-58442D01*
X45981Y-58461D01*
X45990Y-58471D01*
X46007Y-58480D01*
X46058Y-58480D01*
X46075Y-58471D01*
X46084Y-58461D01*
X49615Y-58261D02*
X49624Y-58271D01*
X49650Y-58280D01*
X49667Y-58280D01*
X49692Y-58271D01*
X49710Y-58252D01*
X49718Y-58233D01*
X49727Y-58195D01*
X49727Y-58166D01*
X49718Y-58128D01*
X49710Y-58109D01*
X49692Y-58090D01*
X49667Y-58080D01*
X49650Y-58080D01*
X49624Y-58090D01*
X49615Y-58100D01*
X49461Y-58147D02*
X49461Y-58280D01*
X49504Y-58071D02*
X49547Y-58214D01*
X49435Y-58214D01*
X49272Y-58280D02*
X49375Y-58280D01*
X49324Y-58280D02*
X49324Y-58080D01*
X49341Y-58109D01*
X49358Y-58128D01*
X49375Y-58138D01*
X49615Y-56761D02*
X49624Y-56771D01*
X49650Y-56780D01*
X49667Y-56780D01*
X49692Y-56771D01*
X49710Y-56752D01*
X49718Y-56733D01*
X49727Y-56695D01*
X49727Y-56666D01*
X49718Y-56628D01*
X49710Y-56609D01*
X49692Y-56590D01*
X49667Y-56580D01*
X49650Y-56580D01*
X49624Y-56590D01*
X49615Y-56600D01*
X49461Y-56647D02*
X49461Y-56780D01*
X49504Y-56571D02*
X49547Y-56714D01*
X49435Y-56714D01*
X49375Y-56600D02*
X49367Y-56590D01*
X49350Y-56580D01*
X49307Y-56580D01*
X49290Y-56590D01*
X49281Y-56600D01*
X49272Y-56619D01*
X49272Y-56638D01*
X49281Y-56666D01*
X49384Y-56780D01*
X49272Y-56780D01*
X91615Y-48861D02*
X91624Y-48871D01*
X91650Y-48880D01*
X91667Y-48880D01*
X91692Y-48871D01*
X91710Y-48852D01*
X91718Y-48833D01*
X91727Y-48795D01*
X91727Y-48766D01*
X91718Y-48728D01*
X91710Y-48709D01*
X91692Y-48690D01*
X91667Y-48680D01*
X91650Y-48680D01*
X91624Y-48690D01*
X91615Y-48700D01*
X91461Y-48747D02*
X91461Y-48880D01*
X91504Y-48671D02*
X91547Y-48814D01*
X91435Y-48814D01*
X91281Y-48680D02*
X91367Y-48680D01*
X91375Y-48776D01*
X91367Y-48766D01*
X91350Y-48757D01*
X91307Y-48757D01*
X91290Y-48766D01*
X91281Y-48776D01*
X91272Y-48795D01*
X91272Y-48842D01*
X91281Y-48861D01*
X91290Y-48871D01*
X91307Y-48880D01*
X91350Y-48880D01*
X91367Y-48871D01*
X91375Y-48861D01*
X51315Y-65261D02*
X51324Y-65271D01*
X51350Y-65280D01*
X51367Y-65280D01*
X51392Y-65271D01*
X51410Y-65252D01*
X51418Y-65233D01*
X51427Y-65195D01*
X51427Y-65166D01*
X51418Y-65128D01*
X51410Y-65109D01*
X51392Y-65090D01*
X51367Y-65080D01*
X51350Y-65080D01*
X51324Y-65090D01*
X51315Y-65100D01*
X51255Y-65080D02*
X51144Y-65080D01*
X51204Y-65157D01*
X51178Y-65157D01*
X51161Y-65166D01*
X51152Y-65176D01*
X51144Y-65195D01*
X51144Y-65242D01*
X51152Y-65261D01*
X51161Y-65271D01*
X51178Y-65280D01*
X51230Y-65280D01*
X51247Y-65271D01*
X51255Y-65261D01*
X51084Y-65080D02*
X50964Y-65080D01*
X51041Y-65280D01*
X61615Y-65861D02*
X61624Y-65871D01*
X61650Y-65880D01*
X61667Y-65880D01*
X61692Y-65871D01*
X61710Y-65852D01*
X61718Y-65833D01*
X61727Y-65795D01*
X61727Y-65766D01*
X61718Y-65728D01*
X61710Y-65709D01*
X61692Y-65690D01*
X61667Y-65680D01*
X61650Y-65680D01*
X61624Y-65690D01*
X61615Y-65700D01*
X61452Y-65680D02*
X61538Y-65680D01*
X61547Y-65776D01*
X61538Y-65766D01*
X61521Y-65757D01*
X61478Y-65757D01*
X61461Y-65766D01*
X61452Y-65776D01*
X61444Y-65795D01*
X61444Y-65842D01*
X61452Y-65861D01*
X61461Y-65871D01*
X61478Y-65880D01*
X61521Y-65880D01*
X61538Y-65871D01*
X61547Y-65861D01*
X61384Y-65680D02*
X61272Y-65680D01*
X61332Y-65757D01*
X61307Y-65757D01*
X61290Y-65766D01*
X61281Y-65776D01*
X61272Y-65795D01*
X61272Y-65842D01*
X61281Y-65861D01*
X61290Y-65871D01*
X61307Y-65880D01*
X61358Y-65880D01*
X61375Y-65871D01*
X61384Y-65861D01*
X53915Y-64361D02*
X53924Y-64371D01*
X53950Y-64380D01*
X53967Y-64380D01*
X53992Y-64371D01*
X54010Y-64352D01*
X54018Y-64333D01*
X54027Y-64295D01*
X54027Y-64266D01*
X54018Y-64228D01*
X54010Y-64209D01*
X53992Y-64190D01*
X53967Y-64180D01*
X53950Y-64180D01*
X53924Y-64190D01*
X53915Y-64200D01*
X53855Y-64180D02*
X53744Y-64180D01*
X53804Y-64257D01*
X53778Y-64257D01*
X53761Y-64266D01*
X53752Y-64276D01*
X53744Y-64295D01*
X53744Y-64342D01*
X53752Y-64361D01*
X53761Y-64371D01*
X53778Y-64380D01*
X53830Y-64380D01*
X53847Y-64371D01*
X53855Y-64361D01*
X53590Y-64180D02*
X53624Y-64180D01*
X53641Y-64190D01*
X53650Y-64200D01*
X53667Y-64228D01*
X53675Y-64266D01*
X53675Y-64342D01*
X53667Y-64361D01*
X53658Y-64371D01*
X53641Y-64380D01*
X53607Y-64380D01*
X53590Y-64371D01*
X53581Y-64361D01*
X53572Y-64342D01*
X53572Y-64295D01*
X53581Y-64276D01*
X53590Y-64266D01*
X53607Y-64257D01*
X53641Y-64257D01*
X53658Y-64266D01*
X53667Y-64276D01*
X53675Y-64295D01*
X51315Y-61861D02*
X51324Y-61871D01*
X51350Y-61880D01*
X51367Y-61880D01*
X51392Y-61871D01*
X51410Y-61852D01*
X51418Y-61833D01*
X51427Y-61795D01*
X51427Y-61766D01*
X51418Y-61728D01*
X51410Y-61709D01*
X51392Y-61690D01*
X51367Y-61680D01*
X51350Y-61680D01*
X51324Y-61690D01*
X51315Y-61700D01*
X51255Y-61680D02*
X51144Y-61680D01*
X51204Y-61757D01*
X51178Y-61757D01*
X51161Y-61766D01*
X51152Y-61776D01*
X51144Y-61795D01*
X51144Y-61842D01*
X51152Y-61861D01*
X51161Y-61871D01*
X51178Y-61880D01*
X51230Y-61880D01*
X51247Y-61871D01*
X51255Y-61861D01*
X51058Y-61880D02*
X51024Y-61880D01*
X51007Y-61871D01*
X50998Y-61861D01*
X50981Y-61833D01*
X50972Y-61795D01*
X50972Y-61719D01*
X50981Y-61700D01*
X50990Y-61690D01*
X51007Y-61680D01*
X51041Y-61680D01*
X51058Y-61690D01*
X51067Y-61700D01*
X51075Y-61719D01*
X51075Y-61766D01*
X51067Y-61785D01*
X51058Y-61795D01*
X51041Y-61804D01*
X51007Y-61804D01*
X50990Y-61795D01*
X50981Y-61785D01*
X50972Y-61766D01*
X53945Y-63102D02*
X53954Y-63111D01*
X53979Y-63121D01*
X53997Y-63121D01*
X54022Y-63111D01*
X54039Y-63092D01*
X54048Y-63073D01*
X54057Y-63035D01*
X54057Y-63006D01*
X54048Y-62968D01*
X54039Y-62949D01*
X54022Y-62930D01*
X53997Y-62921D01*
X53979Y-62921D01*
X53954Y-62930D01*
X53945Y-62940D01*
X53791Y-62987D02*
X53791Y-63121D01*
X53834Y-62911D02*
X53877Y-63054D01*
X53765Y-63054D01*
X53662Y-62921D02*
X53645Y-62921D01*
X53628Y-62930D01*
X53619Y-62940D01*
X53611Y-62959D01*
X53602Y-62997D01*
X53602Y-63044D01*
X53611Y-63083D01*
X53619Y-63102D01*
X53628Y-63111D01*
X53645Y-63121D01*
X53662Y-63121D01*
X53679Y-63111D01*
X53688Y-63102D01*
X53697Y-63083D01*
X53705Y-63044D01*
X53705Y-62997D01*
X53697Y-62959D01*
X53688Y-62940D01*
X53679Y-62930D01*
X53662Y-62921D01*
X48215Y-63261D02*
X48224Y-63271D01*
X48250Y-63280D01*
X48267Y-63280D01*
X48292Y-63271D01*
X48310Y-63252D01*
X48318Y-63233D01*
X48327Y-63195D01*
X48327Y-63166D01*
X48318Y-63128D01*
X48310Y-63109D01*
X48292Y-63090D01*
X48267Y-63080D01*
X48250Y-63080D01*
X48224Y-63090D01*
X48215Y-63100D01*
X48155Y-63080D02*
X48044Y-63080D01*
X48104Y-63157D01*
X48078Y-63157D01*
X48061Y-63166D01*
X48052Y-63176D01*
X48044Y-63195D01*
X48044Y-63242D01*
X48052Y-63261D01*
X48061Y-63271D01*
X48078Y-63280D01*
X48130Y-63280D01*
X48147Y-63271D01*
X48155Y-63261D01*
X47941Y-63166D02*
X47958Y-63157D01*
X47967Y-63147D01*
X47975Y-63128D01*
X47975Y-63119D01*
X47967Y-63100D01*
X47958Y-63090D01*
X47941Y-63080D01*
X47907Y-63080D01*
X47890Y-63090D01*
X47881Y-63100D01*
X47872Y-63119D01*
X47872Y-63128D01*
X47881Y-63147D01*
X47890Y-63157D01*
X47907Y-63166D01*
X47941Y-63166D01*
X47958Y-63176D01*
X47967Y-63185D01*
X47975Y-63204D01*
X47975Y-63242D01*
X47967Y-63261D01*
X47958Y-63271D01*
X47941Y-63280D01*
X47907Y-63280D01*
X47890Y-63271D01*
X47881Y-63261D01*
X47872Y-63242D01*
X47872Y-63204D01*
X47881Y-63185D01*
X47890Y-63176D01*
X47907Y-63166D01*
X86615Y-65380D02*
X86675Y-65285D01*
X86718Y-65380D02*
X86718Y-65180D01*
X86650Y-65180D01*
X86632Y-65190D01*
X86624Y-65200D01*
X86615Y-65219D01*
X86615Y-65247D01*
X86624Y-65266D01*
X86632Y-65276D01*
X86650Y-65285D01*
X86718Y-65285D01*
X86555Y-65180D02*
X86444Y-65180D01*
X86504Y-65257D01*
X86478Y-65257D01*
X86461Y-65266D01*
X86452Y-65276D01*
X86444Y-65295D01*
X86444Y-65342D01*
X86452Y-65361D01*
X86461Y-65371D01*
X86478Y-65380D01*
X86530Y-65380D01*
X86547Y-65371D01*
X86555Y-65361D01*
X86290Y-65247D02*
X86290Y-65380D01*
X86332Y-65171D02*
X86375Y-65314D01*
X86264Y-65314D01*
X90815Y-66361D02*
X90824Y-66371D01*
X90850Y-66380D01*
X90867Y-66380D01*
X90892Y-66371D01*
X90910Y-66352D01*
X90918Y-66333D01*
X90927Y-66295D01*
X90927Y-66266D01*
X90918Y-66228D01*
X90910Y-66209D01*
X90892Y-66190D01*
X90867Y-66180D01*
X90850Y-66180D01*
X90824Y-66190D01*
X90815Y-66200D01*
X90661Y-66247D02*
X90661Y-66380D01*
X90704Y-66171D02*
X90747Y-66314D01*
X90635Y-66314D01*
X90584Y-66180D02*
X90464Y-66180D01*
X90541Y-66380D01*
G54D12*
X58747Y-63180D02*
X58747Y-62980D01*
X58700Y-62980D01*
X58671Y-62990D01*
X58652Y-63009D01*
X58642Y-63028D01*
X58633Y-63066D01*
X58633Y-63095D01*
X58642Y-63133D01*
X58652Y-63152D01*
X58671Y-63171D01*
X58700Y-63180D01*
X58747Y-63180D01*
X58538Y-63180D02*
X58500Y-63180D01*
X58480Y-63171D01*
X58471Y-63161D01*
X58452Y-63133D01*
X58442Y-63095D01*
X58442Y-63019D01*
X58452Y-63000D01*
X58461Y-62990D01*
X58480Y-62980D01*
X58519Y-62980D01*
X58538Y-62990D01*
X58547Y-63000D01*
X58557Y-63019D01*
X58557Y-63066D01*
X58547Y-63085D01*
X58538Y-63095D01*
X58519Y-63104D01*
X58480Y-63104D01*
X58461Y-63095D01*
X58452Y-63085D01*
X58442Y-63066D01*
X58828Y-64180D02*
X58923Y-64180D01*
X58923Y-63980D01*
X58761Y-64076D02*
X58695Y-64076D01*
X58666Y-64180D02*
X58761Y-64180D01*
X58761Y-63980D01*
X58666Y-63980D01*
X58580Y-64180D02*
X58580Y-63980D01*
X58533Y-63980D01*
X58504Y-63990D01*
X58485Y-64009D01*
X58476Y-64028D01*
X58466Y-64066D01*
X58466Y-64095D01*
X58476Y-64133D01*
X58485Y-64152D01*
X58504Y-64171D01*
X58533Y-64180D01*
X58580Y-64180D01*
G54D15*
X59915Y-63180D02*
X59975Y-63085D01*
X60018Y-63180D02*
X60018Y-62980D01*
X59950Y-62980D01*
X59932Y-62990D01*
X59924Y-63000D01*
X59915Y-63019D01*
X59915Y-63047D01*
X59924Y-63066D01*
X59932Y-63076D01*
X59950Y-63085D01*
X60018Y-63085D01*
X59752Y-62980D02*
X59838Y-62980D01*
X59847Y-63076D01*
X59838Y-63066D01*
X59821Y-63057D01*
X59778Y-63057D01*
X59761Y-63066D01*
X59752Y-63076D01*
X59744Y-63095D01*
X59744Y-63142D01*
X59752Y-63161D01*
X59761Y-63171D01*
X59778Y-63180D01*
X59821Y-63180D01*
X59838Y-63171D01*
X59847Y-63161D01*
X59684Y-62980D02*
X59572Y-62980D01*
X59632Y-63057D01*
X59607Y-63057D01*
X59590Y-63066D01*
X59581Y-63076D01*
X59572Y-63095D01*
X59572Y-63142D01*
X59581Y-63161D01*
X59590Y-63171D01*
X59607Y-63180D01*
X59658Y-63180D01*
X59675Y-63171D01*
X59684Y-63161D01*
M02*
