M48
;DRILL file {Pcbnew (2013-05-31 BZR 4019)-stable} date 6/4/2013 8:20:22 PM
;FORMAT={-:-/ absolute / inch / decimal}
FMAT,2
INCH,TZ
T1C0.020
T2C0.030
T3C0.032
T4C0.039
T5C0.040
T6C0.047
T7C0.051
T8C0.060
T9C0.090
%
G90
G05
M72
T1
X4.098Y-5.856
X4.099Y-5.649
X4.099Y-5.749
X4.099Y-5.949
X4.099Y-6.054
X4.099Y-6.82
X4.11Y-6.571
X4.16Y-5.11
X4.166Y-5.042
X4.263Y-6.388
X4.267Y-6.893
X4.2795Y-5.508
X4.2818Y-5.4536
X4.284Y-6.636
X4.3146Y-5.4156
X4.365Y-5.4423
X4.381Y-6.754
X4.388Y-6.706
X4.409Y-7.063
X4.41Y-5.375
X4.43Y-5.956
X4.452Y-7.237
X4.463Y-5.075
X4.494Y-6.2065
X4.501Y-5.883
X4.511Y-6.8815
X4.518Y-4.558
X4.521Y-5.677
X4.522Y-5.728
X4.535Y-5.795
X4.555Y-6.861
X4.575Y-4.975
X4.612Y-4.598
X4.6145Y-6.7222
X4.64Y-6.273
X4.664Y-4.638
X4.664Y-7.07
X4.665Y-5.855
X4.687Y-5.902
X4.7Y-6.792
X4.728Y-5.928
X4.731Y-5.5455
X4.7379Y-6.1273
X4.7592Y-6.7866
X4.783Y-6.305
X4.7975Y-5.826
X4.8015Y-5.8905
X4.803Y-5.541
X4.8134Y-6.478
X4.837Y-5.926
X4.8398Y-6.6885
X4.8495Y-6.1683
X4.8695Y-5.7902
X4.8704Y-5.8874
X4.8725Y-5.991
X4.905Y-5.568
X4.93Y-5.688
X4.9302Y-6.6283
X4.942Y-6.355
X4.9464Y-6.8657
X4.9551Y-6.2417
X4.96Y-5.828
X4.97Y-5.715
X4.975Y-5.375
X4.9872Y-6.1835
X5.Y-6.989
X5.006Y-6.7222
X5.0064Y-6.4991
X5.013Y-5.575
X5.025Y-5.811
X5.058Y-5.768
X5.06Y-5.681
X5.0612Y-5.5779
X5.067Y-6.288
X5.0677Y-6.5125
X5.071Y-6.184
X5.103Y-6.32
X5.104Y-6.749
X5.128Y-6.188
X5.128Y-6.7049
X5.1341Y-6.5122
X5.15Y-5.175
X5.1838Y-6.5161
X5.1957Y-6.4354
X5.1987Y-7.0439
X5.2012Y-6.2251
X5.205Y-5.447
X5.226Y-5.808
X5.2315Y-6.1868
X5.232Y-4.906
X5.258Y-5.462
X5.26Y-6.31
X5.313Y-7.088
X5.3305Y-5.5737
X5.342Y-6.779
X5.3439Y-6.0846
X5.3784Y-6.7464
X5.3829Y-5.571
X5.394Y-6.336
X5.396Y-6.423
X5.4032Y-6.1904
X5.4153Y-5.5346
X5.423Y-6.49
X5.4512Y-6.2006
X5.4516Y-5.499
X5.4578Y-6.7803
X5.466Y-4.878
X5.4826Y-5.5736
X5.517Y-7.153
X5.536Y-4.809
X5.54Y-5.592
X5.5656Y-6.0988
X5.5665Y-6.1585
X5.58Y-5.057
X5.613Y-4.725
X5.634Y-4.964
X5.636Y-4.543
X5.637Y-4.629
X5.642Y-4.898
X5.65Y-6.472
X5.673Y-5.147
X5.685Y-6.812
X5.705Y-4.902
X5.7522Y-6.5749
X5.753Y-4.964
X5.768Y-4.897
X5.77Y-6.37
X5.774Y-4.673
X5.7764Y-5.4495
X5.8189Y-6.9518
X5.8278Y-6.828
X5.829Y-5.12
X5.867Y-4.544
X5.881Y-4.662
X5.897Y-5.228
X5.91Y-6.009
X5.989Y-5.236
X6.071Y-5.111
X6.092Y-5.735
X6.114Y-4.598
X6.195Y-5.735
X6.242Y-6.518
X6.29Y-4.41
X6.3002Y-4.2452
X6.304Y-4.588
X6.3324Y-7.0123
X6.35Y-5.63
X6.376Y-6.008
X6.4018Y-4.0551
X6.42Y-4.5014
X6.794Y-5.066
X6.803Y-5.124
X6.8622Y-7.0745
X6.883Y-5.325
X6.919Y-4.24
X6.95Y-7.15
X7.01Y-5.145
X7.116Y-6.468
X7.124Y-6.382
X7.168Y-6.542
X7.19Y-6.614
X7.2Y-7.15
X7.256Y-6.516
X7.262Y-6.342
X7.28Y-6.454
X7.364Y-6.454
X7.464Y-6.35
X7.533Y-5.105
X7.674Y-6.43
X7.704Y-6.346
X7.74Y-6.526
X7.74Y-6.606
X7.743Y-7.239
X7.7974Y-6.8738
X7.812Y-6.512
X7.842Y-6.46
X7.849Y-4.291
X7.878Y-7.214
X7.906Y-6.458
X7.944Y-7.239
X7.965Y-4.215
X7.978Y-6.258
X8.023Y-5.114
X8.08Y-7.236
X8.152Y-7.239
X8.164Y-6.438
X8.18Y-6.498
X8.242Y-6.52
X8.244Y-6.634
X8.285Y-7.224
X8.3Y-6.51
X8.316Y-6.45
X8.336Y-6.274
X8.3713Y-4.3806
X8.374Y-6.444
X8.4186Y-7.0574
X8.488Y-6.274
X8.624Y-6.496
X8.673Y-4.081
X8.726Y-6.624
X8.74Y-4.952
X8.758Y-5.818
X8.774Y-6.466
X8.788Y-6.534
X8.82Y-5.848
X8.824Y-6.478
X8.842Y-4.706
X8.878Y-6.48
X8.882Y-6.014
X8.894Y-6.766
X8.908Y-4.828
X8.916Y-5.912
X8.934Y-6.704
X8.95Y-6.472
X9.004Y-5.916
X9.02Y-6.762
X9.022Y-4.816
X9.028Y-5.746
X9.072Y-4.536
X9.074Y-4.458
X9.0899Y-6.9928
X9.128Y-7.33
X9.148Y-5.664
X9.17Y-6.682
X9.176Y-6.748
X9.19Y-5.932
X9.198Y-4.188
X9.224Y-4.458
X9.232Y-4.808
X9.293Y-4.108
X9.3Y-7.204
X9.334Y-4.73
X9.34Y-5.962
X9.348Y-4.672
X9.35Y-7.1
X9.354Y-7.324
X9.382Y-6.188
X9.39Y-6.27
X9.408Y-6.982
X9.4271Y-6.8544
X9.468Y-6.976
X9.4733Y-4.5009
X9.478Y-6.854
X9.494Y-5.778
X9.502Y-6.272
X9.51Y-5.96
X9.5611Y-6.9896
X9.762Y-5.72
X9.842Y-6.936
X9.846Y-6.884
X9.921Y-5.319
X9.924Y-5.842
X9.928Y-5.391
T2
X6.0894Y-6.4169
X6.0894Y-7.2831
X6.1681Y-6.4169
X6.1681Y-7.2831
X6.2469Y-6.4169
X6.2469Y-7.2831
X6.3256Y-6.4169
X6.3256Y-7.2831
X6.4043Y-6.4169
X6.4043Y-7.2831
X6.4831Y-6.4169
X6.4831Y-7.2831
X6.5618Y-6.4169
X6.5618Y-7.2831
X6.6406Y-6.4169
X6.6406Y-7.2831
X6.7193Y-6.4169
X6.7193Y-7.2831
X6.798Y-6.4169
X6.798Y-7.2831
T3
X6.Y-4.7
X6.1Y-4.7
X6.3Y-4.7
X6.4Y-4.7
X6.85Y-4.55
X6.85Y-4.65
X7.1Y-4.55
X7.1Y-4.65
X7.55Y-4.7
X7.65Y-4.7
X7.9Y-4.7
X8.Y-4.7
X8.5Y-4.55
X8.5Y-4.65
X8.75Y-4.55
X8.75Y-4.65
T4
X6.15Y-4.1524
X6.15Y-4.4476
X6.5217Y-4.0661
X6.5217Y-4.2
X6.5217Y-4.3339
X6.6713Y-4.1331
X6.6713Y-4.2669
X7.8Y-4.1524
X7.8Y-4.4476
X8.1717Y-4.0661
X8.1717Y-4.2
X8.1717Y-4.3339
X8.3213Y-4.1331
X8.3213Y-4.2669
T5
X4.7Y-7.3
X4.8Y-7.3
X4.9Y-7.3
X5.Y-7.3
X5.1Y-7.3
X8.65Y-5.9
X8.65Y-6.
X8.65Y-6.1
T6
X9.85Y-4.6622
X9.85Y-4.8
X9.85Y-4.9378
T7
X6.6287Y-4.4228
X6.6287Y-4.7772
X8.2287Y-4.4728
X8.2287Y-4.8272
X9.1016Y-4.2
X9.2984Y-4.2
X9.8Y-4.1016
X9.8Y-4.2984
T8
X7.36Y-5.87
X7.91Y-5.86
X7.95Y-4.89
X8.64Y-6.36
X8.75Y-5.6
X9.58Y-4.54
T9
X4.1Y-4.1
X4.1Y-7.3
X5.775Y-4.1
X5.775Y-7.3
X7.45Y-4.1
X7.45Y-7.3
T0
M30
