G75*
G70*
%OFA0B0*%
%FSLAX24Y24*%
%IPPOS*%
%LPD*%
%AMOC8*
5,1,8,0,0,1.08239X$1,22.5*
%
%ADD10C,0.0040*%
%ADD11C,0.0060*%
%ADD12C,0.0020*%
%ADD13R,0.0236X0.0157*%
%ADD14C,0.0050*%
%ADD15C,0.0157*%
%ADD16R,0.0157X0.0236*%
%ADD17C,0.0080*%
%ADD18R,0.0300X0.0340*%
D10*
X005982Y003355D02*
X005982Y003585D01*
X006059Y003662D01*
X006289Y003662D01*
X006289Y003355D01*
X006442Y003432D02*
X006442Y003585D01*
X006519Y003662D01*
X006672Y003662D01*
X006749Y003585D01*
X006749Y003432D01*
X006672Y003355D01*
X006519Y003355D01*
X006442Y003432D01*
X006903Y003355D02*
X006979Y003432D01*
X006979Y003739D01*
X007056Y003662D02*
X006903Y003662D01*
X007209Y003662D02*
X007363Y003662D01*
X007286Y003739D02*
X007286Y003432D01*
X007209Y003355D01*
X007516Y003355D02*
X007516Y003662D01*
X007516Y003355D02*
X007746Y003355D01*
X007823Y003432D01*
X007823Y003662D01*
X007977Y003662D02*
X008053Y003585D01*
X008284Y003585D01*
X008284Y003355D02*
X008053Y003355D01*
X007977Y003432D01*
X007977Y003508D01*
X008053Y003585D01*
X007977Y003662D02*
X007977Y003739D01*
X008053Y003815D01*
X008284Y003815D01*
X008284Y003355D01*
X008284Y003970D02*
X007977Y003970D01*
X007823Y003970D02*
X007516Y004277D01*
X007363Y004277D02*
X007209Y004277D01*
X007286Y004354D02*
X007286Y004047D01*
X007209Y003970D01*
X007056Y004047D02*
X007056Y004200D01*
X006979Y004277D01*
X006826Y004277D01*
X006749Y004200D01*
X006749Y004123D01*
X007056Y004123D01*
X007056Y004047D02*
X006979Y003970D01*
X006826Y003970D01*
X006596Y003970D02*
X006596Y004277D01*
X006596Y004123D02*
X006442Y004277D01*
X006365Y004277D01*
X006212Y004277D02*
X005982Y004277D01*
X005905Y004200D01*
X005905Y003970D01*
X005752Y004047D02*
X005675Y004123D01*
X005445Y004123D01*
X005445Y004200D02*
X005445Y003970D01*
X005675Y003970D01*
X005752Y004047D01*
X005675Y004277D02*
X005521Y004277D01*
X005445Y004200D01*
X005291Y003970D02*
X005138Y003970D01*
X005215Y003970D02*
X005215Y004430D01*
X005291Y004430D01*
X006212Y004277D02*
X006212Y003970D01*
X007516Y003970D02*
X007823Y004277D01*
X007977Y004430D02*
X008284Y004430D01*
X008284Y003970D01*
X008284Y004200D02*
X008130Y004200D01*
X005983Y004975D02*
X005676Y004975D01*
X005829Y004975D02*
X005829Y005435D01*
X005983Y005282D01*
X005522Y005435D02*
X005522Y004975D01*
X005522Y005128D02*
X005292Y004975D01*
X005522Y005128D02*
X005292Y005282D01*
X047900Y011500D02*
X048105Y011637D01*
X047900Y011774D01*
X048105Y011910D02*
X048105Y011500D01*
X048246Y011568D02*
X048314Y011500D01*
X048451Y011500D01*
X048519Y011568D01*
X048246Y011842D01*
X048246Y011568D01*
X048519Y011568D02*
X048519Y011842D01*
X048451Y011910D01*
X048314Y011910D01*
X048246Y011842D01*
X048660Y011842D02*
X048728Y011910D01*
X048865Y011910D01*
X048934Y011842D01*
X048660Y011842D02*
X048660Y011774D01*
X048934Y011500D01*
X048660Y011500D01*
X048551Y010910D02*
X048414Y010910D01*
X048346Y010842D01*
X048619Y010568D01*
X048551Y010500D01*
X048414Y010500D01*
X048346Y010568D01*
X048346Y010842D01*
X048551Y010910D02*
X048619Y010842D01*
X048619Y010568D01*
X048760Y010500D02*
X049034Y010500D01*
X048897Y010500D02*
X048897Y010910D01*
X049034Y010774D01*
X050364Y013500D02*
X050569Y013500D01*
X050569Y013910D01*
X050364Y013910D01*
X050296Y013842D01*
X050296Y013774D01*
X050364Y013705D01*
X050569Y013705D01*
X050364Y013705D02*
X050296Y013637D01*
X050296Y013568D01*
X050364Y013500D01*
X050710Y013500D02*
X050984Y013500D01*
X050847Y013500D02*
X050847Y013910D01*
X050984Y013774D01*
X050984Y014000D02*
X050710Y014000D01*
X050569Y014068D02*
X050501Y014000D01*
X050364Y014000D01*
X050296Y014068D01*
X050296Y014137D01*
X050364Y014205D01*
X050501Y014205D01*
X050569Y014274D01*
X050569Y014342D01*
X050501Y014410D01*
X050364Y014410D01*
X050296Y014342D01*
X050710Y014410D02*
X050984Y014410D01*
X050984Y014000D01*
X050984Y014205D02*
X050847Y014205D01*
X053046Y013842D02*
X053046Y013774D01*
X053114Y013705D01*
X053319Y013705D01*
X053114Y013705D02*
X053046Y013637D01*
X053046Y013568D01*
X053114Y013500D01*
X053319Y013500D01*
X053319Y013910D01*
X053114Y013910D01*
X053046Y013842D01*
X053164Y014000D02*
X053301Y014000D01*
X053369Y014068D01*
X053301Y014205D02*
X053164Y014205D01*
X053096Y014137D01*
X053096Y014068D01*
X053164Y014000D01*
X053301Y014205D02*
X053369Y014274D01*
X053369Y014342D01*
X053301Y014410D01*
X053164Y014410D01*
X053096Y014342D01*
X053510Y014410D02*
X053784Y014410D01*
X053784Y014000D01*
X053510Y014000D01*
X053597Y013910D02*
X053597Y013500D01*
X053734Y013500D02*
X053460Y013500D01*
X053734Y013774D02*
X053597Y013910D01*
X053647Y014205D02*
X053784Y014205D01*
X049784Y017150D02*
X049510Y017150D01*
X049647Y017150D02*
X049647Y017560D01*
X049784Y017424D01*
X049369Y017492D02*
X049369Y017218D01*
X049096Y017492D01*
X049096Y017218D01*
X049164Y017150D01*
X049301Y017150D01*
X049369Y017218D01*
X049369Y017492D02*
X049301Y017560D01*
X049164Y017560D01*
X049096Y017492D01*
X049010Y018300D02*
X049284Y018300D01*
X049010Y018574D01*
X049010Y018642D01*
X049078Y018710D01*
X049215Y018710D01*
X049284Y018642D01*
X048869Y018642D02*
X048869Y018368D01*
X048596Y018642D01*
X048596Y018368D01*
X048664Y018300D01*
X048801Y018300D01*
X048869Y018368D01*
X048869Y018642D02*
X048801Y018710D01*
X048664Y018710D01*
X048596Y018642D01*
X048455Y018710D02*
X048455Y018300D01*
X048455Y018437D02*
X048250Y018300D01*
X048455Y018437D02*
X048250Y018574D01*
X049564Y020700D02*
X049769Y020700D01*
X049769Y021110D01*
X049564Y021110D01*
X049496Y021042D01*
X049496Y020974D01*
X049564Y020905D01*
X049769Y020905D01*
X049564Y020905D02*
X049496Y020837D01*
X049496Y020768D01*
X049564Y020700D01*
X049910Y020700D02*
X050184Y020700D01*
X050047Y020700D02*
X050047Y021110D01*
X050184Y020974D01*
X050184Y021200D02*
X049910Y021200D01*
X049769Y021268D02*
X049701Y021200D01*
X049564Y021200D01*
X049496Y021268D01*
X049496Y021337D01*
X049564Y021405D01*
X049701Y021405D01*
X049769Y021474D01*
X049769Y021542D01*
X049701Y021610D01*
X049564Y021610D01*
X049496Y021542D01*
X049910Y021610D02*
X050184Y021610D01*
X050184Y021200D01*
X050184Y021405D02*
X050047Y021405D01*
X052596Y020992D02*
X052596Y020924D01*
X052664Y020855D01*
X052869Y020855D01*
X052664Y020855D02*
X052596Y020787D01*
X052596Y020718D01*
X052664Y020650D01*
X052869Y020650D01*
X052869Y021060D01*
X052664Y021060D01*
X052596Y020992D01*
X052714Y021200D02*
X052851Y021200D01*
X052919Y021268D01*
X052851Y021405D02*
X052714Y021405D01*
X052646Y021337D01*
X052646Y021268D01*
X052714Y021200D01*
X052851Y021405D02*
X052919Y021474D01*
X052919Y021542D01*
X052851Y021610D01*
X052714Y021610D01*
X052646Y021542D01*
X053060Y021610D02*
X053334Y021610D01*
X053334Y021200D01*
X053060Y021200D01*
X053147Y021060D02*
X053147Y020650D01*
X053284Y020650D02*
X053010Y020650D01*
X053284Y020924D02*
X053147Y021060D01*
X053197Y021405D02*
X053334Y021405D01*
X049584Y023700D02*
X049310Y023700D01*
X049447Y023700D02*
X049447Y024110D01*
X049584Y023974D01*
X049169Y024042D02*
X049101Y024110D01*
X048964Y024110D01*
X048896Y024042D01*
X049169Y023768D01*
X049101Y023700D01*
X048964Y023700D01*
X048896Y023768D01*
X048896Y024042D01*
X049169Y024042D02*
X049169Y023768D01*
X049234Y024750D02*
X048960Y025024D01*
X048960Y025092D01*
X049028Y025160D01*
X049165Y025160D01*
X049234Y025092D01*
X049234Y024750D02*
X048960Y024750D01*
X048819Y024818D02*
X048546Y025092D01*
X048546Y024818D01*
X048614Y024750D01*
X048751Y024750D01*
X048819Y024818D01*
X048819Y025092D01*
X048751Y025160D01*
X048614Y025160D01*
X048546Y025092D01*
X048405Y025160D02*
X048405Y024750D01*
X048405Y024887D02*
X048200Y025024D01*
X048405Y024887D02*
X048200Y024750D01*
X049614Y026700D02*
X049819Y026700D01*
X049819Y027110D01*
X049614Y027110D01*
X049546Y027042D01*
X049546Y026974D01*
X049614Y026905D01*
X049819Y026905D01*
X049614Y026905D02*
X049546Y026837D01*
X049546Y026768D01*
X049614Y026700D01*
X049960Y026700D02*
X050234Y026700D01*
X050097Y026700D02*
X050097Y027110D01*
X050234Y026974D01*
X050234Y027200D02*
X049960Y027200D01*
X049819Y027268D02*
X049751Y027200D01*
X049614Y027200D01*
X049546Y027268D01*
X049546Y027337D01*
X049614Y027405D01*
X049751Y027405D01*
X049819Y027474D01*
X049819Y027542D01*
X049751Y027610D01*
X049614Y027610D01*
X049546Y027542D01*
X049960Y027610D02*
X050234Y027610D01*
X050234Y027200D01*
X050234Y027405D02*
X050097Y027405D01*
X052946Y027337D02*
X052946Y027268D01*
X053014Y027200D01*
X053151Y027200D01*
X053219Y027268D01*
X053151Y027405D02*
X053014Y027405D01*
X052946Y027337D01*
X052946Y027542D02*
X053014Y027610D01*
X053151Y027610D01*
X053219Y027542D01*
X053219Y027474D01*
X053151Y027405D01*
X053360Y027200D02*
X053634Y027200D01*
X053634Y027610D01*
X053360Y027610D01*
X053497Y027405D02*
X053634Y027405D01*
X053497Y027060D02*
X053497Y026650D01*
X053634Y026650D02*
X053360Y026650D01*
X053219Y026650D02*
X053014Y026650D01*
X052946Y026718D01*
X052946Y026787D01*
X053014Y026855D01*
X053219Y026855D01*
X053014Y026855D02*
X052946Y026924D01*
X052946Y026992D01*
X053014Y027060D01*
X053219Y027060D01*
X053219Y026650D01*
X053497Y027060D02*
X053634Y026924D01*
D11*
X052443Y023651D02*
X052443Y022960D01*
X052213Y022960D02*
X052674Y022960D01*
X052674Y023420D02*
X052443Y023651D01*
X051983Y023651D02*
X051983Y022960D01*
X051523Y022960D01*
X052133Y017101D02*
X052133Y016410D01*
X051673Y016410D01*
X052363Y016410D02*
X052824Y016410D01*
X052363Y016870D01*
X052363Y016985D01*
X052478Y017101D01*
X052708Y017101D01*
X052824Y016985D01*
X052558Y010201D02*
X052328Y010201D01*
X052213Y010085D01*
X052213Y009970D01*
X052328Y009855D01*
X052213Y009740D01*
X052213Y009625D01*
X052328Y009510D01*
X052558Y009510D01*
X052674Y009625D01*
X052443Y009855D02*
X052328Y009855D01*
X052674Y010085D02*
X052558Y010201D01*
X051983Y010201D02*
X051983Y009510D01*
X051523Y009510D01*
X071733Y009455D02*
X071733Y009241D01*
X071733Y009348D02*
X072374Y009348D01*
X072374Y009455D02*
X072374Y009241D01*
X072267Y008381D02*
X072374Y008274D01*
X072374Y008061D01*
X072267Y007954D01*
X072267Y008381D02*
X071840Y008381D01*
X071733Y008274D01*
X071733Y008061D01*
X071840Y007954D01*
D12*
X071794Y008988D02*
X071794Y009175D01*
X071607Y008988D01*
X071560Y008988D01*
X071513Y009035D01*
X071513Y009128D01*
X071560Y009175D01*
X075204Y009182D02*
X075204Y008995D01*
X075204Y009135D02*
X075391Y009135D01*
X075391Y009182D02*
X075298Y009275D01*
X075204Y009182D01*
X075391Y009182D02*
X075391Y008995D01*
X075481Y009042D02*
X075481Y009228D01*
X075527Y009275D01*
X075667Y009275D01*
X075667Y008995D01*
X075527Y008995D01*
X075481Y009042D01*
X075757Y009042D02*
X075803Y008995D01*
X075897Y008995D01*
X075944Y009042D01*
X075897Y009135D02*
X075803Y009135D01*
X075757Y009088D01*
X075757Y009042D01*
X075897Y009135D02*
X075944Y009182D01*
X075944Y009228D01*
X075897Y009275D01*
X075803Y009275D01*
X075757Y009228D01*
X075803Y008375D02*
X075897Y008375D01*
X075944Y008328D01*
X075944Y008282D01*
X075897Y008235D01*
X075803Y008235D01*
X075757Y008188D01*
X075757Y008142D01*
X075803Y008095D01*
X075897Y008095D01*
X075944Y008142D01*
X075757Y008328D02*
X075803Y008375D01*
X075667Y008328D02*
X075667Y008142D01*
X075621Y008095D01*
X075527Y008095D01*
X075481Y008142D01*
X075391Y008095D02*
X075204Y008095D01*
X075391Y008095D02*
X075391Y008375D01*
X075481Y008328D02*
X075527Y008375D01*
X075621Y008375D01*
X075667Y008328D01*
D13*
X049354Y011630D03*
X049654Y018530D03*
X049554Y025080D03*
X006304Y005180D03*
D14*
X003785Y004521D02*
X003785Y003616D01*
X002328Y003616D01*
X000793Y004285D02*
X000793Y006175D01*
X000793Y005998D02*
X000793Y004462D01*
X003785Y005939D02*
X003785Y006844D01*
X002328Y006844D01*
X006822Y016819D02*
X009185Y016819D01*
X009185Y017267D01*
X006822Y017267D01*
X006822Y018693D01*
X009185Y018693D01*
X009185Y019141D01*
X006822Y019141D01*
X006822Y018693D01*
X008822Y018193D02*
X008822Y017767D01*
X009185Y017767D01*
X009185Y018193D01*
X008822Y018193D01*
X009185Y018193D02*
X009185Y018693D01*
X009185Y017767D02*
X009185Y017267D01*
X006822Y017267D02*
X006822Y016819D01*
X072672Y009796D02*
X072672Y009348D01*
X075035Y009348D01*
X075035Y007922D01*
X072672Y007922D01*
X072672Y007474D01*
X075035Y007474D01*
X075035Y007922D01*
X073035Y008422D02*
X072672Y008422D01*
X072672Y007922D01*
X072672Y008422D02*
X072672Y008848D01*
X073035Y008848D01*
X073035Y008422D01*
X072672Y008848D02*
X072672Y009348D01*
X072672Y009796D02*
X075035Y009796D01*
X075035Y009348D01*
X081043Y003496D02*
X084035Y003496D01*
X084035Y003048D01*
X083004Y003048D01*
X081043Y003048D01*
X081043Y002548D01*
X082004Y002548D01*
X082004Y002122D01*
X081043Y002122D01*
X081043Y001622D01*
X083004Y001622D01*
X084035Y001622D01*
X084035Y001174D01*
X081043Y001174D01*
X081043Y001622D01*
X081043Y002122D02*
X081043Y002548D01*
X081043Y003048D02*
X081043Y003496D01*
X083004Y003048D02*
X083004Y001622D01*
D15*
X002368Y004836D02*
X000846Y004836D01*
X000846Y005623D02*
X002368Y005624D01*
D16*
X049054Y010130D03*
X049904Y016880D03*
X049504Y023430D03*
D17*
X051204Y023790D02*
X053424Y023790D01*
X051204Y023790D02*
X051204Y026370D01*
X053424Y026370D01*
X053747Y026736D02*
X053747Y027524D01*
X054259Y027524D02*
X054259Y027705D01*
X052448Y027705D01*
X052448Y027524D01*
X052448Y026736D02*
X052448Y026555D01*
X054259Y026555D01*
X054259Y026736D01*
X050799Y026736D02*
X050799Y026555D01*
X048988Y026555D01*
X048988Y026736D01*
X050287Y026736D02*
X050287Y027524D01*
X050799Y027524D02*
X050799Y027705D01*
X048988Y027705D01*
X048988Y027524D01*
X048998Y021705D02*
X048998Y021524D01*
X048998Y021705D02*
X050809Y021705D01*
X050809Y021524D01*
X050297Y021524D02*
X050297Y020736D01*
X050809Y020736D02*
X050809Y020555D01*
X048998Y020555D01*
X048998Y020736D01*
X051254Y019820D02*
X051254Y017240D01*
X053474Y017240D01*
X053474Y019820D02*
X051254Y019820D01*
X052098Y020555D02*
X053909Y020555D01*
X053909Y020736D01*
X053397Y020736D02*
X053397Y021524D01*
X053909Y021524D02*
X053909Y021705D01*
X052098Y021705D01*
X052098Y021524D01*
X052098Y020736D02*
X052098Y020555D01*
X052548Y014555D02*
X052548Y014374D01*
X052548Y014555D02*
X054359Y014555D01*
X054359Y014374D01*
X053847Y014374D02*
X053847Y013586D01*
X054359Y013586D02*
X054359Y013405D01*
X052548Y013405D01*
X052548Y013586D01*
X051559Y013586D02*
X051559Y013405D01*
X049748Y013405D01*
X049748Y013586D01*
X051047Y013586D02*
X051047Y014374D01*
X051559Y014374D02*
X051559Y014555D01*
X049748Y014555D01*
X049748Y014374D01*
X051054Y012970D02*
X051054Y010390D01*
X053274Y010390D01*
X053274Y012970D02*
X051054Y012970D01*
D18*
X050904Y011680D03*
X051104Y018530D03*
X051054Y025080D03*
M02*
