G75*
G70*
%OFA0B0*%
%FSLAX24Y24*%
%IPPOS*%
%LPD*%
%AMOC8*
5,1,8,0,0,1.08239X$1,22.5*
%
%ADD10R,0.0198X0.0671*%
%ADD11R,0.0671X0.0198*%
%ADD12R,0.0513X0.0474*%
%ADD13R,0.0513X0.0513*%
%ADD14C,0.0580*%
%ADD15R,0.0870X0.0670*%
%ADD16R,0.0870X0.1580*%
%ADD17R,0.0789X0.0710*%
%ADD18C,0.0820*%
%ADD19R,0.0966X0.0966*%
%ADD20C,0.2180*%
%ADD21R,0.0218X0.0415*%
%ADD22R,0.0395X0.0218*%
%ADD23R,0.0434X0.0356*%
%ADD24R,0.1734X0.0513*%
%ADD25R,0.1537X0.0671*%
%ADD26C,0.0595*%
%ADD27C,0.0680*%
%ADD28R,0.0513X0.0513*%
%ADD29R,0.0710X0.0789*%
%ADD30R,0.0336X0.0966*%
%ADD31R,0.1143X0.0316*%
%ADD32R,0.0867X0.0552*%
%ADD33R,0.0356X0.0434*%
%ADD34C,0.0954*%
%ADD35C,0.1619*%
%ADD36R,0.0860X0.0290*%
%ADD37R,0.0690X0.0316*%
%ADD38R,0.0730X0.0730*%
%ADD39C,0.2030*%
%ADD40R,0.5080X0.4230*%
%ADD41R,0.0678X0.0722*%
%ADD42R,0.0946X0.0316*%
%ADD43R,0.0316X0.0336*%
%ADD44R,0.0722X0.0678*%
%ADD45C,0.1261*%
%ADD46C,0.1145*%
%ADD47R,0.1261X0.0710*%
%ADD48R,0.2550X0.2360*%
%ADD49C,0.0730*%
%ADD50R,0.2840X0.2840*%
%ADD51R,0.1070X0.0670*%
%ADD52R,0.0986X0.0769*%
%ADD53R,0.0474X0.0513*%
%ADD54R,0.0674X0.0674*%
%ADD55R,0.0316X0.0946*%
%ADD56R,0.0336X0.0316*%
%ADD57R,0.0671X0.0297*%
%ADD58C,0.0476*%
%ADD59C,0.0611*%
%ADD60C,0.0789*%
%ADD61R,0.0476X0.0476*%
%ADD62C,0.1025*%
D10*
X026527Y014186D03*
X026724Y014186D03*
X026921Y014186D03*
X027118Y014186D03*
X027315Y014186D03*
X027511Y014186D03*
X027708Y014186D03*
X027905Y014186D03*
X028102Y014186D03*
X028299Y014186D03*
X028496Y014186D03*
X028693Y014186D03*
X028889Y014186D03*
X029086Y014186D03*
X029283Y014186D03*
X029480Y014186D03*
X029480Y018674D03*
X029283Y018674D03*
X029086Y018674D03*
X028889Y018674D03*
X028693Y018674D03*
X028496Y018674D03*
X028299Y018674D03*
X028102Y018674D03*
X027905Y018674D03*
X027708Y018674D03*
X027511Y018674D03*
X027315Y018674D03*
X027118Y018674D03*
X026921Y018674D03*
X026724Y018674D03*
X026527Y018674D03*
X084477Y008929D03*
X084674Y008929D03*
X084871Y008929D03*
X085068Y008929D03*
X085265Y008929D03*
X085461Y008929D03*
X085658Y008929D03*
X085855Y008929D03*
X086052Y008929D03*
X086249Y008929D03*
X086446Y008929D03*
X086643Y008929D03*
X086839Y008929D03*
X087036Y008929D03*
X087233Y008929D03*
X087430Y008929D03*
X087430Y004441D03*
X087233Y004441D03*
X087036Y004441D03*
X086839Y004441D03*
X086643Y004441D03*
X086446Y004441D03*
X086249Y004441D03*
X086052Y004441D03*
X085855Y004441D03*
X085658Y004441D03*
X085461Y004441D03*
X085265Y004441D03*
X085068Y004441D03*
X084871Y004441D03*
X084674Y004441D03*
X084477Y004441D03*
D11*
X083709Y005209D03*
X083709Y005405D03*
X083709Y005602D03*
X083709Y005799D03*
X083709Y005996D03*
X083709Y006193D03*
X083709Y006390D03*
X083709Y006587D03*
X083709Y006783D03*
X083709Y006980D03*
X083709Y007177D03*
X083709Y007374D03*
X083709Y007571D03*
X083709Y007768D03*
X083709Y007964D03*
X083709Y008161D03*
X088198Y008161D03*
X088198Y007964D03*
X088198Y007768D03*
X088198Y007571D03*
X088198Y007374D03*
X088198Y007177D03*
X088198Y006980D03*
X088198Y006783D03*
X088198Y006587D03*
X088198Y006390D03*
X088198Y006193D03*
X088198Y005996D03*
X088198Y005799D03*
X088198Y005602D03*
X088198Y005405D03*
X088198Y005209D03*
X030248Y014954D03*
X030248Y015150D03*
X030248Y015347D03*
X030248Y015544D03*
X030248Y015741D03*
X030248Y015938D03*
X030248Y016135D03*
X030248Y016332D03*
X030248Y016528D03*
X030248Y016725D03*
X030248Y016922D03*
X030248Y017119D03*
X030248Y017316D03*
X030248Y017513D03*
X030248Y017709D03*
X030248Y017906D03*
X025759Y017906D03*
X025759Y017709D03*
X025759Y017513D03*
X025759Y017316D03*
X025759Y017119D03*
X025759Y016922D03*
X025759Y016725D03*
X025759Y016528D03*
X025759Y016332D03*
X025759Y016135D03*
X025759Y015938D03*
X025759Y015741D03*
X025759Y015544D03*
X025759Y015347D03*
X025759Y015150D03*
X025759Y014954D03*
D12*
X032219Y015380D03*
X032888Y015380D03*
D13*
X032504Y016045D03*
X031704Y016045D03*
X031704Y016715D03*
X032504Y016715D03*
X034569Y015480D03*
X035238Y015480D03*
X039754Y016945D03*
X039754Y017615D03*
X039754Y018145D03*
X039754Y018815D03*
X038238Y021080D03*
X037569Y021080D03*
X042419Y022530D03*
X043088Y022530D03*
X043088Y023430D03*
X042419Y023430D03*
X043654Y024395D03*
X043654Y025065D03*
X043654Y026445D03*
X043654Y027115D03*
X041688Y028430D03*
X041019Y028430D03*
X043354Y028645D03*
X044354Y028645D03*
X044354Y029315D03*
X043354Y029315D03*
X053669Y026580D03*
X054338Y026580D03*
X047454Y024465D03*
X047454Y023795D03*
X048804Y021765D03*
X048804Y021095D03*
X053469Y020130D03*
X054138Y020130D03*
X047788Y015930D03*
X047119Y015930D03*
X053169Y013330D03*
X053838Y013330D03*
X059754Y007815D03*
X059754Y007145D03*
X069204Y002020D03*
X069204Y001350D03*
X072704Y001350D03*
X072704Y002020D03*
X076204Y002020D03*
X076204Y001350D03*
X079704Y001350D03*
X079704Y002020D03*
X084804Y002700D03*
X084804Y003370D03*
X086854Y003420D03*
X087904Y003420D03*
X087904Y002750D03*
X086854Y002750D03*
X090119Y003685D03*
X090788Y003685D03*
X090404Y006900D03*
X089354Y006900D03*
X089354Y007570D03*
X090404Y007570D03*
X090154Y009500D03*
X090154Y010170D03*
X086283Y010360D03*
X085614Y010360D03*
X082288Y010185D03*
X081619Y010185D03*
X080788Y010685D03*
X080119Y010685D03*
X083204Y011850D03*
X083204Y012520D03*
X085619Y011435D03*
X086288Y011435D03*
X083288Y013685D03*
X082619Y013685D03*
X079104Y016450D03*
X079104Y017120D03*
X075788Y017185D03*
X075119Y017185D03*
X089869Y021935D03*
X090538Y021935D03*
X087954Y024350D03*
X087954Y025020D03*
X087104Y027700D03*
X087104Y028370D03*
X087104Y029100D03*
X087104Y029770D03*
X093869Y014185D03*
X094538Y014185D03*
X079574Y007420D03*
X078604Y007420D03*
X078604Y006750D03*
X079574Y006750D03*
X080119Y004185D03*
X080788Y004185D03*
X040013Y004280D03*
X039344Y004280D03*
X039349Y005235D03*
X040018Y005235D03*
X040013Y003280D03*
X039344Y003280D03*
X035948Y007530D03*
X035279Y007530D03*
X027319Y006235D03*
X027319Y005565D03*
X019954Y005945D03*
X019954Y006615D03*
X019988Y007580D03*
X019319Y007580D03*
X017743Y004480D03*
X017074Y004480D03*
X018504Y004315D03*
X019173Y004315D03*
X018754Y002315D03*
X018754Y001645D03*
X022254Y001645D03*
X022254Y002315D03*
X015254Y002315D03*
X015254Y001645D03*
X011754Y001645D03*
X011754Y002315D03*
X004404Y006445D03*
X004404Y007115D03*
X007204Y011295D03*
X007204Y011965D03*
X012054Y012395D03*
X012054Y013065D03*
X021004Y012795D03*
X021004Y013465D03*
X021004Y014445D03*
X021004Y015115D03*
X023704Y016595D03*
X024554Y016595D03*
X024554Y017265D03*
X023704Y017265D03*
X024904Y018495D03*
X024904Y019165D03*
X023438Y018830D03*
X022769Y018830D03*
X027819Y019930D03*
X028488Y019930D03*
X028488Y020930D03*
X027819Y020930D03*
X031904Y020565D03*
X031904Y019895D03*
X028888Y022430D03*
X028219Y022430D03*
X027453Y022415D03*
X026784Y022415D03*
X025288Y023430D03*
X024619Y023430D03*
X024619Y024280D03*
X025288Y024280D03*
X028169Y024530D03*
X028838Y024530D03*
X028838Y023730D03*
X028169Y023730D03*
X023904Y026745D03*
X022904Y026745D03*
X022904Y027415D03*
X023904Y027415D03*
X011088Y025585D03*
X010419Y025585D03*
X027369Y012680D03*
X028038Y012680D03*
X027898Y011880D03*
X027229Y011880D03*
D14*
X027954Y013330D03*
D15*
X019844Y013090D03*
X019844Y013990D03*
X019844Y014890D03*
X085844Y027845D03*
X085844Y028745D03*
X085844Y029645D03*
X088194Y019095D03*
X088194Y018195D03*
X088194Y017295D03*
D16*
X085714Y018185D03*
X083364Y028735D03*
X017364Y013980D03*
D17*
X022154Y013481D03*
X022154Y014529D03*
X022154Y015631D03*
X022904Y016679D03*
X022904Y017781D03*
X022154Y012379D03*
X045354Y028429D03*
X046304Y028429D03*
X046304Y029531D03*
X045354Y029531D03*
X088104Y029384D03*
X088104Y028236D03*
X088104Y027134D03*
X088104Y030486D03*
X090954Y019736D03*
X090954Y018634D03*
X090954Y017486D03*
X090954Y016384D03*
D18*
X082954Y021685D03*
X094154Y007685D03*
X094154Y006685D03*
X094154Y005685D03*
X094154Y004685D03*
X094154Y003685D03*
X095204Y001985D03*
X029654Y009630D03*
X028654Y009630D03*
X027654Y009630D03*
X026654Y009630D03*
X025654Y009630D03*
D19*
X027049Y007610D03*
X029608Y007610D03*
X031624Y021680D03*
X034183Y021680D03*
X076674Y005685D03*
X079233Y005685D03*
X090874Y002185D03*
X093433Y002185D03*
D20*
X092204Y005685D03*
X070454Y005685D03*
X056304Y007130D03*
X008004Y007130D03*
X008004Y023230D03*
X070454Y025685D03*
X092204Y025685D03*
D21*
X081946Y012963D03*
X081749Y012963D03*
X081552Y012963D03*
X081355Y012963D03*
X081158Y012963D03*
X080961Y012963D03*
X080961Y011407D03*
X081158Y011407D03*
X081355Y011407D03*
X081552Y011407D03*
X081749Y011407D03*
X081946Y011407D03*
X018646Y006958D03*
X018449Y006958D03*
X018252Y006958D03*
X018055Y006958D03*
X017858Y006958D03*
X017661Y006958D03*
X017661Y005402D03*
X017858Y005402D03*
X018055Y005402D03*
X018252Y005402D03*
X018449Y005402D03*
X018646Y005402D03*
D22*
X018941Y005688D03*
X018941Y005885D03*
X018941Y006082D03*
X018941Y006278D03*
X018941Y006475D03*
X018941Y006672D03*
X017366Y006672D03*
X017366Y006475D03*
X017366Y006278D03*
X017366Y006082D03*
X017366Y005885D03*
X017366Y005688D03*
X080666Y011693D03*
X080666Y011890D03*
X080666Y012087D03*
X080666Y012283D03*
X080666Y012480D03*
X080666Y012677D03*
X082241Y012677D03*
X082241Y012480D03*
X082241Y012283D03*
X082241Y012087D03*
X082241Y011890D03*
X082241Y011693D03*
D23*
X081454Y014429D03*
X080454Y014429D03*
X080454Y014941D03*
X081454Y014941D03*
X032754Y013436D03*
X031954Y013436D03*
X031954Y012924D03*
X032754Y012924D03*
X018304Y009036D03*
X017254Y009036D03*
X017254Y008524D03*
X018304Y008524D03*
D24*
X003785Y008549D03*
X003785Y009336D03*
X003785Y010124D03*
X003785Y010911D03*
X003785Y013836D03*
X003785Y014624D03*
X003785Y017586D03*
X003785Y018374D03*
X003785Y005624D03*
X003785Y004836D03*
X060472Y008486D03*
X060472Y009274D03*
X093422Y011291D03*
X093422Y012079D03*
D25*
X095686Y013004D03*
X095686Y010366D03*
X062736Y010199D03*
X062736Y007561D03*
X001521Y007624D03*
X001521Y006549D03*
X001521Y003911D03*
X001521Y011836D03*
X001521Y012911D03*
X001521Y015549D03*
X001521Y016661D03*
X001521Y019299D03*
D26*
X009610Y001980D03*
X010397Y001980D03*
X013110Y001980D03*
X013897Y001980D03*
X016610Y001980D03*
X017397Y001980D03*
X020110Y001980D03*
X020897Y001980D03*
X061004Y011849D03*
X062254Y011849D03*
X062254Y012636D03*
X061004Y012636D03*
X061004Y013424D03*
X062254Y013424D03*
X062254Y014211D03*
X061004Y014211D03*
X061004Y016336D03*
X062284Y016336D03*
X062284Y017124D03*
X061004Y017124D03*
X068454Y015366D03*
X068454Y014579D03*
X068454Y013791D03*
X068454Y013004D03*
X073854Y009029D03*
X073854Y008241D03*
X083504Y002729D03*
X083504Y001941D03*
X078347Y001435D03*
X077560Y001435D03*
X074847Y001435D03*
X074060Y001435D03*
X071347Y001435D03*
X070560Y001435D03*
X067847Y001435D03*
X067060Y001435D03*
X020004Y016730D03*
X018004Y016730D03*
X016004Y016730D03*
X014004Y016730D03*
X008004Y017586D03*
X008004Y018374D03*
X014004Y025730D03*
X016004Y025730D03*
X020004Y025730D03*
X068454Y028791D03*
X068454Y029579D03*
X074454Y027685D03*
X076454Y027685D03*
X080454Y027685D03*
X094004Y028791D03*
X094004Y029579D03*
X068454Y021366D03*
X068454Y020579D03*
X068454Y019791D03*
X068454Y019004D03*
X074454Y018685D03*
X076454Y018685D03*
X078454Y018685D03*
X080454Y018685D03*
X093954Y018579D03*
X093954Y017791D03*
X093954Y017004D03*
X093954Y019366D03*
D27*
X039373Y010091D03*
X038585Y010091D03*
X037798Y010091D03*
X037010Y010091D03*
X036223Y010091D03*
X035436Y010091D03*
X034648Y010091D03*
X033861Y010091D03*
X033073Y010091D03*
X032286Y010091D03*
X032286Y001429D03*
X033073Y001429D03*
X033861Y001429D03*
X034648Y001429D03*
X035436Y001429D03*
X036223Y001429D03*
X037010Y001429D03*
X037798Y001429D03*
X038585Y001429D03*
X039373Y001429D03*
D28*
G36*
X041454Y003137D02*
X041833Y002794D01*
X041490Y002415D01*
X041111Y002758D01*
X041454Y003137D01*
G37*
G36*
X040957Y003585D02*
X041336Y003242D01*
X040993Y002863D01*
X040614Y003206D01*
X040957Y003585D01*
G37*
G36*
X041582Y004340D02*
X041961Y003997D01*
X041618Y003618D01*
X041239Y003961D01*
X041582Y004340D01*
G37*
G36*
X042079Y003892D02*
X042458Y003549D01*
X042115Y003170D01*
X041736Y003513D01*
X042079Y003892D01*
G37*
G36*
X041069Y007744D02*
X041448Y008087D01*
X041791Y007708D01*
X041412Y007365D01*
X041069Y007744D01*
G37*
G36*
X041566Y008192D02*
X041945Y008535D01*
X042288Y008156D01*
X041909Y007813D01*
X041566Y008192D01*
G37*
G36*
X041101Y008548D02*
X040722Y008205D01*
X040379Y008584D01*
X040758Y008927D01*
X041101Y008548D01*
G37*
G36*
X041598Y008996D02*
X041219Y008653D01*
X040876Y009032D01*
X041255Y009375D01*
X041598Y008996D01*
G37*
D29*
X036710Y008580D03*
X035607Y008580D03*
X085402Y012685D03*
X086505Y012685D03*
D30*
X028894Y025860D03*
X028394Y025860D03*
X027894Y025860D03*
X027394Y025860D03*
X026894Y025860D03*
X026394Y025860D03*
X025894Y025860D03*
X025394Y025860D03*
X025394Y029600D03*
X025894Y029600D03*
X026394Y029600D03*
X026894Y029600D03*
X027394Y029600D03*
X027894Y029600D03*
X028394Y029600D03*
X028894Y029600D03*
D31*
X061829Y006017D03*
X061829Y005624D03*
X061829Y005230D03*
X061829Y004836D03*
X061829Y004443D03*
D32*
X063010Y003931D03*
X063010Y006529D03*
D33*
X059359Y005480D03*
X058848Y005480D03*
X058848Y004980D03*
X059359Y004980D03*
X059359Y003880D03*
X058848Y003880D03*
D34*
X005492Y025415D03*
X005492Y027045D03*
D35*
X002602Y026230D03*
D36*
X040808Y021730D03*
X040808Y021230D03*
X040808Y020730D03*
X040808Y020230D03*
X040808Y019730D03*
X040808Y019230D03*
X040808Y018730D03*
X040808Y018230D03*
X040808Y017730D03*
X040808Y017230D03*
X040808Y016730D03*
X040808Y016230D03*
X044499Y016230D03*
X044499Y016730D03*
X044499Y017230D03*
X044499Y017730D03*
X044499Y018230D03*
X044499Y018730D03*
X044499Y019230D03*
X044499Y019730D03*
X044499Y020230D03*
X044499Y020730D03*
X044499Y021230D03*
X044499Y021730D03*
D37*
X037417Y019980D03*
X037417Y019480D03*
X037417Y018980D03*
X037417Y018480D03*
X037417Y017980D03*
X037417Y017480D03*
X037417Y016980D03*
X037417Y016480D03*
X035291Y016480D03*
X035291Y016980D03*
X035291Y017480D03*
X035291Y017980D03*
X035291Y018480D03*
X035291Y018980D03*
X035291Y019480D03*
X035291Y019980D03*
D38*
X042504Y024440D03*
X041004Y025110D03*
X042504Y025780D03*
X041004Y026450D03*
X042504Y027120D03*
D39*
X033634Y025780D03*
D40*
X034534Y025780D03*
D41*
X046207Y025480D03*
X047900Y025480D03*
X048050Y017730D03*
X046357Y017730D03*
X047257Y014930D03*
X048950Y014930D03*
D42*
X010527Y012980D03*
X010527Y012480D03*
X010527Y011980D03*
X010527Y011480D03*
X008480Y011480D03*
X008480Y011980D03*
X008480Y012480D03*
X008480Y012980D03*
D43*
X008378Y014287D03*
X007630Y014287D03*
X008004Y015173D03*
D44*
X006404Y015076D03*
X006404Y013384D03*
X019914Y027134D03*
X019914Y028826D03*
X080354Y028639D03*
X080354Y030331D03*
X092454Y030031D03*
X092454Y028339D03*
D45*
X062146Y021127D03*
X060491Y023993D03*
D46*
X058008Y022554D03*
X058833Y021125D03*
X059658Y019696D03*
D47*
X053714Y020880D03*
X053714Y022680D03*
X053714Y027580D03*
X053714Y029380D03*
X053714Y016180D03*
X053714Y014380D03*
D48*
X051179Y015280D03*
X051179Y021780D03*
X051179Y028480D03*
D49*
X073418Y019685D03*
X091954Y018685D03*
X091954Y016385D03*
X081489Y026685D03*
X053754Y008030D03*
X023104Y015330D03*
X012968Y017730D03*
X021039Y024730D03*
D50*
X009059Y028135D03*
D51*
X011779Y027235D03*
X011779Y029035D03*
D52*
X013474Y029425D03*
X013474Y027425D03*
D53*
X085854Y003420D03*
X085854Y002750D03*
X089954Y017100D03*
X089954Y017770D03*
X089954Y018600D03*
X089954Y019270D03*
D54*
X087934Y015835D03*
X086954Y015835D03*
X085974Y015835D03*
X085974Y014535D03*
X086954Y014535D03*
X087934Y014535D03*
D55*
X088704Y023161D03*
X089204Y023161D03*
X089704Y023161D03*
X090204Y023161D03*
X090204Y025209D03*
X089704Y025209D03*
X089204Y025209D03*
X088704Y025209D03*
D56*
X090861Y027311D03*
X091746Y027685D03*
X090861Y028059D03*
D57*
X078017Y016435D03*
X078017Y015935D03*
X078017Y015435D03*
X078017Y014935D03*
X075891Y014935D03*
X075891Y015435D03*
X075891Y015935D03*
X075891Y016435D03*
D58*
X074454Y017185D03*
X079954Y017185D03*
X080954Y016185D03*
X082354Y015585D03*
X079954Y015185D03*
X079754Y014285D03*
X078504Y013745D03*
X077954Y014185D03*
X076154Y013885D03*
X076754Y013185D03*
X074954Y012685D03*
X077440Y012322D03*
X079829Y012100D03*
X079954Y012685D03*
X079454Y011185D03*
X077404Y010237D03*
X080654Y009735D03*
X082954Y010185D03*
X082854Y011235D03*
X084454Y011685D03*
X087490Y011222D03*
X090154Y010935D03*
X091204Y010000D03*
X092954Y010185D03*
X091204Y008085D03*
X091854Y007735D03*
X086954Y007685D03*
X084754Y007375D03*
X083044Y008595D03*
X079704Y008435D03*
X077654Y006435D03*
X081054Y004885D03*
X083704Y003935D03*
X088054Y004035D03*
X088754Y002735D03*
X084954Y001635D03*
X082154Y001635D03*
X089654Y005335D03*
X091204Y012535D03*
X089417Y013148D03*
X087454Y012685D03*
X083954Y013685D03*
X082354Y014435D03*
X089454Y014385D03*
X090454Y014035D03*
X092954Y013685D03*
X089454Y016435D03*
X092754Y019585D03*
X089454Y019935D03*
X092754Y020835D03*
X091454Y022185D03*
X090704Y024785D03*
X090454Y026185D03*
X087954Y026435D03*
X083354Y027235D03*
X089954Y030185D03*
X052954Y026530D03*
X049354Y028285D03*
X045504Y025480D03*
X041204Y023030D03*
X044254Y022630D03*
X041554Y021730D03*
X043354Y020780D03*
X038754Y021080D03*
X034654Y019980D03*
X031604Y019080D03*
X030854Y019130D03*
X032054Y018430D03*
X032804Y018480D03*
X034154Y018480D03*
X033804Y017980D03*
X034104Y017480D03*
X032454Y017980D03*
X033804Y016980D03*
X033404Y016530D03*
X033154Y016030D03*
X034454Y016130D03*
X037754Y015980D03*
X039154Y014830D03*
X035304Y014780D03*
X035404Y013730D03*
X035154Y013180D03*
X036104Y012930D03*
X035154Y012580D03*
X035045Y012063D03*
X034204Y012780D03*
X032104Y012230D03*
X029849Y011125D03*
X028664Y011545D03*
X027909Y010995D03*
X028879Y010725D03*
X026409Y010530D03*
X026104Y011230D03*
X026709Y012235D03*
X031254Y013980D03*
X032754Y014080D03*
X033204Y014580D03*
X029154Y015330D03*
X029004Y016230D03*
X029004Y017180D03*
X027554Y017230D03*
X026904Y017780D03*
X024254Y018180D03*
X022154Y017630D03*
X029804Y020480D03*
X029104Y020930D03*
X026179Y022425D03*
X028854Y023080D03*
X024654Y025830D03*
X022904Y026030D03*
X028754Y026730D03*
X029654Y028780D03*
X012234Y025245D03*
X009704Y018374D03*
X009704Y017580D03*
X009104Y014280D03*
X011604Y014430D03*
X012154Y014080D03*
X011804Y013580D03*
X014354Y012930D03*
X014804Y012130D03*
X017104Y012230D03*
X018354Y011830D03*
X017854Y011430D03*
X017454Y010980D03*
X017004Y010530D03*
X014804Y010530D03*
X014804Y011280D03*
X019554Y012180D03*
X015504Y013480D03*
X016054Y014280D03*
X009254Y011480D03*
X009804Y010930D03*
X010004Y009880D03*
X008954Y009330D03*
X007704Y009480D03*
X010054Y008180D03*
X014604Y007130D03*
X015304Y007778D03*
X016604Y007630D03*
X018304Y007930D03*
X020604Y007580D03*
X021254Y007580D03*
X016654Y006680D03*
X015304Y006330D03*
X014604Y005730D03*
X016514Y004805D03*
X019839Y004650D03*
X020854Y004980D03*
X020854Y003930D03*
X022754Y003930D03*
X026264Y005750D03*
X028329Y008000D03*
X027289Y008530D03*
X031084Y009475D03*
X034759Y007535D03*
X040779Y009530D03*
X047904Y010130D03*
X044854Y006380D03*
X042909Y006370D03*
X044904Y005580D03*
X043754Y004680D03*
X043154Y003880D03*
X042704Y002280D03*
X038479Y002280D03*
X038379Y002980D03*
X037379Y003380D03*
X035579Y003380D03*
X023104Y008970D03*
X021254Y009278D03*
X022889Y009975D03*
X018519Y009530D03*
X017254Y009630D03*
X010654Y006030D03*
X010654Y005080D03*
X007128Y005540D03*
X007054Y004830D03*
X005504Y004630D03*
X043704Y015230D03*
X046229Y015580D03*
X049454Y015730D03*
X048824Y013965D03*
X045654Y017780D03*
X049004Y020130D03*
X052854Y020130D03*
X049454Y022080D03*
X048654Y022330D03*
X049354Y022780D03*
X039054Y017930D03*
X060504Y006830D03*
X059754Y006480D03*
X059854Y005230D03*
X060404Y004330D03*
X059854Y003880D03*
X061804Y002480D03*
X074454Y014935D03*
D59*
X038504Y022930D03*
X036954Y022930D03*
X046954Y027080D03*
X047504Y027680D03*
X046304Y027680D03*
X023704Y013730D03*
D60*
X023154Y014480D03*
X023154Y012380D03*
D61*
X091954Y013185D03*
D62*
X089104Y028735D03*
M02*
