%
M48
M72
T01C0.0236
T02C0.0300
T03C0.0315
T04C0.0354
T05C0.0394
T06C0.0400
T07C0.0433
T08C0.0472
T09C0.0583
T10C0.0591
T11C0.0630
T12C0.0710
T13C0.1102
T14C0.1181
T15C0.1539
T16C0.1550
%
T01
X5504Y4630
X7054Y4830
X7128Y5540
X10654Y5080
X10654Y6030
X14604Y5730
X15304Y6330
X16654Y6680
X16604Y7630
X15304Y7778
X14604Y7130
X18304Y7930
X20604Y7580
X21254Y7580
X23104Y8970
X21254Y9278
X22889Y9975
X26104Y11230
X26409Y10530
X27909Y10995
X28879Y10725
X29849Y11125
X28664Y11545
X26709Y12235
X32104Y12230
X34204Y12780
X35154Y12580
X35045Y12063
X36104Y12930
X35154Y13180
X35404Y13730
X35304Y14780
X33204Y14580
X32754Y14080
X31254Y13980
X29154Y15330
X29004Y16230
X29004Y17180
X27554Y17230
X26904Y17780
X24254Y18180
X22154Y17630
X29804Y20480
X29104Y20930
X30854Y19130
X31604Y19080
X32054Y18430
X32804Y18480
X34154Y18480
X33804Y17980
X34104Y17480
X32454Y17980
X33804Y16980
X33404Y16530
X33154Y16030
X34454Y16130
X37754Y15980
X39154Y14830
X43704Y15230
X46229Y15580
X49454Y15730
X48824Y13965
X45654Y17780
X49004Y20130
X52854Y20130
X49454Y22080
X48654Y22330
X49354Y22780
X44254Y22630
X41554Y21730
X43354Y20780
X38754Y21080
X34654Y19980
X39054Y17930
X26179Y22425
X28854Y23080
X24654Y25830
X22904Y26030
X28754Y26730
X29654Y28780
X45504Y25480
X41204Y23030
X52954Y26530
X49354Y28285
X74454Y17185
X79954Y17185
X80954Y16185
X82354Y15585
X79954Y15185
X79754Y14285
X78504Y13745
X77954Y14185
X76154Y13885
X76754Y13185
X74954Y12685
X77440Y12322
X79829Y12100
X79954Y12685
X79454Y11185
X77404Y10237
X80654Y9735
X82954Y10185
X82854Y11235
X84454Y11685
X87490Y11222
X90154Y10935
X91204Y10000
X92954Y10185
X91204Y8085
X91854Y7735
X86954Y7685
X84754Y7375
X83044Y8595
X79704Y8435
X77654Y6435
X81054Y4885
X83704Y3935
X88054Y4035
X88754Y2735
X84954Y1635
X82154Y1635
X89654Y5335
X91204Y12535
X91954Y13185
X92954Y13685
X90454Y14035
X89454Y14385
X89417Y13148
X87454Y12685
X83954Y13685
X82354Y14435
X89454Y16435
X92754Y19585
X89454Y19935
X92754Y20835
X91454Y22185
X90704Y24785
X90454Y26185
X87954Y26435
X83354Y27235
X89954Y30185
X74454Y14935
X60504Y6830
X59754Y6480
X59854Y5230
X60404Y4330
X59854Y3880
X61804Y2480
X44904Y5580
X44854Y6380
X42909Y6370
X43754Y4680
X43154Y3880
X42704Y2280
X38479Y2280
X38379Y2980
X37379Y3380
X35579Y3380
X26264Y5750
X20854Y4980
X19839Y4650
X20854Y3930
X22754Y3930
X16514Y4805
X10054Y8180
X8954Y9330
X10004Y9880
X9804Y10930
X9254Y11480
X14354Y12930
X14804Y12130
X17104Y12230
X18354Y11830
X17854Y11430
X17454Y10980
X17004Y10530
X14804Y10530
X14804Y11280
X19554Y12180
X15504Y13480
X16054Y14280
X12154Y14080
X11604Y14430
X9104Y14280
X11804Y13580
X17254Y9630
X18519Y9530
X27289Y8530
X28329Y8000
X31084Y9475
X34759Y7535
X40779Y9530
X47904Y10130
X9704Y17580
X9704Y18374
X12234Y25245
X7704Y9480
T02
X27954Y13330
T03
X9610Y1980
X10397Y1980
X13110Y1980
X13897Y1980
X16610Y1980
X17397Y1980
X20110Y1980
X20897Y1980
X32286Y1429
X33073Y1429
X33861Y1429
X34648Y1429
X35436Y1429
X36223Y1429
X37010Y1429
X37798Y1429
X38585Y1429
X39373Y1429
X39373Y10091
X38585Y10091
X37798Y10091
X37010Y10091
X36223Y10091
X35436Y10091
X34648Y10091
X33861Y10091
X33073Y10091
X32286Y10091
X20004Y16730
X18004Y16730
X16004Y16730
X14004Y16730
X8004Y17586
X8004Y18374
X14004Y25730
X16004Y25730
X20004Y25730
X61004Y17124
X62284Y17124
X62284Y16336
X61004Y16336
X61004Y14211
X62254Y14211
X62254Y13424
X61004Y13424
X61004Y12636
X62254Y12636
X62254Y11849
X61004Y11849
X68454Y13004
X68454Y13791
X68454Y14579
X68454Y15366
X74454Y18685
X76454Y18685
X78454Y18685
X80454Y18685
X68454Y19004
X68454Y19791
X68454Y20579
X68454Y21366
X74454Y27685
X76454Y27685
X80454Y27685
X68454Y28791
X68454Y29579
X94004Y29579
X94004Y28791
X93954Y19366
X93954Y18579
X93954Y17791
X93954Y17004
X73854Y9029
X73854Y8241
X83504Y2729
X83504Y1941
X78347Y1435
X77560Y1435
X74847Y1435
X74060Y1435
X71347Y1435
X70560Y1435
X67847Y1435
X67060Y1435
T04
X23704Y13730
X36954Y22930
X38504Y22930
X46954Y27080
X47504Y27680
X46304Y27680
T05
X85974Y15835
X86954Y15835
X87934Y15835
X87934Y14535
X86954Y14535
X85974Y14535
T06
X94154Y7685
X94154Y6685
X94154Y5685
X94154Y4685
X94154Y3685
X95204Y1985
X82954Y21685
X29654Y9630
X28654Y9630
X27654Y9630
X26654Y9630
X25654Y9630
T07
X23104Y15330
X12968Y17730
X21039Y24730
X41004Y25110
X42504Y25780
X41004Y26450
X42504Y27120
X42504Y24440
X73418Y19685
X91954Y18685
X91954Y16385
X81489Y26685
X53754Y8030
T08
X23154Y12380
X23154Y14480
T09
X5492Y25415
X5492Y27045
T10
X31624Y21680
X34183Y21680
X29608Y7610
X27049Y7610
X76674Y5685
X79233Y5685
X90874Y2185
X93433Y2185
T11
X89104Y28735
T12
X59658Y19696
X58833Y21125
X58008Y22554
T13
X70454Y25685
X92204Y25685
X56304Y7130
X70454Y5685
X92204Y5685
X8004Y7130
X8004Y23230
T14
X60491Y23993
X62146Y21127
T15
X2602Y26230
T16
X33634Y25780
M30
