G75*
G70*
%OFA0B0*%
%FSLAX24Y24*%
%IPPOS*%
%LPD*%
%AMOC8*
5,1,8,0,0,1.08239X$1,22.5*
%
%ADD10C,0.0060*%
%ADD11C,0.0170*%
%ADD12C,0.0040*%
%ADD13C,0.0020*%
%ADD14C,0.0100*%
%ADD15C,0.0080*%
%ADD16C,0.0030*%
%ADD17C,0.0050*%
%ADD18R,0.0157X0.0236*%
%ADD19R,0.0236X0.0157*%
%ADD20R,0.0280X0.0160*%
%ADD21C,0.0157*%
%ADD22C,0.0010*%
%ADD23R,0.0160X0.0280*%
%ADD24R,0.0300X0.0340*%
D10*
X006854Y007130D02*
X006856Y007197D01*
X006862Y007265D01*
X006872Y007332D01*
X006886Y007398D01*
X006903Y007463D01*
X006925Y007527D01*
X006950Y007590D01*
X006979Y007651D01*
X007011Y007710D01*
X007047Y007767D01*
X007086Y007822D01*
X007128Y007875D01*
X007173Y007925D01*
X007221Y007972D01*
X007272Y008017D01*
X007325Y008058D01*
X007381Y008097D01*
X007439Y008132D01*
X007499Y008163D01*
X007560Y008191D01*
X007623Y008215D01*
X007687Y008236D01*
X007753Y008252D01*
X007819Y008265D01*
X007886Y008274D01*
X007953Y008279D01*
X008021Y008280D01*
X008088Y008277D01*
X008155Y008270D01*
X008222Y008259D01*
X008288Y008244D01*
X008353Y008226D01*
X008417Y008203D01*
X008479Y008177D01*
X008540Y008148D01*
X008598Y008114D01*
X008655Y008078D01*
X008710Y008038D01*
X008762Y007995D01*
X008811Y007949D01*
X008858Y007900D01*
X008902Y007849D01*
X008942Y007795D01*
X008980Y007739D01*
X009014Y007680D01*
X009044Y007620D01*
X009071Y007558D01*
X009095Y007495D01*
X009114Y007430D01*
X009130Y007365D01*
X009142Y007298D01*
X009150Y007231D01*
X009154Y007164D01*
X009154Y007096D01*
X009150Y007029D01*
X009142Y006962D01*
X009130Y006895D01*
X009114Y006830D01*
X009095Y006765D01*
X009071Y006702D01*
X009044Y006640D01*
X009014Y006580D01*
X008980Y006521D01*
X008942Y006465D01*
X008902Y006411D01*
X008858Y006360D01*
X008811Y006311D01*
X008762Y006265D01*
X008710Y006222D01*
X008655Y006182D01*
X008598Y006146D01*
X008540Y006112D01*
X008479Y006083D01*
X008417Y006057D01*
X008353Y006034D01*
X008288Y006016D01*
X008222Y006001D01*
X008155Y005990D01*
X008088Y005983D01*
X008021Y005980D01*
X007953Y005981D01*
X007886Y005986D01*
X007819Y005995D01*
X007753Y006008D01*
X007687Y006024D01*
X007623Y006045D01*
X007560Y006069D01*
X007499Y006097D01*
X007439Y006128D01*
X007381Y006163D01*
X007325Y006202D01*
X007272Y006243D01*
X007221Y006288D01*
X007173Y006335D01*
X007128Y006385D01*
X007086Y006438D01*
X007047Y006493D01*
X007011Y006550D01*
X006979Y006609D01*
X006950Y006670D01*
X006925Y006733D01*
X006903Y006797D01*
X006886Y006862D01*
X006872Y006928D01*
X006862Y006995D01*
X006856Y007063D01*
X006854Y007130D01*
X017922Y012750D02*
X017922Y015210D01*
X019284Y015210D01*
X019284Y012750D01*
X017922Y012750D01*
X017167Y017320D02*
X017274Y017427D01*
X017274Y017640D01*
X017167Y017747D01*
X017167Y017964D02*
X017274Y018071D01*
X017274Y018285D01*
X017167Y018391D01*
X017167Y018609D02*
X017274Y018716D01*
X017274Y018929D01*
X017167Y019036D01*
X017060Y019036D01*
X016953Y018929D01*
X016953Y018609D01*
X017167Y018609D01*
X016953Y018609D02*
X016740Y018822D01*
X016633Y019036D01*
X016953Y019254D02*
X016953Y019681D01*
X016740Y019898D02*
X016633Y020005D01*
X016633Y020218D01*
X016740Y020325D01*
X016847Y020325D01*
X017274Y019898D01*
X017274Y020325D01*
X016953Y020543D02*
X016953Y020970D01*
X016740Y021187D02*
X016633Y021294D01*
X016633Y021507D01*
X016740Y021614D01*
X017167Y021187D01*
X017274Y021294D01*
X017274Y021507D01*
X017167Y021614D01*
X016740Y021614D01*
X016740Y021832D02*
X016847Y021832D01*
X016953Y021938D01*
X016953Y022152D01*
X017060Y022259D01*
X017167Y022259D01*
X017274Y022152D01*
X017274Y021938D01*
X017167Y021832D01*
X016740Y021832D02*
X016633Y021938D01*
X016633Y022152D01*
X016740Y022259D01*
X016633Y022476D02*
X016633Y022903D01*
X016953Y022690D02*
X016953Y022476D01*
X016633Y022476D02*
X017274Y022476D01*
X016953Y023121D02*
X016953Y023548D01*
X016953Y023765D02*
X016953Y023979D01*
X016633Y024192D02*
X016633Y023765D01*
X017274Y023765D01*
X017274Y024192D01*
X006854Y023230D02*
X006856Y023297D01*
X006862Y023365D01*
X006872Y023432D01*
X006886Y023498D01*
X006903Y023563D01*
X006925Y023627D01*
X006950Y023690D01*
X006979Y023751D01*
X007011Y023810D01*
X007047Y023867D01*
X007086Y023922D01*
X007128Y023975D01*
X007173Y024025D01*
X007221Y024072D01*
X007272Y024117D01*
X007325Y024158D01*
X007381Y024197D01*
X007439Y024232D01*
X007499Y024263D01*
X007560Y024291D01*
X007623Y024315D01*
X007687Y024336D01*
X007753Y024352D01*
X007819Y024365D01*
X007886Y024374D01*
X007953Y024379D01*
X008021Y024380D01*
X008088Y024377D01*
X008155Y024370D01*
X008222Y024359D01*
X008288Y024344D01*
X008353Y024326D01*
X008417Y024303D01*
X008479Y024277D01*
X008540Y024248D01*
X008598Y024214D01*
X008655Y024178D01*
X008710Y024138D01*
X008762Y024095D01*
X008811Y024049D01*
X008858Y024000D01*
X008902Y023949D01*
X008942Y023895D01*
X008980Y023839D01*
X009014Y023780D01*
X009044Y023720D01*
X009071Y023658D01*
X009095Y023595D01*
X009114Y023530D01*
X009130Y023465D01*
X009142Y023398D01*
X009150Y023331D01*
X009154Y023264D01*
X009154Y023196D01*
X009150Y023129D01*
X009142Y023062D01*
X009130Y022995D01*
X009114Y022930D01*
X009095Y022865D01*
X009071Y022802D01*
X009044Y022740D01*
X009014Y022680D01*
X008980Y022621D01*
X008942Y022565D01*
X008902Y022511D01*
X008858Y022460D01*
X008811Y022411D01*
X008762Y022365D01*
X008710Y022322D01*
X008655Y022282D01*
X008598Y022246D01*
X008540Y022212D01*
X008479Y022183D01*
X008417Y022157D01*
X008353Y022134D01*
X008288Y022116D01*
X008222Y022101D01*
X008155Y022090D01*
X008088Y022083D01*
X008021Y022080D01*
X007953Y022081D01*
X007886Y022086D01*
X007819Y022095D01*
X007753Y022108D01*
X007687Y022124D01*
X007623Y022145D01*
X007560Y022169D01*
X007499Y022197D01*
X007439Y022228D01*
X007381Y022263D01*
X007325Y022302D01*
X007272Y022343D01*
X007221Y022388D01*
X007173Y022435D01*
X007128Y022485D01*
X007086Y022538D01*
X007047Y022593D01*
X007011Y022650D01*
X006979Y022709D01*
X006950Y022770D01*
X006925Y022833D01*
X006903Y022897D01*
X006886Y022962D01*
X006872Y023028D01*
X006862Y023095D01*
X006856Y023163D01*
X006854Y023230D01*
X006686Y024175D02*
X006900Y024388D01*
X006900Y024815D01*
X006473Y024815D02*
X006473Y024388D01*
X006686Y024175D01*
X006255Y024495D02*
X005828Y024495D01*
X006148Y024815D01*
X006148Y024175D01*
X005611Y024175D02*
X005184Y024175D01*
X005611Y024602D01*
X005611Y024709D01*
X005504Y024815D01*
X005290Y024815D01*
X005184Y024709D01*
X005455Y027645D02*
X005669Y027645D01*
X005776Y027752D01*
X005776Y027965D01*
X005562Y027965D01*
X005349Y028179D02*
X005349Y027752D01*
X005455Y027645D01*
X005993Y027645D02*
X005993Y028285D01*
X006420Y027645D01*
X006420Y028285D01*
X006638Y028285D02*
X006958Y028285D01*
X007065Y028179D01*
X007065Y027752D01*
X006958Y027645D01*
X006638Y027645D01*
X006638Y028285D01*
X005776Y028179D02*
X005669Y028285D01*
X005455Y028285D01*
X005349Y028179D01*
X016740Y021187D02*
X017167Y021187D01*
X017274Y020863D02*
X016633Y020863D01*
X016953Y020543D01*
X016740Y018391D02*
X016633Y018285D01*
X016633Y018071D01*
X016740Y017964D01*
X017167Y017964D01*
X016740Y017747D02*
X016633Y017640D01*
X016633Y017427D01*
X016740Y017320D01*
X017167Y017320D01*
X031284Y022510D02*
X031284Y023201D01*
X031629Y023201D01*
X031744Y023085D01*
X031744Y022855D01*
X031629Y022740D01*
X031284Y022740D01*
X031514Y022740D02*
X031744Y022510D01*
X031974Y022510D02*
X032434Y022510D01*
X032665Y022625D02*
X032780Y022510D01*
X033010Y022510D01*
X033125Y022625D01*
X033125Y022740D01*
X033010Y022855D01*
X032780Y022855D01*
X032665Y022970D01*
X032665Y023085D01*
X032780Y023201D01*
X033010Y023201D01*
X033125Y023085D01*
X033355Y023201D02*
X033355Y022510D01*
X033816Y022510D01*
X034276Y022510D02*
X034276Y023201D01*
X034046Y023201D02*
X034506Y023201D01*
X033816Y023201D02*
X033355Y023201D01*
X033355Y022855D02*
X033585Y022855D01*
X032434Y023201D02*
X031974Y023201D01*
X031974Y022510D01*
X031974Y022855D02*
X032204Y022855D01*
X032284Y028010D02*
X032745Y028701D01*
X032975Y028585D02*
X033090Y028701D01*
X033320Y028701D01*
X033435Y028585D01*
X033435Y028470D01*
X032975Y028010D01*
X033435Y028010D01*
X033666Y028010D02*
X034126Y028010D01*
X033896Y028010D02*
X033896Y028701D01*
X033666Y028470D01*
X034356Y028585D02*
X034356Y028125D01*
X034816Y028585D01*
X034816Y028125D01*
X034701Y028010D01*
X034471Y028010D01*
X034356Y028125D01*
X035047Y028125D02*
X035507Y028585D01*
X035507Y028125D01*
X035392Y028010D01*
X035162Y028010D01*
X035047Y028125D01*
X035047Y028585D01*
X035162Y028701D01*
X035392Y028701D01*
X035507Y028585D01*
X035737Y028355D02*
X036082Y028701D01*
X036082Y028010D01*
X036198Y028355D02*
X035737Y028355D01*
X036428Y028701D02*
X036888Y028701D01*
X036658Y028701D02*
X036658Y028010D01*
X037118Y028010D02*
X037118Y028701D01*
X037579Y028010D01*
X037579Y028701D01*
X037809Y028701D02*
X037809Y028240D01*
X038039Y028010D01*
X038269Y028240D01*
X038269Y028701D01*
X038499Y028701D02*
X038499Y028355D01*
X038730Y028470D01*
X038845Y028470D01*
X038960Y028355D01*
X038960Y028125D01*
X038845Y028010D01*
X038614Y028010D01*
X038499Y028125D01*
X039190Y028010D02*
X039650Y028010D01*
X039420Y028010D02*
X039420Y028701D01*
X039190Y028470D01*
X038960Y028701D02*
X038499Y028701D01*
X034816Y028585D02*
X034701Y028701D01*
X034471Y028701D01*
X034356Y028585D01*
X032745Y028010D02*
X032284Y028701D01*
X032054Y028701D02*
X031594Y028701D01*
X031594Y028010D01*
X031364Y028010D02*
X031134Y028010D01*
X031249Y028010D02*
X031249Y028701D01*
X031134Y028701D02*
X031364Y028701D01*
X031594Y028355D02*
X031824Y028355D01*
X051134Y029910D02*
X051594Y029910D01*
X051824Y029910D02*
X051824Y030601D01*
X051824Y030255D02*
X052284Y030255D01*
X052284Y029910D02*
X052284Y030601D01*
X051364Y030601D02*
X051134Y030370D01*
X051364Y030601D02*
X051364Y029910D01*
X051449Y023951D02*
X051334Y023835D01*
X051449Y023951D02*
X051679Y023951D01*
X051794Y023835D01*
X051794Y023720D01*
X051334Y023260D01*
X051794Y023260D01*
X052024Y023260D02*
X052024Y023951D01*
X052024Y023605D02*
X052484Y023605D01*
X052484Y023260D02*
X052484Y023951D01*
X059159Y022914D02*
X059758Y023259D01*
X059673Y022945D01*
X059988Y022861D01*
X059390Y022515D01*
X059604Y022373D02*
X059562Y022216D01*
X059677Y022017D01*
X059835Y021975D01*
X060034Y022090D01*
X060076Y022247D01*
X059961Y022446D01*
X059804Y022489D01*
X059604Y022373D01*
X060249Y021948D02*
X060364Y021749D01*
X060406Y021906D02*
X060007Y021676D01*
X059965Y021519D01*
X060180Y021377D02*
X060138Y021219D01*
X060253Y021020D01*
X060410Y020978D01*
X060609Y021093D01*
X060651Y021250D01*
X060536Y021450D01*
X060379Y021492D01*
X060180Y021377D01*
X060425Y020721D02*
X060824Y020951D01*
X060625Y020836D02*
X060939Y020752D01*
X060997Y020652D01*
X052434Y017401D02*
X052434Y016710D01*
X052434Y017055D02*
X051974Y017055D01*
X051744Y016940D02*
X051744Y016825D01*
X051629Y016710D01*
X051399Y016710D01*
X051284Y016825D01*
X051514Y017055D02*
X051629Y017055D01*
X051744Y016940D01*
X051629Y017055D02*
X051744Y017170D01*
X051744Y017285D01*
X051629Y017401D01*
X051399Y017401D01*
X051284Y017285D01*
X051974Y017401D02*
X051974Y016710D01*
X057334Y010516D02*
X057334Y009825D01*
X057104Y009825D02*
X057564Y009825D01*
X058485Y009825D02*
X058945Y009825D01*
X059175Y009825D02*
X059636Y009825D01*
X059866Y009825D02*
X060211Y009825D01*
X060326Y009940D01*
X060326Y010400D01*
X060211Y010516D01*
X059866Y010516D01*
X059866Y009825D01*
X059175Y009825D02*
X059175Y010516D01*
X059636Y010516D01*
X059405Y010170D02*
X059175Y010170D01*
X058485Y010516D02*
X058485Y009825D01*
X057334Y010516D02*
X057104Y010285D01*
X055154Y007130D02*
X055156Y007197D01*
X055162Y007265D01*
X055172Y007332D01*
X055186Y007398D01*
X055203Y007463D01*
X055225Y007527D01*
X055250Y007590D01*
X055279Y007651D01*
X055311Y007710D01*
X055347Y007767D01*
X055386Y007822D01*
X055428Y007875D01*
X055473Y007925D01*
X055521Y007972D01*
X055572Y008017D01*
X055625Y008058D01*
X055681Y008097D01*
X055739Y008132D01*
X055799Y008163D01*
X055860Y008191D01*
X055923Y008215D01*
X055987Y008236D01*
X056053Y008252D01*
X056119Y008265D01*
X056186Y008274D01*
X056253Y008279D01*
X056321Y008280D01*
X056388Y008277D01*
X056455Y008270D01*
X056522Y008259D01*
X056588Y008244D01*
X056653Y008226D01*
X056717Y008203D01*
X056779Y008177D01*
X056840Y008148D01*
X056898Y008114D01*
X056955Y008078D01*
X057010Y008038D01*
X057062Y007995D01*
X057111Y007949D01*
X057158Y007900D01*
X057202Y007849D01*
X057242Y007795D01*
X057280Y007739D01*
X057314Y007680D01*
X057344Y007620D01*
X057371Y007558D01*
X057395Y007495D01*
X057414Y007430D01*
X057430Y007365D01*
X057442Y007298D01*
X057450Y007231D01*
X057454Y007164D01*
X057454Y007096D01*
X057450Y007029D01*
X057442Y006962D01*
X057430Y006895D01*
X057414Y006830D01*
X057395Y006765D01*
X057371Y006702D01*
X057344Y006640D01*
X057314Y006580D01*
X057280Y006521D01*
X057242Y006465D01*
X057202Y006411D01*
X057158Y006360D01*
X057111Y006311D01*
X057062Y006265D01*
X057010Y006222D01*
X056955Y006182D01*
X056898Y006146D01*
X056840Y006112D01*
X056779Y006083D01*
X056717Y006057D01*
X056653Y006034D01*
X056588Y006016D01*
X056522Y006001D01*
X056455Y005990D01*
X056388Y005983D01*
X056321Y005980D01*
X056253Y005981D01*
X056186Y005986D01*
X056119Y005995D01*
X056053Y006008D01*
X055987Y006024D01*
X055923Y006045D01*
X055860Y006069D01*
X055799Y006097D01*
X055739Y006128D01*
X055681Y006163D01*
X055625Y006202D01*
X055572Y006243D01*
X055521Y006288D01*
X055473Y006335D01*
X055428Y006385D01*
X055386Y006438D01*
X055347Y006493D01*
X055311Y006550D01*
X055279Y006609D01*
X055250Y006670D01*
X055225Y006733D01*
X055203Y006797D01*
X055186Y006862D01*
X055172Y006928D01*
X055162Y006995D01*
X055156Y007063D01*
X055154Y007130D01*
X056513Y005380D02*
X056513Y005264D01*
X056743Y005034D01*
X056513Y005034D02*
X056974Y005034D01*
X056743Y004804D02*
X056743Y004344D01*
X056858Y004344D02*
X056628Y004344D01*
X056513Y004459D01*
X056513Y004689D01*
X056628Y004804D01*
X056743Y004804D01*
X056974Y004689D02*
X056974Y004459D01*
X056858Y004344D01*
X056974Y004114D02*
X056283Y004114D01*
X056074Y004139D02*
X056074Y003909D01*
X055958Y003794D01*
X055728Y003794D01*
X055613Y003909D01*
X055613Y004139D01*
X055728Y004254D01*
X055958Y004254D01*
X056074Y004139D01*
X056074Y004484D02*
X055613Y004484D01*
X055843Y004484D02*
X055613Y004714D01*
X055613Y004830D01*
X056513Y004114D02*
X056513Y003768D01*
X056628Y003653D01*
X056858Y003653D01*
X056974Y003768D01*
X056974Y004114D01*
X056074Y003564D02*
X055958Y003449D01*
X055498Y003449D01*
X055613Y003564D02*
X055613Y003333D01*
X055728Y003103D02*
X055613Y002988D01*
X055613Y002758D01*
X055728Y002643D01*
X055958Y002643D01*
X056074Y002758D01*
X056074Y002988D01*
X055958Y003103D01*
X055728Y003103D01*
X056513Y003078D02*
X056513Y003308D01*
X056628Y003423D01*
X056858Y003423D01*
X056974Y003308D01*
X056974Y003078D01*
X056858Y002963D01*
X056628Y002963D01*
X056513Y003078D01*
X056513Y002732D02*
X056513Y002387D01*
X056628Y002272D01*
X056858Y002272D01*
X056974Y002387D01*
X056974Y002732D01*
X056074Y002413D02*
X055383Y002413D01*
X055613Y002182D01*
X055383Y001952D01*
X056074Y001952D01*
X056513Y001927D02*
X056628Y002042D01*
X056974Y002042D01*
X056513Y001927D02*
X056513Y001581D01*
X056974Y001581D01*
X056974Y001351D02*
X056974Y000891D01*
X056283Y000891D01*
X056283Y001351D01*
X056628Y001121D02*
X056628Y000891D01*
X069304Y005685D02*
X069306Y005752D01*
X069312Y005820D01*
X069322Y005887D01*
X069336Y005953D01*
X069353Y006018D01*
X069375Y006082D01*
X069400Y006145D01*
X069429Y006206D01*
X069461Y006265D01*
X069497Y006322D01*
X069536Y006377D01*
X069578Y006430D01*
X069623Y006480D01*
X069671Y006527D01*
X069722Y006572D01*
X069775Y006613D01*
X069831Y006652D01*
X069889Y006687D01*
X069949Y006718D01*
X070010Y006746D01*
X070073Y006770D01*
X070137Y006791D01*
X070203Y006807D01*
X070269Y006820D01*
X070336Y006829D01*
X070403Y006834D01*
X070471Y006835D01*
X070538Y006832D01*
X070605Y006825D01*
X070672Y006814D01*
X070738Y006799D01*
X070803Y006781D01*
X070867Y006758D01*
X070929Y006732D01*
X070990Y006703D01*
X071048Y006669D01*
X071105Y006633D01*
X071160Y006593D01*
X071212Y006550D01*
X071261Y006504D01*
X071308Y006455D01*
X071352Y006404D01*
X071392Y006350D01*
X071430Y006294D01*
X071464Y006235D01*
X071494Y006175D01*
X071521Y006113D01*
X071545Y006050D01*
X071564Y005985D01*
X071580Y005920D01*
X071592Y005853D01*
X071600Y005786D01*
X071604Y005719D01*
X071604Y005651D01*
X071600Y005584D01*
X071592Y005517D01*
X071580Y005450D01*
X071564Y005385D01*
X071545Y005320D01*
X071521Y005257D01*
X071494Y005195D01*
X071464Y005135D01*
X071430Y005076D01*
X071392Y005020D01*
X071352Y004966D01*
X071308Y004915D01*
X071261Y004866D01*
X071212Y004820D01*
X071160Y004777D01*
X071105Y004737D01*
X071048Y004701D01*
X070990Y004667D01*
X070929Y004638D01*
X070867Y004612D01*
X070803Y004589D01*
X070738Y004571D01*
X070672Y004556D01*
X070605Y004545D01*
X070538Y004538D01*
X070471Y004535D01*
X070403Y004536D01*
X070336Y004541D01*
X070269Y004550D01*
X070203Y004563D01*
X070137Y004579D01*
X070073Y004600D01*
X070010Y004624D01*
X069949Y004652D01*
X069889Y004683D01*
X069831Y004718D01*
X069775Y004757D01*
X069722Y004798D01*
X069671Y004843D01*
X069623Y004890D01*
X069578Y004940D01*
X069536Y004993D01*
X069497Y005048D01*
X069461Y005105D01*
X069429Y005164D01*
X069400Y005225D01*
X069375Y005288D01*
X069353Y005352D01*
X069336Y005417D01*
X069322Y005483D01*
X069312Y005550D01*
X069306Y005618D01*
X069304Y005685D01*
X076659Y004855D02*
X076659Y004322D01*
X076765Y004215D01*
X076979Y004215D01*
X077086Y004322D01*
X077086Y004855D01*
X077303Y004749D02*
X077303Y004642D01*
X077410Y004535D01*
X077623Y004535D01*
X077730Y004428D01*
X077730Y004322D01*
X077623Y004215D01*
X077410Y004215D01*
X077303Y004322D01*
X077303Y004749D02*
X077410Y004855D01*
X077623Y004855D01*
X077730Y004749D01*
X077948Y004855D02*
X077948Y004215D01*
X078375Y004215D01*
X078592Y004215D02*
X078592Y004855D01*
X078912Y004855D01*
X079019Y004749D01*
X079019Y004535D01*
X078912Y004428D01*
X078592Y004428D01*
X078806Y004428D02*
X079019Y004215D01*
X078161Y004535D02*
X077948Y004535D01*
X077948Y004855D02*
X078375Y004855D01*
X090734Y001355D02*
X091054Y001355D01*
X091161Y001249D01*
X091161Y001035D01*
X091054Y000928D01*
X090734Y000928D01*
X090734Y000715D02*
X090734Y001355D01*
X091378Y001355D02*
X091378Y000715D01*
X091805Y000715D01*
X092023Y000822D02*
X092129Y000715D01*
X092343Y000715D01*
X092450Y000822D01*
X092450Y000928D01*
X092343Y001035D01*
X092129Y001035D01*
X092023Y001142D01*
X092023Y001249D01*
X092129Y001355D01*
X092343Y001355D01*
X092450Y001249D01*
X092667Y001355D02*
X092667Y000715D01*
X093094Y000715D01*
X092881Y001035D02*
X092667Y001035D01*
X092667Y001355D02*
X093094Y001355D01*
X093312Y001355D02*
X093739Y001355D01*
X093525Y001355D02*
X093525Y000715D01*
X094384Y000622D02*
X094490Y000515D01*
X094704Y000515D01*
X094811Y000622D01*
X094811Y000835D01*
X094597Y000835D01*
X094384Y001049D02*
X094384Y000622D01*
X095028Y000515D02*
X095028Y001155D01*
X095455Y000515D01*
X095455Y001155D01*
X095673Y001155D02*
X095993Y001155D01*
X096100Y001049D01*
X096100Y000622D01*
X095993Y000515D01*
X095673Y000515D01*
X095673Y001155D01*
X094811Y001049D02*
X094704Y001155D01*
X094490Y001155D01*
X094384Y001049D01*
X091805Y001355D02*
X091378Y001355D01*
X091378Y001035D02*
X091592Y001035D01*
X091161Y000715D02*
X090947Y000928D01*
X091054Y005685D02*
X091056Y005752D01*
X091062Y005820D01*
X091072Y005887D01*
X091086Y005953D01*
X091103Y006018D01*
X091125Y006082D01*
X091150Y006145D01*
X091179Y006206D01*
X091211Y006265D01*
X091247Y006322D01*
X091286Y006377D01*
X091328Y006430D01*
X091373Y006480D01*
X091421Y006527D01*
X091472Y006572D01*
X091525Y006613D01*
X091581Y006652D01*
X091639Y006687D01*
X091699Y006718D01*
X091760Y006746D01*
X091823Y006770D01*
X091887Y006791D01*
X091953Y006807D01*
X092019Y006820D01*
X092086Y006829D01*
X092153Y006834D01*
X092221Y006835D01*
X092288Y006832D01*
X092355Y006825D01*
X092422Y006814D01*
X092488Y006799D01*
X092553Y006781D01*
X092617Y006758D01*
X092679Y006732D01*
X092740Y006703D01*
X092798Y006669D01*
X092855Y006633D01*
X092910Y006593D01*
X092962Y006550D01*
X093011Y006504D01*
X093058Y006455D01*
X093102Y006404D01*
X093142Y006350D01*
X093180Y006294D01*
X093214Y006235D01*
X093244Y006175D01*
X093271Y006113D01*
X093295Y006050D01*
X093314Y005985D01*
X093330Y005920D01*
X093342Y005853D01*
X093350Y005786D01*
X093354Y005719D01*
X093354Y005651D01*
X093350Y005584D01*
X093342Y005517D01*
X093330Y005450D01*
X093314Y005385D01*
X093295Y005320D01*
X093271Y005257D01*
X093244Y005195D01*
X093214Y005135D01*
X093180Y005076D01*
X093142Y005020D01*
X093102Y004966D01*
X093058Y004915D01*
X093011Y004866D01*
X092962Y004820D01*
X092910Y004777D01*
X092855Y004737D01*
X092798Y004701D01*
X092740Y004667D01*
X092679Y004638D01*
X092617Y004612D01*
X092553Y004589D01*
X092488Y004571D01*
X092422Y004556D01*
X092355Y004545D01*
X092288Y004538D01*
X092221Y004535D01*
X092153Y004536D01*
X092086Y004541D01*
X092019Y004550D01*
X091953Y004563D01*
X091887Y004579D01*
X091823Y004600D01*
X091760Y004624D01*
X091699Y004652D01*
X091639Y004683D01*
X091581Y004718D01*
X091525Y004757D01*
X091472Y004798D01*
X091421Y004843D01*
X091373Y004890D01*
X091328Y004940D01*
X091286Y004993D01*
X091247Y005048D01*
X091211Y005105D01*
X091179Y005164D01*
X091150Y005225D01*
X091125Y005288D01*
X091103Y005352D01*
X091086Y005417D01*
X091072Y005483D01*
X091062Y005550D01*
X091056Y005618D01*
X091054Y005685D01*
X087634Y016955D02*
X086272Y016955D01*
X086272Y019415D01*
X087634Y019415D01*
X087634Y016955D01*
X077824Y018887D02*
X077824Y019101D01*
X077717Y019207D01*
X077717Y019425D02*
X077824Y019532D01*
X077824Y019745D01*
X077717Y019852D01*
X077717Y020069D02*
X077824Y020176D01*
X077824Y020390D01*
X077717Y020496D01*
X077610Y020496D01*
X077503Y020390D01*
X077503Y020069D01*
X077717Y020069D01*
X077503Y020069D02*
X077290Y020283D01*
X077183Y020496D01*
X077503Y020714D02*
X077503Y021141D01*
X077290Y021358D02*
X077183Y021465D01*
X077183Y021679D01*
X077290Y021785D01*
X077397Y021785D01*
X077824Y021358D01*
X077824Y021785D01*
X077503Y022003D02*
X077503Y022430D01*
X077290Y022648D02*
X077183Y022754D01*
X077183Y022968D01*
X077290Y023075D01*
X077717Y022648D01*
X077824Y022754D01*
X077824Y022968D01*
X077717Y023075D01*
X077290Y023075D01*
X077183Y023292D02*
X077503Y023292D01*
X077397Y023506D01*
X077397Y023612D01*
X077503Y023719D01*
X077717Y023719D01*
X077824Y023612D01*
X077824Y023399D01*
X077717Y023292D01*
X077183Y023292D02*
X077183Y023719D01*
X077290Y023937D02*
X077183Y024043D01*
X077183Y024257D01*
X077290Y024364D01*
X077503Y024257D02*
X077610Y024364D01*
X077717Y024364D01*
X077824Y024257D01*
X077824Y024043D01*
X077717Y023937D01*
X077503Y024043D02*
X077503Y024257D01*
X077503Y024043D02*
X077397Y023937D01*
X077290Y023937D01*
X077183Y024581D02*
X077183Y025008D01*
X077503Y024795D02*
X077503Y024581D01*
X077183Y024581D02*
X077824Y024581D01*
X077503Y025226D02*
X077503Y025653D01*
X077503Y025870D02*
X077503Y026084D01*
X077183Y026297D02*
X077183Y025870D01*
X077824Y025870D01*
X077824Y026297D01*
X083922Y027505D02*
X083922Y029965D01*
X085284Y029965D01*
X085284Y027505D01*
X083922Y027505D01*
X091054Y025685D02*
X091056Y025752D01*
X091062Y025820D01*
X091072Y025887D01*
X091086Y025953D01*
X091103Y026018D01*
X091125Y026082D01*
X091150Y026145D01*
X091179Y026206D01*
X091211Y026265D01*
X091247Y026322D01*
X091286Y026377D01*
X091328Y026430D01*
X091373Y026480D01*
X091421Y026527D01*
X091472Y026572D01*
X091525Y026613D01*
X091581Y026652D01*
X091639Y026687D01*
X091699Y026718D01*
X091760Y026746D01*
X091823Y026770D01*
X091887Y026791D01*
X091953Y026807D01*
X092019Y026820D01*
X092086Y026829D01*
X092153Y026834D01*
X092221Y026835D01*
X092288Y026832D01*
X092355Y026825D01*
X092422Y026814D01*
X092488Y026799D01*
X092553Y026781D01*
X092617Y026758D01*
X092679Y026732D01*
X092740Y026703D01*
X092798Y026669D01*
X092855Y026633D01*
X092910Y026593D01*
X092962Y026550D01*
X093011Y026504D01*
X093058Y026455D01*
X093102Y026404D01*
X093142Y026350D01*
X093180Y026294D01*
X093214Y026235D01*
X093244Y026175D01*
X093271Y026113D01*
X093295Y026050D01*
X093314Y025985D01*
X093330Y025920D01*
X093342Y025853D01*
X093350Y025786D01*
X093354Y025719D01*
X093354Y025651D01*
X093350Y025584D01*
X093342Y025517D01*
X093330Y025450D01*
X093314Y025385D01*
X093295Y025320D01*
X093271Y025257D01*
X093244Y025195D01*
X093214Y025135D01*
X093180Y025076D01*
X093142Y025020D01*
X093102Y024966D01*
X093058Y024915D01*
X093011Y024866D01*
X092962Y024820D01*
X092910Y024777D01*
X092855Y024737D01*
X092798Y024701D01*
X092740Y024667D01*
X092679Y024638D01*
X092617Y024612D01*
X092553Y024589D01*
X092488Y024571D01*
X092422Y024556D01*
X092355Y024545D01*
X092288Y024538D01*
X092221Y024535D01*
X092153Y024536D01*
X092086Y024541D01*
X092019Y024550D01*
X091953Y024563D01*
X091887Y024579D01*
X091823Y024600D01*
X091760Y024624D01*
X091699Y024652D01*
X091639Y024683D01*
X091581Y024718D01*
X091525Y024757D01*
X091472Y024798D01*
X091421Y024843D01*
X091373Y024890D01*
X091328Y024940D01*
X091286Y024993D01*
X091247Y025048D01*
X091211Y025105D01*
X091179Y025164D01*
X091150Y025225D01*
X091125Y025288D01*
X091103Y025352D01*
X091086Y025417D01*
X091072Y025483D01*
X091062Y025550D01*
X091056Y025618D01*
X091054Y025685D01*
X083850Y022999D02*
X083743Y023105D01*
X083423Y023105D01*
X083423Y022465D01*
X083743Y022465D01*
X083850Y022572D01*
X083850Y022999D01*
X083205Y023105D02*
X083205Y022465D01*
X082778Y023105D01*
X082778Y022465D01*
X082561Y022572D02*
X082454Y022465D01*
X082240Y022465D01*
X082134Y022572D01*
X082134Y022999D01*
X082240Y023105D01*
X082454Y023105D01*
X082561Y022999D01*
X082561Y022785D02*
X082347Y022785D01*
X082561Y022785D02*
X082561Y022572D01*
X077824Y022323D02*
X077183Y022323D01*
X077503Y022003D01*
X077717Y022648D02*
X077290Y022648D01*
X077290Y019852D02*
X077183Y019745D01*
X077183Y019532D01*
X077290Y019425D01*
X077717Y019425D01*
X077290Y019207D02*
X077183Y019101D01*
X077183Y018887D01*
X077290Y018780D01*
X077717Y018780D01*
X077824Y018887D01*
X069304Y025685D02*
X069306Y025752D01*
X069312Y025820D01*
X069322Y025887D01*
X069336Y025953D01*
X069353Y026018D01*
X069375Y026082D01*
X069400Y026145D01*
X069429Y026206D01*
X069461Y026265D01*
X069497Y026322D01*
X069536Y026377D01*
X069578Y026430D01*
X069623Y026480D01*
X069671Y026527D01*
X069722Y026572D01*
X069775Y026613D01*
X069831Y026652D01*
X069889Y026687D01*
X069949Y026718D01*
X070010Y026746D01*
X070073Y026770D01*
X070137Y026791D01*
X070203Y026807D01*
X070269Y026820D01*
X070336Y026829D01*
X070403Y026834D01*
X070471Y026835D01*
X070538Y026832D01*
X070605Y026825D01*
X070672Y026814D01*
X070738Y026799D01*
X070803Y026781D01*
X070867Y026758D01*
X070929Y026732D01*
X070990Y026703D01*
X071048Y026669D01*
X071105Y026633D01*
X071160Y026593D01*
X071212Y026550D01*
X071261Y026504D01*
X071308Y026455D01*
X071352Y026404D01*
X071392Y026350D01*
X071430Y026294D01*
X071464Y026235D01*
X071494Y026175D01*
X071521Y026113D01*
X071545Y026050D01*
X071564Y025985D01*
X071580Y025920D01*
X071592Y025853D01*
X071600Y025786D01*
X071604Y025719D01*
X071604Y025651D01*
X071600Y025584D01*
X071592Y025517D01*
X071580Y025450D01*
X071564Y025385D01*
X071545Y025320D01*
X071521Y025257D01*
X071494Y025195D01*
X071464Y025135D01*
X071430Y025076D01*
X071392Y025020D01*
X071352Y024966D01*
X071308Y024915D01*
X071261Y024866D01*
X071212Y024820D01*
X071160Y024777D01*
X071105Y024737D01*
X071048Y024701D01*
X070990Y024667D01*
X070929Y024638D01*
X070867Y024612D01*
X070803Y024589D01*
X070738Y024571D01*
X070672Y024556D01*
X070605Y024545D01*
X070538Y024538D01*
X070471Y024535D01*
X070403Y024536D01*
X070336Y024541D01*
X070269Y024550D01*
X070203Y024563D01*
X070137Y024579D01*
X070073Y024600D01*
X070010Y024624D01*
X069949Y024652D01*
X069889Y024683D01*
X069831Y024718D01*
X069775Y024757D01*
X069722Y024798D01*
X069671Y024843D01*
X069623Y024890D01*
X069578Y024940D01*
X069536Y024993D01*
X069497Y025048D01*
X069461Y025105D01*
X069429Y025164D01*
X069400Y025225D01*
X069375Y025288D01*
X069353Y025352D01*
X069336Y025417D01*
X069322Y025483D01*
X069312Y025550D01*
X069306Y025618D01*
X069304Y025685D01*
X069590Y028215D02*
X069804Y028215D01*
X069911Y028322D01*
X069911Y028535D01*
X069697Y028535D01*
X069484Y028322D02*
X069590Y028215D01*
X069484Y028322D02*
X069484Y028749D01*
X069590Y028855D01*
X069804Y028855D01*
X069911Y028749D01*
X070128Y028855D02*
X070555Y028215D01*
X070555Y028855D01*
X070773Y028855D02*
X071093Y028855D01*
X071200Y028749D01*
X071200Y028322D01*
X071093Y028215D01*
X070773Y028215D01*
X070773Y028855D01*
X070128Y028855D02*
X070128Y028215D01*
X069911Y029715D02*
X069484Y029715D01*
X069911Y030142D01*
X069911Y030249D01*
X069804Y030355D01*
X069590Y030355D01*
X069484Y030249D01*
X070128Y030035D02*
X070555Y030035D01*
X070773Y029928D02*
X070986Y029715D01*
X071200Y029928D01*
X071200Y030355D01*
X070773Y030355D02*
X070773Y029928D01*
X070448Y029715D02*
X070448Y030355D01*
X070128Y030035D01*
X030466Y006635D02*
X030350Y006751D01*
X030005Y006751D01*
X030005Y006060D01*
X029775Y006060D02*
X029315Y006060D01*
X029315Y006751D01*
X029775Y006751D01*
X029545Y006405D02*
X029315Y006405D01*
X029084Y006290D02*
X028969Y006405D01*
X028739Y006405D01*
X028624Y006520D01*
X028624Y006635D01*
X028739Y006751D01*
X028969Y006751D01*
X029084Y006635D01*
X029084Y006290D02*
X029084Y006175D01*
X028969Y006060D01*
X028739Y006060D01*
X028624Y006175D01*
X028394Y006175D02*
X028394Y006751D01*
X027934Y006751D02*
X027934Y006175D01*
X028049Y006060D01*
X028279Y006060D01*
X028394Y006175D01*
X030005Y006290D02*
X030350Y006290D01*
X030466Y006405D01*
X030466Y006635D01*
X030235Y006290D02*
X030466Y006060D01*
D11*
X020492Y003905D02*
X019839Y003905D01*
X020329Y004396D01*
X020329Y003415D01*
X016742Y003578D02*
X016579Y003415D01*
X016252Y003415D01*
X016089Y003578D01*
X016415Y003905D02*
X016579Y003905D01*
X016742Y003742D01*
X016742Y003578D01*
X016579Y003905D02*
X016742Y004069D01*
X016742Y004232D01*
X016579Y004396D01*
X016252Y004396D01*
X016089Y004232D01*
X013492Y004232D02*
X013492Y004069D01*
X012839Y003415D01*
X013492Y003415D01*
X013492Y004232D02*
X013329Y004396D01*
X013002Y004396D01*
X012839Y004232D01*
X009892Y003360D02*
X009239Y003360D01*
X009565Y003360D02*
X009565Y004341D01*
X009239Y004014D01*
X056479Y018703D02*
X056642Y018540D01*
X056969Y018540D01*
X057132Y018703D01*
X057132Y018867D01*
X056969Y019030D01*
X056805Y019030D01*
X056969Y019030D02*
X057132Y019194D01*
X057132Y019357D01*
X056969Y019521D01*
X056642Y019521D01*
X056479Y019357D01*
X056479Y020215D02*
X057132Y020869D01*
X057132Y021032D01*
X056969Y021196D01*
X056642Y021196D01*
X056479Y021032D01*
X056479Y020215D02*
X057132Y020215D01*
X057132Y021990D02*
X056479Y021990D01*
X056805Y021990D02*
X056805Y022971D01*
X056479Y022644D01*
X068165Y004001D02*
X068165Y003020D01*
X067839Y003020D02*
X068492Y003020D01*
X067839Y003674D02*
X068165Y004001D01*
X071339Y003887D02*
X071502Y004051D01*
X071829Y004051D01*
X071992Y003887D01*
X071992Y003724D01*
X071339Y003070D01*
X071992Y003070D01*
X074889Y003233D02*
X075052Y003070D01*
X075379Y003070D01*
X075542Y003233D01*
X075542Y003397D01*
X075379Y003560D01*
X075215Y003560D01*
X075379Y003560D02*
X075542Y003724D01*
X075542Y003887D01*
X075379Y004051D01*
X075052Y004051D01*
X074889Y003887D01*
X078289Y003610D02*
X078942Y003610D01*
X078779Y003120D02*
X078779Y004101D01*
X078289Y003610D01*
D12*
X079874Y003639D02*
X079950Y003715D01*
X080104Y003715D01*
X080180Y003639D01*
X080180Y003562D01*
X079874Y003255D01*
X080180Y003255D01*
X080334Y003255D02*
X080411Y003255D01*
X080411Y003332D01*
X080334Y003332D01*
X080334Y003255D01*
X080564Y003255D02*
X080871Y003562D01*
X080871Y003639D01*
X080794Y003715D01*
X080641Y003715D01*
X080564Y003639D01*
X080564Y003255D02*
X080871Y003255D01*
X081024Y003255D02*
X081024Y003715D01*
X081255Y003562D02*
X081024Y003408D01*
X081255Y003255D01*
X083923Y003226D02*
X084384Y003226D01*
X084230Y003226D02*
X084077Y003456D01*
X084230Y003226D02*
X084384Y003456D01*
X084307Y003072D02*
X084000Y003072D01*
X084307Y002765D01*
X084384Y002842D01*
X084384Y002995D01*
X084307Y003072D01*
X084307Y002765D02*
X084000Y002765D01*
X083923Y002842D01*
X083923Y002995D01*
X084000Y003072D01*
X084384Y002612D02*
X084384Y002305D01*
X084384Y002458D02*
X083923Y002458D01*
X084077Y002305D01*
X085723Y002251D02*
X085723Y001944D01*
X086184Y001944D01*
X086184Y001791D02*
X085877Y001791D01*
X085953Y001944D02*
X085953Y002098D01*
X086184Y001791D02*
X086184Y001561D01*
X086107Y001484D01*
X085877Y001484D01*
X085800Y001331D02*
X086107Y001024D01*
X086184Y001100D01*
X086184Y001254D01*
X086107Y001331D01*
X085800Y001331D01*
X085723Y001254D01*
X085723Y001100D01*
X085800Y001024D01*
X086107Y001024D01*
X086184Y000870D02*
X086184Y000563D01*
X086184Y000717D02*
X085723Y000717D01*
X085877Y000563D01*
X086773Y000640D02*
X086773Y000794D01*
X086850Y000870D01*
X087157Y000563D01*
X087234Y000640D01*
X087234Y000794D01*
X087157Y000870D01*
X086850Y000870D01*
X086927Y001024D02*
X086773Y001177D01*
X087234Y001177D01*
X087234Y001024D02*
X087234Y001331D01*
X087157Y001484D02*
X087234Y001561D01*
X087234Y001791D01*
X086927Y001791D01*
X087003Y001944D02*
X087003Y002098D01*
X086773Y001944D02*
X086773Y002251D01*
X086773Y001944D02*
X087234Y001944D01*
X087723Y001944D02*
X087723Y002251D01*
X087953Y002098D02*
X087953Y001944D01*
X087877Y001791D02*
X088184Y001791D01*
X088184Y001561D01*
X088107Y001484D01*
X087877Y001484D01*
X088184Y001331D02*
X088184Y001024D01*
X088184Y001177D02*
X087723Y001177D01*
X087877Y001024D01*
X088107Y000870D02*
X088184Y000870D01*
X088184Y000794D01*
X088107Y000794D01*
X088107Y000870D01*
X087234Y000410D02*
X087234Y000333D01*
X087157Y000333D01*
X087157Y000410D01*
X087234Y000410D01*
X087157Y000563D02*
X086850Y000563D01*
X086773Y000640D01*
X086927Y001484D02*
X087157Y001484D01*
X087723Y001944D02*
X088184Y001944D01*
X091123Y003047D02*
X091200Y002970D01*
X091123Y003047D02*
X091123Y003201D01*
X091200Y003277D01*
X091277Y003277D01*
X091584Y002970D01*
X091584Y003277D01*
X091584Y003431D02*
X091584Y003507D01*
X091507Y003507D01*
X091507Y003431D01*
X091584Y003431D01*
X091584Y003661D02*
X091277Y003968D01*
X091200Y003968D01*
X091123Y003891D01*
X091123Y003738D01*
X091200Y003661D01*
X091584Y003661D02*
X091584Y003968D01*
X091584Y004121D02*
X091123Y004121D01*
X091277Y004351D02*
X091430Y004121D01*
X091584Y004351D01*
X090584Y004844D02*
X090584Y004920D01*
X090507Y004920D01*
X090507Y004844D01*
X090584Y004844D01*
X090584Y005074D02*
X090584Y005381D01*
X090584Y005227D02*
X090123Y005227D01*
X090277Y005074D01*
X089334Y004994D02*
X089334Y004840D01*
X089257Y004763D01*
X088950Y005070D01*
X089257Y005070D01*
X089334Y004994D01*
X089334Y005224D02*
X089334Y005531D01*
X089334Y005377D02*
X088873Y005377D01*
X089027Y005224D01*
X088950Y005070D02*
X088873Y004994D01*
X088873Y004840D01*
X088950Y004763D01*
X089257Y004763D01*
X089257Y004610D02*
X089334Y004610D01*
X089334Y004533D01*
X089257Y004533D01*
X089257Y004610D01*
X089257Y005684D02*
X089334Y005761D01*
X089334Y005991D01*
X089027Y005991D01*
X089103Y006144D02*
X089103Y006298D01*
X088873Y006144D02*
X088873Y006451D01*
X088873Y006144D02*
X089334Y006144D01*
X090123Y005994D02*
X090123Y006301D01*
X090353Y006148D02*
X090353Y005994D01*
X090277Y005841D02*
X090584Y005841D01*
X090584Y005611D01*
X090507Y005534D01*
X090277Y005534D01*
X090123Y005994D02*
X090584Y005994D01*
X089257Y005684D02*
X089027Y005684D01*
X079184Y007533D02*
X079184Y007610D01*
X079107Y007610D01*
X079107Y007533D01*
X079184Y007533D01*
X079107Y007763D02*
X078800Y008070D01*
X079107Y008070D01*
X079184Y007994D01*
X079184Y007840D01*
X079107Y007763D01*
X078800Y007763D01*
X078723Y007840D01*
X078723Y007994D01*
X078800Y008070D01*
X078877Y008224D02*
X078723Y008377D01*
X079184Y008377D01*
X079184Y008224D02*
X079184Y008531D01*
X079107Y008684D02*
X079184Y008761D01*
X079184Y008991D01*
X078877Y008991D01*
X078953Y009144D02*
X078953Y009298D01*
X078723Y009144D02*
X078723Y009451D01*
X078723Y009144D02*
X079184Y009144D01*
X079107Y008684D02*
X078877Y008684D01*
X078084Y008641D02*
X078084Y008411D01*
X078007Y008334D01*
X077777Y008334D01*
X077777Y008641D02*
X078084Y008641D01*
X078084Y008794D02*
X077623Y008794D01*
X077623Y009101D01*
X077853Y008948D02*
X077853Y008794D01*
X078084Y008181D02*
X078084Y007874D01*
X078084Y008027D02*
X077623Y008027D01*
X077777Y007874D01*
X078007Y007720D02*
X078084Y007720D01*
X078084Y007644D01*
X078007Y007644D01*
X078007Y007720D01*
X081174Y009405D02*
X081250Y009405D01*
X081250Y009482D01*
X081174Y009482D01*
X081174Y009405D01*
X081404Y009405D02*
X081711Y009405D01*
X081557Y009405D02*
X081557Y009865D01*
X081404Y009712D01*
X081864Y009712D02*
X081864Y009482D01*
X081941Y009405D01*
X082171Y009405D01*
X082171Y009712D01*
X082324Y009635D02*
X082478Y009635D01*
X082324Y009405D02*
X082324Y009865D01*
X082631Y009865D01*
X085094Y010675D02*
X085170Y010675D01*
X085170Y010752D01*
X085094Y010752D01*
X085094Y010675D01*
X085324Y010752D02*
X085631Y011059D01*
X085631Y010752D01*
X085554Y010675D01*
X085400Y010675D01*
X085324Y010752D01*
X085324Y011059D01*
X085400Y011135D01*
X085554Y011135D01*
X085631Y011059D01*
X085784Y010982D02*
X085937Y011135D01*
X085937Y010675D01*
X085784Y010675D02*
X086091Y010675D01*
X086244Y010752D02*
X086321Y010675D01*
X086551Y010675D01*
X086551Y010982D01*
X086705Y010905D02*
X086858Y010905D01*
X086705Y010675D02*
X086705Y011135D01*
X087012Y011135D01*
X086244Y010982D02*
X086244Y010752D01*
X083984Y011244D02*
X083984Y011320D01*
X083907Y011320D01*
X083907Y011244D01*
X083984Y011244D01*
X083984Y011474D02*
X083984Y011781D01*
X083984Y011627D02*
X083523Y011627D01*
X083677Y011474D01*
X083677Y011934D02*
X083907Y011934D01*
X083984Y012011D01*
X083984Y012241D01*
X083677Y012241D01*
X083753Y012394D02*
X083753Y012548D01*
X083523Y012394D02*
X083523Y012701D01*
X083523Y012394D02*
X083984Y012394D01*
X085224Y011832D02*
X085300Y011832D01*
X085300Y011755D01*
X085224Y011755D01*
X085224Y011832D01*
X085454Y011755D02*
X085761Y011755D01*
X085607Y011755D02*
X085607Y012215D01*
X085454Y012062D01*
X085914Y012062D02*
X085914Y011832D01*
X085991Y011755D01*
X086221Y011755D01*
X086221Y012062D01*
X086374Y011985D02*
X086528Y011985D01*
X086374Y011755D02*
X086374Y012215D01*
X086681Y012215D01*
X086555Y013205D02*
X086555Y013665D01*
X086861Y013665D01*
X086708Y013435D02*
X086555Y013435D01*
X086401Y013512D02*
X086401Y013205D01*
X086171Y013205D01*
X086094Y013282D01*
X086094Y013512D01*
X085941Y013589D02*
X085634Y013282D01*
X085711Y013205D01*
X085864Y013205D01*
X085941Y013282D01*
X085941Y013589D01*
X085864Y013665D01*
X085711Y013665D01*
X085634Y013589D01*
X085634Y013282D01*
X085480Y013205D02*
X085174Y013205D01*
X085327Y013205D02*
X085327Y013665D01*
X085174Y013512D01*
X084338Y014235D02*
X084185Y014235D01*
X084031Y014235D02*
X083955Y014312D01*
X083724Y014312D01*
X083724Y014005D01*
X083571Y014005D02*
X083264Y014005D01*
X083571Y014312D01*
X083571Y014389D01*
X083494Y014465D01*
X083341Y014465D01*
X083264Y014389D01*
X083111Y014082D02*
X083111Y014005D01*
X083034Y014005D01*
X083034Y014082D01*
X083111Y014082D01*
X082880Y014005D02*
X082574Y014005D01*
X082880Y014312D01*
X082880Y014389D01*
X082804Y014465D01*
X082650Y014465D01*
X082574Y014389D01*
X084031Y014235D02*
X084031Y014005D01*
X084185Y014005D02*
X084185Y014465D01*
X084492Y014465D01*
X081764Y015305D02*
X081534Y015458D01*
X081764Y015612D01*
X081534Y015765D02*
X081534Y015305D01*
X081380Y015305D02*
X081074Y015305D01*
X081227Y015305D02*
X081227Y015765D01*
X081074Y015612D01*
X080764Y015612D02*
X080534Y015458D01*
X080764Y015305D01*
X080534Y015305D02*
X080534Y015765D01*
X080227Y015765D02*
X080227Y015305D01*
X080074Y015305D02*
X080380Y015305D01*
X080074Y015612D02*
X080227Y015765D01*
X084673Y017167D02*
X084827Y017013D01*
X084673Y017167D02*
X085134Y017167D01*
X085134Y017320D02*
X085134Y017013D01*
X085134Y017474D02*
X085134Y017781D01*
X085134Y017934D02*
X085134Y018241D01*
X085134Y018088D02*
X084673Y018088D01*
X084827Y017934D01*
X084673Y017627D02*
X085134Y017627D01*
X084827Y017474D02*
X084673Y017627D01*
X084673Y018394D02*
X084673Y018701D01*
X084750Y018701D01*
X085057Y018394D01*
X085134Y018394D01*
X089723Y016601D02*
X089723Y016294D01*
X090184Y016294D01*
X090184Y016141D02*
X089877Y016141D01*
X089953Y016294D02*
X089953Y016448D01*
X090184Y016141D02*
X090184Y015911D01*
X090107Y015834D01*
X089877Y015834D01*
X089800Y015681D02*
X090107Y015374D01*
X090184Y015450D01*
X090184Y015604D01*
X090107Y015681D01*
X089800Y015681D01*
X089723Y015604D01*
X089723Y015450D01*
X089800Y015374D01*
X090107Y015374D01*
X090184Y015220D02*
X090184Y014913D01*
X090184Y015067D02*
X089723Y015067D01*
X089877Y014913D01*
X090873Y014627D02*
X091334Y014627D01*
X091334Y014474D02*
X091334Y014781D01*
X091257Y014934D02*
X091334Y015011D01*
X091334Y015241D01*
X091027Y015241D01*
X091103Y015394D02*
X091103Y015548D01*
X090873Y015394D02*
X090873Y015701D01*
X090873Y015394D02*
X091334Y015394D01*
X091257Y014934D02*
X091027Y014934D01*
X090873Y014627D02*
X091027Y014474D01*
X091257Y014320D02*
X091334Y014320D01*
X091334Y014244D01*
X091257Y014244D01*
X091257Y014320D01*
X093774Y014732D02*
X093850Y014655D01*
X094004Y014655D01*
X094080Y014732D01*
X094080Y014885D01*
X094004Y014962D01*
X093927Y014962D01*
X093774Y014885D01*
X093774Y015115D01*
X094080Y015115D01*
X094234Y014732D02*
X094311Y014732D01*
X094311Y014655D01*
X094234Y014655D01*
X094234Y014732D01*
X094464Y014655D02*
X094771Y014655D01*
X094617Y014655D02*
X094617Y015115D01*
X094464Y014962D01*
X094623Y016800D02*
X094623Y017030D01*
X094700Y017106D01*
X094777Y017106D01*
X094853Y017030D01*
X094853Y016800D01*
X094853Y017030D02*
X094930Y017106D01*
X095007Y017106D01*
X095084Y017030D01*
X095084Y016800D01*
X094623Y016800D01*
X095423Y016746D02*
X095577Y016900D01*
X095423Y017053D01*
X095884Y017053D01*
X095807Y017206D02*
X095730Y017283D01*
X095730Y017513D01*
X095653Y017513D02*
X095884Y017513D01*
X095884Y017283D01*
X095807Y017206D01*
X095577Y017283D02*
X095577Y017437D01*
X095653Y017513D01*
X095653Y017667D02*
X095807Y017667D01*
X095884Y017744D01*
X095884Y017974D01*
X095960Y017974D02*
X095577Y017974D01*
X095577Y017744D01*
X095653Y017667D01*
X096037Y017820D02*
X096037Y017897D01*
X095960Y017974D01*
X095884Y018127D02*
X095577Y018127D01*
X095577Y018357D01*
X095653Y018434D01*
X095884Y018434D01*
X095807Y018588D02*
X095884Y018664D01*
X095884Y018818D01*
X095730Y018894D02*
X095730Y018588D01*
X095653Y018588D02*
X095577Y018664D01*
X095577Y018818D01*
X095653Y018894D01*
X095730Y018894D01*
X095577Y019048D02*
X095577Y019201D01*
X095500Y019125D02*
X095807Y019125D01*
X095884Y019201D01*
X095084Y019101D02*
X094853Y019101D01*
X094777Y019025D01*
X094853Y018948D01*
X095084Y018948D01*
X095084Y018794D02*
X094777Y018794D01*
X094777Y018871D01*
X094853Y018948D01*
X094853Y018641D02*
X094777Y018564D01*
X094777Y018411D01*
X094853Y018334D01*
X095007Y018334D01*
X095084Y018411D01*
X095084Y018564D01*
X095007Y018641D01*
X094853Y018641D01*
X094777Y018181D02*
X094777Y018027D01*
X094700Y018104D02*
X095007Y018104D01*
X095084Y018181D01*
X095084Y017874D02*
X095007Y017797D01*
X094700Y017797D01*
X094777Y017720D02*
X094777Y017874D01*
X094853Y017567D02*
X094777Y017490D01*
X094777Y017337D01*
X094853Y017260D01*
X095007Y017260D01*
X095084Y017337D01*
X095084Y017490D01*
X095007Y017567D01*
X094853Y017567D01*
X093430Y017885D02*
X093124Y017885D01*
X093277Y017732D02*
X093277Y018039D01*
X093430Y018405D02*
X093430Y018712D01*
X093277Y018865D01*
X093124Y018712D01*
X093124Y018405D01*
X093124Y018635D02*
X093430Y018635D01*
X095653Y018588D02*
X095807Y018588D01*
X093430Y019378D02*
X093124Y019378D01*
X090624Y021105D02*
X090624Y021565D01*
X090931Y021565D01*
X090778Y021335D02*
X090624Y021335D01*
X090471Y021412D02*
X090471Y021105D01*
X090241Y021105D01*
X090164Y021182D01*
X090164Y021412D01*
X089857Y021565D02*
X089857Y021105D01*
X089704Y021105D02*
X090011Y021105D01*
X089704Y021412D02*
X089857Y021565D01*
X089550Y021182D02*
X089550Y021105D01*
X089474Y021105D01*
X089474Y021182D01*
X089550Y021182D01*
X087434Y023905D02*
X087434Y023973D01*
X087365Y023973D01*
X087365Y023905D01*
X087434Y023905D01*
X087434Y024112D02*
X087434Y024385D01*
X087434Y024249D02*
X087023Y024249D01*
X087160Y024112D01*
X087160Y024526D02*
X087365Y024526D01*
X087434Y024595D01*
X087434Y024800D01*
X087160Y024800D01*
X087228Y024941D02*
X087228Y025077D01*
X087023Y024941D02*
X087023Y025214D01*
X087023Y024941D02*
X087434Y024941D01*
X087234Y025905D02*
X087234Y025973D01*
X087165Y025973D01*
X087165Y025905D01*
X087234Y025905D01*
X087234Y026112D02*
X087234Y026385D01*
X087234Y026249D02*
X086823Y026249D01*
X086960Y026112D01*
X086960Y026526D02*
X087165Y026526D01*
X087234Y026595D01*
X087234Y026800D01*
X086960Y026800D01*
X087028Y026941D02*
X087028Y027077D01*
X086823Y026941D02*
X086823Y027214D01*
X086823Y026941D02*
X087234Y026941D01*
X088623Y026880D02*
X088623Y027017D01*
X088692Y027085D01*
X088965Y026812D01*
X089034Y026880D01*
X089034Y027017D01*
X088965Y027085D01*
X088692Y027085D01*
X088760Y027226D02*
X088965Y027226D01*
X089034Y027295D01*
X089034Y027500D01*
X088760Y027500D01*
X088828Y027641D02*
X088828Y027777D01*
X088623Y027641D02*
X088623Y027914D01*
X088623Y027641D02*
X089034Y027641D01*
X088965Y026812D02*
X088692Y026812D01*
X088623Y026880D01*
X088623Y026534D02*
X089034Y026534D01*
X089034Y026398D02*
X089034Y026671D01*
X088760Y026398D02*
X088623Y026534D01*
X093874Y027355D02*
X093874Y027815D01*
X094027Y027662D01*
X094180Y027815D01*
X094180Y027355D01*
X094334Y027432D02*
X094411Y027508D01*
X094641Y027508D01*
X094641Y027585D02*
X094641Y027355D01*
X094411Y027355D01*
X094334Y027432D01*
X094411Y027662D02*
X094564Y027662D01*
X094641Y027585D01*
X094794Y027585D02*
X094794Y027432D01*
X094871Y027355D01*
X095101Y027355D01*
X095101Y027278D02*
X095101Y027662D01*
X094871Y027662D01*
X094794Y027585D01*
X094948Y027202D02*
X095024Y027202D01*
X095101Y027278D01*
X095255Y027355D02*
X095255Y027662D01*
X095485Y027662D01*
X095561Y027585D01*
X095561Y027355D01*
X095715Y027432D02*
X095715Y027585D01*
X095792Y027662D01*
X095945Y027662D01*
X096022Y027585D01*
X096022Y027508D01*
X095715Y027508D01*
X095715Y027432D02*
X095792Y027355D01*
X095945Y027355D01*
X096252Y027432D02*
X096329Y027355D01*
X096252Y027432D02*
X096252Y027739D01*
X096175Y027662D02*
X096329Y027662D01*
X096505Y027165D02*
X096582Y027165D01*
X096582Y026705D01*
X096505Y026705D02*
X096659Y026705D01*
X096352Y026782D02*
X096352Y026935D01*
X096275Y027012D01*
X096122Y027012D01*
X096045Y026935D01*
X096045Y026782D01*
X096122Y026705D01*
X096275Y026705D01*
X096352Y026782D01*
X095892Y027012D02*
X095815Y027012D01*
X095661Y026858D01*
X095661Y026705D02*
X095661Y027012D01*
X095508Y027012D02*
X095355Y027012D01*
X095431Y027089D02*
X095431Y026782D01*
X095508Y026705D01*
X095201Y026705D02*
X095201Y026935D01*
X095124Y027012D01*
X094894Y027012D01*
X094894Y026705D01*
X094741Y026782D02*
X094741Y026935D01*
X094664Y027012D01*
X094511Y027012D01*
X094434Y026935D01*
X094434Y026782D01*
X094511Y026705D01*
X094664Y026705D01*
X094741Y026782D01*
X094280Y026782D02*
X094204Y026705D01*
X094050Y026705D01*
X093974Y026782D01*
X093974Y027089D01*
X094050Y027165D01*
X094204Y027165D01*
X094280Y027089D01*
X092934Y028626D02*
X092934Y028900D01*
X092934Y028763D02*
X092523Y028763D01*
X092660Y028626D01*
X092384Y028626D02*
X092384Y028900D01*
X092315Y029041D02*
X092384Y029109D01*
X092384Y029246D01*
X092315Y029314D01*
X092247Y029314D01*
X092178Y029246D01*
X092178Y029109D01*
X092110Y029041D01*
X092042Y029041D01*
X091973Y029109D01*
X091973Y029246D01*
X092042Y029314D01*
X091973Y028900D02*
X091973Y028626D01*
X092384Y028626D01*
X092178Y028626D02*
X092178Y028763D01*
X092523Y029041D02*
X092523Y029246D01*
X092592Y029314D01*
X092660Y029314D01*
X092728Y029246D01*
X092728Y029041D01*
X092523Y029041D02*
X092934Y029041D01*
X092934Y029246D01*
X092865Y029314D01*
X092797Y029314D01*
X092728Y029246D01*
X082734Y029144D02*
X082657Y029144D01*
X082350Y029451D01*
X082273Y029451D01*
X082273Y029144D01*
X082350Y028991D02*
X082427Y028991D01*
X082503Y028914D01*
X082580Y028991D01*
X082657Y028991D01*
X082734Y028914D01*
X082734Y028761D01*
X082657Y028684D01*
X082657Y028531D02*
X082350Y028531D01*
X082273Y028454D01*
X082273Y028300D01*
X082350Y028224D01*
X082427Y028224D01*
X082503Y028300D01*
X082503Y028531D01*
X082657Y028531D02*
X082734Y028454D01*
X082734Y028300D01*
X082657Y028224D01*
X082734Y028070D02*
X082734Y027763D01*
X082427Y028070D01*
X082350Y028070D01*
X082273Y027994D01*
X082273Y027840D01*
X082350Y027763D01*
X082350Y028684D02*
X082273Y028761D01*
X082273Y028914D01*
X082350Y028991D01*
X082503Y028914D02*
X082503Y028838D01*
X070481Y021565D02*
X070481Y021258D01*
X070328Y021105D01*
X070174Y021258D01*
X070174Y021565D01*
X070021Y021489D02*
X070021Y021412D01*
X069944Y021335D01*
X070021Y021258D01*
X070021Y021182D01*
X069944Y021105D01*
X069791Y021105D01*
X069714Y021182D01*
X069561Y021182D02*
X069561Y021105D01*
X069484Y021105D01*
X069484Y021182D01*
X069561Y021182D01*
X069330Y021182D02*
X069330Y021258D01*
X069254Y021335D01*
X069177Y021335D01*
X069254Y021335D02*
X069330Y021412D01*
X069330Y021489D01*
X069254Y021565D01*
X069100Y021565D01*
X069024Y021489D01*
X069024Y021182D02*
X069100Y021105D01*
X069254Y021105D01*
X069330Y021182D01*
X069254Y020765D02*
X069330Y020689D01*
X069330Y020535D01*
X069254Y020458D01*
X069024Y020458D01*
X069177Y020458D02*
X069330Y020305D01*
X069484Y020305D02*
X069791Y020765D01*
X069484Y020765D02*
X069791Y020305D01*
X069254Y020765D02*
X069024Y020765D01*
X069024Y020305D01*
X069024Y019965D02*
X069330Y019965D01*
X069177Y019965D02*
X069177Y019505D01*
X069100Y019265D02*
X069024Y019189D01*
X069024Y018882D01*
X069100Y018805D01*
X069254Y018805D01*
X069330Y018882D01*
X069330Y019035D01*
X069177Y019035D01*
X069330Y019189D02*
X069254Y019265D01*
X069100Y019265D01*
X069484Y019265D02*
X069791Y018805D01*
X069791Y019265D01*
X069944Y019265D02*
X070174Y019265D01*
X070251Y019189D01*
X070251Y018882D01*
X070174Y018805D01*
X069944Y018805D01*
X069944Y019265D01*
X069791Y019505D02*
X069484Y019965D01*
X069791Y019965D02*
X069484Y019505D01*
X069484Y019265D02*
X069484Y018805D01*
X074924Y017732D02*
X075000Y017732D01*
X075000Y017655D01*
X074924Y017655D01*
X074924Y017732D01*
X075154Y017655D02*
X075461Y017655D01*
X075307Y017655D02*
X075307Y018115D01*
X075154Y017962D01*
X075614Y017962D02*
X075614Y017732D01*
X075691Y017655D01*
X075921Y017655D01*
X075921Y017962D01*
X076074Y017885D02*
X076228Y017885D01*
X076074Y017655D02*
X076074Y018115D01*
X076381Y018115D01*
X078674Y017582D02*
X078750Y017582D01*
X078750Y017505D01*
X078674Y017505D01*
X078674Y017582D01*
X078904Y017505D02*
X079211Y017505D01*
X079057Y017505D02*
X079057Y017965D01*
X078904Y017812D01*
X079364Y017812D02*
X079364Y017582D01*
X079441Y017505D01*
X079671Y017505D01*
X079671Y017812D01*
X079824Y017735D02*
X079978Y017735D01*
X079824Y017505D02*
X079824Y017965D01*
X080131Y017965D01*
X070021Y021489D02*
X069944Y021565D01*
X069791Y021565D01*
X069714Y021489D01*
X069867Y021335D02*
X069944Y021335D01*
X060151Y017234D02*
X060074Y017310D01*
X059844Y017310D01*
X059844Y016850D01*
X060074Y016850D01*
X060151Y016927D01*
X060151Y017234D01*
X059691Y017310D02*
X059691Y016850D01*
X059384Y017310D01*
X059384Y016850D01*
X059230Y016927D02*
X059230Y017080D01*
X059077Y017080D01*
X059230Y016927D02*
X059154Y016850D01*
X059000Y016850D01*
X058924Y016927D01*
X058924Y017234D01*
X059000Y017310D01*
X059154Y017310D01*
X059230Y017234D01*
X059154Y016560D02*
X059000Y016560D01*
X058924Y016484D01*
X059154Y016560D02*
X059230Y016484D01*
X059230Y016407D01*
X058924Y016100D01*
X059230Y016100D01*
X059384Y016330D02*
X059691Y016330D01*
X059844Y016253D02*
X059998Y016100D01*
X060151Y016253D01*
X060151Y016560D01*
X059844Y016560D02*
X059844Y016253D01*
X059614Y016100D02*
X059614Y016560D01*
X059384Y016330D01*
X059364Y014410D02*
X059440Y014334D01*
X059440Y014257D01*
X059364Y014180D01*
X059440Y014103D01*
X059440Y014027D01*
X059364Y013950D01*
X059210Y013950D01*
X059134Y014027D01*
X059287Y014180D02*
X059364Y014180D01*
X059364Y014410D02*
X059210Y014410D01*
X059134Y014334D01*
X059594Y014027D02*
X059671Y014027D01*
X059671Y013950D01*
X059594Y013950D01*
X059594Y014027D01*
X059824Y014027D02*
X059901Y013950D01*
X060054Y013950D01*
X060131Y014027D01*
X060131Y014103D01*
X060054Y014180D01*
X059977Y014180D01*
X060054Y014180D02*
X060131Y014257D01*
X060131Y014334D01*
X060054Y014410D01*
X059901Y014410D01*
X059824Y014334D01*
X060284Y014410D02*
X060284Y014103D01*
X060438Y013950D01*
X060591Y014103D01*
X060591Y014410D01*
X058634Y013746D02*
X058634Y013516D01*
X058557Y013439D01*
X058403Y013439D01*
X058327Y013516D01*
X058327Y013746D01*
X058173Y013746D02*
X058634Y013746D01*
X059124Y013610D02*
X059354Y013610D01*
X059430Y013534D01*
X059430Y013380D01*
X059354Y013303D01*
X059124Y013303D01*
X059277Y013303D02*
X059430Y013150D01*
X059584Y013150D02*
X059891Y013610D01*
X059584Y013610D02*
X059891Y013150D01*
X059886Y012810D02*
X059579Y012350D01*
X059584Y012110D02*
X059891Y011650D01*
X059891Y012110D01*
X060044Y012110D02*
X060274Y012110D01*
X060351Y012034D01*
X060351Y011727D01*
X060274Y011650D01*
X060044Y011650D01*
X060044Y012110D01*
X059886Y012350D02*
X059579Y012810D01*
X059425Y012810D02*
X059119Y012810D01*
X059272Y012810D02*
X059272Y012350D01*
X059200Y012110D02*
X059124Y012034D01*
X059124Y011727D01*
X059200Y011650D01*
X059354Y011650D01*
X059430Y011727D01*
X059430Y011880D01*
X059277Y011880D01*
X059430Y012034D02*
X059354Y012110D01*
X059200Y012110D01*
X059584Y012110D02*
X059584Y011650D01*
X058634Y011675D02*
X058634Y011905D01*
X058557Y011982D01*
X058480Y011982D01*
X058403Y011905D01*
X058403Y011675D01*
X058173Y011675D02*
X058173Y011905D01*
X058250Y011982D01*
X058327Y011982D01*
X058403Y011905D01*
X058403Y012135D02*
X058557Y012135D01*
X058634Y012212D01*
X058634Y012365D01*
X058557Y012442D01*
X058403Y012442D01*
X058327Y012365D01*
X058327Y012212D01*
X058403Y012135D01*
X058034Y012008D02*
X057957Y012085D01*
X057650Y012085D01*
X057573Y012008D01*
X057573Y011855D01*
X057650Y011778D01*
X057957Y011778D01*
X058034Y011855D01*
X058034Y012008D01*
X057957Y012315D02*
X057650Y012315D01*
X057727Y012239D02*
X057727Y012392D01*
X057803Y012545D02*
X057727Y012622D01*
X057727Y012776D01*
X057803Y012852D01*
X058034Y012852D01*
X057957Y013006D02*
X057803Y013006D01*
X057727Y013083D01*
X057727Y013236D01*
X057803Y013313D01*
X057880Y013313D01*
X057880Y013006D01*
X057957Y013006D02*
X058034Y013083D01*
X058034Y013236D01*
X058034Y013466D02*
X057727Y013466D01*
X057880Y013466D02*
X057727Y013620D01*
X057727Y013696D01*
X059124Y013610D02*
X059124Y013150D01*
X058634Y013056D02*
X058327Y013056D01*
X058480Y013056D02*
X058327Y013209D01*
X058327Y013286D01*
X058403Y012902D02*
X058634Y012902D01*
X058634Y012672D01*
X058557Y012595D01*
X058480Y012672D01*
X058480Y012902D01*
X058403Y012902D02*
X058327Y012826D01*
X058327Y012672D01*
X058034Y012545D02*
X057573Y012545D01*
X057957Y012315D02*
X058034Y012392D01*
X058173Y011675D02*
X058634Y011675D01*
X054941Y013227D02*
X054864Y013150D01*
X054711Y013150D01*
X054634Y013227D01*
X054941Y013534D01*
X054941Y013227D01*
X054941Y013534D02*
X054864Y013610D01*
X054711Y013610D01*
X054634Y013534D01*
X054634Y013227D01*
X054480Y013150D02*
X054174Y013150D01*
X054327Y013150D02*
X054327Y013610D01*
X054174Y013457D01*
X048311Y014568D02*
X048243Y014500D01*
X048038Y014500D01*
X048038Y014910D01*
X048243Y014910D01*
X048311Y014842D01*
X048311Y014774D01*
X048243Y014705D01*
X048038Y014705D01*
X048243Y014705D02*
X048311Y014637D01*
X048311Y014568D01*
X047897Y014500D02*
X047624Y014500D01*
X047760Y014500D02*
X047760Y014910D01*
X047624Y014774D01*
X047624Y015000D02*
X047897Y015000D01*
X048038Y015068D02*
X048106Y015000D01*
X048243Y015000D01*
X048311Y015068D01*
X048311Y015137D01*
X048243Y015205D01*
X048106Y015205D01*
X048038Y015274D01*
X048038Y015342D01*
X048106Y015410D01*
X048243Y015410D01*
X048311Y015342D01*
X047897Y015410D02*
X047624Y015410D01*
X047624Y015000D01*
X047624Y015205D02*
X047760Y015205D01*
X047644Y016450D02*
X047491Y016450D01*
X047414Y016527D01*
X047261Y016527D02*
X047184Y016450D01*
X047030Y016450D01*
X046954Y016527D01*
X047261Y016834D01*
X047261Y016527D01*
X047261Y016834D02*
X047184Y016910D01*
X047030Y016910D01*
X046954Y016834D01*
X046954Y016527D01*
X046800Y016527D02*
X046800Y016450D01*
X046724Y016450D01*
X046724Y016527D01*
X046800Y016527D01*
X047414Y016834D02*
X047491Y016910D01*
X047644Y016910D01*
X047721Y016834D01*
X047721Y016757D01*
X047644Y016680D01*
X047721Y016603D01*
X047721Y016527D01*
X047644Y016450D01*
X047644Y016680D02*
X047567Y016680D01*
X047874Y016757D02*
X047874Y016527D01*
X047951Y016450D01*
X048181Y016450D01*
X048181Y016757D01*
X048335Y016680D02*
X048488Y016680D01*
X048335Y016450D02*
X048335Y016910D01*
X048642Y016910D01*
X047461Y017368D02*
X047393Y017300D01*
X047188Y017300D01*
X047188Y017710D01*
X047393Y017710D01*
X047461Y017642D01*
X047461Y017574D01*
X047393Y017505D01*
X047188Y017505D01*
X047393Y017505D02*
X047461Y017437D01*
X047461Y017368D01*
X047047Y017300D02*
X046774Y017300D01*
X046910Y017300D02*
X046910Y017710D01*
X046774Y017574D01*
X046724Y017800D02*
X046997Y017800D01*
X047138Y017868D02*
X047206Y017800D01*
X047343Y017800D01*
X047411Y017868D01*
X047411Y017937D01*
X047343Y018005D01*
X047206Y018005D01*
X047138Y018074D01*
X047138Y018142D01*
X047206Y018210D01*
X047343Y018210D01*
X047411Y018142D01*
X046997Y018210D02*
X046724Y018210D01*
X046724Y017800D01*
X046724Y018005D02*
X046860Y018005D01*
X040241Y019300D02*
X040241Y019760D01*
X040241Y019950D02*
X039934Y019950D01*
X039934Y020410D01*
X039934Y020500D02*
X040241Y020500D01*
X039934Y020500D02*
X039934Y020960D01*
X039934Y021050D02*
X039934Y021510D01*
X039934Y021280D02*
X040241Y021280D01*
X040241Y021510D02*
X040241Y021050D01*
X039780Y021050D02*
X039474Y021050D01*
X039627Y021050D02*
X039627Y021510D01*
X039474Y021357D01*
X039627Y020960D02*
X039627Y020500D01*
X039704Y020410D02*
X039550Y020410D01*
X039474Y020334D01*
X039474Y020500D02*
X039780Y020500D01*
X039704Y020410D02*
X039780Y020334D01*
X039780Y020257D01*
X039474Y019950D01*
X039780Y019950D01*
X039704Y019760D02*
X039550Y019760D01*
X039474Y019684D01*
X039704Y019760D02*
X039780Y019684D01*
X039780Y019607D01*
X039474Y019300D01*
X039780Y019300D01*
X039934Y019300D02*
X039934Y019760D01*
X039934Y019530D02*
X040241Y019530D01*
X039234Y019271D02*
X039080Y019041D01*
X038927Y019271D01*
X038773Y019041D02*
X039234Y019041D01*
X039157Y018888D02*
X038850Y018888D01*
X039157Y018581D01*
X039234Y018658D01*
X039234Y018811D01*
X039157Y018888D01*
X039157Y018581D02*
X038850Y018581D01*
X038773Y018658D01*
X038773Y018811D01*
X038850Y018888D01*
X039234Y018427D02*
X039234Y018121D01*
X039234Y018274D02*
X038773Y018274D01*
X038927Y018121D01*
X036934Y018032D02*
X036934Y017801D01*
X036473Y017801D01*
X036473Y018032D01*
X036550Y018108D01*
X036627Y018108D01*
X036703Y018032D01*
X036703Y017801D01*
X036703Y017648D02*
X036703Y017341D01*
X036550Y017188D02*
X036473Y017111D01*
X036473Y016957D01*
X036550Y016881D01*
X036857Y016881D01*
X036934Y016957D01*
X036934Y017111D01*
X036857Y017188D01*
X036234Y017205D02*
X036234Y017051D01*
X036234Y017128D02*
X035773Y017128D01*
X035773Y017051D02*
X035773Y017205D01*
X035850Y017358D02*
X035927Y017358D01*
X036003Y017435D01*
X036003Y017589D01*
X036080Y017665D01*
X036157Y017665D01*
X036234Y017589D01*
X036234Y017435D01*
X036157Y017358D01*
X036080Y017358D01*
X036003Y017435D01*
X036003Y017589D02*
X035927Y017665D01*
X035850Y017665D01*
X035773Y017589D01*
X035773Y017435D01*
X035850Y017358D01*
X035850Y016898D02*
X035773Y016821D01*
X035773Y016668D01*
X035850Y016591D01*
X035927Y016591D01*
X036003Y016668D01*
X036003Y016821D01*
X036080Y016898D01*
X036157Y016898D01*
X036234Y016821D01*
X036234Y016668D01*
X036157Y016591D01*
X036473Y016727D02*
X036473Y016420D01*
X036934Y016420D01*
X036934Y016727D01*
X036703Y016574D02*
X036703Y016420D01*
X035623Y015896D02*
X035623Y015589D01*
X036084Y015589D01*
X036084Y015436D02*
X035777Y015436D01*
X035853Y015589D02*
X035853Y015743D01*
X036084Y015436D02*
X036084Y015206D01*
X036007Y015129D01*
X035777Y015129D01*
X036084Y014976D02*
X036084Y014669D01*
X036084Y014822D02*
X035623Y014822D01*
X035777Y014669D01*
X036007Y014515D02*
X036084Y014515D01*
X036084Y014439D01*
X036007Y014439D01*
X036007Y014515D01*
X033884Y014512D02*
X033423Y014512D01*
X033577Y014358D01*
X033884Y014358D02*
X033884Y014665D01*
X033807Y014819D02*
X033500Y015126D01*
X033807Y015126D01*
X033884Y015049D01*
X033884Y014895D01*
X033807Y014819D01*
X033500Y014819D01*
X033423Y014895D01*
X033423Y015049D01*
X033500Y015126D01*
X033577Y015279D02*
X033807Y015279D01*
X033884Y015356D01*
X033884Y015586D01*
X033577Y015586D01*
X033653Y015739D02*
X033653Y015893D01*
X033423Y015739D02*
X033423Y016046D01*
X033423Y015739D02*
X033884Y015739D01*
X033635Y017100D02*
X033635Y017560D01*
X033942Y017560D01*
X033788Y017330D02*
X033635Y017330D01*
X033481Y017407D02*
X033481Y017100D01*
X033251Y017100D01*
X033174Y017177D01*
X033174Y017407D01*
X032867Y017560D02*
X032714Y017407D01*
X032561Y017484D02*
X032561Y017177D01*
X032484Y017100D01*
X032330Y017100D01*
X032254Y017177D01*
X032561Y017484D01*
X032484Y017560D01*
X032330Y017560D01*
X032254Y017484D01*
X032254Y017177D01*
X032100Y017177D02*
X032100Y017100D01*
X032024Y017100D01*
X032024Y017177D01*
X032100Y017177D01*
X031784Y017114D02*
X031784Y017421D01*
X031784Y017267D02*
X031323Y017267D01*
X031477Y017114D01*
X031707Y016960D02*
X031784Y016960D01*
X031784Y016884D01*
X031707Y016884D01*
X031707Y016960D01*
X032714Y017100D02*
X033021Y017100D01*
X032867Y017100D02*
X032867Y017560D01*
X031784Y017651D02*
X031784Y017881D01*
X031477Y017881D01*
X031553Y018034D02*
X031553Y018188D01*
X031323Y018034D02*
X031323Y018341D01*
X031323Y018034D02*
X031784Y018034D01*
X031784Y017651D02*
X031707Y017574D01*
X031477Y017574D01*
X035773Y018126D02*
X035850Y017972D01*
X036003Y017819D01*
X036003Y018049D01*
X036080Y018126D01*
X036157Y018126D01*
X036234Y018049D01*
X036234Y017895D01*
X036157Y017819D01*
X036003Y017819D01*
X036003Y018279D02*
X036003Y018509D01*
X036080Y018586D01*
X036157Y018586D01*
X036234Y018509D01*
X036234Y018356D01*
X036157Y018279D01*
X036003Y018279D01*
X035850Y018432D01*
X035773Y018586D01*
X035850Y018739D02*
X035773Y018816D01*
X035773Y018970D01*
X035850Y019046D01*
X036157Y018739D01*
X036234Y018816D01*
X036234Y018970D01*
X036157Y019046D01*
X035850Y019046D01*
X035850Y018739D02*
X036157Y018739D01*
X036473Y018722D02*
X036473Y018876D01*
X036473Y018799D02*
X036934Y018799D01*
X036934Y018722D02*
X036934Y018876D01*
X036857Y019029D02*
X036934Y019106D01*
X036934Y019259D01*
X036857Y019336D01*
X036780Y019336D01*
X036703Y019259D01*
X036703Y019106D01*
X036627Y019029D01*
X036550Y019029D01*
X036473Y019106D01*
X036473Y019259D01*
X036550Y019336D01*
X036627Y019489D02*
X036473Y019643D01*
X036934Y019643D01*
X036934Y019796D02*
X036934Y019489D01*
X036703Y018569D02*
X036703Y018262D01*
X036780Y018108D02*
X036857Y018108D01*
X036934Y018032D01*
X036780Y018108D02*
X036703Y018032D01*
X039424Y016434D02*
X039500Y016510D01*
X039654Y016510D01*
X039730Y016434D01*
X039730Y016357D01*
X039654Y016280D01*
X039730Y016203D01*
X039730Y016127D01*
X039654Y016050D01*
X039500Y016050D01*
X039424Y016127D01*
X039577Y016280D02*
X039654Y016280D01*
X039884Y016050D02*
X040191Y016050D01*
X040191Y015760D02*
X040191Y015300D01*
X040191Y015530D02*
X039884Y015530D01*
X039730Y015453D02*
X039730Y015377D01*
X039654Y015300D01*
X039500Y015300D01*
X039424Y015377D01*
X039577Y015530D02*
X039654Y015530D01*
X039730Y015453D01*
X039654Y015530D02*
X039730Y015607D01*
X039730Y015684D01*
X039654Y015760D01*
X039500Y015760D01*
X039424Y015684D01*
X039884Y015760D02*
X039884Y015300D01*
X040584Y015330D02*
X040890Y015330D01*
X040890Y015560D02*
X040890Y015100D01*
X041044Y015100D02*
X041197Y015100D01*
X041121Y015100D02*
X041121Y015560D01*
X041197Y015560D02*
X041044Y015560D01*
X041351Y015560D02*
X041581Y015560D01*
X041658Y015484D01*
X041658Y015330D01*
X041581Y015253D01*
X041351Y015253D01*
X041351Y015100D02*
X041351Y015560D01*
X041811Y015330D02*
X042041Y015560D01*
X042041Y015100D01*
X042118Y015330D02*
X041811Y015330D01*
X042271Y015177D02*
X042578Y015484D01*
X042578Y015177D01*
X042502Y015100D01*
X042348Y015100D01*
X042271Y015177D01*
X042271Y015484D01*
X042348Y015560D01*
X042502Y015560D01*
X042578Y015484D01*
X042732Y015484D02*
X042732Y015407D01*
X042809Y015330D01*
X042962Y015330D01*
X043039Y015253D01*
X043039Y015177D01*
X042962Y015100D01*
X042809Y015100D01*
X042732Y015177D01*
X042732Y015253D01*
X042809Y015330D01*
X042962Y015330D02*
X043039Y015407D01*
X043039Y015484D01*
X042962Y015560D01*
X042809Y015560D01*
X042732Y015484D01*
X043192Y015330D02*
X043192Y015177D01*
X043269Y015100D01*
X043422Y015100D01*
X043499Y015177D01*
X043499Y015253D01*
X043422Y015330D01*
X043192Y015330D01*
X043346Y015484D01*
X043499Y015560D01*
X040584Y015560D02*
X040584Y015100D01*
X039884Y016050D02*
X039884Y016510D01*
X032684Y019365D02*
X032377Y019672D01*
X032300Y019672D01*
X032223Y019596D01*
X032223Y019442D01*
X032300Y019365D01*
X032684Y019365D02*
X032684Y019672D01*
X032684Y019826D02*
X032684Y019902D01*
X032607Y019902D01*
X032607Y019826D01*
X032684Y019826D01*
X032684Y020056D02*
X032377Y020363D01*
X032300Y020363D01*
X032223Y020286D01*
X032223Y020133D01*
X032300Y020056D01*
X032684Y020056D02*
X032684Y020363D01*
X032684Y020516D02*
X032223Y020516D01*
X032377Y020746D02*
X032530Y020516D01*
X032684Y020746D01*
X029485Y021700D02*
X029255Y021853D01*
X029485Y022007D01*
X029255Y022160D02*
X029255Y021700D01*
X029101Y021777D02*
X029024Y021700D01*
X028871Y021700D01*
X028794Y021777D01*
X029101Y022084D01*
X029101Y021777D01*
X029101Y022084D02*
X029024Y022160D01*
X028871Y022160D01*
X028794Y022084D01*
X028794Y021777D01*
X028641Y021777D02*
X028564Y021700D01*
X028411Y021700D01*
X028334Y021777D01*
X028180Y021777D02*
X028104Y021700D01*
X027950Y021700D01*
X027874Y021777D01*
X028027Y021930D02*
X028104Y021930D01*
X028180Y021853D01*
X028180Y021777D01*
X028104Y021930D02*
X028180Y022007D01*
X028180Y022084D01*
X028104Y022160D01*
X027950Y022160D01*
X027874Y022084D01*
X028334Y022084D02*
X028411Y022160D01*
X028564Y022160D01*
X028641Y022084D01*
X028641Y022007D01*
X028564Y021930D01*
X028641Y021853D01*
X028641Y021777D01*
X028564Y021930D02*
X028487Y021930D01*
X026834Y022573D02*
X026527Y022880D01*
X026450Y022880D01*
X026373Y022804D01*
X026373Y022650D01*
X026450Y022573D01*
X026834Y022573D02*
X026834Y022880D01*
X026834Y023034D02*
X026527Y023341D01*
X026450Y023341D01*
X026373Y023264D01*
X026373Y023110D01*
X026450Y023034D01*
X026834Y023034D02*
X026834Y023341D01*
X026834Y023494D02*
X026527Y023494D01*
X026527Y023724D01*
X026603Y023801D01*
X026834Y023801D01*
X026834Y023954D02*
X026373Y023954D01*
X026373Y024261D01*
X026603Y024108D02*
X026603Y023954D01*
X027224Y023807D02*
X027377Y023960D01*
X027377Y023500D01*
X027224Y023500D02*
X027530Y023500D01*
X027684Y023500D02*
X027684Y023960D01*
X027914Y023807D02*
X027684Y023653D01*
X027914Y023500D01*
X027914Y024350D02*
X027684Y024503D01*
X027914Y024657D01*
X027684Y024810D02*
X027684Y024350D01*
X027530Y024350D02*
X027224Y024350D01*
X027530Y024657D01*
X027530Y024734D01*
X027454Y024810D01*
X027300Y024810D01*
X027224Y024734D01*
X029373Y025791D02*
X029527Y025638D01*
X029834Y025638D01*
X029603Y025638D02*
X029603Y025945D01*
X029527Y025945D02*
X029834Y025945D01*
X029757Y026098D02*
X029834Y026175D01*
X029834Y026328D01*
X029757Y026405D01*
X029757Y026558D02*
X029834Y026635D01*
X029834Y026789D01*
X029757Y026865D01*
X029680Y026865D01*
X029603Y026789D01*
X029603Y026635D01*
X029527Y026558D01*
X029450Y026558D01*
X029373Y026635D01*
X029373Y026789D01*
X029450Y026865D01*
X029373Y027019D02*
X029373Y027326D01*
X029450Y027326D01*
X029757Y027019D01*
X029834Y027019D01*
X029973Y026979D02*
X029973Y027209D01*
X030050Y027286D01*
X030127Y027286D01*
X030203Y027209D01*
X030203Y026979D01*
X030280Y026826D02*
X030203Y026749D01*
X030203Y026519D01*
X030357Y026519D01*
X030434Y026596D01*
X030434Y026749D01*
X030357Y026826D01*
X030280Y026826D01*
X030434Y026979D02*
X029973Y026979D01*
X029973Y026826D02*
X030050Y026672D01*
X030203Y026519D01*
X029757Y026098D02*
X029450Y026098D01*
X029373Y026175D01*
X029373Y026328D01*
X029450Y026405D01*
X029527Y025945D02*
X029373Y025791D01*
X030434Y026979D02*
X030434Y027209D01*
X030357Y027286D01*
X030280Y027286D01*
X030203Y027209D01*
X030203Y027440D02*
X030203Y027670D01*
X030280Y027746D01*
X030357Y027746D01*
X030434Y027670D01*
X030434Y027440D01*
X029973Y027440D01*
X029973Y027670D01*
X030050Y027746D01*
X030127Y027746D01*
X030203Y027670D01*
X029834Y027632D02*
X029373Y027632D01*
X029527Y027479D01*
X029834Y027479D02*
X029834Y027786D01*
X029757Y027939D02*
X029834Y028016D01*
X029834Y028170D01*
X029757Y028246D01*
X029680Y028246D01*
X029603Y028170D01*
X029603Y027939D01*
X029757Y027939D01*
X029603Y027939D02*
X029450Y028093D01*
X029373Y028246D01*
X024074Y028240D02*
X023997Y028164D01*
X023690Y028471D01*
X023997Y028471D01*
X024074Y028394D01*
X024074Y028240D01*
X023997Y028164D02*
X023690Y028164D01*
X023613Y028240D01*
X023613Y028394D01*
X023690Y028471D01*
X023767Y028624D02*
X023997Y028624D01*
X024074Y028701D01*
X024074Y028931D01*
X023767Y028931D01*
X023843Y029084D02*
X023843Y029238D01*
X023613Y029084D02*
X023613Y029391D01*
X023613Y029084D02*
X024074Y029084D01*
X023049Y028904D02*
X022588Y028904D01*
X022588Y029211D01*
X022818Y029058D02*
X022818Y028904D01*
X022742Y028751D02*
X023049Y028751D01*
X023049Y028521D01*
X022972Y028444D01*
X022742Y028444D01*
X023049Y028291D02*
X023049Y027984D01*
X023049Y028137D02*
X022588Y028137D01*
X022742Y027984D01*
X022972Y027830D02*
X023049Y027830D01*
X023049Y027754D01*
X022972Y027754D01*
X022972Y027830D01*
X023613Y027857D02*
X024074Y027857D01*
X024074Y028010D02*
X024074Y027703D01*
X023767Y027703D02*
X023613Y027857D01*
X020127Y025060D02*
X020127Y024600D01*
X019974Y024600D02*
X020280Y024600D01*
X019974Y024907D02*
X020127Y025060D01*
X023174Y024357D02*
X023327Y024510D01*
X023327Y024050D01*
X023174Y024050D02*
X023480Y024050D01*
X023634Y024050D02*
X023634Y024357D01*
X023864Y024357D01*
X023941Y024280D01*
X023941Y024050D01*
X024094Y024050D02*
X024094Y024510D01*
X024401Y024510D01*
X024248Y024280D02*
X024094Y024280D01*
X024094Y023660D02*
X024401Y023660D01*
X024248Y023430D02*
X024094Y023430D01*
X023941Y023430D02*
X023941Y023200D01*
X024094Y023200D02*
X024094Y023660D01*
X023864Y023507D02*
X023941Y023430D01*
X023864Y023507D02*
X023634Y023507D01*
X023634Y023200D01*
X023480Y023584D02*
X023174Y023277D01*
X023174Y023200D01*
X023174Y023660D02*
X023480Y023660D01*
X023480Y023584D01*
X026354Y020957D02*
X026507Y021110D01*
X026507Y020650D01*
X026354Y020650D02*
X026661Y020650D01*
X026814Y020727D02*
X026891Y020650D01*
X027121Y020650D01*
X027121Y020957D01*
X027274Y020880D02*
X027428Y020880D01*
X027274Y020650D02*
X027274Y021110D01*
X027581Y021110D01*
X026814Y020957D02*
X026814Y020727D01*
X026200Y020727D02*
X026200Y020650D01*
X026124Y020650D01*
X026124Y020727D01*
X026200Y020727D01*
X026234Y020110D02*
X026311Y020034D01*
X026004Y019727D01*
X026080Y019650D01*
X026234Y019650D01*
X026311Y019727D01*
X026311Y020034D01*
X026234Y020110D02*
X026080Y020110D01*
X026004Y020034D01*
X026004Y019727D01*
X025850Y019727D02*
X025850Y019650D01*
X025774Y019650D01*
X025774Y019727D01*
X025850Y019727D01*
X025681Y019960D02*
X025374Y019960D01*
X025374Y019500D01*
X025221Y019500D02*
X025221Y019807D01*
X025374Y019730D02*
X025528Y019730D01*
X025221Y019500D02*
X024991Y019500D01*
X024914Y019577D01*
X024914Y019807D01*
X024607Y019960D02*
X024607Y019500D01*
X024454Y019500D02*
X024761Y019500D01*
X024454Y019807D02*
X024607Y019960D01*
X024300Y019577D02*
X024300Y019500D01*
X024224Y019500D01*
X024224Y019577D01*
X024300Y019577D01*
X023961Y019480D02*
X023655Y019480D01*
X023501Y019557D02*
X023501Y019250D01*
X023271Y019250D01*
X023194Y019327D01*
X023194Y019557D01*
X023041Y019634D02*
X022734Y019327D01*
X022734Y019250D01*
X022504Y019250D02*
X022504Y019710D01*
X022274Y019480D01*
X022580Y019480D01*
X022734Y019710D02*
X023041Y019710D01*
X023041Y019634D01*
X023655Y019710D02*
X023655Y019250D01*
X023961Y019250D02*
X023961Y019710D01*
X026464Y019650D02*
X026771Y019650D01*
X026617Y019650D02*
X026617Y020110D01*
X026464Y019957D01*
X026924Y019957D02*
X026924Y019727D01*
X027001Y019650D01*
X027231Y019650D01*
X027231Y019957D01*
X027385Y019880D02*
X027538Y019880D01*
X027385Y019650D02*
X027385Y020110D01*
X027692Y020110D01*
X020230Y017860D02*
X020230Y017784D01*
X019924Y017477D01*
X019924Y017400D01*
X019924Y017860D02*
X020230Y017860D01*
X018230Y017860D02*
X018077Y017784D01*
X017924Y017630D01*
X018154Y017630D01*
X018230Y017553D01*
X018230Y017477D01*
X018154Y017400D01*
X018000Y017400D01*
X017924Y017477D01*
X017924Y017630D01*
X016230Y017630D02*
X016230Y017477D01*
X016154Y017400D01*
X016000Y017400D01*
X015924Y017477D01*
X015924Y017630D02*
X016077Y017707D01*
X016154Y017707D01*
X016230Y017630D01*
X016230Y017860D02*
X015924Y017860D01*
X015924Y017630D01*
X014280Y017630D02*
X013974Y017630D01*
X014204Y017860D01*
X014204Y017400D01*
X016224Y015810D02*
X016454Y015810D01*
X016530Y015734D01*
X016530Y015580D01*
X016454Y015503D01*
X016224Y015503D01*
X016377Y015503D02*
X016530Y015350D01*
X016684Y015350D02*
X016684Y015810D01*
X016991Y015810D01*
X017144Y015734D02*
X017144Y015427D01*
X017221Y015350D01*
X017374Y015350D01*
X017451Y015427D01*
X017451Y015580D01*
X017298Y015580D01*
X017451Y015734D02*
X017374Y015810D01*
X017221Y015810D01*
X017144Y015734D01*
X016837Y015580D02*
X016684Y015580D01*
X016684Y015350D02*
X016991Y015350D01*
X017605Y015350D02*
X017911Y015350D01*
X017758Y015350D02*
X017758Y015810D01*
X017605Y015657D01*
X018065Y015657D02*
X018218Y015810D01*
X018218Y015350D01*
X018065Y015350D02*
X018372Y015350D01*
X018525Y015350D02*
X018832Y015350D01*
X018679Y015350D02*
X018679Y015810D01*
X018525Y015657D01*
X018986Y015810D02*
X019293Y015810D01*
X019293Y015734D01*
X018986Y015427D01*
X018986Y015350D01*
X016224Y015350D02*
X016224Y015810D01*
X012653Y013093D02*
X012653Y012939D01*
X012577Y012786D02*
X012884Y012786D01*
X012884Y012556D01*
X012807Y012479D01*
X012577Y012479D01*
X012884Y012326D02*
X012884Y012019D01*
X012884Y012172D02*
X012423Y012172D01*
X012577Y012019D01*
X012807Y011865D02*
X012884Y011865D01*
X012884Y011789D01*
X012807Y011789D01*
X012807Y011865D01*
X012884Y012939D02*
X012423Y012939D01*
X012423Y013246D01*
X007831Y012710D02*
X007524Y012710D01*
X007524Y012250D01*
X007371Y012250D02*
X007371Y012557D01*
X007524Y012480D02*
X007678Y012480D01*
X007371Y012250D02*
X007141Y012250D01*
X007064Y012327D01*
X007064Y012557D01*
X006757Y012710D02*
X006757Y012250D01*
X006604Y012250D02*
X006911Y012250D01*
X006604Y012557D02*
X006757Y012710D01*
X005604Y012701D02*
X005143Y012701D01*
X005297Y012855D01*
X005143Y013008D01*
X005604Y013008D01*
X005527Y013161D02*
X005450Y013238D01*
X005450Y013468D01*
X005373Y013468D02*
X005604Y013468D01*
X005604Y013238D01*
X005527Y013161D01*
X005297Y013238D02*
X005297Y013392D01*
X005373Y013468D01*
X005373Y013622D02*
X005527Y013622D01*
X005604Y013699D01*
X005604Y013929D01*
X005680Y013929D02*
X005297Y013929D01*
X005297Y013699D01*
X005373Y013622D01*
X005089Y013644D02*
X004858Y013644D01*
X004782Y013567D01*
X004782Y013337D01*
X005089Y013337D01*
X005012Y013183D02*
X004858Y013183D01*
X004782Y013106D01*
X004782Y012953D01*
X004858Y012876D01*
X005012Y012876D01*
X005089Y012953D01*
X005089Y013106D01*
X005012Y013183D01*
X005012Y012723D02*
X005089Y012646D01*
X005089Y012493D01*
X005012Y012416D01*
X004705Y012416D01*
X004628Y012493D01*
X004628Y012646D01*
X004705Y012723D01*
X006374Y012327D02*
X006450Y012327D01*
X006450Y012250D01*
X006374Y012250D01*
X006374Y012327D01*
X005977Y011146D02*
X005977Y011070D01*
X006130Y010916D01*
X005977Y010916D02*
X006284Y010916D01*
X006130Y010763D02*
X006130Y010456D01*
X006053Y010456D02*
X005977Y010532D01*
X005977Y010686D01*
X006053Y010763D01*
X006130Y010763D01*
X006284Y010686D02*
X006284Y010532D01*
X006207Y010456D01*
X006053Y010456D01*
X005977Y010302D02*
X005977Y010072D01*
X006053Y009995D01*
X006207Y009995D01*
X006284Y010072D01*
X006284Y010302D01*
X005823Y010302D01*
X006053Y009842D02*
X005977Y009765D01*
X005977Y009612D01*
X006053Y009535D01*
X006207Y009535D01*
X006284Y009612D01*
X006284Y009765D01*
X006207Y009842D01*
X006053Y009842D01*
X005205Y009955D02*
X005205Y010262D01*
X005052Y010415D01*
X004899Y010262D01*
X004899Y009955D01*
X004899Y010185D02*
X005205Y010185D01*
X005037Y009584D02*
X005037Y009277D01*
X004884Y009430D02*
X005190Y009430D01*
X005977Y009382D02*
X005977Y009151D01*
X006053Y009075D01*
X006207Y009075D01*
X006284Y009151D01*
X006284Y009382D01*
X006284Y008921D02*
X006053Y008921D01*
X005977Y008844D01*
X005977Y008614D01*
X006284Y008614D01*
X006284Y008461D02*
X006284Y008154D01*
X005823Y008154D01*
X005823Y008461D01*
X006053Y008307D02*
X006053Y008154D01*
X005180Y008427D02*
X005104Y008350D01*
X004874Y008350D01*
X004874Y008810D01*
X005104Y008810D01*
X005180Y008734D01*
X005180Y008657D01*
X005104Y008580D01*
X004874Y008580D01*
X005104Y008580D02*
X005180Y008503D01*
X005180Y008427D01*
X004814Y007960D02*
X004891Y007884D01*
X004584Y007577D01*
X004661Y007500D01*
X004814Y007500D01*
X004891Y007577D01*
X004891Y007884D01*
X004814Y007960D02*
X004661Y007960D01*
X004584Y007884D01*
X004584Y007577D01*
X004430Y007577D02*
X004354Y007500D01*
X004200Y007500D01*
X004124Y007577D01*
X004277Y007730D02*
X004354Y007730D01*
X004430Y007653D01*
X004430Y007577D01*
X004354Y007730D02*
X004430Y007807D01*
X004430Y007884D01*
X004354Y007960D01*
X004200Y007960D01*
X004124Y007884D01*
X004977Y005834D02*
X004977Y005527D01*
X004824Y005680D02*
X005130Y005680D01*
X005130Y004823D02*
X004824Y004823D01*
X005039Y004165D02*
X005039Y003705D01*
X005346Y003705D01*
X005500Y003705D02*
X005806Y003705D01*
X005960Y003705D02*
X006190Y003705D01*
X006267Y003782D01*
X006267Y004089D01*
X006190Y004165D01*
X005960Y004165D01*
X005960Y003705D01*
X005653Y003935D02*
X005500Y003935D01*
X005500Y004165D02*
X005500Y003705D01*
X006420Y003705D02*
X006650Y003705D01*
X006727Y003782D01*
X006650Y003858D01*
X006497Y003858D01*
X006420Y003935D01*
X006497Y004012D01*
X006727Y004012D01*
X005806Y004165D02*
X005500Y004165D01*
X004425Y004089D02*
X004349Y004165D01*
X004195Y004165D01*
X004119Y004089D01*
X004425Y004089D02*
X004425Y004012D01*
X004119Y003705D01*
X004425Y003705D01*
X008724Y003480D02*
X009030Y003480D01*
X008877Y003327D02*
X008877Y003634D01*
X012224Y003480D02*
X012530Y003480D01*
X012377Y003327D02*
X012377Y003634D01*
X015724Y003480D02*
X016030Y003480D01*
X015877Y003327D02*
X015877Y003634D01*
X018124Y004600D02*
X018200Y004600D01*
X018200Y004677D01*
X018124Y004677D01*
X018124Y004600D01*
X018354Y004600D02*
X018661Y004600D01*
X018507Y004600D02*
X018507Y005060D01*
X018354Y004907D01*
X018814Y004907D02*
X018814Y004677D01*
X018891Y004600D01*
X019121Y004600D01*
X019121Y004907D01*
X019274Y004830D02*
X019428Y004830D01*
X019274Y004600D02*
X019274Y005060D01*
X019581Y005060D01*
X020707Y005550D02*
X020707Y005627D01*
X020784Y005627D01*
X020784Y005550D01*
X020707Y005550D01*
X020784Y005780D02*
X020784Y006087D01*
X020784Y005934D02*
X020323Y005934D01*
X020477Y005780D01*
X020477Y006240D02*
X020707Y006240D01*
X020784Y006317D01*
X020784Y006547D01*
X020477Y006547D01*
X020553Y006701D02*
X020553Y006854D01*
X020323Y006701D02*
X020784Y006701D01*
X020323Y006701D02*
X020323Y007008D01*
X020431Y007950D02*
X020431Y008180D01*
X020355Y008257D01*
X020124Y008257D01*
X020124Y007950D01*
X019971Y007950D02*
X019664Y007950D01*
X019971Y008257D01*
X019971Y008334D01*
X019894Y008410D01*
X019741Y008410D01*
X019664Y008334D01*
X019511Y008027D02*
X019511Y007950D01*
X019434Y007950D01*
X019434Y008027D01*
X019511Y008027D01*
X019280Y007950D02*
X018974Y007950D01*
X019280Y008257D01*
X019280Y008334D01*
X019204Y008410D01*
X019050Y008410D01*
X018974Y008334D01*
X019034Y008366D02*
X019034Y008673D01*
X019034Y008826D02*
X018573Y008826D01*
X018727Y009056D02*
X018880Y008826D01*
X019034Y009056D01*
X017984Y009056D02*
X017830Y008826D01*
X017677Y009056D01*
X017523Y008826D02*
X017984Y008826D01*
X017984Y008673D02*
X017984Y008366D01*
X017984Y008519D02*
X017523Y008519D01*
X017677Y008366D01*
X018573Y008519D02*
X019034Y008519D01*
X018727Y008366D02*
X018573Y008519D01*
X020585Y008410D02*
X020585Y007950D01*
X020585Y008180D02*
X020738Y008180D01*
X020585Y008410D02*
X020892Y008410D01*
X022077Y010108D02*
X021923Y010262D01*
X022384Y010262D01*
X022384Y010415D02*
X022384Y010108D01*
X022307Y010569D02*
X022000Y010876D01*
X022307Y010876D01*
X022384Y010799D01*
X022384Y010645D01*
X022307Y010569D01*
X022000Y010569D01*
X021923Y010645D01*
X021923Y010799D01*
X022000Y010876D01*
X022077Y011029D02*
X022307Y011029D01*
X022384Y011106D01*
X022384Y011336D01*
X022077Y011336D01*
X022153Y011489D02*
X022153Y011643D01*
X021923Y011489D02*
X021923Y011796D01*
X021923Y011489D02*
X022384Y011489D01*
X021284Y011426D02*
X021284Y011119D01*
X021284Y011272D02*
X020823Y011272D01*
X020977Y011119D01*
X021207Y010965D02*
X021284Y010965D01*
X021284Y010889D01*
X021207Y010889D01*
X021207Y010965D01*
X021207Y011579D02*
X021284Y011656D01*
X021284Y011886D01*
X020977Y011886D01*
X021053Y012039D02*
X021053Y012193D01*
X020823Y012039D02*
X020823Y012346D01*
X020823Y012039D02*
X021284Y012039D01*
X021207Y011579D02*
X020977Y011579D01*
X025024Y011660D02*
X025100Y011660D01*
X025100Y011737D01*
X025024Y011737D01*
X025024Y011660D01*
X025254Y011660D02*
X025561Y011660D01*
X025407Y011660D02*
X025407Y012120D01*
X025254Y011967D01*
X025714Y011967D02*
X025714Y011737D01*
X025791Y011660D01*
X026021Y011660D01*
X026021Y011967D01*
X026174Y011890D02*
X026328Y011890D01*
X026174Y011660D02*
X026174Y012120D01*
X026481Y012120D01*
X026531Y012490D02*
X026761Y012490D01*
X026761Y012797D01*
X026915Y012720D02*
X027068Y012720D01*
X026915Y012490D02*
X026915Y012950D01*
X027222Y012950D01*
X026454Y012797D02*
X026454Y012567D01*
X026531Y012490D01*
X026301Y012490D02*
X025994Y012490D01*
X026147Y012490D02*
X026147Y012950D01*
X025994Y012797D01*
X025841Y012874D02*
X025534Y012567D01*
X025610Y012490D01*
X025764Y012490D01*
X025841Y012567D01*
X025841Y012874D01*
X025764Y012950D01*
X025610Y012950D01*
X025534Y012874D01*
X025534Y012567D01*
X025380Y012567D02*
X025380Y012490D01*
X025304Y012490D01*
X025304Y012567D01*
X025380Y012567D01*
X025124Y014228D02*
X025124Y014305D01*
X025047Y014305D01*
X025047Y014228D01*
X025124Y014228D01*
X025047Y014458D02*
X024740Y014765D01*
X025047Y014765D01*
X025124Y014689D01*
X025124Y014535D01*
X025047Y014458D01*
X024740Y014458D01*
X024663Y014535D01*
X024663Y014689D01*
X024740Y014765D01*
X024817Y014919D02*
X024663Y015072D01*
X025124Y015072D01*
X025124Y014919D02*
X025124Y015226D01*
X025047Y015379D02*
X025124Y015456D01*
X025124Y015686D01*
X024817Y015686D01*
X024893Y015839D02*
X024893Y015993D01*
X024663Y015839D02*
X024663Y016146D01*
X024663Y015839D02*
X025124Y015839D01*
X025047Y015379D02*
X024817Y015379D01*
X024564Y015486D02*
X024257Y015486D01*
X024333Y015639D02*
X024333Y015793D01*
X024103Y015639D02*
X024103Y015946D01*
X023984Y015739D02*
X023523Y015739D01*
X023523Y016046D01*
X023753Y015893D02*
X023753Y015739D01*
X023677Y015586D02*
X023984Y015586D01*
X023984Y015356D01*
X023907Y015279D01*
X023677Y015279D01*
X023600Y015126D02*
X023907Y014819D01*
X023984Y014895D01*
X023984Y015049D01*
X023907Y015126D01*
X023600Y015126D01*
X023523Y015049D01*
X023523Y014895D01*
X023600Y014819D01*
X023907Y014819D01*
X023984Y014665D02*
X023984Y014358D01*
X023984Y014512D02*
X023523Y014512D01*
X023677Y014358D01*
X024103Y014872D02*
X024564Y014872D01*
X024564Y014719D02*
X024564Y015026D01*
X024487Y015179D02*
X024564Y015256D01*
X024564Y015486D01*
X024564Y015639D02*
X024103Y015639D01*
X024257Y015179D02*
X024487Y015179D01*
X024103Y014872D02*
X024257Y014719D01*
X024487Y014565D02*
X024564Y014565D01*
X024564Y014489D01*
X024487Y014489D01*
X024487Y014565D01*
X031223Y013116D02*
X031684Y013116D01*
X031684Y012963D02*
X031684Y012656D01*
X031684Y012809D02*
X031223Y012809D01*
X031377Y012656D01*
X033023Y012809D02*
X033484Y012809D01*
X033484Y012656D02*
X033484Y012963D01*
X033484Y013116D02*
X033023Y013116D01*
X033177Y013346D02*
X033330Y013116D01*
X033484Y013346D01*
X033023Y012809D02*
X033177Y012656D01*
X031684Y013346D02*
X031530Y013116D01*
X031377Y013346D01*
X041846Y009880D02*
X041840Y009771D01*
X041892Y009714D01*
X042000Y009709D01*
X042114Y009811D01*
X042222Y009806D01*
X042274Y009749D01*
X042268Y009640D01*
X042154Y009538D01*
X042046Y009543D01*
X041983Y009384D02*
X041766Y009395D01*
X041823Y009446D02*
X041652Y009292D01*
X041755Y009178D02*
X041447Y009520D01*
X041618Y009674D01*
X041726Y009669D01*
X041829Y009555D01*
X041823Y009446D01*
X042414Y008933D02*
X042722Y008591D01*
X042950Y008797D01*
X043064Y008899D02*
X043292Y009105D01*
X043406Y009207D02*
X043634Y009413D01*
X043748Y009515D02*
X043440Y009857D01*
X043611Y010011D01*
X043720Y010006D01*
X043822Y009892D01*
X043817Y009783D01*
X043646Y009629D01*
X043366Y009481D02*
X043252Y009378D01*
X043098Y009549D02*
X043406Y009207D01*
X043024Y009173D02*
X042910Y009070D01*
X042756Y009241D02*
X043064Y008899D01*
X042756Y009241D02*
X042984Y009447D01*
X043098Y009549D02*
X043326Y009755D01*
X042895Y010205D02*
X042781Y010102D01*
X042838Y010154D02*
X042530Y010496D01*
X042587Y010547D02*
X042473Y010444D01*
X042411Y010285D02*
X042302Y010290D01*
X042188Y010188D01*
X042182Y010079D01*
X042234Y010022D01*
X042342Y010017D01*
X042456Y010119D01*
X042565Y010114D01*
X042616Y010057D01*
X042610Y009948D01*
X042496Y009846D01*
X042388Y009851D01*
X042068Y009977D02*
X041960Y009982D01*
X041846Y009880D01*
X039617Y008981D02*
X039444Y009155D01*
X039097Y009155D01*
X038830Y009155D02*
X038309Y008808D01*
X038396Y008639D02*
X038570Y008639D01*
X038656Y008552D01*
X038656Y008292D01*
X038656Y008465D02*
X038830Y008639D01*
X038830Y008808D02*
X038309Y009155D01*
X038042Y009155D02*
X037522Y008808D01*
X037522Y008639D02*
X037522Y008292D01*
X037522Y008465D02*
X038042Y008465D01*
X038309Y008552D02*
X038396Y008639D01*
X038309Y008552D02*
X038309Y008292D01*
X038830Y008292D01*
X039097Y008379D02*
X039097Y008552D01*
X039184Y008639D01*
X039270Y008639D01*
X039357Y008552D01*
X039444Y008639D01*
X039531Y008639D01*
X039617Y008552D01*
X039617Y008379D01*
X039531Y008292D01*
X039531Y008121D02*
X039617Y008121D01*
X039617Y008034D01*
X039531Y008034D01*
X039531Y008121D01*
X039531Y007865D02*
X039617Y007779D01*
X039617Y007605D01*
X039531Y007519D01*
X039357Y007692D02*
X039357Y007779D01*
X039444Y007865D01*
X039531Y007865D01*
X039357Y007779D02*
X039270Y007865D01*
X039184Y007865D01*
X039097Y007779D01*
X039097Y007605D01*
X039184Y007519D01*
X039184Y008292D02*
X039097Y008379D01*
X039357Y008465D02*
X039357Y008552D01*
X039444Y008808D02*
X039097Y008808D01*
X039444Y008808D02*
X039617Y008981D01*
X038042Y008808D02*
X037522Y009155D01*
X035286Y008880D02*
X034979Y008880D01*
X034979Y008420D01*
X034826Y008420D02*
X034826Y008727D01*
X034979Y008650D02*
X035133Y008650D01*
X034826Y008420D02*
X034596Y008420D01*
X034519Y008497D01*
X034519Y008727D01*
X034212Y008880D02*
X034212Y008420D01*
X034059Y008420D02*
X034366Y008420D01*
X034059Y008727D02*
X034212Y008880D01*
X033905Y008497D02*
X033905Y008420D01*
X033829Y008420D01*
X033829Y008497D01*
X033905Y008497D01*
X032531Y008639D02*
X032010Y008639D01*
X032010Y008808D02*
X032010Y009068D01*
X032097Y009155D01*
X032444Y009155D01*
X032531Y009068D01*
X032531Y008808D01*
X032010Y008808D01*
X032010Y008292D02*
X032531Y008639D01*
X032531Y008292D02*
X032010Y008292D01*
X032097Y008123D02*
X032010Y008037D01*
X032010Y007863D01*
X032097Y007776D01*
X032444Y007776D01*
X032531Y007863D01*
X032531Y008037D01*
X032444Y008123D01*
X032270Y008123D01*
X032270Y007950D01*
X035364Y007017D02*
X035517Y007170D01*
X035517Y006710D01*
X035364Y006710D02*
X035670Y006710D01*
X035824Y006710D02*
X035824Y007170D01*
X036054Y007017D02*
X035824Y006863D01*
X036054Y006710D01*
X037749Y005307D02*
X037902Y005460D01*
X037902Y005000D01*
X037749Y005000D02*
X038055Y005000D01*
X038209Y005000D02*
X038209Y005460D01*
X038439Y005307D02*
X038209Y005153D01*
X038439Y005000D01*
X038109Y004460D02*
X038109Y004000D01*
X038109Y004153D02*
X038339Y004307D01*
X038109Y004153D02*
X038339Y004000D01*
X038452Y003810D02*
X038452Y003350D01*
X038299Y003350D02*
X038605Y003350D01*
X038759Y003350D02*
X038759Y003810D01*
X038989Y003657D02*
X038759Y003503D01*
X038989Y003350D01*
X038452Y003810D02*
X038299Y003657D01*
X037955Y004000D02*
X037649Y004000D01*
X037802Y004000D02*
X037802Y004460D01*
X037649Y004307D01*
X036498Y003528D02*
X036498Y003355D01*
X036411Y003268D01*
X036238Y003355D02*
X036238Y003528D01*
X036325Y003615D01*
X036411Y003615D01*
X036498Y003528D01*
X036238Y003355D02*
X036151Y003268D01*
X036065Y003268D01*
X035978Y003355D01*
X035978Y003528D01*
X036065Y003615D01*
X035978Y003099D02*
X035978Y002752D01*
X035978Y002926D02*
X036498Y002926D01*
X036498Y002584D02*
X036325Y002410D01*
X036325Y002497D02*
X036325Y002237D01*
X036498Y002237D02*
X035978Y002237D01*
X035978Y002497D01*
X036065Y002584D01*
X036238Y002584D01*
X036325Y002497D01*
X033349Y002497D02*
X033262Y002584D01*
X033349Y002497D02*
X033349Y002323D01*
X033262Y002237D01*
X032915Y002237D01*
X032828Y002323D01*
X032828Y002497D01*
X032915Y002584D01*
X032828Y002752D02*
X032828Y003099D01*
X032828Y002926D02*
X033349Y002926D01*
X033262Y003268D02*
X033349Y003355D01*
X033349Y003528D01*
X033262Y003615D01*
X033175Y003615D01*
X033088Y003528D01*
X033088Y003355D01*
X033002Y003268D01*
X032915Y003268D01*
X032828Y003355D01*
X032828Y003528D01*
X032915Y003615D01*
X028200Y004745D02*
X027969Y004898D01*
X028200Y005052D01*
X027969Y005205D02*
X027969Y004745D01*
X027816Y004745D02*
X027509Y004745D01*
X027816Y005052D01*
X027816Y005129D01*
X027739Y005205D01*
X027586Y005205D01*
X027509Y005129D01*
X027356Y004822D02*
X027356Y004745D01*
X027279Y004745D01*
X027279Y004822D01*
X027356Y004822D01*
X027125Y004745D02*
X026819Y004745D01*
X027125Y005052D01*
X027125Y005129D01*
X027049Y005205D01*
X026895Y005205D01*
X026819Y005129D01*
X019480Y003480D02*
X019174Y003480D01*
X019327Y003327D02*
X019327Y003634D01*
X017008Y005330D02*
X016855Y005330D01*
X016701Y005330D02*
X016701Y005100D01*
X016855Y005100D02*
X016855Y005560D01*
X017161Y005560D01*
X016701Y005330D02*
X016624Y005407D01*
X016394Y005407D01*
X016394Y005100D01*
X016241Y005177D02*
X016164Y005100D01*
X016011Y005100D01*
X015934Y005177D01*
X016241Y005484D01*
X016241Y005177D01*
X016241Y005484D02*
X016164Y005560D01*
X016011Y005560D01*
X015934Y005484D01*
X015934Y005177D01*
X015780Y005100D02*
X015474Y005100D01*
X015627Y005100D02*
X015627Y005560D01*
X015474Y005407D01*
X015384Y001310D02*
X015384Y000850D01*
X015384Y001003D02*
X015614Y000850D01*
X015384Y001003D02*
X015614Y001157D01*
X015230Y000850D02*
X014924Y000850D01*
X015077Y000850D02*
X015077Y001310D01*
X014924Y001157D01*
X012064Y001157D02*
X011834Y001003D01*
X012064Y000850D01*
X011834Y000850D02*
X011834Y001310D01*
X011527Y001310D02*
X011374Y001157D01*
X011527Y001310D02*
X011527Y000850D01*
X011374Y000850D02*
X011680Y000850D01*
X018374Y000850D02*
X018680Y000850D01*
X018527Y000850D02*
X018527Y001310D01*
X018374Y001157D01*
X018834Y001310D02*
X018834Y000850D01*
X018834Y001003D02*
X019064Y000850D01*
X018834Y001003D02*
X019064Y001157D01*
X021874Y001157D02*
X022027Y001310D01*
X022027Y000850D01*
X021874Y000850D02*
X022180Y000850D01*
X022334Y000850D02*
X022334Y001310D01*
X022564Y001157D02*
X022334Y001003D01*
X022564Y000850D01*
X041649Y002305D02*
X041763Y002202D01*
X041871Y002208D01*
X042076Y002436D01*
X042071Y002544D01*
X041957Y002647D01*
X041848Y002641D01*
X041643Y002413D01*
X041649Y002305D01*
X041934Y002048D02*
X042242Y002390D01*
X042162Y001843D01*
X042470Y002185D01*
X042812Y001877D02*
X042276Y001740D01*
X042669Y001489D02*
X042875Y001717D01*
X042983Y001723D01*
X043097Y001620D01*
X043103Y001512D01*
X042897Y001284D01*
X042789Y001278D01*
X042675Y001381D01*
X042669Y001489D01*
X042960Y001124D02*
X043268Y001466D01*
X043496Y001261D01*
X043610Y001158D02*
X043838Y000953D01*
X043570Y000884D02*
X043456Y000987D01*
X043302Y000816D02*
X043610Y001158D01*
X043228Y001192D02*
X043114Y001295D01*
X043767Y001833D02*
X043881Y001730D01*
X043989Y001736D01*
X043767Y001833D02*
X043761Y001941D01*
X043967Y002169D01*
X044075Y002175D01*
X044189Y002072D01*
X044195Y001964D01*
X043853Y002272D02*
X043847Y002380D01*
X043733Y002483D01*
X043625Y002477D01*
X043419Y002249D01*
X043425Y002141D01*
X043539Y002038D01*
X043647Y002044D01*
X043853Y002272D01*
X043511Y002580D02*
X043505Y002688D01*
X043391Y002791D01*
X043283Y002785D01*
X043231Y002728D01*
X043237Y002620D01*
X043351Y002517D01*
X043357Y002409D01*
X043305Y002352D01*
X043197Y002346D01*
X043083Y002449D01*
X043077Y002557D01*
X042963Y002660D02*
X042855Y002654D01*
X042741Y002757D01*
X042735Y002865D01*
X042570Y002911D02*
X042775Y003139D01*
X042764Y003356D01*
X042547Y003344D01*
X042342Y003116D01*
X042496Y003287D02*
X042724Y003082D01*
X042889Y003036D02*
X042895Y002928D01*
X043009Y002825D01*
X043015Y002717D01*
X042963Y002660D01*
X043169Y002888D02*
X043163Y002996D01*
X043049Y003099D01*
X042941Y003093D01*
X042889Y003036D01*
X057874Y003700D02*
X058180Y003700D01*
X058027Y003700D02*
X058027Y004160D01*
X057874Y004007D01*
X058334Y004160D02*
X058334Y003700D01*
X058334Y003853D02*
X058564Y003700D01*
X058334Y003853D02*
X058564Y004007D01*
X058564Y004800D02*
X058334Y004953D01*
X058564Y005107D01*
X058564Y005350D02*
X058334Y005503D01*
X058564Y005657D01*
X058334Y005810D02*
X058334Y005350D01*
X058334Y005260D02*
X058334Y004800D01*
X058180Y004800D02*
X057874Y004800D01*
X058027Y004800D02*
X058027Y005260D01*
X057874Y005107D01*
X057874Y005350D02*
X058180Y005350D01*
X058027Y005350D02*
X058027Y005810D01*
X057874Y005657D01*
X058923Y007150D02*
X059153Y007150D01*
X059077Y007303D01*
X059077Y007380D01*
X059153Y007457D01*
X059307Y007457D01*
X059384Y007380D01*
X059384Y007227D01*
X059307Y007150D01*
X058923Y007150D02*
X058923Y007457D01*
X059077Y007610D02*
X058923Y007764D01*
X059384Y007764D01*
X059384Y007917D02*
X059384Y007610D01*
X059227Y008327D02*
X059227Y008634D01*
X059074Y008480D02*
X059380Y008480D01*
X059430Y009273D02*
X059124Y009273D01*
X067374Y009065D02*
X067374Y008989D01*
X067527Y008835D01*
X067527Y008605D01*
X067527Y008835D02*
X067680Y008989D01*
X067680Y009065D01*
X067680Y009605D02*
X067374Y010065D01*
X067680Y010065D02*
X067374Y009605D01*
X069524Y009655D02*
X069830Y010115D01*
X069524Y010115D02*
X069830Y009655D01*
X069830Y009115D02*
X069830Y009039D01*
X069677Y008885D01*
X069677Y008655D01*
X069677Y008885D02*
X069524Y009039D01*
X069524Y009115D01*
X069524Y008165D02*
X069830Y008165D01*
X069830Y008089D01*
X069524Y007782D01*
X069524Y007705D01*
X069830Y007705D01*
X067680Y007655D02*
X067374Y007655D01*
X067374Y007732D01*
X067680Y008039D01*
X067680Y008115D01*
X067374Y008115D01*
X078174Y010355D02*
X078480Y010355D01*
X078327Y010355D02*
X078327Y010815D01*
X078174Y010662D01*
X078634Y010739D02*
X078634Y010432D01*
X078941Y010739D01*
X078941Y010432D01*
X078864Y010355D01*
X078711Y010355D01*
X078634Y010432D01*
X078634Y010739D02*
X078711Y010815D01*
X078864Y010815D01*
X078941Y010739D01*
X079094Y010662D02*
X079324Y010662D01*
X079401Y010585D01*
X079401Y010355D01*
X079555Y010355D02*
X079555Y010815D01*
X079861Y010815D01*
X079708Y010585D02*
X079555Y010585D01*
X079094Y010662D02*
X079094Y010355D01*
X069380Y012978D02*
X069074Y012978D01*
X069074Y013555D02*
X069074Y013862D01*
X069227Y014015D01*
X069380Y013862D01*
X069380Y013555D01*
X069380Y013785D02*
X069074Y013785D01*
X067634Y013892D02*
X067634Y014045D01*
X067557Y014122D01*
X067403Y014122D01*
X067327Y014045D01*
X067327Y013892D01*
X067403Y013815D01*
X067557Y013815D01*
X067634Y013892D01*
X067634Y013662D02*
X067173Y013662D01*
X067327Y013508D01*
X067173Y013355D01*
X067634Y013355D01*
X067327Y014276D02*
X067327Y014429D01*
X067250Y014352D02*
X067557Y014352D01*
X067634Y014429D01*
X067557Y014583D02*
X067634Y014659D01*
X067634Y014813D01*
X067557Y014889D01*
X067403Y014889D01*
X067327Y014813D01*
X067327Y014659D01*
X067403Y014583D01*
X067557Y014583D01*
X069074Y014635D02*
X069380Y014635D01*
X069227Y014482D02*
X069227Y014789D01*
X069124Y015155D02*
X069354Y015155D01*
X069430Y015232D01*
X069430Y015308D01*
X069354Y015385D01*
X069124Y015385D01*
X069354Y015385D02*
X069430Y015462D01*
X069430Y015539D01*
X069354Y015615D01*
X069124Y015615D01*
X069124Y015155D01*
X067634Y015043D02*
X067327Y015043D01*
X067480Y015043D02*
X067327Y015196D01*
X067327Y015273D01*
X055241Y020027D02*
X055164Y019950D01*
X055011Y019950D01*
X054934Y020027D01*
X055241Y020334D01*
X055241Y020027D01*
X055241Y020334D02*
X055164Y020410D01*
X055011Y020410D01*
X054934Y020334D01*
X054934Y020027D01*
X054780Y019950D02*
X054474Y019950D01*
X054627Y019950D02*
X054627Y020410D01*
X054474Y020257D01*
X048234Y020335D02*
X048157Y020258D01*
X047850Y020565D01*
X048157Y020565D01*
X048234Y020489D01*
X048234Y020335D01*
X048157Y020258D02*
X047850Y020258D01*
X047773Y020335D01*
X047773Y020489D01*
X047850Y020565D01*
X047850Y020719D02*
X047773Y020795D01*
X047773Y020949D01*
X047850Y021026D01*
X047927Y021026D01*
X048003Y020949D01*
X048080Y021026D01*
X048157Y021026D01*
X048234Y020949D01*
X048234Y020795D01*
X048157Y020719D01*
X048003Y020872D02*
X048003Y020949D01*
X047927Y021179D02*
X048157Y021179D01*
X048234Y021256D01*
X048234Y021486D01*
X047927Y021486D01*
X048003Y021639D02*
X048003Y021793D01*
X047773Y021639D02*
X047773Y021946D01*
X047773Y021639D02*
X048234Y021639D01*
X046984Y022778D02*
X046907Y022778D01*
X046907Y022855D01*
X046984Y022855D01*
X046984Y022778D01*
X046907Y023008D02*
X046600Y023315D01*
X046907Y023315D01*
X046984Y023239D01*
X046984Y023085D01*
X046907Y023008D01*
X046600Y023008D01*
X046523Y023085D01*
X046523Y023239D01*
X046600Y023315D01*
X046600Y023469D02*
X046523Y023545D01*
X046523Y023699D01*
X046600Y023776D01*
X046677Y023776D01*
X046753Y023699D01*
X046830Y023776D01*
X046907Y023776D01*
X046984Y023699D01*
X046984Y023545D01*
X046907Y023469D01*
X046753Y023622D02*
X046753Y023699D01*
X046677Y023929D02*
X046907Y023929D01*
X046984Y024006D01*
X046984Y024236D01*
X046677Y024236D01*
X046753Y024389D02*
X046753Y024543D01*
X046523Y024389D02*
X046523Y024696D01*
X046523Y024389D02*
X046984Y024389D01*
X046988Y025050D02*
X047193Y025050D01*
X047261Y025118D01*
X047261Y025187D01*
X047193Y025255D01*
X046988Y025255D01*
X047193Y025255D02*
X047261Y025324D01*
X047261Y025392D01*
X047193Y025460D01*
X046988Y025460D01*
X046988Y025050D01*
X046847Y025050D02*
X046574Y025050D01*
X046710Y025050D02*
X046710Y025460D01*
X046574Y025324D01*
X046574Y025550D02*
X046847Y025550D01*
X046988Y025618D02*
X047056Y025550D01*
X047193Y025550D01*
X047261Y025618D01*
X047261Y025687D01*
X047193Y025755D01*
X047056Y025755D01*
X046988Y025824D01*
X046988Y025892D01*
X047056Y025960D01*
X047193Y025960D01*
X047261Y025892D01*
X046847Y025960D02*
X046574Y025960D01*
X046574Y025550D01*
X046574Y025755D02*
X046710Y025755D01*
X045034Y026119D02*
X045034Y026426D01*
X045034Y026272D02*
X044573Y026272D01*
X044727Y026119D01*
X044484Y026215D02*
X044484Y025908D01*
X044177Y026215D01*
X044100Y026215D01*
X044023Y026139D01*
X044023Y025985D01*
X044100Y025908D01*
X043973Y025446D02*
X043973Y025139D01*
X044434Y025139D01*
X044523Y025140D02*
X044830Y025140D01*
X044984Y025293D01*
X044830Y025446D01*
X044523Y025446D01*
X044203Y025293D02*
X044203Y025139D01*
X044127Y024986D02*
X044434Y024986D01*
X044434Y024756D01*
X044357Y024679D01*
X044127Y024679D01*
X044434Y024526D02*
X044434Y024219D01*
X044434Y024372D02*
X043973Y024372D01*
X044127Y024219D01*
X044357Y024065D02*
X044434Y024065D01*
X044434Y023989D01*
X044357Y023989D01*
X044357Y024065D01*
X044523Y024449D02*
X044753Y024219D01*
X044753Y024526D01*
X044677Y024679D02*
X044600Y024679D01*
X044523Y024756D01*
X044523Y024909D01*
X044600Y024986D01*
X044677Y024986D01*
X044753Y024909D01*
X044753Y024756D01*
X044677Y024679D01*
X044753Y024756D02*
X044830Y024679D01*
X044907Y024679D01*
X044984Y024756D01*
X044984Y024909D01*
X044907Y024986D01*
X044830Y024986D01*
X044753Y024909D01*
X044984Y024449D02*
X044523Y024449D01*
X044629Y023710D02*
X044936Y023710D01*
X044783Y023480D02*
X044629Y023480D01*
X044476Y023557D02*
X044476Y023250D01*
X044246Y023250D01*
X044169Y023327D01*
X044169Y023557D01*
X043862Y023710D02*
X043862Y023250D01*
X043709Y023250D02*
X044016Y023250D01*
X043709Y023557D02*
X043862Y023710D01*
X043555Y023327D02*
X043555Y023250D01*
X043479Y023250D01*
X043479Y023327D01*
X043555Y023327D01*
X044629Y023250D02*
X044629Y023710D01*
X042261Y022710D02*
X041955Y022710D01*
X041955Y022250D01*
X041801Y022250D02*
X041801Y022557D01*
X041955Y022480D02*
X042108Y022480D01*
X041801Y022250D02*
X041571Y022250D01*
X041494Y022327D01*
X041494Y022557D01*
X041341Y022634D02*
X041034Y022327D01*
X041111Y022250D01*
X041264Y022250D01*
X041341Y022327D01*
X041341Y022634D01*
X041264Y022710D01*
X041111Y022710D01*
X041034Y022634D01*
X041034Y022327D01*
X040880Y022250D02*
X040574Y022250D01*
X040727Y022250D02*
X040727Y022710D01*
X040574Y022557D01*
X038731Y022010D02*
X038424Y022010D01*
X038424Y021550D01*
X038271Y021550D02*
X038271Y021857D01*
X038424Y021780D02*
X038578Y021780D01*
X038271Y021550D02*
X038041Y021550D01*
X037964Y021627D01*
X037964Y021857D01*
X037657Y022010D02*
X037504Y021857D01*
X037657Y022010D02*
X037657Y021550D01*
X037504Y021550D02*
X037811Y021550D01*
X037350Y021550D02*
X037274Y021550D01*
X037274Y021627D01*
X037350Y021627D01*
X037350Y021550D01*
X039474Y020807D02*
X039627Y020960D01*
X048157Y020105D02*
X048234Y020105D01*
X048234Y020028D01*
X048157Y020028D01*
X048157Y020105D01*
X044957Y026579D02*
X045034Y026656D01*
X045034Y026809D01*
X044957Y026886D01*
X044803Y026886D01*
X044727Y026809D01*
X044727Y026733D01*
X044803Y026579D01*
X044573Y026579D01*
X044573Y026886D01*
X044484Y026906D02*
X044484Y027136D01*
X044177Y027136D01*
X044253Y027289D02*
X044253Y027443D01*
X044023Y027289D02*
X044023Y027596D01*
X044023Y027289D02*
X044484Y027289D01*
X044573Y027346D02*
X044880Y027346D01*
X045034Y027193D01*
X044880Y027040D01*
X044573Y027040D01*
X044484Y026906D02*
X044407Y026829D01*
X044177Y026829D01*
X044177Y026676D02*
X044100Y026676D01*
X044023Y026599D01*
X044023Y026445D01*
X044100Y026369D01*
X044177Y026676D02*
X044484Y026369D01*
X044484Y026676D01*
X040745Y028760D02*
X040745Y029220D01*
X041051Y029220D01*
X040898Y028990D02*
X040745Y028990D01*
X040591Y029067D02*
X040591Y028760D01*
X040361Y028760D01*
X040284Y028837D01*
X040284Y029067D01*
X040131Y029067D02*
X040131Y029144D01*
X040054Y029220D01*
X039901Y029220D01*
X039824Y029144D01*
X039670Y029144D02*
X039594Y029220D01*
X039440Y029220D01*
X039364Y029144D01*
X039670Y029144D02*
X039670Y029067D01*
X039364Y028760D01*
X039670Y028760D01*
X039824Y028760D02*
X040131Y029067D01*
X040131Y028760D02*
X039824Y028760D01*
X040814Y029812D02*
X040890Y029735D01*
X041044Y029735D01*
X041120Y029812D01*
X041274Y029812D02*
X041351Y029888D01*
X041581Y029888D01*
X041581Y029965D02*
X041581Y029735D01*
X041351Y029735D01*
X041274Y029812D01*
X041351Y030042D02*
X041504Y030042D01*
X041581Y029965D01*
X041734Y030042D02*
X041964Y030042D01*
X042041Y029965D01*
X042041Y029812D01*
X041964Y029735D01*
X041734Y029735D01*
X041734Y029582D02*
X041734Y030042D01*
X041711Y030235D02*
X041634Y030312D01*
X041634Y030465D01*
X041711Y030542D01*
X041864Y030542D01*
X041941Y030465D01*
X041941Y030312D01*
X041864Y030235D01*
X041711Y030235D01*
X041480Y030235D02*
X041480Y030695D01*
X041327Y030542D01*
X041174Y030695D01*
X041174Y030235D01*
X041120Y030119D02*
X041044Y030195D01*
X040890Y030195D01*
X040814Y030119D01*
X040814Y029812D01*
X042195Y029812D02*
X042271Y029888D01*
X042501Y029888D01*
X042501Y029965D02*
X042501Y029735D01*
X042271Y029735D01*
X042195Y029812D01*
X042271Y030042D02*
X042425Y030042D01*
X042501Y029965D01*
X042655Y029965D02*
X042655Y029812D01*
X042732Y029735D01*
X042962Y029735D01*
X043115Y029735D02*
X043269Y029735D01*
X043192Y029735D02*
X043192Y030042D01*
X043115Y030042D01*
X042962Y030042D02*
X042732Y030042D01*
X042655Y029965D01*
X042631Y030235D02*
X042708Y030312D01*
X042708Y030465D01*
X042631Y030542D01*
X042478Y030542D01*
X042401Y030465D01*
X042401Y030312D01*
X042478Y030235D01*
X042631Y030235D01*
X042861Y030235D02*
X042861Y030542D01*
X042861Y030388D02*
X043015Y030542D01*
X043092Y030542D01*
X043192Y030272D02*
X043192Y030195D01*
X043422Y030042D02*
X043576Y030042D01*
X043499Y030119D02*
X043499Y029812D01*
X043576Y029735D01*
X043729Y029812D02*
X043806Y029735D01*
X043959Y029735D01*
X044036Y029812D01*
X044036Y029965D01*
X043959Y030042D01*
X043806Y030042D01*
X043729Y029965D01*
X043729Y029812D01*
X044189Y029888D02*
X044343Y030042D01*
X044420Y030042D01*
X044573Y029965D02*
X044650Y030042D01*
X044880Y030042D01*
X044803Y029888D02*
X044650Y029888D01*
X044573Y029965D01*
X044573Y029735D02*
X044803Y029735D01*
X044880Y029812D01*
X044803Y029888D01*
X044189Y029735D02*
X044189Y030042D01*
X042248Y030235D02*
X042171Y030312D01*
X042171Y030619D01*
X042094Y030542D02*
X042248Y030542D01*
X054624Y026657D02*
X054777Y026810D01*
X054777Y026350D01*
X054624Y026350D02*
X054930Y026350D01*
X055084Y026427D02*
X055391Y026734D01*
X055391Y026427D01*
X055314Y026350D01*
X055161Y026350D01*
X055084Y026427D01*
X055084Y026734D01*
X055161Y026810D01*
X055314Y026810D01*
X055391Y026734D01*
X093124Y017265D02*
X093124Y016805D01*
X093354Y016805D01*
X093430Y016882D01*
X093430Y016958D01*
X093354Y017035D01*
X093124Y017035D01*
X093354Y017035D02*
X093430Y017112D01*
X093430Y017189D01*
X093354Y017265D01*
X093124Y017265D01*
X095423Y016746D02*
X095884Y016746D01*
X092430Y012078D02*
X092124Y012078D01*
X092277Y011489D02*
X092277Y011182D01*
X092124Y011335D02*
X092430Y011335D01*
X089584Y010356D02*
X089123Y010356D01*
X089123Y010663D01*
X089353Y010509D02*
X089353Y010356D01*
X089277Y010202D02*
X089584Y010202D01*
X089584Y009972D01*
X089507Y009895D01*
X089277Y009895D01*
X089584Y009742D02*
X089584Y009435D01*
X089584Y009282D02*
X089584Y009205D01*
X089507Y009205D01*
X089507Y009282D01*
X089584Y009282D01*
X089584Y009589D02*
X089123Y009589D01*
X089277Y009435D01*
X093424Y009382D02*
X093500Y009305D01*
X093654Y009305D01*
X093730Y009382D01*
X093730Y009458D01*
X093654Y009535D01*
X093577Y009535D01*
X093654Y009535D02*
X093730Y009612D01*
X093730Y009689D01*
X093654Y009765D01*
X093500Y009765D01*
X093424Y009689D01*
X094344Y009765D02*
X094344Y009305D01*
X094651Y009305D01*
X094805Y009305D02*
X095111Y009305D01*
X095265Y009305D02*
X095495Y009305D01*
X095572Y009382D01*
X095572Y009689D01*
X095495Y009765D01*
X095265Y009765D01*
X095265Y009305D01*
X094958Y009535D02*
X094805Y009535D01*
X094805Y009765D02*
X094805Y009305D01*
X094805Y009765D02*
X095111Y009765D01*
X095725Y009535D02*
X095802Y009612D01*
X096032Y009612D01*
X095955Y009458D02*
X095802Y009458D01*
X095725Y009535D01*
X095725Y009305D02*
X095955Y009305D01*
X096032Y009382D01*
X095955Y009458D01*
X079964Y000637D02*
X079734Y000483D01*
X079964Y000330D01*
X079734Y000330D02*
X079734Y000790D01*
X079427Y000790D02*
X079427Y000330D01*
X079274Y000330D02*
X079580Y000330D01*
X079274Y000637D02*
X079427Y000790D01*
X076514Y000637D02*
X076284Y000483D01*
X076514Y000330D01*
X076284Y000330D02*
X076284Y000790D01*
X075977Y000790D02*
X075977Y000330D01*
X075824Y000330D02*
X076130Y000330D01*
X075824Y000637D02*
X075977Y000790D01*
X072964Y000637D02*
X072734Y000483D01*
X072964Y000330D01*
X072734Y000330D02*
X072734Y000790D01*
X072427Y000790D02*
X072427Y000330D01*
X072274Y000330D02*
X072580Y000330D01*
X072274Y000637D02*
X072427Y000790D01*
X069464Y000637D02*
X069234Y000483D01*
X069464Y000330D01*
X069234Y000330D02*
X069234Y000790D01*
X068927Y000790D02*
X068927Y000330D01*
X068774Y000330D02*
X069080Y000330D01*
X068774Y000637D02*
X068927Y000790D01*
X042551Y008437D02*
X042437Y008334D01*
X042329Y008340D01*
X042283Y008506D02*
X042397Y008608D01*
X042505Y008603D01*
X042557Y008546D01*
X042551Y008437D01*
X042283Y008506D02*
X042175Y008511D01*
X042123Y008568D01*
X042129Y008677D01*
X042243Y008779D01*
X042351Y008774D01*
X006884Y013771D02*
X006884Y014045D01*
X006884Y013908D02*
X006473Y013908D01*
X006610Y013771D01*
X006334Y013771D02*
X006334Y014045D01*
X006265Y014186D02*
X006334Y014254D01*
X006334Y014391D01*
X006265Y014459D01*
X006197Y014459D01*
X006128Y014391D01*
X006128Y014254D01*
X006060Y014186D01*
X005992Y014186D01*
X005923Y014254D01*
X005923Y014391D01*
X005992Y014459D01*
X005604Y014389D02*
X005373Y014389D01*
X005297Y014312D01*
X005297Y014082D01*
X005604Y014082D01*
X005680Y013929D02*
X005757Y013852D01*
X005757Y013775D01*
X005923Y013771D02*
X005923Y014045D01*
X006128Y013908D02*
X006128Y013771D01*
X005923Y013771D02*
X006334Y013771D01*
X006473Y014186D02*
X006473Y014391D01*
X006542Y014459D01*
X006610Y014459D01*
X006678Y014391D01*
X006678Y014186D01*
X006473Y014186D02*
X006884Y014186D01*
X006884Y014391D01*
X006815Y014459D01*
X006747Y014459D01*
X006678Y014391D01*
X005604Y014619D02*
X005527Y014543D01*
X005373Y014543D01*
X005297Y014619D01*
X005297Y014773D01*
X005373Y014849D01*
X005450Y014849D01*
X005450Y014543D01*
X005604Y014619D02*
X005604Y014773D01*
X005527Y015080D02*
X005604Y015156D01*
X005527Y015080D02*
X005220Y015080D01*
X005297Y015003D02*
X005297Y015156D01*
X005089Y015101D02*
X005089Y014948D01*
X005089Y015025D02*
X004628Y015025D01*
X004628Y014948D01*
X004782Y014718D02*
X004782Y014564D01*
X004858Y014487D01*
X005012Y014487D01*
X005089Y014564D01*
X005089Y014718D01*
X005012Y014794D01*
X004858Y014794D01*
X004782Y014718D01*
X004782Y014334D02*
X004782Y014257D01*
X004935Y014104D01*
X004782Y014104D02*
X005089Y014104D01*
X005089Y013950D02*
X005012Y013874D01*
X004705Y013874D01*
X004782Y013797D02*
X004782Y013950D01*
X006223Y016154D02*
X006377Y016307D01*
X006223Y016461D01*
X006684Y016461D01*
X006607Y016614D02*
X006530Y016691D01*
X006530Y016921D01*
X006453Y016921D02*
X006684Y016921D01*
X006684Y016691D01*
X006607Y016614D01*
X006377Y016691D02*
X006377Y016844D01*
X006453Y016921D01*
X006377Y017075D02*
X006377Y017305D01*
X006453Y017382D01*
X006684Y017382D01*
X006607Y017535D02*
X006530Y017612D01*
X006530Y017842D01*
X006453Y017842D02*
X006684Y017842D01*
X006684Y017612D01*
X006607Y017535D01*
X006377Y017612D02*
X006377Y017765D01*
X006453Y017842D01*
X006453Y017995D02*
X006607Y017995D01*
X006684Y018072D01*
X006684Y018302D01*
X006760Y018302D02*
X006377Y018302D01*
X006377Y018072D01*
X006453Y017995D01*
X006134Y017976D02*
X006134Y017822D01*
X006057Y017745D01*
X005903Y017745D01*
X005827Y017822D01*
X005827Y017976D01*
X005903Y018052D01*
X005980Y018052D01*
X005980Y017745D01*
X005827Y017592D02*
X005827Y017439D01*
X005750Y017515D02*
X006057Y017515D01*
X006134Y017592D01*
X006134Y017285D02*
X006057Y017208D01*
X005750Y017208D01*
X005827Y017132D02*
X005827Y017285D01*
X005903Y016978D02*
X005827Y016901D01*
X005827Y016748D01*
X005980Y016748D02*
X005980Y016978D01*
X005903Y016978D02*
X006134Y016978D01*
X006134Y016748D01*
X006057Y016671D01*
X005980Y016748D01*
X005980Y016518D02*
X006057Y016518D01*
X006134Y016441D01*
X006134Y016211D01*
X005673Y016211D01*
X005673Y016441D01*
X005750Y016518D01*
X005827Y016518D01*
X005903Y016441D01*
X005903Y016211D01*
X005903Y016441D02*
X005980Y016518D01*
X006377Y017075D02*
X006684Y017075D01*
X007023Y017393D02*
X007023Y017546D01*
X007023Y017470D02*
X007484Y017470D01*
X007484Y017546D02*
X007484Y017393D01*
X007407Y017990D02*
X007484Y018066D01*
X007484Y018220D01*
X007407Y018296D01*
X007407Y017990D02*
X007100Y017990D01*
X007023Y018066D01*
X007023Y018220D01*
X007100Y018296D01*
X006837Y018226D02*
X006760Y018302D01*
X006837Y018226D02*
X006837Y018149D01*
X006607Y018456D02*
X006453Y018456D01*
X006377Y018532D01*
X006377Y018686D01*
X006453Y018763D01*
X006530Y018763D01*
X006530Y018456D01*
X006607Y018456D02*
X006684Y018532D01*
X006684Y018686D01*
X006684Y018916D02*
X006377Y018916D01*
X006287Y018820D02*
X006287Y018743D01*
X006287Y018820D02*
X006210Y018896D01*
X005827Y018896D01*
X006134Y018896D02*
X006134Y018666D01*
X006057Y018589D01*
X005827Y018589D01*
X005827Y018436D02*
X005827Y018359D01*
X005980Y018206D01*
X005827Y018206D02*
X006134Y018206D01*
X006530Y018916D02*
X006377Y019070D01*
X006377Y019146D01*
X005251Y018800D02*
X004944Y018800D01*
X004944Y019260D01*
X004791Y019184D02*
X004714Y019260D01*
X004561Y019260D01*
X004484Y019184D01*
X004484Y018877D01*
X004561Y018800D01*
X004714Y018800D01*
X004791Y018877D01*
X004330Y018877D02*
X004254Y018800D01*
X004100Y018800D01*
X004024Y018877D01*
X004100Y019030D02*
X004254Y019030D01*
X004330Y018953D01*
X004330Y018877D01*
X004100Y019030D02*
X004024Y019107D01*
X004024Y019184D01*
X004100Y019260D01*
X004254Y019260D01*
X004330Y019184D01*
X004254Y017260D02*
X004100Y017260D01*
X004024Y017184D01*
X004024Y017107D01*
X004100Y017030D01*
X004254Y017030D01*
X004330Y016953D01*
X004330Y016877D01*
X004254Y016800D01*
X004100Y016800D01*
X004024Y016877D01*
X004330Y017184D02*
X004254Y017260D01*
X004484Y017260D02*
X004714Y017260D01*
X004791Y017184D01*
X004791Y016877D01*
X004714Y016800D01*
X004484Y016800D01*
X004484Y017260D01*
X004944Y017107D02*
X005098Y017260D01*
X005251Y017107D01*
X005251Y016800D01*
X005251Y017030D02*
X004944Y017030D01*
X004944Y017107D02*
X004944Y016800D01*
X006223Y016154D02*
X006684Y016154D01*
X005200Y010923D02*
X004894Y010923D01*
X014000Y024700D02*
X013924Y024777D01*
X014000Y024700D02*
X014154Y024700D01*
X014230Y024777D01*
X014230Y024853D01*
X014154Y024930D01*
X014077Y024930D01*
X014154Y024930D02*
X014230Y025007D01*
X014230Y025084D01*
X014154Y025160D01*
X014000Y025160D01*
X013924Y025084D01*
X015874Y025084D02*
X015950Y025160D01*
X016104Y025160D01*
X016180Y025084D01*
X016180Y025007D01*
X015874Y024700D01*
X016180Y024700D01*
D13*
X008004Y024380D02*
X008004Y024280D01*
X008004Y022180D02*
X008004Y022080D01*
X007144Y017851D02*
X007144Y017664D01*
X006957Y017851D01*
X006910Y017851D01*
X006863Y017804D01*
X006863Y017710D01*
X006910Y017664D01*
X008560Y015820D02*
X008514Y015773D01*
X008514Y015727D01*
X008560Y015680D01*
X008654Y015680D01*
X008700Y015633D01*
X008700Y015587D01*
X008654Y015540D01*
X008560Y015540D01*
X008514Y015587D01*
X008560Y015470D02*
X008514Y015423D01*
X008560Y015470D02*
X008654Y015470D01*
X008700Y015423D01*
X008700Y015377D01*
X008514Y015190D01*
X008700Y015190D01*
X008790Y015237D02*
X008836Y015190D01*
X008930Y015190D01*
X008977Y015237D01*
X008977Y015283D01*
X008930Y015330D01*
X008883Y015330D01*
X008930Y015330D02*
X008977Y015377D01*
X008977Y015423D01*
X008930Y015470D01*
X008836Y015470D01*
X008790Y015423D01*
X008836Y015540D02*
X008790Y015587D01*
X008790Y015773D01*
X008836Y015820D01*
X008930Y015820D01*
X008977Y015773D01*
X008977Y015587D01*
X008930Y015540D01*
X008836Y015540D01*
X009066Y015470D02*
X009253Y015470D01*
X009159Y015540D02*
X009159Y015820D01*
X009066Y015820D02*
X009253Y015820D01*
X009066Y015470D02*
X009066Y015190D01*
X009066Y015330D02*
X009159Y015330D01*
X008700Y015773D02*
X008654Y015820D01*
X008560Y015820D01*
X008960Y013920D02*
X008914Y013873D01*
X008914Y013827D01*
X008960Y013780D01*
X009054Y013780D01*
X009100Y013733D01*
X009100Y013687D01*
X009054Y013640D01*
X008960Y013640D01*
X008914Y013687D01*
X009000Y013570D02*
X008814Y013570D01*
X008814Y013290D01*
X009000Y013290D01*
X009090Y013337D02*
X009136Y013290D01*
X009230Y013290D01*
X009277Y013337D01*
X009366Y013430D02*
X009553Y013430D01*
X009642Y013430D02*
X009782Y013430D01*
X009829Y013383D01*
X009829Y013337D01*
X009782Y013290D01*
X009642Y013290D01*
X009642Y013570D01*
X009782Y013570D01*
X009829Y013523D01*
X009829Y013477D01*
X009782Y013430D01*
X009918Y013430D02*
X010105Y013430D01*
X010195Y013290D02*
X010288Y013290D01*
X010241Y013290D02*
X010241Y013570D01*
X010195Y013570D02*
X010288Y013570D01*
X010249Y013640D02*
X010203Y013687D01*
X010389Y013873D01*
X010389Y013687D01*
X010343Y013640D01*
X010249Y013640D01*
X010203Y013687D02*
X010203Y013873D01*
X010249Y013920D01*
X010343Y013920D01*
X010389Y013873D01*
X010425Y013570D02*
X010379Y013523D01*
X010379Y013477D01*
X010425Y013430D01*
X010519Y013430D01*
X010566Y013383D01*
X010566Y013337D01*
X010519Y013290D01*
X010425Y013290D01*
X010379Y013337D01*
X010425Y013570D02*
X010519Y013570D01*
X010566Y013523D01*
X010113Y013640D02*
X009926Y013640D01*
X010020Y013640D02*
X010020Y013920D01*
X009926Y013827D01*
X009837Y013920D02*
X009744Y013873D01*
X009650Y013780D01*
X009790Y013780D01*
X009837Y013733D01*
X009837Y013687D01*
X009790Y013640D01*
X009697Y013640D01*
X009650Y013687D01*
X009650Y013780D01*
X009561Y013733D02*
X009561Y013687D01*
X009514Y013640D01*
X009421Y013640D01*
X009374Y013687D01*
X009374Y013733D01*
X009421Y013780D01*
X009514Y013780D01*
X009561Y013733D01*
X009514Y013780D02*
X009561Y013827D01*
X009561Y013873D01*
X009514Y013920D01*
X009421Y013920D01*
X009374Y013873D01*
X009374Y013827D01*
X009421Y013780D01*
X009283Y013640D02*
X009190Y013640D01*
X009236Y013640D02*
X009236Y013920D01*
X009190Y013920D02*
X009283Y013920D01*
X009100Y013873D02*
X009054Y013920D01*
X008960Y013920D01*
X009136Y013570D02*
X009090Y013523D01*
X009090Y013337D01*
X008907Y013430D02*
X008814Y013430D01*
X009136Y013570D02*
X009230Y013570D01*
X009277Y013523D01*
X008004Y008280D02*
X008004Y008180D01*
X008004Y006080D02*
X008004Y005980D01*
X023564Y004913D02*
X023564Y004727D01*
X023610Y004680D01*
X023704Y004680D01*
X023750Y004727D01*
X023750Y004820D01*
X023657Y004820D01*
X023750Y004913D02*
X023704Y004960D01*
X023610Y004960D01*
X023564Y004913D01*
X023840Y004867D02*
X023840Y004727D01*
X023886Y004680D01*
X024027Y004680D01*
X024027Y004633D02*
X023980Y004587D01*
X023933Y004587D01*
X023886Y004517D02*
X023840Y004470D01*
X023840Y004377D01*
X023886Y004330D01*
X024027Y004330D01*
X024116Y004377D02*
X024163Y004330D01*
X024303Y004330D01*
X024392Y004377D02*
X024392Y004470D01*
X024439Y004517D01*
X024532Y004517D01*
X024579Y004470D01*
X024579Y004423D01*
X024392Y004423D01*
X024392Y004377D02*
X024439Y004330D01*
X024532Y004330D01*
X024668Y004330D02*
X024762Y004330D01*
X024715Y004330D02*
X024715Y004610D01*
X024668Y004610D01*
X024533Y004727D02*
X024533Y004820D01*
X024486Y004867D01*
X024393Y004867D01*
X024346Y004820D01*
X024346Y004727D01*
X024393Y004680D01*
X024486Y004680D01*
X024533Y004727D01*
X024256Y004867D02*
X024209Y004867D01*
X024116Y004773D01*
X024116Y004680D02*
X024116Y004867D01*
X024027Y004867D02*
X024027Y004633D01*
X024027Y004517D02*
X023886Y004517D01*
X023750Y004517D02*
X023750Y004330D01*
X023750Y004470D02*
X023564Y004470D01*
X023564Y004517D02*
X023657Y004610D01*
X023750Y004517D01*
X023564Y004517D02*
X023564Y004330D01*
X024116Y004377D02*
X024116Y004470D01*
X024163Y004517D01*
X024303Y004517D01*
X025700Y004465D02*
X025700Y004745D01*
X025793Y004652D01*
X025887Y004745D01*
X025887Y004465D01*
X025976Y004512D02*
X026023Y004558D01*
X026163Y004558D01*
X026163Y004605D02*
X026163Y004465D01*
X026023Y004465D01*
X025976Y004512D01*
X026023Y004652D02*
X026116Y004652D01*
X026163Y004605D01*
X026252Y004605D02*
X026252Y004512D01*
X026299Y004465D01*
X026439Y004465D01*
X026439Y004418D02*
X026439Y004652D01*
X026299Y004652D01*
X026252Y004605D01*
X026346Y004372D02*
X026392Y004372D01*
X026439Y004418D01*
X056304Y005980D02*
X056304Y006080D01*
X056304Y008180D02*
X056304Y008280D01*
X067364Y010345D02*
X067364Y010532D01*
X067457Y010625D01*
X067550Y010532D01*
X067550Y010345D01*
X067640Y010392D02*
X067686Y010345D01*
X067827Y010345D01*
X067916Y010392D02*
X067963Y010345D01*
X068103Y010345D01*
X068192Y010392D02*
X068192Y010485D01*
X068239Y010532D01*
X068332Y010532D01*
X068379Y010485D01*
X068379Y010438D01*
X068192Y010438D01*
X068192Y010392D02*
X068239Y010345D01*
X068332Y010345D01*
X068468Y010345D02*
X068562Y010345D01*
X068515Y010345D02*
X068515Y010625D01*
X068468Y010625D01*
X068333Y010792D02*
X068333Y010885D01*
X068286Y010932D01*
X068193Y010932D01*
X068146Y010885D01*
X068146Y010792D01*
X068193Y010745D01*
X068286Y010745D01*
X068333Y010792D01*
X068056Y010932D02*
X068009Y010932D01*
X067916Y010838D01*
X067916Y010745D02*
X067916Y010932D01*
X067827Y010932D02*
X067827Y010698D01*
X067780Y010652D01*
X067733Y010652D01*
X067686Y010745D02*
X067827Y010745D01*
X067686Y010745D02*
X067640Y010792D01*
X067640Y010932D01*
X067550Y010978D02*
X067504Y011025D01*
X067410Y011025D01*
X067364Y010978D01*
X067364Y010792D01*
X067410Y010745D01*
X067504Y010745D01*
X067550Y010792D01*
X067550Y010885D01*
X067457Y010885D01*
X067364Y010485D02*
X067550Y010485D01*
X067640Y010485D02*
X067640Y010392D01*
X067640Y010485D02*
X067686Y010532D01*
X067827Y010532D01*
X067916Y010485D02*
X067916Y010392D01*
X067916Y010485D02*
X067963Y010532D01*
X068103Y010532D01*
X069514Y010395D02*
X069514Y010675D01*
X069607Y010582D01*
X069700Y010675D01*
X069700Y010395D01*
X069790Y010442D02*
X069836Y010488D01*
X069977Y010488D01*
X069977Y010535D02*
X069977Y010395D01*
X069836Y010395D01*
X069790Y010442D01*
X069836Y010582D02*
X069930Y010582D01*
X069977Y010535D01*
X070066Y010535D02*
X070066Y010442D01*
X070113Y010395D01*
X070253Y010395D01*
X070253Y010348D02*
X070253Y010582D01*
X070113Y010582D01*
X070066Y010535D01*
X070159Y010302D02*
X070206Y010302D01*
X070253Y010348D01*
X070454Y006835D02*
X070454Y006735D01*
X070454Y004635D02*
X070454Y004535D01*
X070557Y003128D02*
X070557Y002942D01*
X070464Y003035D02*
X070650Y003035D01*
X074014Y003035D02*
X074200Y003035D01*
X074107Y003128D02*
X074107Y002942D01*
X077464Y003035D02*
X077650Y003035D01*
X077557Y003128D02*
X077557Y002942D01*
X067150Y003035D02*
X066964Y003035D01*
X067057Y003128D02*
X067057Y002942D01*
X092204Y004535D02*
X092204Y004635D01*
X092204Y006735D02*
X092204Y006835D01*
X077906Y016785D02*
X077719Y016785D01*
X077629Y016785D02*
X077443Y016785D01*
X077629Y016972D01*
X077629Y017018D01*
X077583Y017065D01*
X077489Y017065D01*
X077443Y017018D01*
X077353Y017018D02*
X077306Y017065D01*
X077213Y017065D01*
X077166Y017018D01*
X077077Y017018D02*
X076890Y016832D01*
X076890Y016785D01*
X076801Y016832D02*
X076754Y016785D01*
X076661Y016785D01*
X076614Y016832D01*
X076614Y017018D01*
X076661Y017065D01*
X076754Y017065D01*
X076801Y017018D01*
X076801Y016832D01*
X076890Y017065D02*
X077077Y017065D01*
X077077Y017018D01*
X077166Y016785D02*
X077353Y016972D01*
X077353Y017018D01*
X077353Y016785D02*
X077166Y016785D01*
X077719Y016972D02*
X077812Y017065D01*
X077812Y016785D01*
X076524Y016832D02*
X076478Y016785D01*
X076384Y016785D01*
X076338Y016832D01*
X076247Y016785D02*
X076154Y016785D01*
X076200Y016785D02*
X076200Y017065D01*
X076154Y017065D02*
X076247Y017065D01*
X076338Y017018D02*
X076338Y016972D01*
X076384Y016925D01*
X076478Y016925D01*
X076524Y016878D01*
X076524Y016832D01*
X076524Y017018D02*
X076478Y017065D01*
X076384Y017065D01*
X076338Y017018D01*
X076410Y019095D02*
X076364Y019142D01*
X076410Y019095D02*
X076504Y019095D01*
X076550Y019142D01*
X076550Y019235D01*
X076504Y019282D01*
X076457Y019282D01*
X076364Y019235D01*
X076364Y019375D01*
X076550Y019375D01*
X078364Y019235D02*
X078504Y019235D01*
X078550Y019188D01*
X078550Y019142D01*
X078504Y019095D01*
X078410Y019095D01*
X078364Y019142D01*
X078364Y019235D01*
X078457Y019328D01*
X078550Y019375D01*
X080364Y019325D02*
X080550Y019325D01*
X080550Y019278D01*
X080364Y019092D01*
X080364Y019045D01*
X074550Y019285D02*
X074364Y019285D01*
X074504Y019425D01*
X074504Y019145D01*
X090563Y022826D02*
X090610Y022780D01*
X090657Y022780D01*
X090703Y022826D01*
X090703Y022920D01*
X090750Y022966D01*
X090797Y022966D01*
X090844Y022920D01*
X090844Y022826D01*
X090797Y022780D01*
X090963Y022840D02*
X090963Y022653D01*
X091244Y022653D01*
X091244Y022840D01*
X091197Y022930D02*
X091244Y022976D01*
X091244Y023070D01*
X091197Y023116D01*
X091103Y023206D02*
X091103Y023393D01*
X091103Y023482D02*
X091103Y023622D01*
X091150Y023669D01*
X091197Y023669D01*
X091244Y023622D01*
X091244Y023482D01*
X090963Y023482D01*
X090963Y023622D01*
X091010Y023669D01*
X091057Y023669D01*
X091103Y023622D01*
X091103Y023758D02*
X091103Y023945D01*
X090963Y024035D02*
X090963Y024128D01*
X090963Y024081D02*
X091244Y024081D01*
X091244Y024035D02*
X091244Y024128D01*
X091197Y024219D02*
X091244Y024265D01*
X091244Y024359D01*
X091197Y024405D01*
X091150Y024405D01*
X091103Y024359D01*
X091103Y024265D01*
X091057Y024219D01*
X091010Y024219D01*
X090963Y024265D01*
X090963Y024359D01*
X091010Y024405D01*
X090844Y024209D02*
X090844Y024115D01*
X090797Y024069D01*
X090610Y024255D01*
X090797Y024255D01*
X090844Y024209D01*
X090797Y024069D02*
X090610Y024069D01*
X090563Y024115D01*
X090563Y024209D01*
X090610Y024255D01*
X090844Y023979D02*
X090844Y023792D01*
X090844Y023886D02*
X090563Y023886D01*
X090657Y023792D01*
X090750Y023703D02*
X090703Y023656D01*
X090703Y023516D01*
X090797Y023516D01*
X090844Y023563D01*
X090844Y023656D01*
X090797Y023703D01*
X090750Y023703D01*
X090610Y023610D02*
X090703Y023516D01*
X090657Y023427D02*
X090703Y023380D01*
X090703Y023287D01*
X090657Y023240D01*
X090610Y023240D01*
X090563Y023287D01*
X090563Y023380D01*
X090610Y023427D01*
X090657Y023427D01*
X090703Y023380D02*
X090750Y023427D01*
X090797Y023427D01*
X090844Y023380D01*
X090844Y023287D01*
X090797Y023240D01*
X090750Y023240D01*
X090703Y023287D01*
X090563Y023149D02*
X090563Y023056D01*
X090563Y023103D02*
X090844Y023103D01*
X090844Y023149D02*
X090844Y023056D01*
X090963Y023070D02*
X090963Y022976D01*
X091010Y022930D01*
X091197Y022930D01*
X091103Y022747D02*
X091103Y022653D01*
X090963Y023070D02*
X091010Y023116D01*
X090610Y022966D02*
X090563Y022920D01*
X090563Y022826D01*
X090610Y023610D02*
X090563Y023703D01*
X092204Y024535D02*
X092204Y024635D01*
X092204Y026735D02*
X092204Y026835D01*
X090566Y028095D02*
X090566Y028375D01*
X090753Y028375D01*
X090659Y028495D02*
X090659Y028775D01*
X090566Y028775D02*
X090753Y028775D01*
X090477Y028728D02*
X090430Y028775D01*
X090336Y028775D01*
X090290Y028728D01*
X090290Y028542D01*
X090336Y028495D01*
X090430Y028495D01*
X090477Y028542D01*
X090477Y028728D01*
X090200Y028728D02*
X090154Y028775D01*
X090060Y028775D01*
X090014Y028728D01*
X090014Y028682D01*
X090060Y028635D01*
X090154Y028635D01*
X090200Y028588D01*
X090200Y028542D01*
X090154Y028495D01*
X090060Y028495D01*
X090014Y028542D01*
X090060Y028375D02*
X090014Y028328D01*
X090060Y028375D02*
X090154Y028375D01*
X090200Y028328D01*
X090200Y028282D01*
X090014Y028095D01*
X090200Y028095D01*
X090290Y028142D02*
X090336Y028095D01*
X090430Y028095D01*
X090477Y028142D01*
X090477Y028188D01*
X090430Y028235D01*
X090383Y028235D01*
X090430Y028235D02*
X090477Y028282D01*
X090477Y028328D01*
X090430Y028375D01*
X090336Y028375D01*
X090290Y028328D01*
X090566Y028235D02*
X090659Y028235D01*
X080694Y029242D02*
X080647Y029195D01*
X080694Y029242D02*
X080694Y029335D01*
X080647Y029382D01*
X080600Y029382D01*
X080553Y029335D01*
X080553Y029288D01*
X080553Y029335D02*
X080507Y029382D01*
X080460Y029382D01*
X080413Y029335D01*
X080413Y029242D01*
X080460Y029195D01*
X080194Y029292D02*
X080147Y029245D01*
X080194Y029292D02*
X080194Y029385D01*
X080147Y029432D01*
X080100Y029432D01*
X080053Y029385D01*
X080053Y029292D01*
X080007Y029245D01*
X079960Y029245D01*
X079913Y029292D01*
X079913Y029385D01*
X079960Y029432D01*
X079913Y029521D02*
X080194Y029521D01*
X080100Y029521D02*
X079913Y029708D01*
X080053Y029568D02*
X080194Y029708D01*
X080413Y029611D02*
X080553Y029471D01*
X080553Y029658D01*
X080553Y029747D02*
X080553Y029934D01*
X080507Y029934D02*
X080694Y029934D01*
X080694Y029747D02*
X080507Y029747D01*
X080413Y029841D01*
X080507Y029934D01*
X080413Y029611D02*
X080694Y029611D01*
X080457Y027275D02*
X080457Y026995D01*
X080364Y026995D02*
X080550Y026995D01*
X080364Y027182D02*
X080457Y027275D01*
X076600Y027178D02*
X076554Y027225D01*
X076460Y027225D01*
X076414Y027178D01*
X076600Y027178D02*
X076600Y027132D01*
X076414Y026945D01*
X076600Y026945D01*
X074600Y026942D02*
X074554Y026895D01*
X074460Y026895D01*
X074414Y026942D01*
X074507Y027035D02*
X074554Y027035D01*
X074600Y026988D01*
X074600Y026942D01*
X074554Y027035D02*
X074600Y027082D01*
X074600Y027128D01*
X074554Y027175D01*
X074460Y027175D01*
X074414Y027128D01*
X070454Y026835D02*
X070454Y026735D01*
X070454Y024635D02*
X070454Y024535D01*
X038347Y019685D02*
X038347Y019405D01*
X038347Y019545D02*
X038160Y019545D01*
X038160Y019405D02*
X038160Y019685D01*
X037977Y019685D02*
X037977Y019405D01*
X037884Y019405D02*
X038070Y019405D01*
X038150Y019190D02*
X038150Y018910D01*
X038337Y018910D01*
X038060Y018910D02*
X037874Y018910D01*
X037967Y018910D02*
X037967Y019190D01*
X037874Y019097D01*
X037884Y019592D02*
X037977Y019685D01*
X034877Y019620D02*
X034877Y019340D01*
X034877Y019480D02*
X034690Y019480D01*
X034690Y019340D02*
X034690Y019620D01*
X034507Y019620D02*
X034507Y019340D01*
X034414Y019340D02*
X034600Y019340D01*
X034690Y019120D02*
X034690Y018840D01*
X034877Y018840D01*
X034600Y018840D02*
X034414Y018840D01*
X034507Y018840D02*
X034507Y019120D01*
X034414Y019027D01*
X034460Y018620D02*
X034414Y018573D01*
X034460Y018620D02*
X034554Y018620D01*
X034600Y018573D01*
X034600Y018527D01*
X034414Y018340D01*
X034600Y018340D01*
X034690Y018340D02*
X034877Y018340D01*
X034877Y018170D02*
X034877Y017890D01*
X034877Y018030D02*
X034690Y018030D01*
X034600Y018077D02*
X034600Y018123D01*
X034554Y018170D01*
X034460Y018170D01*
X034414Y018123D01*
X034600Y018077D02*
X034414Y017890D01*
X034600Y017890D01*
X034690Y017890D02*
X034690Y018170D01*
X034690Y018340D02*
X034690Y018620D01*
X034414Y019527D02*
X034507Y019620D01*
X037864Y018623D02*
X037910Y018670D01*
X038004Y018670D01*
X038050Y018623D01*
X038050Y018577D01*
X037864Y018390D01*
X038050Y018390D01*
X038140Y018390D02*
X038140Y018670D01*
X038140Y018390D02*
X038327Y018390D01*
X038327Y018170D02*
X038327Y017890D01*
X038327Y018030D02*
X038140Y018030D01*
X038050Y018077D02*
X038050Y018123D01*
X038004Y018170D01*
X037910Y018170D01*
X037864Y018123D01*
X038050Y018077D02*
X037864Y017890D01*
X038050Y017890D01*
X038140Y017890D02*
X038140Y018170D01*
X038140Y017670D02*
X038140Y017390D01*
X038327Y017390D01*
X038327Y017170D02*
X038327Y016890D01*
X038327Y017030D02*
X038140Y017030D01*
X038050Y016983D02*
X038050Y016937D01*
X038004Y016890D01*
X037910Y016890D01*
X037864Y016937D01*
X037957Y017030D02*
X038004Y017030D01*
X038050Y016983D01*
X038004Y017030D02*
X038050Y017077D01*
X038050Y017123D01*
X038004Y017170D01*
X037910Y017170D01*
X037864Y017123D01*
X037910Y017390D02*
X037864Y017437D01*
X037910Y017390D02*
X038004Y017390D01*
X038050Y017437D01*
X038050Y017483D01*
X038004Y017530D01*
X037957Y017530D01*
X038004Y017530D02*
X038050Y017577D01*
X038050Y017623D01*
X038004Y017670D01*
X037910Y017670D01*
X037864Y017623D01*
X038140Y017170D02*
X038140Y016890D01*
X034877Y016840D02*
X034877Y017120D01*
X034877Y016980D02*
X034690Y016980D01*
X034600Y016933D02*
X034600Y016887D01*
X034554Y016840D01*
X034460Y016840D01*
X034414Y016887D01*
X034507Y016980D02*
X034554Y016980D01*
X034600Y016933D01*
X034554Y016980D02*
X034600Y017027D01*
X034600Y017073D01*
X034554Y017120D01*
X034460Y017120D01*
X034414Y017073D01*
X034460Y017340D02*
X034414Y017387D01*
X034460Y017340D02*
X034554Y017340D01*
X034600Y017387D01*
X034600Y017433D01*
X034554Y017480D01*
X034507Y017480D01*
X034554Y017480D02*
X034600Y017527D01*
X034600Y017573D01*
X034554Y017620D01*
X034460Y017620D01*
X034414Y017573D01*
X034690Y017620D02*
X034690Y017340D01*
X034877Y017340D01*
X034690Y017120D02*
X034690Y016840D01*
X013124Y027942D02*
X013077Y027895D01*
X013124Y027942D02*
X013124Y028035D01*
X013077Y028082D01*
X013030Y028082D01*
X012983Y028035D01*
X012983Y027942D01*
X012937Y027895D01*
X012890Y027895D01*
X012843Y027942D01*
X012843Y028035D01*
X012890Y028082D01*
X012843Y028171D02*
X012937Y028265D01*
X012843Y028358D01*
X013124Y028358D01*
X013124Y028447D02*
X013124Y028588D01*
X013077Y028634D01*
X013030Y028634D01*
X012983Y028588D01*
X012983Y028447D01*
X012843Y028447D02*
X012843Y028588D01*
X012890Y028634D01*
X012937Y028634D01*
X012983Y028588D01*
X012843Y028447D02*
X013124Y028447D01*
X013124Y028171D02*
X012843Y028171D01*
X013593Y028187D02*
X013593Y028000D01*
X013733Y028000D01*
X013687Y028093D01*
X013687Y028140D01*
X013733Y028187D01*
X013827Y028187D01*
X013874Y028140D01*
X013874Y028047D01*
X013827Y028000D01*
X013827Y028276D02*
X013874Y028323D01*
X013874Y028416D01*
X013827Y028463D01*
X013640Y028463D01*
X013593Y028416D01*
X013593Y028323D01*
X013640Y028276D01*
X013687Y028276D01*
X013733Y028323D01*
X013733Y028463D01*
X013640Y028552D02*
X013593Y028599D01*
X013593Y028693D01*
X013640Y028739D01*
X013687Y028739D01*
X013874Y028552D01*
X013874Y028739D01*
D14*
X070504Y009935D02*
X070604Y010185D01*
X070704Y009935D01*
X070504Y009935D01*
X070604Y010135D02*
X070604Y009535D01*
X070859Y008940D02*
X070859Y008730D01*
X071104Y008835D01*
X070859Y008940D01*
X071104Y008835D02*
X070304Y008835D01*
X068904Y008835D02*
X068739Y008775D01*
X068869Y008635D01*
X068904Y008835D01*
X068654Y009135D02*
X068454Y009135D01*
X068554Y009335D01*
X068654Y009135D01*
X068554Y009285D02*
X068554Y008485D01*
X068854Y008685D02*
X068852Y008720D01*
X068846Y008755D01*
X068837Y008789D01*
X068824Y008821D01*
X068807Y008853D01*
X068788Y008882D01*
X068765Y008909D01*
X068739Y008933D01*
X068711Y008954D01*
X068681Y008972D01*
X068649Y008987D01*
X068616Y008998D01*
X068582Y009006D01*
X068547Y009010D01*
X068511Y009010D01*
X068476Y009006D01*
X068442Y008998D01*
X068409Y008987D01*
X068377Y008972D01*
X068347Y008954D01*
X068319Y008933D01*
X068293Y008909D01*
X068270Y008882D01*
X068251Y008853D01*
X068234Y008821D01*
X068221Y008789D01*
X068212Y008755D01*
X068206Y008720D01*
X068204Y008685D01*
X068404Y009425D02*
X068389Y009570D01*
X068204Y009485D01*
X068404Y009425D01*
X068854Y009735D02*
X069054Y009835D01*
X068854Y009935D01*
X068854Y009735D01*
X069054Y009835D02*
X068104Y009835D01*
X068354Y009485D02*
X068391Y009487D01*
X068427Y009493D01*
X068462Y009502D01*
X068496Y009515D01*
X068529Y009532D01*
X068560Y009552D01*
X068588Y009575D01*
X068614Y009601D01*
X068637Y009629D01*
X068657Y009660D01*
X068674Y009693D01*
X068687Y009727D01*
X068696Y009762D01*
X068702Y009798D01*
X068704Y009835D01*
X068702Y009872D01*
X068696Y009908D01*
X068687Y009943D01*
X068674Y009977D01*
X068657Y010010D01*
X068637Y010041D01*
X068614Y010069D01*
X068588Y010095D01*
X068560Y010118D01*
X068529Y010138D01*
X068496Y010155D01*
X068462Y010168D01*
X068427Y010177D01*
X068391Y010183D01*
X068354Y010185D01*
X068504Y007935D02*
X068506Y007948D01*
X068511Y007961D01*
X068520Y007972D01*
X068531Y007979D01*
X068544Y007984D01*
X068557Y007985D01*
X068571Y007982D01*
X068583Y007976D01*
X068593Y007967D01*
X068600Y007955D01*
X068604Y007942D01*
X068604Y007928D01*
X068600Y007915D01*
X068593Y007903D01*
X068583Y007894D01*
X068571Y007888D01*
X068557Y007885D01*
X068544Y007886D01*
X068531Y007891D01*
X068520Y007898D01*
X068511Y007909D01*
X068506Y007922D01*
X068504Y007935D01*
X068234Y007935D02*
X068236Y007970D01*
X068242Y008005D01*
X068251Y008039D01*
X068265Y008072D01*
X068281Y008103D01*
X068301Y008132D01*
X068325Y008158D01*
X068351Y008182D01*
X068379Y008203D01*
X068410Y008221D01*
X068442Y008235D01*
X068475Y008245D01*
X068510Y008252D01*
X068545Y008255D01*
X068580Y008254D01*
X068615Y008249D01*
X068650Y008240D01*
X068683Y008228D01*
X068714Y008212D01*
X068744Y008193D01*
X068771Y008170D01*
X068795Y008145D01*
X068817Y008117D01*
X068835Y008087D01*
X068850Y008055D01*
X068862Y008022D01*
X068870Y007988D01*
X068874Y007953D01*
X068874Y007917D01*
X068870Y007882D01*
X068862Y007848D01*
X068850Y007815D01*
X068835Y007783D01*
X068817Y007753D01*
X068795Y007725D01*
X068771Y007700D01*
X068744Y007677D01*
X068714Y007658D01*
X068683Y007642D01*
X068650Y007630D01*
X068615Y007621D01*
X068580Y007616D01*
X068545Y007615D01*
X068510Y007618D01*
X068475Y007625D01*
X068442Y007635D01*
X068410Y007649D01*
X068379Y007667D01*
X068351Y007688D01*
X068325Y007712D01*
X068301Y007738D01*
X068281Y007767D01*
X068265Y007798D01*
X068251Y007831D01*
X068242Y007865D01*
X068236Y007900D01*
X068234Y007935D01*
X068054Y007935D02*
X068055Y007891D01*
X068061Y007848D01*
X068070Y007805D01*
X068082Y007763D01*
X068099Y007722D01*
X068118Y007682D01*
X068142Y007645D01*
X068168Y007610D01*
X068197Y007577D01*
X068229Y007547D01*
X068264Y007520D01*
X068301Y007496D01*
X068339Y007475D01*
X068380Y007458D01*
X068422Y007444D01*
X068464Y007434D01*
X068508Y007428D01*
X068552Y007425D01*
X068596Y007426D01*
X068639Y007432D01*
X068682Y007441D01*
X068724Y007453D01*
X068765Y007470D01*
X068805Y007489D01*
X068842Y007513D01*
X068877Y007539D01*
X068910Y007568D01*
X068940Y007600D01*
X068967Y007635D01*
X068991Y007672D01*
X069012Y007710D01*
X069029Y007751D01*
X069043Y007793D01*
X069053Y007835D01*
X069054Y007835D02*
X068954Y007685D01*
X069054Y007585D01*
X069054Y007835D01*
X070354Y008135D02*
X070404Y008135D01*
X070804Y007735D01*
X070284Y007935D02*
X070286Y007970D01*
X070292Y008005D01*
X070301Y008039D01*
X070315Y008072D01*
X070331Y008103D01*
X070351Y008132D01*
X070375Y008158D01*
X070401Y008182D01*
X070429Y008203D01*
X070460Y008221D01*
X070492Y008235D01*
X070525Y008245D01*
X070560Y008252D01*
X070595Y008255D01*
X070630Y008254D01*
X070665Y008249D01*
X070700Y008240D01*
X070733Y008228D01*
X070764Y008212D01*
X070794Y008193D01*
X070821Y008170D01*
X070845Y008145D01*
X070867Y008117D01*
X070885Y008087D01*
X070900Y008055D01*
X070912Y008022D01*
X070920Y007988D01*
X070924Y007953D01*
X070924Y007917D01*
X070920Y007882D01*
X070912Y007848D01*
X070900Y007815D01*
X070885Y007783D01*
X070867Y007753D01*
X070845Y007725D01*
X070821Y007700D01*
X070794Y007677D01*
X070764Y007658D01*
X070733Y007642D01*
X070700Y007630D01*
X070665Y007621D01*
X070630Y007616D01*
X070595Y007615D01*
X070560Y007618D01*
X070525Y007625D01*
X070492Y007635D01*
X070460Y007649D01*
X070429Y007667D01*
X070401Y007688D01*
X070375Y007712D01*
X070351Y007738D01*
X070331Y007767D01*
X070315Y007798D01*
X070301Y007831D01*
X070292Y007865D01*
X070286Y007900D01*
X070284Y007935D01*
X070404Y007735D02*
X070804Y008135D01*
X070854Y008135D01*
X036627Y005680D02*
X036627Y005497D01*
X035893Y005497D01*
X035893Y005680D02*
X036077Y005864D01*
X036444Y005864D01*
X036627Y005680D01*
X036444Y005130D02*
X036077Y005130D01*
X035893Y005313D01*
X035893Y005680D01*
X035522Y005680D02*
X035522Y005497D01*
X034788Y005497D01*
X034788Y005680D02*
X034972Y005864D01*
X035339Y005864D01*
X035522Y005680D01*
X035339Y005130D02*
X034972Y005130D01*
X034788Y005313D01*
X034788Y005680D01*
X034417Y005497D02*
X034417Y005313D01*
X034234Y005130D01*
X033683Y005130D01*
X033683Y006231D01*
X034234Y006231D01*
X034417Y006047D01*
X034417Y005864D01*
X034234Y005680D01*
X033683Y005680D01*
X034234Y005680D02*
X034417Y005497D01*
X033312Y005130D02*
X032579Y006231D01*
X033312Y006231D02*
X032579Y005130D01*
X026539Y004010D02*
X026439Y004210D01*
X026339Y004010D01*
X026539Y004010D01*
X026439Y004210D02*
X026439Y003610D01*
X026689Y003160D02*
X026689Y002960D01*
X026939Y003060D01*
X026689Y003160D01*
X026939Y003060D02*
X026139Y003060D01*
X024964Y002920D02*
X024819Y002825D01*
X024964Y002705D01*
X024964Y002920D01*
X024714Y003205D02*
X024614Y003505D01*
X024514Y003205D01*
X024714Y003205D01*
X024614Y003505D02*
X024614Y002555D01*
X024964Y002705D02*
X024960Y002741D01*
X024952Y002776D01*
X024940Y002811D01*
X024925Y002844D01*
X024906Y002875D01*
X024884Y002904D01*
X024860Y002931D01*
X024833Y002955D01*
X024803Y002976D01*
X024772Y002994D01*
X024738Y003008D01*
X024704Y003019D01*
X024668Y003027D01*
X024632Y003031D01*
X024596Y003031D01*
X024560Y003027D01*
X024524Y003019D01*
X024490Y003008D01*
X024456Y002994D01*
X024425Y002976D01*
X024395Y002955D01*
X024368Y002931D01*
X024344Y002904D01*
X024322Y002875D01*
X024303Y002844D01*
X024288Y002811D01*
X024276Y002776D01*
X024268Y002741D01*
X024264Y002705D01*
X024564Y002005D02*
X024566Y002018D01*
X024571Y002031D01*
X024580Y002042D01*
X024591Y002049D01*
X024604Y002054D01*
X024617Y002055D01*
X024631Y002052D01*
X024643Y002046D01*
X024653Y002037D01*
X024660Y002025D01*
X024664Y002012D01*
X024664Y001998D01*
X024660Y001985D01*
X024653Y001973D01*
X024643Y001964D01*
X024631Y001958D01*
X024617Y001955D01*
X024604Y001956D01*
X024591Y001961D01*
X024580Y001968D01*
X024571Y001979D01*
X024566Y001992D01*
X024564Y002005D01*
X024253Y002005D02*
X024255Y002043D01*
X024261Y002080D01*
X024271Y002117D01*
X024284Y002152D01*
X024301Y002185D01*
X024322Y002217D01*
X024346Y002247D01*
X024372Y002273D01*
X024402Y002297D01*
X024433Y002318D01*
X024467Y002335D01*
X024502Y002348D01*
X024539Y002358D01*
X024576Y002364D01*
X024614Y002366D01*
X024652Y002364D01*
X024689Y002358D01*
X024726Y002348D01*
X024761Y002335D01*
X024794Y002318D01*
X024826Y002297D01*
X024856Y002273D01*
X024882Y002247D01*
X024906Y002217D01*
X024927Y002186D01*
X024944Y002152D01*
X024957Y002117D01*
X024967Y002080D01*
X024973Y002043D01*
X024975Y002005D01*
X024973Y001967D01*
X024967Y001930D01*
X024957Y001893D01*
X024944Y001858D01*
X024927Y001825D01*
X024906Y001793D01*
X024882Y001763D01*
X024856Y001737D01*
X024826Y001713D01*
X024795Y001692D01*
X024761Y001675D01*
X024726Y001662D01*
X024689Y001652D01*
X024652Y001646D01*
X024614Y001644D01*
X024576Y001646D01*
X024539Y001652D01*
X024502Y001662D01*
X024467Y001675D01*
X024434Y001692D01*
X024402Y001713D01*
X024372Y001737D01*
X024346Y001763D01*
X024322Y001793D01*
X024301Y001824D01*
X024284Y001858D01*
X024271Y001893D01*
X024261Y001930D01*
X024255Y001967D01*
X024253Y002005D01*
X024088Y001940D02*
X024092Y001895D01*
X024100Y001851D01*
X024111Y001808D01*
X024125Y001766D01*
X024144Y001725D01*
X024165Y001686D01*
X024190Y001649D01*
X024218Y001614D01*
X024249Y001581D01*
X024283Y001552D01*
X024318Y001525D01*
X024356Y001501D01*
X024396Y001481D01*
X024438Y001464D01*
X024481Y001451D01*
X024524Y001441D01*
X024569Y001435D01*
X024613Y001433D01*
X024658Y001435D01*
X024702Y001440D01*
X024746Y001449D01*
X024789Y001462D01*
X024831Y001479D01*
X024871Y001499D01*
X024909Y001522D01*
X024945Y001548D01*
X024979Y001577D01*
X025010Y001610D01*
X025038Y001644D01*
X025064Y001681D01*
X025086Y001720D01*
X025105Y001761D01*
X025120Y001803D01*
X025131Y001846D01*
X025139Y001890D01*
X025139Y001900D02*
X025134Y001899D01*
X025131Y001896D01*
X025130Y001896D02*
X025039Y001785D01*
X025027Y001771D02*
X025124Y001620D01*
X025139Y001895D01*
X025038Y001785D02*
X025034Y001777D01*
X025027Y001772D01*
X026189Y001760D02*
X026689Y002260D01*
X026078Y002010D02*
X026080Y002048D01*
X026086Y002085D01*
X026096Y002122D01*
X026109Y002157D01*
X026126Y002190D01*
X026147Y002222D01*
X026171Y002252D01*
X026197Y002278D01*
X026227Y002302D01*
X026258Y002323D01*
X026292Y002340D01*
X026327Y002353D01*
X026364Y002363D01*
X026401Y002369D01*
X026439Y002371D01*
X026477Y002369D01*
X026514Y002363D01*
X026551Y002353D01*
X026586Y002340D01*
X026619Y002323D01*
X026651Y002302D01*
X026681Y002278D01*
X026707Y002252D01*
X026731Y002222D01*
X026752Y002191D01*
X026769Y002157D01*
X026782Y002122D01*
X026792Y002085D01*
X026798Y002048D01*
X026800Y002010D01*
X026798Y001972D01*
X026792Y001935D01*
X026782Y001898D01*
X026769Y001863D01*
X026752Y001830D01*
X026731Y001798D01*
X026707Y001768D01*
X026681Y001742D01*
X026651Y001718D01*
X026620Y001697D01*
X026586Y001680D01*
X026551Y001667D01*
X026514Y001657D01*
X026477Y001651D01*
X026439Y001649D01*
X026401Y001651D01*
X026364Y001657D01*
X026327Y001667D01*
X026292Y001680D01*
X026259Y001697D01*
X026227Y001718D01*
X026197Y001742D01*
X026171Y001768D01*
X026147Y001798D01*
X026126Y001829D01*
X026109Y001863D01*
X026096Y001898D01*
X026086Y001935D01*
X026080Y001972D01*
X026078Y002010D01*
X026189Y002260D02*
X026689Y001760D01*
X024519Y003640D02*
X024364Y003655D01*
X024464Y003755D01*
X024364Y003655D02*
X024396Y003657D01*
X024427Y003662D01*
X024458Y003672D01*
X024487Y003684D01*
X024515Y003700D01*
X024541Y003719D01*
X024564Y003741D01*
X024585Y003766D01*
X024602Y003792D01*
X024617Y003821D01*
X024627Y003851D01*
X024635Y003882D01*
X024639Y003914D01*
X024639Y003946D01*
X024635Y003978D01*
X024627Y004009D01*
X024617Y004039D01*
X024602Y004067D01*
X024585Y004094D01*
X024564Y004119D01*
X024541Y004141D01*
X024515Y004160D01*
X024487Y004176D01*
X024458Y004188D01*
X024427Y004198D01*
X024396Y004203D01*
X024364Y004205D01*
X024214Y003955D02*
X025114Y003955D01*
X024864Y003855D01*
X024864Y004055D01*
X025114Y003955D01*
D15*
X025534Y003775D02*
X025814Y004195D01*
X025534Y004195D02*
X025814Y003775D01*
X025814Y003295D02*
X025814Y003225D01*
X025674Y003085D01*
X025674Y002875D01*
X025674Y003085D02*
X025534Y003225D01*
X025534Y003295D01*
X023824Y003270D02*
X023824Y003200D01*
X023684Y003060D01*
X023684Y002850D01*
X023684Y003060D02*
X023544Y003200D01*
X023544Y003270D01*
X023544Y003755D02*
X023824Y004175D01*
X023544Y004175D02*
X023824Y003755D01*
X023809Y002120D02*
X023809Y002050D01*
X023529Y001770D01*
X023529Y001700D01*
X023809Y001700D01*
X023809Y002120D02*
X023529Y002120D01*
X025534Y002145D02*
X025814Y002145D01*
X025814Y002075D01*
X025534Y001795D01*
X025534Y001725D01*
X025814Y001725D01*
X031499Y000937D02*
X031499Y010583D01*
X031794Y010583D01*
X031794Y009599D01*
X039865Y009599D01*
X039865Y010583D01*
X031794Y010583D01*
X030154Y009880D02*
X030154Y009380D01*
X029904Y009130D01*
X029404Y009130D01*
X029154Y009380D01*
X028904Y009130D01*
X028404Y009130D01*
X028154Y009380D01*
X027904Y009130D01*
X027404Y009130D01*
X027154Y009380D01*
X026904Y009130D01*
X026404Y009130D01*
X026154Y009380D01*
X025904Y009130D01*
X025404Y009130D01*
X025154Y009380D01*
X025154Y009880D01*
X025404Y010130D01*
X025904Y010130D01*
X026154Y009880D01*
X026404Y010130D01*
X026904Y010130D01*
X027154Y009880D01*
X027404Y010130D01*
X027904Y010130D01*
X028154Y009880D01*
X028404Y010130D01*
X028904Y010130D01*
X029154Y009880D01*
X029404Y010130D01*
X029904Y010130D01*
X030154Y009880D01*
X042128Y008004D02*
X042365Y007728D01*
X042365Y003791D01*
X042128Y003516D01*
X039865Y001921D02*
X031794Y001921D01*
X031794Y000937D01*
X031499Y000937D01*
X031794Y000937D02*
X039865Y000937D01*
X039865Y001921D01*
X055713Y007130D02*
X055715Y007178D01*
X055721Y007226D01*
X055731Y007273D01*
X055744Y007319D01*
X055762Y007364D01*
X055782Y007408D01*
X055807Y007450D01*
X055835Y007489D01*
X055865Y007526D01*
X055899Y007560D01*
X055936Y007592D01*
X055974Y007621D01*
X056015Y007646D01*
X056058Y007668D01*
X056103Y007686D01*
X056149Y007700D01*
X056196Y007711D01*
X056244Y007718D01*
X056292Y007721D01*
X056340Y007720D01*
X056388Y007715D01*
X056436Y007706D01*
X056482Y007694D01*
X056527Y007677D01*
X056571Y007657D01*
X056613Y007634D01*
X056653Y007607D01*
X056691Y007577D01*
X056726Y007544D01*
X056758Y007508D01*
X056788Y007470D01*
X056814Y007429D01*
X056836Y007386D01*
X056856Y007342D01*
X056871Y007297D01*
X056883Y007250D01*
X056891Y007202D01*
X056895Y007154D01*
X056895Y007106D01*
X056891Y007058D01*
X056883Y007010D01*
X056871Y006963D01*
X056856Y006918D01*
X056836Y006874D01*
X056814Y006831D01*
X056788Y006790D01*
X056758Y006752D01*
X056726Y006716D01*
X056691Y006683D01*
X056653Y006653D01*
X056613Y006626D01*
X056571Y006603D01*
X056527Y006583D01*
X056482Y006566D01*
X056436Y006554D01*
X056388Y006545D01*
X056340Y006540D01*
X056292Y006539D01*
X056244Y006542D01*
X056196Y006549D01*
X056149Y006560D01*
X056103Y006574D01*
X056058Y006592D01*
X056015Y006614D01*
X055974Y006639D01*
X055936Y006668D01*
X055899Y006700D01*
X055865Y006734D01*
X055835Y006771D01*
X055807Y006810D01*
X055782Y006852D01*
X055762Y006896D01*
X055744Y006941D01*
X055731Y006987D01*
X055721Y007034D01*
X055715Y007082D01*
X055713Y007130D01*
X069863Y005685D02*
X069865Y005733D01*
X069871Y005781D01*
X069881Y005828D01*
X069894Y005874D01*
X069912Y005919D01*
X069932Y005963D01*
X069957Y006005D01*
X069985Y006044D01*
X070015Y006081D01*
X070049Y006115D01*
X070086Y006147D01*
X070124Y006176D01*
X070165Y006201D01*
X070208Y006223D01*
X070253Y006241D01*
X070299Y006255D01*
X070346Y006266D01*
X070394Y006273D01*
X070442Y006276D01*
X070490Y006275D01*
X070538Y006270D01*
X070586Y006261D01*
X070632Y006249D01*
X070677Y006232D01*
X070721Y006212D01*
X070763Y006189D01*
X070803Y006162D01*
X070841Y006132D01*
X070876Y006099D01*
X070908Y006063D01*
X070938Y006025D01*
X070964Y005984D01*
X070986Y005941D01*
X071006Y005897D01*
X071021Y005852D01*
X071033Y005805D01*
X071041Y005757D01*
X071045Y005709D01*
X071045Y005661D01*
X071041Y005613D01*
X071033Y005565D01*
X071021Y005518D01*
X071006Y005473D01*
X070986Y005429D01*
X070964Y005386D01*
X070938Y005345D01*
X070908Y005307D01*
X070876Y005271D01*
X070841Y005238D01*
X070803Y005208D01*
X070763Y005181D01*
X070721Y005158D01*
X070677Y005138D01*
X070632Y005121D01*
X070586Y005109D01*
X070538Y005100D01*
X070490Y005095D01*
X070442Y005094D01*
X070394Y005097D01*
X070346Y005104D01*
X070299Y005115D01*
X070253Y005129D01*
X070208Y005147D01*
X070165Y005169D01*
X070124Y005194D01*
X070086Y005223D01*
X070049Y005255D01*
X070015Y005289D01*
X069985Y005326D01*
X069957Y005365D01*
X069932Y005407D01*
X069912Y005451D01*
X069894Y005496D01*
X069881Y005542D01*
X069871Y005589D01*
X069865Y005637D01*
X069863Y005685D01*
X091613Y005685D02*
X091615Y005733D01*
X091621Y005781D01*
X091631Y005828D01*
X091644Y005874D01*
X091662Y005919D01*
X091682Y005963D01*
X091707Y006005D01*
X091735Y006044D01*
X091765Y006081D01*
X091799Y006115D01*
X091836Y006147D01*
X091874Y006176D01*
X091915Y006201D01*
X091958Y006223D01*
X092003Y006241D01*
X092049Y006255D01*
X092096Y006266D01*
X092144Y006273D01*
X092192Y006276D01*
X092240Y006275D01*
X092288Y006270D01*
X092336Y006261D01*
X092382Y006249D01*
X092427Y006232D01*
X092471Y006212D01*
X092513Y006189D01*
X092553Y006162D01*
X092591Y006132D01*
X092626Y006099D01*
X092658Y006063D01*
X092688Y006025D01*
X092714Y005984D01*
X092736Y005941D01*
X092756Y005897D01*
X092771Y005852D01*
X092783Y005805D01*
X092791Y005757D01*
X092795Y005709D01*
X092795Y005661D01*
X092791Y005613D01*
X092783Y005565D01*
X092771Y005518D01*
X092756Y005473D01*
X092736Y005429D01*
X092714Y005386D01*
X092688Y005345D01*
X092658Y005307D01*
X092626Y005271D01*
X092591Y005238D01*
X092553Y005208D01*
X092513Y005181D01*
X092471Y005158D01*
X092427Y005138D01*
X092382Y005121D01*
X092336Y005109D01*
X092288Y005100D01*
X092240Y005095D01*
X092192Y005094D01*
X092144Y005097D01*
X092096Y005104D01*
X092049Y005115D01*
X092003Y005129D01*
X091958Y005147D01*
X091915Y005169D01*
X091874Y005194D01*
X091836Y005223D01*
X091799Y005255D01*
X091765Y005289D01*
X091735Y005326D01*
X091707Y005365D01*
X091682Y005407D01*
X091662Y005451D01*
X091644Y005496D01*
X091631Y005542D01*
X091621Y005589D01*
X091615Y005637D01*
X091613Y005685D01*
X093654Y005435D02*
X093654Y005935D01*
X093904Y006185D01*
X093654Y006435D01*
X093654Y006935D01*
X093904Y007185D01*
X093654Y007435D01*
X093654Y007935D01*
X093904Y008185D01*
X094404Y008185D01*
X094654Y007935D01*
X094654Y007435D01*
X094404Y007185D01*
X094654Y006935D01*
X094654Y006435D01*
X094404Y006185D01*
X094654Y005935D01*
X094654Y005435D01*
X094404Y005185D01*
X094654Y004935D01*
X094654Y004435D01*
X094404Y004185D01*
X094654Y003935D01*
X094654Y003435D01*
X094404Y003185D01*
X093904Y003185D01*
X093654Y003435D01*
X093654Y003935D01*
X093904Y004185D01*
X093654Y004435D01*
X093654Y004935D01*
X093904Y005185D01*
X093654Y005435D01*
X094954Y002485D02*
X094704Y002235D01*
X094704Y001735D01*
X094954Y001485D01*
X095454Y001485D01*
X095704Y001735D01*
X095704Y002235D01*
X095454Y002485D01*
X094954Y002485D01*
X053054Y013990D02*
X050833Y013990D01*
X049009Y014355D02*
X047198Y014355D01*
X047198Y014536D01*
X048497Y014536D02*
X048497Y015324D01*
X049009Y015324D02*
X049009Y015505D01*
X047198Y015505D01*
X047198Y015324D01*
X049009Y014536D02*
X049009Y014355D01*
X053054Y013990D02*
X053054Y016570D01*
X050833Y016570D01*
X048109Y017155D02*
X046298Y017155D01*
X046298Y017336D01*
X047597Y017336D02*
X047597Y018124D01*
X048109Y018124D02*
X048109Y018305D01*
X046298Y018305D01*
X046298Y018124D01*
X048109Y017336D02*
X048109Y017155D01*
X050833Y020490D02*
X053054Y020490D01*
X053054Y023070D01*
X050833Y023070D01*
X047959Y024905D02*
X046148Y024905D01*
X046148Y025086D01*
X047447Y025086D02*
X047447Y025874D01*
X047959Y025874D02*
X047959Y026055D01*
X046148Y026055D01*
X046148Y025874D01*
X047959Y025086D02*
X047959Y024905D01*
X050833Y027190D02*
X053054Y027190D01*
X053054Y029770D01*
X050833Y029770D01*
X059861Y023993D02*
X059863Y024043D01*
X059869Y024093D01*
X059879Y024142D01*
X059893Y024190D01*
X059910Y024237D01*
X059931Y024282D01*
X059956Y024326D01*
X059984Y024367D01*
X060016Y024406D01*
X060050Y024443D01*
X060087Y024477D01*
X060127Y024507D01*
X060169Y024534D01*
X060213Y024558D01*
X060259Y024579D01*
X060306Y024595D01*
X060354Y024608D01*
X060404Y024617D01*
X060453Y024622D01*
X060504Y024623D01*
X060554Y024620D01*
X060603Y024613D01*
X060652Y024602D01*
X060700Y024587D01*
X060746Y024569D01*
X060791Y024547D01*
X060834Y024521D01*
X060875Y024492D01*
X060914Y024460D01*
X060950Y024425D01*
X060982Y024387D01*
X061012Y024347D01*
X061039Y024304D01*
X061062Y024260D01*
X061081Y024214D01*
X061097Y024166D01*
X061109Y024117D01*
X061117Y024068D01*
X061121Y024018D01*
X061121Y023968D01*
X061117Y023918D01*
X061109Y023869D01*
X061097Y023820D01*
X061081Y023772D01*
X061062Y023726D01*
X061039Y023682D01*
X061012Y023639D01*
X060982Y023599D01*
X060950Y023561D01*
X060914Y023526D01*
X060875Y023494D01*
X060834Y023465D01*
X060791Y023439D01*
X060746Y023417D01*
X060700Y023399D01*
X060652Y023384D01*
X060603Y023373D01*
X060554Y023366D01*
X060504Y023363D01*
X060453Y023364D01*
X060404Y023369D01*
X060354Y023378D01*
X060306Y023391D01*
X060259Y023407D01*
X060213Y023428D01*
X060169Y023452D01*
X060127Y023479D01*
X060087Y023509D01*
X060050Y023543D01*
X060016Y023580D01*
X059984Y023619D01*
X059956Y023660D01*
X059931Y023704D01*
X059910Y023749D01*
X059893Y023796D01*
X059879Y023844D01*
X059869Y023893D01*
X059863Y023943D01*
X059861Y023993D01*
X061516Y021127D02*
X061518Y021177D01*
X061524Y021227D01*
X061534Y021276D01*
X061548Y021324D01*
X061565Y021371D01*
X061586Y021416D01*
X061611Y021460D01*
X061639Y021501D01*
X061671Y021540D01*
X061705Y021577D01*
X061742Y021611D01*
X061782Y021641D01*
X061824Y021668D01*
X061868Y021692D01*
X061914Y021713D01*
X061961Y021729D01*
X062009Y021742D01*
X062059Y021751D01*
X062108Y021756D01*
X062159Y021757D01*
X062209Y021754D01*
X062258Y021747D01*
X062307Y021736D01*
X062355Y021721D01*
X062401Y021703D01*
X062446Y021681D01*
X062489Y021655D01*
X062530Y021626D01*
X062569Y021594D01*
X062605Y021559D01*
X062637Y021521D01*
X062667Y021481D01*
X062694Y021438D01*
X062717Y021394D01*
X062736Y021348D01*
X062752Y021300D01*
X062764Y021251D01*
X062772Y021202D01*
X062776Y021152D01*
X062776Y021102D01*
X062772Y021052D01*
X062764Y021003D01*
X062752Y020954D01*
X062736Y020906D01*
X062717Y020860D01*
X062694Y020816D01*
X062667Y020773D01*
X062637Y020733D01*
X062605Y020695D01*
X062569Y020660D01*
X062530Y020628D01*
X062489Y020599D01*
X062446Y020573D01*
X062401Y020551D01*
X062355Y020533D01*
X062307Y020518D01*
X062258Y020507D01*
X062209Y020500D01*
X062159Y020497D01*
X062108Y020498D01*
X062059Y020503D01*
X062009Y020512D01*
X061961Y020525D01*
X061914Y020541D01*
X061868Y020562D01*
X061824Y020586D01*
X061782Y020613D01*
X061742Y020643D01*
X061705Y020677D01*
X061671Y020714D01*
X061639Y020753D01*
X061611Y020794D01*
X061586Y020838D01*
X061565Y020883D01*
X061548Y020930D01*
X061534Y020978D01*
X061524Y021027D01*
X061518Y021077D01*
X061516Y021127D01*
X069863Y025685D02*
X069865Y025733D01*
X069871Y025781D01*
X069881Y025828D01*
X069894Y025874D01*
X069912Y025919D01*
X069932Y025963D01*
X069957Y026005D01*
X069985Y026044D01*
X070015Y026081D01*
X070049Y026115D01*
X070086Y026147D01*
X070124Y026176D01*
X070165Y026201D01*
X070208Y026223D01*
X070253Y026241D01*
X070299Y026255D01*
X070346Y026266D01*
X070394Y026273D01*
X070442Y026276D01*
X070490Y026275D01*
X070538Y026270D01*
X070586Y026261D01*
X070632Y026249D01*
X070677Y026232D01*
X070721Y026212D01*
X070763Y026189D01*
X070803Y026162D01*
X070841Y026132D01*
X070876Y026099D01*
X070908Y026063D01*
X070938Y026025D01*
X070964Y025984D01*
X070986Y025941D01*
X071006Y025897D01*
X071021Y025852D01*
X071033Y025805D01*
X071041Y025757D01*
X071045Y025709D01*
X071045Y025661D01*
X071041Y025613D01*
X071033Y025565D01*
X071021Y025518D01*
X071006Y025473D01*
X070986Y025429D01*
X070964Y025386D01*
X070938Y025345D01*
X070908Y025307D01*
X070876Y025271D01*
X070841Y025238D01*
X070803Y025208D01*
X070763Y025181D01*
X070721Y025158D01*
X070677Y025138D01*
X070632Y025121D01*
X070586Y025109D01*
X070538Y025100D01*
X070490Y025095D01*
X070442Y025094D01*
X070394Y025097D01*
X070346Y025104D01*
X070299Y025115D01*
X070253Y025129D01*
X070208Y025147D01*
X070165Y025169D01*
X070124Y025194D01*
X070086Y025223D01*
X070049Y025255D01*
X070015Y025289D01*
X069985Y025326D01*
X069957Y025365D01*
X069932Y025407D01*
X069912Y025451D01*
X069894Y025496D01*
X069881Y025542D01*
X069871Y025589D01*
X069865Y025637D01*
X069863Y025685D01*
X079779Y028579D02*
X079779Y030390D01*
X079960Y030390D01*
X080747Y030390D02*
X080928Y030390D01*
X080928Y028579D01*
X080747Y028579D01*
X080747Y029091D02*
X079960Y029091D01*
X079960Y028579D02*
X079779Y028579D01*
X091879Y028279D02*
X091879Y030090D01*
X092060Y030090D01*
X092060Y029579D02*
X092847Y029579D01*
X092847Y030090D02*
X093028Y030090D01*
X093028Y028279D01*
X092847Y028279D01*
X092060Y028279D02*
X091879Y028279D01*
X091613Y025685D02*
X091615Y025733D01*
X091621Y025781D01*
X091631Y025828D01*
X091644Y025874D01*
X091662Y025919D01*
X091682Y025963D01*
X091707Y026005D01*
X091735Y026044D01*
X091765Y026081D01*
X091799Y026115D01*
X091836Y026147D01*
X091874Y026176D01*
X091915Y026201D01*
X091958Y026223D01*
X092003Y026241D01*
X092049Y026255D01*
X092096Y026266D01*
X092144Y026273D01*
X092192Y026276D01*
X092240Y026275D01*
X092288Y026270D01*
X092336Y026261D01*
X092382Y026249D01*
X092427Y026232D01*
X092471Y026212D01*
X092513Y026189D01*
X092553Y026162D01*
X092591Y026132D01*
X092626Y026099D01*
X092658Y026063D01*
X092688Y026025D01*
X092714Y025984D01*
X092736Y025941D01*
X092756Y025897D01*
X092771Y025852D01*
X092783Y025805D01*
X092791Y025757D01*
X092795Y025709D01*
X092795Y025661D01*
X092791Y025613D01*
X092783Y025565D01*
X092771Y025518D01*
X092756Y025473D01*
X092736Y025429D01*
X092714Y025386D01*
X092688Y025345D01*
X092658Y025307D01*
X092626Y025271D01*
X092591Y025238D01*
X092553Y025208D01*
X092513Y025181D01*
X092471Y025158D01*
X092427Y025138D01*
X092382Y025121D01*
X092336Y025109D01*
X092288Y025100D01*
X092240Y025095D01*
X092192Y025094D01*
X092144Y025097D01*
X092096Y025104D01*
X092049Y025115D01*
X092003Y025129D01*
X091958Y025147D01*
X091915Y025169D01*
X091874Y025194D01*
X091836Y025223D01*
X091799Y025255D01*
X091765Y025289D01*
X091735Y025326D01*
X091707Y025365D01*
X091682Y025407D01*
X091662Y025451D01*
X091644Y025496D01*
X091631Y025542D01*
X091621Y025589D01*
X091615Y025637D01*
X091613Y025685D01*
X083454Y021935D02*
X083454Y021435D01*
X083204Y021185D01*
X082704Y021185D01*
X082454Y021435D01*
X082454Y021935D01*
X082704Y022185D01*
X083204Y022185D01*
X083454Y021935D01*
X020488Y027074D02*
X020307Y027074D01*
X020488Y027074D02*
X020488Y028885D01*
X020307Y028885D01*
X019520Y028885D02*
X019339Y028885D01*
X019339Y027074D01*
X019520Y027074D01*
X019520Y027586D02*
X020307Y027586D01*
X014249Y027519D02*
X014249Y029330D01*
X014067Y029330D01*
X012880Y029330D02*
X012698Y029330D01*
X012698Y027519D01*
X012880Y027519D01*
X014067Y027519D02*
X014249Y027519D01*
X014067Y028819D02*
X012880Y028819D01*
X001775Y026230D02*
X001777Y026287D01*
X001783Y026344D01*
X001793Y026400D01*
X001806Y026456D01*
X001824Y026510D01*
X001845Y026563D01*
X001870Y026614D01*
X001898Y026664D01*
X001930Y026711D01*
X001964Y026757D01*
X002002Y026799D01*
X002043Y026839D01*
X002086Y026877D01*
X002132Y026911D01*
X002180Y026941D01*
X002230Y026969D01*
X002282Y026993D01*
X002336Y027013D01*
X002390Y027029D01*
X002446Y027042D01*
X002502Y027051D01*
X002559Y027056D01*
X002616Y027057D01*
X002673Y027054D01*
X002730Y027047D01*
X002786Y027036D01*
X002841Y027022D01*
X002895Y027003D01*
X002948Y026981D01*
X002999Y026956D01*
X003048Y026926D01*
X003095Y026894D01*
X003140Y026858D01*
X003182Y026820D01*
X003221Y026778D01*
X003257Y026734D01*
X003291Y026688D01*
X003321Y026639D01*
X003347Y026589D01*
X003370Y026537D01*
X003389Y026483D01*
X003405Y026428D01*
X003417Y026372D01*
X003425Y026315D01*
X003429Y026259D01*
X003429Y026201D01*
X003425Y026145D01*
X003417Y026088D01*
X003405Y026032D01*
X003389Y025977D01*
X003370Y025923D01*
X003347Y025871D01*
X003321Y025821D01*
X003291Y025772D01*
X003257Y025726D01*
X003221Y025682D01*
X003182Y025640D01*
X003140Y025602D01*
X003095Y025566D01*
X003048Y025534D01*
X002999Y025504D01*
X002948Y025479D01*
X002895Y025457D01*
X002841Y025438D01*
X002786Y025424D01*
X002730Y025413D01*
X002673Y025406D01*
X002616Y025403D01*
X002559Y025404D01*
X002502Y025409D01*
X002446Y025418D01*
X002390Y025431D01*
X002336Y025447D01*
X002282Y025467D01*
X002230Y025491D01*
X002180Y025519D01*
X002132Y025549D01*
X002086Y025583D01*
X002043Y025621D01*
X002002Y025661D01*
X001964Y025703D01*
X001930Y025749D01*
X001898Y025796D01*
X001870Y025846D01*
X001845Y025897D01*
X001824Y025950D01*
X001806Y026004D01*
X001793Y026060D01*
X001783Y026116D01*
X001777Y026173D01*
X001775Y026230D01*
X007413Y023230D02*
X007415Y023278D01*
X007421Y023326D01*
X007431Y023373D01*
X007444Y023419D01*
X007462Y023464D01*
X007482Y023508D01*
X007507Y023550D01*
X007535Y023589D01*
X007565Y023626D01*
X007599Y023660D01*
X007636Y023692D01*
X007674Y023721D01*
X007715Y023746D01*
X007758Y023768D01*
X007803Y023786D01*
X007849Y023800D01*
X007896Y023811D01*
X007944Y023818D01*
X007992Y023821D01*
X008040Y023820D01*
X008088Y023815D01*
X008136Y023806D01*
X008182Y023794D01*
X008227Y023777D01*
X008271Y023757D01*
X008313Y023734D01*
X008353Y023707D01*
X008391Y023677D01*
X008426Y023644D01*
X008458Y023608D01*
X008488Y023570D01*
X008514Y023529D01*
X008536Y023486D01*
X008556Y023442D01*
X008571Y023397D01*
X008583Y023350D01*
X008591Y023302D01*
X008595Y023254D01*
X008595Y023206D01*
X008591Y023158D01*
X008583Y023110D01*
X008571Y023063D01*
X008556Y023018D01*
X008536Y022974D01*
X008514Y022931D01*
X008488Y022890D01*
X008458Y022852D01*
X008426Y022816D01*
X008391Y022783D01*
X008353Y022753D01*
X008313Y022726D01*
X008271Y022703D01*
X008227Y022683D01*
X008182Y022666D01*
X008136Y022654D01*
X008088Y022645D01*
X008040Y022640D01*
X007992Y022639D01*
X007944Y022642D01*
X007896Y022649D01*
X007849Y022660D01*
X007803Y022674D01*
X007758Y022692D01*
X007715Y022714D01*
X007674Y022739D01*
X007636Y022768D01*
X007599Y022800D01*
X007565Y022834D01*
X007535Y022871D01*
X007507Y022910D01*
X007482Y022952D01*
X007462Y022996D01*
X007444Y023041D01*
X007431Y023087D01*
X007421Y023134D01*
X007415Y023182D01*
X007413Y023230D01*
X006978Y015135D02*
X006797Y015135D01*
X006978Y015135D02*
X006978Y013324D01*
X006797Y013324D01*
X006010Y013324D02*
X005829Y013324D01*
X005829Y015135D01*
X006010Y015135D01*
X006010Y014624D02*
X006797Y014624D01*
X007413Y007130D02*
X007415Y007178D01*
X007421Y007226D01*
X007431Y007273D01*
X007444Y007319D01*
X007462Y007364D01*
X007482Y007408D01*
X007507Y007450D01*
X007535Y007489D01*
X007565Y007526D01*
X007599Y007560D01*
X007636Y007592D01*
X007674Y007621D01*
X007715Y007646D01*
X007758Y007668D01*
X007803Y007686D01*
X007849Y007700D01*
X007896Y007711D01*
X007944Y007718D01*
X007992Y007721D01*
X008040Y007720D01*
X008088Y007715D01*
X008136Y007706D01*
X008182Y007694D01*
X008227Y007677D01*
X008271Y007657D01*
X008313Y007634D01*
X008353Y007607D01*
X008391Y007577D01*
X008426Y007544D01*
X008458Y007508D01*
X008488Y007470D01*
X008514Y007429D01*
X008536Y007386D01*
X008556Y007342D01*
X008571Y007297D01*
X008583Y007250D01*
X008591Y007202D01*
X008595Y007154D01*
X008595Y007106D01*
X008591Y007058D01*
X008583Y007010D01*
X008571Y006963D01*
X008556Y006918D01*
X008536Y006874D01*
X008514Y006831D01*
X008488Y006790D01*
X008458Y006752D01*
X008426Y006716D01*
X008391Y006683D01*
X008353Y006653D01*
X008313Y006626D01*
X008271Y006603D01*
X008227Y006583D01*
X008182Y006566D01*
X008136Y006554D01*
X008088Y006545D01*
X008040Y006540D01*
X007992Y006539D01*
X007944Y006542D01*
X007896Y006549D01*
X007849Y006560D01*
X007803Y006574D01*
X007758Y006592D01*
X007715Y006614D01*
X007674Y006639D01*
X007636Y006668D01*
X007599Y006700D01*
X007565Y006734D01*
X007535Y006771D01*
X007507Y006810D01*
X007482Y006852D01*
X007462Y006896D01*
X007444Y006941D01*
X007431Y006987D01*
X007421Y007034D01*
X007415Y007082D01*
X007413Y007130D01*
D16*
X017619Y006305D02*
X017619Y005995D01*
X017670Y005955D02*
X017619Y005904D01*
X017619Y005852D01*
X017670Y005800D01*
X017825Y005800D01*
X017825Y005697D02*
X017825Y005904D01*
X017774Y005955D01*
X017670Y005955D01*
X017825Y005995D02*
X017825Y006305D01*
X017722Y006202D01*
X017619Y006305D01*
X017932Y006305D02*
X018087Y006305D01*
X018138Y006254D01*
X018138Y006150D01*
X018087Y006098D01*
X017932Y006098D01*
X017932Y005995D02*
X017932Y006305D01*
X018245Y006305D02*
X018245Y006047D01*
X018296Y005995D01*
X018400Y005995D01*
X018451Y006047D01*
X018451Y006305D01*
X018451Y005955D02*
X018245Y005955D01*
X018245Y005800D01*
X018348Y005852D01*
X018400Y005852D01*
X018451Y005800D01*
X018451Y005697D01*
X018400Y005645D01*
X018296Y005645D01*
X018245Y005697D01*
X018138Y005645D02*
X017932Y005645D01*
X018035Y005645D02*
X018035Y005955D01*
X017932Y005852D01*
X017825Y005697D02*
X017774Y005645D01*
X017670Y005645D01*
X017619Y005697D01*
X018558Y005697D02*
X018764Y005904D01*
X018764Y005697D01*
X018713Y005645D01*
X018609Y005645D01*
X018558Y005697D01*
X018558Y005904D01*
X018609Y005955D01*
X018713Y005955D01*
X018764Y005904D01*
X060919Y005945D02*
X061165Y005945D01*
X061042Y005945D02*
X061042Y006315D01*
X060919Y006192D01*
X060980Y005815D02*
X060919Y005754D01*
X060980Y005815D02*
X061104Y005815D01*
X061165Y005754D01*
X061165Y005692D01*
X060919Y005445D01*
X061165Y005445D01*
X061104Y005365D02*
X061165Y005304D01*
X061165Y005242D01*
X061104Y005180D01*
X061165Y005118D01*
X061165Y005057D01*
X061104Y004995D01*
X060980Y004995D01*
X060919Y005057D01*
X061042Y005180D02*
X061104Y005180D01*
X061104Y005365D02*
X060980Y005365D01*
X060919Y005304D01*
X060919Y004833D02*
X061165Y004833D01*
X061042Y004604D02*
X061042Y004357D01*
X060919Y004480D02*
X061165Y004480D01*
X080869Y011702D02*
X080920Y011650D01*
X081024Y011650D01*
X081075Y011702D01*
X081075Y011909D01*
X081024Y011960D01*
X080920Y011960D01*
X080869Y011909D01*
X080869Y011857D01*
X080920Y011805D01*
X081075Y011805D01*
X081182Y011857D02*
X081285Y011960D01*
X081285Y011650D01*
X081182Y011650D02*
X081388Y011650D01*
X081495Y011702D02*
X081546Y011650D01*
X081650Y011650D01*
X081701Y011702D01*
X081701Y011805D01*
X081650Y011857D01*
X081598Y011857D01*
X081495Y011805D01*
X081495Y011960D01*
X081701Y011960D01*
X081650Y012000D02*
X081701Y012052D01*
X081701Y012310D01*
X081495Y012310D02*
X081495Y012052D01*
X081546Y012000D01*
X081650Y012000D01*
X081808Y011909D02*
X081859Y011960D01*
X081963Y011960D01*
X082014Y011909D01*
X081808Y011702D01*
X081859Y011650D01*
X081963Y011650D01*
X082014Y011702D01*
X082014Y011909D01*
X081808Y011909D02*
X081808Y011702D01*
X081182Y012000D02*
X081182Y012310D01*
X081337Y012310D01*
X081388Y012259D01*
X081388Y012155D01*
X081337Y012103D01*
X081182Y012103D01*
X081075Y012000D02*
X081075Y012310D01*
X080972Y012207D01*
X080869Y012310D01*
X080869Y012000D01*
X020294Y027757D02*
X020232Y027695D01*
X020294Y027757D02*
X020294Y027880D01*
X020232Y027942D01*
X020170Y027942D01*
X020108Y027880D01*
X020108Y027818D01*
X020108Y027880D02*
X020047Y027942D01*
X019985Y027942D01*
X019923Y027880D01*
X019923Y027757D01*
X019985Y027695D01*
X019819Y027707D02*
X019757Y027645D01*
X019819Y027707D02*
X019819Y027830D01*
X019757Y027892D01*
X019695Y027892D01*
X019633Y027830D01*
X019633Y027707D01*
X019572Y027645D01*
X019510Y027645D01*
X019448Y027707D01*
X019448Y027830D01*
X019510Y027892D01*
X019448Y028013D02*
X019819Y028013D01*
X019695Y028013D02*
X019448Y028260D01*
X019633Y028075D02*
X019819Y028260D01*
X019923Y028248D02*
X020108Y028063D01*
X020108Y028310D01*
X020108Y028432D02*
X020108Y028678D01*
X020047Y028678D02*
X020294Y028678D01*
X020294Y028432D02*
X020047Y028432D01*
X019923Y028555D01*
X020047Y028678D01*
X019923Y028248D02*
X020294Y028248D01*
X011428Y025150D02*
X011428Y024780D01*
X011428Y024903D02*
X011614Y025027D01*
X011428Y024903D02*
X011614Y024780D01*
X011307Y024842D02*
X011245Y024780D01*
X011122Y024780D01*
X011060Y024842D01*
X011307Y025089D01*
X011307Y024842D01*
X011307Y025089D02*
X011245Y025150D01*
X011122Y025150D01*
X011060Y025089D01*
X011060Y024842D01*
X010939Y024842D02*
X010877Y024780D01*
X010754Y024780D01*
X010692Y024842D01*
X010939Y025089D01*
X010939Y024842D01*
X010939Y025089D02*
X010877Y025150D01*
X010754Y025150D01*
X010692Y025089D01*
X010692Y024842D01*
X010570Y024780D02*
X010324Y024780D01*
X010447Y024780D02*
X010447Y025150D01*
X010324Y025027D01*
X010025Y029755D02*
X010087Y029817D01*
X010087Y030064D01*
X010025Y030125D01*
X009902Y030125D01*
X009840Y030064D01*
X009840Y030002D01*
X009902Y029940D01*
X010087Y029940D01*
X010025Y029755D02*
X009902Y029755D01*
X009840Y029817D01*
X009719Y029817D02*
X009657Y029755D01*
X009534Y029755D01*
X009472Y029817D01*
X009472Y029878D01*
X009534Y029940D01*
X009657Y029940D01*
X009719Y029878D01*
X009719Y029817D01*
X009657Y029940D02*
X009719Y030002D01*
X009719Y030064D01*
X009657Y030125D01*
X009534Y030125D01*
X009472Y030064D01*
X009472Y030002D01*
X009534Y029940D01*
X009350Y029755D02*
X009104Y029755D01*
X009227Y029755D02*
X009227Y030125D01*
X009104Y030002D01*
X008982Y029940D02*
X008735Y029940D01*
X008920Y030125D01*
X008920Y029755D01*
X008614Y029817D02*
X008614Y030064D01*
X008552Y030125D01*
X008367Y030125D01*
X008367Y029755D01*
X008552Y029755D01*
X008614Y029817D01*
X008246Y029817D02*
X008246Y030064D01*
X008184Y030125D01*
X008060Y030125D01*
X007999Y030064D01*
X007999Y029817D01*
X008060Y029755D01*
X008184Y029755D01*
X008246Y029817D01*
X007877Y029755D02*
X007877Y030002D01*
X007754Y030125D01*
X007630Y030002D01*
X007630Y029755D01*
X007630Y029940D02*
X007877Y029940D01*
D17*
X008842Y003161D02*
X008842Y000799D01*
X009291Y000799D01*
X009291Y003161D01*
X010716Y003161D01*
X010716Y000799D01*
X010216Y000799D01*
X010216Y001161D01*
X009791Y001161D01*
X009791Y000799D01*
X009291Y000799D01*
X009791Y000799D02*
X010216Y000799D01*
X010716Y000799D02*
X011165Y000799D01*
X011165Y003161D01*
X010716Y003161D01*
X009291Y003161D02*
X008842Y003161D01*
X012342Y003161D02*
X012791Y003161D01*
X012791Y000799D01*
X012342Y000799D01*
X012342Y003161D01*
X012791Y003161D02*
X014216Y003161D01*
X014216Y000799D01*
X013716Y000799D01*
X013716Y001161D01*
X013291Y001161D01*
X013291Y000799D01*
X012791Y000799D01*
X013291Y000799D02*
X013716Y000799D01*
X014216Y000799D02*
X014665Y000799D01*
X014665Y003161D01*
X014216Y003161D01*
X015842Y003161D02*
X016291Y003161D01*
X016291Y000799D01*
X015842Y000799D01*
X015842Y003161D01*
X016291Y003161D02*
X017716Y003161D01*
X017716Y000799D01*
X017216Y000799D01*
X017216Y001161D01*
X016791Y001161D01*
X016791Y000799D01*
X016291Y000799D01*
X016791Y000799D02*
X017216Y000799D01*
X017716Y000799D02*
X018165Y000799D01*
X018165Y003161D01*
X017716Y003161D01*
X019342Y003161D02*
X019791Y003161D01*
X019791Y000799D01*
X019342Y000799D01*
X019342Y003161D01*
X019791Y003161D02*
X021216Y003161D01*
X021216Y000799D01*
X020716Y000799D01*
X020716Y001161D01*
X020291Y001161D01*
X020291Y000799D01*
X019791Y000799D01*
X020291Y000799D02*
X020716Y000799D01*
X021216Y000799D02*
X021665Y000799D01*
X021665Y003161D01*
X021216Y003161D01*
X018941Y005393D02*
X018941Y005491D01*
X018941Y005393D02*
X018843Y005393D01*
X017465Y005393D02*
X017366Y005393D01*
X017366Y005491D01*
X017760Y006475D02*
X017762Y006494D01*
X017767Y006513D01*
X017777Y006529D01*
X017789Y006544D01*
X017804Y006556D01*
X017820Y006566D01*
X017839Y006571D01*
X017858Y006573D01*
X017877Y006571D01*
X017896Y006566D01*
X017912Y006556D01*
X017927Y006544D01*
X017939Y006529D01*
X017949Y006513D01*
X017954Y006494D01*
X017956Y006475D01*
X017954Y006456D01*
X017949Y006437D01*
X017939Y006421D01*
X017927Y006406D01*
X017912Y006394D01*
X017896Y006384D01*
X017877Y006379D01*
X017858Y006377D01*
X017839Y006379D01*
X017820Y006384D01*
X017804Y006394D01*
X017789Y006406D01*
X017777Y006421D01*
X017767Y006437D01*
X017762Y006456D01*
X017760Y006475D01*
X017366Y006869D02*
X017366Y006967D01*
X017465Y006967D01*
X018843Y006967D02*
X018941Y006967D01*
X018941Y006869D01*
X027147Y006921D02*
X027147Y007019D01*
X027147Y006921D02*
X029510Y006921D01*
X029510Y007019D01*
X029510Y008201D02*
X029510Y008299D01*
X027147Y008299D01*
X027147Y008201D01*
X025654Y010330D02*
X026054Y010730D01*
X025254Y010730D01*
X025654Y010330D01*
X025640Y010344D02*
X025667Y010344D01*
X025716Y010392D02*
X025591Y010392D01*
X025543Y010441D02*
X025764Y010441D01*
X025813Y010489D02*
X025494Y010489D01*
X025446Y010538D02*
X025861Y010538D01*
X025910Y010586D02*
X025397Y010586D01*
X025349Y010635D02*
X025958Y010635D01*
X026007Y010683D02*
X025300Y010683D01*
X025759Y014186D02*
X026320Y014186D01*
X025759Y014186D02*
X025759Y014747D01*
X029687Y014186D02*
X030248Y014186D01*
X030248Y014747D01*
X031754Y015180D02*
X031954Y015180D01*
X031854Y015080D02*
X031854Y015280D01*
X035586Y016281D02*
X037121Y016281D01*
X041157Y015909D02*
X044150Y015909D01*
X035763Y019805D02*
X035765Y019832D01*
X035771Y019859D01*
X035780Y019885D01*
X035793Y019909D01*
X035809Y019932D01*
X035828Y019951D01*
X035850Y019968D01*
X035874Y019982D01*
X035899Y019992D01*
X035926Y019999D01*
X035953Y020002D01*
X035981Y020001D01*
X036008Y019996D01*
X036034Y019988D01*
X036058Y019976D01*
X036081Y019960D01*
X036102Y019942D01*
X036119Y019921D01*
X036134Y019897D01*
X036145Y019872D01*
X036153Y019846D01*
X036157Y019819D01*
X036157Y019791D01*
X036153Y019764D01*
X036145Y019738D01*
X036134Y019713D01*
X036119Y019689D01*
X036102Y019668D01*
X036081Y019650D01*
X036059Y019634D01*
X036034Y019622D01*
X036008Y019614D01*
X035981Y019609D01*
X035953Y019608D01*
X035926Y019611D01*
X035899Y019618D01*
X035874Y019628D01*
X035850Y019642D01*
X035828Y019659D01*
X035809Y019678D01*
X035793Y019701D01*
X035780Y019725D01*
X035771Y019751D01*
X035765Y019778D01*
X035763Y019805D01*
X035586Y020179D02*
X037121Y020179D01*
X034085Y020991D02*
X034085Y021089D01*
X034085Y020991D02*
X031722Y020991D01*
X031722Y021089D01*
X031722Y022271D02*
X031722Y022369D01*
X034085Y022369D01*
X034085Y022271D01*
X037354Y023705D02*
X042504Y023705D01*
X042504Y023780D01*
X041674Y024440D02*
X037654Y024440D01*
X037654Y025110D02*
X040334Y025110D01*
X041674Y025780D02*
X037654Y025780D01*
X037654Y026450D02*
X040334Y026450D01*
X041674Y027120D02*
X037654Y027120D01*
X037354Y027855D02*
X042504Y027855D01*
X042504Y027780D01*
X029144Y028730D02*
X025144Y028730D01*
X025116Y029206D02*
X025116Y026254D01*
X029171Y026254D02*
X029171Y029206D01*
X021039Y025730D02*
X012968Y025730D01*
X012968Y016730D01*
X021039Y016730D01*
X021039Y025730D01*
X004901Y024289D02*
X004901Y028171D01*
X001236Y028171D01*
X000504Y028171D01*
X001212Y028683D01*
X001236Y028683D01*
X001236Y028171D01*
X000504Y028171D02*
X000504Y024289D01*
X004901Y024289D01*
X003785Y019594D02*
X002328Y019594D01*
X003785Y019594D02*
X003785Y018689D01*
X000793Y018748D02*
X000793Y017212D01*
X000793Y017035D02*
X000793Y018925D01*
X003785Y017271D02*
X003785Y016366D01*
X002328Y016366D01*
X002328Y015844D02*
X003785Y015844D01*
X003785Y014939D01*
X000793Y014998D02*
X000793Y013462D01*
X000793Y013285D02*
X000793Y015175D01*
X003785Y013521D02*
X003785Y012616D01*
X002328Y012616D01*
X002328Y012132D02*
X003785Y012132D01*
X003785Y011226D01*
X000793Y011462D02*
X000793Y007998D01*
X002328Y007328D02*
X003785Y007328D01*
X003785Y008234D01*
X003785Y006844D02*
X002328Y006844D01*
X003785Y006844D02*
X003785Y005939D01*
X000793Y005998D02*
X000793Y004462D01*
X000793Y004285D02*
X000793Y006175D01*
X003785Y004521D02*
X003785Y003616D01*
X002328Y003616D01*
X008716Y011246D02*
X008716Y013214D01*
X010291Y013214D01*
X010291Y011246D01*
X009700Y011246D01*
X009701Y011246D02*
X009699Y011273D01*
X009694Y011299D01*
X009685Y011324D01*
X009672Y011348D01*
X009657Y011370D01*
X009638Y011390D01*
X009618Y011407D01*
X009595Y011421D01*
X009570Y011432D01*
X009544Y011439D01*
X009517Y011443D01*
X009491Y011443D01*
X009464Y011439D01*
X009438Y011432D01*
X009413Y011421D01*
X009390Y011407D01*
X009370Y011390D01*
X009351Y011370D01*
X009336Y011348D01*
X009323Y011324D01*
X009314Y011299D01*
X009309Y011273D01*
X009307Y011246D01*
X008716Y011246D01*
X008126Y014376D02*
X007881Y014376D01*
X007433Y014730D02*
X007433Y015084D01*
X007708Y015084D01*
X008299Y015084D02*
X008574Y015084D01*
X008574Y014730D01*
X025759Y018113D02*
X025759Y018674D01*
X026320Y018674D01*
X029161Y017808D02*
X029163Y017837D01*
X029169Y017866D01*
X029178Y017894D01*
X029192Y017920D01*
X029208Y017944D01*
X029228Y017966D01*
X029251Y017985D01*
X029275Y018001D01*
X029302Y018013D01*
X029330Y018022D01*
X029359Y018027D01*
X029388Y018028D01*
X029418Y018025D01*
X029446Y018018D01*
X029474Y018008D01*
X029499Y017993D01*
X029523Y017976D01*
X029544Y017956D01*
X029562Y017933D01*
X029577Y017907D01*
X029589Y017880D01*
X029597Y017852D01*
X029601Y017823D01*
X029601Y017793D01*
X029597Y017764D01*
X029589Y017736D01*
X029577Y017709D01*
X029562Y017683D01*
X029544Y017660D01*
X029523Y017640D01*
X029499Y017623D01*
X029474Y017608D01*
X029446Y017598D01*
X029418Y017591D01*
X029388Y017588D01*
X029359Y017589D01*
X029330Y017594D01*
X029302Y017603D01*
X029275Y017615D01*
X029251Y017631D01*
X029228Y017650D01*
X029208Y017672D01*
X029192Y017696D01*
X029178Y017722D01*
X029169Y017750D01*
X029163Y017779D01*
X029161Y017808D01*
X030248Y018113D02*
X030248Y018674D01*
X029687Y018674D01*
X041157Y022051D02*
X042260Y022051D01*
X042262Y022012D01*
X042268Y021974D01*
X042277Y021937D01*
X042290Y021900D01*
X042307Y021865D01*
X042326Y021832D01*
X042349Y021801D01*
X042375Y021772D01*
X042404Y021746D01*
X042435Y021723D01*
X042468Y021704D01*
X042503Y021687D01*
X042540Y021674D01*
X042577Y021665D01*
X042615Y021659D01*
X042654Y021657D01*
X042693Y021659D01*
X042731Y021665D01*
X042768Y021674D01*
X042805Y021687D01*
X042840Y021704D01*
X042873Y021723D01*
X042904Y021746D01*
X042933Y021772D01*
X042959Y021801D01*
X042982Y021832D01*
X043001Y021865D01*
X043018Y021900D01*
X043031Y021937D01*
X043040Y021974D01*
X043046Y022012D01*
X043048Y022051D01*
X043047Y022051D02*
X044150Y022051D01*
X057855Y023678D02*
X057955Y023505D01*
X057855Y023678D02*
X062099Y026128D01*
X064799Y021452D01*
X060555Y019002D01*
X060455Y019175D01*
X060472Y017891D02*
X063464Y017891D01*
X063464Y017443D01*
X061504Y017443D01*
X060472Y017443D01*
X060472Y017891D01*
X061102Y017891D02*
X063465Y017891D01*
X063465Y017443D01*
X061102Y017443D01*
X061102Y016017D01*
X063465Y016017D01*
X063465Y015569D01*
X061102Y015569D01*
X061102Y016017D01*
X061504Y016017D02*
X063464Y016017D01*
X063464Y015569D01*
X060472Y015569D01*
X060472Y016017D01*
X061504Y016017D01*
X061504Y017443D01*
X061102Y017443D02*
X061102Y017891D01*
X063464Y017443D02*
X063464Y016943D01*
X062504Y016943D01*
X062504Y016517D01*
X063464Y016517D01*
X063464Y016017D01*
X063465Y016017D02*
X063465Y016517D01*
X063102Y016517D01*
X063102Y016943D01*
X063465Y016943D01*
X063465Y016517D01*
X063464Y016517D02*
X063464Y016943D01*
X063465Y016943D02*
X063465Y017443D01*
X065993Y018236D02*
X069024Y018236D01*
X069024Y018685D01*
X067954Y018685D01*
X065993Y018685D01*
X065993Y019185D01*
X066954Y019185D01*
X066954Y021185D01*
X065993Y021185D01*
X065993Y021685D01*
X067954Y021685D01*
X069024Y021685D01*
X069024Y022134D01*
X065993Y022134D01*
X065993Y021685D01*
X065993Y021185D02*
X065993Y019185D01*
X065993Y018685D02*
X065993Y018236D01*
X067954Y018685D02*
X067954Y021685D01*
X073418Y018685D02*
X073418Y027685D01*
X081489Y027685D01*
X081489Y018685D01*
X073418Y018685D01*
X076166Y016669D02*
X076757Y016669D01*
X076759Y016642D01*
X076764Y016616D01*
X076773Y016591D01*
X076786Y016567D01*
X076801Y016545D01*
X076820Y016525D01*
X076840Y016508D01*
X076863Y016494D01*
X076888Y016483D01*
X076914Y016476D01*
X076941Y016472D01*
X076967Y016472D01*
X076994Y016476D01*
X077020Y016483D01*
X077045Y016494D01*
X077068Y016508D01*
X077088Y016525D01*
X077107Y016545D01*
X077122Y016567D01*
X077135Y016591D01*
X077144Y016616D01*
X077149Y016642D01*
X077151Y016669D01*
X077150Y016669D02*
X077741Y016669D01*
X077741Y014701D01*
X076166Y014701D01*
X076166Y016669D01*
X069024Y016134D02*
X069024Y015685D01*
X067954Y015685D01*
X065993Y015685D01*
X065993Y016134D01*
X069024Y016134D01*
X067954Y015685D02*
X067954Y012685D01*
X065993Y012685D01*
X065993Y013185D01*
X066954Y013185D01*
X066954Y015185D01*
X065993Y015185D01*
X065993Y015685D01*
X065993Y015185D02*
X065993Y013185D01*
X065993Y012685D02*
X065993Y012236D01*
X069024Y012236D01*
X069024Y012685D01*
X067954Y012685D01*
X063435Y012817D02*
X063435Y011530D01*
X061072Y011530D01*
X061072Y014530D01*
X063435Y014530D01*
X063435Y013243D01*
X063072Y013243D01*
X063072Y012817D01*
X063435Y012817D01*
X063435Y013243D01*
X063464Y014030D02*
X062504Y014030D01*
X062504Y012030D01*
X063464Y012030D01*
X063464Y011530D01*
X061504Y011530D01*
X060433Y011530D01*
X060433Y011081D01*
X063464Y011081D01*
X063464Y011530D01*
X063435Y011530D02*
X063435Y011081D01*
X061072Y011081D01*
X061072Y011530D01*
X061504Y011530D02*
X061504Y014530D01*
X063464Y014530D01*
X063464Y014030D01*
X063464Y012030D01*
X061929Y010494D02*
X060472Y010494D01*
X060472Y009589D01*
X063464Y009648D02*
X063464Y008112D01*
X063464Y007935D02*
X063464Y009825D01*
X060472Y008171D02*
X060472Y007266D01*
X061929Y007266D01*
X062222Y006765D02*
X061297Y006765D01*
X061297Y006411D01*
X063404Y006017D02*
X063404Y004443D01*
X061297Y004049D02*
X061297Y003695D01*
X062222Y003695D01*
X066292Y002616D02*
X066741Y002616D01*
X066741Y000254D01*
X066292Y000254D01*
X066292Y002616D01*
X066741Y002616D02*
X068166Y002616D01*
X068166Y000254D01*
X067666Y000254D01*
X067666Y000616D01*
X067241Y000616D01*
X067241Y000254D01*
X066741Y000254D01*
X067241Y000254D02*
X067666Y000254D01*
X068166Y000254D02*
X068615Y000254D01*
X068615Y002616D01*
X068166Y002616D01*
X069792Y002616D02*
X070241Y002616D01*
X070241Y000254D01*
X069792Y000254D01*
X069792Y002616D01*
X070241Y002616D02*
X071666Y002616D01*
X071666Y000254D01*
X071166Y000254D01*
X071166Y000616D01*
X070741Y000616D01*
X070741Y000254D01*
X070241Y000254D01*
X070741Y000254D02*
X071166Y000254D01*
X071666Y000254D02*
X072115Y000254D01*
X072115Y002616D01*
X071666Y002616D01*
X073292Y002616D02*
X073741Y002616D01*
X073741Y000254D01*
X073292Y000254D01*
X073292Y002616D01*
X073741Y002616D02*
X075166Y002616D01*
X075166Y000254D01*
X074666Y000254D01*
X074666Y000616D01*
X074241Y000616D01*
X074241Y000254D01*
X073741Y000254D01*
X074241Y000254D02*
X074666Y000254D01*
X075166Y000254D02*
X075615Y000254D01*
X075615Y002616D01*
X075166Y002616D01*
X076792Y002616D02*
X077241Y002616D01*
X077241Y000254D01*
X076792Y000254D01*
X076792Y002616D01*
X077241Y002616D02*
X078666Y002616D01*
X078666Y000254D01*
X078166Y000254D01*
X078166Y000616D01*
X077741Y000616D01*
X077741Y000254D01*
X077241Y000254D01*
X077741Y000254D02*
X078166Y000254D01*
X078666Y000254D02*
X079115Y000254D01*
X079115Y002616D01*
X078666Y002616D01*
X083709Y004441D02*
X083709Y005002D01*
X083709Y004441D02*
X084270Y004441D01*
X085654Y003885D02*
X085654Y003685D01*
X085554Y003785D02*
X085754Y003785D01*
X087637Y004441D02*
X088198Y004441D01*
X088198Y005002D01*
X087111Y005307D02*
X087113Y005336D01*
X087119Y005365D01*
X087128Y005393D01*
X087142Y005419D01*
X087158Y005443D01*
X087178Y005465D01*
X087201Y005484D01*
X087225Y005500D01*
X087252Y005512D01*
X087280Y005521D01*
X087309Y005526D01*
X087338Y005527D01*
X087368Y005524D01*
X087396Y005517D01*
X087424Y005507D01*
X087449Y005492D01*
X087473Y005475D01*
X087494Y005455D01*
X087512Y005432D01*
X087527Y005406D01*
X087539Y005379D01*
X087547Y005351D01*
X087551Y005322D01*
X087551Y005292D01*
X087547Y005263D01*
X087539Y005235D01*
X087527Y005208D01*
X087512Y005182D01*
X087494Y005159D01*
X087473Y005139D01*
X087449Y005122D01*
X087424Y005107D01*
X087396Y005097D01*
X087368Y005090D01*
X087338Y005087D01*
X087309Y005088D01*
X087280Y005093D01*
X087252Y005102D01*
X087225Y005114D01*
X087201Y005130D01*
X087178Y005149D01*
X087158Y005171D01*
X087142Y005195D01*
X087128Y005221D01*
X087119Y005249D01*
X087113Y005278D01*
X087111Y005307D01*
X093054Y004085D02*
X093054Y003285D01*
X093454Y003685D01*
X093054Y004085D01*
X093054Y004082D02*
X093057Y004082D01*
X093054Y004033D02*
X093106Y004033D01*
X093154Y003984D02*
X093054Y003984D01*
X093054Y003936D02*
X093203Y003936D01*
X093251Y003887D02*
X093054Y003887D01*
X093054Y003839D02*
X093300Y003839D01*
X093348Y003790D02*
X093054Y003790D01*
X093054Y003742D02*
X093397Y003742D01*
X093445Y003693D02*
X093054Y003693D01*
X093054Y003645D02*
X093413Y003645D01*
X093365Y003596D02*
X093054Y003596D01*
X093054Y003548D02*
X093316Y003548D01*
X093268Y003499D02*
X093054Y003499D01*
X093054Y003450D02*
X093219Y003450D01*
X093171Y003402D02*
X093054Y003402D01*
X093054Y003353D02*
X093122Y003353D01*
X093073Y003305D02*
X093054Y003305D01*
X093335Y002874D02*
X093335Y002776D01*
X093335Y002874D02*
X090972Y002874D01*
X090972Y002776D01*
X090972Y001594D02*
X090972Y001496D01*
X093335Y001496D01*
X093335Y001594D01*
X079135Y004996D02*
X079135Y005094D01*
X079135Y004996D02*
X076772Y004996D01*
X076772Y005094D01*
X076772Y006276D02*
X076772Y006374D01*
X079135Y006374D01*
X079135Y006276D01*
X083709Y008368D02*
X083709Y008929D01*
X084270Y008929D01*
X087637Y008929D02*
X088198Y008929D01*
X088198Y008368D01*
X093422Y010071D02*
X093422Y010976D01*
X093422Y010071D02*
X094879Y010071D01*
X096414Y010740D02*
X096414Y012630D01*
X096414Y012453D02*
X096414Y010917D01*
X093422Y012394D02*
X093422Y013299D01*
X094879Y013299D01*
X088724Y014535D02*
X088724Y015835D01*
X088354Y015385D02*
X087054Y015385D01*
X087054Y014985D01*
X088354Y014985D01*
X088354Y015385D01*
X085184Y015835D02*
X085184Y014535D01*
X082241Y012972D02*
X082143Y012972D01*
X082241Y012972D02*
X082241Y012874D01*
X081060Y012480D02*
X081062Y012499D01*
X081067Y012518D01*
X081077Y012534D01*
X081089Y012549D01*
X081104Y012561D01*
X081120Y012571D01*
X081139Y012576D01*
X081158Y012578D01*
X081177Y012576D01*
X081196Y012571D01*
X081212Y012561D01*
X081227Y012549D01*
X081239Y012534D01*
X081249Y012518D01*
X081254Y012499D01*
X081256Y012480D01*
X081254Y012461D01*
X081249Y012442D01*
X081239Y012426D01*
X081227Y012411D01*
X081212Y012399D01*
X081196Y012389D01*
X081177Y012384D01*
X081158Y012382D01*
X081139Y012384D01*
X081120Y012389D01*
X081104Y012399D01*
X081089Y012411D01*
X081077Y012426D01*
X081067Y012442D01*
X081062Y012461D01*
X081060Y012480D01*
X080666Y012874D02*
X080666Y012972D01*
X080765Y012972D01*
X080666Y011496D02*
X080666Y011398D01*
X080765Y011398D01*
X082143Y011398D02*
X082241Y011398D01*
X082241Y011496D01*
X093383Y016236D02*
X093383Y016685D01*
X094454Y016685D01*
X096414Y016685D01*
X096414Y016236D01*
X093383Y016236D01*
X094454Y016685D02*
X094454Y019685D01*
X096414Y019685D01*
X096414Y019185D01*
X095454Y019185D01*
X095454Y017185D01*
X096414Y017185D01*
X096414Y016685D01*
X096414Y017185D02*
X096414Y019185D01*
X096414Y019685D02*
X096414Y020134D01*
X093383Y020134D01*
X093383Y019685D01*
X094454Y019685D01*
X089854Y019635D02*
X089654Y019635D01*
X089754Y019535D02*
X089754Y019735D01*
X089754Y018235D02*
X089754Y018035D01*
X089654Y018135D02*
X089854Y018135D01*
X090438Y023398D02*
X088469Y023398D01*
X088469Y023988D01*
X088496Y023990D01*
X088522Y023995D01*
X088547Y024004D01*
X088571Y024017D01*
X088593Y024032D01*
X088613Y024051D01*
X088630Y024071D01*
X088644Y024094D01*
X088655Y024119D01*
X088662Y024145D01*
X088666Y024172D01*
X088666Y024198D01*
X088662Y024225D01*
X088655Y024251D01*
X088644Y024276D01*
X088630Y024299D01*
X088613Y024319D01*
X088593Y024338D01*
X088571Y024353D01*
X088547Y024366D01*
X088522Y024375D01*
X088496Y024380D01*
X088469Y024382D01*
X088469Y024972D01*
X090438Y024972D01*
X090438Y023398D01*
X091304Y027114D02*
X091658Y027114D01*
X091658Y027390D01*
X090949Y027563D02*
X090949Y027807D01*
X091658Y027980D02*
X091658Y028256D01*
X091304Y028256D01*
X093472Y028472D02*
X093472Y028024D01*
X096464Y028024D01*
X096464Y028472D01*
X094504Y028472D01*
X093472Y028472D01*
X094504Y028472D02*
X094504Y029898D01*
X096464Y029898D01*
X096464Y029398D01*
X095504Y029398D01*
X095504Y028972D01*
X096464Y028972D01*
X096464Y028472D01*
X096464Y028972D02*
X096464Y029398D01*
X096464Y029898D02*
X096464Y030346D01*
X093472Y030346D01*
X093472Y029898D01*
X094504Y029898D01*
X068985Y029898D02*
X067954Y029898D01*
X065993Y029898D01*
X065993Y030346D01*
X068985Y030346D01*
X068985Y029898D01*
X067954Y029898D02*
X067954Y028472D01*
X065993Y028472D01*
X065993Y028972D01*
X066954Y028972D01*
X066954Y029398D01*
X065993Y029398D01*
X065993Y029898D01*
X065993Y029398D02*
X065993Y028972D01*
X065993Y028472D02*
X065993Y028024D01*
X068985Y028024D01*
X068985Y028472D01*
X067954Y028472D01*
X063464Y014979D02*
X060433Y014979D01*
X060433Y014530D01*
X061504Y014530D01*
X061072Y014530D02*
X061072Y014979D01*
X063435Y014979D01*
X063435Y014530D01*
X063464Y014530D02*
X063464Y014979D01*
X036617Y003693D02*
X036617Y002315D01*
X033467Y002315D02*
X033467Y003693D01*
D18*
X039679Y003280D03*
X039679Y004280D03*
X039684Y005235D03*
X035614Y007530D03*
X027564Y011880D03*
X027704Y012680D03*
X032554Y015380D03*
X034904Y015480D03*
X023104Y018830D03*
X028154Y019930D03*
X028154Y020930D03*
X028554Y022430D03*
X027119Y022415D03*
X024954Y023430D03*
X024954Y024280D03*
X028504Y024530D03*
X028504Y023730D03*
X037904Y021080D03*
X042754Y022530D03*
X042754Y023430D03*
X053804Y020130D03*
X047454Y015930D03*
X053504Y013330D03*
X075454Y017185D03*
X082954Y013685D03*
X085954Y011435D03*
X085949Y010360D03*
X081954Y010185D03*
X080454Y010685D03*
X094204Y014185D03*
X090204Y021935D03*
X054004Y026580D03*
X041354Y028430D03*
X019654Y007580D03*
X017409Y004480D03*
X018839Y004315D03*
X080454Y004185D03*
X090454Y003685D03*
D19*
X087904Y003085D03*
X086854Y003085D03*
X085854Y003085D03*
X084804Y003035D03*
X079704Y001685D03*
X076204Y001685D03*
X072704Y001685D03*
X069204Y001685D03*
X078604Y007085D03*
X079574Y007085D03*
X089354Y007235D03*
X090404Y007235D03*
X090154Y009835D03*
X083204Y012185D03*
X079104Y016785D03*
X089954Y017435D03*
X089954Y018935D03*
X087954Y024685D03*
X087104Y028035D03*
X087104Y029435D03*
X048804Y021430D03*
X047454Y024130D03*
X043654Y024730D03*
X043654Y026780D03*
X043354Y028980D03*
X044354Y028980D03*
X023904Y027080D03*
X022904Y027080D03*
X031904Y020230D03*
X024904Y018830D03*
X024554Y016930D03*
X023704Y016930D03*
X021004Y014780D03*
X021004Y013130D03*
X012054Y012730D03*
X007204Y011630D03*
X004404Y006780D03*
X011754Y001980D03*
X015254Y001980D03*
X018754Y001980D03*
X022254Y001980D03*
X027319Y005900D03*
X019954Y006280D03*
X031704Y016380D03*
X032504Y016380D03*
X039754Y017280D03*
X039754Y018480D03*
X059754Y007480D03*
D20*
X080454Y014685D03*
X081454Y014685D03*
X032754Y013180D03*
X031954Y013180D03*
X018304Y008780D03*
X017254Y008780D03*
D21*
X002368Y008549D02*
X000846Y008549D01*
X000846Y010911D02*
X002368Y010911D01*
X002368Y013836D02*
X000846Y013837D01*
X000846Y014624D02*
X002368Y014624D01*
X002368Y017586D02*
X000846Y017587D01*
X000846Y018374D02*
X002368Y018374D01*
X002368Y005624D02*
X000846Y005624D01*
X000846Y004837D02*
X002368Y004836D01*
X061889Y008486D02*
X063411Y008486D01*
X063411Y009273D02*
X061889Y009274D01*
X094839Y011291D02*
X096361Y011291D01*
X096361Y012078D02*
X094839Y012079D01*
D22*
X041796Y007894D02*
X041634Y007910D01*
X041635Y008073D01*
X041796Y007894D01*
X041794Y007897D02*
X041769Y007897D01*
X041786Y007905D02*
X041681Y007905D01*
X041634Y007914D02*
X041778Y007914D01*
X041771Y007922D02*
X041634Y007922D01*
X041634Y007931D02*
X041763Y007931D01*
X041755Y007939D02*
X041634Y007939D01*
X041634Y007948D02*
X041748Y007948D01*
X041740Y007957D02*
X041634Y007957D01*
X041634Y007965D02*
X041732Y007965D01*
X041724Y007974D02*
X041635Y007974D01*
X041635Y007982D02*
X041717Y007982D01*
X041709Y007991D02*
X041635Y007991D01*
X041635Y007999D02*
X041701Y007999D01*
X041694Y008008D02*
X041635Y008008D01*
X041635Y008016D02*
X041686Y008016D01*
X041678Y008025D02*
X041635Y008025D01*
X041635Y008033D02*
X041671Y008033D01*
X041663Y008042D02*
X041635Y008042D01*
X041635Y008051D02*
X041655Y008051D01*
X041648Y008059D02*
X041635Y008059D01*
X041635Y008068D02*
X041640Y008068D01*
X041032Y008667D02*
X041033Y008830D01*
X040871Y008846D01*
X041032Y008667D01*
X041032Y008674D02*
X041025Y008674D01*
X041018Y008683D02*
X041032Y008683D01*
X041032Y008691D02*
X041010Y008691D01*
X041002Y008700D02*
X041032Y008700D01*
X041032Y008708D02*
X040995Y008708D01*
X040987Y008717D02*
X041032Y008717D01*
X041032Y008725D02*
X040979Y008725D01*
X040972Y008734D02*
X041032Y008734D01*
X041032Y008743D02*
X040964Y008743D01*
X040956Y008751D02*
X041032Y008751D01*
X041032Y008760D02*
X040949Y008760D01*
X040941Y008768D02*
X041033Y008768D01*
X041033Y008777D02*
X040933Y008777D01*
X040925Y008785D02*
X041033Y008785D01*
X041033Y008794D02*
X040918Y008794D01*
X040910Y008802D02*
X041033Y008802D01*
X041033Y008811D02*
X040902Y008811D01*
X040895Y008819D02*
X041033Y008819D01*
X041033Y008828D02*
X040887Y008828D01*
X040879Y008837D02*
X040966Y008837D01*
X040877Y008845D02*
X040872Y008845D01*
X041804Y003795D02*
X041966Y003811D01*
X041805Y003632D01*
X041804Y003795D01*
X041804Y003787D02*
X041945Y003787D01*
X041937Y003779D02*
X041804Y003779D01*
X041804Y003770D02*
X041930Y003770D01*
X041922Y003762D02*
X041804Y003762D01*
X041804Y003753D02*
X041914Y003753D01*
X041907Y003745D02*
X041804Y003745D01*
X041804Y003736D02*
X041899Y003736D01*
X041891Y003728D02*
X041805Y003728D01*
X041805Y003719D02*
X041884Y003719D01*
X041876Y003711D02*
X041805Y003711D01*
X041805Y003702D02*
X041868Y003702D01*
X041860Y003693D02*
X041805Y003693D01*
X041805Y003685D02*
X041853Y003685D01*
X041845Y003676D02*
X041805Y003676D01*
X041805Y003668D02*
X041837Y003668D01*
X041830Y003659D02*
X041805Y003659D01*
X041805Y003651D02*
X041822Y003651D01*
X041814Y003642D02*
X041805Y003642D01*
X041805Y003634D02*
X041807Y003634D01*
X041813Y003796D02*
X041953Y003796D01*
X041960Y003805D02*
X041902Y003805D01*
X041341Y003056D02*
X041179Y003040D01*
X041180Y002877D01*
X041341Y003056D01*
X041338Y003053D02*
X041310Y003053D01*
X041323Y003036D02*
X041179Y003036D01*
X041179Y003027D02*
X041315Y003027D01*
X041308Y003019D02*
X041179Y003019D01*
X041179Y003010D02*
X041300Y003010D01*
X041292Y003001D02*
X041179Y003001D01*
X041179Y002993D02*
X041284Y002993D01*
X041277Y002984D02*
X041179Y002984D01*
X041179Y002976D02*
X041269Y002976D01*
X041261Y002967D02*
X041180Y002967D01*
X041180Y002959D02*
X041254Y002959D01*
X041246Y002950D02*
X041180Y002950D01*
X041180Y002942D02*
X041238Y002942D01*
X041231Y002933D02*
X041180Y002933D01*
X041180Y002925D02*
X041223Y002925D01*
X041215Y002916D02*
X041180Y002916D01*
X041180Y002907D02*
X041208Y002907D01*
X041200Y002899D02*
X041180Y002899D01*
X041180Y002890D02*
X041192Y002890D01*
X041184Y002882D02*
X041180Y002882D01*
X041221Y003044D02*
X041331Y003044D01*
D23*
X059104Y003880D03*
X059104Y004980D03*
X059104Y005480D03*
D24*
X053204Y015280D03*
X053204Y021780D03*
X053204Y028480D03*
M02*
