G75*
G70*
%OFA0B0*%
%FSLAX24Y24*%
%IPPOS*%
%LPD*%
%AMOC8*
5,1,8,0,0,1.08239X$1,22.5*
%
%ADD10C,0.0000*%
%ADD11C,0.0040*%
%ADD12C,0.0100*%
%ADD13C,0.0020*%
%ADD14C,0.0060*%
%ADD15C,0.0010*%
%ADD16C,0.0080*%
%ADD17C,0.0220*%
%ADD18C,0.0050*%
%ADD19R,0.0200X0.0200*%
%ADD20C,0.0030*%
%ADD21R,0.0150X0.0200*%
%ADD22R,0.0300X0.0340*%
%ADD23R,0.0200X0.0150*%
%ADD24R,0.1000X0.0200*%
%ADD25R,0.0300X0.0750*%
D10*
X000103Y000212D02*
X065853Y000212D01*
X065853Y024712D01*
X000103Y024712D01*
X000103Y000212D01*
X000893Y001652D02*
X000893Y023652D01*
X008393Y023652D01*
X008393Y001652D01*
X000893Y001652D01*
X025768Y005752D02*
X025770Y005787D01*
X025776Y005822D01*
X025786Y005856D01*
X025799Y005889D01*
X025816Y005920D01*
X025837Y005948D01*
X025860Y005975D01*
X025887Y005998D01*
X025915Y006019D01*
X025946Y006036D01*
X025979Y006049D01*
X026013Y006059D01*
X026048Y006065D01*
X026083Y006067D01*
X026118Y006065D01*
X026153Y006059D01*
X026187Y006049D01*
X026220Y006036D01*
X026251Y006019D01*
X026279Y005998D01*
X026306Y005975D01*
X026329Y005948D01*
X026350Y005920D01*
X026367Y005889D01*
X026380Y005856D01*
X026390Y005822D01*
X026396Y005787D01*
X026398Y005752D01*
X026396Y005717D01*
X026390Y005682D01*
X026380Y005648D01*
X026367Y005615D01*
X026350Y005584D01*
X026329Y005556D01*
X026306Y005529D01*
X026279Y005506D01*
X026251Y005485D01*
X026220Y005468D01*
X026187Y005455D01*
X026153Y005445D01*
X026118Y005439D01*
X026083Y005437D01*
X026048Y005439D01*
X026013Y005445D01*
X025979Y005455D01*
X025946Y005468D01*
X025915Y005485D01*
X025887Y005506D01*
X025860Y005529D01*
X025837Y005556D01*
X025816Y005584D01*
X025799Y005615D01*
X025786Y005648D01*
X025776Y005682D01*
X025770Y005717D01*
X025768Y005752D01*
X027568Y005752D02*
X027570Y005787D01*
X027576Y005822D01*
X027586Y005856D01*
X027599Y005889D01*
X027616Y005920D01*
X027637Y005948D01*
X027660Y005975D01*
X027687Y005998D01*
X027715Y006019D01*
X027746Y006036D01*
X027779Y006049D01*
X027813Y006059D01*
X027848Y006065D01*
X027883Y006067D01*
X027918Y006065D01*
X027953Y006059D01*
X027987Y006049D01*
X028020Y006036D01*
X028051Y006019D01*
X028079Y005998D01*
X028106Y005975D01*
X028129Y005948D01*
X028150Y005920D01*
X028167Y005889D01*
X028180Y005856D01*
X028190Y005822D01*
X028196Y005787D01*
X028198Y005752D01*
X028196Y005717D01*
X028190Y005682D01*
X028180Y005648D01*
X028167Y005615D01*
X028150Y005584D01*
X028129Y005556D01*
X028106Y005529D01*
X028079Y005506D01*
X028051Y005485D01*
X028020Y005468D01*
X027987Y005455D01*
X027953Y005445D01*
X027918Y005439D01*
X027883Y005437D01*
X027848Y005439D01*
X027813Y005445D01*
X027779Y005455D01*
X027746Y005468D01*
X027715Y005485D01*
X027687Y005506D01*
X027660Y005529D01*
X027637Y005556D01*
X027616Y005584D01*
X027599Y005615D01*
X027586Y005648D01*
X027576Y005682D01*
X027570Y005717D01*
X027568Y005752D01*
X033156Y010352D02*
X033158Y010377D01*
X033164Y010402D01*
X033173Y010426D01*
X033186Y010448D01*
X033203Y010468D01*
X033222Y010485D01*
X033243Y010499D01*
X033267Y010509D01*
X033291Y010516D01*
X033317Y010519D01*
X033342Y010518D01*
X033367Y010513D01*
X033391Y010504D01*
X033414Y010492D01*
X033434Y010477D01*
X033452Y010458D01*
X033467Y010437D01*
X033478Y010414D01*
X033486Y010390D01*
X033490Y010365D01*
X033490Y010339D01*
X033486Y010314D01*
X033478Y010290D01*
X033467Y010267D01*
X033452Y010246D01*
X033434Y010227D01*
X033414Y010212D01*
X033391Y010200D01*
X033367Y010191D01*
X033342Y010186D01*
X033317Y010185D01*
X033291Y010188D01*
X033267Y010195D01*
X033243Y010205D01*
X033222Y010219D01*
X033203Y010236D01*
X033186Y010256D01*
X033173Y010278D01*
X033164Y010302D01*
X033158Y010327D01*
X033156Y010352D01*
X034337Y010352D02*
X034339Y010377D01*
X034345Y010402D01*
X034354Y010426D01*
X034367Y010448D01*
X034384Y010468D01*
X034403Y010485D01*
X034424Y010499D01*
X034448Y010509D01*
X034472Y010516D01*
X034498Y010519D01*
X034523Y010518D01*
X034548Y010513D01*
X034572Y010504D01*
X034595Y010492D01*
X034615Y010477D01*
X034633Y010458D01*
X034648Y010437D01*
X034659Y010414D01*
X034667Y010390D01*
X034671Y010365D01*
X034671Y010339D01*
X034667Y010314D01*
X034659Y010290D01*
X034648Y010267D01*
X034633Y010246D01*
X034615Y010227D01*
X034595Y010212D01*
X034572Y010200D01*
X034548Y010191D01*
X034523Y010186D01*
X034498Y010185D01*
X034472Y010188D01*
X034448Y010195D01*
X034424Y010205D01*
X034403Y010219D01*
X034384Y010236D01*
X034367Y010256D01*
X034354Y010278D01*
X034345Y010302D01*
X034339Y010327D01*
X034337Y010352D01*
D11*
X027710Y012932D02*
X027403Y012932D01*
X027710Y013239D01*
X027710Y013315D01*
X027633Y013392D01*
X027480Y013392D01*
X027403Y013315D01*
X027249Y013315D02*
X027249Y013008D01*
X027173Y012932D01*
X027019Y012932D01*
X026942Y013008D01*
X026942Y013315D01*
X027019Y013392D01*
X027173Y013392D01*
X027249Y013315D01*
X027096Y013085D02*
X027249Y012932D01*
X027073Y014332D02*
X027226Y014485D01*
X027073Y014639D01*
X027533Y014639D01*
X027533Y014792D02*
X027226Y014792D01*
X027073Y014945D01*
X027226Y015099D01*
X027533Y015099D01*
X027457Y015252D02*
X027150Y015252D01*
X027073Y015329D01*
X027073Y015483D01*
X027150Y015559D01*
X027303Y015559D02*
X027303Y015406D01*
X027303Y015559D02*
X027457Y015559D01*
X027533Y015483D01*
X027533Y015329D01*
X027457Y015252D01*
X027303Y015099D02*
X027303Y014792D01*
X027533Y014332D02*
X027073Y014332D01*
X027226Y015713D02*
X027073Y015866D01*
X027533Y015866D01*
X027533Y015713D02*
X027533Y016020D01*
X027600Y016042D02*
X027293Y016042D01*
X027446Y016042D02*
X027446Y016502D01*
X027293Y016349D01*
X027139Y016425D02*
X027139Y016118D01*
X027063Y016042D01*
X026909Y016042D01*
X026832Y016118D01*
X026832Y016425D01*
X026909Y016502D01*
X027063Y016502D01*
X027139Y016425D01*
X026986Y016195D02*
X027139Y016042D01*
X027073Y016902D02*
X027226Y017055D01*
X027073Y017209D01*
X027533Y017209D01*
X027533Y017362D02*
X027226Y017362D01*
X027073Y017515D01*
X027226Y017669D01*
X027533Y017669D01*
X027457Y017822D02*
X027533Y017899D01*
X027533Y018053D01*
X027457Y018129D01*
X027303Y018129D01*
X027303Y017976D01*
X027150Y018129D02*
X027073Y018053D01*
X027073Y017899D01*
X027150Y017822D01*
X027457Y017822D01*
X027303Y017669D02*
X027303Y017362D01*
X027533Y016902D02*
X027073Y016902D01*
X027150Y018283D02*
X027073Y018359D01*
X027073Y018513D01*
X027150Y018590D01*
X027226Y018590D01*
X027533Y018283D01*
X027533Y018590D01*
X024633Y018512D02*
X024173Y018512D01*
X024326Y018665D01*
X024173Y018819D01*
X024633Y018819D01*
X024633Y018972D02*
X024326Y018972D01*
X024173Y019125D01*
X024326Y019279D01*
X024633Y019279D01*
X024557Y019432D02*
X024633Y019509D01*
X024633Y019663D01*
X024557Y019739D01*
X024403Y019739D01*
X024403Y019586D01*
X024250Y019739D02*
X024173Y019663D01*
X024173Y019509D01*
X024250Y019432D01*
X024557Y019432D01*
X024403Y019279D02*
X024403Y018972D01*
X024250Y019893D02*
X024173Y019969D01*
X024173Y020123D01*
X024250Y020200D01*
X024326Y020200D01*
X024633Y019893D01*
X024633Y020200D01*
X024543Y020912D02*
X024083Y020912D01*
X024236Y021065D01*
X024083Y021219D01*
X024543Y021219D01*
X024543Y021372D02*
X024236Y021372D01*
X024083Y021525D01*
X024236Y021679D01*
X024543Y021679D01*
X024467Y021832D02*
X024543Y021909D01*
X024543Y022063D01*
X024467Y022139D01*
X024313Y022139D01*
X024313Y021986D01*
X024160Y022139D02*
X024083Y022063D01*
X024083Y021909D01*
X024160Y021832D01*
X024467Y021832D01*
X024313Y021679D02*
X024313Y021372D01*
X024236Y022293D02*
X024083Y022446D01*
X024543Y022446D01*
X024543Y022293D02*
X024543Y022600D01*
X016731Y021695D02*
X016731Y021619D01*
X016424Y021312D01*
X016731Y021312D01*
X016270Y021388D02*
X016270Y021465D01*
X016194Y021542D01*
X016040Y021542D01*
X015964Y021619D01*
X015964Y021695D01*
X016040Y021772D01*
X016194Y021772D01*
X016270Y021695D01*
X016424Y021695D02*
X016501Y021772D01*
X016654Y021772D01*
X016731Y021695D01*
X016270Y021388D02*
X016194Y021312D01*
X016040Y021312D01*
X015964Y021388D01*
X015810Y021388D02*
X015733Y021312D01*
X015580Y021312D01*
X015503Y021388D01*
X015503Y021772D01*
X015810Y021772D02*
X015810Y021388D01*
X016117Y021235D02*
X016117Y021849D01*
X014981Y016522D02*
X014674Y016522D01*
X014827Y016522D02*
X014827Y016062D01*
X014520Y016138D02*
X014520Y016522D01*
X014214Y016522D02*
X014214Y016138D01*
X014290Y016062D01*
X014444Y016062D01*
X014520Y016138D01*
X014060Y016138D02*
X014060Y016445D01*
X013983Y016522D01*
X013830Y016522D01*
X013753Y016445D01*
X013753Y016138D01*
X013830Y016062D01*
X013983Y016062D01*
X014060Y016138D01*
X015134Y016292D02*
X015441Y016292D01*
X018753Y016138D02*
X018830Y016062D01*
X018983Y016062D01*
X019060Y016138D01*
X019060Y016445D01*
X018983Y016522D01*
X018830Y016522D01*
X018753Y016445D01*
X018753Y016138D01*
X019214Y016138D02*
X019290Y016062D01*
X019444Y016062D01*
X019520Y016138D01*
X019520Y016522D01*
X019674Y016522D02*
X019981Y016522D01*
X019827Y016522D02*
X019827Y016062D01*
X020134Y016292D02*
X020441Y016292D01*
X020288Y016445D02*
X020288Y016138D01*
X019214Y016138D02*
X019214Y016522D01*
X035523Y017565D02*
X035523Y017719D01*
X035523Y017642D02*
X035907Y017642D01*
X035983Y017565D01*
X035983Y017488D01*
X035907Y017412D01*
X036060Y017872D02*
X036060Y018179D01*
X035983Y018332D02*
X035523Y018332D01*
X035676Y018486D01*
X035523Y018639D01*
X035983Y018639D01*
X035983Y018793D02*
X035676Y018793D01*
X035523Y018946D01*
X035676Y019100D01*
X035983Y019100D01*
X035907Y019253D02*
X035600Y019253D01*
X035523Y019330D01*
X035523Y019483D01*
X035600Y019560D01*
X035753Y019560D02*
X035753Y019406D01*
X035753Y019560D02*
X035907Y019560D01*
X035983Y019483D01*
X035983Y019330D01*
X035907Y019253D01*
X035753Y019100D02*
X035753Y018793D01*
X035676Y019713D02*
X035523Y019867D01*
X035983Y019867D01*
X035983Y020020D02*
X035983Y019713D01*
X037906Y019642D02*
X037906Y019292D01*
X037906Y019408D02*
X038081Y019408D01*
X038139Y019467D01*
X038139Y019584D01*
X038081Y019642D01*
X037906Y019642D01*
X038023Y019408D02*
X038139Y019292D01*
X038265Y019292D02*
X038499Y019525D01*
X038499Y019584D01*
X038440Y019642D01*
X038323Y019642D01*
X038265Y019584D01*
X038265Y019292D02*
X038499Y019292D01*
X038624Y019292D02*
X038858Y019292D01*
X038741Y019292D02*
X038741Y019642D01*
X038624Y019525D01*
X046346Y020292D02*
X046346Y020642D01*
X046521Y020642D01*
X046579Y020584D01*
X046579Y020467D01*
X046521Y020408D01*
X046346Y020408D01*
X046463Y020408D02*
X046579Y020292D01*
X046705Y020292D02*
X046939Y020525D01*
X046939Y020584D01*
X046880Y020642D01*
X046763Y020642D01*
X046705Y020584D01*
X046705Y020292D02*
X046939Y020292D01*
X047064Y020350D02*
X047298Y020584D01*
X047298Y020350D01*
X047239Y020292D01*
X047122Y020292D01*
X047064Y020350D01*
X047064Y020584D01*
X047122Y020642D01*
X047239Y020642D01*
X047298Y020584D01*
X060063Y016792D02*
X060063Y016442D01*
X060063Y016558D02*
X060238Y016558D01*
X060297Y016617D01*
X060297Y016734D01*
X060238Y016792D01*
X060063Y016792D01*
X060180Y016558D02*
X060297Y016442D01*
X060422Y016442D02*
X060656Y016675D01*
X060656Y016734D01*
X060597Y016792D01*
X060481Y016792D01*
X060422Y016734D01*
X060422Y016442D02*
X060656Y016442D01*
X060781Y016500D02*
X060840Y016442D01*
X060957Y016442D01*
X061015Y016500D01*
X061015Y016617D01*
X060957Y016675D01*
X060898Y016675D01*
X060781Y016617D01*
X060781Y016792D01*
X061015Y016792D01*
X060905Y015083D02*
X060963Y015025D01*
X060963Y014908D01*
X060905Y014850D01*
X060963Y014724D02*
X060963Y014491D01*
X060730Y014724D01*
X060671Y014724D01*
X060613Y014666D01*
X060613Y014549D01*
X060671Y014491D01*
X060671Y014365D02*
X060788Y014365D01*
X060846Y014307D01*
X060846Y014132D01*
X060846Y014248D02*
X060963Y014365D01*
X060963Y014132D02*
X060613Y014132D01*
X060613Y014307D01*
X060671Y014365D01*
X061763Y014307D02*
X061763Y014132D01*
X062113Y014132D01*
X061996Y014132D02*
X061996Y014307D01*
X061938Y014365D01*
X061821Y014365D01*
X061763Y014307D01*
X061821Y014491D02*
X061763Y014549D01*
X061763Y014666D01*
X061821Y014724D01*
X061880Y014724D01*
X062113Y014491D01*
X062113Y014724D01*
X062113Y014850D02*
X061880Y015083D01*
X061821Y015083D01*
X061763Y015025D01*
X061763Y014908D01*
X061821Y014850D01*
X062113Y014850D02*
X062113Y015083D01*
X060905Y015083D02*
X060846Y015083D01*
X060788Y015025D01*
X060788Y014967D01*
X060788Y015025D02*
X060730Y015083D01*
X060671Y015083D01*
X060613Y015025D01*
X060613Y014908D01*
X060671Y014850D01*
X061996Y014248D02*
X062113Y014365D01*
X047878Y014014D02*
X047878Y013955D01*
X047819Y013897D01*
X047702Y013897D01*
X047644Y013955D01*
X047644Y014014D01*
X047702Y014072D01*
X047819Y014072D01*
X047878Y014014D01*
X047819Y013897D02*
X047878Y013838D01*
X047878Y013780D01*
X047819Y013722D01*
X047702Y013722D01*
X047644Y013780D01*
X047644Y013838D01*
X047702Y013897D01*
X047519Y013722D02*
X047285Y013722D01*
X047402Y013722D02*
X047402Y014072D01*
X047285Y013955D01*
X047159Y013897D02*
X047159Y014014D01*
X047101Y014072D01*
X046926Y014072D01*
X046926Y013722D01*
X046926Y013838D02*
X047101Y013838D01*
X047159Y013897D01*
X047043Y013838D02*
X047159Y013722D01*
X047121Y012572D02*
X047179Y012514D01*
X047179Y012397D01*
X047121Y012338D01*
X046946Y012338D01*
X046946Y012222D02*
X046946Y012572D01*
X047121Y012572D01*
X047305Y012455D02*
X047422Y012572D01*
X047422Y012222D01*
X047305Y012222D02*
X047539Y012222D01*
X047664Y012280D02*
X047722Y012222D01*
X047839Y012222D01*
X047898Y012280D01*
X047898Y012514D01*
X047839Y012572D01*
X047722Y012572D01*
X047664Y012514D01*
X047664Y012455D01*
X047722Y012397D01*
X047898Y012397D01*
X047179Y012222D02*
X047063Y012338D01*
X035913Y006990D02*
X035913Y006683D01*
X035606Y006990D01*
X035530Y006990D01*
X035453Y006914D01*
X035453Y006760D01*
X035530Y006683D01*
X035530Y006530D02*
X035453Y006453D01*
X035453Y006300D01*
X035530Y006223D01*
X035837Y006223D01*
X035913Y006300D01*
X035913Y006453D01*
X035837Y006530D01*
X035683Y006530D01*
X035683Y006376D01*
X035683Y006070D02*
X035683Y005763D01*
X035606Y005763D02*
X035453Y005916D01*
X035606Y006070D01*
X035913Y006070D01*
X035913Y005763D02*
X035606Y005763D01*
X035453Y005609D02*
X035913Y005609D01*
X035913Y005302D02*
X035453Y005302D01*
X035606Y005456D01*
X035453Y005609D01*
X035990Y005149D02*
X035990Y004842D01*
X035837Y004612D02*
X035453Y004612D01*
X035453Y004535D02*
X035453Y004689D01*
X035837Y004612D02*
X035913Y004535D01*
X035913Y004458D01*
X035837Y004382D01*
X048503Y005112D02*
X048503Y005572D01*
X048503Y005342D02*
X048810Y005342D01*
X048964Y005342D02*
X049117Y005342D01*
X048964Y005572D02*
X048964Y005112D01*
X049270Y005112D01*
X049424Y005112D02*
X049731Y005572D01*
X049884Y005572D02*
X050038Y005572D01*
X049961Y005572D02*
X049961Y005112D01*
X049884Y005112D02*
X050038Y005112D01*
X050191Y005112D02*
X050191Y005572D01*
X050498Y005112D01*
X050498Y005572D01*
X050652Y005572D02*
X050652Y005265D01*
X050805Y005112D01*
X050958Y005265D01*
X050958Y005572D01*
X049731Y005112D02*
X049424Y005572D01*
X049270Y005572D02*
X048964Y005572D01*
X048810Y005572D02*
X048810Y005112D01*
X052423Y003822D02*
X052598Y003822D01*
X052657Y003764D01*
X052657Y003647D01*
X052598Y003588D01*
X052423Y003588D01*
X052423Y003472D02*
X052423Y003822D01*
X052540Y003588D02*
X052657Y003472D01*
X052782Y003472D02*
X053016Y003472D01*
X052899Y003472D02*
X052899Y003822D01*
X052782Y003705D01*
X053141Y003764D02*
X053200Y003822D01*
X053317Y003822D01*
X053375Y003764D01*
X053375Y003705D01*
X053141Y003472D01*
X053375Y003472D01*
X054883Y002202D02*
X055058Y002202D01*
X055117Y002144D01*
X055117Y002027D01*
X055058Y001968D01*
X054883Y001968D01*
X054883Y001852D02*
X054883Y002202D01*
X055000Y001968D02*
X055117Y001852D01*
X055242Y001852D02*
X055476Y001852D01*
X055359Y001852D02*
X055359Y002202D01*
X055242Y002085D01*
X055601Y002027D02*
X055835Y002027D01*
X055777Y001852D02*
X055777Y002202D01*
X055601Y002027D01*
X051475Y001968D02*
X051475Y001910D01*
X051417Y001852D01*
X051300Y001852D01*
X051241Y001910D01*
X051116Y001852D02*
X050882Y001852D01*
X050999Y001852D02*
X050999Y002202D01*
X050882Y002085D01*
X050757Y002027D02*
X050698Y001968D01*
X050523Y001968D01*
X050523Y001852D02*
X050523Y002202D01*
X050698Y002202D01*
X050757Y002144D01*
X050757Y002027D01*
X050640Y001968D02*
X050757Y001852D01*
X051241Y002144D02*
X051300Y002202D01*
X051417Y002202D01*
X051475Y002144D01*
X051475Y002085D01*
X051417Y002027D01*
X051475Y001968D01*
X051417Y002027D02*
X051358Y002027D01*
X064083Y007832D02*
X064083Y008182D01*
X064258Y008182D01*
X064317Y008124D01*
X064317Y008007D01*
X064258Y007948D01*
X064083Y007948D01*
X064200Y007948D02*
X064317Y007832D01*
X064442Y007832D02*
X064676Y007832D01*
X064559Y007832D02*
X064559Y008182D01*
X064442Y008065D01*
X064801Y008182D02*
X065035Y008182D01*
X065035Y008124D01*
X064801Y007890D01*
X064801Y007832D01*
X064756Y008592D02*
X064522Y008592D01*
X064756Y008825D01*
X064756Y008884D01*
X064697Y008942D01*
X064581Y008942D01*
X064522Y008884D01*
X064397Y008884D02*
X064397Y008767D01*
X064338Y008708D01*
X064163Y008708D01*
X064163Y008592D02*
X064163Y008942D01*
X064338Y008942D01*
X064397Y008884D01*
X064280Y008708D02*
X064397Y008592D01*
X064881Y008767D02*
X065115Y008767D01*
X065057Y008592D02*
X065057Y008942D01*
X064881Y008767D01*
X019827Y008292D02*
X019520Y008292D01*
X019674Y008445D02*
X019674Y008138D01*
X019367Y008062D02*
X019367Y008522D01*
X019060Y008522D02*
X019367Y008062D01*
X019060Y008062D02*
X019060Y008522D01*
X018907Y008522D02*
X018753Y008522D01*
X018830Y008522D02*
X018830Y008062D01*
X018753Y008062D02*
X018907Y008062D01*
X015577Y008292D02*
X015270Y008292D01*
X015117Y008062D02*
X015117Y008522D01*
X014810Y008522D02*
X015117Y008062D01*
X014810Y008062D02*
X014810Y008522D01*
X014657Y008522D02*
X014503Y008522D01*
X014580Y008522D02*
X014580Y008062D01*
X014503Y008062D02*
X014657Y008062D01*
X016003Y003272D02*
X016003Y002812D01*
X016310Y002812D01*
X016464Y002888D02*
X016540Y002812D01*
X016694Y002812D01*
X016770Y002888D01*
X016924Y003042D02*
X017231Y003042D01*
X017384Y003042D02*
X017614Y003042D01*
X017691Y002965D01*
X017691Y002888D01*
X017614Y002812D01*
X017384Y002812D01*
X017384Y003272D01*
X017614Y003272D01*
X017691Y003195D01*
X017691Y003119D01*
X017614Y003042D01*
X017845Y003272D02*
X017845Y002812D01*
X017998Y002965D01*
X018152Y002812D01*
X018152Y003272D01*
X018305Y003195D02*
X018382Y003272D01*
X018535Y003272D01*
X018612Y003195D01*
X018305Y002888D01*
X018382Y002812D01*
X018535Y002812D01*
X018612Y002888D01*
X018612Y003195D01*
X018765Y003119D02*
X018919Y003272D01*
X018919Y002812D01*
X019072Y002812D02*
X018765Y002812D01*
X018305Y002888D02*
X018305Y003195D01*
X017154Y003272D02*
X017154Y002812D01*
X016924Y003042D02*
X017154Y003272D01*
X016770Y003195D02*
X016694Y003272D01*
X016540Y003272D01*
X016464Y003195D01*
X016464Y002888D01*
X016157Y003042D02*
X016003Y003042D01*
X016003Y003272D02*
X016310Y003272D01*
D12*
X011893Y002152D02*
X011893Y000152D01*
X029853Y000212D02*
X029853Y002212D01*
X052808Y009756D02*
X057139Y009756D01*
X057139Y014087D01*
X052808Y014087D01*
X052808Y009756D01*
X053201Y013496D02*
X053203Y013523D01*
X053209Y013550D01*
X053218Y013576D01*
X053231Y013600D01*
X053247Y013623D01*
X053266Y013642D01*
X053288Y013659D01*
X053312Y013673D01*
X053337Y013683D01*
X053364Y013690D01*
X053391Y013693D01*
X053419Y013692D01*
X053446Y013687D01*
X053472Y013679D01*
X053496Y013667D01*
X053519Y013651D01*
X053540Y013633D01*
X053557Y013612D01*
X053572Y013588D01*
X053583Y013563D01*
X053591Y013537D01*
X053595Y013510D01*
X053595Y013482D01*
X053591Y013455D01*
X053583Y013429D01*
X053572Y013404D01*
X053557Y013380D01*
X053540Y013359D01*
X053519Y013341D01*
X053497Y013325D01*
X053472Y013313D01*
X053446Y013305D01*
X053419Y013300D01*
X053391Y013299D01*
X053364Y013302D01*
X053337Y013309D01*
X053312Y013319D01*
X053288Y013333D01*
X053266Y013350D01*
X053247Y013369D01*
X053231Y013392D01*
X053218Y013416D01*
X053209Y013442D01*
X053203Y013469D01*
X053201Y013496D01*
X029853Y022212D02*
X029853Y024712D01*
X011893Y024712D02*
X011893Y022152D01*
D13*
X035758Y017033D02*
X035758Y016886D01*
X035795Y016849D01*
X035868Y016849D01*
X035905Y016886D01*
X035979Y016849D02*
X036126Y016849D01*
X036053Y016849D02*
X036053Y017069D01*
X035979Y016996D01*
X035905Y017033D02*
X035868Y017069D01*
X035795Y017069D01*
X035758Y017033D01*
X036200Y017033D02*
X036237Y017069D01*
X036310Y017069D01*
X036347Y017033D01*
X036347Y016996D01*
X036310Y016959D01*
X036347Y016923D01*
X036347Y016886D01*
X036310Y016849D01*
X036237Y016849D01*
X036200Y016886D01*
X036274Y016959D02*
X036310Y016959D01*
X037146Y016189D02*
X037146Y016115D01*
X037182Y016079D01*
X037146Y016189D02*
X037182Y016225D01*
X037219Y016225D01*
X037366Y016079D01*
X037366Y016225D01*
X037366Y016004D02*
X037366Y015858D01*
X037366Y015931D02*
X037146Y015931D01*
X037219Y015858D01*
X037182Y015783D02*
X037146Y015747D01*
X037146Y015673D01*
X037182Y015637D01*
X037329Y015637D01*
X037366Y015673D01*
X037366Y015747D01*
X037329Y015783D01*
X040595Y016392D02*
X040595Y016612D01*
X040705Y016612D01*
X040742Y016575D01*
X040742Y016502D01*
X040705Y016465D01*
X040595Y016465D01*
X040669Y016465D02*
X040742Y016392D01*
X040816Y016392D02*
X040963Y016392D01*
X040890Y016392D02*
X040890Y016612D01*
X040816Y016538D01*
X041037Y016538D02*
X041111Y016612D01*
X041111Y016392D01*
X041184Y016392D02*
X041037Y016392D01*
X044773Y017747D02*
X044773Y017857D01*
X044810Y017893D01*
X044883Y017893D01*
X044920Y017857D01*
X044920Y017747D01*
X044920Y017820D02*
X044993Y017893D01*
X044993Y017968D02*
X044957Y017968D01*
X044810Y018114D01*
X044773Y018114D01*
X044773Y017968D01*
X044773Y017747D02*
X044993Y017747D01*
X046486Y017783D02*
X046522Y017747D01*
X046669Y017747D01*
X046706Y017783D01*
X046706Y017857D01*
X046669Y017893D01*
X046669Y017968D02*
X046706Y018004D01*
X046706Y018078D01*
X046669Y018114D01*
X046596Y018114D01*
X046559Y018078D01*
X046559Y018041D01*
X046596Y017968D01*
X046486Y017968D01*
X046486Y018114D01*
X046522Y017893D02*
X046486Y017857D01*
X046486Y017783D01*
X044223Y018692D02*
X040723Y018692D01*
X044888Y020572D02*
X044888Y020792D01*
X044998Y020792D01*
X045035Y020755D01*
X045035Y020682D01*
X044998Y020645D01*
X044888Y020645D01*
X044962Y020645D02*
X045035Y020572D01*
X045109Y020608D02*
X045109Y020645D01*
X045146Y020682D01*
X045219Y020682D01*
X045256Y020645D01*
X045256Y020608D01*
X045219Y020572D01*
X045146Y020572D01*
X045109Y020608D01*
X045146Y020682D02*
X045109Y020718D01*
X045109Y020755D01*
X045146Y020792D01*
X045219Y020792D01*
X045256Y020755D01*
X045256Y020718D01*
X045219Y020682D01*
X048308Y020653D02*
X048308Y020506D01*
X048345Y020469D01*
X048418Y020469D01*
X048455Y020506D01*
X048529Y020469D02*
X048676Y020469D01*
X048603Y020469D02*
X048603Y020689D01*
X048529Y020616D01*
X048455Y020653D02*
X048418Y020689D01*
X048345Y020689D01*
X048308Y020653D01*
X048750Y020653D02*
X048750Y020616D01*
X048787Y020579D01*
X048860Y020579D01*
X048897Y020543D01*
X048897Y020506D01*
X048860Y020469D01*
X048787Y020469D01*
X048750Y020506D01*
X048750Y020543D01*
X048787Y020579D01*
X048860Y020579D02*
X048897Y020616D01*
X048897Y020653D01*
X048860Y020689D01*
X048787Y020689D01*
X048750Y020653D01*
X050243Y020236D02*
X050353Y020126D01*
X050353Y020272D01*
X050463Y020236D02*
X050243Y020236D01*
X050280Y020051D02*
X050353Y020051D01*
X050390Y020015D01*
X050390Y019905D01*
X050390Y019978D02*
X050463Y020051D01*
X050463Y019905D02*
X050243Y019905D01*
X050243Y020015D01*
X050280Y020051D01*
X055668Y020896D02*
X055705Y020859D01*
X055778Y020859D01*
X055815Y020896D01*
X055889Y020859D02*
X056036Y020859D01*
X055963Y020859D02*
X055963Y021079D01*
X055889Y021006D01*
X055815Y021043D02*
X055778Y021079D01*
X055705Y021079D01*
X055668Y021043D01*
X055668Y020896D01*
X056110Y020896D02*
X056147Y020859D01*
X056220Y020859D01*
X056257Y020896D01*
X056257Y020933D01*
X056220Y020969D01*
X056110Y020969D01*
X056110Y020896D01*
X056110Y020969D02*
X056184Y021043D01*
X056257Y021079D01*
X056810Y020335D02*
X056957Y020189D01*
X056993Y020225D01*
X056993Y020299D01*
X056957Y020335D01*
X056810Y020335D01*
X056773Y020299D01*
X056773Y020225D01*
X056810Y020189D01*
X056957Y020189D01*
X056993Y020114D02*
X056993Y019968D01*
X056993Y020041D02*
X056773Y020041D01*
X056846Y019968D01*
X056810Y019893D02*
X056883Y019893D01*
X056920Y019857D01*
X056920Y019747D01*
X056920Y019820D02*
X056993Y019893D01*
X056993Y019747D02*
X056773Y019747D01*
X056773Y019857D01*
X056810Y019893D01*
X056457Y019059D02*
X056310Y019059D01*
X056457Y019059D02*
X056457Y019023D01*
X056310Y018876D01*
X056310Y018839D01*
X056236Y018839D02*
X056089Y018839D01*
X056163Y018839D02*
X056163Y019059D01*
X056089Y018986D01*
X056015Y019023D02*
X055978Y019059D01*
X055905Y019059D01*
X055868Y019023D01*
X055868Y018876D01*
X055905Y018839D01*
X055978Y018839D01*
X056015Y018876D01*
X058603Y018582D02*
X062103Y018582D01*
X058594Y016328D02*
X058594Y016291D01*
X058557Y016254D01*
X058594Y016218D01*
X058594Y016181D01*
X058557Y016144D01*
X058484Y016144D01*
X058447Y016181D01*
X058373Y016144D02*
X058226Y016144D01*
X058373Y016291D01*
X058373Y016328D01*
X058336Y016364D01*
X058263Y016364D01*
X058226Y016328D01*
X058152Y016328D02*
X058115Y016364D01*
X058042Y016364D01*
X058005Y016328D01*
X058005Y016181D01*
X058042Y016144D01*
X058115Y016144D01*
X058152Y016181D01*
X058447Y016328D02*
X058484Y016364D01*
X058557Y016364D01*
X058594Y016328D01*
X058557Y016254D02*
X058521Y016254D01*
X056016Y016503D02*
X056016Y016577D01*
X055979Y016613D01*
X056016Y016688D02*
X056016Y016834D01*
X056016Y016761D02*
X055796Y016761D01*
X055869Y016688D01*
X055832Y016613D02*
X055796Y016577D01*
X055796Y016503D01*
X055832Y016467D01*
X055979Y016467D01*
X056016Y016503D01*
X055804Y016985D02*
X055657Y016985D01*
X055621Y017021D01*
X055621Y017095D01*
X055657Y017131D01*
X055731Y017206D02*
X055731Y017316D01*
X055767Y017352D01*
X055804Y017352D01*
X055841Y017316D01*
X055841Y017242D01*
X055804Y017206D01*
X055731Y017206D01*
X055657Y017279D01*
X055621Y017352D01*
X055804Y017131D02*
X055841Y017095D01*
X055841Y017021D01*
X055804Y016985D01*
X053353Y016626D02*
X053353Y016552D01*
X053317Y016516D01*
X053243Y016516D02*
X053206Y016589D01*
X053206Y016626D01*
X053243Y016662D01*
X053317Y016662D01*
X053353Y016626D01*
X053243Y016516D02*
X053133Y016516D01*
X053133Y016662D01*
X053170Y016441D02*
X053243Y016441D01*
X053280Y016405D01*
X053280Y016295D01*
X053280Y016368D02*
X053353Y016441D01*
X053353Y016295D02*
X053133Y016295D01*
X053133Y016405D01*
X053170Y016441D01*
X051953Y016441D02*
X051880Y016368D01*
X051880Y016405D02*
X051880Y016295D01*
X051953Y016295D02*
X051733Y016295D01*
X051733Y016405D01*
X051770Y016441D01*
X051843Y016441D01*
X051880Y016405D01*
X051917Y016516D02*
X051953Y016552D01*
X051953Y016626D01*
X051917Y016662D01*
X051880Y016662D01*
X051843Y016626D01*
X051843Y016516D01*
X051917Y016516D01*
X051843Y016516D02*
X051770Y016589D01*
X051733Y016662D01*
X042633Y013691D02*
X042633Y013551D01*
X042587Y013504D01*
X042493Y013504D01*
X042446Y013551D01*
X042446Y013691D01*
X042353Y013691D02*
X042633Y013691D01*
X042633Y013415D02*
X042493Y013415D01*
X042446Y013368D01*
X042446Y013228D01*
X042633Y013228D01*
X042633Y013138D02*
X042633Y012998D01*
X042587Y012952D01*
X042493Y012952D01*
X042446Y012998D01*
X042446Y013138D01*
X042680Y013138D01*
X042727Y013092D01*
X042727Y013045D01*
X041633Y013202D02*
X041633Y013388D01*
X041633Y013202D02*
X041446Y013388D01*
X041446Y013202D01*
X040727Y013295D02*
X040727Y013342D01*
X040680Y013388D01*
X040446Y013388D01*
X040446Y013202D02*
X040587Y013202D01*
X040633Y013248D01*
X040633Y013388D01*
X039633Y013388D02*
X039446Y013202D01*
X039446Y013388D02*
X039633Y013202D01*
X038727Y013092D02*
X038680Y013138D01*
X038446Y013138D01*
X038446Y012998D01*
X038493Y012952D01*
X038587Y012952D01*
X038633Y012998D01*
X038633Y013138D01*
X038633Y013228D02*
X038446Y013228D01*
X038446Y013368D01*
X038493Y013415D01*
X038633Y013415D01*
X038587Y013504D02*
X038493Y013504D01*
X038446Y013551D01*
X038446Y013691D01*
X038353Y013691D02*
X038633Y013691D01*
X038633Y013551D01*
X038587Y013504D01*
X038727Y013092D02*
X038727Y013045D01*
X038633Y012441D02*
X038353Y012441D01*
X038446Y012441D02*
X038446Y012301D01*
X038493Y012254D01*
X038587Y012254D01*
X038633Y012301D01*
X038633Y012441D01*
X039400Y012485D02*
X039587Y012485D01*
X039633Y012532D01*
X039446Y012532D02*
X039446Y012438D01*
X039446Y012349D02*
X039446Y012209D01*
X039493Y012162D01*
X039540Y012209D01*
X039540Y012302D01*
X039587Y012349D01*
X039633Y012302D01*
X039633Y012162D01*
X039540Y012073D02*
X039540Y011886D01*
X039587Y011886D02*
X039493Y011886D01*
X039446Y011932D01*
X039446Y012026D01*
X039493Y012073D01*
X039540Y012073D01*
X039633Y012026D02*
X039633Y011932D01*
X039587Y011886D01*
X039633Y011795D02*
X039587Y011748D01*
X039400Y011748D01*
X039446Y011702D02*
X039446Y011795D01*
X038633Y011795D02*
X038540Y011888D01*
X038353Y011888D01*
X038446Y012025D02*
X038446Y012165D01*
X038353Y012165D02*
X038633Y012165D01*
X038633Y012025D01*
X038587Y011978D01*
X038493Y011978D01*
X038446Y012025D01*
X038633Y011795D02*
X038540Y011702D01*
X038353Y011702D01*
X036533Y011494D02*
X036533Y011348D01*
X036533Y011421D02*
X036313Y011421D01*
X036386Y011348D01*
X036350Y011273D02*
X036423Y011273D01*
X036460Y011237D01*
X036460Y011127D01*
X036460Y011200D02*
X036533Y011273D01*
X036533Y011127D02*
X036313Y011127D01*
X036313Y011237D01*
X036350Y011273D01*
X040446Y011748D02*
X040493Y011702D01*
X040587Y011702D01*
X040633Y011748D01*
X040633Y011888D01*
X040680Y011888D02*
X040446Y011888D01*
X040446Y011748D01*
X040493Y011978D02*
X040446Y012025D01*
X040446Y012165D01*
X040493Y012254D02*
X040446Y012301D01*
X040446Y012394D01*
X040493Y012441D01*
X040540Y012441D01*
X040540Y012254D01*
X040587Y012254D02*
X040493Y012254D01*
X040587Y012254D02*
X040633Y012301D01*
X040633Y012394D01*
X040633Y012530D02*
X040633Y012624D01*
X040633Y012577D02*
X040353Y012577D01*
X040353Y012530D01*
X040587Y012165D02*
X040540Y012118D01*
X040540Y012025D01*
X040493Y011978D01*
X040633Y011978D02*
X040633Y012118D01*
X040587Y012165D01*
X040680Y011888D02*
X040727Y011842D01*
X040727Y011795D01*
X041353Y011978D02*
X041353Y012025D01*
X041633Y012025D01*
X041633Y012071D02*
X041633Y011978D01*
X041587Y011888D02*
X041540Y011842D01*
X041540Y011748D01*
X041493Y011702D01*
X041446Y011748D01*
X041446Y011888D01*
X041587Y011888D02*
X041633Y011842D01*
X041633Y011702D01*
X041633Y012162D02*
X041633Y012302D01*
X041587Y012349D01*
X041493Y012349D01*
X041446Y012302D01*
X041446Y012162D01*
X041727Y012162D01*
X042353Y011842D02*
X042400Y011888D01*
X042587Y011702D01*
X042633Y011748D01*
X042633Y011842D01*
X042587Y011888D01*
X042400Y011888D01*
X042353Y011842D02*
X042353Y011748D01*
X042400Y011702D01*
X042587Y011702D01*
X042587Y011978D02*
X042493Y011978D01*
X042446Y012025D01*
X042446Y012165D01*
X042680Y012165D01*
X042727Y012118D01*
X042727Y012071D01*
X042633Y012025D02*
X042633Y012165D01*
X042633Y012025D02*
X042587Y011978D01*
X046521Y010196D02*
X046631Y010086D01*
X046631Y010232D01*
X046741Y010196D02*
X046521Y010196D01*
X046557Y010011D02*
X046521Y009975D01*
X046521Y009901D01*
X046557Y009865D01*
X046704Y009865D01*
X046741Y009901D01*
X046741Y009975D01*
X046704Y010011D01*
X047701Y009984D02*
X047701Y009910D01*
X047737Y009874D01*
X047884Y009874D01*
X047921Y009910D01*
X047921Y009984D01*
X047884Y010020D01*
X047921Y010095D02*
X047921Y010241D01*
X047921Y010168D02*
X047701Y010168D01*
X047774Y010095D01*
X047737Y010020D02*
X047701Y009984D01*
X047774Y010316D02*
X047701Y010389D01*
X047921Y010389D01*
X047921Y010316D02*
X047921Y010462D01*
X047973Y007190D02*
X047973Y007080D01*
X047937Y007044D01*
X047863Y007044D01*
X047826Y007080D01*
X047826Y007190D01*
X047826Y006969D02*
X047826Y006859D01*
X047863Y006823D01*
X047937Y006823D01*
X047973Y006859D01*
X047973Y006969D01*
X047900Y006748D02*
X047753Y006748D01*
X047753Y006602D02*
X047900Y006602D01*
X047973Y006675D01*
X047900Y006748D01*
X048253Y006712D02*
X048290Y006748D01*
X048326Y006748D01*
X048363Y006712D01*
X048363Y006638D01*
X048326Y006602D01*
X048290Y006602D01*
X048253Y006638D01*
X048253Y006712D01*
X048363Y006712D02*
X048400Y006748D01*
X048437Y006748D01*
X048473Y006712D01*
X048473Y006638D01*
X048437Y006602D01*
X048400Y006602D01*
X048363Y006638D01*
X048363Y006823D02*
X048363Y006969D01*
X048326Y006969D02*
X048473Y006969D01*
X048473Y006823D02*
X048326Y006823D01*
X048253Y006896D01*
X048326Y006969D01*
X048753Y006969D02*
X048790Y006969D01*
X048863Y006896D01*
X048973Y006896D01*
X048863Y006896D02*
X048790Y006823D01*
X048753Y006823D01*
X048790Y006748D02*
X048826Y006748D01*
X048863Y006712D01*
X048863Y006638D01*
X048826Y006602D01*
X048790Y006602D01*
X048753Y006638D01*
X048753Y006712D01*
X048790Y006748D01*
X048863Y006712D02*
X048900Y006748D01*
X048937Y006748D01*
X048973Y006712D01*
X048973Y006638D01*
X048937Y006602D01*
X048900Y006602D01*
X048863Y006638D01*
X049253Y006602D02*
X049253Y006748D01*
X049290Y006748D01*
X049437Y006602D01*
X049473Y006602D01*
X049473Y006823D02*
X049326Y006823D01*
X049253Y006896D01*
X049326Y006969D01*
X049473Y006969D01*
X049363Y006969D02*
X049363Y006823D01*
X049753Y006823D02*
X049790Y006823D01*
X049863Y006896D01*
X049973Y006896D01*
X049863Y006896D02*
X049790Y006969D01*
X049753Y006969D01*
X049753Y006748D02*
X049790Y006748D01*
X049937Y006602D01*
X049973Y006602D01*
X049753Y006602D02*
X049753Y006748D01*
X050253Y006748D02*
X050290Y006675D01*
X050363Y006602D01*
X050363Y006712D01*
X050400Y006748D01*
X050437Y006748D01*
X050473Y006712D01*
X050473Y006638D01*
X050437Y006602D01*
X050363Y006602D01*
X050326Y006602D02*
X050253Y006675D01*
X050473Y006675D01*
X050473Y006602D02*
X050473Y006748D01*
X050473Y006823D02*
X050326Y006823D01*
X050253Y006896D01*
X050326Y006969D01*
X050473Y006969D01*
X050326Y006969D01*
X050253Y006896D01*
X050326Y006823D01*
X050473Y006823D01*
X050363Y006823D02*
X050363Y006969D01*
X050363Y006823D01*
X050753Y006823D02*
X050790Y006823D01*
X050863Y006896D01*
X050973Y006896D01*
X050863Y006896D02*
X050790Y006969D01*
X050753Y006969D01*
X050753Y006748D02*
X050790Y006675D01*
X050863Y006602D01*
X050863Y006712D01*
X050900Y006748D01*
X050937Y006748D01*
X050973Y006712D01*
X050973Y006638D01*
X050937Y006602D01*
X050863Y006602D01*
X053953Y005032D02*
X053990Y004959D01*
X054063Y004886D01*
X054063Y004996D01*
X054100Y005032D01*
X054137Y005032D01*
X054173Y004996D01*
X054173Y004922D01*
X054137Y004886D01*
X054063Y004886D01*
X054173Y004811D02*
X054173Y004665D01*
X054173Y004738D02*
X053953Y004738D01*
X054026Y004665D01*
X053990Y004590D02*
X054063Y004590D01*
X054100Y004554D01*
X054100Y004444D01*
X054100Y004517D02*
X054173Y004590D01*
X054173Y004444D02*
X053953Y004444D01*
X053953Y004554D01*
X053990Y004590D01*
X055641Y004851D02*
X055677Y004815D01*
X055824Y004815D01*
X055861Y004851D01*
X055861Y004925D01*
X055824Y004961D01*
X055861Y005036D02*
X055714Y005182D01*
X055677Y005182D01*
X055641Y005146D01*
X055641Y005072D01*
X055677Y005036D01*
X055677Y004961D02*
X055641Y004925D01*
X055641Y004851D01*
X055861Y005036D02*
X055861Y005182D01*
X059501Y006370D02*
X059537Y006334D01*
X059684Y006334D01*
X059721Y006370D01*
X059721Y006444D01*
X059684Y006480D01*
X059721Y006555D02*
X059574Y006701D01*
X059537Y006701D01*
X059501Y006665D01*
X059501Y006591D01*
X059537Y006555D01*
X059537Y006480D02*
X059501Y006444D01*
X059501Y006370D01*
X059721Y006555D02*
X059721Y006701D01*
X059721Y006776D02*
X059574Y006922D01*
X059537Y006922D01*
X059501Y006886D01*
X059501Y006812D01*
X059537Y006776D01*
X059721Y006776D02*
X059721Y006922D01*
X060621Y006932D02*
X060621Y007006D01*
X060657Y007042D01*
X060694Y007042D01*
X060731Y007006D01*
X060767Y007042D01*
X060804Y007042D01*
X060841Y007006D01*
X060841Y006932D01*
X060804Y006896D01*
X060804Y006821D02*
X060841Y006785D01*
X060841Y006711D01*
X060804Y006675D01*
X060657Y006675D01*
X060621Y006711D01*
X060621Y006785D01*
X060657Y006821D01*
X060657Y006896D02*
X060621Y006932D01*
X060731Y006969D02*
X060731Y007006D01*
X060769Y009969D02*
X060916Y010116D01*
X060916Y010153D01*
X060879Y010189D01*
X060806Y010189D01*
X060769Y010153D01*
X060695Y010153D02*
X060658Y010189D01*
X060585Y010189D01*
X060548Y010153D01*
X060548Y010006D01*
X060585Y009969D01*
X060658Y009969D01*
X060695Y010006D01*
X060769Y009969D02*
X060916Y009969D01*
X060990Y009969D02*
X061137Y009969D01*
X061064Y009969D02*
X061064Y010189D01*
X060990Y010116D01*
X062608Y010136D02*
X062645Y010099D01*
X062718Y010099D01*
X062755Y010136D01*
X062829Y010099D02*
X062976Y010246D01*
X062976Y010283D01*
X062939Y010319D01*
X062866Y010319D01*
X062829Y010283D01*
X062755Y010283D02*
X062718Y010319D01*
X062645Y010319D01*
X062608Y010283D01*
X062608Y010136D01*
X062829Y010099D02*
X062976Y010099D01*
X063050Y010136D02*
X063197Y010283D01*
X063197Y010136D01*
X063160Y010099D01*
X063087Y010099D01*
X063050Y010136D01*
X063050Y010283D01*
X063087Y010319D01*
X063160Y010319D01*
X063197Y010283D01*
X058956Y011708D02*
X058846Y011708D01*
X058772Y011781D01*
X058736Y011781D01*
X058809Y011855D02*
X058736Y011929D01*
X058956Y011929D01*
X058956Y012002D02*
X058956Y011855D01*
X058846Y011708D02*
X058772Y011634D01*
X058736Y011634D01*
X045153Y005050D02*
X045153Y004863D01*
X044966Y005050D01*
X044966Y004863D01*
X045013Y004773D02*
X045013Y004587D01*
X045153Y004587D02*
X044873Y004587D01*
X044873Y004497D02*
X045153Y004497D01*
X045153Y004310D02*
X044873Y004310D01*
X044966Y004404D01*
X044873Y004497D01*
X044873Y004773D02*
X045153Y004773D01*
X045107Y003945D02*
X045153Y003898D01*
X045153Y003805D01*
X045107Y003758D01*
X044920Y003945D01*
X045107Y003945D01*
X045107Y003758D02*
X044920Y003758D01*
X044873Y003805D01*
X044873Y003898D01*
X044920Y003945D01*
X044920Y003668D02*
X044873Y003622D01*
X044873Y003528D01*
X044920Y003482D01*
X044920Y003668D02*
X044966Y003668D01*
X045153Y003482D01*
X045153Y003668D01*
X047753Y003646D02*
X047826Y003719D01*
X047973Y003719D01*
X047863Y003719D02*
X047863Y003573D01*
X047826Y003573D02*
X047753Y003646D01*
X047826Y003573D02*
X047973Y003573D01*
X047973Y003498D02*
X047973Y003352D01*
X047973Y003425D02*
X047753Y003425D01*
X047826Y003352D01*
X048253Y003425D02*
X048473Y003425D01*
X048473Y003352D02*
X048473Y003498D01*
X048473Y003646D02*
X048363Y003646D01*
X048290Y003719D01*
X048253Y003719D01*
X048363Y003646D02*
X048290Y003573D01*
X048253Y003573D01*
X048253Y003425D02*
X048326Y003352D01*
X048753Y003388D02*
X048790Y003352D01*
X048753Y003388D02*
X048753Y003462D01*
X048790Y003498D01*
X048826Y003498D01*
X048973Y003352D01*
X048973Y003498D01*
X048973Y003573D02*
X048826Y003573D01*
X048753Y003646D01*
X048826Y003719D01*
X048973Y003719D01*
X048863Y003719D02*
X048863Y003573D01*
X049253Y003573D02*
X049290Y003573D01*
X049363Y003646D01*
X049473Y003646D01*
X049363Y003646D02*
X049290Y003719D01*
X049253Y003719D01*
X049290Y003498D02*
X049253Y003462D01*
X049253Y003388D01*
X049290Y003352D01*
X049290Y003498D02*
X049326Y003498D01*
X049473Y003352D01*
X049473Y003498D01*
X049753Y003462D02*
X049790Y003498D01*
X049826Y003498D01*
X049863Y003462D01*
X049900Y003498D01*
X049937Y003498D01*
X049973Y003462D01*
X049973Y003388D01*
X049937Y003352D01*
X049863Y003425D02*
X049863Y003462D01*
X049753Y003462D02*
X049753Y003388D01*
X049790Y003352D01*
X049826Y003573D02*
X049753Y003646D01*
X049826Y003719D01*
X049973Y003719D01*
X049863Y003719D02*
X049863Y003573D01*
X049826Y003573D02*
X049973Y003573D01*
X050253Y003573D02*
X050290Y003573D01*
X050363Y003646D01*
X050473Y003646D01*
X050363Y003646D02*
X050290Y003719D01*
X050253Y003719D01*
X050290Y003498D02*
X050326Y003498D01*
X050363Y003462D01*
X050400Y003498D01*
X050437Y003498D01*
X050473Y003462D01*
X050473Y003388D01*
X050437Y003352D01*
X050363Y003425D02*
X050363Y003462D01*
X050290Y003498D02*
X050253Y003462D01*
X050253Y003388D01*
X050290Y003352D01*
X050753Y003323D02*
X050973Y003469D01*
X050753Y003469D01*
X050753Y003544D02*
X050753Y003654D01*
X050790Y003690D01*
X050937Y003690D01*
X050973Y003654D01*
X050973Y003544D01*
X050753Y003544D01*
X050753Y003323D02*
X050973Y003323D01*
X050937Y003248D02*
X050863Y003248D01*
X050863Y003175D01*
X050790Y003102D02*
X050937Y003102D01*
X050973Y003138D01*
X050973Y003212D01*
X050937Y003248D01*
X050790Y003248D02*
X050753Y003212D01*
X050753Y003138D01*
X050790Y003102D01*
X059263Y001915D02*
X059263Y001769D01*
X059373Y001769D01*
X059336Y001842D01*
X059336Y001879D01*
X059373Y001915D01*
X059447Y001915D01*
X059483Y001879D01*
X059483Y001805D01*
X059447Y001769D01*
X059483Y001694D02*
X059483Y001548D01*
X059483Y001621D02*
X059263Y001621D01*
X059336Y001548D01*
X059300Y001473D02*
X059373Y001473D01*
X059410Y001437D01*
X059410Y001327D01*
X059410Y001400D02*
X059483Y001473D01*
X059483Y001327D02*
X059263Y001327D01*
X059263Y001437D01*
X059300Y001473D01*
X042103Y003582D02*
X038603Y003582D01*
X037206Y004278D02*
X037169Y004242D01*
X037096Y004242D01*
X037059Y004278D01*
X036985Y004242D02*
X036912Y004315D01*
X036948Y004315D02*
X036838Y004315D01*
X036838Y004242D02*
X036838Y004462D01*
X036948Y004462D01*
X036985Y004425D01*
X036985Y004352D01*
X036948Y004315D01*
X037059Y004425D02*
X037096Y004462D01*
X037169Y004462D01*
X037206Y004425D01*
X037206Y004388D01*
X037169Y004352D01*
X037206Y004315D01*
X037206Y004278D01*
X037169Y004352D02*
X037133Y004352D01*
X037064Y005132D02*
X036917Y005132D01*
X037064Y005278D01*
X037064Y005315D01*
X037027Y005352D01*
X036954Y005352D01*
X036917Y005315D01*
X036843Y005315D02*
X036843Y005242D01*
X036806Y005205D01*
X036696Y005205D01*
X036696Y005132D02*
X036696Y005352D01*
X036806Y005352D01*
X036843Y005315D01*
X036770Y005205D02*
X036843Y005132D01*
X036400Y003709D02*
X036290Y003599D01*
X036437Y003599D01*
X036400Y003489D02*
X036400Y003709D01*
X036143Y003709D02*
X036143Y003489D01*
X036216Y003489D02*
X036069Y003489D01*
X035995Y003526D02*
X035958Y003489D01*
X035885Y003489D01*
X035848Y003526D01*
X035848Y003673D01*
X035885Y003709D01*
X035958Y003709D01*
X035995Y003673D01*
X036069Y003636D02*
X036143Y003709D01*
X035787Y002739D02*
X035640Y002739D01*
X035640Y002629D01*
X035714Y002666D01*
X035750Y002666D01*
X035787Y002629D01*
X035787Y002556D01*
X035750Y002519D01*
X035677Y002519D01*
X035640Y002556D01*
X035566Y002519D02*
X035419Y002519D01*
X035493Y002519D02*
X035493Y002739D01*
X035419Y002666D01*
X035345Y002703D02*
X035308Y002739D01*
X035235Y002739D01*
X035198Y002703D01*
X035198Y002556D01*
X035235Y002519D01*
X035308Y002519D01*
X035345Y002556D01*
X037123Y002534D02*
X037160Y002498D01*
X037196Y002498D01*
X037233Y002534D01*
X037233Y002644D01*
X037160Y002644D02*
X037307Y002644D01*
X037343Y002608D01*
X037343Y002534D01*
X037307Y002498D01*
X037343Y002423D02*
X037270Y002350D01*
X037270Y002387D02*
X037270Y002277D01*
X037343Y002277D02*
X037123Y002277D01*
X037123Y002387D01*
X037160Y002423D01*
X037233Y002423D01*
X037270Y002387D01*
X037123Y002534D02*
X037123Y002608D01*
X037160Y002644D01*
X006927Y009041D02*
X006927Y009088D01*
X006880Y009135D01*
X006646Y009135D01*
X006646Y008995D01*
X006693Y008948D01*
X006787Y008948D01*
X006833Y008995D01*
X006833Y009135D01*
X006787Y008858D02*
X006600Y008858D01*
X006787Y008672D01*
X006833Y008718D01*
X006833Y008812D01*
X006787Y008858D01*
X006787Y008672D02*
X006600Y008672D01*
X006553Y008718D01*
X006553Y008812D01*
X006600Y008858D01*
X005927Y009132D02*
X005646Y009132D01*
X005646Y009272D01*
X005693Y009319D01*
X005787Y009319D01*
X005833Y009272D01*
X005833Y009132D01*
X005833Y009041D02*
X005833Y008948D01*
X005833Y008995D02*
X005553Y008995D01*
X005553Y008948D01*
X005646Y008858D02*
X005646Y008718D01*
X005693Y008672D01*
X005740Y008718D01*
X005740Y008812D01*
X005787Y008858D01*
X005833Y008812D01*
X005833Y008672D01*
X004927Y008765D02*
X004927Y008812D01*
X004880Y008858D01*
X004646Y008858D01*
X004646Y008718D01*
X004693Y008672D01*
X004787Y008672D01*
X004833Y008718D01*
X004833Y008858D01*
X004833Y008948D02*
X004833Y009088D01*
X004787Y009135D01*
X004740Y009088D01*
X004740Y008995D01*
X004693Y008948D01*
X004646Y008995D01*
X004646Y009135D01*
X004693Y009224D02*
X004646Y009271D01*
X004646Y009364D01*
X004693Y009411D01*
X004740Y009411D01*
X004740Y009224D01*
X004787Y009224D02*
X004693Y009224D01*
X004787Y009224D02*
X004833Y009271D01*
X004833Y009364D01*
X004833Y009500D02*
X004833Y009594D01*
X004833Y009547D02*
X004553Y009547D01*
X004553Y009500D01*
X003833Y009502D02*
X003787Y009455D01*
X003600Y009455D01*
X003646Y009408D02*
X003646Y009502D01*
X003646Y009319D02*
X003646Y009179D01*
X003693Y009132D01*
X003740Y009179D01*
X003740Y009272D01*
X003787Y009319D01*
X003833Y009272D01*
X003833Y009132D01*
X003740Y009043D02*
X003740Y008856D01*
X003787Y008856D02*
X003693Y008856D01*
X003646Y008902D01*
X003646Y008996D01*
X003693Y009043D01*
X003740Y009043D01*
X003833Y008996D02*
X003833Y008902D01*
X003787Y008856D01*
X003833Y008765D02*
X003787Y008718D01*
X003600Y008718D01*
X003646Y008672D02*
X003646Y008765D01*
X002833Y008765D02*
X002740Y008672D01*
X002553Y008672D01*
X002553Y008858D02*
X002740Y008858D01*
X002833Y008765D01*
X002787Y008948D02*
X002693Y008948D01*
X002646Y008995D01*
X002646Y009135D01*
X002553Y009135D02*
X002833Y009135D01*
X002833Y008995D01*
X002787Y008948D01*
X002787Y009224D02*
X002693Y009224D01*
X002646Y009271D01*
X002646Y009411D01*
X002553Y009411D02*
X002833Y009411D01*
X002833Y009271D01*
X002787Y009224D01*
X002787Y009922D02*
X002833Y009968D01*
X002833Y010108D01*
X002880Y010108D02*
X002646Y010108D01*
X002646Y009968D01*
X002693Y009922D01*
X002787Y009922D01*
X002927Y010015D02*
X002927Y010062D01*
X002880Y010108D01*
X002833Y010198D02*
X002646Y010198D01*
X002646Y010338D01*
X002693Y010385D01*
X002833Y010385D01*
X002787Y010474D02*
X002693Y010474D01*
X002646Y010521D01*
X002646Y010661D01*
X002553Y010661D02*
X002833Y010661D01*
X002833Y010521D01*
X002787Y010474D01*
X003646Y010358D02*
X003833Y010172D01*
X003833Y010358D02*
X003646Y010172D01*
X004646Y010172D02*
X004787Y010172D01*
X004833Y010218D01*
X004833Y010358D01*
X004880Y010358D02*
X004927Y010312D01*
X004927Y010265D01*
X004880Y010358D02*
X004646Y010358D01*
X005646Y010358D02*
X005833Y010172D01*
X005833Y010358D01*
X005646Y010358D02*
X005646Y010172D01*
X006646Y010198D02*
X006646Y010338D01*
X006693Y010385D01*
X006833Y010385D01*
X006787Y010474D02*
X006693Y010474D01*
X006646Y010521D01*
X006646Y010661D01*
X006553Y010661D02*
X006833Y010661D01*
X006833Y010521D01*
X006787Y010474D01*
X006833Y010198D02*
X006646Y010198D01*
X006646Y010108D02*
X006646Y009968D01*
X006693Y009922D01*
X006787Y009922D01*
X006833Y009968D01*
X006833Y010108D01*
X006880Y010108D02*
X006646Y010108D01*
X006880Y010108D02*
X006927Y010062D01*
X006927Y010015D01*
X037735Y020781D02*
X037772Y020744D01*
X037845Y020744D01*
X037882Y020781D01*
X037956Y020744D02*
X038103Y020744D01*
X038030Y020744D02*
X038030Y020964D01*
X037956Y020891D01*
X037882Y020928D02*
X037845Y020964D01*
X037772Y020964D01*
X037735Y020928D01*
X037735Y020781D01*
X038177Y020781D02*
X038214Y020744D01*
X038287Y020744D01*
X038324Y020781D01*
X038324Y020928D01*
X038287Y020964D01*
X038214Y020964D01*
X038177Y020928D01*
X038177Y020891D01*
X038214Y020854D01*
X038324Y020854D01*
X050888Y023996D02*
X050925Y023959D01*
X050998Y023959D01*
X051035Y023996D01*
X051109Y023959D02*
X051256Y023959D01*
X051183Y023959D02*
X051183Y024179D01*
X051109Y024106D01*
X051035Y024143D02*
X050998Y024179D01*
X050925Y024179D01*
X050888Y024143D01*
X050888Y023996D01*
X051330Y023996D02*
X051477Y024143D01*
X051477Y023996D01*
X051440Y023959D01*
X051367Y023959D01*
X051330Y023996D01*
X051330Y024143D01*
X051367Y024179D01*
X051440Y024179D01*
X051477Y024143D01*
X052388Y024143D02*
X052388Y023996D01*
X052425Y023959D01*
X052498Y023959D01*
X052535Y023996D01*
X052609Y023996D02*
X052646Y023959D01*
X052719Y023959D01*
X052756Y023996D01*
X052756Y024143D01*
X052719Y024179D01*
X052646Y024179D01*
X052609Y024143D01*
X052609Y024106D01*
X052646Y024069D01*
X052756Y024069D01*
X052535Y024143D02*
X052498Y024179D01*
X052425Y024179D01*
X052388Y024143D01*
X053888Y024143D02*
X053888Y023996D01*
X053925Y023959D01*
X053998Y023959D01*
X054035Y023996D01*
X054109Y023996D02*
X054109Y024033D01*
X054146Y024069D01*
X054219Y024069D01*
X054256Y024033D01*
X054256Y023996D01*
X054219Y023959D01*
X054146Y023959D01*
X054109Y023996D01*
X054146Y024069D02*
X054109Y024106D01*
X054109Y024143D01*
X054146Y024179D01*
X054219Y024179D01*
X054256Y024143D01*
X054256Y024106D01*
X054219Y024069D01*
X054035Y024143D02*
X053998Y024179D01*
X053925Y024179D01*
X053888Y024143D01*
X055388Y024143D02*
X055388Y023996D01*
X055425Y023959D01*
X055498Y023959D01*
X055535Y023996D01*
X055609Y023996D02*
X055609Y023959D01*
X055609Y023996D02*
X055756Y024143D01*
X055756Y024179D01*
X055609Y024179D01*
X055535Y024143D02*
X055498Y024179D01*
X055425Y024179D01*
X055388Y024143D01*
X056470Y022942D02*
X056423Y022895D01*
X056470Y022942D02*
X056563Y022942D01*
X056610Y022895D01*
X056610Y022848D01*
X056423Y022662D01*
X056610Y022662D01*
X056699Y022708D02*
X056886Y022895D01*
X056886Y022708D01*
X056840Y022662D01*
X056746Y022662D01*
X056699Y022708D01*
X056699Y022895D01*
X056746Y022942D01*
X056840Y022942D01*
X056886Y022895D01*
X057252Y022942D02*
X057345Y022848D01*
X057439Y022942D01*
X057439Y022662D01*
X057528Y022662D02*
X057528Y022942D01*
X057528Y022802D02*
X057715Y022802D01*
X057804Y022848D02*
X057991Y022848D01*
X057804Y022662D01*
X057991Y022662D01*
X057715Y022662D02*
X057715Y022942D01*
X057252Y022942D02*
X057252Y022662D01*
D14*
X058753Y019982D02*
X061953Y019982D01*
X061976Y019980D01*
X061999Y019975D01*
X062021Y019966D01*
X062041Y019953D01*
X062059Y019938D01*
X062074Y019920D01*
X062087Y019900D01*
X062096Y019878D01*
X062101Y019855D01*
X062103Y019832D01*
X062103Y018592D01*
X062101Y018569D01*
X062096Y018546D01*
X062087Y018524D01*
X062074Y018504D01*
X062059Y018486D01*
X062041Y018471D01*
X062021Y018458D01*
X061999Y018449D01*
X061976Y018444D01*
X061953Y018442D01*
X058753Y018442D01*
X058730Y018444D01*
X058707Y018449D01*
X058685Y018458D01*
X058665Y018471D01*
X058647Y018486D01*
X058632Y018504D01*
X058619Y018524D01*
X058610Y018546D01*
X058605Y018569D01*
X058603Y018592D01*
X058603Y019012D01*
X058603Y019412D01*
X058603Y019832D01*
X058605Y019855D01*
X058610Y019878D01*
X058619Y019900D01*
X058632Y019920D01*
X058647Y019938D01*
X058665Y019953D01*
X058685Y019966D01*
X058707Y019975D01*
X058730Y019980D01*
X058753Y019982D01*
X058603Y019412D02*
X058630Y019410D01*
X058657Y019405D01*
X058683Y019395D01*
X058707Y019383D01*
X058729Y019367D01*
X058749Y019349D01*
X058766Y019327D01*
X058781Y019304D01*
X058791Y019279D01*
X058799Y019253D01*
X058803Y019226D01*
X058803Y019198D01*
X058799Y019171D01*
X058791Y019145D01*
X058781Y019120D01*
X058766Y019097D01*
X058749Y019075D01*
X058729Y019057D01*
X058707Y019041D01*
X058683Y019029D01*
X058657Y019019D01*
X058630Y019014D01*
X058603Y019012D01*
X060143Y016312D02*
X060293Y016312D01*
X060343Y016262D01*
X061743Y016262D01*
X061793Y016312D01*
X061943Y016312D01*
X061960Y016310D01*
X061977Y016306D01*
X061993Y016299D01*
X062007Y016289D01*
X062020Y016276D01*
X062030Y016262D01*
X062037Y016246D01*
X062041Y016229D01*
X062043Y016212D01*
X062043Y015612D01*
X062041Y015595D01*
X062037Y015578D01*
X062030Y015562D01*
X062020Y015548D01*
X062007Y015535D01*
X061993Y015525D01*
X061977Y015518D01*
X061960Y015514D01*
X061943Y015512D01*
X061793Y015512D01*
X061743Y015562D01*
X060343Y015562D01*
X060293Y015512D01*
X060143Y015512D01*
X060126Y015514D01*
X060109Y015518D01*
X060093Y015525D01*
X060079Y015535D01*
X060066Y015548D01*
X060056Y015562D01*
X060049Y015578D01*
X060045Y015595D01*
X060043Y015612D01*
X060043Y016212D01*
X060045Y016229D01*
X060049Y016246D01*
X060056Y016262D01*
X060066Y016276D01*
X060079Y016289D01*
X060093Y016299D01*
X060109Y016306D01*
X060126Y016310D01*
X060143Y016312D01*
X063353Y013962D02*
X063603Y014212D01*
X065103Y014212D01*
X065353Y013962D01*
X065353Y013462D01*
X065103Y013212D01*
X065353Y012962D01*
X065353Y012462D01*
X065103Y012212D01*
X065353Y011962D01*
X065353Y011462D01*
X065103Y011212D01*
X065353Y010962D01*
X065353Y010462D01*
X065103Y010212D01*
X063603Y010212D01*
X063353Y010462D01*
X063353Y010962D01*
X063603Y011212D01*
X063353Y011462D01*
X063353Y011962D01*
X063603Y012212D01*
X063353Y012462D01*
X063353Y012962D01*
X063603Y013212D01*
X063353Y013462D01*
X063353Y013962D01*
X062303Y013202D02*
X061703Y013202D01*
X061686Y013200D01*
X061669Y013196D01*
X061653Y013189D01*
X061639Y013179D01*
X061626Y013166D01*
X061616Y013152D01*
X061609Y013136D01*
X061605Y013119D01*
X061603Y013102D01*
X061603Y012952D01*
X061653Y012902D01*
X061653Y011502D01*
X061603Y011452D01*
X061603Y011302D01*
X061605Y011285D01*
X061609Y011268D01*
X061616Y011252D01*
X061626Y011238D01*
X061639Y011225D01*
X061653Y011215D01*
X061669Y011208D01*
X061686Y011204D01*
X061703Y011202D01*
X062303Y011202D01*
X062320Y011204D01*
X062337Y011208D01*
X062353Y011215D01*
X062367Y011225D01*
X062380Y011238D01*
X062390Y011252D01*
X062397Y011268D01*
X062401Y011285D01*
X062403Y011302D01*
X062403Y011452D01*
X062353Y011502D01*
X062353Y012902D01*
X062403Y012952D01*
X062403Y013102D01*
X062401Y013119D01*
X062397Y013136D01*
X062390Y013152D01*
X062380Y013166D01*
X062367Y013179D01*
X062353Y013189D01*
X062337Y013196D01*
X062320Y013200D01*
X062303Y013202D01*
X061233Y013062D02*
X061233Y012912D01*
X061183Y012862D01*
X061183Y011462D01*
X061233Y011412D01*
X061233Y011262D01*
X061231Y011245D01*
X061227Y011228D01*
X061220Y011212D01*
X061210Y011198D01*
X061197Y011185D01*
X061183Y011175D01*
X061167Y011168D01*
X061150Y011164D01*
X061133Y011162D01*
X060533Y011162D01*
X060516Y011164D01*
X060499Y011168D01*
X060483Y011175D01*
X060469Y011185D01*
X060456Y011198D01*
X060446Y011212D01*
X060439Y011228D01*
X060435Y011245D01*
X060433Y011262D01*
X060433Y011412D01*
X060483Y011462D01*
X060483Y012862D01*
X060433Y012912D01*
X060433Y013062D01*
X060435Y013079D01*
X060439Y013096D01*
X060446Y013112D01*
X060456Y013126D01*
X060469Y013139D01*
X060483Y013149D01*
X060499Y013156D01*
X060516Y013160D01*
X060533Y013162D01*
X061133Y013162D01*
X061150Y013160D01*
X061167Y013156D01*
X061183Y013149D01*
X061197Y013139D01*
X061210Y013126D01*
X061220Y013112D01*
X061227Y013096D01*
X061231Y013079D01*
X061233Y013062D01*
X061253Y009102D02*
X061403Y009102D01*
X061453Y009052D01*
X062853Y009052D01*
X062903Y009102D01*
X063053Y009102D01*
X063070Y009100D01*
X063087Y009096D01*
X063103Y009089D01*
X063117Y009079D01*
X063130Y009066D01*
X063140Y009052D01*
X063147Y009036D01*
X063151Y009019D01*
X063153Y009002D01*
X063153Y008402D01*
X063151Y008385D01*
X063147Y008368D01*
X063140Y008352D01*
X063130Y008338D01*
X063117Y008325D01*
X063103Y008315D01*
X063087Y008308D01*
X063070Y008304D01*
X063053Y008302D01*
X062903Y008302D01*
X062853Y008352D01*
X061453Y008352D01*
X061403Y008302D01*
X061253Y008302D01*
X061236Y008304D01*
X061219Y008308D01*
X061203Y008315D01*
X061189Y008325D01*
X061176Y008338D01*
X061166Y008352D01*
X061159Y008368D01*
X061155Y008385D01*
X061153Y008402D01*
X061153Y009002D01*
X061155Y009019D01*
X061159Y009036D01*
X061166Y009052D01*
X061176Y009066D01*
X061189Y009079D01*
X061203Y009089D01*
X061219Y009096D01*
X061236Y009100D01*
X061253Y009102D01*
X061293Y008032D02*
X061443Y008032D01*
X061493Y007982D01*
X062893Y007982D01*
X062943Y008032D01*
X063093Y008032D01*
X063110Y008030D01*
X063127Y008026D01*
X063143Y008019D01*
X063157Y008009D01*
X063170Y007996D01*
X063180Y007982D01*
X063187Y007966D01*
X063191Y007949D01*
X063193Y007932D01*
X063193Y007332D01*
X063191Y007315D01*
X063187Y007298D01*
X063180Y007282D01*
X063170Y007268D01*
X063157Y007255D01*
X063143Y007245D01*
X063127Y007238D01*
X063110Y007234D01*
X063093Y007232D01*
X062943Y007232D01*
X062893Y007282D01*
X061493Y007282D01*
X061443Y007232D01*
X061293Y007232D01*
X061276Y007234D01*
X061259Y007238D01*
X061243Y007245D01*
X061229Y007255D01*
X061216Y007268D01*
X061206Y007282D01*
X061199Y007298D01*
X061195Y007315D01*
X061193Y007332D01*
X061193Y007932D01*
X061195Y007949D01*
X061199Y007966D01*
X061206Y007982D01*
X061216Y007996D01*
X061229Y008009D01*
X061243Y008019D01*
X061259Y008026D01*
X061276Y008030D01*
X061293Y008032D01*
X054403Y003242D02*
X054403Y002642D01*
X054401Y002625D01*
X054397Y002608D01*
X054390Y002592D01*
X054380Y002578D01*
X054367Y002565D01*
X054353Y002555D01*
X054337Y002548D01*
X054320Y002544D01*
X054303Y002542D01*
X054153Y002542D01*
X054103Y002592D01*
X052703Y002592D01*
X052653Y002542D01*
X052503Y002542D01*
X052486Y002544D01*
X052469Y002548D01*
X052453Y002555D01*
X052439Y002565D01*
X052426Y002578D01*
X052416Y002592D01*
X052409Y002608D01*
X052405Y002625D01*
X052403Y002642D01*
X052403Y003242D01*
X052405Y003259D01*
X052409Y003276D01*
X052416Y003292D01*
X052426Y003306D01*
X052439Y003319D01*
X052453Y003329D01*
X052469Y003336D01*
X052486Y003340D01*
X052503Y003342D01*
X052653Y003342D01*
X052703Y003292D01*
X054103Y003292D01*
X054153Y003342D01*
X054303Y003342D01*
X054320Y003340D01*
X054337Y003336D01*
X054353Y003329D01*
X054367Y003319D01*
X054380Y003306D01*
X054390Y003292D01*
X054397Y003276D01*
X054401Y003259D01*
X054403Y003242D01*
X054963Y001722D02*
X055113Y001722D01*
X055163Y001672D01*
X056563Y001672D01*
X056613Y001722D01*
X056763Y001722D01*
X056780Y001720D01*
X056797Y001716D01*
X056813Y001709D01*
X056827Y001699D01*
X056840Y001686D01*
X056850Y001672D01*
X056857Y001656D01*
X056861Y001639D01*
X056863Y001622D01*
X056863Y001022D01*
X056861Y001005D01*
X056857Y000988D01*
X056850Y000972D01*
X056840Y000958D01*
X056827Y000945D01*
X056813Y000935D01*
X056797Y000928D01*
X056780Y000924D01*
X056763Y000922D01*
X056613Y000922D01*
X056563Y000972D01*
X055163Y000972D01*
X055113Y000922D01*
X054963Y000922D01*
X054946Y000924D01*
X054929Y000928D01*
X054913Y000935D01*
X054899Y000945D01*
X054886Y000958D01*
X054876Y000972D01*
X054869Y000988D01*
X054865Y001005D01*
X054863Y001022D01*
X054863Y001622D01*
X054865Y001639D01*
X054869Y001656D01*
X054876Y001672D01*
X054886Y001686D01*
X054899Y001699D01*
X054913Y001709D01*
X054929Y001716D01*
X054946Y001720D01*
X054963Y001722D01*
X052503Y001622D02*
X052503Y001022D01*
X052501Y001005D01*
X052497Y000988D01*
X052490Y000972D01*
X052480Y000958D01*
X052467Y000945D01*
X052453Y000935D01*
X052437Y000928D01*
X052420Y000924D01*
X052403Y000922D01*
X052253Y000922D01*
X052203Y000972D01*
X050803Y000972D01*
X050753Y000922D01*
X050603Y000922D01*
X050586Y000924D01*
X050569Y000928D01*
X050553Y000935D01*
X050539Y000945D01*
X050526Y000958D01*
X050516Y000972D01*
X050509Y000988D01*
X050505Y001005D01*
X050503Y001022D01*
X050503Y001622D01*
X050505Y001639D01*
X050509Y001656D01*
X050516Y001672D01*
X050526Y001686D01*
X050539Y001699D01*
X050553Y001709D01*
X050569Y001716D01*
X050586Y001720D01*
X050603Y001722D01*
X050753Y001722D01*
X050803Y001672D01*
X052203Y001672D01*
X052253Y001722D01*
X052403Y001722D01*
X052420Y001720D01*
X052437Y001716D01*
X052453Y001709D01*
X052467Y001699D01*
X052480Y001686D01*
X052490Y001672D01*
X052497Y001656D01*
X052501Y001639D01*
X052503Y001622D01*
X042103Y003592D02*
X042103Y004832D01*
X042101Y004855D01*
X042096Y004878D01*
X042087Y004900D01*
X042074Y004920D01*
X042059Y004938D01*
X042041Y004953D01*
X042021Y004966D01*
X041999Y004975D01*
X041976Y004980D01*
X041953Y004982D01*
X038753Y004982D01*
X038730Y004980D01*
X038707Y004975D01*
X038685Y004966D01*
X038665Y004953D01*
X038647Y004938D01*
X038632Y004920D01*
X038619Y004900D01*
X038610Y004878D01*
X038605Y004855D01*
X038603Y004832D01*
X038603Y004412D01*
X038603Y004012D01*
X038603Y003592D01*
X038605Y003569D01*
X038610Y003546D01*
X038619Y003524D01*
X038632Y003504D01*
X038647Y003486D01*
X038665Y003471D01*
X038685Y003458D01*
X038707Y003449D01*
X038730Y003444D01*
X038753Y003442D01*
X041953Y003442D01*
X041976Y003444D01*
X041999Y003449D01*
X042021Y003458D01*
X042041Y003471D01*
X042059Y003486D01*
X042074Y003504D01*
X042087Y003524D01*
X042096Y003546D01*
X042101Y003569D01*
X042103Y003592D01*
X038603Y004012D02*
X038630Y004014D01*
X038657Y004019D01*
X038683Y004029D01*
X038707Y004041D01*
X038729Y004057D01*
X038749Y004075D01*
X038766Y004097D01*
X038781Y004120D01*
X038791Y004145D01*
X038799Y004171D01*
X038803Y004198D01*
X038803Y004226D01*
X038799Y004253D01*
X038791Y004279D01*
X038781Y004304D01*
X038766Y004327D01*
X038749Y004349D01*
X038729Y004367D01*
X038707Y004383D01*
X038683Y004395D01*
X038657Y004405D01*
X038630Y004410D01*
X038603Y004412D01*
X035353Y004212D02*
X035353Y003712D01*
X035103Y003462D01*
X033603Y003462D01*
X033353Y003712D01*
X033353Y004212D01*
X033603Y004462D01*
X035103Y004462D01*
X035353Y004212D01*
X035103Y004462D02*
X035353Y004712D01*
X035353Y005212D01*
X035103Y005462D01*
X033603Y005462D01*
X033353Y005212D01*
X033353Y004712D01*
X033603Y004462D01*
X033603Y005462D02*
X033353Y005712D01*
X033353Y006212D01*
X033603Y006462D01*
X035103Y006462D01*
X035353Y006212D01*
X035353Y005712D01*
X035103Y005462D01*
X035103Y006462D02*
X035353Y006712D01*
X035353Y007212D01*
X035103Y007462D01*
X033603Y007462D01*
X033353Y007212D01*
X033353Y006712D01*
X033603Y006462D01*
X033603Y007462D02*
X033353Y007712D01*
X033353Y008212D01*
X033603Y008462D01*
X035103Y008462D01*
X035353Y008212D01*
X035353Y007712D01*
X035103Y007462D01*
X031883Y009252D02*
X031243Y009252D01*
X031883Y009679D01*
X031243Y009679D01*
X031243Y009896D02*
X031776Y009896D01*
X031883Y010003D01*
X031883Y010216D01*
X031776Y010323D01*
X031243Y010323D01*
X031243Y011185D02*
X031456Y011399D01*
X031243Y011612D01*
X031883Y011612D01*
X031776Y011830D02*
X031883Y011936D01*
X031883Y012150D01*
X031776Y012257D01*
X031563Y012257D01*
X031456Y012150D01*
X031456Y011936D01*
X031563Y011830D01*
X031776Y011830D01*
X031883Y012474D02*
X031456Y012474D01*
X031456Y012795D01*
X031563Y012901D01*
X031883Y012901D01*
X031883Y013119D02*
X031243Y013119D01*
X031456Y013439D02*
X031670Y013119D01*
X031883Y013439D01*
X031776Y013656D02*
X031883Y013763D01*
X031883Y013976D01*
X031670Y014083D02*
X031670Y013656D01*
X031776Y013656D02*
X031563Y013656D01*
X031456Y013763D01*
X031456Y013976D01*
X031563Y014083D01*
X031670Y014083D01*
X031776Y014300D02*
X031883Y014407D01*
X031883Y014727D01*
X031990Y014727D02*
X032097Y014621D01*
X032097Y014514D01*
X031990Y014727D02*
X031456Y014727D01*
X031456Y014945D02*
X031456Y015265D01*
X031563Y015372D01*
X031776Y015372D01*
X031883Y015265D01*
X031883Y014945D01*
X031243Y014945D01*
X031563Y015589D02*
X031776Y015589D01*
X031883Y015696D01*
X031883Y015910D01*
X031776Y016016D01*
X031563Y016016D01*
X031456Y015910D01*
X031456Y015696D01*
X031563Y015589D01*
X031456Y016234D02*
X031456Y016448D01*
X031349Y016341D02*
X031776Y016341D01*
X031883Y016448D01*
X033353Y016712D02*
X033603Y016462D01*
X035103Y016462D01*
X035353Y016712D01*
X035353Y017212D01*
X035103Y017462D01*
X033603Y017462D01*
X033353Y017212D01*
X033353Y016712D01*
X033603Y017462D02*
X033353Y017712D01*
X033353Y018212D01*
X033603Y018462D01*
X035103Y018462D01*
X035353Y018212D01*
X035353Y017712D01*
X035103Y017462D01*
X035103Y018462D02*
X035353Y018712D01*
X035353Y019212D01*
X035103Y019462D01*
X033603Y019462D01*
X033353Y019212D01*
X033353Y018712D01*
X033603Y018462D01*
X033603Y019462D02*
X033353Y019712D01*
X033353Y020212D01*
X033603Y020462D01*
X035103Y020462D01*
X035353Y020212D01*
X035353Y019712D01*
X035103Y019462D01*
X036963Y019872D02*
X036963Y020472D01*
X036965Y020489D01*
X036969Y020506D01*
X036976Y020522D01*
X036986Y020536D01*
X036999Y020549D01*
X037013Y020559D01*
X037029Y020566D01*
X037046Y020570D01*
X037063Y020572D01*
X037213Y020572D01*
X037263Y020522D01*
X038663Y020522D01*
X038713Y020572D01*
X038863Y020572D01*
X038880Y020570D01*
X038897Y020566D01*
X038913Y020559D01*
X038927Y020549D01*
X038940Y020536D01*
X038950Y020522D01*
X038957Y020506D01*
X038961Y020489D01*
X038963Y020472D01*
X038963Y019872D01*
X038961Y019855D01*
X038957Y019838D01*
X038950Y019822D01*
X038940Y019808D01*
X038927Y019795D01*
X038913Y019785D01*
X038897Y019778D01*
X038880Y019774D01*
X038863Y019772D01*
X038713Y019772D01*
X038663Y019822D01*
X037263Y019822D01*
X037213Y019772D01*
X037063Y019772D01*
X037046Y019774D01*
X037029Y019778D01*
X037013Y019785D01*
X036999Y019795D01*
X036986Y019808D01*
X036976Y019822D01*
X036969Y019838D01*
X036965Y019855D01*
X036963Y019872D01*
X035353Y020712D02*
X035103Y020462D01*
X035353Y020712D02*
X035353Y021212D01*
X035103Y021462D01*
X033603Y021462D01*
X033353Y021212D01*
X033353Y020712D01*
X033603Y020462D01*
X040723Y019942D02*
X040723Y019522D01*
X040723Y019122D01*
X040723Y018702D01*
X040725Y018679D01*
X040730Y018656D01*
X040739Y018634D01*
X040752Y018614D01*
X040767Y018596D01*
X040785Y018581D01*
X040805Y018568D01*
X040827Y018559D01*
X040850Y018554D01*
X040873Y018552D01*
X044073Y018552D01*
X044096Y018554D01*
X044119Y018559D01*
X044141Y018568D01*
X044161Y018581D01*
X044179Y018596D01*
X044194Y018614D01*
X044207Y018634D01*
X044216Y018656D01*
X044221Y018679D01*
X044223Y018702D01*
X044223Y019942D01*
X044221Y019965D01*
X044216Y019988D01*
X044207Y020010D01*
X044194Y020030D01*
X044179Y020048D01*
X044161Y020063D01*
X044141Y020076D01*
X044119Y020085D01*
X044096Y020090D01*
X044073Y020092D01*
X040873Y020092D01*
X040850Y020090D01*
X040827Y020085D01*
X040805Y020076D01*
X040785Y020063D01*
X040767Y020048D01*
X040752Y020030D01*
X040739Y020010D01*
X040730Y019988D01*
X040725Y019965D01*
X040723Y019942D01*
X040723Y019522D02*
X040750Y019520D01*
X040777Y019515D01*
X040803Y019505D01*
X040827Y019493D01*
X040849Y019477D01*
X040869Y019459D01*
X040886Y019437D01*
X040901Y019414D01*
X040911Y019389D01*
X040919Y019363D01*
X040923Y019336D01*
X040923Y019308D01*
X040919Y019281D01*
X040911Y019255D01*
X040901Y019230D01*
X040886Y019207D01*
X040869Y019185D01*
X040849Y019167D01*
X040827Y019151D01*
X040803Y019139D01*
X040777Y019129D01*
X040750Y019124D01*
X040723Y019122D01*
X045403Y020872D02*
X045403Y021472D01*
X045405Y021489D01*
X045409Y021506D01*
X045416Y021522D01*
X045426Y021536D01*
X045439Y021549D01*
X045453Y021559D01*
X045469Y021566D01*
X045486Y021570D01*
X045503Y021572D01*
X045653Y021572D01*
X045703Y021522D01*
X047103Y021522D01*
X047153Y021572D01*
X047303Y021572D01*
X047320Y021570D01*
X047337Y021566D01*
X047353Y021559D01*
X047367Y021549D01*
X047380Y021536D01*
X047390Y021522D01*
X047397Y021506D01*
X047401Y021489D01*
X047403Y021472D01*
X047403Y020872D01*
X047401Y020855D01*
X047397Y020838D01*
X047390Y020822D01*
X047380Y020808D01*
X047367Y020795D01*
X047353Y020785D01*
X047337Y020778D01*
X047320Y020774D01*
X047303Y020772D01*
X047153Y020772D01*
X047103Y020822D01*
X045703Y020822D01*
X045653Y020772D01*
X045503Y020772D01*
X045486Y020774D01*
X045469Y020778D01*
X045453Y020785D01*
X045439Y020795D01*
X045426Y020808D01*
X045416Y020822D01*
X045409Y020838D01*
X045405Y020855D01*
X045403Y020872D01*
X045823Y014292D02*
X045773Y014242D01*
X044373Y014242D01*
X044323Y014292D01*
X044173Y014292D01*
X044156Y014290D01*
X044139Y014286D01*
X044123Y014279D01*
X044109Y014269D01*
X044096Y014256D01*
X044086Y014242D01*
X044079Y014226D01*
X044075Y014209D01*
X044073Y014192D01*
X044073Y013592D01*
X044075Y013575D01*
X044079Y013558D01*
X044086Y013542D01*
X044096Y013528D01*
X044109Y013515D01*
X044123Y013505D01*
X044139Y013498D01*
X044156Y013494D01*
X044173Y013492D01*
X044323Y013492D01*
X044373Y013542D01*
X045773Y013542D01*
X045823Y013492D01*
X045973Y013492D01*
X045990Y013494D01*
X046007Y013498D01*
X046023Y013505D01*
X046037Y013515D01*
X046050Y013528D01*
X046060Y013542D01*
X046067Y013558D01*
X046071Y013575D01*
X046073Y013592D01*
X046073Y014192D01*
X046071Y014209D01*
X046067Y014226D01*
X046060Y014242D01*
X046050Y014256D01*
X046037Y014269D01*
X046023Y014279D01*
X046007Y014286D01*
X045990Y014290D01*
X045973Y014292D01*
X045823Y014292D01*
X045863Y012772D02*
X045813Y012722D01*
X044413Y012722D01*
X044363Y012772D01*
X044213Y012772D01*
X044196Y012770D01*
X044179Y012766D01*
X044163Y012759D01*
X044149Y012749D01*
X044136Y012736D01*
X044126Y012722D01*
X044119Y012706D01*
X044115Y012689D01*
X044113Y012672D01*
X044113Y012072D01*
X044115Y012055D01*
X044119Y012038D01*
X044126Y012022D01*
X044136Y012008D01*
X044149Y011995D01*
X044163Y011985D01*
X044179Y011978D01*
X044196Y011974D01*
X044213Y011972D01*
X044363Y011972D01*
X044413Y012022D01*
X045813Y012022D01*
X045863Y011972D01*
X046013Y011972D01*
X046030Y011974D01*
X046047Y011978D01*
X046063Y011985D01*
X046077Y011995D01*
X046090Y012008D01*
X046100Y012022D01*
X046107Y012038D01*
X046111Y012055D01*
X046113Y012072D01*
X046113Y012672D01*
X046111Y012689D01*
X046107Y012706D01*
X046100Y012722D01*
X046090Y012736D01*
X046077Y012749D01*
X046063Y012759D01*
X046047Y012766D01*
X046030Y012770D01*
X046013Y012772D01*
X045863Y012772D01*
X031883Y011185D02*
X031243Y011185D01*
X024563Y011502D02*
X023563Y011502D01*
X023563Y013102D01*
X024563Y013102D01*
X024563Y011502D01*
X024063Y012052D02*
X024063Y012302D01*
X024313Y012302D01*
X024063Y012302D02*
X023813Y012302D01*
X024063Y012302D02*
X023813Y012702D01*
X024313Y012702D01*
X024063Y012302D01*
X024063Y012902D01*
X023403Y015032D02*
X022403Y015032D01*
X022403Y016632D01*
X023403Y016632D01*
X023403Y015032D01*
X022903Y015582D02*
X022903Y015832D01*
X023153Y015832D01*
X022903Y015832D02*
X022653Y015832D01*
X022903Y015832D02*
X022653Y016232D01*
X023153Y016232D01*
X022903Y015832D01*
X022903Y016432D01*
X031456Y014300D02*
X031776Y014300D01*
X009967Y014504D02*
X009967Y014611D01*
X009860Y014717D01*
X009326Y014717D01*
X009326Y014935D02*
X009326Y015255D01*
X009433Y015362D01*
X009646Y015362D01*
X009753Y015255D01*
X009753Y014935D01*
X009113Y014935D01*
X009753Y014717D02*
X009753Y014397D01*
X009646Y014290D01*
X009326Y014290D01*
X009433Y014073D02*
X009540Y014073D01*
X009540Y013646D01*
X009646Y013646D02*
X009433Y013646D01*
X009326Y013753D01*
X009326Y013966D01*
X009433Y014073D01*
X009753Y013966D02*
X009753Y013753D01*
X009646Y013646D01*
X009753Y013429D02*
X009540Y013109D01*
X009326Y013429D01*
X009113Y013109D02*
X009753Y013109D01*
X009753Y012891D02*
X009433Y012891D01*
X009326Y012785D01*
X009326Y012464D01*
X009753Y012464D01*
X009646Y012247D02*
X009433Y012247D01*
X009326Y012140D01*
X009326Y011926D01*
X009433Y011820D01*
X009646Y011820D01*
X009753Y011926D01*
X009753Y012140D01*
X009646Y012247D01*
X009753Y011602D02*
X009113Y011602D01*
X009326Y011389D01*
X009113Y011175D01*
X009753Y011175D01*
X009646Y010313D02*
X009113Y010313D01*
X009646Y010313D02*
X009753Y010206D01*
X009753Y009993D01*
X009646Y009886D01*
X009113Y009886D01*
X009113Y009669D02*
X009753Y009669D01*
X009113Y009242D01*
X009753Y009242D01*
X005663Y006822D02*
X005413Y007072D01*
X003913Y007072D01*
X003663Y006822D01*
X003663Y006322D01*
X003913Y006072D01*
X003663Y005822D01*
X003663Y005322D01*
X003913Y005072D01*
X003663Y004822D01*
X003663Y004322D01*
X003913Y004072D01*
X003663Y003822D01*
X003663Y003322D01*
X003913Y003072D01*
X005413Y003072D01*
X005663Y003322D01*
X005663Y003822D01*
X005413Y004072D01*
X005663Y004322D01*
X005663Y004822D01*
X005413Y005072D01*
X005663Y005322D01*
X005663Y005822D01*
X005413Y006072D01*
X005663Y006322D01*
X005663Y006822D01*
X009433Y015579D02*
X009646Y015579D01*
X009753Y015686D01*
X009753Y015900D01*
X009646Y016006D01*
X009433Y016006D01*
X009326Y015900D01*
X009326Y015686D01*
X009433Y015579D01*
X009326Y016224D02*
X009326Y016438D01*
X009219Y016331D02*
X009646Y016331D01*
X009753Y016438D01*
D15*
X053403Y012864D02*
X053453Y012864D01*
X053428Y012864D02*
X053428Y012714D01*
X053403Y012714D02*
X053453Y012714D01*
X053502Y012739D02*
X053527Y012714D01*
X053577Y012714D01*
X053602Y012739D01*
X053649Y012714D02*
X053749Y012714D01*
X053699Y012714D02*
X053699Y012864D01*
X053649Y012814D01*
X053602Y012839D02*
X053577Y012864D01*
X053527Y012864D01*
X053502Y012839D01*
X053502Y012739D01*
X057108Y004117D02*
X057158Y004067D01*
X057208Y004117D01*
X057208Y003967D01*
X057256Y003992D02*
X057281Y003967D01*
X057331Y003967D01*
X057356Y003992D01*
X057403Y004017D02*
X057478Y004017D01*
X057503Y004042D01*
X057503Y004092D01*
X057478Y004117D01*
X057403Y004117D01*
X057403Y003967D01*
X057356Y004092D02*
X057331Y004117D01*
X057281Y004117D01*
X057256Y004092D01*
X057256Y003992D01*
X057108Y003967D02*
X057108Y004117D01*
X057550Y004042D02*
X057625Y004042D01*
X057650Y004017D01*
X057650Y003992D01*
X057625Y003967D01*
X057575Y003967D01*
X057550Y003992D01*
X057550Y004042D01*
X057600Y004092D01*
X057650Y004117D01*
X057698Y004067D02*
X057748Y004117D01*
X057748Y003967D01*
X057698Y003967D02*
X057798Y003967D01*
X057845Y003992D02*
X057870Y003967D01*
X057920Y003967D01*
X057945Y003992D01*
X057945Y004017D01*
X057920Y004042D01*
X057845Y004042D01*
X057845Y003992D01*
X057845Y004042D02*
X057895Y004092D01*
X057945Y004117D01*
D16*
X056553Y006332D02*
X056053Y006332D01*
X055803Y006582D01*
X055553Y006332D01*
X055053Y006332D01*
X054803Y006582D01*
X054553Y006332D01*
X054053Y006332D01*
X053803Y006582D01*
X053553Y006332D01*
X053053Y006332D01*
X052803Y006582D01*
X052553Y006332D01*
X052053Y006332D01*
X051803Y006582D01*
X051803Y007082D01*
X052053Y007332D01*
X052553Y007332D01*
X052803Y007082D01*
X053053Y007332D01*
X053553Y007332D01*
X053803Y007082D01*
X054053Y007332D01*
X054553Y007332D01*
X054803Y007082D01*
X055053Y007332D01*
X055553Y007332D01*
X055803Y007082D01*
X056053Y007332D01*
X056553Y007332D01*
X056803Y007082D01*
X056803Y006582D01*
X056553Y006332D01*
X064353Y006462D02*
X064353Y005962D01*
X064603Y005712D01*
X064353Y005462D01*
X064353Y004962D01*
X064603Y004712D01*
X064353Y004462D01*
X064353Y003962D01*
X064603Y003712D01*
X065103Y003712D01*
X065353Y003962D01*
X065353Y004462D01*
X065103Y004712D01*
X065353Y004962D01*
X065353Y005462D01*
X065103Y005712D01*
X065353Y005962D01*
X065353Y006462D01*
X065103Y006712D01*
X065353Y006962D01*
X065353Y007462D01*
X065103Y007712D01*
X064603Y007712D01*
X064353Y007462D01*
X064353Y006962D01*
X064603Y006712D01*
X064353Y006462D01*
X059659Y011453D02*
X059147Y011453D01*
X059147Y012870D02*
X059659Y012870D01*
X063363Y014822D02*
X063613Y014572D01*
X064113Y014572D01*
X064363Y014822D01*
X064613Y014572D01*
X065113Y014572D01*
X065363Y014822D01*
X065363Y015322D01*
X065113Y015572D01*
X064613Y015572D01*
X064363Y015322D01*
X064113Y015572D01*
X063613Y015572D01*
X063363Y015322D01*
X063363Y014822D01*
X064603Y016212D02*
X064353Y016462D01*
X064353Y016962D01*
X064603Y017212D01*
X064353Y017462D01*
X064353Y017962D01*
X064603Y018212D01*
X064353Y018462D01*
X064353Y018962D01*
X064603Y019212D01*
X064353Y019462D01*
X064353Y019962D01*
X064603Y020212D01*
X064353Y020462D01*
X064353Y020962D01*
X064603Y021212D01*
X065103Y021212D01*
X065353Y020962D01*
X065353Y020462D01*
X065103Y020212D01*
X065353Y019962D01*
X065353Y019462D01*
X065103Y019212D01*
X065353Y018962D01*
X065353Y018462D01*
X065103Y018212D01*
X065353Y017962D01*
X065353Y017462D01*
X065103Y017212D01*
X065353Y016962D01*
X065353Y016462D01*
X065103Y016212D01*
X064603Y016212D01*
X058463Y021292D02*
X055763Y021292D01*
X055704Y021294D01*
X055646Y021300D01*
X055587Y021309D01*
X055530Y021323D01*
X055474Y021340D01*
X055419Y021361D01*
X055365Y021385D01*
X055313Y021413D01*
X055263Y021444D01*
X055215Y021478D01*
X055170Y021515D01*
X055127Y021556D01*
X055086Y021599D01*
X055049Y021644D01*
X055015Y021692D01*
X054984Y021742D01*
X054956Y021794D01*
X054932Y021848D01*
X054911Y021903D01*
X054894Y021959D01*
X054880Y022016D01*
X054871Y022075D01*
X054865Y022133D01*
X054863Y022192D01*
X054865Y022251D01*
X054871Y022309D01*
X054880Y022368D01*
X054894Y022425D01*
X054911Y022481D01*
X054932Y022536D01*
X054956Y022590D01*
X054984Y022642D01*
X055015Y022692D01*
X055049Y022740D01*
X055086Y022785D01*
X055127Y022828D01*
X055170Y022869D01*
X055215Y022906D01*
X055263Y022940D01*
X055313Y022971D01*
X055365Y022999D01*
X055419Y023023D01*
X055474Y023044D01*
X055530Y023061D01*
X055587Y023075D01*
X055646Y023084D01*
X055704Y023090D01*
X055763Y023092D01*
X058463Y023092D01*
X058522Y023090D01*
X058580Y023084D01*
X058639Y023075D01*
X058696Y023061D01*
X058752Y023044D01*
X058807Y023023D01*
X058861Y022999D01*
X058913Y022971D01*
X058963Y022940D01*
X059011Y022906D01*
X059056Y022869D01*
X059099Y022828D01*
X059140Y022785D01*
X059177Y022740D01*
X059211Y022692D01*
X059242Y022642D01*
X059270Y022590D01*
X059294Y022536D01*
X059315Y022481D01*
X059332Y022425D01*
X059346Y022368D01*
X059355Y022309D01*
X059361Y022251D01*
X059363Y022192D01*
X059361Y022133D01*
X059355Y022075D01*
X059346Y022016D01*
X059332Y021959D01*
X059315Y021903D01*
X059294Y021848D01*
X059270Y021794D01*
X059242Y021742D01*
X059211Y021692D01*
X059177Y021644D01*
X059140Y021599D01*
X059099Y021556D01*
X059056Y021515D01*
X059011Y021478D01*
X058963Y021444D01*
X058913Y021413D01*
X058861Y021385D01*
X058807Y021361D01*
X058752Y021340D01*
X058696Y021323D01*
X058639Y021309D01*
X058580Y021300D01*
X058522Y021294D01*
X058463Y021292D01*
X046353Y023662D02*
X046103Y023412D01*
X045603Y023412D01*
X045353Y023662D01*
X045103Y023412D01*
X044603Y023412D01*
X044353Y023662D01*
X044103Y023412D01*
X043603Y023412D01*
X043353Y023662D01*
X043103Y023412D01*
X042603Y023412D01*
X042353Y023662D01*
X042103Y023412D01*
X041603Y023412D01*
X041353Y023662D01*
X041353Y024162D01*
X041603Y024412D01*
X042103Y024412D01*
X042353Y024162D01*
X042603Y024412D01*
X043103Y024412D01*
X043353Y024162D01*
X043603Y024412D01*
X044103Y024412D01*
X044353Y024162D01*
X044603Y024412D01*
X045103Y024412D01*
X045353Y024162D01*
X045603Y024412D01*
X046103Y024412D01*
X046353Y024162D01*
X046353Y023662D01*
X045763Y023012D02*
X046013Y022762D01*
X046013Y022262D01*
X045763Y022012D01*
X045263Y022012D01*
X045013Y022262D01*
X044763Y022012D01*
X044263Y022012D01*
X044013Y022262D01*
X043763Y022012D01*
X043263Y022012D01*
X043013Y022262D01*
X042763Y022012D01*
X042263Y022012D01*
X042013Y022262D01*
X041763Y022012D01*
X041263Y022012D01*
X041013Y022262D01*
X040763Y022012D01*
X040263Y022012D01*
X040013Y022262D01*
X039763Y022012D01*
X039263Y022012D01*
X039013Y022262D01*
X038763Y022012D01*
X038263Y022012D01*
X038013Y022262D01*
X037763Y022012D01*
X037263Y022012D01*
X037013Y022262D01*
X036763Y022012D01*
X036263Y022012D01*
X036013Y022262D01*
X036013Y022762D01*
X036263Y023012D01*
X036763Y023012D01*
X037013Y022762D01*
X037263Y023012D01*
X037763Y023012D01*
X038013Y022762D01*
X038263Y023012D01*
X038763Y023012D01*
X039013Y022762D01*
X039263Y023012D01*
X039763Y023012D01*
X040013Y022762D01*
X040263Y023012D01*
X040763Y023012D01*
X041013Y022762D01*
X041263Y023012D01*
X041763Y023012D01*
X042013Y022762D01*
X042263Y023012D01*
X042763Y023012D01*
X043013Y022762D01*
X043263Y023012D01*
X043763Y023012D01*
X044013Y022762D01*
X044263Y023012D01*
X044763Y023012D01*
X045013Y022762D01*
X045263Y023012D01*
X045763Y023012D01*
X037853Y023662D02*
X037603Y023412D01*
X037103Y023412D01*
X036853Y023662D01*
X036603Y023412D01*
X036103Y023412D01*
X035853Y023662D01*
X035603Y023412D01*
X035103Y023412D01*
X034853Y023662D01*
X034603Y023412D01*
X034103Y023412D01*
X033853Y023662D01*
X033603Y023412D01*
X033103Y023412D01*
X032853Y023662D01*
X032853Y024162D01*
X033103Y024412D01*
X033603Y024412D01*
X033853Y024162D01*
X034103Y024412D01*
X034603Y024412D01*
X034853Y024162D01*
X035103Y024412D01*
X035603Y024412D01*
X035853Y024162D01*
X036103Y024412D01*
X036603Y024412D01*
X036853Y024162D01*
X037103Y024412D01*
X037603Y024412D01*
X037853Y024162D01*
X037853Y023662D01*
X033103Y021212D02*
X033103Y020712D01*
X027583Y019312D02*
X027583Y016731D01*
X025223Y016732D01*
X025333Y016202D02*
X027693Y016202D01*
X027693Y013621D01*
X025333Y013622D01*
X027943Y012162D02*
X028193Y012412D01*
X028693Y012412D01*
X028943Y012162D01*
X028943Y011662D01*
X028693Y011412D01*
X028943Y011162D01*
X028943Y010662D01*
X028693Y010412D01*
X028943Y010162D01*
X028943Y009662D01*
X028693Y009412D01*
X028193Y009412D01*
X027943Y009662D01*
X027943Y010162D01*
X028193Y010412D01*
X027943Y010662D01*
X027943Y011162D01*
X028193Y011412D01*
X027943Y011662D01*
X027943Y012162D01*
X026893Y011402D02*
X026643Y011652D01*
X026143Y011652D01*
X025893Y011402D01*
X025893Y010902D01*
X026143Y010652D01*
X025893Y010402D01*
X025893Y009902D01*
X026143Y009652D01*
X026643Y009652D01*
X026893Y009902D01*
X026893Y010402D01*
X026643Y010652D01*
X026893Y010902D01*
X026893Y011402D01*
X033103Y008212D02*
X033103Y007712D01*
X029261Y007523D02*
X029261Y006736D01*
X027883Y006736D01*
X027096Y007523D02*
X026269Y007523D01*
X024694Y007523D02*
X024025Y007523D01*
X024025Y003980D01*
X024655Y003980D01*
X026269Y003980D02*
X027096Y003980D01*
X027883Y004767D02*
X029261Y004767D01*
X029261Y006736D01*
X029261Y007523D02*
X028671Y007523D01*
X027883Y006736D02*
X027824Y006732D01*
X027765Y006723D01*
X027707Y006711D01*
X027650Y006696D01*
X027594Y006677D01*
X027539Y006654D01*
X027486Y006628D01*
X027434Y006599D01*
X027385Y006567D01*
X027337Y006531D01*
X027292Y006493D01*
X027249Y006452D01*
X027209Y006408D01*
X027172Y006362D01*
X027138Y006314D01*
X027107Y006263D01*
X027079Y006211D01*
X027055Y006157D01*
X027034Y006102D01*
X027016Y006045D01*
X027002Y005987D01*
X026992Y005929D01*
X026985Y005870D01*
X026982Y005811D01*
X026983Y005752D01*
X026982Y005693D01*
X026985Y005634D01*
X026992Y005575D01*
X027002Y005517D01*
X027016Y005459D01*
X027034Y005402D01*
X027055Y005347D01*
X027079Y005293D01*
X027107Y005241D01*
X027138Y005190D01*
X027172Y005142D01*
X027209Y005096D01*
X027249Y005052D01*
X027292Y005011D01*
X027337Y004973D01*
X027385Y004937D01*
X027434Y004905D01*
X027486Y004876D01*
X027539Y004850D01*
X027594Y004827D01*
X027650Y004808D01*
X027707Y004793D01*
X027765Y004781D01*
X027824Y004772D01*
X027883Y004768D01*
X028671Y003980D02*
X029261Y003980D01*
X029261Y004767D01*
X027143Y001512D02*
X027393Y001262D01*
X027393Y000762D01*
X027143Y000512D01*
X026643Y000512D01*
X026393Y000762D01*
X026143Y000512D01*
X025643Y000512D01*
X025393Y000762D01*
X025143Y000512D01*
X024643Y000512D01*
X024393Y000762D01*
X024143Y000512D01*
X023643Y000512D01*
X023393Y000762D01*
X023143Y000512D01*
X022643Y000512D01*
X022393Y000762D01*
X022393Y001262D01*
X022643Y001512D01*
X023143Y001512D01*
X023393Y001262D01*
X023643Y001512D01*
X024143Y001512D01*
X024393Y001262D01*
X024643Y001512D01*
X025143Y001512D01*
X025393Y001262D01*
X025643Y001512D01*
X026143Y001512D01*
X026393Y001262D01*
X026643Y001512D01*
X027143Y001512D01*
X032853Y001262D02*
X032853Y000762D01*
X033103Y000512D01*
X033603Y000512D01*
X033853Y000762D01*
X034103Y000512D01*
X034603Y000512D01*
X034853Y000762D01*
X035103Y000512D01*
X035603Y000512D01*
X035853Y000762D01*
X036103Y000512D01*
X036603Y000512D01*
X036853Y000762D01*
X037103Y000512D01*
X037603Y000512D01*
X037853Y000762D01*
X037853Y001262D01*
X037603Y001512D01*
X037103Y001512D01*
X036853Y001262D01*
X036603Y001512D01*
X036103Y001512D01*
X035853Y001262D01*
X035603Y001512D01*
X035103Y001512D01*
X034853Y001262D01*
X034603Y001512D01*
X034103Y001512D01*
X033853Y001262D01*
X033603Y001512D01*
X033103Y001512D01*
X032853Y001262D01*
X041353Y001262D02*
X041353Y000762D01*
X041603Y000512D01*
X042103Y000512D01*
X042353Y000762D01*
X042603Y000512D01*
X043103Y000512D01*
X043353Y000762D01*
X043603Y000512D01*
X044103Y000512D01*
X044353Y000762D01*
X044603Y000512D01*
X045103Y000512D01*
X045353Y000762D01*
X045603Y000512D01*
X046103Y000512D01*
X046353Y000762D01*
X046353Y001262D01*
X046103Y001512D01*
X045603Y001512D01*
X045353Y001262D01*
X045103Y001512D01*
X044603Y001512D01*
X044353Y001262D01*
X044103Y001512D01*
X043603Y001512D01*
X043353Y001262D01*
X043103Y001512D01*
X042603Y001512D01*
X042353Y001262D01*
X042103Y001512D01*
X041603Y001512D01*
X041353Y001262D01*
X042923Y002782D02*
X042923Y005482D01*
X042925Y005541D01*
X042931Y005599D01*
X042940Y005658D01*
X042954Y005715D01*
X042971Y005771D01*
X042992Y005826D01*
X043016Y005880D01*
X043044Y005932D01*
X043075Y005982D01*
X043109Y006030D01*
X043146Y006075D01*
X043187Y006118D01*
X043230Y006159D01*
X043275Y006196D01*
X043323Y006230D01*
X043373Y006261D01*
X043425Y006289D01*
X043479Y006313D01*
X043534Y006334D01*
X043590Y006351D01*
X043647Y006365D01*
X043706Y006374D01*
X043764Y006380D01*
X043823Y006382D01*
X043882Y006380D01*
X043940Y006374D01*
X043999Y006365D01*
X044056Y006351D01*
X044112Y006334D01*
X044167Y006313D01*
X044221Y006289D01*
X044273Y006261D01*
X044323Y006230D01*
X044371Y006196D01*
X044416Y006159D01*
X044459Y006118D01*
X044500Y006075D01*
X044537Y006030D01*
X044571Y005982D01*
X044602Y005932D01*
X044630Y005880D01*
X044654Y005826D01*
X044675Y005771D01*
X044692Y005715D01*
X044706Y005658D01*
X044715Y005599D01*
X044721Y005541D01*
X044723Y005482D01*
X044723Y002782D01*
X044721Y002723D01*
X044715Y002665D01*
X044706Y002606D01*
X044692Y002549D01*
X044675Y002493D01*
X044654Y002438D01*
X044630Y002384D01*
X044602Y002332D01*
X044571Y002282D01*
X044537Y002234D01*
X044500Y002189D01*
X044459Y002146D01*
X044416Y002105D01*
X044371Y002068D01*
X044323Y002034D01*
X044273Y002003D01*
X044221Y001975D01*
X044167Y001951D01*
X044112Y001930D01*
X044056Y001913D01*
X043999Y001899D01*
X043940Y001890D01*
X043882Y001884D01*
X043823Y001882D01*
X043764Y001884D01*
X043706Y001890D01*
X043647Y001899D01*
X043590Y001913D01*
X043534Y001930D01*
X043479Y001951D01*
X043425Y001975D01*
X043373Y002003D01*
X043323Y002034D01*
X043275Y002068D01*
X043230Y002105D01*
X043187Y002146D01*
X043146Y002189D01*
X043109Y002234D01*
X043075Y002282D01*
X043044Y002332D01*
X043016Y002384D01*
X042992Y002438D01*
X042971Y002493D01*
X042954Y002549D01*
X042940Y002606D01*
X042931Y002665D01*
X042925Y002723D01*
X042923Y002782D01*
X045103Y009712D02*
X044853Y009962D01*
X044853Y010462D01*
X045103Y010712D01*
X044853Y010962D01*
X044853Y011462D01*
X045103Y011712D01*
X045603Y011712D01*
X045853Y011462D01*
X045853Y010962D01*
X045603Y010712D01*
X045853Y010462D01*
X045853Y009962D01*
X045603Y009712D01*
X045103Y009712D01*
X023703Y018832D02*
X023453Y018582D01*
X022953Y018582D01*
X022703Y018832D01*
X022703Y019332D01*
X022953Y019582D01*
X022703Y019832D01*
X022703Y020332D01*
X022953Y020582D01*
X022703Y020832D01*
X022703Y021332D01*
X022953Y021582D01*
X022703Y021832D01*
X022703Y022332D01*
X022953Y022582D01*
X023453Y022582D01*
X023703Y022332D01*
X023703Y021832D01*
X023453Y021582D01*
X023703Y021332D01*
X023703Y020832D01*
X023453Y020582D01*
X023703Y020332D01*
X023703Y019832D01*
X023453Y019582D01*
X023703Y019332D01*
X023703Y018832D01*
X025223Y019312D02*
X027583Y019312D01*
X027143Y023412D02*
X026643Y023412D01*
X026393Y023662D01*
X026143Y023412D01*
X025643Y023412D01*
X025393Y023662D01*
X025143Y023412D01*
X024643Y023412D01*
X024393Y023662D01*
X024143Y023412D01*
X023643Y023412D01*
X023393Y023662D01*
X023143Y023412D01*
X022643Y023412D01*
X022393Y023662D01*
X022393Y024162D01*
X022643Y024412D01*
X023143Y024412D01*
X023393Y024162D01*
X023643Y024412D01*
X024143Y024412D01*
X024393Y024162D01*
X024643Y024412D01*
X025143Y024412D01*
X025393Y024162D01*
X025643Y024412D01*
X026143Y024412D01*
X026393Y024162D01*
X026643Y024412D01*
X027143Y024412D01*
X027393Y024162D01*
X027393Y023662D01*
X027143Y023412D01*
X018893Y023662D02*
X018643Y023412D01*
X018143Y023412D01*
X017893Y023662D01*
X017643Y023412D01*
X017143Y023412D01*
X016893Y023662D01*
X016643Y023412D01*
X016143Y023412D01*
X015893Y023662D01*
X015643Y023412D01*
X015143Y023412D01*
X014893Y023662D01*
X014643Y023412D01*
X014143Y023412D01*
X013893Y023662D01*
X013893Y024162D01*
X014143Y024412D01*
X014643Y024412D01*
X014893Y024162D01*
X015143Y024412D01*
X015643Y024412D01*
X015893Y024162D01*
X016143Y024412D01*
X016643Y024412D01*
X016893Y024162D01*
X017143Y024412D01*
X017643Y024412D01*
X017893Y024162D01*
X018143Y024412D01*
X018643Y024412D01*
X018893Y024162D01*
X018893Y023662D01*
X002803Y022812D02*
X002803Y022312D01*
X002553Y022062D01*
X002803Y021812D01*
X002803Y021312D01*
X002553Y021062D01*
X002803Y020812D01*
X002803Y020312D01*
X002553Y020062D01*
X002803Y019812D01*
X002803Y019312D01*
X002553Y019062D01*
X002803Y018812D01*
X002803Y018312D01*
X002553Y018062D01*
X002803Y017812D01*
X002803Y017312D01*
X002553Y017062D01*
X002803Y016812D01*
X002803Y016312D01*
X002553Y016062D01*
X002803Y015812D01*
X002803Y015312D01*
X002553Y015062D01*
X002803Y014812D01*
X002803Y014312D01*
X002553Y014062D01*
X002803Y013812D01*
X002803Y013312D01*
X002553Y013062D01*
X002053Y013062D01*
X001803Y013312D01*
X001803Y013812D01*
X002053Y014062D01*
X001803Y014312D01*
X001803Y014812D01*
X002053Y015062D01*
X001803Y015312D01*
X001803Y015812D01*
X002053Y016062D01*
X001803Y016312D01*
X001803Y016812D01*
X002053Y017062D01*
X001803Y017312D01*
X001803Y017812D01*
X002053Y018062D01*
X001803Y018312D01*
X001803Y018812D01*
X002053Y019062D01*
X001803Y019312D01*
X001803Y019812D01*
X002053Y020062D01*
X001803Y020312D01*
X001803Y020812D01*
X002053Y021062D01*
X001803Y021312D01*
X001803Y021812D01*
X002053Y022062D01*
X001803Y022312D01*
X001803Y022812D01*
X002053Y023062D01*
X002553Y023062D01*
X002803Y022812D01*
X002543Y006192D02*
X002043Y006192D01*
X001793Y005942D01*
X001793Y005442D01*
X002043Y005192D01*
X001793Y004942D01*
X001793Y004442D01*
X002043Y004192D01*
X002543Y004192D01*
X002793Y004442D01*
X002793Y004942D01*
X002543Y005192D01*
X002793Y005442D01*
X002793Y005942D01*
X002543Y006192D01*
X013893Y001262D02*
X014143Y001512D01*
X014643Y001512D01*
X014893Y001262D01*
X015143Y001512D01*
X015643Y001512D01*
X015893Y001262D01*
X016143Y001512D01*
X016643Y001512D01*
X016893Y001262D01*
X017143Y001512D01*
X017643Y001512D01*
X017893Y001262D01*
X018143Y001512D01*
X018643Y001512D01*
X018893Y001262D01*
X018893Y000762D01*
X018643Y000512D01*
X018143Y000512D01*
X017893Y000762D01*
X017643Y000512D01*
X017143Y000512D01*
X016893Y000762D01*
X016643Y000512D01*
X016143Y000512D01*
X015893Y000762D01*
X015643Y000512D01*
X015143Y000512D01*
X014893Y000762D01*
X014643Y000512D01*
X014143Y000512D01*
X013893Y000762D01*
X013893Y001262D01*
D17*
X035663Y002260D02*
X035663Y002284D01*
X036313Y003230D02*
X036313Y003254D01*
X046261Y009822D02*
X046285Y009822D01*
X047441Y010052D02*
X047465Y010052D01*
X059241Y006512D02*
X059265Y006512D01*
X060361Y006632D02*
X060385Y006632D01*
X055405Y004772D02*
X055381Y004772D01*
X061013Y009710D02*
X061013Y009734D01*
X063073Y009840D02*
X063073Y009864D01*
X058183Y016600D02*
X058183Y016624D01*
X056275Y016932D02*
X056251Y016932D01*
X055385Y016942D02*
X055361Y016942D01*
X056333Y018580D02*
X056333Y018604D01*
X056133Y020600D02*
X056133Y020624D01*
X048773Y020234D02*
X048773Y020210D01*
X046965Y018212D02*
X046941Y018212D01*
X037913Y021200D02*
X037913Y021224D01*
X036223Y016614D02*
X036223Y016590D01*
X037601Y016102D02*
X037625Y016102D01*
X051353Y023700D02*
X051353Y023724D01*
X052853Y023724D02*
X052853Y023700D01*
X054353Y023724D02*
X054353Y023700D01*
X055853Y023724D02*
X055853Y023700D01*
D18*
X058217Y021117D02*
X058217Y021042D01*
X058368Y020892D01*
X058368Y020667D01*
X058368Y020892D02*
X058518Y021042D01*
X058518Y021117D01*
X058678Y020892D02*
X058978Y020892D01*
X058903Y021117D02*
X058678Y020892D01*
X058903Y020667D02*
X058903Y021117D01*
X062248Y019863D02*
X062323Y019938D01*
X062473Y019938D01*
X062548Y019863D01*
X062548Y019638D01*
X062548Y019788D02*
X062698Y019938D01*
X062248Y019863D02*
X062248Y019638D01*
X062698Y019638D01*
X062623Y019478D02*
X062323Y019478D01*
X062248Y019403D01*
X062248Y019253D01*
X062323Y019178D01*
X062623Y019178D01*
X062698Y019253D01*
X062698Y019403D01*
X062623Y019478D01*
X063668Y019559D02*
X064118Y019559D01*
X063668Y019258D01*
X064118Y019258D01*
X064118Y019098D02*
X064118Y018798D01*
X063668Y018798D01*
X063668Y019098D01*
X063893Y018948D02*
X063893Y018798D01*
X064193Y018638D02*
X064193Y018338D01*
X064118Y018027D02*
X063668Y018027D01*
X063668Y017877D02*
X063668Y018178D01*
X062698Y018097D02*
X062248Y018097D01*
X062398Y017947D01*
X062248Y017797D01*
X062698Y017797D01*
X063668Y017642D02*
X063743Y017717D01*
X064043Y017717D01*
X064118Y017642D01*
X064118Y017492D01*
X064043Y017417D01*
X063743Y017417D01*
X063668Y017492D01*
X063668Y017642D01*
X063668Y017257D02*
X064118Y017257D01*
X064118Y016957D02*
X063668Y016957D01*
X063818Y017107D01*
X063668Y017257D01*
X062623Y018257D02*
X062323Y018257D01*
X062248Y018332D01*
X062248Y018482D01*
X062323Y018557D01*
X062623Y018557D01*
X062698Y018482D01*
X062698Y018332D01*
X062623Y018257D01*
X062248Y018717D02*
X062248Y019018D01*
X062248Y018867D02*
X062698Y018867D01*
X063668Y019794D02*
X063743Y019719D01*
X064043Y019719D01*
X064118Y019794D01*
X064118Y019944D01*
X064043Y020019D01*
X063743Y020019D02*
X063668Y019944D01*
X063668Y019794D01*
X056326Y016244D02*
X056263Y016244D01*
X056201Y016244D01*
X056263Y016244D02*
X056263Y016182D01*
X056263Y016244D02*
X056263Y016307D01*
X063028Y015732D02*
X063103Y015657D01*
X063178Y015657D01*
X063253Y015732D01*
X063253Y016107D01*
X063178Y016107D02*
X063328Y016107D01*
X063949Y016107D02*
X063949Y015657D01*
X064249Y015657D01*
X064409Y015657D02*
X064710Y015657D01*
X064870Y015657D02*
X065095Y015657D01*
X065170Y015732D01*
X065170Y016032D01*
X065095Y016107D01*
X064870Y016107D01*
X064870Y015657D01*
X064559Y015882D02*
X064409Y015882D01*
X064409Y016107D02*
X064409Y015657D01*
X063789Y015582D02*
X063489Y015582D01*
X064409Y016107D02*
X064710Y016107D01*
X065330Y015957D02*
X065480Y016107D01*
X065480Y015657D01*
X065330Y015657D02*
X065630Y015657D01*
X063078Y013684D02*
X063003Y013759D01*
X063078Y013684D02*
X063078Y013534D01*
X063003Y013459D01*
X062703Y013459D01*
X062628Y013534D01*
X062628Y013684D01*
X062703Y013759D01*
X062703Y013299D02*
X062628Y013224D01*
X062628Y013074D01*
X062703Y012999D01*
X063003Y012999D01*
X063078Y013074D01*
X063078Y013224D01*
X063003Y013299D01*
X063078Y012839D02*
X062778Y012839D01*
X062628Y012689D01*
X062778Y012538D01*
X063078Y012538D01*
X062853Y012538D02*
X062853Y012839D01*
X062628Y012378D02*
X063078Y012078D01*
X063003Y011918D02*
X062703Y011918D01*
X062628Y011843D01*
X062628Y011693D01*
X062703Y011618D01*
X063003Y011618D01*
X063078Y011693D01*
X063078Y011843D01*
X063003Y011918D01*
X063078Y011458D02*
X062928Y011307D01*
X062928Y011383D02*
X062928Y011157D01*
X063078Y011157D02*
X062628Y011157D01*
X062628Y011383D01*
X062703Y011458D01*
X062853Y011458D01*
X062928Y011383D01*
X062703Y010997D02*
X062628Y010997D01*
X062703Y010997D02*
X062853Y010847D01*
X063078Y010847D01*
X062853Y010847D02*
X062703Y010697D01*
X062628Y010697D01*
X062703Y010537D02*
X062628Y010462D01*
X062628Y010312D01*
X062703Y010237D01*
X063003Y010237D01*
X063078Y010312D01*
X063078Y010462D01*
X063003Y010537D01*
X062853Y010537D01*
X062853Y010387D01*
X063658Y007076D02*
X063658Y006776D01*
X064108Y006776D01*
X064108Y007076D01*
X063883Y006926D02*
X063883Y006776D01*
X063883Y006616D02*
X063883Y006465D01*
X063883Y006616D02*
X064033Y006616D01*
X064108Y006540D01*
X064108Y006390D01*
X064033Y006315D01*
X063733Y006315D01*
X063658Y006390D01*
X063658Y006540D01*
X063733Y006616D01*
X063733Y006155D02*
X063658Y006080D01*
X063658Y005855D01*
X064108Y005855D01*
X064108Y006080D01*
X064033Y006155D01*
X063733Y006155D01*
X063658Y005698D02*
X063658Y005548D01*
X063658Y005623D02*
X064108Y005623D01*
X064108Y005548D02*
X064108Y005698D01*
X064108Y005388D02*
X063958Y005238D01*
X063958Y005313D02*
X063958Y005088D01*
X064108Y005088D02*
X063658Y005088D01*
X063658Y005313D01*
X063733Y005388D01*
X063883Y005388D01*
X063958Y005313D01*
X063293Y005452D02*
X063293Y003702D01*
X060793Y003702D01*
X060793Y005452D01*
X063293Y005452D01*
X063733Y004928D02*
X063808Y004928D01*
X063883Y004853D01*
X063883Y004627D01*
X063883Y004467D02*
X063883Y004167D01*
X063883Y004007D02*
X063883Y003707D01*
X064108Y003707D02*
X063658Y003707D01*
X063658Y004007D02*
X064108Y004007D01*
X064108Y004627D02*
X063658Y004627D01*
X063658Y004853D01*
X063733Y004928D01*
X063883Y004853D02*
X063958Y004928D01*
X064033Y004928D01*
X064108Y004853D01*
X064108Y004627D01*
X058353Y004462D02*
X058353Y002962D01*
X056853Y002962D01*
X056853Y003462D01*
X057103Y003712D02*
X057101Y003742D01*
X057096Y003772D01*
X057087Y003801D01*
X057074Y003828D01*
X057059Y003854D01*
X057040Y003878D01*
X057019Y003899D01*
X056995Y003918D01*
X056969Y003933D01*
X056942Y003946D01*
X056913Y003955D01*
X056883Y003960D01*
X056853Y003962D01*
X056853Y004462D01*
X058353Y004462D01*
X057103Y003712D02*
X057101Y003682D01*
X057096Y003652D01*
X057087Y003623D01*
X057074Y003596D01*
X057059Y003570D01*
X057040Y003546D01*
X057019Y003525D01*
X056995Y003506D01*
X056969Y003491D01*
X056942Y003478D01*
X056913Y003469D01*
X056883Y003464D01*
X056853Y003462D01*
X051233Y004342D02*
X051233Y006092D01*
X047733Y006092D01*
X047733Y004342D01*
X051233Y004342D01*
X045348Y005386D02*
X045123Y005386D01*
X044973Y005536D01*
X044898Y005536D01*
X044973Y005696D02*
X044898Y005771D01*
X044898Y005921D01*
X044973Y005996D01*
X045048Y005996D01*
X045123Y005921D01*
X045198Y005996D01*
X045273Y005996D01*
X045348Y005921D01*
X045348Y005771D01*
X045273Y005696D01*
X045123Y005846D02*
X045123Y005921D01*
X045123Y005386D02*
X044973Y005236D01*
X044898Y005236D01*
X042688Y005149D02*
X042388Y005449D01*
X042313Y005449D01*
X042238Y005374D01*
X042238Y005224D01*
X042313Y005149D01*
X042238Y004989D02*
X042238Y004688D01*
X042238Y004839D02*
X042688Y004839D01*
X042688Y005149D02*
X042688Y005449D01*
X042688Y004528D02*
X042688Y004228D01*
X042238Y004228D01*
X042238Y004528D01*
X042463Y004378D02*
X042463Y004228D01*
X042688Y004068D02*
X042238Y004068D01*
X042238Y003768D02*
X042688Y004068D01*
X042688Y003768D02*
X042238Y003768D01*
X042313Y003608D02*
X042238Y003533D01*
X042238Y003382D01*
X042313Y003307D01*
X042613Y003307D01*
X042688Y003382D01*
X042688Y003533D01*
X042613Y003608D01*
X042463Y003608D01*
X042463Y003457D01*
X042463Y003147D02*
X042463Y002847D01*
X042388Y002847D02*
X042238Y002997D01*
X042388Y003147D01*
X042688Y003147D01*
X042688Y002847D02*
X042388Y002847D01*
X042238Y002687D02*
X042688Y002687D01*
X042688Y002387D02*
X042238Y002387D01*
X042388Y002537D01*
X042238Y002687D01*
X042034Y002207D02*
X041809Y002207D01*
X041809Y001757D01*
X041809Y001907D02*
X042034Y001907D01*
X042109Y001982D01*
X042109Y002132D01*
X042034Y002207D01*
X042269Y001982D02*
X042494Y002207D01*
X042494Y001757D01*
X042569Y001982D02*
X042269Y001982D01*
X041648Y002207D02*
X041498Y002207D01*
X041573Y002207D02*
X041573Y001832D01*
X041498Y001757D01*
X041423Y001757D01*
X041348Y001832D01*
X034069Y001832D02*
X033994Y001757D01*
X033844Y001757D01*
X033769Y001832D01*
X033919Y001982D02*
X033994Y001982D01*
X034069Y001907D01*
X034069Y001832D01*
X033994Y001982D02*
X034069Y002057D01*
X034069Y002132D01*
X033994Y002207D01*
X033844Y002207D01*
X033769Y002132D01*
X033609Y002132D02*
X033609Y001982D01*
X033534Y001907D01*
X033309Y001907D01*
X033309Y001757D02*
X033309Y002207D01*
X033534Y002207D01*
X033609Y002132D01*
X033148Y002207D02*
X032998Y002207D01*
X033073Y002207D02*
X033073Y001832D01*
X032998Y001757D01*
X032923Y001757D01*
X032848Y001832D01*
X023609Y001832D02*
X023534Y001757D01*
X023384Y001757D01*
X023309Y001832D01*
X023309Y001907D01*
X023384Y001982D01*
X023534Y001982D01*
X023609Y001907D01*
X023609Y001832D01*
X023534Y001982D02*
X023609Y002057D01*
X023609Y002132D01*
X023534Y002207D01*
X023384Y002207D01*
X023309Y002132D01*
X023309Y002057D01*
X023384Y001982D01*
X023149Y001982D02*
X023149Y002132D01*
X023074Y002207D01*
X022849Y002207D01*
X022849Y001757D01*
X022849Y001907D02*
X023074Y001907D01*
X023149Y001982D01*
X022688Y002207D02*
X022538Y002207D01*
X022613Y002207D02*
X022613Y001832D01*
X022538Y001757D01*
X022463Y001757D01*
X022388Y001832D01*
X021983Y002292D02*
X011983Y002292D01*
X011983Y022292D01*
X021983Y022292D01*
X021983Y002292D01*
X015109Y002207D02*
X015109Y002132D01*
X014809Y001832D01*
X014809Y001757D01*
X014649Y001982D02*
X014574Y001907D01*
X014349Y001907D01*
X014349Y001757D02*
X014349Y002207D01*
X014574Y002207D01*
X014649Y002132D01*
X014649Y001982D01*
X014809Y002207D02*
X015109Y002207D01*
X014188Y002207D02*
X014038Y002207D01*
X014113Y002207D02*
X014113Y001832D01*
X014038Y001757D01*
X013963Y001757D01*
X013888Y001832D01*
X006388Y003028D02*
X006313Y002953D01*
X006013Y002953D01*
X005938Y003028D01*
X005938Y003178D01*
X006013Y003253D01*
X006163Y003253D02*
X006163Y003103D01*
X006163Y003253D02*
X006313Y003253D01*
X006388Y003178D01*
X006388Y003028D01*
X006013Y003414D02*
X005938Y003414D01*
X006013Y003414D02*
X006163Y003564D01*
X006388Y003564D01*
X006163Y003564D02*
X006013Y003714D01*
X005938Y003714D01*
X005938Y003874D02*
X005938Y004099D01*
X006013Y004174D01*
X006163Y004174D01*
X006238Y004099D01*
X006238Y003874D01*
X006238Y004024D02*
X006388Y004174D01*
X006313Y004334D02*
X006388Y004409D01*
X006388Y004559D01*
X006313Y004634D01*
X006013Y004634D01*
X005938Y004559D01*
X005938Y004409D01*
X006013Y004334D01*
X006313Y004334D01*
X006388Y003874D02*
X005938Y003874D01*
X006388Y004795D02*
X005938Y005095D01*
X006088Y005255D02*
X005938Y005405D01*
X006088Y005555D01*
X006388Y005555D01*
X006313Y005715D02*
X006388Y005790D01*
X006388Y005940D01*
X006313Y006016D01*
X006313Y006176D02*
X006388Y006251D01*
X006388Y006401D01*
X006313Y006476D01*
X006388Y006636D02*
X006388Y006936D01*
X006388Y006786D02*
X005938Y006786D01*
X006088Y006636D01*
X006013Y006476D02*
X005938Y006401D01*
X005938Y006251D01*
X006013Y006176D01*
X006313Y006176D01*
X006013Y006016D02*
X005938Y005940D01*
X005938Y005790D01*
X006013Y005715D01*
X006313Y005715D01*
X006163Y005555D02*
X006163Y005255D01*
X006088Y005255D02*
X006388Y005255D01*
X001623Y004947D02*
X001623Y004647D01*
X001473Y004412D02*
X001098Y004412D01*
X001098Y004337D02*
X001098Y004487D01*
X001473Y004412D02*
X001548Y004337D01*
X001548Y004262D01*
X001473Y004187D01*
X001548Y005107D02*
X001098Y005107D01*
X001548Y005107D02*
X001548Y005408D01*
X001548Y005568D02*
X001098Y005568D01*
X001098Y005868D01*
X001098Y006028D02*
X001098Y006253D01*
X001173Y006328D01*
X001473Y006328D01*
X001548Y006253D01*
X001548Y006028D01*
X001098Y006028D01*
X001548Y005868D02*
X001548Y005568D01*
X001323Y005568D02*
X001323Y005718D01*
X001173Y006488D02*
X001098Y006563D01*
X001098Y006714D01*
X001173Y006789D01*
X001248Y006789D01*
X001548Y006488D01*
X001548Y006789D01*
X002093Y008662D02*
X002093Y010662D01*
X007093Y010662D01*
X007093Y008662D01*
X002093Y008662D01*
X001483Y013057D02*
X001183Y013057D01*
X001108Y013132D01*
X001108Y013282D01*
X001183Y013357D01*
X001333Y013357D02*
X001333Y013207D01*
X001333Y013357D02*
X001483Y013357D01*
X001558Y013282D01*
X001558Y013132D01*
X001483Y013057D01*
X001183Y013517D02*
X001333Y013667D01*
X001558Y013667D01*
X001333Y013667D02*
X001183Y013817D01*
X001108Y013817D01*
X001108Y013977D02*
X001108Y014203D01*
X001183Y014278D01*
X001333Y014278D01*
X001408Y014203D01*
X001408Y013977D01*
X001558Y013977D02*
X001108Y013977D01*
X001408Y014127D02*
X001558Y014278D01*
X001483Y014438D02*
X001183Y014438D01*
X001108Y014513D01*
X001108Y014663D01*
X001183Y014738D01*
X001483Y014738D01*
X001558Y014663D01*
X001558Y014513D01*
X001483Y014438D01*
X001558Y014898D02*
X001258Y015198D01*
X001183Y015198D01*
X001108Y015123D01*
X001108Y014973D01*
X001183Y014898D01*
X001558Y014898D02*
X001558Y015198D01*
X001183Y013517D02*
X001108Y013517D01*
X022008Y018577D02*
X022158Y018727D01*
X022008Y018877D01*
X022458Y018877D01*
X022458Y019037D02*
X022158Y019037D01*
X022008Y019187D01*
X022158Y019337D01*
X022458Y019337D01*
X022383Y019497D02*
X022458Y019572D01*
X022458Y019723D01*
X022383Y019798D01*
X022233Y019798D01*
X022233Y019647D01*
X022083Y019497D02*
X022383Y019497D01*
X022233Y019337D02*
X022233Y019037D01*
X022083Y019497D02*
X022008Y019572D01*
X022008Y019723D01*
X022083Y019798D01*
X022008Y019958D02*
X022458Y020258D01*
X022008Y020258D01*
X022008Y020418D02*
X022458Y020418D01*
X022458Y020718D01*
X022233Y020568D02*
X022233Y020418D01*
X022008Y020418D02*
X022008Y020718D01*
X022008Y020878D02*
X022008Y021179D01*
X022008Y021029D02*
X022458Y021029D01*
X022383Y021339D02*
X022458Y021414D01*
X022458Y021564D01*
X022383Y021639D01*
X022308Y021639D01*
X022233Y021564D01*
X022233Y021414D01*
X022158Y021339D01*
X022083Y021339D01*
X022008Y021414D01*
X022008Y021564D01*
X022083Y021639D01*
X022008Y019958D02*
X022458Y019958D01*
X022458Y018577D02*
X022008Y018577D01*
X023703Y016657D02*
X023628Y016582D01*
X023628Y016432D01*
X023703Y016357D01*
X023703Y016197D02*
X023628Y016122D01*
X023628Y015897D01*
X024078Y015897D01*
X024078Y016122D01*
X024003Y016197D01*
X023703Y016197D01*
X024078Y016357D02*
X023778Y016657D01*
X023703Y016657D01*
X024078Y016657D02*
X024078Y016357D01*
X023388Y012287D02*
X023388Y011987D01*
X023388Y012137D02*
X022938Y012137D01*
X023088Y011987D01*
X023013Y011827D02*
X022938Y011752D01*
X022938Y011527D01*
X023388Y011527D01*
X023388Y011752D01*
X023313Y011827D01*
X023013Y011827D01*
X025198Y011713D02*
X025198Y011563D01*
X025273Y011488D01*
X025348Y011488D01*
X025423Y011563D01*
X025423Y011713D01*
X025498Y011788D01*
X025573Y011788D01*
X025648Y011713D01*
X025648Y011563D01*
X025573Y011488D01*
X025648Y011328D02*
X025648Y011028D01*
X025198Y011028D01*
X025198Y011328D01*
X025423Y011178D02*
X025423Y011028D01*
X025198Y010868D02*
X025198Y010567D01*
X025198Y010717D02*
X025648Y010717D01*
X025648Y010407D02*
X025348Y010407D01*
X025198Y010257D01*
X025348Y010107D01*
X025648Y010107D01*
X025573Y009947D02*
X025423Y009947D01*
X025423Y009797D01*
X025273Y009947D02*
X025198Y009872D01*
X025198Y009722D01*
X025273Y009647D01*
X025573Y009647D01*
X025648Y009722D01*
X025648Y009872D01*
X025573Y009947D01*
X025423Y010107D02*
X025423Y010407D01*
X029188Y010390D02*
X029188Y010165D01*
X029638Y010165D01*
X029488Y010165D02*
X029488Y010390D01*
X029413Y010465D01*
X029263Y010465D01*
X029188Y010390D01*
X029263Y010625D02*
X029563Y010625D01*
X029638Y010700D01*
X029638Y010850D01*
X029563Y010925D01*
X029263Y010925D01*
X029188Y010850D01*
X029188Y010700D01*
X029263Y010625D01*
X029188Y011085D02*
X029638Y011085D01*
X029488Y011235D01*
X029638Y011386D01*
X029188Y011386D01*
X029188Y011546D02*
X029638Y011546D01*
X029638Y011846D01*
X029638Y012006D02*
X029188Y012006D01*
X029188Y012231D01*
X029263Y012306D01*
X029413Y012306D01*
X029488Y012231D01*
X029488Y012006D01*
X029488Y012156D02*
X029638Y012306D01*
X029188Y011846D02*
X029188Y011546D01*
X029413Y011546D02*
X029413Y011696D01*
X025648Y011948D02*
X025648Y012249D01*
X025648Y012099D02*
X025198Y012099D01*
X025348Y011948D01*
X025273Y011788D02*
X025198Y011713D01*
X029713Y010005D02*
X029713Y009704D01*
X029638Y009544D02*
X029188Y009544D01*
X029338Y009394D01*
X029188Y009244D01*
X029638Y009244D01*
X037893Y011692D02*
X037893Y013692D01*
X042893Y013692D01*
X042893Y011692D01*
X037893Y011692D01*
X044168Y011443D02*
X044168Y011293D01*
X044243Y011218D01*
X044318Y011218D01*
X044393Y011293D01*
X044393Y011443D01*
X044468Y011518D01*
X044543Y011518D01*
X044618Y011443D01*
X044618Y011293D01*
X044543Y011218D01*
X044618Y011058D02*
X044618Y010758D01*
X044168Y010758D01*
X044168Y011058D01*
X044393Y010908D02*
X044393Y010758D01*
X044168Y010598D02*
X044168Y010297D01*
X044168Y010447D02*
X044618Y010447D01*
X044618Y010137D02*
X044318Y010137D01*
X044168Y009987D01*
X044318Y009837D01*
X044618Y009837D01*
X044543Y009677D02*
X044393Y009677D01*
X044393Y009527D01*
X044243Y009677D02*
X044168Y009602D01*
X044168Y009452D01*
X044243Y009377D01*
X044543Y009377D01*
X044618Y009452D01*
X044618Y009602D01*
X044543Y009677D01*
X044393Y009837D02*
X044393Y010137D01*
X044168Y011443D02*
X044243Y011518D01*
X046953Y017462D02*
X046953Y017524D01*
X047016Y017524D01*
X046953Y017524D02*
X046891Y017524D01*
X046953Y017524D02*
X046953Y017587D01*
X040538Y017687D02*
X040088Y017687D01*
X040238Y017837D01*
X040088Y017987D01*
X040538Y017987D01*
X040538Y018147D02*
X040238Y018147D01*
X040088Y018297D01*
X040238Y018447D01*
X040538Y018447D01*
X040463Y018607D02*
X040538Y018682D01*
X040538Y018833D01*
X040463Y018908D01*
X040313Y018908D01*
X040313Y018757D01*
X040163Y018607D02*
X040088Y018682D01*
X040088Y018833D01*
X040163Y018908D01*
X040088Y019068D02*
X040538Y019368D01*
X040088Y019368D01*
X040088Y019528D02*
X040538Y019528D01*
X040538Y019828D01*
X040313Y019678D02*
X040313Y019528D01*
X040088Y019528D02*
X040088Y019828D01*
X040088Y019988D02*
X040088Y020289D01*
X040088Y020139D02*
X040538Y020139D01*
X040538Y020449D02*
X040538Y020749D01*
X040538Y020599D02*
X040088Y020599D01*
X040238Y020449D01*
X040088Y019068D02*
X040538Y019068D01*
X040463Y018607D02*
X040163Y018607D01*
X040313Y018447D02*
X040313Y018147D01*
X035790Y021997D02*
X035490Y021997D01*
X035640Y021997D02*
X035640Y022447D01*
X035490Y022297D01*
X035330Y022372D02*
X035254Y022447D01*
X035104Y022447D01*
X035029Y022372D01*
X035029Y022072D01*
X035104Y021997D01*
X035254Y021997D01*
X035330Y022072D01*
X035330Y022372D01*
X034869Y022372D02*
X034794Y022447D01*
X034569Y022447D01*
X034569Y021997D01*
X034569Y022147D02*
X034794Y022147D01*
X034869Y022222D01*
X034869Y022372D01*
X034719Y022147D02*
X034869Y021997D01*
X034409Y022372D02*
X034409Y022447D01*
X034409Y022372D02*
X034259Y022222D01*
X034259Y021997D01*
X034259Y022222D02*
X034109Y022372D01*
X034109Y022447D01*
X033948Y022372D02*
X033873Y022447D01*
X033723Y022447D01*
X033648Y022372D01*
X033648Y022072D01*
X033723Y021997D01*
X033873Y021997D01*
X033948Y022072D01*
X033948Y022222D01*
X033798Y022222D01*
X033729Y022737D02*
X033429Y022737D01*
X033729Y023037D01*
X033729Y023112D01*
X033654Y023187D01*
X033504Y023187D01*
X033429Y023112D01*
X033269Y023112D02*
X033269Y022962D01*
X033194Y022887D01*
X032969Y022887D01*
X032969Y022737D02*
X032969Y023187D01*
X033194Y023187D01*
X033269Y023112D01*
X032808Y023187D02*
X032658Y023187D01*
X032733Y023187D02*
X032733Y022812D01*
X032658Y022737D01*
X032583Y022737D01*
X032508Y022812D01*
X040058Y023772D02*
X040133Y023697D01*
X040208Y023697D01*
X040283Y023772D01*
X040283Y024147D01*
X040208Y024147D02*
X040358Y024147D01*
X040519Y024147D02*
X040744Y024147D01*
X040819Y024072D01*
X040819Y023922D01*
X040744Y023847D01*
X040519Y023847D01*
X040519Y023697D02*
X040519Y024147D01*
X040979Y023997D02*
X041129Y024147D01*
X041129Y023697D01*
X040979Y023697D02*
X041279Y023697D01*
X022340Y023842D02*
X022264Y023767D01*
X022114Y023767D01*
X022039Y023842D01*
X022340Y024142D01*
X022340Y023842D01*
X022039Y023842D02*
X022039Y024142D01*
X022114Y024217D01*
X022264Y024217D01*
X022340Y024142D01*
X021729Y024217D02*
X021579Y024067D01*
X021419Y024142D02*
X021419Y023992D01*
X021344Y023917D01*
X021119Y023917D01*
X021119Y023767D02*
X021119Y024217D01*
X021344Y024217D01*
X021419Y024142D01*
X021729Y024217D02*
X021729Y023767D01*
X021579Y023767D02*
X021879Y023767D01*
X020883Y023842D02*
X020883Y024217D01*
X020808Y024217D02*
X020958Y024217D01*
X020883Y023842D02*
X020808Y023767D01*
X020733Y023767D01*
X020658Y023842D01*
X013799Y023912D02*
X013574Y023912D01*
X013499Y023987D01*
X013499Y024062D01*
X013574Y024137D01*
X013724Y024137D01*
X013799Y024062D01*
X013799Y023762D01*
X013724Y023687D01*
X013574Y023687D01*
X013499Y023762D01*
X013339Y023912D02*
X013264Y023837D01*
X013039Y023837D01*
X013039Y023687D02*
X013039Y024137D01*
X013264Y024137D01*
X013339Y024062D01*
X013339Y023912D01*
X012878Y024137D02*
X012728Y024137D01*
X012803Y024137D02*
X012803Y023762D01*
X012728Y023687D01*
X012653Y023687D01*
X012578Y023762D01*
D19*
X033853Y018962D03*
X033853Y005962D03*
D20*
X056548Y005916D02*
X056548Y005820D01*
X056596Y005771D01*
X056790Y005771D01*
X056838Y005820D01*
X056838Y005916D01*
X056790Y005965D01*
X056596Y005965D02*
X056548Y005916D01*
X056548Y005670D02*
X056838Y005670D01*
X056548Y005477D01*
X056838Y005477D01*
X057048Y005477D02*
X057241Y005477D01*
X057338Y005573D01*
X057241Y005670D01*
X057048Y005670D01*
X057193Y005771D02*
X057145Y005820D01*
X057145Y005965D01*
X057048Y005965D02*
X057338Y005965D01*
X057338Y005820D01*
X057290Y005771D01*
X057193Y005771D01*
X057193Y006066D02*
X057145Y006114D01*
X057145Y006259D01*
X057048Y006259D02*
X057338Y006259D01*
X057338Y006114D01*
X057290Y006066D01*
X057193Y006066D01*
X057645Y006066D02*
X057790Y006066D01*
X057838Y006114D01*
X057838Y006259D01*
X057645Y006259D01*
X057645Y006361D02*
X057645Y006457D01*
X057596Y006409D02*
X057790Y006409D01*
X057838Y006457D01*
X057790Y005965D02*
X057693Y005965D01*
X057645Y005916D01*
X057645Y005820D01*
X057693Y005771D01*
X057790Y005771D01*
X057838Y005820D01*
X057838Y005916D01*
X057790Y005965D01*
X058048Y005916D02*
X058048Y005820D01*
X058096Y005771D01*
X058290Y005771D01*
X058338Y005820D01*
X058338Y005916D01*
X058290Y005965D01*
X058096Y005965D02*
X058048Y005916D01*
X058048Y005670D02*
X058338Y005670D01*
X058048Y005477D01*
X058338Y005477D01*
X057838Y005573D02*
X057741Y005670D01*
X057548Y005670D01*
X057548Y005477D02*
X057741Y005477D01*
X057838Y005573D01*
X060988Y006217D02*
X061181Y006217D01*
X061278Y006313D01*
X061181Y006410D01*
X060988Y006410D01*
X061036Y006511D02*
X061230Y006511D01*
X061278Y006560D01*
X061278Y006656D01*
X061230Y006705D01*
X061230Y006806D02*
X061036Y006806D01*
X060988Y006854D01*
X060988Y006951D01*
X061036Y006999D01*
X061230Y006999D02*
X061278Y006951D01*
X061278Y006854D01*
X061230Y006806D01*
X061036Y006705D02*
X060988Y006656D01*
X060988Y006560D01*
X061036Y006511D01*
X061488Y006511D02*
X061488Y006608D01*
X061488Y006560D02*
X061778Y006560D01*
X061778Y006608D02*
X061778Y006511D01*
X061681Y006410D02*
X061488Y006410D01*
X061488Y006217D02*
X061681Y006217D01*
X061778Y006313D01*
X061681Y006410D01*
X061730Y006708D02*
X061778Y006756D01*
X061778Y006853D01*
X061730Y006901D01*
X061536Y006901D01*
X061488Y006853D01*
X061488Y006756D01*
X061536Y006708D01*
X061730Y006708D01*
X061988Y006806D02*
X062230Y006806D01*
X062278Y006854D01*
X062278Y006951D01*
X062230Y006999D01*
X061988Y006999D01*
X061988Y007101D02*
X062278Y007101D01*
X062278Y007294D01*
X062278Y007492D02*
X061988Y007492D01*
X061988Y007395D02*
X061988Y007589D01*
X061778Y007394D02*
X061488Y007394D01*
X061488Y007490D02*
X061488Y007297D01*
X061488Y007196D02*
X061730Y007196D01*
X061778Y007147D01*
X061778Y007051D01*
X061730Y007002D01*
X061488Y007002D01*
X061988Y006608D02*
X062085Y006705D01*
X062278Y006705D01*
X062133Y006705D02*
X062133Y006511D01*
X062085Y006511D02*
X061988Y006608D01*
X062085Y006511D02*
X062278Y006511D01*
X062488Y006511D02*
X062778Y006705D01*
X062488Y006705D01*
X062488Y006806D02*
X062488Y006951D01*
X062536Y006999D01*
X062730Y006999D01*
X062778Y006951D01*
X062778Y006806D01*
X062488Y006806D01*
X062488Y006511D02*
X062778Y006511D01*
X062730Y006410D02*
X062633Y006410D01*
X062633Y006313D01*
X062536Y006217D02*
X062730Y006217D01*
X062778Y006265D01*
X062778Y006362D01*
X062730Y006410D01*
X062536Y006410D02*
X062488Y006362D01*
X062488Y006265D01*
X062536Y006217D01*
X062278Y006217D02*
X061988Y006217D01*
X061988Y006410D01*
X062133Y006313D02*
X062133Y006217D01*
X062192Y004757D02*
X062386Y004757D01*
X062386Y004709D01*
X062192Y004515D01*
X062192Y004467D01*
X062091Y004515D02*
X062043Y004467D01*
X061946Y004467D01*
X061898Y004515D01*
X061796Y004515D02*
X061748Y004467D01*
X061651Y004467D01*
X061603Y004515D01*
X061603Y004709D01*
X061651Y004757D01*
X061748Y004757D01*
X061796Y004709D01*
X061898Y004709D02*
X061898Y004660D01*
X061946Y004612D01*
X062043Y004612D01*
X062091Y004563D01*
X062091Y004515D01*
X062091Y004709D02*
X062043Y004757D01*
X061946Y004757D01*
X061898Y004709D01*
X061502Y004660D02*
X061502Y004467D01*
X061502Y004612D02*
X061308Y004612D01*
X061308Y004660D02*
X061405Y004757D01*
X061502Y004660D01*
X061308Y004660D02*
X061308Y004467D01*
X062487Y004467D02*
X062680Y004467D01*
X062584Y004467D02*
X062584Y004757D01*
X062487Y004660D01*
X062781Y004660D02*
X062878Y004757D01*
X062878Y004467D01*
X062781Y004467D02*
X062975Y004467D01*
X062633Y002901D02*
X062633Y002708D01*
X062633Y002607D02*
X062681Y002558D01*
X062681Y002413D01*
X062778Y002413D02*
X062488Y002413D01*
X062488Y002558D01*
X062536Y002607D01*
X062633Y002607D01*
X062488Y002313D02*
X062488Y002217D01*
X062488Y002265D02*
X062778Y002265D01*
X062778Y002217D02*
X062778Y002313D01*
X062278Y002313D02*
X062278Y002217D01*
X062278Y002265D02*
X061988Y002265D01*
X061988Y002217D02*
X061988Y002313D01*
X061988Y002413D02*
X061988Y002558D01*
X062036Y002607D01*
X062133Y002607D01*
X062181Y002558D01*
X062181Y002413D01*
X062278Y002413D02*
X061988Y002413D01*
X061778Y002413D02*
X061488Y002413D01*
X061488Y002558D01*
X061536Y002607D01*
X061633Y002607D01*
X061681Y002558D01*
X061681Y002413D01*
X061778Y002313D02*
X061778Y002217D01*
X061778Y002265D02*
X061488Y002265D01*
X061488Y002217D02*
X061488Y002313D01*
X061278Y002313D02*
X061278Y002217D01*
X061278Y002265D02*
X060988Y002265D01*
X060988Y002217D02*
X060988Y002313D01*
X060988Y002413D02*
X060988Y002558D01*
X061036Y002607D01*
X061133Y002607D01*
X061181Y002558D01*
X061181Y002413D01*
X061278Y002413D02*
X060988Y002413D01*
X061133Y002708D02*
X061133Y002901D01*
X061036Y002804D02*
X061230Y002804D01*
X061536Y002804D02*
X061730Y002804D01*
X061633Y002708D02*
X061633Y002901D01*
X062133Y002901D02*
X062133Y002708D01*
X058338Y002211D02*
X058290Y002259D01*
X058241Y002211D01*
X058241Y002114D01*
X058193Y002066D01*
X058145Y002114D01*
X058145Y002259D01*
X058338Y002211D02*
X058338Y002066D01*
X058290Y001965D02*
X058241Y001916D01*
X058241Y001820D01*
X058193Y001771D01*
X058145Y001820D01*
X058145Y001965D01*
X058290Y001965D02*
X058338Y001916D01*
X058338Y001771D01*
X058241Y001670D02*
X058048Y001670D01*
X058048Y001477D02*
X058241Y001477D01*
X058338Y001573D01*
X058241Y001670D01*
X057838Y001573D02*
X057741Y001670D01*
X057548Y001670D01*
X057693Y001771D02*
X057693Y001965D01*
X057596Y001868D02*
X057790Y001868D01*
X057838Y001573D02*
X057741Y001477D01*
X057548Y001477D01*
X057338Y001573D02*
X057241Y001477D01*
X057048Y001477D01*
X057048Y001670D02*
X057241Y001670D01*
X057338Y001573D01*
X057193Y001771D02*
X057193Y001965D01*
X056838Y001916D02*
X056790Y001965D01*
X056838Y001916D02*
X056838Y001820D01*
X056790Y001771D01*
X056596Y001771D01*
X056548Y001820D01*
X056548Y001916D01*
X056596Y001965D01*
X056548Y001670D02*
X056838Y001670D01*
X056548Y001477D01*
X056838Y001477D01*
D21*
X056938Y001322D03*
X054788Y001322D03*
X052578Y001322D03*
X050428Y001322D03*
X052328Y002942D03*
X054478Y002942D03*
X061118Y007632D03*
X063268Y007632D03*
X063228Y008702D03*
X061078Y008702D03*
X046188Y012372D03*
X044038Y012372D03*
X043998Y013892D03*
X046148Y013892D03*
X059968Y015912D03*
X062118Y015912D03*
X047478Y021172D03*
X045328Y021172D03*
X039038Y020172D03*
X036888Y020172D03*
D22*
X027773Y018022D03*
X027883Y014912D03*
D23*
X060833Y013237D03*
X062003Y013277D03*
X062003Y011127D03*
X060833Y011087D03*
D24*
X024063Y011752D03*
X022903Y015282D03*
D25*
X022903Y014657D03*
X024063Y013477D03*
X024063Y011127D03*
X022903Y017007D03*
M02*
