%
M48
M72
T01C0.0236
T02C0.0240
T03C0.0276
T04C0.0315
T05C0.0320
T06C0.0335
T07C0.0400
T08C0.0433
T09C0.0440
T10C0.0630
T11C0.1102
T12C0.1290
%
T01
X17630Y19700
X23120Y10810
X12170Y16590
X18440Y14700
X18450Y10140
X29240Y7440
X28000Y9320
X29480Y9540
X24830Y12060
X26820Y12010
X28320Y13790
X28410Y12270
X24390Y7990
X6970Y20910
X23880Y9760
X23860Y13620
X23880Y11090
X26400Y9840
X24860Y9700
X22960Y18460
X19870Y18820
X14790Y8740
X20810Y9180
X20800Y12020
X18900Y17670
X-840Y16290
X-22520Y4330
X-21930Y6500
X24720Y22330
X24720Y21780
X22490Y20740
X21140Y20760
X21140Y20280
X23860Y20740
X24720Y20760
X24720Y21260
X-4660Y21730
X-3390Y21520
X-4120Y20350
X-2950Y20350
X-4900Y20350
X-4900Y19590
X-4090Y19540
X-3060Y19540
X-5080Y16330
X-4610Y13060
X-4500Y16240
T02
X19400Y11900
X5000Y11800
X19100Y7400
X16100Y13700
X15000Y13200
X3500Y14100
X14200Y8300
X19900Y8200
X19900Y11000
X16300Y10800
X16800Y10400
X29000Y10400
X31600Y13000
X18170Y4790
X23520Y12440
X20700Y7800
X21880Y13910
X27100Y5300
X29900Y6900
X27100Y6800
X26750Y12790
X21500Y7000
X20250Y4550
X25060Y19910
X28400Y3100
X26100Y4800
X19710Y20700
X25460Y18030
X8500Y5600
X12200Y21000
X24100Y16300
X22700Y17400
X14600Y11800
X24500Y10400
X22900Y7880
X23000Y7100
X7600Y5100
X6300Y15900
X9800Y19400
X14600Y18400
X12700Y21000
X11400Y19000
X12400Y5800
X14200Y3800
X17400Y16100
X29000Y13400
X30900Y17100
X16900Y4200
X20300Y12900
X19100Y15700
X31400Y18500
X24500Y17000
X17300Y5100
X19500Y10700
X13700Y3800
X15120Y17180
X17000Y8500
X8500Y2800
X9600Y2100
X28500Y18000
X28900Y19500
X28900Y18670
X30400Y17100
X28600Y15300
X24300Y3800
X25000Y5200
X21600Y3800
X21100Y17600
X16920Y20020
X32900Y10700
T03
X7270Y18000
X9270Y18000
X13970Y4920
X13970Y2920
X28260Y21980
X26260Y21980
T04
X8540Y10980
X9540Y10980
X10540Y10980
X11540Y10980
X12540Y10980
X12540Y13980
X11540Y13980
X10540Y13980
X9540Y13980
X8540Y13980
X9177Y7039
X9965Y7039
X10752Y7039
X11540Y7039
X12327Y7039
X13114Y7039
X13902Y7039
X14689Y7039
X15477Y7039
X16264Y7039
X9177Y15701
X9965Y15701
X10752Y15701
X11540Y15701
X12327Y15701
X13114Y15701
X13902Y15701
X14689Y15701
X15477Y15701
X16264Y15701
X-27260Y7950
X-26260Y7950
X-25260Y7950
X-24260Y7950
X-23260Y7950
X-23260Y10950
X-24260Y10950
X-25260Y10950
X-26260Y10950
X-27260Y10950
T05
X22050Y2730
X25050Y2730
X20150Y1110
X23150Y1110
X24510Y1110
X27510Y1110
X30840Y7420
X33840Y7420
X16720Y13680
X13720Y13680
X16760Y12160
X13760Y12160
X18050Y20960
X15050Y20960
X9610Y19960
X6610Y19960
X32150Y10490
X32150Y13490
X30980Y10450
X30980Y13450
X30800Y8490
X33800Y8490
X29690Y15700
X32690Y15700
T06
X3469Y10140
X4651Y10140
T07
X4000Y20750
X5000Y20750
X4000Y19750
X5000Y19750
X4000Y18750
X5000Y18750
X4000Y17750
X5000Y17750
X4000Y16750
X5000Y16750
X4000Y7750
X5000Y7750
X4000Y6750
X5000Y6750
X4000Y5750
X5000Y5750
X4000Y4750
X5000Y4750
X4000Y3750
X5000Y3750
X35000Y16500
X35000Y17500
X35000Y18500
X35000Y19500
X35000Y20500
X35000Y4000
X35000Y5000
X35000Y6000
X35000Y7000
X6660Y22300
X7660Y22300
X8660Y22300
X9660Y22300
X10660Y22300
X11660Y22300
X12660Y22300
X13660Y22300
X14660Y22300
X15660Y22300
X35000Y10500
X34000Y10500
X35000Y11500
X34000Y11500
X35000Y12500
X34000Y12500
X35000Y13500
X34000Y13500
X12000Y23700
X13000Y23700
X14000Y23700
X15000Y23700
X16000Y23700
X3500Y23700
X4500Y23700
X5500Y23700
X6500Y23700
X7500Y23700
X3500Y800
X4500Y800
X5500Y800
X6500Y800
X7500Y800
X12000Y800
X13000Y800
X14000Y800
X15000Y800
X16000Y800
X15500Y10000
X15500Y11000
X-3460Y9940
X-3460Y10940
X-15460Y800
X-14460Y800
X-13460Y800
X-12460Y800
X-11460Y800
X-6960Y800
X-5960Y800
X-4960Y800
X-3960Y800
X-2960Y800
X-15460Y23700
X-14460Y23700
X-13460Y23700
X-12460Y23700
X-11460Y23700
X-6960Y23700
X-5960Y23700
X-4960Y23700
X-3960Y23700
X-2960Y23700
X26450Y6620
X25450Y6620
X24450Y6620
X23450Y6620
X22450Y6620
X-6650Y18870
X-6650Y19870
X-6650Y20870
X-6650Y21870
X34010Y14860
X35010Y14860
X-27550Y13350
X-27550Y14350
X-27550Y15350
X-27550Y16350
X-27550Y17350
X-27550Y18350
X-27550Y19350
X-27550Y20350
X-27550Y21350
X-27550Y22350
X-25690Y6360
X-24690Y6360
X-25690Y5360
X-24690Y5360
X-25690Y4360
X-24690Y4360
X-25690Y3360
X-24690Y3360
X-27560Y4480
X-27560Y5480
X-1410Y11700
X-1410Y10700
X-1410Y9700
T08
X-11870Y8080
X-13870Y8080
X-8870Y16080
X-16870Y16080
T09
X-5790Y14090
X-5790Y10090
X-6950Y17620
X-6950Y13620
T10
X-1970Y5540
X-3770Y5540
T11
X-19710Y19940
X-19710Y3940
X30500Y22500
X19800Y22250
X30500Y2250
X19800Y2250
T12
X34750Y1250
X1250Y1250
X1250Y23250
X34750Y23250
X18000Y23250
X18000Y1250
M30
