G75*
G70*
%OFA0B0*%
%FSLAX24Y24*%
%IPPOS*%
%LPD*%
%AMOC8*
5,1,8,0,0,1.08239X$1,22.5*
%
%ADD10C,0.0000*%
%ADD11R,0.0590X0.0790*%
%ADD12R,0.1500X0.0790*%
%ADD13R,0.0315X0.0315*%
%ADD14R,0.1100X0.0850*%
%ADD15C,0.0650*%
%ADD16OC8,0.0740*%
%ADD17C,0.0740*%
%ADD18OC8,0.0520*%
%ADD19R,0.0740X0.0740*%
%ADD20C,0.0515*%
%ADD21R,0.0394X0.0453*%
%ADD22C,0.0600*%
%ADD23C,0.0660*%
%ADD24C,0.0650*%
%ADD25C,0.0100*%
%ADD26C,0.0360*%
%ADD27C,0.0356*%
%ADD28C,0.0160*%
%ADD29C,0.0080*%
%ADD30C,0.0060*%
%ADD31C,0.2000*%
%ADD32C,0.1502*%
D10*
X000103Y000212D02*
X065853Y000212D01*
X065853Y024712D01*
X000103Y024712D01*
X000103Y000212D01*
X025768Y005752D02*
X025770Y005787D01*
X025776Y005822D01*
X025786Y005856D01*
X025799Y005889D01*
X025816Y005920D01*
X025837Y005948D01*
X025860Y005975D01*
X025887Y005998D01*
X025915Y006019D01*
X025946Y006036D01*
X025979Y006049D01*
X026013Y006059D01*
X026048Y006065D01*
X026083Y006067D01*
X026118Y006065D01*
X026153Y006059D01*
X026187Y006049D01*
X026220Y006036D01*
X026251Y006019D01*
X026279Y005998D01*
X026306Y005975D01*
X026329Y005948D01*
X026350Y005920D01*
X026367Y005889D01*
X026380Y005856D01*
X026390Y005822D01*
X026396Y005787D01*
X026398Y005752D01*
X026396Y005717D01*
X026390Y005682D01*
X026380Y005648D01*
X026367Y005615D01*
X026350Y005584D01*
X026329Y005556D01*
X026306Y005529D01*
X026279Y005506D01*
X026251Y005485D01*
X026220Y005468D01*
X026187Y005455D01*
X026153Y005445D01*
X026118Y005439D01*
X026083Y005437D01*
X026048Y005439D01*
X026013Y005445D01*
X025979Y005455D01*
X025946Y005468D01*
X025915Y005485D01*
X025887Y005506D01*
X025860Y005529D01*
X025837Y005556D01*
X025816Y005584D01*
X025799Y005615D01*
X025786Y005648D01*
X025776Y005682D01*
X025770Y005717D01*
X025768Y005752D01*
X027568Y005752D02*
X027570Y005787D01*
X027576Y005822D01*
X027586Y005856D01*
X027599Y005889D01*
X027616Y005920D01*
X027637Y005948D01*
X027660Y005975D01*
X027687Y005998D01*
X027715Y006019D01*
X027746Y006036D01*
X027779Y006049D01*
X027813Y006059D01*
X027848Y006065D01*
X027883Y006067D01*
X027918Y006065D01*
X027953Y006059D01*
X027987Y006049D01*
X028020Y006036D01*
X028051Y006019D01*
X028079Y005998D01*
X028106Y005975D01*
X028129Y005948D01*
X028150Y005920D01*
X028167Y005889D01*
X028180Y005856D01*
X028190Y005822D01*
X028196Y005787D01*
X028198Y005752D01*
X028196Y005717D01*
X028190Y005682D01*
X028180Y005648D01*
X028167Y005615D01*
X028150Y005584D01*
X028129Y005556D01*
X028106Y005529D01*
X028079Y005506D01*
X028051Y005485D01*
X028020Y005468D01*
X027987Y005455D01*
X027953Y005445D01*
X027918Y005439D01*
X027883Y005437D01*
X027848Y005439D01*
X027813Y005445D01*
X027779Y005455D01*
X027746Y005468D01*
X027715Y005485D01*
X027687Y005506D01*
X027660Y005529D01*
X027637Y005556D01*
X027616Y005584D01*
X027599Y005615D01*
X027586Y005648D01*
X027576Y005682D01*
X027570Y005717D01*
X027568Y005752D01*
X033156Y010352D02*
X033158Y010377D01*
X033164Y010402D01*
X033173Y010426D01*
X033186Y010448D01*
X033203Y010468D01*
X033222Y010485D01*
X033243Y010499D01*
X033267Y010509D01*
X033291Y010516D01*
X033317Y010519D01*
X033342Y010518D01*
X033367Y010513D01*
X033391Y010504D01*
X033414Y010492D01*
X033434Y010477D01*
X033452Y010458D01*
X033467Y010437D01*
X033478Y010414D01*
X033486Y010390D01*
X033490Y010365D01*
X033490Y010339D01*
X033486Y010314D01*
X033478Y010290D01*
X033467Y010267D01*
X033452Y010246D01*
X033434Y010227D01*
X033414Y010212D01*
X033391Y010200D01*
X033367Y010191D01*
X033342Y010186D01*
X033317Y010185D01*
X033291Y010188D01*
X033267Y010195D01*
X033243Y010205D01*
X033222Y010219D01*
X033203Y010236D01*
X033186Y010256D01*
X033173Y010278D01*
X033164Y010302D01*
X033158Y010327D01*
X033156Y010352D01*
X034337Y010352D02*
X034339Y010377D01*
X034345Y010402D01*
X034354Y010426D01*
X034367Y010448D01*
X034384Y010468D01*
X034403Y010485D01*
X034424Y010499D01*
X034448Y010509D01*
X034472Y010516D01*
X034498Y010519D01*
X034523Y010518D01*
X034548Y010513D01*
X034572Y010504D01*
X034595Y010492D01*
X034615Y010477D01*
X034633Y010458D01*
X034648Y010437D01*
X034659Y010414D01*
X034667Y010390D01*
X034671Y010365D01*
X034671Y010339D01*
X034667Y010314D01*
X034659Y010290D01*
X034648Y010267D01*
X034633Y010246D01*
X034615Y010227D01*
X034595Y010212D01*
X034572Y010200D01*
X034548Y010191D01*
X034523Y010186D01*
X034498Y010185D01*
X034472Y010188D01*
X034448Y010195D01*
X034424Y010205D01*
X034403Y010219D01*
X034384Y010236D01*
X034367Y010256D01*
X034354Y010278D01*
X034345Y010302D01*
X034339Y010327D01*
X034337Y010352D01*
D11*
X051963Y019532D03*
X052863Y019532D03*
X053763Y019532D03*
D12*
X052873Y022012D03*
D13*
X052073Y017467D03*
X053543Y017437D03*
X053543Y016846D03*
X052073Y016876D03*
X050353Y016816D03*
X050353Y017407D03*
D14*
X034703Y015112D03*
X032803Y015112D03*
X032893Y013112D03*
X034793Y013112D03*
D15*
X037123Y018212D03*
X039123Y018212D03*
X056113Y022192D03*
X058113Y022192D03*
X043823Y005132D03*
X043823Y003132D03*
D16*
X034853Y003962D03*
X033853Y003962D03*
X033853Y004962D03*
X034853Y004962D03*
X034853Y005962D03*
X033853Y005962D03*
X033853Y006962D03*
X034853Y006962D03*
X034853Y007962D03*
X033853Y007962D03*
X033853Y016962D03*
X034853Y016962D03*
X034853Y017962D03*
X033853Y017962D03*
X033853Y018962D03*
X034853Y018962D03*
X034853Y019962D03*
X033853Y019962D03*
X033853Y020962D03*
X034853Y020962D03*
X063853Y013712D03*
X064853Y013712D03*
X064853Y012712D03*
X063853Y012712D03*
X063853Y011712D03*
X064853Y011712D03*
X064853Y010712D03*
X063853Y010712D03*
X005163Y006572D03*
X004163Y006572D03*
X004163Y005572D03*
X005163Y005572D03*
X005163Y004572D03*
X004163Y004572D03*
X004163Y003572D03*
X005163Y003572D03*
D17*
X002293Y004692D03*
X002293Y005692D03*
X014393Y001012D03*
X015393Y001012D03*
X016393Y001012D03*
X017393Y001012D03*
X018393Y001012D03*
X022893Y001012D03*
X023893Y001012D03*
X024893Y001012D03*
X025893Y001012D03*
X026893Y001012D03*
X033353Y001012D03*
X034353Y001012D03*
X035353Y001012D03*
X036353Y001012D03*
X037353Y001012D03*
X041853Y001012D03*
X042853Y001012D03*
X043853Y001012D03*
X044853Y001012D03*
X045853Y001012D03*
X052303Y006832D03*
X053303Y006832D03*
X054303Y006832D03*
X055303Y006832D03*
X056303Y006832D03*
X064853Y007212D03*
X064853Y006212D03*
X064853Y005212D03*
X045353Y010212D03*
X045353Y011212D03*
X028443Y010912D03*
X026393Y011152D03*
X028443Y011912D03*
X026393Y010152D03*
X028443Y009912D03*
X002303Y013562D03*
X002303Y014562D03*
X002303Y015562D03*
X002303Y016562D03*
X002303Y017562D03*
X002303Y018562D03*
X002303Y019562D03*
X002303Y020562D03*
X002303Y021562D03*
X002303Y022562D03*
X014393Y023912D03*
X015393Y023912D03*
X016393Y023912D03*
X017393Y023912D03*
X018393Y023912D03*
X022893Y023912D03*
X023893Y023912D03*
X024893Y023912D03*
X025893Y023912D03*
X026893Y023912D03*
X023203Y022082D03*
X023203Y021082D03*
X023203Y020082D03*
X033353Y023912D03*
X034353Y023912D03*
X035353Y023912D03*
X036353Y023912D03*
X037353Y023912D03*
X037513Y022512D03*
X038513Y022512D03*
X039513Y022512D03*
X040513Y022512D03*
X041513Y022512D03*
X042513Y022512D03*
X043513Y022512D03*
X044513Y022512D03*
X045513Y022512D03*
X045853Y023912D03*
X044853Y023912D03*
X043853Y023912D03*
X042853Y023912D03*
X041853Y023912D03*
X036513Y022512D03*
X063863Y015072D03*
X064863Y015072D03*
X064853Y016712D03*
X064853Y017712D03*
X064853Y018712D03*
X064853Y019712D03*
X064853Y020712D03*
D18*
X062543Y015912D03*
X059543Y015912D03*
X062003Y013702D03*
X060833Y013662D03*
X062003Y010702D03*
X060833Y010662D03*
X060653Y008702D03*
X063653Y008702D03*
X063693Y007632D03*
X060693Y007632D03*
X054903Y002942D03*
X051903Y002942D03*
X053003Y001322D03*
X054363Y001322D03*
X057363Y001322D03*
X050003Y001322D03*
X046613Y012372D03*
X043613Y012372D03*
X043573Y013892D03*
X046573Y013892D03*
X039463Y020172D03*
X036463Y020172D03*
X044903Y021172D03*
X047903Y021172D03*
D19*
X023203Y019082D03*
X064853Y004212D03*
D20*
X042393Y011192D03*
X041393Y011192D03*
X040393Y011192D03*
X039393Y011192D03*
X038393Y011192D03*
X038393Y014192D03*
X039393Y014192D03*
X040393Y014192D03*
X041393Y014192D03*
X042393Y014192D03*
X006593Y011162D03*
X005593Y011162D03*
X004593Y011162D03*
X003593Y011162D03*
X002593Y011162D03*
X002593Y008162D03*
X003593Y008162D03*
X004593Y008162D03*
X005593Y008162D03*
X006593Y008162D03*
D21*
X032929Y009239D03*
X033913Y009239D03*
X034897Y009239D03*
X034897Y011464D03*
X033913Y011464D03*
X032929Y011464D03*
D22*
X039031Y007251D03*
X039818Y007251D03*
X040605Y007251D03*
X041393Y007251D03*
X042180Y007251D03*
X042968Y007251D03*
X043755Y007251D03*
X044542Y007251D03*
X045330Y007251D03*
X046117Y007251D03*
X046117Y015912D03*
X045330Y015912D03*
X044542Y015912D03*
X043755Y015912D03*
X042968Y015912D03*
X042180Y015912D03*
X041393Y015912D03*
X040605Y015912D03*
X039818Y015912D03*
X039031Y015912D03*
D23*
X024063Y014302D03*
X022903Y013832D03*
X024063Y010302D03*
X022903Y017832D03*
D24*
X020983Y016292D03*
X012983Y016292D03*
X015983Y008292D03*
X017983Y008292D03*
D25*
X026393Y011152D02*
X026373Y011972D01*
X029003Y014542D01*
X029023Y016222D01*
X029013Y016502D01*
X028711Y016373D02*
X024223Y016373D01*
X024223Y016471D02*
X028685Y016471D01*
X028685Y016436D02*
X028735Y016316D01*
X028823Y016228D01*
X028823Y016219D01*
X028804Y014627D01*
X026486Y012362D01*
X024713Y012362D01*
X024603Y012472D01*
X024603Y012732D01*
X024193Y013142D01*
X024193Y013836D01*
X024335Y013895D01*
X024470Y014030D01*
X024543Y014206D01*
X024543Y014397D01*
X024470Y014574D01*
X024335Y014709D01*
X024223Y014755D01*
X024223Y021447D01*
X024193Y021477D01*
X024193Y022622D01*
X024143Y022672D01*
X024223Y022672D01*
X024273Y022752D01*
X027573Y022752D01*
X028853Y022592D01*
X028865Y016795D01*
X028827Y016780D01*
X028735Y016687D01*
X028685Y016567D01*
X028685Y016436D01*
X028686Y016570D02*
X024223Y016570D01*
X024223Y016668D02*
X028727Y016668D01*
X028815Y016767D02*
X024223Y016767D01*
X024223Y016865D02*
X028865Y016865D01*
X028865Y016964D02*
X024223Y016964D01*
X024223Y017063D02*
X028865Y017063D01*
X028865Y017161D02*
X024223Y017161D01*
X024223Y017260D02*
X028864Y017260D01*
X028864Y017358D02*
X024223Y017358D01*
X024223Y017457D02*
X028864Y017457D01*
X028864Y017555D02*
X024223Y017555D01*
X024223Y017654D02*
X028864Y017654D01*
X028863Y017752D02*
X024223Y017752D01*
X024223Y017851D02*
X028863Y017851D01*
X028863Y017949D02*
X024223Y017949D01*
X024223Y018048D02*
X028863Y018048D01*
X028863Y018147D02*
X024223Y018147D01*
X024223Y018245D02*
X028862Y018245D01*
X028862Y018344D02*
X024223Y018344D01*
X024223Y018442D02*
X028862Y018442D01*
X028862Y018541D02*
X024223Y018541D01*
X024223Y018639D02*
X028861Y018639D01*
X028861Y018738D02*
X024223Y018738D01*
X024223Y018836D02*
X028861Y018836D01*
X028861Y018935D02*
X024223Y018935D01*
X024223Y019033D02*
X028861Y019033D01*
X028860Y019132D02*
X024223Y019132D01*
X024223Y019231D02*
X028860Y019231D01*
X028860Y019329D02*
X024223Y019329D01*
X024223Y019428D02*
X028860Y019428D01*
X028860Y019526D02*
X024223Y019526D01*
X024223Y019625D02*
X028859Y019625D01*
X028859Y019723D02*
X024223Y019723D01*
X024223Y019822D02*
X028859Y019822D01*
X028859Y019920D02*
X024223Y019920D01*
X024223Y020019D02*
X028859Y020019D01*
X028858Y020117D02*
X024223Y020117D01*
X024223Y020216D02*
X028858Y020216D01*
X028858Y020314D02*
X024223Y020314D01*
X024223Y020413D02*
X028858Y020413D01*
X028858Y020512D02*
X024223Y020512D01*
X024223Y020610D02*
X028857Y020610D01*
X028857Y020709D02*
X024223Y020709D01*
X024223Y020807D02*
X028857Y020807D01*
X028857Y020906D02*
X024223Y020906D01*
X024223Y021004D02*
X028857Y021004D01*
X028856Y021103D02*
X024223Y021103D01*
X024223Y021201D02*
X028856Y021201D01*
X028856Y021300D02*
X024223Y021300D01*
X024223Y021398D02*
X028856Y021398D01*
X028856Y021497D02*
X024193Y021497D01*
X024193Y021596D02*
X028855Y021596D01*
X028855Y021694D02*
X024193Y021694D01*
X024193Y021793D02*
X028855Y021793D01*
X028855Y021891D02*
X024193Y021891D01*
X024193Y021990D02*
X028854Y021990D01*
X028854Y022088D02*
X024193Y022088D01*
X024193Y022187D02*
X028854Y022187D01*
X028854Y022285D02*
X024193Y022285D01*
X024193Y022384D02*
X028854Y022384D01*
X028853Y022482D02*
X024193Y022482D01*
X024193Y022581D02*
X028853Y022581D01*
X028150Y022680D02*
X024228Y022680D01*
X023293Y022052D02*
X023203Y022082D01*
X023203Y021082D02*
X023193Y021052D01*
X023193Y019152D02*
X023203Y019082D01*
X023293Y019052D01*
X023393Y018952D01*
X024223Y016274D02*
X028777Y016274D01*
X028823Y016176D02*
X024223Y016176D01*
X024223Y016077D02*
X028821Y016077D01*
X028820Y015979D02*
X024223Y015979D01*
X024223Y015880D02*
X028819Y015880D01*
X028818Y015781D02*
X024223Y015781D01*
X024223Y015683D02*
X028817Y015683D01*
X028816Y015584D02*
X024223Y015584D01*
X024223Y015486D02*
X028814Y015486D01*
X028813Y015387D02*
X024223Y015387D01*
X024223Y015289D02*
X028812Y015289D01*
X028811Y015190D02*
X024223Y015190D01*
X024223Y015092D02*
X028810Y015092D01*
X028809Y014993D02*
X024223Y014993D01*
X024223Y014895D02*
X028807Y014895D01*
X028806Y014796D02*
X024223Y014796D01*
X024346Y014698D02*
X028805Y014698D01*
X028776Y014599D02*
X024445Y014599D01*
X024500Y014500D02*
X028675Y014500D01*
X028574Y014402D02*
X024541Y014402D01*
X024543Y014303D02*
X028473Y014303D01*
X028372Y014205D02*
X024543Y014205D01*
X024502Y014106D02*
X028272Y014106D01*
X028171Y014008D02*
X024448Y014008D01*
X024350Y013909D02*
X028070Y013909D01*
X027969Y013811D02*
X024193Y013811D01*
X024193Y013712D02*
X027868Y013712D01*
X027767Y013614D02*
X024193Y013614D01*
X024193Y013515D02*
X027666Y013515D01*
X027566Y013416D02*
X024193Y013416D01*
X024193Y013318D02*
X027465Y013318D01*
X027364Y013219D02*
X024193Y013219D01*
X024214Y013121D02*
X027263Y013121D01*
X027162Y013022D02*
X024313Y013022D01*
X024411Y012924D02*
X027061Y012924D01*
X026961Y012825D02*
X024510Y012825D01*
X024603Y012727D02*
X026860Y012727D01*
X026759Y012628D02*
X024603Y012628D01*
X024603Y012530D02*
X026658Y012530D01*
X026557Y012431D02*
X024644Y012431D01*
X022993Y013852D02*
X022903Y013832D01*
X023993Y014352D02*
X024063Y014302D01*
X032053Y013912D02*
X032853Y013112D01*
X032893Y013112D01*
X032853Y013112D02*
X032553Y012812D01*
X032553Y008312D01*
X033853Y007012D01*
X033853Y006962D01*
X033853Y006912D01*
X033953Y006812D01*
X034353Y006412D01*
X034353Y004512D01*
X034853Y004012D01*
X034853Y003962D01*
X034353Y003712D02*
X034353Y004212D01*
X034153Y004412D01*
X034153Y004612D01*
X033853Y004912D01*
X033853Y004962D01*
X033353Y005412D02*
X033853Y005912D01*
X033853Y005962D01*
X033353Y005412D02*
X033353Y003212D01*
X037553Y003212D01*
X037653Y003312D01*
X037653Y003412D01*
X039653Y003412D01*
X042253Y006012D01*
X043753Y005112D02*
X043823Y005132D01*
X043753Y005112D02*
X040953Y002312D01*
X039453Y002312D01*
X038353Y001912D02*
X038353Y003012D01*
X037453Y003412D02*
X037453Y005312D01*
X038353Y005812D02*
X038553Y005812D01*
X038813Y006072D01*
X038813Y006452D01*
X045443Y006452D01*
X046117Y007126D01*
X046117Y007251D01*
X045330Y007251D02*
X045303Y007278D01*
X045303Y009002D01*
X044453Y009852D01*
X044453Y012012D01*
X043613Y012372D02*
X043553Y012412D01*
X042153Y012412D01*
X040393Y014192D01*
X044853Y013412D02*
X044853Y010712D01*
X045353Y010212D01*
X046653Y010612D02*
X046653Y012312D01*
X046613Y012372D01*
X045953Y011812D02*
X045953Y013912D01*
X046153Y013412D02*
X046553Y013812D01*
X046573Y013892D01*
X046153Y013412D02*
X046153Y011012D01*
X045353Y011212D02*
X045953Y011812D01*
X048953Y011812D02*
X048953Y007612D01*
X049353Y007512D02*
X049353Y010912D01*
X049753Y011212D02*
X049753Y008412D01*
X050153Y007812D02*
X050153Y013112D01*
X050153Y014712D01*
X048953Y015912D01*
X049463Y016502D02*
X051273Y014692D01*
X052183Y014692D01*
X053043Y013832D01*
X052973Y013762D01*
X052973Y011022D01*
X053733Y011302D02*
X053833Y011302D01*
X054153Y011622D01*
X054153Y011462D01*
X054453Y011162D01*
X055163Y011162D01*
X055163Y011142D01*
X056253Y010052D01*
X055193Y010242D02*
X055193Y008782D01*
X056253Y007722D01*
X056253Y006882D01*
X056303Y006832D01*
X056253Y006912D01*
X056953Y007012D02*
X057673Y007012D01*
X059933Y009272D01*
X061013Y009272D01*
X061953Y010212D01*
X061953Y010612D01*
X062003Y010702D01*
X062753Y010912D02*
X062753Y012912D01*
X062053Y013612D01*
X062003Y013702D01*
X061453Y013212D02*
X058853Y010612D01*
X059333Y009752D02*
X059113Y009532D01*
X057853Y009532D01*
X059753Y007712D02*
X060653Y008612D01*
X060653Y008702D01*
X059753Y007712D02*
X059753Y007112D01*
X059093Y007652D02*
X056953Y005512D01*
X056253Y005312D02*
X055953Y005012D01*
X056253Y005312D02*
X058253Y003312D01*
X058513Y002772D02*
X057493Y002772D01*
X054853Y005412D01*
X055253Y006312D02*
X056253Y005312D01*
X055253Y006312D02*
X054353Y006312D01*
X054353Y006782D01*
X054303Y006832D01*
X054243Y006892D01*
X054243Y008202D01*
X052753Y008092D02*
X052753Y007412D01*
X052853Y007312D01*
X053353Y006912D02*
X053353Y009592D01*
X053733Y009972D01*
X053793Y010032D01*
X053793Y010772D01*
X054153Y011132D01*
X054153Y011462D01*
X054153Y011622D02*
X054153Y012792D01*
X053713Y013232D01*
X053713Y013832D01*
X053553Y013992D01*
X053553Y016812D01*
X053543Y016846D01*
X053453Y016812D01*
X053083Y016812D01*
X053093Y016822D01*
X053093Y017642D01*
X052803Y017932D01*
X052813Y017942D01*
X052813Y018672D01*
X052813Y019482D01*
X052863Y019532D01*
X052853Y019612D01*
X052863Y019532D02*
X052953Y019512D01*
X053763Y019532D02*
X053853Y019612D01*
X054175Y020022D02*
X054120Y020077D01*
X053406Y020077D01*
X053318Y019989D01*
X053318Y019932D01*
X053308Y019932D01*
X053308Y019989D01*
X053220Y020077D01*
X052506Y020077D01*
X052418Y019989D01*
X052418Y019932D01*
X052408Y019932D01*
X052408Y019989D01*
X052320Y020077D01*
X051606Y020077D01*
X051518Y019989D01*
X051518Y019762D01*
X051176Y019762D01*
X050182Y020463D01*
X050133Y020512D01*
X050104Y020549D01*
X051973Y022419D01*
X051973Y021554D01*
X052061Y021467D01*
X053685Y021467D01*
X053773Y021554D01*
X053773Y022469D01*
X053685Y022557D01*
X052111Y022557D01*
X053176Y023622D01*
X055423Y023622D01*
X055763Y023282D01*
X055763Y022513D01*
X055711Y022461D01*
X055638Y022286D01*
X055638Y022097D01*
X055711Y021923D01*
X055763Y021870D01*
X055763Y021012D01*
X055233Y021012D01*
X054307Y020085D01*
X054175Y020022D01*
X054339Y020117D02*
X050672Y020117D01*
X050811Y020019D02*
X051548Y020019D01*
X051518Y019920D02*
X050951Y019920D01*
X051091Y019822D02*
X051518Y019822D01*
X051953Y019612D02*
X051963Y019532D01*
X051953Y019512D01*
X051953Y018812D01*
X050953Y017812D01*
X050353Y017412D02*
X049903Y017412D01*
X049903Y018852D01*
X049723Y019032D01*
X049463Y017992D02*
X047543Y019912D01*
X047483Y019912D01*
X049713Y020442D02*
X053093Y023822D01*
X062593Y023822D01*
X065353Y021062D01*
X065353Y017212D01*
X064853Y016712D01*
X064353Y017212D02*
X064853Y017712D01*
X064353Y017212D02*
X064353Y015512D01*
X064353Y012212D01*
X064853Y011712D01*
X064353Y011212D02*
X063853Y011712D01*
X063353Y012212D02*
X063853Y012712D01*
X063353Y012212D02*
X063353Y009012D01*
X063653Y008712D01*
X063653Y008702D01*
X063453Y008312D02*
X063153Y008612D01*
X063153Y014412D01*
X061553Y014412D01*
X060853Y013712D01*
X060833Y013662D01*
X060753Y015512D02*
X058853Y013612D01*
X059453Y015852D02*
X056603Y013002D01*
X053373Y012652D02*
X053353Y010312D01*
X048023Y005002D01*
X047153Y005312D02*
X049353Y007512D01*
X050153Y007812D02*
X046753Y004412D01*
X044053Y004012D02*
X047253Y007212D01*
X047253Y016312D01*
X048753Y017812D01*
X048753Y017882D01*
X049463Y017992D02*
X049463Y016502D01*
X050353Y016812D02*
X050353Y016816D01*
X050353Y016812D02*
X052053Y016812D01*
X052073Y016876D01*
X052153Y016812D01*
X053083Y016812D01*
X053553Y017412D02*
X053953Y017012D01*
X053953Y016512D01*
X054353Y017212D02*
X057853Y017212D01*
X059153Y018512D01*
X059153Y018712D01*
X061253Y018712D01*
X058753Y018882D02*
X058753Y019712D01*
X058113Y020352D01*
X058113Y022192D01*
X056743Y021562D02*
X056113Y022192D01*
X055679Y022384D02*
X053773Y022384D01*
X053773Y022285D02*
X055638Y022285D01*
X055638Y022187D02*
X053773Y022187D01*
X053773Y022088D02*
X055642Y022088D01*
X055683Y021990D02*
X053773Y021990D01*
X053773Y021891D02*
X055742Y021891D01*
X055763Y021793D02*
X053773Y021793D01*
X053773Y021694D02*
X055763Y021694D01*
X055763Y021596D02*
X053773Y021596D01*
X053716Y021497D02*
X055763Y021497D01*
X055763Y021398D02*
X050953Y021398D01*
X050854Y021300D02*
X055763Y021300D01*
X055763Y021201D02*
X050756Y021201D01*
X050657Y021103D02*
X055763Y021103D01*
X055226Y021004D02*
X050559Y021004D01*
X050460Y020906D02*
X055127Y020906D01*
X055029Y020807D02*
X050362Y020807D01*
X050263Y020709D02*
X054930Y020709D01*
X054832Y020610D02*
X050164Y020610D01*
X050133Y020512D02*
X054733Y020512D01*
X054635Y020413D02*
X050253Y020413D01*
X050392Y020314D02*
X054536Y020314D01*
X054438Y020216D02*
X050532Y020216D01*
X049813Y020442D02*
X049713Y020442D01*
X051051Y021497D02*
X052031Y021497D01*
X051973Y021596D02*
X051150Y021596D01*
X051248Y021694D02*
X051973Y021694D01*
X051973Y021793D02*
X051347Y021793D01*
X051446Y021891D02*
X051973Y021891D01*
X051973Y021990D02*
X051544Y021990D01*
X051643Y022088D02*
X051973Y022088D01*
X051973Y022187D02*
X051741Y022187D01*
X051840Y022285D02*
X051973Y022285D01*
X051973Y022384D02*
X051938Y022384D01*
X052135Y022581D02*
X055763Y022581D01*
X055763Y022680D02*
X052234Y022680D01*
X052332Y022778D02*
X055763Y022778D01*
X055763Y022877D02*
X052431Y022877D01*
X052530Y022975D02*
X055763Y022975D01*
X055763Y023074D02*
X052628Y023074D01*
X052727Y023172D02*
X055763Y023172D01*
X055763Y023271D02*
X052825Y023271D01*
X052924Y023369D02*
X055676Y023369D01*
X055577Y023468D02*
X053022Y023468D01*
X053121Y023566D02*
X055478Y023566D01*
X055732Y022482D02*
X053760Y022482D01*
X056743Y021562D02*
X056743Y021022D01*
X058353Y019412D01*
X058353Y018212D01*
X060253Y017312D02*
X058453Y015512D01*
X059453Y015852D02*
X059453Y015912D01*
X059543Y015912D01*
X060753Y015512D02*
X060753Y017312D01*
X062543Y015912D02*
X062553Y015912D01*
X063353Y015112D01*
X063353Y014212D01*
X063853Y013712D01*
X064953Y015012D02*
X065353Y014612D01*
X065353Y011212D01*
X064853Y010712D01*
X064353Y011212D02*
X064353Y008312D01*
X063453Y008312D01*
X063373Y007632D02*
X058513Y002772D01*
X059103Y002762D02*
X059943Y003602D01*
X060343Y003602D01*
X062953Y006212D01*
X064853Y006212D01*
X063693Y007632D02*
X063373Y007632D01*
X055193Y010242D02*
X054823Y010612D01*
X054353Y010612D01*
X053803Y010042D02*
X053733Y009972D01*
X053713Y009992D01*
X051753Y009212D02*
X051753Y014102D01*
X051733Y014122D01*
X048293Y014912D02*
X048293Y010362D01*
X048303Y010352D01*
X050663Y009392D02*
X050663Y012102D01*
X050653Y012232D01*
X049253Y012112D02*
X048953Y011812D01*
X044053Y009532D02*
X042393Y011192D01*
X039393Y011192D02*
X039353Y011152D01*
X039353Y007612D01*
X039053Y007312D01*
X039031Y007251D01*
X035353Y006512D02*
X034853Y006012D01*
X034853Y005962D01*
X035353Y006512D02*
X035353Y011012D01*
X034953Y011412D01*
X034897Y011464D01*
X034953Y011512D01*
X034897Y011464D02*
X034853Y011412D01*
X034853Y011012D01*
X033753Y011012D01*
X033553Y011212D01*
X033553Y011712D01*
X033753Y011912D01*
X033753Y016812D01*
X033853Y016912D01*
X033853Y016962D01*
X034353Y017512D02*
X034353Y019412D01*
X033953Y019812D01*
X033853Y019962D01*
X033853Y019912D01*
X033953Y019812D01*
X032053Y017912D01*
X032053Y013912D01*
X033353Y014312D02*
X033353Y014612D01*
X032853Y015112D01*
X032803Y015112D01*
X034703Y015112D02*
X034753Y015112D01*
X034853Y015212D01*
X034853Y016962D01*
X034853Y017012D01*
X034353Y017512D01*
X036153Y016112D02*
X039653Y019612D01*
X039853Y020172D02*
X040263Y019762D01*
X040263Y017742D01*
X040963Y017042D01*
X041783Y017042D01*
X042023Y016802D01*
X044973Y017392D02*
X045203Y017392D01*
X047053Y015572D01*
X047053Y015612D01*
X047053Y015572D02*
X047053Y008712D01*
X046853Y008712D01*
X047053Y008712D02*
X047053Y007512D01*
X043553Y004012D01*
X043823Y003132D02*
X043753Y003112D01*
X042053Y003112D01*
X040853Y001912D01*
X038353Y001912D01*
X037453Y003412D02*
X034653Y003412D01*
X034353Y003712D01*
X044542Y007251D02*
X044643Y007352D01*
X044643Y008952D01*
X044053Y008512D02*
X044053Y009532D01*
X044583Y007292D02*
X044542Y007251D01*
X050553Y008012D02*
X051753Y009212D01*
X051353Y007212D02*
X051353Y006012D01*
X050103Y004762D01*
X051453Y004012D02*
X051673Y004012D01*
X052773Y002912D01*
X052773Y002332D01*
X053753Y001352D01*
X053753Y000932D01*
X054013Y000672D01*
X057693Y000672D01*
X059103Y002082D01*
X059103Y002762D01*
X059903Y003602D02*
X059943Y003602D01*
X054903Y002942D02*
X054853Y003012D01*
X054853Y003312D01*
X054153Y004012D01*
X051953Y002912D02*
X051903Y002942D01*
X051953Y002912D02*
X051953Y002412D01*
X052953Y001412D01*
X053003Y001322D01*
X053353Y002412D02*
X054353Y001412D01*
X054363Y001322D01*
X053353Y002412D02*
X053353Y006812D01*
X053303Y006832D01*
X053353Y006912D01*
X034853Y012012D02*
X034853Y013112D01*
X034793Y013112D01*
X034053Y011612D02*
X033953Y011512D01*
X033913Y011464D01*
X050353Y017407D02*
X050353Y017412D01*
X052073Y017467D02*
X052153Y017512D01*
X052553Y017512D01*
X052553Y017612D01*
X053543Y017437D02*
X053553Y017412D01*
X054913Y018642D02*
X055313Y018242D01*
X054913Y018642D02*
X054913Y020122D01*
X053348Y020019D02*
X053278Y020019D01*
X052448Y020019D02*
X052378Y020019D01*
X044903Y021172D02*
X044853Y021122D01*
X044853Y018512D01*
X044553Y018212D01*
X040453Y018212D01*
X040453Y021612D01*
X039553Y022512D01*
X039513Y022512D01*
X038513Y022512D02*
X038453Y022512D01*
X038453Y022112D01*
X036553Y020212D01*
X036463Y020172D01*
X036823Y021122D02*
X037453Y021752D01*
X037453Y022512D01*
X037513Y022512D01*
X042053Y021212D02*
X043353Y022512D01*
X043513Y022512D01*
X044513Y022512D02*
X044553Y022512D01*
X042553Y021212D02*
X042553Y020512D01*
X041253Y019212D01*
X039853Y020172D02*
X039463Y020172D01*
X042553Y020512D02*
X044453Y018612D01*
X063863Y015072D02*
X063953Y015112D01*
X064353Y015512D01*
X064863Y015072D02*
X064953Y015012D01*
X007923Y015152D02*
X007923Y006712D01*
X005163Y006572D02*
X005093Y006682D01*
X005093Y010662D01*
X004593Y011162D01*
X004593Y008162D02*
X004653Y008102D01*
X004653Y004132D01*
X004193Y003652D01*
X004163Y003572D01*
X003753Y002852D02*
X003393Y003212D01*
X003393Y004122D01*
X003823Y004552D01*
X004093Y004552D01*
X004163Y004572D01*
X003323Y005722D02*
X002293Y004692D01*
X003323Y005722D02*
X003323Y006192D01*
X003703Y006572D01*
X003703Y007052D01*
X002593Y008162D01*
X003703Y006572D02*
X004163Y006572D01*
X006393Y007952D02*
X006393Y004052D01*
X005393Y002902D01*
X005343Y002852D01*
X003753Y002852D01*
X007333Y004542D02*
X007333Y014162D01*
X005973Y015522D01*
X002343Y015522D01*
X002303Y015562D01*
X002373Y016492D02*
X002303Y016562D01*
X002373Y016492D02*
X006583Y016492D01*
X007923Y015152D01*
X006593Y008152D02*
X006393Y007952D01*
D26*
X033353Y014312D03*
X036153Y016112D03*
X044453Y018612D03*
X041253Y019212D03*
X039653Y019612D03*
X042053Y021212D03*
X042553Y021212D03*
X046773Y020232D03*
X049563Y020912D03*
X054913Y020122D03*
X058753Y019712D03*
X058753Y018882D03*
X058353Y018212D03*
X060253Y017312D03*
X060753Y017312D03*
X061253Y018712D03*
X055313Y018242D03*
X054353Y017212D03*
X052553Y017612D03*
X050953Y017812D03*
X053953Y016512D03*
X058453Y015512D03*
X058853Y013612D03*
X056603Y013002D03*
X053373Y012652D03*
X050153Y013112D03*
X049253Y012112D03*
X049753Y011212D03*
X049353Y010912D03*
X046653Y010612D03*
X046153Y011012D03*
X044453Y012012D03*
X044853Y013412D03*
X045953Y013912D03*
X048953Y015912D03*
X047253Y016312D03*
X044973Y017392D03*
X051733Y014122D03*
X054353Y010612D03*
X058853Y010612D03*
X062753Y010912D03*
X061453Y013212D03*
X049753Y008412D03*
X050553Y008012D03*
X051353Y007212D03*
X052853Y007312D03*
X052753Y008092D03*
X048953Y007612D03*
X046853Y008712D03*
X044053Y008512D03*
X042253Y006012D03*
X038353Y005812D03*
X037453Y005312D03*
X038353Y003012D03*
X039453Y002312D03*
X043553Y004012D03*
X044053Y004012D03*
X046753Y004412D03*
X048023Y005002D03*
X047153Y005312D03*
X050103Y004762D03*
X051453Y004012D03*
X054153Y004012D03*
X055953Y005012D03*
X056953Y005512D03*
X054853Y005412D03*
X056953Y007012D03*
X059753Y007112D03*
X058253Y003312D03*
X034853Y012012D03*
D27*
X025243Y013272D03*
X025353Y016452D03*
X024773Y016542D03*
X029013Y016502D03*
X026793Y019752D03*
X025763Y019752D03*
X024953Y019802D03*
X024953Y020562D03*
X025733Y020562D03*
X026903Y020562D03*
X026463Y021732D03*
X025193Y021942D03*
X036823Y021122D03*
X047483Y019912D03*
X049723Y019032D03*
X048753Y017882D03*
X052813Y018672D03*
X050993Y020492D03*
X050993Y020972D03*
X052343Y020952D03*
X053713Y020952D03*
X054573Y020972D03*
X054573Y021472D03*
X054573Y021992D03*
X054573Y022542D03*
X042023Y016802D03*
X048293Y014912D03*
X053713Y013832D03*
X054683Y012272D03*
X056673Y012222D03*
X058263Y012482D03*
X058173Y014002D03*
X053733Y011302D03*
X052973Y011022D03*
X053733Y009972D03*
X054713Y009912D03*
X056253Y010052D03*
X057853Y009532D03*
X059333Y009752D03*
X054243Y008202D03*
X050663Y009392D03*
X048303Y010352D03*
X044643Y008952D03*
X050653Y012232D03*
X059093Y007652D03*
X007923Y006712D03*
X007333Y004542D03*
D28*
X015983Y008292D02*
X017393Y009702D01*
X017393Y015862D01*
X016963Y016292D01*
X012983Y016292D01*
X017393Y015862D02*
X017393Y023912D01*
X023293Y022052D02*
X023993Y021352D01*
X023993Y014352D01*
X023393Y014252D02*
X022993Y013852D01*
X023393Y014252D02*
X023393Y018952D01*
X023193Y019152D02*
X022413Y019592D01*
X022413Y020492D01*
X023193Y021052D01*
X033353Y023912D02*
X035703Y021812D01*
X035703Y014282D01*
X034953Y014282D01*
X034053Y013612D01*
X034053Y011612D01*
X034953Y011512D02*
X036753Y013312D01*
X036753Y015752D01*
X037413Y016412D01*
X043153Y016412D01*
X045253Y018512D01*
X045253Y018712D01*
X046773Y020232D01*
X047363Y020442D01*
X049713Y020442D01*
X049813Y020442D02*
X051103Y019532D01*
X051963Y019532D01*
X053853Y019612D02*
X054913Y020122D01*
X049563Y020912D02*
X048713Y021762D01*
X044993Y021762D01*
X044553Y022202D01*
X044553Y022512D01*
X037453Y022512D02*
X036353Y023612D01*
X036353Y023912D01*
X020983Y016292D02*
X020983Y013922D01*
X023173Y011732D01*
X024103Y011732D01*
X025323Y010512D01*
X025323Y009662D01*
X026103Y008882D01*
X026863Y008882D01*
X027483Y009502D01*
X027483Y010362D01*
X028103Y010982D01*
X028373Y010982D01*
X028443Y010912D01*
D29*
X053733Y009972D02*
X053793Y009912D01*
X054713Y009912D01*
X054683Y012272D02*
X056623Y012272D01*
X056673Y012222D01*
X058173Y012572D02*
X058263Y012482D01*
X058173Y012572D02*
X058173Y014002D01*
D30*
X033953Y006812D02*
X033853Y006962D01*
X026893Y001012D02*
X026943Y000952D01*
X006593Y008152D02*
X006593Y008162D01*
D31*
X031103Y001462D03*
X047853Y001462D03*
X064603Y001462D03*
X064603Y023462D03*
X047853Y023462D03*
X031103Y023462D03*
D32*
X049653Y022462D03*
X060353Y022712D03*
X010143Y020152D03*
X010143Y004152D03*
X049653Y002462D03*
X060353Y002462D03*
M02*
