G75*
G70*
%OFA0B0*%
%FSLAX24Y24*%
%IPPOS*%
%LPD*%
%AMOC8*
5,1,8,0,0,1.08239X$1,22.5*
%
%ADD10R,0.0671X0.0198*%
%ADD11R,0.0198X0.0671*%
%ADD12R,0.0513X0.0513*%
%ADD13R,0.0474X0.0513*%
%ADD14R,0.0966X0.0966*%
%ADD15C,0.0820*%
%ADD16R,0.0870X0.0670*%
%ADD17R,0.0870X0.1580*%
%ADD18R,0.0789X0.0710*%
%ADD19C,0.0595*%
%ADD20R,0.0710X0.0789*%
%ADD21R,0.0218X0.0415*%
%ADD22R,0.0395X0.0218*%
%ADD23R,0.0434X0.0356*%
%ADD24R,0.0316X0.0946*%
%ADD25R,0.0336X0.0316*%
%ADD26R,0.0722X0.0678*%
%ADD27R,0.0671X0.0297*%
%ADD28C,0.0730*%
%ADD29R,0.2840X0.2840*%
%ADD30R,0.1070X0.0670*%
%ADD31R,0.0986X0.0769*%
%ADD32C,0.0680*%
%ADD33R,0.0513X0.0513*%
%ADD34C,0.0476*%
%ADD35C,0.0789*%
%ADD36C,0.1025*%
D10*
X026857Y006326D03*
X026857Y006523D03*
X026857Y006720D03*
X026857Y006917D03*
X026857Y007113D03*
X026857Y007310D03*
X026857Y007507D03*
X026857Y007704D03*
X026857Y007901D03*
X026857Y008098D03*
X026857Y008294D03*
X026857Y008491D03*
X026857Y008688D03*
X026857Y008885D03*
X026857Y009082D03*
X026857Y009279D03*
X031345Y009279D03*
X031345Y009082D03*
X031345Y008885D03*
X031345Y008688D03*
X031345Y008491D03*
X031345Y008294D03*
X031345Y008098D03*
X031345Y007901D03*
X031345Y007704D03*
X031345Y007507D03*
X031345Y007310D03*
X031345Y007113D03*
X031345Y006917D03*
X031345Y006720D03*
X031345Y006523D03*
X031345Y006326D03*
D11*
X030577Y005558D03*
X030380Y005558D03*
X030183Y005558D03*
X029987Y005558D03*
X029790Y005558D03*
X029593Y005558D03*
X029396Y005558D03*
X029199Y005558D03*
X029002Y005558D03*
X028806Y005558D03*
X028609Y005558D03*
X028412Y005558D03*
X028215Y005558D03*
X028018Y005558D03*
X027821Y005558D03*
X027624Y005558D03*
X027624Y010046D03*
X027821Y010046D03*
X028018Y010046D03*
X028215Y010046D03*
X028412Y010046D03*
X028609Y010046D03*
X028806Y010046D03*
X029002Y010046D03*
X029199Y010046D03*
X029396Y010046D03*
X029593Y010046D03*
X029790Y010046D03*
X029987Y010046D03*
X030183Y010046D03*
X030380Y010046D03*
X030577Y010046D03*
D12*
X031601Y010518D03*
X031601Y011187D03*
X029430Y011377D03*
X028761Y011377D03*
X028766Y012202D03*
X029435Y012202D03*
X034316Y012452D03*
X034985Y012452D03*
X032501Y014718D03*
X032501Y015387D03*
X035851Y016318D03*
X035851Y016987D03*
X031651Y018068D03*
X031651Y018737D03*
X031651Y019468D03*
X031651Y020137D03*
X019035Y017552D03*
X018366Y017552D03*
X018316Y016652D03*
X018985Y016652D03*
X018985Y014852D03*
X018316Y014852D03*
X018316Y014002D03*
X018985Y014002D03*
X009535Y017852D03*
X008866Y017852D03*
X014816Y009302D03*
X015485Y009302D03*
X018666Y008252D03*
X019335Y008252D03*
X024701Y008287D03*
X025671Y008287D03*
X025671Y007618D03*
X024701Y007618D03*
X024416Y005052D03*
X025085Y005052D03*
X026651Y004087D03*
X026651Y003418D03*
X025001Y003218D03*
X025001Y003887D03*
X024085Y002002D03*
X023416Y002002D03*
X022585Y002052D03*
X021916Y002052D03*
X020401Y001768D03*
X019151Y001768D03*
X017901Y001768D03*
X016651Y001768D03*
X016651Y002437D03*
X017901Y002437D03*
X019151Y002437D03*
X020401Y002437D03*
X020401Y003118D03*
X019151Y003118D03*
X017901Y003118D03*
X016651Y003118D03*
X016651Y003787D03*
X017901Y003787D03*
X019151Y003787D03*
X020401Y003787D03*
X011701Y004068D03*
X011701Y004737D03*
X011701Y005518D03*
X011701Y006187D03*
X029151Y004337D03*
X030201Y004337D03*
X030201Y003668D03*
X029151Y003668D03*
X037266Y003602D03*
X037935Y003602D03*
X039451Y003187D03*
X039451Y002518D03*
X045716Y004588D03*
X045716Y005257D03*
X040535Y008852D03*
X039866Y008852D03*
X033751Y008287D03*
X032701Y008287D03*
X032701Y007618D03*
X033751Y007618D03*
D13*
X028151Y004337D03*
X028151Y003668D03*
D14*
X035821Y002402D03*
X038380Y002402D03*
X039451Y004223D03*
X039451Y006782D03*
D15*
X002801Y001852D03*
X036101Y006002D03*
X036101Y006002D03*
X036101Y007002D03*
X036101Y007002D03*
X036101Y008002D03*
X036101Y008002D03*
X036101Y009002D03*
X036101Y009002D03*
X036101Y010002D03*
X036101Y010002D03*
X029601Y016502D03*
D16*
X030391Y018212D03*
X030391Y019112D03*
X030391Y020012D03*
X010341Y006062D03*
X010341Y005162D03*
X010341Y004262D03*
D17*
X007861Y005152D03*
X027911Y019102D03*
D18*
X032651Y018604D03*
X032651Y017501D03*
X032651Y019751D03*
X032651Y020854D03*
X013101Y006704D03*
X013101Y005601D03*
X013101Y004454D03*
X013101Y003351D03*
D19*
X013101Y007952D03*
X011101Y007952D03*
X009101Y007952D03*
X007101Y007952D03*
X003001Y009421D03*
X003001Y010209D03*
X003001Y010996D03*
X003001Y011783D03*
X003001Y013571D03*
X003001Y014359D03*
X003001Y015146D03*
X003001Y015933D03*
X007101Y016952D03*
X009101Y016952D03*
X013101Y016952D03*
X002951Y019509D03*
X002951Y020296D03*
X039551Y019946D03*
X039551Y019159D03*
X039901Y015433D03*
X039901Y014646D03*
X039901Y013859D03*
X039901Y013071D03*
X039901Y010996D03*
X039901Y010209D03*
X047265Y010822D03*
X048052Y010822D03*
X048839Y010822D03*
X049627Y010822D03*
X049103Y005750D03*
X047488Y005750D03*
X047488Y004135D03*
X049103Y004135D03*
X034219Y001852D03*
X033432Y001852D03*
X032644Y001852D03*
X031857Y001852D03*
X031070Y001852D03*
X030282Y001852D03*
X027894Y001802D03*
X027107Y001802D03*
D20*
X021952Y012702D03*
X020850Y012702D03*
X028600Y013052D03*
X029702Y013052D03*
D21*
X023743Y004330D03*
X023546Y004330D03*
X023349Y004330D03*
X023152Y004330D03*
X022956Y004330D03*
X022759Y004330D03*
X022759Y002775D03*
X022956Y002775D03*
X023152Y002775D03*
X023349Y002775D03*
X023546Y002775D03*
X023743Y002775D03*
D22*
X024038Y003060D03*
X024038Y003257D03*
X024038Y003454D03*
X024038Y003651D03*
X024038Y003848D03*
X024038Y004044D03*
X022463Y004044D03*
X022463Y003848D03*
X022463Y003651D03*
X022463Y003454D03*
X022463Y003257D03*
X022463Y003060D03*
D23*
X022301Y005196D03*
X022301Y005708D03*
X023301Y005708D03*
X023301Y005196D03*
D24*
X033251Y013529D03*
X033751Y013529D03*
X034251Y013529D03*
X034751Y013529D03*
X034751Y015576D03*
X034251Y015576D03*
X033751Y015576D03*
X033251Y015576D03*
D25*
X035408Y017678D03*
X036294Y018052D03*
X035408Y018426D03*
D26*
X037001Y018706D03*
X037001Y020399D03*
X013401Y020449D03*
X013401Y018756D03*
D27*
X015588Y008252D03*
X015588Y007752D03*
X015588Y007252D03*
X015588Y006752D03*
X017714Y006752D03*
X017714Y007252D03*
X017714Y007752D03*
X017714Y008252D03*
D28*
X006065Y008952D03*
X014136Y015952D03*
D29*
X007201Y019702D03*
D30*
X009921Y018802D03*
X009921Y020602D03*
D31*
X011451Y020602D03*
X011451Y018602D03*
D32*
X017977Y018983D03*
X018764Y018983D03*
X019552Y018983D03*
X020339Y018983D03*
X021126Y018983D03*
X021914Y018983D03*
X022701Y018983D03*
X023489Y018983D03*
X024276Y018983D03*
X025063Y018983D03*
X025063Y010322D03*
X024276Y010322D03*
X023489Y010322D03*
X022701Y010322D03*
X021914Y010322D03*
X021126Y010322D03*
X020339Y010322D03*
X019552Y010322D03*
X018764Y010322D03*
X017977Y010322D03*
D33*
G36*
X015673Y011831D02*
X016052Y012174D01*
X016395Y011795D01*
X016016Y011452D01*
X015673Y011831D01*
G37*
G36*
X016170Y012279D02*
X016549Y012622D01*
X016892Y012243D01*
X016513Y011900D01*
X016170Y012279D01*
G37*
G36*
X015826Y012427D02*
X015447Y012084D01*
X015104Y012463D01*
X015483Y012806D01*
X015826Y012427D01*
G37*
G36*
X016323Y012875D02*
X015944Y012532D01*
X015601Y012911D01*
X015980Y013254D01*
X016323Y012875D01*
G37*
G36*
X015968Y016052D02*
X015589Y016395D01*
X015932Y016774D01*
X016311Y016431D01*
X015968Y016052D01*
G37*
G36*
X015471Y016499D02*
X015092Y016842D01*
X015435Y017221D01*
X015814Y016878D01*
X015471Y016499D01*
G37*
G36*
X016532Y016696D02*
X016153Y017039D01*
X016496Y017418D01*
X016875Y017075D01*
X016532Y016696D01*
G37*
G36*
X016035Y017143D02*
X015656Y017486D01*
X015999Y017865D01*
X016378Y017522D01*
X016035Y017143D01*
G37*
D34*
X021126Y015729D03*
X027601Y013852D03*
X028601Y013802D03*
X030451Y012852D03*
X032901Y012202D03*
X032251Y011052D03*
X033751Y010852D03*
X035801Y012752D03*
X035251Y015152D03*
X035001Y016902D03*
X032501Y016802D03*
X027901Y017602D03*
X034501Y020552D03*
X019501Y012652D03*
X017001Y011552D03*
X016751Y010102D03*
X016351Y009452D03*
X015001Y008602D03*
X019301Y007052D03*
X018801Y006502D03*
X017701Y006252D03*
X015001Y006302D03*
X020051Y008252D03*
X022101Y008252D03*
X023901Y008252D03*
X024151Y007502D03*
X023301Y007502D03*
X022601Y007502D03*
X022551Y006202D03*
X021701Y006152D03*
X023201Y006202D03*
X023851Y006002D03*
X025601Y004902D03*
X026601Y004952D03*
X027251Y004652D03*
X027501Y003952D03*
X029201Y003102D03*
X025451Y002552D03*
X024551Y002552D03*
X024551Y001802D03*
X021801Y002602D03*
X021701Y004152D03*
X027601Y007052D03*
X028201Y007152D03*
X028801Y007152D03*
X027601Y007852D03*
X028201Y008002D03*
X028801Y008002D03*
X028551Y009252D03*
X027901Y009052D03*
X026501Y010302D03*
X027051Y010652D03*
X026501Y011752D03*
X023101Y011352D03*
X033201Y006802D03*
X034451Y007652D03*
X032001Y005352D03*
X030201Y004902D03*
X033001Y004452D03*
X033701Y004152D03*
X034801Y003652D03*
X037351Y004402D03*
X034251Y005152D03*
X008051Y017452D03*
D35*
X014001Y005552D03*
X013951Y003252D03*
D36*
X033651Y019102D03*
M02*
