G75*
G70*
%OFA0B0*%
%FSLAX24Y24*%
%IPPOS*%
%LPD*%
%AMOC8*
5,1,8,0,0,1.08239X$1,22.5*
%
%ADD10R,0.0886X0.0886*%
%ADD11C,0.0740*%
%ADD12C,0.0515*%
%ADD13C,0.0650*%
%ADD14C,0.0600*%
%ADD15C,0.0396*%
%ADD16C,0.0200*%
%ADD17C,0.0400*%
%ADD18C,0.0300*%
%ADD19C,0.0100*%
%ADD20C,0.0709*%
%ADD21C,0.0945*%
D10*
X035821Y002402D03*
X038380Y002402D03*
X039451Y004223D03*
X039451Y006782D03*
D11*
X036101Y007002D03*
X036101Y007002D03*
X036101Y006002D03*
X036101Y006002D03*
X036101Y008002D03*
X036101Y008002D03*
X036101Y009002D03*
X036101Y009002D03*
X036101Y010002D03*
X036101Y010002D03*
X029601Y016502D03*
X002801Y001852D03*
D12*
X007101Y007952D03*
X009101Y007952D03*
X011101Y007952D03*
X013101Y007952D03*
X003001Y009421D03*
X003001Y010209D03*
X003001Y010996D03*
X003001Y011783D03*
X003001Y013571D03*
X003001Y014359D03*
X003001Y015146D03*
X003001Y015933D03*
X007101Y016952D03*
X009101Y016952D03*
X013101Y016952D03*
X002951Y019509D03*
X002951Y020296D03*
X039551Y019946D03*
X039551Y019159D03*
X039901Y015433D03*
X039901Y014646D03*
X039901Y013859D03*
X039901Y013071D03*
X039901Y010996D03*
X039901Y010209D03*
X047265Y010822D03*
X048052Y010822D03*
X048839Y010822D03*
X049627Y010822D03*
X049103Y005750D03*
X047488Y005750D03*
X047488Y004135D03*
X049103Y004135D03*
X034219Y001852D03*
X033432Y001852D03*
X032644Y001852D03*
X031857Y001852D03*
X031070Y001852D03*
X030282Y001852D03*
X027894Y001802D03*
X027107Y001802D03*
D13*
X006065Y008952D03*
X014136Y015952D03*
D14*
X017977Y018983D03*
X018764Y018983D03*
X019552Y018983D03*
X020339Y018983D03*
X021126Y018983D03*
X021914Y018983D03*
X022701Y018983D03*
X023489Y018983D03*
X024276Y018983D03*
X025063Y018983D03*
X025063Y010322D03*
X024276Y010322D03*
X023489Y010322D03*
X022701Y010322D03*
X021914Y010322D03*
X021126Y010322D03*
X020339Y010322D03*
X019552Y010322D03*
X018764Y010322D03*
X017977Y010322D03*
D15*
X016751Y010102D03*
X016351Y009452D03*
X015001Y008602D03*
X019301Y007052D03*
X018801Y006502D03*
X017701Y006252D03*
X015001Y006302D03*
X020051Y008252D03*
X022101Y008252D03*
X023901Y008252D03*
X024151Y007502D03*
X023301Y007502D03*
X022601Y007502D03*
X022551Y006202D03*
X021701Y006152D03*
X023201Y006202D03*
X023851Y006002D03*
X025601Y004902D03*
X026601Y004952D03*
X027251Y004652D03*
X027501Y003952D03*
X029201Y003102D03*
X025451Y002552D03*
X024551Y002552D03*
X024551Y001802D03*
X021801Y002602D03*
X021701Y004152D03*
X027601Y007052D03*
X028201Y007152D03*
X028801Y007152D03*
X027601Y007852D03*
X028201Y008002D03*
X028801Y008002D03*
X028551Y009252D03*
X027901Y009052D03*
X026501Y010302D03*
X027051Y010652D03*
X026501Y011752D03*
X023101Y011352D03*
X019501Y012652D03*
X017001Y011552D03*
X021126Y015729D03*
X027601Y013852D03*
X028601Y013802D03*
X030451Y012852D03*
X032901Y012202D03*
X032251Y011052D03*
X033751Y010852D03*
X035801Y012752D03*
X035251Y015152D03*
X035001Y016902D03*
X032501Y016802D03*
X027901Y017602D03*
X034501Y020552D03*
X008051Y017452D03*
X033201Y006802D03*
X034451Y007652D03*
X032001Y005352D03*
X030201Y004902D03*
X033001Y004452D03*
X033701Y004152D03*
X034801Y003652D03*
X037351Y004402D03*
X034251Y005152D03*
D16*
X037351Y004403D02*
X037370Y004402D01*
X037388Y004397D01*
X037406Y004390D01*
X037422Y004380D01*
X037437Y004368D01*
X037436Y004367D02*
X037451Y004352D01*
X034587Y007689D02*
X034601Y007702D01*
X034499Y007652D02*
X034451Y007652D01*
X034499Y007652D02*
X034519Y007654D01*
X034538Y007658D01*
X034556Y007666D01*
X034572Y007676D01*
X034587Y007689D01*
X032387Y011089D02*
X032401Y011102D01*
X032299Y011052D02*
X032251Y011052D01*
X032299Y011052D02*
X032319Y011054D01*
X032338Y011058D01*
X032356Y011066D01*
X032372Y011076D01*
X032387Y011089D01*
X030415Y012767D02*
X030401Y012752D01*
X030416Y012766D02*
X030428Y012781D01*
X030438Y012797D01*
X030445Y012815D01*
X030450Y012833D01*
X030451Y012852D01*
X035801Y012752D02*
X035901Y012652D01*
X024151Y007502D02*
X024151Y007452D01*
X023851Y006002D02*
X023851Y005806D01*
X023778Y005629D02*
X023574Y005426D01*
X023397Y005352D02*
X022054Y005352D01*
X021878Y005426D02*
X021774Y005529D01*
X021701Y005706D02*
X021701Y006152D01*
X021701Y005706D02*
X021703Y005678D01*
X021707Y005650D01*
X021715Y005623D01*
X021726Y005598D01*
X021739Y005573D01*
X021756Y005550D01*
X021774Y005529D01*
X021877Y005425D02*
X021898Y005407D01*
X021921Y005390D01*
X021946Y005377D01*
X021971Y005366D01*
X021998Y005358D01*
X022026Y005354D01*
X022054Y005352D01*
X023397Y005352D02*
X023425Y005354D01*
X023453Y005358D01*
X023480Y005366D01*
X023505Y005377D01*
X023530Y005390D01*
X023553Y005407D01*
X023574Y005425D01*
X023778Y005629D02*
X023796Y005650D01*
X023813Y005673D01*
X023826Y005698D01*
X023837Y005723D01*
X023845Y005750D01*
X023849Y005778D01*
X023851Y005806D01*
X025601Y004902D02*
X025601Y004702D01*
X027501Y004002D02*
X027501Y003952D01*
X024601Y002052D02*
X024586Y002038D01*
X024587Y002037D02*
X024572Y002010D01*
X024560Y001982D01*
X024551Y001953D01*
X024545Y001923D01*
X024542Y001893D01*
X024542Y001862D01*
X024545Y001832D01*
X024551Y001802D01*
X021801Y002602D02*
X021801Y002752D01*
X018001Y006152D02*
X017937Y006216D01*
X017849Y006252D02*
X017701Y006252D01*
X017849Y006252D02*
X017869Y006250D01*
X017888Y006246D01*
X017906Y006238D01*
X017922Y006228D01*
X017937Y006215D01*
X015001Y006302D02*
X015001Y008602D01*
X020051Y008302D02*
X020051Y008252D01*
X021914Y010322D02*
X019620Y012616D01*
X019531Y012652D02*
X019501Y012652D01*
X019531Y012652D02*
X019551Y012650D01*
X019570Y012646D01*
X019588Y012638D01*
X019604Y012628D01*
X019619Y012615D01*
X017101Y011603D02*
X017082Y011602D01*
X017064Y011597D01*
X017046Y011590D01*
X017030Y011580D01*
X017015Y011568D01*
X017015Y011567D02*
X017001Y011552D01*
X008051Y017452D02*
X007937Y017566D01*
X007849Y017602D02*
X007801Y017602D01*
X007849Y017602D02*
X007869Y017600D01*
X007888Y017596D01*
X007906Y017588D01*
X007922Y017578D01*
X007937Y017565D01*
X048839Y010822D02*
X049103Y010559D01*
X049103Y005750D01*
D17*
X033751Y010852D02*
X033751Y011249D01*
X033678Y011426D02*
X032901Y012202D01*
X033678Y011426D02*
X033696Y011405D01*
X033713Y011382D01*
X033726Y011357D01*
X033737Y011332D01*
X033745Y011305D01*
X033749Y011277D01*
X033751Y011249D01*
X028601Y013802D02*
X027721Y013802D01*
X027699Y013803D01*
X027677Y013808D01*
X027656Y013815D01*
X027635Y013825D01*
X027617Y013837D01*
X027600Y013852D01*
X026501Y011752D02*
X025924Y011176D01*
X025851Y010999D02*
X025851Y008502D01*
X025849Y008472D01*
X025844Y008442D01*
X025835Y008413D01*
X025822Y008386D01*
X025807Y008360D01*
X025788Y008336D01*
X025767Y008315D01*
X025743Y008296D01*
X025717Y008281D01*
X025690Y008268D01*
X025661Y008259D01*
X025631Y008254D01*
X025601Y008252D01*
X023901Y008252D01*
X022101Y008252D01*
X025851Y010999D02*
X025853Y011027D01*
X025857Y011055D01*
X025865Y011082D01*
X025876Y011107D01*
X025889Y011132D01*
X025906Y011155D01*
X025924Y011176D01*
D18*
X026049Y011352D02*
X023101Y011352D01*
X026049Y011352D02*
X026069Y011354D01*
X026088Y011358D01*
X026106Y011366D01*
X026122Y011376D01*
X026137Y011389D01*
X026501Y011752D01*
X032501Y016802D02*
X032501Y017352D01*
X032503Y017378D01*
X032508Y017404D01*
X032516Y017429D01*
X032528Y017452D01*
X032542Y017474D01*
X032560Y017493D01*
X032579Y017511D01*
X032601Y017525D01*
X032624Y017537D01*
X032649Y017545D01*
X032675Y017550D01*
X032701Y017552D01*
X034501Y017552D01*
X034545Y017554D01*
X034588Y017560D01*
X034630Y017569D01*
X034672Y017582D01*
X034712Y017599D01*
X034751Y017619D01*
X034788Y017642D01*
X034822Y017669D01*
X034855Y017698D01*
X034884Y017731D01*
X034911Y017765D01*
X034934Y017802D01*
X034954Y017841D01*
X034971Y017881D01*
X034984Y017923D01*
X034993Y017965D01*
X034999Y018008D01*
X035001Y018052D01*
X035001Y020052D01*
X034999Y020096D01*
X034993Y020139D01*
X034984Y020181D01*
X034971Y020223D01*
X034954Y020263D01*
X034934Y020302D01*
X034911Y020339D01*
X034884Y020373D01*
X034855Y020406D01*
X034822Y020435D01*
X034788Y020462D01*
X034751Y020485D01*
X034712Y020505D01*
X034672Y020522D01*
X034630Y020535D01*
X034588Y020544D01*
X034545Y020550D01*
X034501Y020552D01*
D19*
X001806Y000854D02*
X001820Y000807D01*
X001843Y000763D01*
X001852Y000752D01*
X040999Y000752D01*
X041009Y000763D01*
X041032Y000807D01*
X041046Y000854D01*
X041051Y000902D01*
X041051Y013902D01*
X041046Y013951D01*
X041032Y013998D01*
X041009Y014041D01*
X040978Y014079D01*
X040940Y014110D01*
X040896Y014133D01*
X040850Y014148D01*
X040801Y014152D01*
X040155Y014152D01*
X040229Y014078D01*
X040120Y014187D01*
X039978Y014246D01*
X039824Y014246D01*
X039681Y014187D01*
X039572Y014078D01*
X039513Y013936D01*
X039513Y013782D01*
X039572Y013639D01*
X039681Y013530D01*
X039824Y013471D01*
X039978Y013471D01*
X040120Y013530D01*
X040229Y013639D01*
X040288Y013782D01*
X040288Y013936D01*
X040229Y014078D01*
X040288Y013936D01*
X040288Y013782D01*
X040229Y013639D01*
X040120Y013530D01*
X039978Y013471D01*
X039824Y013471D01*
X039681Y013530D01*
X039572Y013639D01*
X039513Y013782D01*
X039513Y013936D01*
X039572Y014078D01*
X039647Y014152D01*
X027739Y014152D01*
X027787Y014132D01*
X028666Y014132D01*
X028788Y014082D01*
X028881Y013989D01*
X028931Y013868D01*
X028931Y013737D01*
X028881Y013615D01*
X028788Y013523D01*
X028666Y013472D01*
X027656Y013472D01*
X027622Y013472D01*
X027622Y013472D01*
X027438Y013549D01*
X027438Y013549D01*
X027367Y013619D01*
X027321Y013665D01*
X027271Y013787D01*
X027271Y013918D01*
X027321Y014039D01*
X027414Y014132D01*
X027463Y014152D01*
X026401Y014152D01*
X026352Y014157D01*
X026305Y014171D01*
X026262Y014194D01*
X026224Y014226D01*
X026193Y014263D01*
X026170Y014307D01*
X026156Y014354D01*
X026151Y014402D01*
X026151Y019102D01*
X026146Y019151D01*
X026132Y019198D01*
X026109Y019241D01*
X026078Y019279D01*
X026040Y019310D01*
X025996Y019333D01*
X025950Y019348D01*
X025901Y019352D01*
X025295Y019352D01*
X025307Y019348D01*
X025428Y019227D01*
X025493Y019069D01*
X025493Y018898D01*
X025428Y018739D01*
X025307Y018619D01*
X025149Y018553D01*
X024978Y018553D01*
X024820Y018619D01*
X024699Y018739D01*
X024670Y018810D01*
X024640Y018739D01*
X024520Y018619D01*
X024361Y018553D01*
X024190Y018553D01*
X024032Y018619D01*
X023911Y018739D01*
X023882Y018810D01*
X023853Y018739D01*
X023732Y018619D01*
X023574Y018553D01*
X023403Y018553D01*
X023245Y018619D01*
X023124Y018739D01*
X023095Y018810D01*
X023066Y018739D01*
X022945Y018619D01*
X022787Y018553D01*
X022616Y018553D01*
X022458Y018619D01*
X022337Y018739D01*
X022307Y018810D01*
X022278Y018739D01*
X022157Y018619D01*
X021999Y018553D01*
X021828Y018553D01*
X021670Y018619D01*
X021549Y018739D01*
X021520Y018810D01*
X021491Y018739D01*
X021370Y018619D01*
X021306Y018592D01*
X021306Y016009D01*
X021312Y016007D01*
X021404Y015914D01*
X021454Y015794D01*
X021454Y015663D01*
X021404Y015543D01*
X021312Y015450D01*
X021192Y015400D01*
X021061Y015400D01*
X020941Y015450D01*
X020848Y015543D01*
X020798Y015663D01*
X020798Y015794D01*
X020848Y015914D01*
X020941Y016007D01*
X020946Y016009D01*
X020946Y018592D01*
X020883Y018619D01*
X020762Y018739D01*
X020733Y018810D01*
X020703Y018739D01*
X020583Y018619D01*
X020424Y018553D01*
X020253Y018553D01*
X020095Y018619D01*
X019974Y018739D01*
X019945Y018810D01*
X019916Y018739D01*
X019795Y018619D01*
X019637Y018553D01*
X019466Y018553D01*
X019308Y018619D01*
X019187Y018739D01*
X019158Y018810D01*
X019129Y018739D01*
X019008Y018619D01*
X018850Y018553D01*
X018679Y018553D01*
X018521Y018619D01*
X018400Y018739D01*
X018370Y018810D01*
X018341Y018739D01*
X018220Y018619D01*
X018062Y018553D01*
X017891Y018553D01*
X017733Y018619D01*
X017612Y018739D01*
X017547Y018898D01*
X017547Y019069D01*
X017612Y019227D01*
X017733Y019348D01*
X017745Y019352D01*
X016704Y019352D01*
X016656Y019348D01*
X016609Y019333D01*
X016565Y019310D01*
X016528Y019279D01*
X013224Y015976D01*
X013186Y015944D01*
X013143Y015921D01*
X013096Y015907D01*
X013047Y015902D01*
X003388Y015902D01*
X003388Y015856D01*
X003329Y015714D01*
X003220Y015605D01*
X003078Y015546D01*
X002924Y015546D01*
X002781Y015605D01*
X002672Y015714D01*
X002613Y015856D01*
X002613Y015902D01*
X002051Y015902D01*
X002002Y015898D01*
X001955Y015883D01*
X001912Y015860D01*
X001874Y015829D01*
X001843Y015791D01*
X001820Y015748D01*
X001806Y015701D01*
X001801Y015652D01*
X001801Y000902D01*
X001806Y000854D01*
X001802Y000894D02*
X018721Y000894D01*
X018703Y000904D02*
X018844Y000822D01*
X018851Y000822D01*
X026401Y000822D01*
X026416Y000822D01*
X026550Y000822D01*
X026557Y000822D01*
X026557Y000822D01*
X026699Y000904D01*
X026699Y000904D01*
X026699Y000904D01*
X026781Y001046D01*
X026781Y001053D01*
X026781Y001581D01*
X026888Y001474D01*
X027030Y001415D01*
X027184Y001415D01*
X027327Y001474D01*
X027436Y001583D01*
X027495Y001725D01*
X027495Y001879D01*
X027507Y001879D01*
X027507Y001725D01*
X027566Y001583D01*
X027675Y001474D01*
X027817Y001415D01*
X027972Y001415D01*
X028114Y001474D01*
X028223Y001583D01*
X028282Y001725D01*
X028282Y001879D01*
X029895Y001879D01*
X029895Y001929D02*
X029895Y001775D01*
X029954Y001633D01*
X030063Y001524D01*
X030205Y001465D01*
X030359Y001465D01*
X030502Y001524D01*
X030611Y001633D01*
X030670Y001775D01*
X030670Y001929D01*
X030611Y002072D01*
X030502Y002181D01*
X030359Y002240D01*
X030205Y002240D01*
X030063Y002181D01*
X029954Y002072D01*
X029895Y001929D01*
X029915Y001978D02*
X028241Y001978D01*
X028223Y002022D02*
X028282Y001879D01*
X028282Y001781D02*
X029895Y001781D01*
X029933Y001682D02*
X028264Y001682D01*
X028223Y001583D02*
X030003Y001583D01*
X030157Y001485D02*
X028125Y001485D01*
X027664Y001485D02*
X027338Y001485D01*
X027436Y001583D02*
X027566Y001583D01*
X027525Y001682D02*
X027477Y001682D01*
X027495Y001781D02*
X027507Y001781D01*
X027507Y001879D02*
X027566Y002022D01*
X027675Y002131D01*
X027817Y002190D01*
X027972Y002190D01*
X028114Y002131D01*
X028223Y002022D01*
X028169Y002076D02*
X029958Y002076D01*
X030057Y002175D02*
X028008Y002175D01*
X027781Y002175D02*
X027221Y002175D01*
X027184Y002190D02*
X027030Y002190D01*
X026888Y002131D01*
X026781Y002024D01*
X026781Y003928D01*
X026817Y003964D01*
X026817Y003964D01*
X027180Y004327D01*
X027185Y004324D01*
X027316Y004324D01*
X027437Y004374D01*
X027529Y004466D01*
X027579Y004587D01*
X027579Y004718D01*
X027529Y004838D01*
X027437Y004930D01*
X027316Y004980D01*
X027185Y004980D01*
X027065Y004930D01*
X026973Y004838D01*
X026923Y004718D01*
X026923Y004587D01*
X026925Y004581D01*
X026563Y004219D01*
X026563Y004219D01*
X026510Y004166D01*
X026496Y004152D01*
X026481Y004137D01*
X026481Y004526D01*
X026481Y004578D01*
X026530Y004627D01*
X026535Y004624D01*
X026666Y004624D01*
X026787Y004674D01*
X026879Y004766D01*
X026929Y004887D01*
X026929Y005018D01*
X026879Y005138D01*
X026787Y005230D01*
X026666Y005280D01*
X026535Y005280D01*
X026415Y005230D01*
X026323Y005138D01*
X026273Y005018D01*
X026273Y004887D01*
X026275Y004881D01*
X026157Y004764D01*
X026157Y004750D01*
X026131Y004685D01*
X026121Y004675D01*
X026121Y004601D01*
X026121Y004526D01*
X026121Y001432D01*
X026101Y001432D01*
X019481Y001432D01*
X019481Y001452D01*
X019481Y006772D01*
X019487Y006774D01*
X019579Y006866D01*
X019629Y006987D01*
X019629Y007118D01*
X019579Y007238D01*
X019487Y007330D01*
X019366Y007380D01*
X019235Y007380D01*
X019115Y007330D01*
X019023Y007238D01*
X018973Y007118D01*
X018973Y006987D01*
X019023Y006866D01*
X019115Y006774D01*
X019121Y006772D01*
X019121Y006587D01*
X019079Y006688D01*
X018987Y006780D01*
X018866Y006830D01*
X018735Y006830D01*
X018615Y006780D01*
X018523Y006688D01*
X018473Y006568D01*
X018473Y006437D01*
X018523Y006316D01*
X018615Y006224D01*
X018621Y006222D01*
X018621Y001202D01*
X018621Y001183D01*
X018621Y001053D01*
X018621Y001046D01*
X018621Y001046D01*
X018703Y000904D01*
X018703Y000904D01*
X018703Y000904D01*
X018652Y000992D02*
X001801Y000992D01*
X001801Y001091D02*
X018621Y001091D01*
X018621Y001189D02*
X001801Y001189D01*
X001801Y001288D02*
X018621Y001288D01*
X018621Y001386D02*
X003032Y001386D01*
X003000Y001370D02*
X003073Y001408D01*
X003140Y001456D01*
X003197Y001514D01*
X003246Y001580D01*
X003283Y001653D01*
X003308Y001731D01*
X003319Y001802D01*
X002851Y001802D01*
X002851Y001334D01*
X002923Y001345D01*
X003000Y001370D01*
X002851Y001386D02*
X002751Y001386D01*
X002751Y001334D02*
X002751Y001802D01*
X002851Y001802D01*
X002851Y001902D01*
X003319Y001902D01*
X003308Y001974D01*
X003283Y002052D01*
X003246Y002125D01*
X003197Y002191D01*
X003140Y002249D01*
X003073Y002297D01*
X003000Y002334D01*
X002923Y002360D01*
X002851Y002371D01*
X002851Y001903D01*
X002751Y001903D01*
X002751Y002371D01*
X002679Y002360D01*
X002601Y002334D01*
X002528Y002297D01*
X002462Y002249D01*
X002404Y002191D01*
X002356Y002125D01*
X002319Y002052D01*
X002294Y001974D01*
X002282Y001902D01*
X002751Y001902D01*
X002751Y001802D01*
X002282Y001802D01*
X002294Y001731D01*
X002319Y001653D01*
X002356Y001580D01*
X002404Y001514D01*
X002462Y001456D01*
X002528Y001408D01*
X002601Y001370D01*
X002679Y001345D01*
X002751Y001334D01*
X002751Y001485D02*
X002851Y001485D01*
X002851Y001583D02*
X002751Y001583D01*
X002751Y001682D02*
X002851Y001682D01*
X002851Y001781D02*
X002751Y001781D01*
X002751Y001879D02*
X001801Y001879D01*
X001801Y001781D02*
X002286Y001781D01*
X002309Y001682D02*
X001801Y001682D01*
X001801Y001583D02*
X002354Y001583D01*
X002433Y001485D02*
X001801Y001485D01*
X001801Y001386D02*
X002570Y001386D01*
X003169Y001485D02*
X018621Y001485D01*
X018621Y001583D02*
X003247Y001583D01*
X003292Y001682D02*
X018621Y001682D01*
X018621Y001781D02*
X003316Y001781D01*
X003307Y001978D02*
X018621Y001978D01*
X018621Y002076D02*
X003270Y002076D01*
X003209Y002175D02*
X018621Y002175D01*
X018621Y002273D02*
X003106Y002273D01*
X002851Y002273D02*
X002751Y002273D01*
X002751Y002175D02*
X002851Y002175D01*
X002851Y002076D02*
X002751Y002076D01*
X002751Y001978D02*
X002851Y001978D01*
X002851Y001879D02*
X018621Y001879D01*
X018621Y002372D02*
X001801Y002372D01*
X001801Y002470D02*
X018621Y002470D01*
X018621Y002569D02*
X001801Y002569D01*
X001801Y002667D02*
X018621Y002667D01*
X018621Y002766D02*
X001801Y002766D01*
X001801Y002864D02*
X018621Y002864D01*
X018621Y002963D02*
X001801Y002963D01*
X001801Y003062D02*
X018621Y003062D01*
X018621Y003160D02*
X001801Y003160D01*
X001801Y003259D02*
X018621Y003259D01*
X018621Y003357D02*
X001801Y003357D01*
X001801Y003456D02*
X018621Y003456D01*
X018621Y003554D02*
X001801Y003554D01*
X001801Y003653D02*
X018621Y003653D01*
X018621Y003751D02*
X001801Y003751D01*
X001801Y003850D02*
X018621Y003850D01*
X018621Y003948D02*
X001801Y003948D01*
X001801Y004047D02*
X018621Y004047D01*
X018621Y004146D02*
X001801Y004146D01*
X001801Y004244D02*
X018621Y004244D01*
X018621Y004343D02*
X001801Y004343D01*
X001801Y004441D02*
X018621Y004441D01*
X018621Y004540D02*
X001801Y004540D01*
X001801Y004638D02*
X018621Y004638D01*
X018621Y004737D02*
X001801Y004737D01*
X001801Y004835D02*
X018621Y004835D01*
X018621Y004934D02*
X001801Y004934D01*
X001801Y005032D02*
X018621Y005032D01*
X018621Y005131D02*
X001801Y005131D01*
X001801Y005230D02*
X018621Y005230D01*
X018621Y005328D02*
X001801Y005328D01*
X001801Y005427D02*
X018621Y005427D01*
X018621Y005525D02*
X001801Y005525D01*
X001801Y005624D02*
X018621Y005624D01*
X018621Y005722D02*
X001801Y005722D01*
X001801Y005821D02*
X018621Y005821D01*
X018621Y005919D02*
X001801Y005919D01*
X001801Y006018D02*
X014830Y006018D01*
X014815Y006024D02*
X014935Y005974D01*
X015066Y005974D01*
X015187Y006024D01*
X015279Y006116D01*
X018621Y006116D01*
X018621Y006018D02*
X015171Y006018D01*
X015279Y006116D02*
X015329Y006237D01*
X015329Y006368D01*
X015279Y006488D01*
X015231Y006536D01*
X015231Y008368D01*
X015279Y008416D01*
X015329Y008537D01*
X015329Y008668D01*
X015279Y008788D01*
X015187Y008880D01*
X015066Y008930D01*
X014935Y008930D01*
X014815Y008880D01*
X014723Y008788D01*
X014673Y008668D01*
X014673Y008537D01*
X014723Y008416D01*
X014771Y008368D01*
X014771Y006536D01*
X014723Y006488D01*
X014673Y006368D01*
X014673Y006237D01*
X014723Y006116D01*
X001801Y006116D01*
X001801Y006215D02*
X014682Y006215D01*
X014673Y006314D02*
X001801Y006314D01*
X001801Y006412D02*
X014691Y006412D01*
X014745Y006511D02*
X001801Y006511D01*
X001801Y006609D02*
X014771Y006609D01*
X014771Y006708D02*
X001801Y006708D01*
X001801Y006806D02*
X014771Y006806D01*
X014771Y006905D02*
X001801Y006905D01*
X001801Y007003D02*
X014771Y007003D01*
X014771Y007102D02*
X001801Y007102D01*
X001801Y007200D02*
X014771Y007200D01*
X014771Y007299D02*
X001801Y007299D01*
X001801Y007397D02*
X014771Y007397D01*
X014771Y007496D02*
X001801Y007496D01*
X001801Y007595D02*
X006952Y007595D01*
X006881Y007624D02*
X007024Y007565D01*
X007178Y007565D01*
X007320Y007624D01*
X007429Y007733D01*
X007488Y007875D01*
X007488Y008029D01*
X007429Y008172D01*
X007320Y008281D01*
X007178Y008340D01*
X007024Y008340D01*
X006881Y008281D01*
X006772Y008172D01*
X006713Y008029D01*
X006713Y007875D01*
X006772Y007733D01*
X006881Y007624D01*
X006812Y007693D02*
X001801Y007693D01*
X001801Y007792D02*
X006748Y007792D01*
X006713Y007890D02*
X001801Y007890D01*
X001801Y007989D02*
X006713Y007989D01*
X006737Y008087D02*
X001801Y008087D01*
X001801Y008186D02*
X006786Y008186D01*
X006890Y008284D02*
X001801Y008284D01*
X001801Y008383D02*
X014756Y008383D01*
X014771Y008284D02*
X013312Y008284D01*
X013320Y008281D02*
X013178Y008340D01*
X013024Y008340D01*
X012881Y008281D01*
X012772Y008172D01*
X012713Y008029D01*
X012713Y007875D01*
X012772Y007733D01*
X012881Y007624D01*
X013024Y007565D01*
X013178Y007565D01*
X013320Y007624D01*
X013429Y007733D01*
X013488Y007875D01*
X013488Y008029D01*
X013429Y008172D01*
X013320Y008281D01*
X013415Y008186D02*
X014771Y008186D01*
X014771Y008087D02*
X013464Y008087D01*
X013488Y007989D02*
X014771Y007989D01*
X014771Y007890D02*
X013488Y007890D01*
X013454Y007792D02*
X014771Y007792D01*
X014771Y007693D02*
X013389Y007693D01*
X013249Y007595D02*
X014771Y007595D01*
X015231Y007595D02*
X022284Y007595D01*
X022273Y007568D02*
X022273Y007437D01*
X022323Y007316D01*
X022371Y007268D01*
X022371Y006483D01*
X022365Y006480D01*
X022273Y006388D01*
X022223Y006268D01*
X022223Y006137D01*
X022273Y006016D01*
X022365Y005924D01*
X022485Y005874D01*
X022616Y005874D01*
X022737Y005924D01*
X022829Y006016D01*
X022876Y006130D01*
X022923Y006016D01*
X023015Y005924D01*
X023135Y005874D01*
X023266Y005874D01*
X023387Y005924D01*
X023479Y006016D01*
X023529Y006137D01*
X023529Y006268D01*
X023479Y006388D01*
X023387Y006480D01*
X023381Y006483D01*
X023381Y007180D01*
X023487Y007224D01*
X023579Y007316D01*
X023629Y007437D01*
X023629Y007568D01*
X023579Y007688D01*
X023487Y007780D01*
X023366Y007830D01*
X023235Y007830D01*
X023115Y007780D01*
X023023Y007688D01*
X022973Y007568D01*
X022973Y007437D01*
X023021Y007321D01*
X023021Y007276D01*
X023021Y006483D01*
X023015Y006480D01*
X022923Y006388D01*
X022876Y006275D01*
X022829Y006388D01*
X022737Y006480D01*
X022731Y006483D01*
X022731Y007201D01*
X022787Y007224D01*
X022879Y007316D01*
X022929Y007437D01*
X022929Y007568D01*
X022879Y007688D01*
X022787Y007780D01*
X022666Y007830D01*
X022535Y007830D01*
X022415Y007780D01*
X022323Y007688D01*
X022273Y007568D01*
X022273Y007496D02*
X015231Y007496D01*
X015231Y007397D02*
X022289Y007397D01*
X022340Y007299D02*
X019518Y007299D01*
X019595Y007200D02*
X022371Y007200D01*
X022371Y007102D02*
X019629Y007102D01*
X019629Y007003D02*
X022371Y007003D01*
X022371Y006905D02*
X019595Y006905D01*
X019519Y006806D02*
X022371Y006806D01*
X022371Y006708D02*
X019481Y006708D01*
X019481Y006609D02*
X022371Y006609D01*
X022371Y006511D02*
X019481Y006511D01*
X019481Y006412D02*
X021496Y006412D01*
X021515Y006430D02*
X021423Y006338D01*
X021373Y006218D01*
X021373Y006087D01*
X021423Y005966D01*
X021471Y005918D01*
X021471Y005801D01*
X021471Y005779D01*
X021471Y005611D01*
X021471Y005610D01*
X021544Y005434D01*
X021544Y005434D01*
X021544Y005434D01*
X021544Y005434D01*
X021648Y005330D01*
X021660Y005318D01*
X021782Y005196D01*
X021782Y005195D01*
X021959Y005122D01*
X023302Y005122D01*
X023317Y005122D01*
X023492Y005122D01*
X023493Y005122D01*
X023493Y005122D01*
X023493Y005122D01*
X023669Y005195D01*
X023669Y005196D01*
X023669Y005196D01*
X023873Y005399D01*
X023940Y005466D01*
X023941Y005467D01*
X024008Y005534D01*
X024081Y005710D01*
X024081Y005710D01*
X024081Y005711D01*
X024081Y005768D01*
X024129Y005816D01*
X024179Y005937D01*
X024179Y006068D01*
X024129Y006188D01*
X024037Y006280D01*
X023916Y006330D01*
X023785Y006330D01*
X023665Y006280D01*
X023573Y006188D01*
X023523Y006068D01*
X023523Y005937D01*
X023573Y005816D01*
X023606Y005783D01*
X023548Y005724D01*
X023411Y005588D01*
X023408Y005586D01*
X023401Y005583D01*
X023397Y005582D01*
X023316Y005582D01*
X023302Y005582D01*
X022054Y005582D01*
X022050Y005583D01*
X022043Y005586D01*
X022040Y005588D01*
X021985Y005643D01*
X021973Y005656D01*
X021937Y005692D01*
X021934Y005695D01*
X021931Y005702D01*
X021931Y005706D01*
X021931Y005779D01*
X021931Y005801D01*
X021931Y005918D01*
X021979Y005966D01*
X022029Y006087D01*
X022029Y006218D01*
X021979Y006338D01*
X021887Y006430D01*
X021766Y006480D01*
X021635Y006480D01*
X021515Y006430D01*
X021412Y006314D02*
X019481Y006314D01*
X019481Y006215D02*
X021373Y006215D01*
X021373Y006116D02*
X019481Y006116D01*
X019481Y006018D02*
X021401Y006018D01*
X021470Y005919D02*
X019481Y005919D01*
X019481Y005821D02*
X021471Y005821D01*
X021471Y005722D02*
X019481Y005722D01*
X019481Y005624D02*
X021471Y005624D01*
X021471Y005611D02*
X021471Y005611D01*
X021471Y005610D02*
X021471Y005610D01*
X021506Y005525D02*
X019481Y005525D01*
X019481Y005427D02*
X021551Y005427D01*
X021650Y005328D02*
X019481Y005328D01*
X019481Y005230D02*
X021748Y005230D01*
X021782Y005196D02*
X021782Y005196D01*
X021782Y005195D02*
X021782Y005195D01*
X021938Y005131D02*
X019481Y005131D01*
X019481Y005032D02*
X026279Y005032D01*
X026273Y004934D02*
X019481Y004934D01*
X019481Y004835D02*
X026229Y004835D01*
X026152Y004737D02*
X019481Y004737D01*
X019481Y004638D02*
X026121Y004638D01*
X026121Y004540D02*
X019481Y004540D01*
X019481Y004441D02*
X026121Y004441D01*
X026121Y004343D02*
X019481Y004343D01*
X019481Y004244D02*
X026121Y004244D01*
X026121Y004146D02*
X019481Y004146D01*
X019481Y004047D02*
X026121Y004047D01*
X026121Y003948D02*
X019481Y003948D01*
X019481Y003850D02*
X026121Y003850D01*
X026121Y003751D02*
X019481Y003751D01*
X019481Y003653D02*
X026121Y003653D01*
X026121Y003554D02*
X019481Y003554D01*
X019481Y003456D02*
X026121Y003456D01*
X026121Y003357D02*
X019481Y003357D01*
X019481Y003259D02*
X026121Y003259D01*
X026121Y003160D02*
X019481Y003160D01*
X019481Y003062D02*
X026121Y003062D01*
X026121Y002963D02*
X019481Y002963D01*
X019481Y002864D02*
X024447Y002864D01*
X024485Y002880D02*
X024365Y002830D01*
X024273Y002738D01*
X024223Y002618D01*
X024223Y002487D01*
X024273Y002366D01*
X024365Y002274D01*
X024485Y002224D01*
X024616Y002224D01*
X024737Y002274D01*
X024829Y002366D01*
X024831Y002372D01*
X025170Y002372D01*
X025173Y002366D01*
X025265Y002274D01*
X025385Y002224D01*
X025516Y002224D01*
X025637Y002274D01*
X025729Y002366D01*
X025779Y002487D01*
X025779Y002618D01*
X025729Y002738D01*
X025637Y002830D01*
X025516Y002880D01*
X025385Y002880D01*
X025265Y002830D01*
X025173Y002738D01*
X025170Y002732D01*
X024831Y002732D01*
X024829Y002738D01*
X024737Y002830D01*
X024616Y002880D01*
X024485Y002880D01*
X024655Y002864D02*
X025347Y002864D01*
X025200Y002766D02*
X024801Y002766D01*
X024551Y002552D02*
X025451Y002552D01*
X025758Y002667D02*
X026121Y002667D01*
X026121Y002569D02*
X025779Y002569D01*
X025772Y002470D02*
X026121Y002470D01*
X026121Y002372D02*
X025731Y002372D01*
X025634Y002273D02*
X026121Y002273D01*
X026121Y002175D02*
X019481Y002175D01*
X019481Y002273D02*
X024367Y002273D01*
X024270Y002372D02*
X019481Y002372D01*
X019481Y002470D02*
X024230Y002470D01*
X024223Y002569D02*
X019481Y002569D01*
X019481Y002667D02*
X024243Y002667D01*
X024300Y002766D02*
X019481Y002766D01*
X019481Y002076D02*
X026121Y002076D01*
X026121Y001978D02*
X019481Y001978D01*
X019481Y001879D02*
X026121Y001879D01*
X026121Y001781D02*
X019481Y001781D01*
X019481Y001682D02*
X026121Y001682D01*
X026121Y001583D02*
X019481Y001583D01*
X019481Y001485D02*
X026121Y001485D01*
X026301Y001377D02*
X026299Y001357D01*
X026295Y001338D01*
X026287Y001320D01*
X026277Y001304D01*
X026264Y001289D01*
X026249Y001276D01*
X026233Y001266D01*
X026215Y001258D01*
X026196Y001254D01*
X026176Y001252D01*
X019426Y001252D01*
X019406Y001254D01*
X019387Y001258D01*
X019369Y001266D01*
X019353Y001276D01*
X019338Y001289D01*
X019325Y001304D01*
X019315Y001320D01*
X019307Y001338D01*
X019303Y001357D01*
X019301Y001377D01*
X019301Y007052D01*
X019083Y006806D02*
X018924Y006806D01*
X019007Y006905D02*
X015231Y006905D01*
X015231Y007003D02*
X018973Y007003D01*
X018973Y007102D02*
X015231Y007102D01*
X015231Y007200D02*
X019007Y007200D01*
X019083Y007299D02*
X015231Y007299D01*
X015231Y007693D02*
X022328Y007693D01*
X022442Y007792D02*
X015231Y007792D01*
X015231Y007890D02*
X027273Y007890D01*
X027273Y007918D02*
X027273Y007787D01*
X027323Y007666D01*
X027415Y007574D01*
X027421Y007572D01*
X027421Y007333D01*
X027415Y007330D01*
X027323Y007238D01*
X027273Y007118D01*
X027273Y006987D01*
X027323Y006866D01*
X027415Y006774D01*
X027535Y006724D01*
X027666Y006724D01*
X027787Y006774D01*
X027879Y006866D01*
X027921Y006969D01*
X027923Y006966D01*
X028015Y006874D01*
X028135Y006824D01*
X028266Y006824D01*
X028387Y006874D01*
X028479Y006966D01*
X028501Y007019D01*
X028523Y006966D01*
X028615Y006874D01*
X028735Y006824D01*
X028866Y006824D01*
X028987Y006874D01*
X029079Y006966D01*
X029129Y007087D01*
X029129Y007218D01*
X029079Y007338D01*
X028987Y007430D01*
X028981Y007433D01*
X028981Y007722D01*
X028987Y007724D01*
X029079Y007816D01*
X029129Y007937D01*
X029129Y008068D01*
X029079Y008188D01*
X028987Y008280D01*
X028866Y008330D01*
X028735Y008330D01*
X028615Y008280D01*
X028523Y008188D01*
X028501Y008135D01*
X028479Y008188D01*
X028387Y008280D01*
X028266Y008330D01*
X028135Y008330D01*
X028015Y008280D01*
X027923Y008188D01*
X027873Y008068D01*
X027873Y008044D01*
X027787Y008130D01*
X027666Y008180D01*
X027535Y008180D01*
X027415Y008130D01*
X027323Y008038D01*
X027273Y007918D01*
X027302Y007989D02*
X025876Y007989D01*
X025929Y008011D02*
X025929Y008011D01*
X026092Y008174D01*
X026181Y008387D01*
X026181Y008437D01*
X026181Y010218D01*
X026223Y010116D01*
X026315Y010024D01*
X026435Y009974D01*
X026566Y009974D01*
X026572Y009977D01*
X027581Y008968D01*
X027623Y008866D01*
X027715Y008774D01*
X027835Y008724D01*
X027966Y008724D01*
X028087Y008774D01*
X028179Y008866D01*
X028229Y008987D01*
X028229Y009118D01*
X028179Y009238D01*
X028087Y009330D01*
X027966Y009380D01*
X027835Y009380D01*
X027724Y009334D01*
X026826Y010231D01*
X026829Y010237D01*
X026829Y010368D01*
X026799Y010441D01*
X026865Y010374D01*
X026985Y010324D01*
X027116Y010324D01*
X027122Y010327D01*
X028223Y009226D01*
X028223Y009187D01*
X028273Y009066D01*
X028365Y008974D01*
X028224Y008974D01*
X028229Y009073D02*
X028270Y009073D01*
X028229Y009171D02*
X028207Y009171D01*
X028179Y009270D02*
X028147Y009270D01*
X028080Y009368D02*
X027995Y009368D01*
X027982Y009467D02*
X027591Y009467D01*
X027689Y009368D02*
X027806Y009368D01*
X027715Y009089D02*
X027730Y009076D01*
X027746Y009066D01*
X027764Y009058D01*
X027783Y009054D01*
X027803Y009052D01*
X027901Y009052D01*
X027714Y009089D02*
X026501Y010302D01*
X026281Y010058D02*
X026181Y010058D01*
X026181Y009960D02*
X026589Y009960D01*
X026688Y009861D02*
X026181Y009861D01*
X026181Y009763D02*
X026786Y009763D01*
X026885Y009664D02*
X026181Y009664D01*
X026181Y009565D02*
X026983Y009565D01*
X027082Y009467D02*
X026181Y009467D01*
X026181Y009368D02*
X027180Y009368D01*
X027279Y009270D02*
X026181Y009270D01*
X026181Y009171D02*
X027377Y009171D01*
X027476Y009073D02*
X026181Y009073D01*
X026181Y008974D02*
X027574Y008974D01*
X027619Y008876D02*
X026181Y008876D01*
X026181Y008777D02*
X027712Y008777D01*
X028089Y008777D02*
X035653Y008777D01*
X035677Y008719D02*
X035818Y008578D01*
X035983Y008510D01*
X035979Y008510D01*
X035901Y008484D01*
X035828Y008447D01*
X035762Y008399D01*
X035704Y008341D01*
X035656Y008275D01*
X035619Y008202D01*
X035594Y008124D01*
X035582Y008052D01*
X036051Y008052D01*
X036051Y007952D01*
X036151Y007952D01*
X036151Y007502D01*
X036051Y007502D01*
X036051Y007952D01*
X035582Y007952D01*
X035594Y007881D01*
X035619Y007803D01*
X035656Y007730D01*
X035704Y007664D01*
X035762Y007606D01*
X035828Y007558D01*
X035901Y007520D01*
X035979Y007495D01*
X035983Y007495D01*
X035818Y007426D01*
X035677Y007286D01*
X035601Y007102D01*
X033335Y007102D01*
X033387Y007080D02*
X033266Y007130D01*
X033135Y007130D01*
X033015Y007080D01*
X032923Y006988D01*
X032873Y006868D01*
X032873Y006737D01*
X031965Y005869D01*
X031963Y005869D01*
X031911Y005817D01*
X031859Y005767D01*
X031859Y005753D01*
X031831Y005685D01*
X031821Y005675D01*
X031821Y005633D01*
X031815Y005630D01*
X031723Y005538D01*
X031673Y005418D01*
X031673Y005287D01*
X031723Y005166D01*
X031815Y005074D01*
X031935Y005024D01*
X032066Y005024D01*
X032187Y005074D01*
X032279Y005166D01*
X032329Y005287D01*
X032329Y005418D01*
X032279Y005538D01*
X032211Y005606D01*
X033123Y006479D01*
X033135Y006474D01*
X033266Y006474D01*
X033387Y006524D01*
X033479Y006616D01*
X033529Y006737D01*
X033529Y006868D01*
X033479Y006988D01*
X033387Y007080D01*
X033464Y007003D02*
X035601Y007003D01*
X035601Y006905D02*
X033514Y006905D01*
X033529Y006806D02*
X035641Y006806D01*
X035677Y006719D02*
X035818Y006578D01*
X036001Y006502D01*
X035818Y006426D01*
X035677Y006286D01*
X035601Y006102D01*
X035601Y005903D01*
X035677Y005719D01*
X035818Y005578D01*
X036001Y005502D01*
X036200Y005502D01*
X036384Y005578D01*
X036525Y005719D01*
X036601Y005903D01*
X036601Y006102D01*
X036525Y006286D01*
X036384Y006426D01*
X036200Y006502D01*
X036384Y006578D01*
X036525Y006719D01*
X036601Y006903D01*
X036601Y007102D01*
X038858Y007102D01*
X038858Y007200D02*
X036560Y007200D01*
X036525Y007286D02*
X036384Y007426D01*
X036219Y007495D01*
X036223Y007495D01*
X036300Y007520D01*
X036373Y007558D01*
X036440Y007606D01*
X036497Y007664D01*
X036546Y007730D01*
X036583Y007803D01*
X036608Y007881D01*
X036619Y007952D01*
X036151Y007952D01*
X036151Y008052D01*
X036619Y008052D01*
X036608Y008124D01*
X036583Y008202D01*
X036546Y008275D01*
X036497Y008341D01*
X036440Y008399D01*
X036373Y008447D01*
X036300Y008484D01*
X036223Y008510D01*
X036219Y008510D01*
X036384Y008578D01*
X036525Y008719D01*
X036601Y008903D01*
X036601Y009102D01*
X036525Y009286D01*
X036384Y009426D01*
X036200Y009502D01*
X036384Y009578D01*
X036525Y009719D01*
X036601Y009903D01*
X036601Y010102D01*
X036525Y010286D01*
X036384Y010426D01*
X036200Y010502D01*
X036001Y010502D01*
X035818Y010426D01*
X035677Y010286D01*
X035601Y010102D01*
X035601Y009903D01*
X035677Y009719D01*
X035818Y009578D01*
X036001Y009502D01*
X035818Y009426D01*
X035677Y009286D01*
X035601Y009102D01*
X035601Y008903D01*
X035677Y008719D01*
X035717Y008679D02*
X026181Y008679D01*
X026181Y008580D02*
X035816Y008580D01*
X035896Y008481D02*
X026181Y008481D01*
X026181Y008437D02*
X026181Y008437D01*
X026181Y008387D02*
X026181Y008387D01*
X026179Y008383D02*
X035746Y008383D01*
X035663Y008284D02*
X028977Y008284D01*
X029080Y008186D02*
X035614Y008186D01*
X035588Y008087D02*
X029121Y008087D01*
X029129Y007989D02*
X036051Y007989D01*
X036051Y008053D02*
X036051Y008502D01*
X036151Y008502D01*
X036151Y008053D01*
X036051Y008053D01*
X036051Y008087D02*
X036151Y008087D01*
X036151Y007989D02*
X041051Y007989D01*
X041051Y008087D02*
X036614Y008087D01*
X036588Y008186D02*
X041051Y008186D01*
X041051Y008284D02*
X036539Y008284D01*
X036456Y008383D02*
X041051Y008383D01*
X041051Y008481D02*
X036306Y008481D01*
X036386Y008580D02*
X041051Y008580D01*
X041051Y008679D02*
X036484Y008679D01*
X036549Y008777D02*
X041051Y008777D01*
X041051Y008876D02*
X036589Y008876D01*
X036601Y008974D02*
X041051Y008974D01*
X041051Y009073D02*
X036601Y009073D01*
X036572Y009171D02*
X041051Y009171D01*
X041051Y009270D02*
X036531Y009270D01*
X036442Y009368D02*
X041051Y009368D01*
X041051Y009467D02*
X036286Y009467D01*
X036200Y009502D02*
X036001Y009502D01*
X036200Y009502D01*
X036352Y009565D02*
X041051Y009565D01*
X041051Y009664D02*
X036469Y009664D01*
X036543Y009763D02*
X041051Y009763D01*
X041051Y009861D02*
X040074Y009861D01*
X040120Y009880D02*
X040229Y009989D01*
X040288Y010132D01*
X040288Y010286D01*
X040229Y010428D01*
X040120Y010537D01*
X039978Y010596D01*
X039996Y010599D01*
X040057Y010618D01*
X040114Y010648D01*
X040166Y010685D01*
X040212Y010731D01*
X040249Y010782D01*
X040278Y010840D01*
X040298Y010901D01*
X040308Y010964D01*
X040308Y010967D01*
X039930Y010967D01*
X039930Y011025D01*
X040308Y011025D01*
X040308Y011028D01*
X040298Y011091D01*
X040278Y011152D01*
X040249Y011210D01*
X040212Y011261D01*
X040166Y011307D01*
X040114Y011345D01*
X040057Y011374D01*
X039996Y011393D01*
X039933Y011404D01*
X039930Y011404D01*
X039930Y011025D01*
X039872Y011025D01*
X039872Y011404D01*
X039869Y011404D01*
X039805Y011393D01*
X039744Y011374D01*
X039687Y011345D01*
X039635Y011307D01*
X039590Y011261D01*
X039552Y011210D01*
X039523Y011152D01*
X039503Y011091D01*
X039493Y011028D01*
X039493Y011025D01*
X039872Y011025D01*
X039872Y010967D01*
X039493Y010967D01*
X039493Y010964D01*
X039503Y010901D01*
X039523Y010840D01*
X039552Y010782D01*
X039590Y010731D01*
X039635Y010685D01*
X039687Y010648D01*
X039744Y010618D01*
X039805Y010599D01*
X039823Y010596D01*
X039681Y010537D01*
X039572Y010428D01*
X039513Y010286D01*
X039513Y010132D01*
X039572Y009989D01*
X039681Y009880D01*
X039824Y009821D01*
X039978Y009821D01*
X040120Y009880D01*
X040200Y009960D02*
X041051Y009960D01*
X041051Y010058D02*
X040258Y010058D01*
X040288Y010157D02*
X041051Y010157D01*
X041051Y010255D02*
X040288Y010255D01*
X040260Y010354D02*
X041051Y010354D01*
X041051Y010452D02*
X040205Y010452D01*
X040087Y010551D02*
X041051Y010551D01*
X041051Y010649D02*
X040117Y010649D01*
X040224Y010748D02*
X041051Y010748D01*
X041051Y010846D02*
X040281Y010846D01*
X040305Y010945D02*
X041051Y010945D01*
X041051Y011044D02*
X040306Y011044D01*
X040282Y011142D02*
X041051Y011142D01*
X041051Y011241D02*
X040227Y011241D01*
X040122Y011339D02*
X041051Y011339D01*
X041051Y011438D02*
X034050Y011438D01*
X034081Y011364D02*
X033992Y011577D01*
X033957Y011612D01*
X033088Y012482D01*
X032966Y012532D01*
X032835Y012532D01*
X032714Y012482D01*
X032621Y012389D01*
X032571Y012268D01*
X032571Y012137D01*
X032621Y012015D01*
X033421Y011216D01*
X033421Y011183D01*
X033421Y010787D01*
X033471Y010665D01*
X033564Y010573D01*
X033685Y010522D01*
X033816Y010522D01*
X033938Y010573D01*
X034031Y010665D01*
X034081Y010787D01*
X034081Y011183D01*
X034081Y011249D01*
X034081Y011276D01*
X034081Y011314D01*
X034081Y011314D01*
X034081Y011364D01*
X034081Y011364D01*
X034081Y011339D02*
X039680Y011339D01*
X039575Y011241D02*
X034081Y011241D01*
X034081Y011142D02*
X039520Y011142D01*
X039496Y011044D02*
X034081Y011044D01*
X034081Y010945D02*
X039496Y010945D01*
X039521Y010846D02*
X034081Y010846D01*
X034065Y010748D02*
X039577Y010748D01*
X039685Y010649D02*
X034014Y010649D01*
X033885Y010551D02*
X039714Y010551D01*
X039596Y010452D02*
X036321Y010452D01*
X036456Y010354D02*
X039542Y010354D01*
X039513Y010255D02*
X036537Y010255D01*
X036578Y010157D02*
X039513Y010157D01*
X039544Y010058D02*
X036601Y010058D01*
X036601Y009960D02*
X039602Y009960D01*
X039727Y009861D02*
X036583Y009861D01*
X035916Y009467D02*
X028800Y009467D01*
X028829Y009438D02*
X028737Y009530D01*
X028616Y009580D01*
X028485Y009580D01*
X028409Y009549D01*
X027376Y010581D01*
X027379Y010587D01*
X027379Y010718D01*
X027329Y010838D01*
X027237Y010930D01*
X027116Y010980D01*
X026985Y010980D01*
X026865Y010930D01*
X026773Y010838D01*
X026723Y010718D01*
X026723Y010587D01*
X026753Y010514D01*
X026687Y010580D01*
X026566Y010630D01*
X026435Y010630D01*
X026315Y010580D01*
X026223Y010488D01*
X026181Y010387D01*
X026181Y010933D01*
X026181Y010966D01*
X026781Y011565D01*
X026831Y011687D01*
X026831Y011818D01*
X026781Y011939D01*
X026688Y012032D01*
X026566Y012082D01*
X026435Y012082D01*
X026314Y012032D01*
X025914Y011632D01*
X023282Y011632D01*
X023166Y011680D01*
X023035Y011680D01*
X022915Y011630D01*
X022823Y011538D01*
X022773Y011418D01*
X022773Y011287D01*
X022823Y011166D01*
X022915Y011074D01*
X023035Y011024D01*
X023166Y011024D01*
X023282Y011072D01*
X025521Y011072D01*
X025521Y011064D01*
X025521Y010987D01*
X025521Y010933D01*
X025521Y008582D01*
X023966Y008582D01*
X022035Y008582D01*
X021914Y008532D01*
X021821Y008439D01*
X021771Y008318D01*
X021771Y008187D01*
X021821Y008065D01*
X021914Y007973D01*
X022035Y007922D01*
X023966Y007922D01*
X025535Y007922D01*
X025555Y007922D01*
X025666Y007922D01*
X025666Y007922D01*
X025716Y007922D01*
X025929Y008011D01*
X026006Y008087D02*
X027372Y008087D01*
X027273Y007792D02*
X023460Y007792D01*
X023574Y007693D02*
X027312Y007693D01*
X027395Y007595D02*
X023618Y007595D01*
X023629Y007496D02*
X027421Y007496D01*
X027421Y007397D02*
X023612Y007397D01*
X023561Y007299D02*
X027383Y007299D01*
X027307Y007200D02*
X023429Y007200D01*
X023381Y007102D02*
X027273Y007102D01*
X027273Y007003D02*
X023381Y007003D01*
X023381Y006905D02*
X027307Y006905D01*
X027383Y006806D02*
X023381Y006806D01*
X023381Y006708D02*
X032842Y006708D01*
X032873Y006806D02*
X027819Y006806D01*
X027895Y006905D02*
X027984Y006905D01*
X028201Y007152D02*
X028201Y008002D01*
X027881Y008087D02*
X027830Y008087D01*
X027922Y008186D02*
X026097Y008186D01*
X026092Y008174D02*
X026092Y008174D01*
X026138Y008284D02*
X028024Y008284D01*
X028377Y008284D02*
X028624Y008284D01*
X028522Y008186D02*
X028480Y008186D01*
X028801Y008002D02*
X028801Y007152D01*
X029017Y006905D02*
X032888Y006905D01*
X032938Y007003D02*
X029094Y007003D01*
X029129Y007102D02*
X033067Y007102D01*
X033201Y006802D02*
X032037Y005689D01*
X032001Y005601D02*
X032001Y005352D01*
X032001Y005601D02*
X032003Y005621D01*
X032007Y005640D01*
X032015Y005658D01*
X032025Y005674D01*
X032038Y005689D01*
X031915Y005821D02*
X024131Y005821D01*
X024171Y005919D02*
X032018Y005919D01*
X032121Y006018D02*
X024179Y006018D01*
X024159Y006116D02*
X032224Y006116D01*
X032327Y006215D02*
X024102Y006215D01*
X023957Y006314D02*
X032430Y006314D01*
X032533Y006412D02*
X023455Y006412D01*
X023510Y006314D02*
X023745Y006314D01*
X023599Y006215D02*
X023529Y006215D01*
X023520Y006116D02*
X023543Y006116D01*
X023523Y006018D02*
X023479Y006018D01*
X023530Y005919D02*
X023375Y005919D01*
X023571Y005821D02*
X021931Y005821D01*
X021932Y005919D02*
X022377Y005919D01*
X022272Y006018D02*
X022000Y006018D01*
X022029Y006116D02*
X022231Y006116D01*
X022223Y006215D02*
X022029Y006215D01*
X021989Y006314D02*
X022242Y006314D01*
X022296Y006412D02*
X021905Y006412D01*
X022551Y006202D02*
X022551Y007401D01*
X022587Y007489D02*
X022601Y007502D01*
X022588Y007489D02*
X022575Y007474D01*
X022565Y007458D01*
X022557Y007440D01*
X022553Y007421D01*
X022551Y007401D01*
X022731Y007200D02*
X023021Y007200D01*
X023021Y007102D02*
X022731Y007102D01*
X022731Y007003D02*
X023021Y007003D01*
X023021Y006905D02*
X022731Y006905D01*
X022731Y006806D02*
X023021Y006806D01*
X023021Y006708D02*
X022731Y006708D01*
X022731Y006609D02*
X023021Y006609D01*
X023021Y006511D02*
X022731Y006511D01*
X022805Y006412D02*
X022946Y006412D01*
X022892Y006314D02*
X022860Y006314D01*
X022870Y006116D02*
X022881Y006116D01*
X022922Y006018D02*
X022829Y006018D01*
X022725Y005919D02*
X023027Y005919D01*
X023447Y005624D02*
X022005Y005624D01*
X021931Y005722D02*
X023545Y005722D01*
X023900Y005427D02*
X031676Y005427D01*
X031673Y005328D02*
X023802Y005328D01*
X023703Y005230D02*
X026414Y005230D01*
X026320Y005131D02*
X023513Y005131D01*
X023940Y005466D02*
X023940Y005466D01*
X023999Y005525D02*
X031717Y005525D01*
X031808Y005624D02*
X024045Y005624D01*
X024081Y005711D02*
X024081Y005711D01*
X024081Y005722D02*
X031846Y005722D01*
X032229Y005624D02*
X035772Y005624D01*
X035676Y005722D02*
X032332Y005722D01*
X032435Y005821D02*
X035635Y005821D01*
X035601Y005919D02*
X032538Y005919D01*
X032641Y006018D02*
X035601Y006018D01*
X035607Y006116D02*
X032744Y006116D01*
X032847Y006215D02*
X035648Y006215D01*
X035705Y006314D02*
X032950Y006314D01*
X033053Y006412D02*
X035803Y006412D01*
X035787Y006609D02*
X033472Y006609D01*
X033517Y006708D02*
X035688Y006708D01*
X035677Y006719D02*
X035601Y006903D01*
X035601Y007102D01*
X035642Y007200D02*
X029129Y007200D01*
X029095Y007299D02*
X035690Y007299D01*
X035789Y007397D02*
X029020Y007397D01*
X028981Y007496D02*
X035976Y007496D01*
X036051Y007595D02*
X036151Y007595D01*
X036151Y007693D02*
X036051Y007693D01*
X036051Y007792D02*
X036151Y007792D01*
X036151Y007890D02*
X036051Y007890D01*
X035777Y007595D02*
X028981Y007595D01*
X028981Y007693D02*
X035683Y007693D01*
X035625Y007792D02*
X029054Y007792D01*
X029109Y007890D02*
X035592Y007890D01*
X036424Y007595D02*
X041051Y007595D01*
X041051Y007693D02*
X036519Y007693D01*
X036577Y007792D02*
X041051Y007792D01*
X041051Y007890D02*
X036609Y007890D01*
X036413Y007397D02*
X041051Y007397D01*
X041051Y007299D02*
X040024Y007299D01*
X040033Y007283D02*
X040014Y007317D01*
X039986Y007345D01*
X039952Y007365D01*
X039913Y007375D01*
X039501Y007375D01*
X039501Y006832D01*
X040044Y006832D01*
X040044Y007245D01*
X040033Y007283D01*
X040044Y007200D02*
X041051Y007200D01*
X041051Y007102D02*
X040044Y007102D01*
X040044Y007003D02*
X041051Y007003D01*
X041051Y006905D02*
X040044Y006905D01*
X040044Y006732D02*
X039501Y006732D01*
X039501Y006832D01*
X039401Y006832D01*
X039401Y007375D01*
X038988Y007375D01*
X038950Y007365D01*
X038916Y007345D01*
X038888Y007317D01*
X038868Y007283D01*
X038858Y007245D01*
X038858Y006832D01*
X039401Y006832D01*
X039401Y006732D01*
X039501Y006732D01*
X039501Y006189D01*
X039913Y006189D01*
X039952Y006199D01*
X039986Y006219D01*
X040014Y006247D01*
X040033Y006281D01*
X040044Y006319D01*
X040044Y006732D01*
X040044Y006708D02*
X041051Y006708D01*
X041051Y006806D02*
X039501Y006806D01*
X039501Y006708D02*
X039401Y006708D01*
X039401Y006732D02*
X039401Y006189D01*
X038988Y006189D01*
X038950Y006199D01*
X038916Y006219D01*
X038888Y006247D01*
X038868Y006281D01*
X038858Y006319D01*
X038858Y006732D01*
X039401Y006732D01*
X039401Y006806D02*
X036561Y006806D01*
X036601Y006905D02*
X038858Y006905D01*
X038858Y007003D02*
X036601Y007003D01*
X036601Y007102D02*
X036525Y007286D01*
X036511Y007299D02*
X038878Y007299D01*
X039401Y007299D02*
X039501Y007299D01*
X039501Y007200D02*
X039401Y007200D01*
X039401Y007102D02*
X039501Y007102D01*
X039501Y007003D02*
X039401Y007003D01*
X039401Y006905D02*
X039501Y006905D01*
X038858Y006708D02*
X036513Y006708D01*
X036415Y006609D02*
X038858Y006609D01*
X038858Y006511D02*
X036220Y006511D01*
X036200Y006502D02*
X036001Y006502D01*
X036200Y006502D01*
X036398Y006412D02*
X038858Y006412D01*
X038859Y006314D02*
X036497Y006314D01*
X036554Y006215D02*
X038923Y006215D01*
X039401Y006215D02*
X039501Y006215D01*
X039501Y006314D02*
X039401Y006314D01*
X039401Y006412D02*
X039501Y006412D01*
X039501Y006511D02*
X039401Y006511D01*
X039401Y006609D02*
X039501Y006609D01*
X040044Y006609D02*
X041051Y006609D01*
X041051Y006511D02*
X040044Y006511D01*
X040044Y006412D02*
X041051Y006412D01*
X041051Y006314D02*
X040042Y006314D01*
X039979Y006215D02*
X041051Y006215D01*
X041051Y006116D02*
X036595Y006116D01*
X036601Y006018D02*
X041051Y006018D01*
X041051Y005919D02*
X036601Y005919D01*
X036567Y005821D02*
X041051Y005821D01*
X041051Y005722D02*
X036526Y005722D01*
X036429Y005624D02*
X041051Y005624D01*
X041051Y005525D02*
X036255Y005525D01*
X035946Y005525D02*
X032284Y005525D01*
X032325Y005427D02*
X034061Y005427D01*
X034065Y005430D02*
X033973Y005338D01*
X033923Y005218D01*
X033923Y005087D01*
X033973Y004966D01*
X034065Y004874D01*
X034071Y004872D01*
X034071Y003585D01*
X034071Y003533D01*
X032761Y002223D01*
X032722Y002240D01*
X032567Y002240D01*
X032451Y002191D01*
X033844Y003585D01*
X033844Y003599D01*
X033871Y003663D01*
X033881Y003673D01*
X033881Y003748D01*
X033881Y003822D01*
X033881Y003872D01*
X033887Y003874D01*
X033979Y003966D01*
X034029Y004087D01*
X034029Y004218D01*
X033979Y004338D01*
X033887Y004430D01*
X033766Y004480D01*
X033635Y004480D01*
X033515Y004430D01*
X033423Y004338D01*
X033373Y004218D01*
X033373Y004087D01*
X033423Y003966D01*
X033515Y003874D01*
X033521Y003872D01*
X033521Y003822D01*
X033521Y003771D01*
X031974Y002223D01*
X031934Y002240D01*
X031780Y002240D01*
X031663Y002191D01*
X033039Y003567D01*
X033050Y003578D01*
X033144Y003672D01*
X033144Y003686D01*
X033171Y003751D01*
X033181Y003761D01*
X033181Y004172D01*
X033187Y004174D01*
X033279Y004266D01*
X033329Y004387D01*
X033329Y004518D01*
X033279Y004638D01*
X033187Y004730D01*
X033066Y004780D01*
X032935Y004780D01*
X032815Y004730D01*
X032723Y004638D01*
X030401Y004638D01*
X030387Y004624D02*
X030479Y004716D01*
X030529Y004837D01*
X030529Y004968D01*
X030479Y005088D01*
X030387Y005180D01*
X030266Y005230D01*
X030135Y005230D01*
X030015Y005180D01*
X029923Y005088D01*
X029873Y004968D01*
X029873Y004837D01*
X029923Y004716D01*
X030015Y004624D01*
X030021Y004622D01*
X030021Y004177D01*
X030006Y004162D01*
X029984Y004140D01*
X029272Y003428D01*
X029266Y003430D01*
X029135Y003430D01*
X029015Y003380D01*
X028923Y003288D01*
X028873Y003168D01*
X028873Y003037D01*
X028923Y002916D01*
X029015Y002824D01*
X029135Y002774D01*
X029266Y002774D01*
X029387Y002824D01*
X029479Y002916D01*
X029529Y003037D01*
X029529Y003168D01*
X029526Y003174D01*
X030239Y003886D01*
X030261Y003908D01*
X030344Y003991D01*
X030344Y004005D01*
X030371Y004070D01*
X030381Y004080D01*
X030381Y004622D01*
X030387Y004624D01*
X030381Y004540D02*
X032682Y004540D01*
X032673Y004518D02*
X032673Y004387D01*
X032723Y004266D01*
X032815Y004174D01*
X032821Y004172D01*
X032821Y003858D01*
X032795Y003832D01*
X032784Y003821D01*
X031186Y002223D01*
X031147Y002240D01*
X030993Y002240D01*
X030850Y002181D01*
X030741Y002072D01*
X030682Y001929D01*
X030682Y001775D01*
X030741Y001633D01*
X030850Y001524D01*
X030993Y001465D01*
X031147Y001465D01*
X031289Y001524D01*
X031398Y001633D01*
X031457Y001775D01*
X031457Y001929D01*
X031441Y001969D01*
X031518Y002046D01*
X031470Y001929D01*
X031470Y001775D01*
X031529Y001633D01*
X031638Y001524D01*
X031780Y001465D01*
X031934Y001465D01*
X032077Y001524D01*
X032186Y001633D01*
X032245Y001775D01*
X032245Y001929D01*
X032228Y001969D01*
X032305Y002046D01*
X032257Y001929D01*
X032257Y001775D01*
X032316Y001633D01*
X032425Y001524D01*
X032567Y001465D01*
X032722Y001465D01*
X032864Y001524D01*
X032973Y001633D01*
X033032Y001775D01*
X033032Y001929D01*
X033016Y001969D01*
X033093Y002046D01*
X033044Y001929D01*
X033044Y001775D01*
X033103Y001633D01*
X033212Y001524D01*
X033355Y001465D01*
X033509Y001465D01*
X033651Y001524D01*
X033760Y001633D01*
X033819Y001775D01*
X033822Y001757D01*
X033842Y001696D01*
X033871Y001639D01*
X033908Y001587D01*
X033954Y001542D01*
X034006Y001504D01*
X034063Y001475D01*
X034124Y001455D01*
X034187Y001445D01*
X034190Y001445D01*
X034190Y001823D01*
X034248Y001823D01*
X034248Y001445D01*
X034251Y001445D01*
X034315Y001455D01*
X034376Y001475D01*
X034433Y001504D01*
X034485Y001542D01*
X034530Y001587D01*
X034568Y001639D01*
X034597Y001696D01*
X034617Y001757D01*
X034627Y001820D01*
X034627Y001824D01*
X034248Y001824D01*
X034248Y001881D01*
X034627Y001881D01*
X034627Y001884D01*
X034617Y001948D01*
X034597Y002009D01*
X034568Y002066D01*
X034530Y002118D01*
X034485Y002163D01*
X034433Y002201D01*
X034376Y002230D01*
X034315Y002250D01*
X034251Y002260D01*
X034248Y002260D01*
X034248Y001881D01*
X034190Y001881D01*
X034190Y002260D01*
X034187Y002260D01*
X034124Y002250D01*
X034065Y002231D01*
X034839Y003005D01*
X034891Y003057D01*
X034905Y003071D01*
X034944Y003110D01*
X034944Y003124D01*
X034971Y003189D01*
X034981Y003198D01*
X034981Y003372D01*
X034987Y003374D01*
X035079Y003466D01*
X035129Y003587D01*
X035129Y003718D01*
X035079Y003838D01*
X034987Y003930D01*
X034866Y003980D01*
X034735Y003980D01*
X034615Y003930D01*
X034523Y003838D01*
X034473Y003718D01*
X034473Y003587D01*
X034523Y003466D01*
X034615Y003374D01*
X034621Y003372D01*
X034621Y003296D01*
X034584Y003259D01*
X033548Y002223D01*
X033509Y002240D01*
X033355Y002240D01*
X033238Y002191D01*
X034394Y003347D01*
X034394Y003361D01*
X034421Y003426D01*
X034431Y003436D01*
X034431Y003510D01*
X034431Y003510D01*
X034431Y003585D01*
X034431Y004872D01*
X034437Y004874D01*
X034529Y004966D01*
X034579Y005087D01*
X034579Y005218D01*
X034529Y005338D01*
X034437Y005430D01*
X034316Y005480D01*
X034185Y005480D01*
X034065Y005430D01*
X033968Y005328D02*
X032329Y005328D01*
X032305Y005230D02*
X033928Y005230D01*
X033923Y005131D02*
X032243Y005131D01*
X032086Y005032D02*
X033945Y005032D01*
X034005Y004934D02*
X030529Y004934D01*
X030528Y004835D02*
X034071Y004835D01*
X034071Y004737D02*
X033171Y004737D01*
X033279Y004638D02*
X034071Y004638D01*
X034071Y004540D02*
X033320Y004540D01*
X033329Y004441D02*
X033541Y004441D01*
X033427Y004343D02*
X033310Y004343D01*
X033256Y004244D02*
X033384Y004244D01*
X033373Y004146D02*
X033181Y004146D01*
X033181Y004047D02*
X033389Y004047D01*
X033441Y003948D02*
X033181Y003948D01*
X033181Y003850D02*
X033521Y003850D01*
X033502Y003751D02*
X033171Y003751D01*
X033125Y003653D02*
X033403Y003653D01*
X033305Y003554D02*
X033026Y003554D01*
X032928Y003456D02*
X033206Y003456D01*
X033107Y003357D02*
X032829Y003357D01*
X032730Y003259D02*
X033009Y003259D01*
X032910Y003160D02*
X032632Y003160D01*
X032533Y003062D02*
X032812Y003062D01*
X032713Y002963D02*
X032435Y002963D01*
X032336Y002864D02*
X032615Y002864D01*
X032516Y002766D02*
X032238Y002766D01*
X032139Y002667D02*
X032418Y002667D01*
X032319Y002569D02*
X032041Y002569D01*
X031942Y002470D02*
X032221Y002470D01*
X032122Y002372D02*
X031844Y002372D01*
X031745Y002273D02*
X032023Y002273D01*
X032532Y002273D02*
X032811Y002273D01*
X032909Y002372D02*
X032631Y002372D01*
X032730Y002470D02*
X033008Y002470D01*
X033106Y002569D02*
X032828Y002569D01*
X032927Y002667D02*
X033205Y002667D01*
X033304Y002766D02*
X033025Y002766D01*
X033124Y002864D02*
X033402Y002864D01*
X033501Y002963D02*
X033222Y002963D01*
X033321Y003062D02*
X033599Y003062D01*
X033698Y003160D02*
X033419Y003160D01*
X033518Y003259D02*
X033796Y003259D01*
X033895Y003357D02*
X033616Y003357D01*
X033715Y003456D02*
X033993Y003456D01*
X034071Y003554D02*
X033814Y003554D01*
X033866Y003653D02*
X034071Y003653D01*
X034071Y003751D02*
X033881Y003751D01*
X033881Y003850D02*
X034071Y003850D01*
X034071Y003948D02*
X033961Y003948D01*
X034012Y004047D02*
X034071Y004047D01*
X034071Y004146D02*
X034029Y004146D01*
X034018Y004244D02*
X034071Y004244D01*
X034071Y004343D02*
X033974Y004343D01*
X034071Y004441D02*
X033861Y004441D01*
X034431Y004441D02*
X038878Y004441D01*
X038878Y004343D02*
X034431Y004343D01*
X034431Y004244D02*
X038878Y004244D01*
X038878Y004146D02*
X034431Y004146D01*
X034431Y004047D02*
X038878Y004047D01*
X038878Y003948D02*
X034943Y003948D01*
X035067Y003850D02*
X038878Y003850D01*
X038878Y003751D02*
X035115Y003751D01*
X035129Y003653D02*
X038951Y003653D01*
X038954Y003650D02*
X039948Y003650D01*
X040024Y003726D01*
X040024Y004720D01*
X039948Y004796D01*
X038954Y004796D01*
X038878Y004720D01*
X038878Y003726D01*
X038954Y003650D01*
X039950Y003653D02*
X041051Y003653D01*
X041051Y003751D02*
X040024Y003751D01*
X040024Y003850D02*
X041051Y003850D01*
X041051Y003948D02*
X040024Y003948D01*
X040024Y004047D02*
X041051Y004047D01*
X041051Y004146D02*
X040024Y004146D01*
X040024Y004244D02*
X041051Y004244D01*
X041051Y004343D02*
X040024Y004343D01*
X040024Y004441D02*
X041051Y004441D01*
X041051Y004540D02*
X040024Y004540D01*
X040024Y004638D02*
X041051Y004638D01*
X041051Y004737D02*
X040006Y004737D01*
X041051Y004835D02*
X034431Y004835D01*
X034431Y004737D02*
X038895Y004737D01*
X038878Y004638D02*
X034431Y004638D01*
X034431Y004540D02*
X038878Y004540D01*
X041051Y004934D02*
X034496Y004934D01*
X034556Y005032D02*
X041051Y005032D01*
X041051Y005131D02*
X034579Y005131D01*
X034574Y005230D02*
X041051Y005230D01*
X041051Y005328D02*
X034533Y005328D01*
X034440Y005427D02*
X041051Y005427D01*
X043936Y005427D02*
X047264Y005427D01*
X047269Y005421D02*
X047411Y005362D01*
X047566Y005362D01*
X047708Y005421D01*
X047817Y005530D01*
X047876Y005673D01*
X047876Y005827D01*
X047817Y005969D01*
X047708Y006078D01*
X047566Y006137D01*
X047411Y006137D01*
X047269Y006078D01*
X047160Y005969D01*
X047101Y005827D01*
X047101Y005673D01*
X047160Y005530D01*
X047269Y005421D01*
X047165Y005525D02*
X043936Y005525D01*
X043936Y005624D02*
X047121Y005624D01*
X047101Y005722D02*
X043936Y005722D01*
X043936Y005821D02*
X047101Y005821D01*
X047139Y005919D02*
X043936Y005919D01*
X043936Y006018D02*
X047209Y006018D01*
X047361Y006116D02*
X043936Y006116D01*
X043936Y006215D02*
X048873Y006215D01*
X048873Y006314D02*
X043936Y006314D01*
X043936Y006412D02*
X048873Y006412D01*
X048873Y006511D02*
X043936Y006511D01*
X043936Y006609D02*
X048873Y006609D01*
X048873Y006708D02*
X043936Y006708D01*
X043936Y006806D02*
X048873Y006806D01*
X048873Y006905D02*
X043936Y006905D01*
X043936Y007003D02*
X048873Y007003D01*
X048873Y007102D02*
X043936Y007102D01*
X043936Y007200D02*
X048873Y007200D01*
X048873Y007299D02*
X043936Y007299D01*
X043936Y007397D02*
X048873Y007397D01*
X048873Y007496D02*
X043936Y007496D01*
X043936Y007595D02*
X048873Y007595D01*
X048873Y007693D02*
X043936Y007693D01*
X043936Y007792D02*
X048873Y007792D01*
X048873Y007890D02*
X043936Y007890D01*
X043936Y007989D02*
X048873Y007989D01*
X048873Y008087D02*
X043936Y008087D01*
X043936Y008186D02*
X048873Y008186D01*
X048873Y008284D02*
X043936Y008284D01*
X043936Y008383D02*
X048873Y008383D01*
X048873Y008481D02*
X043936Y008481D01*
X043936Y008580D02*
X048873Y008580D01*
X048873Y008679D02*
X043936Y008679D01*
X043936Y008777D02*
X048873Y008777D01*
X048873Y008876D02*
X043936Y008876D01*
X043936Y008974D02*
X048873Y008974D01*
X048873Y009073D02*
X043936Y009073D01*
X043936Y009171D02*
X048873Y009171D01*
X048873Y009270D02*
X043936Y009270D01*
X043936Y009368D02*
X048873Y009368D01*
X048873Y009467D02*
X043936Y009467D01*
X043936Y009565D02*
X048873Y009565D01*
X048873Y009664D02*
X043936Y009664D01*
X043936Y009763D02*
X048873Y009763D01*
X048873Y009861D02*
X043936Y009861D01*
X043936Y009960D02*
X048873Y009960D01*
X048873Y010058D02*
X043936Y010058D01*
X043936Y010157D02*
X048873Y010157D01*
X048873Y010255D02*
X043936Y010255D01*
X043936Y010354D02*
X048873Y010354D01*
X048873Y010435D02*
X048873Y006068D01*
X048775Y005969D01*
X048716Y005827D01*
X048716Y005673D01*
X048775Y005530D01*
X048884Y005421D01*
X049026Y005362D01*
X049180Y005362D01*
X049323Y005421D01*
X049432Y005530D01*
X049491Y005673D01*
X049491Y005827D01*
X049432Y005969D01*
X049333Y006068D01*
X049333Y010568D01*
X049407Y010494D01*
X049550Y010435D01*
X049704Y010435D01*
X049846Y010494D01*
X049955Y010603D01*
X050014Y010745D01*
X050014Y010899D01*
X049955Y011042D01*
X049846Y011151D01*
X049704Y011210D01*
X049550Y011210D01*
X049407Y011151D01*
X049298Y011042D01*
X049239Y010899D01*
X049239Y010748D01*
X049239Y010748D01*
X049227Y010760D01*
X049227Y010899D01*
X049168Y011042D01*
X049059Y011151D01*
X048917Y011210D01*
X048762Y011210D01*
X048620Y011151D01*
X048511Y011042D01*
X048452Y010899D01*
X048452Y010745D01*
X048511Y010603D01*
X048620Y010494D01*
X048762Y010435D01*
X048873Y010435D01*
X048720Y010452D02*
X048171Y010452D01*
X048129Y010435D02*
X048272Y010494D01*
X048381Y010603D01*
X048440Y010745D01*
X048440Y010899D01*
X048381Y011042D01*
X048272Y011151D01*
X048129Y011210D01*
X047975Y011210D01*
X047833Y011151D01*
X047724Y011042D01*
X047665Y010900D01*
X047662Y010918D01*
X047642Y010979D01*
X047613Y011036D01*
X047575Y011088D01*
X047530Y011133D01*
X047478Y011171D01*
X047421Y011200D01*
X047360Y011220D01*
X047297Y011230D01*
X047293Y011230D01*
X047293Y010851D01*
X047236Y010851D01*
X047236Y010794D01*
X046857Y010794D01*
X046857Y010790D01*
X046867Y010727D01*
X046887Y010666D01*
X046916Y010609D01*
X046954Y010557D01*
X046999Y010512D01*
X047051Y010474D01*
X047108Y010445D01*
X047169Y010425D01*
X047233Y010415D01*
X047236Y010415D01*
X047236Y010793D01*
X047293Y010793D01*
X047293Y010415D01*
X047297Y010415D01*
X047360Y010425D01*
X047421Y010445D01*
X047478Y010474D01*
X047530Y010512D01*
X047575Y010557D01*
X047613Y010609D01*
X047642Y010666D01*
X047662Y010727D01*
X047665Y010745D01*
X047724Y010603D01*
X047833Y010494D01*
X047975Y010435D01*
X048129Y010435D01*
X047933Y010452D02*
X047436Y010452D01*
X047293Y010452D02*
X047236Y010452D01*
X047236Y010551D02*
X047293Y010551D01*
X047293Y010649D02*
X047236Y010649D01*
X047236Y010748D02*
X047293Y010748D01*
X047236Y010846D02*
X043936Y010846D01*
X043936Y010748D02*
X046864Y010748D01*
X046857Y010851D02*
X047236Y010851D01*
X047236Y011230D01*
X047233Y011230D01*
X047169Y011220D01*
X047108Y011200D01*
X047051Y011171D01*
X046999Y011133D01*
X046954Y011088D01*
X046916Y011036D01*
X046887Y010979D01*
X046867Y010918D01*
X046857Y010854D01*
X046857Y010851D01*
X046876Y010945D02*
X043936Y010945D01*
X043936Y011044D02*
X046922Y011044D01*
X047012Y011142D02*
X043936Y011142D01*
X043936Y011241D02*
X053151Y011241D01*
X053151Y011339D02*
X043936Y011339D01*
X043936Y011438D02*
X053151Y011438D01*
X053151Y011536D02*
X043936Y011536D01*
X043936Y011635D02*
X053151Y011635D01*
X053151Y011733D02*
X043936Y011733D01*
X043936Y011832D02*
X053151Y011832D01*
X053151Y011930D02*
X043936Y011930D01*
X043936Y012029D02*
X053151Y012029D01*
X053151Y012128D02*
X043936Y012128D01*
X043936Y012226D02*
X053151Y012226D01*
X053151Y012325D02*
X043936Y012325D01*
X043936Y012423D02*
X053151Y012423D01*
X053151Y012522D02*
X043936Y012522D01*
X043936Y012620D02*
X053151Y012620D01*
X053151Y012719D02*
X043936Y012719D01*
X043936Y012817D02*
X053151Y012817D01*
X053151Y012916D02*
X043936Y012916D01*
X043936Y013014D02*
X053151Y013014D01*
X053151Y013113D02*
X043936Y013113D01*
X043936Y013212D02*
X053151Y013212D01*
X053151Y013310D02*
X043936Y013310D01*
X043936Y013409D02*
X053151Y013409D01*
X053151Y013507D02*
X043936Y013507D01*
X043939Y013535D01*
X043948Y013562D01*
X043963Y013585D01*
X043983Y013605D01*
X044007Y013620D01*
X044033Y013629D01*
X044061Y013632D01*
X053146Y013632D01*
X053151Y013632D01*
X053151Y000752D01*
X043936Y000752D01*
X043936Y013507D01*
X043984Y013606D02*
X053151Y013606D01*
X053151Y011142D02*
X049855Y011142D01*
X049954Y011044D02*
X053151Y011044D01*
X053151Y010945D02*
X049995Y010945D01*
X050014Y010846D02*
X053151Y010846D01*
X053151Y010748D02*
X050014Y010748D01*
X049975Y010649D02*
X053151Y010649D01*
X053151Y010551D02*
X049903Y010551D01*
X049746Y010452D02*
X053151Y010452D01*
X053151Y010354D02*
X049333Y010354D01*
X049333Y010452D02*
X049508Y010452D01*
X049350Y010551D02*
X049333Y010551D01*
X049333Y010255D02*
X053151Y010255D01*
X053151Y010157D02*
X049333Y010157D01*
X049333Y010058D02*
X053151Y010058D01*
X053151Y009960D02*
X049333Y009960D01*
X049333Y009861D02*
X053151Y009861D01*
X053151Y009763D02*
X049333Y009763D01*
X049333Y009664D02*
X053151Y009664D01*
X053151Y009565D02*
X049333Y009565D01*
X049333Y009467D02*
X053151Y009467D01*
X053151Y009368D02*
X049333Y009368D01*
X049333Y009270D02*
X053151Y009270D01*
X053151Y009171D02*
X049333Y009171D01*
X049333Y009073D02*
X053151Y009073D01*
X053151Y008974D02*
X049333Y008974D01*
X049333Y008876D02*
X053151Y008876D01*
X053151Y008777D02*
X049333Y008777D01*
X049333Y008679D02*
X053151Y008679D01*
X053151Y008580D02*
X049333Y008580D01*
X049333Y008481D02*
X053151Y008481D01*
X053151Y008383D02*
X049333Y008383D01*
X049333Y008284D02*
X053151Y008284D01*
X053151Y008186D02*
X049333Y008186D01*
X049333Y008087D02*
X053151Y008087D01*
X053151Y007989D02*
X049333Y007989D01*
X049333Y007890D02*
X053151Y007890D01*
X053151Y007792D02*
X049333Y007792D01*
X049333Y007693D02*
X053151Y007693D01*
X053151Y007595D02*
X049333Y007595D01*
X049333Y007496D02*
X053151Y007496D01*
X053151Y007397D02*
X049333Y007397D01*
X049333Y007299D02*
X053151Y007299D01*
X053151Y007200D02*
X049333Y007200D01*
X049333Y007102D02*
X053151Y007102D01*
X053151Y007003D02*
X049333Y007003D01*
X049333Y006905D02*
X053151Y006905D01*
X053151Y006806D02*
X049333Y006806D01*
X049333Y006708D02*
X053151Y006708D01*
X053151Y006609D02*
X049333Y006609D01*
X049333Y006511D02*
X053151Y006511D01*
X053151Y006412D02*
X049333Y006412D01*
X049333Y006314D02*
X053151Y006314D01*
X053151Y006215D02*
X049333Y006215D01*
X049333Y006116D02*
X053151Y006116D01*
X053151Y006018D02*
X049383Y006018D01*
X049452Y005919D02*
X053151Y005919D01*
X053151Y005821D02*
X049491Y005821D01*
X049491Y005722D02*
X053151Y005722D01*
X053151Y005624D02*
X049470Y005624D01*
X049427Y005525D02*
X053151Y005525D01*
X053151Y005427D02*
X049328Y005427D01*
X048878Y005427D02*
X047713Y005427D01*
X047812Y005525D02*
X048780Y005525D01*
X048736Y005624D02*
X047856Y005624D01*
X047876Y005722D02*
X048716Y005722D01*
X048716Y005821D02*
X047876Y005821D01*
X047838Y005919D02*
X048754Y005919D01*
X048823Y006018D02*
X047768Y006018D01*
X047616Y006116D02*
X048873Y006116D01*
X049026Y004522D02*
X048884Y004464D01*
X048775Y004354D01*
X048716Y004212D01*
X048716Y004058D01*
X048775Y003916D01*
X048884Y003807D01*
X049026Y003748D01*
X049180Y003748D01*
X049323Y003807D01*
X049432Y003916D01*
X049491Y004058D01*
X049491Y004212D01*
X049432Y004354D01*
X049323Y004464D01*
X049180Y004522D01*
X049026Y004522D01*
X048861Y004441D02*
X047754Y004441D01*
X047756Y004443D02*
X047754Y004446D01*
X047702Y004484D01*
X047645Y004513D01*
X047584Y004532D01*
X047521Y004542D01*
X047456Y004542D01*
X047393Y004532D01*
X047332Y004513D01*
X047275Y004484D01*
X047223Y004446D01*
X047221Y004444D01*
X047488Y004176D01*
X047448Y004135D01*
X047488Y004094D01*
X047221Y003826D01*
X047223Y003824D01*
X047275Y003787D01*
X047332Y003757D01*
X047393Y003738D01*
X047456Y003728D01*
X047521Y003728D01*
X047584Y003738D01*
X047645Y003757D01*
X047702Y003787D01*
X047754Y003824D01*
X047756Y003827D01*
X047489Y004094D01*
X047529Y004135D01*
X047797Y003867D01*
X047799Y003870D01*
X047837Y003921D01*
X047866Y003979D01*
X047886Y004040D01*
X047896Y004103D01*
X047896Y004167D01*
X047886Y004230D01*
X047866Y004291D01*
X047837Y004349D01*
X047799Y004400D01*
X047797Y004403D01*
X047529Y004135D01*
X047489Y004176D01*
X047756Y004443D01*
X047737Y004343D02*
X047655Y004343D01*
X047638Y004244D02*
X047557Y004244D01*
X047540Y004146D02*
X047519Y004146D01*
X047458Y004146D02*
X047437Y004146D01*
X047448Y004135D02*
X047180Y004403D01*
X047178Y004400D01*
X047140Y004349D01*
X047111Y004291D01*
X047091Y004230D01*
X047081Y004167D01*
X047081Y004103D01*
X047091Y004040D01*
X047111Y003979D01*
X047140Y003921D01*
X047178Y003870D01*
X047180Y003867D01*
X047448Y004135D01*
X047441Y004047D02*
X047360Y004047D01*
X047343Y003948D02*
X047261Y003948D01*
X047244Y003850D02*
X043936Y003850D01*
X043936Y003948D02*
X047126Y003948D01*
X047090Y004047D02*
X043936Y004047D01*
X043936Y004146D02*
X047081Y004146D01*
X047095Y004244D02*
X043936Y004244D01*
X043936Y004343D02*
X047137Y004343D01*
X047240Y004343D02*
X047322Y004343D01*
X047339Y004244D02*
X047420Y004244D01*
X047536Y004047D02*
X047617Y004047D01*
X047634Y003948D02*
X047716Y003948D01*
X047733Y003850D02*
X048840Y003850D01*
X048761Y003948D02*
X047851Y003948D01*
X047887Y004047D02*
X048720Y004047D01*
X048716Y004146D02*
X047896Y004146D01*
X047881Y004244D02*
X048729Y004244D01*
X048770Y004343D02*
X047840Y004343D01*
X047538Y004540D02*
X053151Y004540D01*
X053151Y004638D02*
X043936Y004638D01*
X043936Y004540D02*
X047439Y004540D01*
X047223Y004441D02*
X043936Y004441D01*
X043936Y004737D02*
X053151Y004737D01*
X053151Y004835D02*
X043936Y004835D01*
X043936Y004934D02*
X053151Y004934D01*
X053151Y005032D02*
X043936Y005032D01*
X043936Y005131D02*
X053151Y005131D01*
X053151Y005230D02*
X043936Y005230D01*
X043936Y005328D02*
X053151Y005328D01*
X053151Y004441D02*
X049345Y004441D01*
X049436Y004343D02*
X053151Y004343D01*
X053151Y004244D02*
X049477Y004244D01*
X049491Y004146D02*
X053151Y004146D01*
X053151Y004047D02*
X049486Y004047D01*
X049445Y003948D02*
X053151Y003948D01*
X053151Y003850D02*
X049366Y003850D01*
X049189Y003751D02*
X053151Y003751D01*
X053151Y003653D02*
X043936Y003653D01*
X043936Y003751D02*
X047351Y003751D01*
X047626Y003751D02*
X049017Y003751D01*
X053151Y003554D02*
X043936Y003554D01*
X043936Y003456D02*
X053151Y003456D01*
X053151Y003357D02*
X043936Y003357D01*
X043936Y003259D02*
X053151Y003259D01*
X053151Y003160D02*
X043936Y003160D01*
X043936Y003062D02*
X053151Y003062D01*
X053151Y002963D02*
X043936Y002963D01*
X043936Y002864D02*
X053151Y002864D01*
X053151Y002766D02*
X043936Y002766D01*
X043936Y002667D02*
X053151Y002667D01*
X053151Y002569D02*
X043936Y002569D01*
X043936Y002470D02*
X053151Y002470D01*
X053151Y002372D02*
X043936Y002372D01*
X043936Y002273D02*
X053151Y002273D01*
X053151Y002175D02*
X043936Y002175D01*
X043936Y002076D02*
X053151Y002076D01*
X053151Y001978D02*
X043936Y001978D01*
X043936Y001879D02*
X053151Y001879D01*
X053151Y001781D02*
X043936Y001781D01*
X043936Y001682D02*
X053151Y001682D01*
X053151Y001583D02*
X043936Y001583D01*
X043936Y001485D02*
X053151Y001485D01*
X053151Y001386D02*
X043936Y001386D01*
X043936Y001288D02*
X053151Y001288D01*
X053151Y001189D02*
X043936Y001189D01*
X043936Y001091D02*
X053151Y001091D01*
X053151Y000992D02*
X043936Y000992D01*
X043936Y000894D02*
X053151Y000894D01*
X053151Y000795D02*
X043936Y000795D01*
X041050Y000894D02*
X026681Y000894D01*
X026750Y000992D02*
X041051Y000992D01*
X041051Y001091D02*
X026781Y001091D01*
X026781Y001046D02*
X026781Y001046D01*
X026781Y001189D02*
X041051Y001189D01*
X041051Y001288D02*
X026781Y001288D01*
X026781Y001386D02*
X041051Y001386D01*
X041051Y001485D02*
X034396Y001485D01*
X034248Y001485D02*
X034190Y001485D01*
X034190Y001583D02*
X034248Y001583D01*
X034248Y001682D02*
X034190Y001682D01*
X034190Y001781D02*
X034248Y001781D01*
X034248Y001879D02*
X035275Y001879D01*
X035248Y001906D02*
X035324Y001829D01*
X036318Y001829D01*
X036394Y001906D01*
X036394Y002899D01*
X036318Y002975D01*
X035324Y002975D01*
X035248Y002899D01*
X035248Y001906D01*
X035248Y001978D02*
X034607Y001978D01*
X034560Y002076D02*
X035248Y002076D01*
X035248Y002175D02*
X034469Y002175D01*
X034248Y002175D02*
X034190Y002175D01*
X034190Y002076D02*
X034248Y002076D01*
X034248Y001978D02*
X034190Y001978D01*
X033849Y001682D02*
X033781Y001682D01*
X033711Y001583D02*
X033912Y001583D01*
X034043Y001485D02*
X033557Y001485D01*
X033306Y001485D02*
X032770Y001485D01*
X032924Y001583D02*
X033153Y001583D01*
X033083Y001682D02*
X032993Y001682D01*
X033032Y001781D02*
X033044Y001781D01*
X033032Y001879D02*
X033044Y001879D01*
X033024Y001978D02*
X033064Y001978D01*
X033432Y001852D02*
X034764Y003185D01*
X034801Y003273D02*
X034801Y003652D01*
X034473Y003653D02*
X034431Y003653D01*
X034431Y003751D02*
X034487Y003751D01*
X034534Y003850D02*
X034431Y003850D01*
X034431Y003948D02*
X034658Y003948D01*
X034486Y003554D02*
X034431Y003554D01*
X034431Y003456D02*
X034533Y003456D01*
X034621Y003357D02*
X034394Y003357D01*
X034305Y003259D02*
X034584Y003259D01*
X034584Y003259D01*
X034764Y003185D02*
X034777Y003200D01*
X034787Y003216D01*
X034795Y003234D01*
X034799Y003253D01*
X034801Y003273D01*
X034981Y003259D02*
X041051Y003259D01*
X041051Y003357D02*
X034981Y003357D01*
X035068Y003456D02*
X041051Y003456D01*
X041051Y003554D02*
X035115Y003554D01*
X034959Y003160D02*
X041051Y003160D01*
X041051Y003062D02*
X034896Y003062D01*
X034839Y003005D02*
X034839Y003005D01*
X034797Y002963D02*
X035312Y002963D01*
X035248Y002864D02*
X034699Y002864D01*
X034600Y002766D02*
X035248Y002766D01*
X035248Y002667D02*
X034501Y002667D01*
X034403Y002569D02*
X035248Y002569D01*
X035248Y002470D02*
X034304Y002470D01*
X034206Y002372D02*
X035248Y002372D01*
X035248Y002273D02*
X034107Y002273D01*
X033894Y002569D02*
X033615Y002569D01*
X033517Y002470D02*
X033795Y002470D01*
X033697Y002372D02*
X033418Y002372D01*
X033320Y002273D02*
X033598Y002273D01*
X033714Y002667D02*
X033992Y002667D01*
X034091Y002766D02*
X033813Y002766D01*
X033911Y002864D02*
X034190Y002864D01*
X034288Y002963D02*
X034010Y002963D01*
X034108Y003062D02*
X034387Y003062D01*
X034485Y003160D02*
X034207Y003160D01*
X034214Y003422D02*
X032644Y001852D01*
X032365Y001583D02*
X032136Y001583D01*
X032206Y001682D02*
X032296Y001682D01*
X032257Y001781D02*
X032245Y001781D01*
X032245Y001879D02*
X032257Y001879D01*
X032237Y001978D02*
X032277Y001978D01*
X031857Y001852D02*
X033664Y003659D01*
X033701Y003748D02*
X033701Y004152D01*
X033001Y004452D02*
X033001Y003835D01*
X032964Y003747D02*
X031070Y001852D01*
X031349Y001583D02*
X031578Y001583D01*
X031508Y001682D02*
X031418Y001682D01*
X031457Y001781D02*
X031470Y001781D01*
X031457Y001879D02*
X031470Y001879D01*
X031449Y001978D02*
X031490Y001978D01*
X030844Y002175D02*
X030508Y002175D01*
X030606Y002076D02*
X030746Y002076D01*
X030702Y001978D02*
X030650Y001978D01*
X030670Y001879D02*
X030682Y001879D01*
X030670Y001781D02*
X030682Y001781D01*
X030721Y001682D02*
X030631Y001682D01*
X030561Y001583D02*
X030791Y001583D01*
X030944Y001485D02*
X030408Y001485D01*
X031195Y001485D02*
X031732Y001485D01*
X031982Y001485D02*
X032519Y001485D01*
X031335Y002372D02*
X026781Y002372D01*
X026781Y002470D02*
X031433Y002470D01*
X031532Y002569D02*
X026781Y002569D01*
X026781Y002667D02*
X031630Y002667D01*
X031729Y002766D02*
X026781Y002766D01*
X026781Y002864D02*
X028975Y002864D01*
X028903Y002963D02*
X026781Y002963D01*
X026781Y003062D02*
X028873Y003062D01*
X028873Y003160D02*
X026781Y003160D01*
X026781Y003259D02*
X028910Y003259D01*
X028992Y003357D02*
X026781Y003357D01*
X026781Y003456D02*
X029300Y003456D01*
X029398Y003554D02*
X026781Y003554D01*
X026781Y003653D02*
X029497Y003653D01*
X029595Y003751D02*
X026781Y003751D01*
X026781Y003850D02*
X029694Y003850D01*
X029792Y003948D02*
X026801Y003948D01*
X026638Y004039D02*
X026625Y004024D01*
X026615Y004008D01*
X026607Y003990D01*
X026603Y003971D01*
X026601Y003951D01*
X026601Y001127D01*
X026599Y001107D01*
X026595Y001088D01*
X026587Y001070D01*
X026577Y001054D01*
X026564Y001039D01*
X026549Y001026D01*
X026533Y001016D01*
X026515Y001008D01*
X026496Y001004D01*
X026476Y001002D01*
X018926Y001002D01*
X018906Y001004D01*
X018887Y001008D01*
X018869Y001016D01*
X018853Y001026D01*
X018838Y001039D01*
X018825Y001054D01*
X018815Y001070D01*
X018807Y001088D01*
X018803Y001107D01*
X018801Y001127D01*
X018801Y006502D01*
X018473Y006511D02*
X015256Y006511D01*
X015231Y006609D02*
X018490Y006609D01*
X018542Y006708D02*
X015231Y006708D01*
X015231Y006806D02*
X018677Y006806D01*
X019059Y006708D02*
X019121Y006708D01*
X019112Y006609D02*
X019121Y006609D01*
X018621Y006215D02*
X015320Y006215D01*
X015329Y006314D02*
X018526Y006314D01*
X018483Y006412D02*
X015310Y006412D01*
X014815Y006024D02*
X014723Y006116D01*
X012952Y007595D02*
X011249Y007595D01*
X011320Y007624D02*
X011178Y007565D01*
X011024Y007565D01*
X010881Y007624D01*
X010772Y007733D01*
X010713Y007875D01*
X010713Y008029D01*
X010772Y008172D01*
X010881Y008281D01*
X011024Y008340D01*
X011178Y008340D01*
X011320Y008281D01*
X011429Y008172D01*
X011488Y008029D01*
X011488Y007875D01*
X011429Y007733D01*
X011320Y007624D01*
X011389Y007693D02*
X012812Y007693D01*
X012748Y007792D02*
X011454Y007792D01*
X011488Y007890D02*
X012713Y007890D01*
X012713Y007989D02*
X011488Y007989D01*
X011464Y008087D02*
X012737Y008087D01*
X012786Y008186D02*
X011415Y008186D01*
X011312Y008284D02*
X012890Y008284D01*
X010890Y008284D02*
X009337Y008284D01*
X009314Y008301D02*
X009257Y008330D01*
X009196Y008350D01*
X009133Y008360D01*
X009130Y008360D01*
X009130Y007981D01*
X009508Y007981D01*
X009508Y007984D01*
X009498Y008048D01*
X009478Y008109D01*
X009449Y008166D01*
X009412Y008218D01*
X009366Y008263D01*
X009314Y008301D01*
X009435Y008186D02*
X010786Y008186D01*
X010737Y008087D02*
X009485Y008087D01*
X009551Y008087D02*
X008651Y008087D01*
X008716Y008087D02*
X007464Y008087D01*
X007488Y007989D02*
X008694Y007989D01*
X008693Y007984D02*
X008693Y007981D01*
X009072Y007981D01*
X009072Y007924D01*
X008693Y007924D01*
X008693Y007920D01*
X008703Y007857D01*
X008723Y007796D01*
X008752Y007739D01*
X008790Y007687D01*
X008835Y007642D01*
X008887Y007604D01*
X008944Y007575D01*
X009005Y007555D01*
X009069Y007545D01*
X009072Y007545D01*
X009072Y007923D01*
X009130Y007923D01*
X009130Y007924D02*
X009130Y007981D01*
X009072Y007981D01*
X009072Y008360D01*
X009069Y008360D01*
X009005Y008350D01*
X008944Y008330D01*
X008887Y008301D01*
X008835Y008263D01*
X008790Y008218D01*
X008752Y008166D01*
X008723Y008109D01*
X008703Y008048D01*
X008693Y007984D01*
X008651Y007989D02*
X009551Y007989D01*
X009508Y007989D02*
X010713Y007989D01*
X010713Y007890D02*
X009503Y007890D01*
X009508Y007920D02*
X009508Y007924D01*
X009130Y007924D01*
X009130Y007923D02*
X009130Y007545D01*
X009133Y007545D01*
X009196Y007555D01*
X009257Y007575D01*
X009314Y007604D01*
X009366Y007642D01*
X009412Y007687D01*
X009449Y007739D01*
X009478Y007796D01*
X009498Y007857D01*
X009508Y007920D01*
X009551Y007890D02*
X008651Y007890D01*
X008698Y007890D02*
X007488Y007890D01*
X007454Y007792D02*
X008725Y007792D01*
X008651Y007792D02*
X009551Y007792D01*
X009476Y007792D02*
X010748Y007792D01*
X010812Y007693D02*
X009416Y007693D01*
X009551Y007693D02*
X008651Y007693D01*
X008651Y007595D02*
X009551Y007595D01*
X009551Y007502D02*
X008651Y007502D01*
X008651Y008402D01*
X009551Y008402D01*
X009551Y007502D01*
X009296Y007595D02*
X010952Y007595D01*
X009551Y008186D02*
X008651Y008186D01*
X008651Y008284D02*
X009551Y008284D01*
X009551Y008383D02*
X008651Y008383D01*
X008767Y008186D02*
X007415Y008186D01*
X007312Y008284D02*
X008865Y008284D01*
X009072Y008284D02*
X009130Y008284D01*
X009130Y008186D02*
X009072Y008186D01*
X009072Y008087D02*
X009130Y008087D01*
X009130Y007989D02*
X009072Y007989D01*
X009072Y007890D02*
X009130Y007890D01*
X009130Y007792D02*
X009072Y007792D01*
X009072Y007693D02*
X009130Y007693D01*
X009130Y007595D02*
X009072Y007595D01*
X008905Y007595D02*
X007249Y007595D01*
X007389Y007693D02*
X008785Y007693D01*
X006451Y008695D02*
X006520Y008862D01*
X006520Y009043D01*
X006451Y009210D01*
X006323Y009338D01*
X006156Y009407D01*
X005975Y009407D01*
X005808Y009338D01*
X005680Y009210D01*
X005611Y009043D01*
X005611Y008862D01*
X005680Y008695D01*
X005808Y008567D01*
X005975Y008498D01*
X006156Y008498D01*
X006323Y008567D01*
X006451Y008695D01*
X006435Y008679D02*
X014677Y008679D01*
X014673Y008580D02*
X006336Y008580D01*
X006485Y008777D02*
X014718Y008777D01*
X014810Y008876D02*
X006520Y008876D01*
X006520Y008974D02*
X025521Y008974D01*
X025521Y008876D02*
X015191Y008876D01*
X015284Y008777D02*
X025521Y008777D01*
X025521Y008679D02*
X015324Y008679D01*
X015329Y008580D02*
X022030Y008580D01*
X021863Y008481D02*
X015306Y008481D01*
X015245Y008383D02*
X021798Y008383D01*
X021771Y008284D02*
X015231Y008284D01*
X015231Y008186D02*
X021771Y008186D01*
X021812Y008087D02*
X015231Y008087D01*
X015231Y007989D02*
X021898Y007989D01*
X022760Y007792D02*
X023142Y007792D01*
X023028Y007693D02*
X022874Y007693D01*
X022918Y007595D02*
X022984Y007595D01*
X022973Y007496D02*
X022929Y007496D01*
X022912Y007397D02*
X022989Y007397D01*
X023021Y007299D02*
X022861Y007299D01*
X023201Y007351D02*
X023201Y006202D01*
X023381Y006511D02*
X032636Y006511D01*
X032739Y006609D02*
X023381Y006609D01*
X023201Y007351D02*
X023203Y007371D01*
X023207Y007390D01*
X023215Y007408D01*
X023225Y007424D01*
X023238Y007439D01*
X023237Y007439D02*
X023301Y007502D01*
X025716Y007922D02*
X025716Y007922D01*
X027601Y007852D02*
X027601Y007052D01*
X028417Y006905D02*
X028584Y006905D01*
X028507Y007003D02*
X028494Y007003D01*
X029965Y005131D02*
X026882Y005131D01*
X026923Y005032D02*
X029900Y005032D01*
X029873Y004934D02*
X027428Y004934D01*
X027530Y004835D02*
X029873Y004835D01*
X029914Y004737D02*
X027571Y004737D01*
X027579Y004638D02*
X030001Y004638D01*
X030021Y004540D02*
X027559Y004540D01*
X027504Y004441D02*
X030021Y004441D01*
X030021Y004343D02*
X027360Y004343D01*
X027097Y004244D02*
X030021Y004244D01*
X029989Y004146D02*
X026998Y004146D01*
X026900Y004047D02*
X029891Y004047D01*
X030164Y004066D02*
X030177Y004081D01*
X030187Y004097D01*
X030195Y004115D01*
X030199Y004134D01*
X030201Y004154D01*
X030201Y004902D01*
X030502Y005032D02*
X031916Y005032D01*
X031758Y005131D02*
X030436Y005131D01*
X030268Y005230D02*
X031696Y005230D01*
X032723Y004638D02*
X032673Y004518D01*
X032673Y004441D02*
X030381Y004441D01*
X030381Y004343D02*
X032691Y004343D01*
X032745Y004244D02*
X030381Y004244D01*
X030381Y004146D02*
X032821Y004146D01*
X032821Y004047D02*
X030361Y004047D01*
X030301Y003948D02*
X032821Y003948D01*
X032813Y003850D02*
X030203Y003850D01*
X030104Y003751D02*
X032714Y003751D01*
X032616Y003653D02*
X030006Y003653D01*
X029907Y003554D02*
X032517Y003554D01*
X032419Y003456D02*
X029809Y003456D01*
X029710Y003357D02*
X032320Y003357D01*
X032221Y003259D02*
X029612Y003259D01*
X029529Y003160D02*
X032123Y003160D01*
X032024Y003062D02*
X029529Y003062D01*
X029498Y002963D02*
X031926Y002963D01*
X031827Y002864D02*
X029427Y002864D01*
X029201Y003102D02*
X030164Y004066D01*
X030487Y004737D02*
X032830Y004737D01*
X034251Y005152D02*
X034251Y003510D01*
X034249Y003490D01*
X034245Y003471D01*
X034237Y003453D01*
X034227Y003437D01*
X034214Y003422D01*
X033664Y003660D02*
X033677Y003675D01*
X033687Y003691D01*
X033695Y003709D01*
X033699Y003728D01*
X033701Y003748D01*
X033001Y003835D02*
X032999Y003815D01*
X032995Y003796D01*
X032987Y003778D01*
X032977Y003762D01*
X032964Y003747D01*
X031236Y002273D02*
X026781Y002273D01*
X026781Y002175D02*
X026994Y002175D01*
X026833Y002076D02*
X026781Y002076D01*
X027184Y002190D02*
X027327Y002131D01*
X027436Y002022D01*
X027495Y001879D01*
X027454Y001978D02*
X027548Y001978D01*
X027620Y002076D02*
X027381Y002076D01*
X026877Y001485D02*
X026781Y001485D01*
X026301Y001377D02*
X026301Y004601D01*
X026337Y004689D02*
X026601Y004952D01*
X026907Y004835D02*
X026971Y004835D01*
X026931Y004737D02*
X026849Y004737D01*
X026923Y004638D02*
X026700Y004638D01*
X026884Y004540D02*
X026481Y004540D01*
X026301Y004601D02*
X026303Y004621D01*
X026307Y004640D01*
X026315Y004658D01*
X026325Y004674D01*
X026338Y004689D01*
X026481Y004441D02*
X026785Y004441D01*
X026687Y004343D02*
X026481Y004343D01*
X026481Y004244D02*
X026588Y004244D01*
X026489Y004146D02*
X026481Y004146D01*
X026637Y004039D02*
X027251Y004652D01*
X027073Y004934D02*
X026929Y004934D01*
X026788Y005230D02*
X030133Y005230D01*
X033354Y006511D02*
X035981Y006511D01*
X036225Y007496D02*
X041051Y007496D01*
X036151Y008186D02*
X036051Y008186D01*
X036051Y008284D02*
X036151Y008284D01*
X036151Y008383D02*
X036051Y008383D01*
X036051Y008481D02*
X036151Y008481D01*
X035612Y008876D02*
X028183Y008876D01*
X028365Y008974D02*
X028485Y008924D01*
X028616Y008924D01*
X028737Y008974D01*
X028829Y009066D01*
X028879Y009187D01*
X028879Y009318D01*
X028829Y009438D01*
X028858Y009368D02*
X035760Y009368D01*
X035670Y009270D02*
X028879Y009270D01*
X028872Y009171D02*
X035630Y009171D01*
X035601Y009073D02*
X028831Y009073D01*
X028736Y008974D02*
X035601Y008974D01*
X035849Y009565D02*
X028652Y009565D01*
X028449Y009565D02*
X028392Y009565D01*
X028294Y009664D02*
X035732Y009664D01*
X035659Y009763D02*
X028195Y009763D01*
X028097Y009861D02*
X035618Y009861D01*
X035601Y009960D02*
X027998Y009960D01*
X027899Y010058D02*
X035601Y010058D01*
X035624Y010157D02*
X027801Y010157D01*
X027702Y010255D02*
X035664Y010255D01*
X035745Y010354D02*
X027604Y010354D01*
X027505Y010452D02*
X035881Y010452D01*
X033616Y010551D02*
X027407Y010551D01*
X027379Y010649D02*
X033487Y010649D01*
X033437Y010748D02*
X027366Y010748D01*
X027321Y010846D02*
X033421Y010846D01*
X033421Y010945D02*
X027201Y010945D01*
X026900Y010945D02*
X026181Y010945D01*
X026181Y010846D02*
X026781Y010846D01*
X026735Y010748D02*
X026181Y010748D01*
X026181Y010649D02*
X026723Y010649D01*
X026716Y010551D02*
X026738Y010551D01*
X026829Y010354D02*
X026914Y010354D01*
X026829Y010255D02*
X027193Y010255D01*
X027292Y010157D02*
X026901Y010157D01*
X026999Y010058D02*
X027390Y010058D01*
X027489Y009960D02*
X027098Y009960D01*
X027197Y009861D02*
X027588Y009861D01*
X027686Y009763D02*
X027295Y009763D01*
X027394Y009664D02*
X027785Y009664D01*
X027883Y009565D02*
X027492Y009565D01*
X028414Y009289D02*
X027051Y010652D01*
X026285Y010551D02*
X026181Y010551D01*
X026181Y010452D02*
X026208Y010452D01*
X026206Y010157D02*
X026181Y010157D01*
X025521Y010157D02*
X025483Y010157D01*
X025480Y010149D02*
X025502Y010216D01*
X025513Y010286D01*
X025513Y010293D01*
X025092Y010293D01*
X025092Y010350D01*
X025513Y010350D01*
X025513Y010357D01*
X025502Y010427D01*
X025480Y010494D01*
X025448Y010557D01*
X025407Y010615D01*
X025356Y010665D01*
X025299Y010706D01*
X025236Y010739D01*
X025169Y010761D01*
X025099Y010772D01*
X025092Y010772D01*
X025092Y010351D01*
X025035Y010351D01*
X025035Y010772D01*
X025028Y010772D01*
X024958Y010761D01*
X024891Y010739D01*
X024828Y010706D01*
X024770Y010665D01*
X024720Y010615D01*
X024679Y010557D01*
X024659Y010520D01*
X024640Y010565D01*
X024520Y010686D01*
X024361Y010752D01*
X024190Y010752D01*
X024032Y010686D01*
X023911Y010565D01*
X023882Y010495D01*
X023853Y010565D01*
X023732Y010686D01*
X023574Y010752D01*
X023403Y010752D01*
X023245Y010686D01*
X023124Y010565D01*
X023095Y010495D01*
X023066Y010565D01*
X022945Y010686D01*
X022787Y010752D01*
X022616Y010752D01*
X022458Y010686D01*
X022337Y010565D01*
X022307Y010495D01*
X022278Y010565D01*
X022157Y010686D01*
X021999Y010752D01*
X021828Y010752D01*
X021815Y010746D01*
X019819Y012742D01*
X019779Y012838D01*
X019687Y012930D01*
X019566Y012980D01*
X019435Y012980D01*
X019315Y012930D01*
X019223Y012838D01*
X019173Y012718D01*
X019173Y012587D01*
X019223Y012466D01*
X019315Y012374D01*
X019435Y012324D01*
X019566Y012324D01*
X019580Y012330D01*
X021159Y010752D01*
X021041Y010752D01*
X020883Y010686D01*
X020762Y010565D01*
X020733Y010495D01*
X020703Y010565D01*
X020583Y010686D01*
X020424Y010752D01*
X020253Y010752D01*
X020095Y010686D01*
X019974Y010565D01*
X019945Y010495D01*
X019916Y010565D01*
X019795Y010686D01*
X019637Y010752D01*
X019466Y010752D01*
X019308Y010686D01*
X019187Y010565D01*
X019158Y010495D01*
X019129Y010565D01*
X019008Y010686D01*
X018850Y010752D01*
X018679Y010752D01*
X018521Y010686D01*
X018400Y010565D01*
X018370Y010495D01*
X018341Y010565D01*
X018220Y010686D01*
X018062Y010752D01*
X017891Y010752D01*
X017733Y010686D01*
X017612Y010565D01*
X017547Y010407D01*
X017547Y010236D01*
X017612Y010078D01*
X017733Y009957D01*
X017891Y009892D01*
X018062Y009892D01*
X018220Y009957D01*
X018341Y010078D01*
X018370Y010149D01*
X018400Y010078D01*
X018521Y009957D01*
X018679Y009892D01*
X018850Y009892D01*
X019008Y009957D01*
X019129Y010078D01*
X019158Y010149D01*
X019187Y010078D01*
X019308Y009957D01*
X019466Y009892D01*
X019637Y009892D01*
X019795Y009957D01*
X019916Y010078D01*
X019945Y010149D01*
X019974Y010078D01*
X020095Y009957D01*
X020253Y009892D01*
X020424Y009892D01*
X020583Y009957D01*
X020703Y010078D01*
X020733Y010149D01*
X020762Y010078D01*
X020883Y009957D01*
X021041Y009892D01*
X021212Y009892D01*
X021370Y009957D01*
X021491Y010078D01*
X021520Y010149D01*
X021549Y010078D01*
X021670Y009957D01*
X021828Y009892D01*
X021999Y009892D01*
X022157Y009957D01*
X022278Y010078D01*
X022307Y010149D01*
X022337Y010078D01*
X022458Y009957D01*
X022616Y009892D01*
X022787Y009892D01*
X022945Y009957D01*
X023066Y010078D01*
X023095Y010149D01*
X023124Y010078D01*
X023245Y009957D01*
X023403Y009892D01*
X023574Y009892D01*
X023732Y009957D01*
X023853Y010078D01*
X023882Y010149D01*
X023911Y010078D01*
X024032Y009957D01*
X024190Y009892D01*
X024361Y009892D01*
X024520Y009957D01*
X024640Y010078D01*
X024659Y010124D01*
X024679Y010086D01*
X024720Y010029D01*
X024770Y009978D01*
X024828Y009937D01*
X024891Y009905D01*
X024958Y009883D01*
X025028Y009872D01*
X025035Y009872D01*
X025035Y010293D01*
X025092Y010293D01*
X025092Y009872D01*
X025099Y009872D01*
X025169Y009883D01*
X025236Y009905D01*
X025299Y009937D01*
X025356Y009978D01*
X025407Y010029D01*
X025448Y010086D01*
X025480Y010149D01*
X025521Y010058D02*
X025428Y010058D01*
X025521Y009960D02*
X025331Y009960D01*
X025521Y009861D02*
X016973Y009861D01*
X016937Y009824D02*
X017029Y009916D01*
X017079Y010037D01*
X017079Y010168D01*
X017029Y010288D01*
X016937Y010380D01*
X016816Y010430D01*
X016685Y010430D01*
X016680Y010428D01*
X016467Y010640D01*
X016467Y010640D01*
X016415Y010693D01*
X016400Y010708D01*
X016362Y010746D01*
X016348Y010746D01*
X016283Y010772D01*
X016274Y010782D01*
X016179Y010782D01*
X016124Y010782D01*
X004256Y010782D01*
X004230Y010808D01*
X004220Y010819D01*
X003372Y011667D01*
X003388Y011706D01*
X003388Y011861D01*
X003329Y012003D01*
X003220Y012112D01*
X003078Y012171D01*
X002924Y012171D01*
X002781Y012112D01*
X002672Y012003D01*
X002613Y011861D01*
X002613Y011706D01*
X002672Y011564D01*
X002781Y011455D01*
X002924Y011396D01*
X003078Y011396D01*
X003117Y011412D01*
X003195Y011335D01*
X003078Y011384D01*
X002924Y011384D01*
X002781Y011325D01*
X002672Y011216D01*
X002613Y011073D01*
X002613Y010919D01*
X002672Y010777D01*
X002781Y010668D01*
X002924Y010609D01*
X003078Y010609D01*
X003220Y010668D01*
X003329Y010777D01*
X003388Y010919D01*
X003388Y011073D01*
X003340Y011190D01*
X003965Y010564D01*
X003976Y010554D01*
X004071Y010459D01*
X004085Y010459D01*
X004149Y010432D01*
X004159Y010422D01*
X016124Y010422D01*
X016176Y010422D01*
X016213Y010386D01*
X016425Y010174D01*
X016423Y010168D01*
X016423Y010037D01*
X016473Y009916D01*
X016565Y009824D01*
X016685Y009774D01*
X016816Y009774D01*
X016937Y009824D01*
X017047Y009960D02*
X017731Y009960D01*
X017632Y010058D02*
X017079Y010058D01*
X017079Y010157D02*
X017580Y010157D01*
X017547Y010255D02*
X017043Y010255D01*
X016963Y010354D02*
X017547Y010354D01*
X017566Y010452D02*
X016655Y010452D01*
X016557Y010551D02*
X017606Y010551D01*
X017696Y010649D02*
X016458Y010649D01*
X016343Y010748D02*
X017882Y010748D01*
X018071Y010748D02*
X018670Y010748D01*
X018859Y010748D02*
X019457Y010748D01*
X019646Y010748D02*
X020245Y010748D01*
X020433Y010748D02*
X021032Y010748D01*
X021064Y010846D02*
X004192Y010846D01*
X004146Y010639D02*
X004161Y010626D01*
X004177Y010616D01*
X004195Y010608D01*
X004214Y010604D01*
X004234Y010602D01*
X016199Y010602D01*
X016287Y010566D02*
X016751Y010102D01*
X016528Y009861D02*
X016197Y009861D01*
X016280Y009778D02*
X015706Y010352D01*
X015692Y010352D01*
X015627Y010379D01*
X015617Y010389D01*
X015543Y010389D01*
X015468Y010389D01*
X003346Y010389D01*
X003329Y010428D01*
X003220Y010537D01*
X003078Y010596D01*
X002924Y010596D01*
X002781Y010537D01*
X002672Y010428D01*
X002613Y010286D01*
X002613Y010132D01*
X002672Y009989D01*
X002781Y009880D01*
X002923Y009821D01*
X002905Y009819D01*
X002844Y009799D01*
X002787Y009770D01*
X002735Y009732D01*
X002690Y009687D01*
X002652Y009635D01*
X002623Y009578D01*
X002603Y009517D01*
X002593Y009453D01*
X002593Y009450D01*
X002972Y009450D01*
X002972Y009392D01*
X003030Y009392D01*
X003030Y009450D01*
X003408Y009450D01*
X003408Y009453D01*
X003398Y009517D01*
X003378Y009578D01*
X003349Y009635D01*
X003312Y009687D01*
X003266Y009732D01*
X003214Y009770D01*
X003157Y009799D01*
X003096Y009819D01*
X003078Y009821D01*
X003220Y009880D01*
X003329Y009989D01*
X003346Y010029D01*
X015468Y010029D01*
X015520Y010029D01*
X016025Y009524D01*
X016023Y009518D01*
X016023Y009387D01*
X016073Y009266D01*
X016165Y009174D01*
X016285Y009124D01*
X016416Y009124D01*
X016537Y009174D01*
X016629Y009266D01*
X016679Y009387D01*
X016679Y009518D01*
X016629Y009638D01*
X016537Y009730D01*
X016416Y009780D01*
X016285Y009780D01*
X016280Y009778D01*
X016459Y009763D02*
X025521Y009763D01*
X025521Y009664D02*
X016603Y009664D01*
X016659Y009565D02*
X025521Y009565D01*
X025521Y009467D02*
X016679Y009467D01*
X016671Y009368D02*
X025521Y009368D01*
X025521Y009270D02*
X016630Y009270D01*
X016529Y009171D02*
X025521Y009171D01*
X025521Y009073D02*
X006508Y009073D01*
X006467Y009171D02*
X016172Y009171D01*
X016071Y009270D02*
X006391Y009270D01*
X006249Y009368D02*
X016030Y009368D01*
X016023Y009467D02*
X003406Y009467D01*
X003408Y009392D02*
X003030Y009392D01*
X003030Y009014D01*
X003033Y009014D01*
X003096Y009024D01*
X003157Y009044D01*
X003214Y009073D01*
X005623Y009073D01*
X005611Y008974D02*
X001801Y008974D01*
X001801Y008876D02*
X005611Y008876D01*
X005646Y008777D02*
X001801Y008777D01*
X001801Y008679D02*
X005696Y008679D01*
X005795Y008580D02*
X001801Y008580D01*
X001801Y008481D02*
X014696Y008481D01*
X016351Y009452D02*
X015631Y010172D01*
X015543Y010209D02*
X003001Y010209D01*
X002642Y010354D02*
X001801Y010354D01*
X001801Y010452D02*
X002696Y010452D01*
X002814Y010551D02*
X001801Y010551D01*
X001801Y010649D02*
X002825Y010649D01*
X002701Y010748D02*
X001801Y010748D01*
X001801Y010846D02*
X002643Y010846D01*
X002613Y010945D02*
X001801Y010945D01*
X001801Y011044D02*
X002613Y011044D01*
X002642Y011142D02*
X001801Y011142D01*
X001801Y011241D02*
X002697Y011241D01*
X002817Y011339D02*
X001801Y011339D01*
X001801Y011438D02*
X002823Y011438D01*
X002700Y011536D02*
X001801Y011536D01*
X001801Y011635D02*
X002643Y011635D01*
X002613Y011733D02*
X001801Y011733D01*
X001801Y011832D02*
X002613Y011832D01*
X002642Y011930D02*
X001801Y011930D01*
X001801Y012029D02*
X002698Y012029D01*
X002819Y012128D02*
X001801Y012128D01*
X001801Y012226D02*
X019684Y012226D01*
X019783Y012128D02*
X003183Y012128D01*
X003303Y012029D02*
X019881Y012029D01*
X019980Y011930D02*
X003359Y011930D01*
X003388Y011832D02*
X020078Y011832D01*
X020177Y011733D02*
X003388Y011733D01*
X003404Y011635D02*
X020275Y011635D01*
X020374Y011536D02*
X003502Y011536D01*
X003601Y011438D02*
X020472Y011438D01*
X020571Y011339D02*
X003700Y011339D01*
X003798Y011241D02*
X020669Y011241D01*
X020768Y011142D02*
X003897Y011142D01*
X003995Y011044D02*
X020867Y011044D01*
X020965Y010945D02*
X004094Y010945D01*
X004145Y010639D02*
X003001Y011783D01*
X003185Y011339D02*
X003190Y011339D01*
X003360Y011142D02*
X003388Y011142D01*
X003388Y011044D02*
X003486Y011044D01*
X003388Y010945D02*
X003585Y010945D01*
X003683Y010846D02*
X003358Y010846D01*
X003301Y010748D02*
X003782Y010748D01*
X003880Y010649D02*
X003176Y010649D01*
X003187Y010551D02*
X003979Y010551D01*
X004101Y010452D02*
X003305Y010452D01*
X003300Y009960D02*
X015589Y009960D01*
X015631Y010172D02*
X015616Y010185D01*
X015600Y010195D01*
X015582Y010203D01*
X015563Y010207D01*
X015543Y010209D01*
X015687Y010354D02*
X016245Y010354D01*
X016213Y010386D02*
X016213Y010386D01*
X016287Y010565D02*
X016272Y010578D01*
X016256Y010588D01*
X016238Y010596D01*
X016219Y010600D01*
X016199Y010602D01*
X016343Y010255D02*
X015802Y010255D01*
X015901Y010157D02*
X016423Y010157D01*
X016423Y010058D02*
X015999Y010058D01*
X016098Y009960D02*
X016455Y009960D01*
X015786Y009763D02*
X003224Y009763D01*
X003174Y009861D02*
X015688Y009861D01*
X015885Y009664D02*
X003328Y009664D01*
X003382Y009565D02*
X015983Y009565D01*
X018223Y009960D02*
X018518Y009960D01*
X018420Y010058D02*
X018321Y010058D01*
X019010Y009960D02*
X019306Y009960D01*
X019207Y010058D02*
X019109Y010058D01*
X019798Y009960D02*
X020093Y009960D01*
X019994Y010058D02*
X019896Y010058D01*
X020585Y009960D02*
X020880Y009960D01*
X020782Y010058D02*
X020684Y010058D01*
X021372Y009960D02*
X021668Y009960D01*
X021569Y010058D02*
X021471Y010058D01*
X022160Y009960D02*
X022455Y009960D01*
X022357Y010058D02*
X022258Y010058D01*
X022947Y009960D02*
X023243Y009960D01*
X023144Y010058D02*
X023046Y010058D01*
X023072Y010551D02*
X023118Y010551D01*
X023208Y010649D02*
X022981Y010649D01*
X022796Y010748D02*
X023394Y010748D01*
X023583Y010748D02*
X024182Y010748D01*
X024370Y010748D02*
X024919Y010748D01*
X025035Y010748D02*
X025092Y010748D01*
X025092Y010649D02*
X025035Y010649D01*
X025035Y010551D02*
X025092Y010551D01*
X025092Y010452D02*
X025035Y010452D01*
X025035Y010354D02*
X025092Y010354D01*
X025092Y010255D02*
X025035Y010255D01*
X025035Y010157D02*
X025092Y010157D01*
X025092Y010058D02*
X025035Y010058D01*
X025035Y009960D02*
X025092Y009960D01*
X024796Y009960D02*
X024522Y009960D01*
X024621Y010058D02*
X024699Y010058D01*
X024030Y009960D02*
X023735Y009960D01*
X023833Y010058D02*
X023931Y010058D01*
X023906Y010551D02*
X023859Y010551D01*
X023769Y010649D02*
X023996Y010649D01*
X024556Y010649D02*
X024755Y010649D01*
X024675Y010551D02*
X024646Y010551D01*
X025208Y010748D02*
X025521Y010748D01*
X025521Y010846D02*
X021714Y010846D01*
X021813Y010748D02*
X021819Y010748D01*
X022008Y010748D02*
X022607Y010748D01*
X022421Y010649D02*
X022194Y010649D01*
X022284Y010551D02*
X022331Y010551D01*
X021616Y010945D02*
X025521Y010945D01*
X025521Y011044D02*
X023213Y011044D01*
X022989Y011044D02*
X021517Y011044D01*
X021418Y011142D02*
X022847Y011142D01*
X022792Y011241D02*
X021320Y011241D01*
X021221Y011339D02*
X022773Y011339D01*
X022781Y011438D02*
X021123Y011438D01*
X021024Y011536D02*
X022822Y011536D01*
X022925Y011635D02*
X020926Y011635D01*
X020827Y011733D02*
X026015Y011733D01*
X025917Y011635D02*
X023276Y011635D01*
X025372Y010649D02*
X025521Y010649D01*
X025521Y010551D02*
X025452Y010551D01*
X025494Y010452D02*
X025521Y010452D01*
X025513Y010354D02*
X025521Y010354D01*
X025508Y010255D02*
X025521Y010255D01*
X025521Y011064D02*
X025521Y011064D01*
X026259Y011044D02*
X033421Y011044D01*
X033421Y011142D02*
X026357Y011142D01*
X026456Y011241D02*
X033396Y011241D01*
X033297Y011339D02*
X026554Y011339D01*
X026653Y011438D02*
X033199Y011438D01*
X033100Y011536D02*
X026751Y011536D01*
X026809Y011635D02*
X033002Y011635D01*
X032903Y011733D02*
X026831Y011733D01*
X026825Y011832D02*
X032805Y011832D01*
X032706Y011930D02*
X026784Y011930D01*
X026691Y012029D02*
X032615Y012029D01*
X032575Y012128D02*
X020433Y012128D01*
X020334Y012226D02*
X032571Y012226D01*
X032594Y012325D02*
X020236Y012325D01*
X020137Y012423D02*
X032655Y012423D01*
X032810Y012522D02*
X020039Y012522D01*
X019940Y012620D02*
X041051Y012620D01*
X041001Y012620D02*
X036733Y012620D01*
X036831Y012522D02*
X041001Y012522D01*
X041051Y012522D02*
X032992Y012522D01*
X033147Y012423D02*
X041051Y012423D01*
X041001Y012423D02*
X036930Y012423D01*
X036978Y012376D02*
X035201Y014152D01*
X036897Y014152D01*
X036946Y014157D01*
X036993Y014171D01*
X037036Y014194D01*
X037074Y014226D01*
X038778Y015929D01*
X038815Y015960D01*
X038859Y015983D01*
X038906Y015998D01*
X038954Y016002D01*
X040751Y016002D01*
X040800Y015998D01*
X040846Y015983D01*
X040890Y015960D01*
X040928Y015929D01*
X040959Y015891D01*
X040982Y015848D01*
X040996Y015801D01*
X041001Y015752D01*
X041001Y012302D01*
X037154Y012302D01*
X037106Y012307D01*
X037059Y012321D01*
X037015Y012344D01*
X036978Y012376D01*
X037053Y012325D02*
X041001Y012325D01*
X041051Y012325D02*
X033245Y012325D01*
X033344Y012226D02*
X041051Y012226D01*
X041051Y012128D02*
X033442Y012128D01*
X033541Y012029D02*
X041051Y012029D01*
X041051Y011930D02*
X033639Y011930D01*
X033738Y011832D02*
X041051Y011832D01*
X041051Y011733D02*
X033836Y011733D01*
X033935Y011635D02*
X041051Y011635D01*
X041051Y011536D02*
X034009Y011536D01*
X033992Y011577D02*
X033992Y011577D01*
X033957Y011612D02*
X033957Y011612D01*
X036634Y012719D02*
X039739Y012719D01*
X019842Y012719D01*
X019788Y012817D02*
X039607Y012817D01*
X036536Y012817D01*
X036437Y012916D02*
X039546Y012916D01*
X019701Y012916D01*
X019300Y012916D02*
X001801Y012916D01*
X001801Y013014D02*
X039513Y013014D01*
X036339Y013014D01*
X036240Y013113D02*
X039513Y013113D01*
X001801Y013113D01*
X001801Y013212D02*
X002857Y013212D01*
X002924Y013184D02*
X003078Y013184D01*
X003220Y013243D01*
X003329Y013352D01*
X003388Y013494D01*
X003388Y013648D01*
X003329Y013791D01*
X003220Y013900D01*
X003078Y013959D01*
X002924Y013959D01*
X002781Y013900D01*
X002672Y013791D01*
X002613Y013648D01*
X002613Y013494D01*
X002672Y013352D01*
X002781Y013243D01*
X002924Y013184D01*
X003145Y013212D02*
X039540Y013212D01*
X036142Y013212D01*
X036043Y013310D02*
X039592Y013310D01*
X003288Y013310D01*
X003353Y013409D02*
X039703Y013409D01*
X035945Y013409D01*
X035846Y013507D02*
X039737Y013507D01*
X028750Y013507D01*
X028871Y013606D02*
X039606Y013606D01*
X035747Y013606D01*
X035649Y013704D02*
X039545Y013704D01*
X028917Y013704D01*
X028931Y013803D02*
X039513Y013803D01*
X035550Y013803D01*
X035452Y013901D02*
X039513Y013901D01*
X028917Y013901D01*
X028870Y014000D02*
X039540Y014000D01*
X035353Y014000D01*
X035255Y014098D02*
X039593Y014098D01*
X028748Y014098D01*
X027538Y013507D02*
X003388Y013507D01*
X003388Y013606D02*
X027381Y013606D01*
X027438Y013549D02*
X027438Y013549D01*
X027305Y013704D02*
X003365Y013704D01*
X003317Y013803D02*
X027271Y013803D01*
X027271Y013901D02*
X003216Y013901D01*
X003147Y014000D02*
X027305Y014000D01*
X027380Y014098D02*
X003289Y014098D01*
X003329Y014139D02*
X003388Y014282D01*
X003388Y014436D01*
X003329Y014578D01*
X003220Y014687D01*
X003078Y014746D01*
X002924Y014746D01*
X002781Y014687D01*
X002672Y014578D01*
X002613Y014436D01*
X002613Y014282D01*
X002672Y014139D01*
X002781Y014030D01*
X002924Y013971D01*
X003078Y013971D01*
X003220Y014030D01*
X003329Y014139D01*
X003353Y014197D02*
X026259Y014197D01*
X026176Y014296D02*
X003388Y014296D01*
X003388Y014394D02*
X026152Y014394D01*
X026151Y014493D02*
X003365Y014493D01*
X003316Y014591D02*
X026151Y014591D01*
X026151Y014690D02*
X003214Y014690D01*
X003149Y014788D02*
X026151Y014788D01*
X026151Y014887D02*
X003289Y014887D01*
X003329Y014927D02*
X003388Y015069D01*
X003388Y015223D01*
X003329Y015366D01*
X003220Y015475D01*
X003078Y015534D01*
X002924Y015534D01*
X002781Y015475D01*
X002672Y015366D01*
X002613Y015223D01*
X002613Y015069D01*
X002672Y014927D01*
X002781Y014818D01*
X002924Y014759D01*
X003078Y014759D01*
X003220Y014818D01*
X003329Y014927D01*
X003354Y014985D02*
X026151Y014985D01*
X026151Y015084D02*
X003388Y015084D01*
X003388Y015182D02*
X026151Y015182D01*
X026151Y015281D02*
X003364Y015281D01*
X003315Y015379D02*
X026151Y015379D01*
X026151Y015478D02*
X021340Y015478D01*
X021419Y015577D02*
X026151Y015577D01*
X026151Y015675D02*
X021454Y015675D01*
X021454Y015774D02*
X026151Y015774D01*
X026151Y015872D02*
X021422Y015872D01*
X021348Y015971D02*
X026151Y015971D01*
X026151Y016069D02*
X021306Y016069D01*
X021306Y016168D02*
X026151Y016168D01*
X026151Y016266D02*
X021306Y016266D01*
X021306Y016365D02*
X026151Y016365D01*
X026151Y016463D02*
X021306Y016463D01*
X021306Y016562D02*
X026151Y016562D01*
X026151Y016661D02*
X021306Y016661D01*
X021306Y016759D02*
X026151Y016759D01*
X026151Y016858D02*
X021306Y016858D01*
X021306Y016956D02*
X026151Y016956D01*
X026151Y017055D02*
X021306Y017055D01*
X021306Y017153D02*
X026151Y017153D01*
X026151Y017252D02*
X021306Y017252D01*
X021306Y017350D02*
X026151Y017350D01*
X026151Y017449D02*
X021306Y017449D01*
X021306Y017547D02*
X026151Y017547D01*
X026151Y017646D02*
X021306Y017646D01*
X021306Y017745D02*
X026151Y017745D01*
X026151Y017843D02*
X021306Y017843D01*
X021306Y017942D02*
X026151Y017942D01*
X026151Y018040D02*
X021306Y018040D01*
X021306Y018139D02*
X026151Y018139D01*
X026151Y018237D02*
X021306Y018237D01*
X021306Y018336D02*
X026151Y018336D01*
X026151Y018434D02*
X021306Y018434D01*
X021306Y018533D02*
X026151Y018533D01*
X026151Y018631D02*
X025320Y018631D01*
X025418Y018730D02*
X026151Y018730D01*
X026151Y018829D02*
X025465Y018829D01*
X025493Y018927D02*
X026151Y018927D01*
X026151Y019026D02*
X025493Y019026D01*
X025470Y019124D02*
X026149Y019124D01*
X026119Y019223D02*
X025430Y019223D01*
X025333Y019321D02*
X026019Y019321D01*
X026951Y019802D02*
X015254Y019802D01*
X015206Y019798D01*
X015159Y019783D01*
X015115Y019760D01*
X015078Y019729D01*
X011824Y016476D01*
X011786Y016444D01*
X011743Y016421D01*
X011696Y016407D01*
X011647Y016402D01*
X005254Y016402D01*
X005206Y016407D01*
X005159Y016421D01*
X005115Y016444D01*
X005078Y016476D01*
X002624Y018929D01*
X002593Y018967D01*
X002570Y019010D01*
X002556Y019057D01*
X002551Y019106D01*
X002551Y019602D01*
X002556Y019651D01*
X002570Y019698D01*
X002593Y019741D01*
X002624Y019779D01*
X002662Y019810D01*
X002705Y019833D01*
X002752Y019848D01*
X002801Y019852D01*
X004297Y019852D01*
X004346Y019857D01*
X004393Y019871D01*
X004436Y019894D01*
X004474Y019926D01*
X005651Y021102D01*
X040896Y021102D01*
X040896Y021101D01*
X040901Y021052D01*
X040901Y019256D01*
X040896Y019207D01*
X040882Y019160D01*
X040859Y019117D01*
X040828Y019079D01*
X036624Y014876D01*
X036586Y014844D01*
X036543Y014821D01*
X036496Y014807D01*
X036447Y014802D01*
X027451Y014802D01*
X027402Y014807D01*
X027355Y014821D01*
X027312Y014844D01*
X027274Y014876D01*
X027243Y014913D01*
X027220Y014957D01*
X027206Y015004D01*
X027201Y015052D01*
X027201Y019552D01*
X027196Y019601D01*
X027182Y019648D01*
X027159Y019691D01*
X027128Y019729D01*
X027090Y019760D01*
X027046Y019783D01*
X027000Y019798D01*
X026951Y019802D01*
X027139Y019715D02*
X034721Y019715D01*
X034721Y019617D02*
X027191Y019617D01*
X027201Y019518D02*
X034721Y019518D01*
X034721Y019420D02*
X027201Y019420D01*
X027201Y019321D02*
X034721Y019321D01*
X034721Y019223D02*
X027201Y019223D01*
X027201Y019124D02*
X034721Y019124D01*
X034721Y019026D02*
X027201Y019026D01*
X027201Y018927D02*
X034721Y018927D01*
X034721Y018829D02*
X027201Y018829D01*
X027201Y018730D02*
X034721Y018730D01*
X034721Y018631D02*
X027201Y018631D01*
X027201Y018533D02*
X034721Y018533D01*
X034721Y018434D02*
X027201Y018434D01*
X027201Y018336D02*
X034721Y018336D01*
X034721Y018237D02*
X027201Y018237D01*
X027201Y018139D02*
X034721Y018139D01*
X034721Y018052D02*
X034717Y018009D01*
X034684Y017930D01*
X034684Y017930D01*
X034623Y017869D01*
X034544Y017837D01*
X034501Y017832D01*
X034445Y017832D01*
X032756Y017832D01*
X032739Y017832D01*
X032645Y017832D01*
X032605Y017832D01*
X032429Y017759D01*
X032294Y017624D01*
X032221Y017448D01*
X032221Y017448D01*
X032221Y017408D01*
X032221Y017408D01*
X032221Y016984D01*
X032173Y016868D01*
X032173Y016737D01*
X032223Y016616D01*
X032315Y016524D01*
X032435Y016474D01*
X032566Y016474D01*
X032687Y016524D01*
X032779Y016616D01*
X032829Y016737D01*
X032829Y016868D01*
X032781Y016984D01*
X032781Y017272D01*
X034445Y017272D01*
X034501Y017272D01*
X034656Y017272D01*
X034943Y017391D01*
X035162Y017611D01*
X035281Y017897D01*
X035281Y017997D01*
X035281Y019997D01*
X035281Y020044D01*
X035281Y020052D01*
X035281Y020207D01*
X035281Y020208D01*
X039265Y020208D01*
X039222Y020166D02*
X039163Y020023D01*
X039163Y019869D01*
X039222Y019727D01*
X039331Y019618D01*
X039474Y019559D01*
X039628Y019559D01*
X039770Y019618D01*
X039879Y019727D01*
X039938Y019869D01*
X039938Y020023D01*
X039879Y020166D01*
X039770Y020275D01*
X039628Y020334D01*
X039474Y020334D01*
X039331Y020275D01*
X039222Y020166D01*
X039199Y020110D02*
X035281Y020110D01*
X035281Y020208D02*
X035162Y020494D01*
X035162Y020494D01*
X034943Y020714D01*
X034943Y020714D01*
X034705Y020812D01*
X034687Y020830D01*
X034566Y020880D01*
X034435Y020880D01*
X034315Y020830D01*
X034223Y020738D01*
X034173Y020618D01*
X034173Y020487D01*
X034223Y020366D01*
X034315Y020274D01*
X034435Y020224D01*
X034566Y020224D01*
X034608Y020242D01*
X034623Y020235D01*
X034684Y020175D01*
X034717Y020095D01*
X034721Y020052D01*
X034721Y020044D01*
X034721Y019997D01*
X034721Y018052D01*
X034720Y018040D02*
X027201Y018040D01*
X027201Y017942D02*
X034689Y017942D01*
X034559Y017843D02*
X027201Y017843D01*
X027201Y017745D02*
X032414Y017745D01*
X032429Y017759D02*
X032429Y017759D01*
X032316Y017646D02*
X027201Y017646D01*
X027201Y017547D02*
X032262Y017547D01*
X032294Y017624D02*
X032294Y017624D01*
X032221Y017449D02*
X027201Y017449D01*
X027201Y017350D02*
X032221Y017350D01*
X032221Y017252D02*
X027201Y017252D01*
X027201Y017153D02*
X032221Y017153D01*
X032221Y017055D02*
X027201Y017055D01*
X027201Y016956D02*
X032209Y016956D01*
X032173Y016858D02*
X027201Y016858D01*
X027201Y016759D02*
X032173Y016759D01*
X032204Y016661D02*
X027201Y016661D01*
X027201Y016562D02*
X032277Y016562D01*
X032724Y016562D02*
X038310Y016562D01*
X038212Y016463D02*
X027201Y016463D01*
X027201Y016365D02*
X038113Y016365D01*
X038015Y016266D02*
X027201Y016266D01*
X027201Y016168D02*
X037916Y016168D01*
X037818Y016069D02*
X027201Y016069D01*
X027201Y015971D02*
X037719Y015971D01*
X037621Y015872D02*
X027201Y015872D01*
X027201Y015774D02*
X037522Y015774D01*
X037424Y015675D02*
X027201Y015675D01*
X027201Y015577D02*
X037325Y015577D01*
X037226Y015478D02*
X027201Y015478D01*
X027201Y015379D02*
X037128Y015379D01*
X037029Y015281D02*
X027201Y015281D01*
X027201Y015182D02*
X036931Y015182D01*
X036832Y015084D02*
X027201Y015084D01*
X027211Y014985D02*
X036734Y014985D01*
X036635Y014887D02*
X027265Y014887D01*
X032797Y016661D02*
X038409Y016661D01*
X038508Y016759D02*
X032829Y016759D01*
X032829Y016858D02*
X038606Y016858D01*
X038705Y016956D02*
X032792Y016956D01*
X032781Y017055D02*
X038803Y017055D01*
X038902Y017153D02*
X032781Y017153D01*
X032781Y017252D02*
X039000Y017252D01*
X039099Y017350D02*
X034844Y017350D01*
X034943Y017391D02*
X034943Y017391D01*
X035000Y017449D02*
X039197Y017449D01*
X039296Y017547D02*
X035099Y017547D01*
X035177Y017646D02*
X039394Y017646D01*
X039493Y017745D02*
X035217Y017745D01*
X035258Y017843D02*
X039591Y017843D01*
X039690Y017942D02*
X035281Y017942D01*
X035281Y018040D02*
X039789Y018040D01*
X039887Y018139D02*
X035281Y018139D01*
X035281Y018237D02*
X039986Y018237D01*
X040084Y018336D02*
X035281Y018336D01*
X035281Y018434D02*
X040183Y018434D01*
X040281Y018533D02*
X035281Y018533D01*
X035281Y018631D02*
X040380Y018631D01*
X040478Y018730D02*
X035281Y018730D01*
X035281Y018829D02*
X039335Y018829D01*
X039331Y018830D02*
X039474Y018771D01*
X039628Y018771D01*
X039770Y018830D01*
X039879Y018939D01*
X039938Y019082D01*
X039938Y019236D01*
X039879Y019378D01*
X039770Y019487D01*
X039628Y019546D01*
X039474Y019546D01*
X039331Y019487D01*
X039222Y019378D01*
X039163Y019236D01*
X039163Y019082D01*
X039222Y018939D01*
X039331Y018830D01*
X039234Y018927D02*
X035281Y018927D01*
X035281Y019026D02*
X039186Y019026D01*
X039163Y019124D02*
X035281Y019124D01*
X035281Y019223D02*
X039163Y019223D01*
X039199Y019321D02*
X035281Y019321D01*
X035281Y019420D02*
X039264Y019420D01*
X039407Y019518D02*
X035281Y019518D01*
X035281Y019617D02*
X039333Y019617D01*
X039233Y019715D02*
X035281Y019715D01*
X035281Y019814D02*
X039186Y019814D01*
X039163Y019912D02*
X035281Y019912D01*
X035281Y020011D02*
X039163Y020011D01*
X039409Y020307D02*
X035240Y020307D01*
X035199Y020405D02*
X040901Y020405D01*
X040901Y020307D02*
X039693Y020307D01*
X039837Y020208D02*
X040901Y020208D01*
X040901Y020110D02*
X039902Y020110D01*
X039938Y020011D02*
X040901Y020011D01*
X040901Y019912D02*
X039938Y019912D01*
X039915Y019814D02*
X040901Y019814D01*
X040901Y019715D02*
X039868Y019715D01*
X039769Y019617D02*
X040901Y019617D01*
X040901Y019518D02*
X039695Y019518D01*
X039838Y019420D02*
X040901Y019420D01*
X040901Y019321D02*
X039903Y019321D01*
X039938Y019223D02*
X040898Y019223D01*
X040862Y019124D02*
X039938Y019124D01*
X039915Y019026D02*
X040774Y019026D01*
X040675Y018927D02*
X039867Y018927D01*
X039766Y018829D02*
X040577Y018829D01*
X040901Y020504D02*
X035152Y020504D01*
X035054Y020602D02*
X040901Y020602D01*
X040901Y020701D02*
X034955Y020701D01*
X034735Y020799D02*
X040901Y020799D01*
X040901Y020898D02*
X005446Y020898D01*
X005348Y020799D02*
X034284Y020799D01*
X034207Y020701D02*
X005249Y020701D01*
X005151Y020602D02*
X034173Y020602D01*
X034173Y020504D02*
X005052Y020504D01*
X004954Y020405D02*
X034207Y020405D01*
X034282Y020307D02*
X004855Y020307D01*
X004757Y020208D02*
X034650Y020208D01*
X034711Y020110D02*
X004658Y020110D01*
X004559Y020011D02*
X034721Y020011D01*
X034721Y019912D02*
X004458Y019912D01*
X002669Y019814D02*
X034721Y019814D01*
X032645Y017832D02*
X032645Y017832D01*
X032605Y017832D02*
X032605Y017832D01*
X034656Y017272D02*
X034656Y017272D01*
X038622Y015774D02*
X039676Y015774D01*
X039687Y015782D02*
X039635Y015744D01*
X039590Y015699D01*
X039552Y015647D01*
X039523Y015590D01*
X039503Y015529D01*
X039493Y015466D01*
X039493Y015462D01*
X039872Y015462D01*
X039872Y015405D01*
X039493Y015405D01*
X039493Y015401D01*
X039503Y015338D01*
X039523Y015277D01*
X039552Y015220D01*
X039590Y015168D01*
X039635Y015123D01*
X039687Y015085D01*
X039744Y015056D01*
X039805Y015036D01*
X039823Y015033D01*
X039681Y014975D01*
X039572Y014866D01*
X039513Y014723D01*
X039513Y014569D01*
X039572Y014427D01*
X039681Y014318D01*
X039824Y014259D01*
X039978Y014259D01*
X040120Y014318D01*
X040229Y014427D01*
X040288Y014569D01*
X040288Y014723D01*
X040229Y014866D01*
X040120Y014975D01*
X039978Y015033D01*
X039996Y015036D01*
X040057Y015056D01*
X040114Y015085D01*
X040166Y015123D01*
X040212Y015168D01*
X040249Y015220D01*
X040278Y015277D01*
X040298Y015338D01*
X040308Y015401D01*
X040308Y015405D01*
X039930Y015405D01*
X039930Y015462D01*
X040308Y015462D01*
X040308Y015466D01*
X040298Y015529D01*
X040278Y015590D01*
X040249Y015647D01*
X040212Y015699D01*
X040166Y015744D01*
X040114Y015782D01*
X040057Y015811D01*
X039996Y015831D01*
X039933Y015841D01*
X039930Y015841D01*
X039930Y015462D01*
X039872Y015462D01*
X039872Y015841D01*
X039869Y015841D01*
X039805Y015831D01*
X039744Y015811D01*
X039687Y015782D01*
X039573Y015675D02*
X038524Y015675D01*
X038425Y015577D02*
X039519Y015577D01*
X039495Y015478D02*
X038326Y015478D01*
X038228Y015379D02*
X039497Y015379D01*
X039522Y015281D02*
X038129Y015281D01*
X038031Y015182D02*
X039579Y015182D01*
X039689Y015084D02*
X037932Y015084D01*
X037834Y014985D02*
X039707Y014985D01*
X039594Y014887D02*
X037735Y014887D01*
X037637Y014788D02*
X039540Y014788D01*
X039513Y014690D02*
X037538Y014690D01*
X037440Y014591D02*
X039513Y014591D01*
X039545Y014493D02*
X037341Y014493D01*
X037242Y014394D02*
X039605Y014394D01*
X039735Y014296D02*
X037144Y014296D01*
X037039Y014197D02*
X039705Y014197D01*
X040067Y014296D02*
X041001Y014296D01*
X041001Y014394D02*
X040197Y014394D01*
X040257Y014493D02*
X041001Y014493D01*
X041001Y014591D02*
X040288Y014591D01*
X040288Y014690D02*
X041001Y014690D01*
X041001Y014788D02*
X040261Y014788D01*
X040208Y014887D02*
X041001Y014887D01*
X041001Y014985D02*
X040094Y014985D01*
X040112Y015084D02*
X041001Y015084D01*
X041001Y015182D02*
X040222Y015182D01*
X040280Y015281D02*
X041001Y015281D01*
X041001Y015379D02*
X040305Y015379D01*
X040306Y015478D02*
X041001Y015478D01*
X041001Y015577D02*
X040283Y015577D01*
X040229Y015675D02*
X041001Y015675D01*
X040999Y015774D02*
X040126Y015774D01*
X039930Y015774D02*
X039872Y015774D01*
X039872Y015675D02*
X039930Y015675D01*
X039930Y015577D02*
X039872Y015577D01*
X039872Y015478D02*
X039930Y015478D01*
X040870Y015971D02*
X038835Y015971D01*
X038721Y015872D02*
X040969Y015872D01*
X041001Y014197D02*
X040096Y014197D01*
X040209Y014098D02*
X041001Y014098D01*
X040954Y014098D02*
X040209Y014098D01*
X040262Y014000D02*
X041001Y014000D01*
X041031Y014000D02*
X040262Y014000D01*
X040288Y013901D02*
X041001Y013901D01*
X041051Y013901D02*
X040288Y013901D01*
X040288Y013803D02*
X041001Y013803D01*
X041051Y013803D02*
X040288Y013803D01*
X040256Y013704D02*
X041001Y013704D01*
X041051Y013704D02*
X040256Y013704D01*
X040196Y013606D02*
X041001Y013606D01*
X041051Y013606D02*
X040196Y013606D01*
X040065Y013507D02*
X041001Y013507D01*
X041051Y013507D02*
X040065Y013507D01*
X039978Y013459D02*
X039824Y013459D01*
X039681Y013400D01*
X039572Y013291D01*
X039513Y013148D01*
X039513Y012994D01*
X039572Y012852D01*
X039681Y012743D01*
X039824Y012684D01*
X039978Y012684D01*
X040120Y012743D01*
X040229Y012852D01*
X040288Y012994D01*
X040288Y013148D01*
X040229Y013291D01*
X040120Y013400D01*
X039978Y013459D01*
X039824Y013459D01*
X039681Y013400D01*
X039572Y013291D01*
X039513Y013148D01*
X039513Y012994D01*
X039572Y012852D01*
X039681Y012743D01*
X039824Y012684D01*
X039978Y012684D01*
X040120Y012743D01*
X040229Y012852D01*
X040288Y012994D01*
X040288Y013148D01*
X040229Y013291D01*
X040120Y013400D01*
X039978Y013459D01*
X040099Y013409D02*
X041001Y013409D01*
X041051Y013409D02*
X040099Y013409D01*
X040210Y013310D02*
X041001Y013310D01*
X041051Y013310D02*
X040210Y013310D01*
X040262Y013212D02*
X041001Y013212D01*
X041051Y013212D02*
X040262Y013212D01*
X040288Y013113D02*
X041001Y013113D01*
X041051Y013113D02*
X040288Y013113D01*
X040288Y013014D02*
X041001Y013014D01*
X041051Y013014D02*
X040288Y013014D01*
X040256Y012916D02*
X041001Y012916D01*
X041051Y012916D02*
X040256Y012916D01*
X040195Y012817D02*
X041001Y012817D01*
X041051Y012817D02*
X040195Y012817D01*
X040062Y012719D02*
X041001Y012719D01*
X041051Y012719D02*
X040062Y012719D01*
X039930Y011339D02*
X039872Y011339D01*
X039872Y011241D02*
X039930Y011241D01*
X039930Y011142D02*
X039872Y011142D01*
X039872Y011044D02*
X039930Y011044D01*
X043936Y010649D02*
X046895Y010649D01*
X046960Y010551D02*
X043936Y010551D01*
X043936Y010452D02*
X047093Y010452D01*
X047569Y010551D02*
X047776Y010551D01*
X047704Y010649D02*
X047634Y010649D01*
X047653Y010945D02*
X047684Y010945D01*
X047725Y011044D02*
X047608Y011044D01*
X047518Y011142D02*
X047824Y011142D01*
X048280Y011142D02*
X048611Y011142D01*
X048513Y011044D02*
X048379Y011044D01*
X048421Y010945D02*
X048471Y010945D01*
X048452Y010846D02*
X048440Y010846D01*
X048440Y010748D02*
X048452Y010748D01*
X048492Y010649D02*
X048400Y010649D01*
X048329Y010551D02*
X048563Y010551D01*
X049227Y010846D02*
X049239Y010846D01*
X049258Y010945D02*
X049208Y010945D01*
X049166Y011044D02*
X049300Y011044D01*
X049399Y011142D02*
X049068Y011142D01*
X047293Y011142D02*
X047236Y011142D01*
X047236Y011044D02*
X047293Y011044D01*
X047293Y010945D02*
X047236Y010945D01*
X028551Y009252D02*
X028503Y009252D01*
X028483Y009254D01*
X028464Y009258D01*
X028446Y009266D01*
X028430Y009276D01*
X028415Y009289D01*
X026114Y011832D02*
X020729Y011832D01*
X020630Y011930D02*
X026212Y011930D01*
X026311Y012029D02*
X020532Y012029D01*
X019586Y012325D02*
X019567Y012325D01*
X019434Y012325D02*
X001801Y012325D01*
X001801Y012423D02*
X019266Y012423D01*
X019200Y012522D02*
X001801Y012522D01*
X001801Y012620D02*
X019173Y012620D01*
X019173Y012719D02*
X001801Y012719D01*
X001801Y012817D02*
X019214Y012817D01*
X019271Y010649D02*
X019044Y010649D01*
X019135Y010551D02*
X019181Y010551D01*
X019832Y010649D02*
X020059Y010649D01*
X019969Y010551D02*
X019922Y010551D01*
X020619Y010649D02*
X020846Y010649D01*
X020756Y010551D02*
X020709Y010551D01*
X018484Y010649D02*
X018257Y010649D01*
X018347Y010551D02*
X018394Y010551D01*
X024008Y005534D02*
X024008Y005534D01*
X024008Y005534D01*
X024008Y005534D01*
X021959Y005122D02*
X021959Y005122D01*
X021959Y005122D01*
X021959Y005122D01*
X021601Y004302D02*
X021665Y004238D01*
X021666Y004238D02*
X021678Y004223D01*
X021688Y004207D01*
X021695Y004189D01*
X021700Y004171D01*
X021701Y004152D01*
X025555Y002864D02*
X026121Y002864D01*
X026121Y002766D02*
X025701Y002766D01*
X025267Y002273D02*
X024734Y002273D01*
X024831Y002372D02*
X025170Y002372D01*
X018844Y000822D02*
X018844Y000822D01*
X034527Y001583D02*
X041051Y001583D01*
X041051Y001682D02*
X034590Y001682D01*
X034620Y001781D02*
X041051Y001781D01*
X041051Y001879D02*
X038927Y001879D01*
X038953Y001906D02*
X038877Y001829D01*
X037884Y001829D01*
X037807Y001906D01*
X037807Y002899D01*
X037884Y002975D01*
X038877Y002975D01*
X038953Y002899D01*
X038953Y001906D01*
X038953Y001978D02*
X041051Y001978D01*
X041051Y002076D02*
X038953Y002076D01*
X038953Y002175D02*
X041051Y002175D01*
X041051Y002273D02*
X038953Y002273D01*
X038953Y002372D02*
X041051Y002372D01*
X041051Y002470D02*
X038953Y002470D01*
X038953Y002569D02*
X041051Y002569D01*
X041051Y002667D02*
X038953Y002667D01*
X038953Y002766D02*
X041051Y002766D01*
X041051Y002864D02*
X038953Y002864D01*
X038889Y002963D02*
X041051Y002963D01*
X037871Y002963D02*
X036330Y002963D01*
X036394Y002864D02*
X037807Y002864D01*
X037807Y002766D02*
X036394Y002766D01*
X036394Y002667D02*
X037807Y002667D01*
X037807Y002569D02*
X036394Y002569D01*
X036394Y002470D02*
X037807Y002470D01*
X037807Y002372D02*
X036394Y002372D01*
X036394Y002273D02*
X037807Y002273D01*
X037807Y002175D02*
X036394Y002175D01*
X036394Y002076D02*
X037807Y002076D01*
X037807Y001978D02*
X036394Y001978D01*
X036368Y001879D02*
X037834Y001879D01*
X041026Y000795D02*
X001826Y000795D01*
X001801Y001978D02*
X002295Y001978D01*
X002331Y002076D02*
X001801Y002076D01*
X001801Y002175D02*
X002392Y002175D01*
X002495Y002273D02*
X001801Y002273D01*
X002905Y009024D02*
X002969Y009014D01*
X002972Y009014D01*
X002972Y009392D01*
X002593Y009392D01*
X002593Y009389D01*
X002603Y009326D01*
X002623Y009265D01*
X002652Y009208D01*
X002690Y009156D01*
X002735Y009110D01*
X002787Y009073D01*
X002844Y009044D01*
X002905Y009024D01*
X002972Y009073D02*
X003030Y009073D01*
X003030Y009171D02*
X002972Y009171D01*
X002972Y009270D02*
X003030Y009270D01*
X003030Y009368D02*
X002972Y009368D01*
X002787Y009073D02*
X001801Y009073D01*
X001801Y009171D02*
X002679Y009171D01*
X002621Y009270D02*
X001801Y009270D01*
X001801Y009368D02*
X002597Y009368D01*
X002595Y009467D02*
X001801Y009467D01*
X001801Y009565D02*
X002619Y009565D01*
X002674Y009664D02*
X001801Y009664D01*
X001801Y009763D02*
X002777Y009763D01*
X002827Y009861D02*
X001801Y009861D01*
X001801Y009960D02*
X002702Y009960D01*
X002644Y010058D02*
X001801Y010058D01*
X001801Y010157D02*
X002613Y010157D01*
X002613Y010255D02*
X001801Y010255D01*
X003408Y009392D02*
X003408Y009389D01*
X003398Y009326D01*
X003378Y009265D01*
X003349Y009208D01*
X003312Y009156D01*
X003266Y009110D01*
X003214Y009073D01*
X003323Y009171D02*
X005664Y009171D01*
X005740Y009270D02*
X003380Y009270D01*
X003405Y009368D02*
X005881Y009368D01*
X002714Y013310D02*
X001801Y013310D01*
X001801Y013409D02*
X002649Y013409D01*
X002613Y013507D02*
X001801Y013507D01*
X001801Y013606D02*
X002613Y013606D01*
X002636Y013704D02*
X001801Y013704D01*
X001801Y013803D02*
X002684Y013803D01*
X002785Y013901D02*
X001801Y013901D01*
X001801Y014000D02*
X002854Y014000D01*
X002713Y014098D02*
X001801Y014098D01*
X001801Y014197D02*
X002648Y014197D01*
X002613Y014296D02*
X001801Y014296D01*
X001801Y014394D02*
X002613Y014394D01*
X002637Y014493D02*
X001801Y014493D01*
X001801Y014591D02*
X002685Y014591D01*
X002787Y014690D02*
X001801Y014690D01*
X001801Y014788D02*
X002852Y014788D01*
X002712Y014887D02*
X001801Y014887D01*
X001801Y014985D02*
X002648Y014985D01*
X002613Y015084D02*
X001801Y015084D01*
X001801Y015182D02*
X002613Y015182D01*
X002637Y015281D02*
X001801Y015281D01*
X001801Y015379D02*
X002686Y015379D01*
X002790Y015478D02*
X001801Y015478D01*
X001801Y015577D02*
X002850Y015577D01*
X002711Y015675D02*
X001803Y015675D01*
X001834Y015774D02*
X002648Y015774D01*
X002613Y015872D02*
X001934Y015872D01*
X003152Y015577D02*
X013869Y015577D01*
X013879Y015567D02*
X014046Y015498D01*
X014227Y015498D01*
X014394Y015567D01*
X014522Y015695D01*
X014591Y015862D01*
X014591Y016043D01*
X014522Y016210D01*
X014394Y016338D01*
X014227Y016407D01*
X014046Y016407D01*
X013879Y016338D01*
X013751Y016210D01*
X013681Y016043D01*
X013681Y015862D01*
X013751Y015695D01*
X013879Y015567D01*
X013770Y015675D02*
X003290Y015675D01*
X003354Y015774D02*
X013718Y015774D01*
X013681Y015872D02*
X003388Y015872D01*
X003212Y015478D02*
X020913Y015478D01*
X020834Y015577D02*
X014404Y015577D01*
X014502Y015675D02*
X020798Y015675D01*
X020798Y015774D02*
X014554Y015774D01*
X014591Y015872D02*
X020831Y015872D01*
X020905Y015971D02*
X014591Y015971D01*
X014580Y016069D02*
X020946Y016069D01*
X020946Y016168D02*
X014539Y016168D01*
X014465Y016266D02*
X020946Y016266D01*
X020946Y016365D02*
X014329Y016365D01*
X013944Y016365D02*
X013613Y016365D01*
X013515Y016266D02*
X013807Y016266D01*
X013733Y016168D02*
X013416Y016168D01*
X013318Y016069D02*
X013692Y016069D01*
X013681Y015971D02*
X013218Y015971D01*
X013712Y016463D02*
X020946Y016463D01*
X020946Y016562D02*
X013810Y016562D01*
X013909Y016661D02*
X020946Y016661D01*
X020946Y016759D02*
X014008Y016759D01*
X014106Y016858D02*
X020946Y016858D01*
X020946Y016956D02*
X014205Y016956D01*
X014303Y017055D02*
X020946Y017055D01*
X020946Y017153D02*
X014402Y017153D01*
X014500Y017252D02*
X020946Y017252D01*
X020946Y017350D02*
X014599Y017350D01*
X014697Y017449D02*
X020946Y017449D01*
X020946Y017547D02*
X014796Y017547D01*
X014894Y017646D02*
X020946Y017646D01*
X020946Y017745D02*
X014993Y017745D01*
X015091Y017843D02*
X020946Y017843D01*
X020946Y017942D02*
X015190Y017942D01*
X015289Y018040D02*
X020946Y018040D01*
X020946Y018139D02*
X015387Y018139D01*
X015486Y018237D02*
X020946Y018237D01*
X020946Y018336D02*
X015584Y018336D01*
X015683Y018434D02*
X020946Y018434D01*
X020946Y018533D02*
X015781Y018533D01*
X015880Y018631D02*
X017720Y018631D01*
X017622Y018730D02*
X015978Y018730D01*
X016077Y018829D02*
X017575Y018829D01*
X017547Y018927D02*
X016175Y018927D01*
X016274Y019026D02*
X017547Y019026D01*
X017570Y019124D02*
X016373Y019124D01*
X016471Y019223D02*
X017611Y019223D01*
X017707Y019321D02*
X016586Y019321D01*
X015064Y019715D02*
X002579Y019715D01*
X002552Y019617D02*
X014965Y019617D01*
X014867Y019518D02*
X002551Y019518D01*
X002551Y019420D02*
X014768Y019420D01*
X014670Y019321D02*
X002551Y019321D01*
X002551Y019223D02*
X014571Y019223D01*
X014473Y019124D02*
X002551Y019124D01*
X002565Y019026D02*
X014374Y019026D01*
X014275Y018927D02*
X002626Y018927D01*
X002725Y018829D02*
X014177Y018829D01*
X014078Y018730D02*
X002823Y018730D01*
X002922Y018631D02*
X013980Y018631D01*
X013881Y018533D02*
X003020Y018533D01*
X003119Y018434D02*
X013783Y018434D01*
X013684Y018336D02*
X003217Y018336D01*
X003316Y018237D02*
X013586Y018237D01*
X013487Y018139D02*
X003414Y018139D01*
X003513Y018040D02*
X013389Y018040D01*
X013290Y017942D02*
X003612Y017942D01*
X003710Y017843D02*
X013191Y017843D01*
X013093Y017745D02*
X003809Y017745D01*
X003907Y017646D02*
X012994Y017646D01*
X012896Y017547D02*
X004006Y017547D01*
X004104Y017449D02*
X012797Y017449D01*
X012699Y017350D02*
X004203Y017350D01*
X004301Y017252D02*
X012600Y017252D01*
X012502Y017153D02*
X004400Y017153D01*
X004498Y017055D02*
X012403Y017055D01*
X012305Y016956D02*
X004597Y016956D01*
X004696Y016858D02*
X012206Y016858D01*
X012108Y016759D02*
X004794Y016759D01*
X004893Y016661D02*
X012009Y016661D01*
X011910Y016562D02*
X004991Y016562D01*
X005092Y016463D02*
X011809Y016463D01*
X018233Y018631D02*
X018508Y018631D01*
X018409Y018730D02*
X018332Y018730D01*
X019021Y018631D02*
X019295Y018631D01*
X019197Y018730D02*
X019119Y018730D01*
X019808Y018631D02*
X020083Y018631D01*
X019984Y018730D02*
X019907Y018730D01*
X020595Y018631D02*
X020870Y018631D01*
X020771Y018730D02*
X020694Y018730D01*
X021126Y018983D02*
X021126Y015729D01*
X021383Y018631D02*
X021657Y018631D01*
X021559Y018730D02*
X021481Y018730D01*
X022170Y018631D02*
X022445Y018631D01*
X022346Y018730D02*
X022269Y018730D01*
X022958Y018631D02*
X023232Y018631D01*
X023134Y018730D02*
X023056Y018730D01*
X023745Y018631D02*
X024020Y018631D01*
X023921Y018730D02*
X023844Y018730D01*
X024532Y018631D02*
X024807Y018631D01*
X024708Y018730D02*
X024631Y018730D01*
X040901Y020996D02*
X005545Y020996D01*
X005643Y021095D02*
X040897Y021095D01*
D20*
X014001Y005552D03*
X013951Y003252D03*
D21*
X033651Y019102D03*
M02*
