%
M48
M72
T01C0.0236
T02C0.0315
T03C0.0400
T04C0.0433
T05C0.0472
T06C0.0591
T07C0.0630
%
T01
X15001Y6302
X17701Y6252
X18801Y6502
X19301Y7052
X21701Y6152
X22551Y6202
X23201Y6202
X23851Y6002
X25601Y4902
X26601Y4952
X27251Y4652
X27501Y3952
X29201Y3102
X25451Y2552
X24551Y2552
X24551Y1802
X21801Y2602
X21701Y4152
X27601Y7052
X28201Y7152
X28801Y7152
X27601Y7852
X28201Y8002
X28801Y8002
X28551Y9252
X27901Y9052
X26501Y10302
X27051Y10652
X26501Y11752
X23101Y11352
X19501Y12652
X17001Y11552
X16751Y10102
X16351Y9452
X15001Y8602
X20051Y8252
X22101Y8252
X23901Y8252
X24151Y7502
X23301Y7502
X22601Y7502
X30201Y4902
X32001Y5352
X33001Y4452
X33701Y4152
X34801Y3652
X37351Y4402
X34251Y5152
X33201Y6802
X34451Y7652
X33751Y10852
X32251Y11052
X32901Y12202
X30451Y12852
X28601Y13802
X27601Y13852
X21126Y15729
X27901Y17602
X32501Y16802
X35001Y16902
X35251Y15152
X35801Y12752
X34501Y20552
X8051Y17452
T02
X7101Y16952
X9101Y16952
X13101Y16952
X17977Y18983
X18764Y18983
X19552Y18983
X20339Y18983
X21126Y18983
X21914Y18983
X22701Y18983
X23489Y18983
X24276Y18983
X25063Y18983
X39551Y19159
X39551Y19946
X39901Y15433
X39901Y14646
X39901Y13859
X39901Y13071
X39901Y10996
X39901Y10209
X47265Y10822
X48052Y10822
X48839Y10822
X49627Y10822
X49103Y5750
X47488Y5750
X47488Y4135
X49103Y4135
X34219Y1852
X33432Y1852
X32644Y1852
X31857Y1852
X31070Y1852
X30282Y1852
X27894Y1802
X27107Y1802
X13101Y7952
X11101Y7952
X9101Y7952
X7101Y7952
X3001Y9421
X3001Y10209
X3001Y10996
X3001Y11783
X3001Y13571
X3001Y14359
X3001Y15146
X3001Y15933
X2951Y19509
X2951Y20296
X17977Y10322
X18764Y10322
X19552Y10322
X20339Y10322
X21126Y10322
X21914Y10322
X22701Y10322
X23489Y10322
X24276Y10322
X25063Y10322
T03
X2801Y1852
X36101Y6002
X36101Y6002
X36101Y7002
X36101Y7002
X36101Y8002
X36101Y8002
X36101Y9002
X36101Y9002
X36101Y10002
X36101Y10002
X29601Y16502
T04
X14136Y15952
X6065Y8952
T05
X14001Y5552
X13951Y3252
T06
X35821Y2402
X38380Y2402
X39451Y4223
X39451Y6782
T07
X33651Y19102
M30
