G75*
G70*
%OFA0B0*%
%FSLAX24Y24*%
%IPPOS*%
%LPD*%
%AMOC8*
5,1,8,0,0,1.08239X$1,22.5*
%
%ADD10C,0.0000*%
%ADD11R,0.0256X0.0079*%
%ADD12R,0.0079X0.0256*%
%ADD13R,0.1732X0.1732*%
%ADD14R,0.0433X0.0433*%
%ADD15R,0.0256X0.0236*%
%ADD16R,0.0630X0.0709*%
%ADD17R,0.1181X0.0630*%
%ADD18R,0.2470X0.2280*%
%ADD19R,0.0630X0.1181*%
%ADD20R,0.2280X0.2470*%
%ADD21C,0.0515*%
%ADD22R,0.0515X0.0515*%
%ADD23C,0.0874*%
%ADD24R,0.0591X0.0118*%
%ADD25R,0.0118X0.0591*%
%ADD26R,0.0433X0.0394*%
%ADD27R,0.0886X0.0886*%
%ADD28C,0.0740*%
%ADD29R,0.0354X0.0276*%
%ADD30R,0.0276X0.0354*%
%ADD31R,0.0790X0.0590*%
%ADD32R,0.0790X0.1500*%
%ADD33R,0.0709X0.0630*%
%ADD34R,0.0394X0.0433*%
%ADD35C,0.0600*%
%ADD36R,0.0433X0.0433*%
%ADD37R,0.0906X0.0689*%
%ADD38R,0.0689X0.0906*%
%ADD39C,0.0500*%
%ADD40R,0.0642X0.0598*%
%ADD41C,0.0397*%
%ADD42R,0.0591X0.0217*%
%ADD43R,0.0610X0.0236*%
%ADD44C,0.0100*%
%ADD45C,0.0709*%
%ADD46C,0.0200*%
%ADD47C,0.0396*%
%ADD48C,0.0300*%
%ADD49C,0.0080*%
%ADD50C,0.0500*%
%ADD51C,0.0160*%
%ADD52R,0.0396X0.0396*%
%ADD53C,0.0400*%
D10*
X000101Y000101D02*
X064101Y000101D01*
X064101Y036101D01*
X000101Y036101D01*
X000101Y000101D01*
X031732Y028101D02*
X031734Y028156D01*
X031740Y028211D01*
X031750Y028265D01*
X031763Y028318D01*
X031781Y028370D01*
X031802Y028421D01*
X031826Y028470D01*
X031854Y028517D01*
X031886Y028562D01*
X031920Y028605D01*
X031958Y028645D01*
X031998Y028683D01*
X032041Y028717D01*
X032086Y028749D01*
X032133Y028777D01*
X032182Y028801D01*
X032233Y028822D01*
X032285Y028840D01*
X032338Y028853D01*
X032392Y028863D01*
X032447Y028869D01*
X032502Y028871D01*
X032557Y028869D01*
X032612Y028863D01*
X032666Y028853D01*
X032719Y028840D01*
X032771Y028822D01*
X032822Y028801D01*
X032871Y028777D01*
X032918Y028749D01*
X032963Y028717D01*
X033006Y028683D01*
X033046Y028645D01*
X033084Y028605D01*
X033118Y028562D01*
X033150Y028517D01*
X033178Y028470D01*
X033202Y028421D01*
X033223Y028370D01*
X033241Y028318D01*
X033254Y028265D01*
X033264Y028211D01*
X033270Y028156D01*
X033272Y028101D01*
X033270Y028046D01*
X033264Y027991D01*
X033254Y027937D01*
X033241Y027884D01*
X033223Y027832D01*
X033202Y027781D01*
X033178Y027732D01*
X033150Y027685D01*
X033118Y027640D01*
X033084Y027597D01*
X033046Y027557D01*
X033006Y027519D01*
X032963Y027485D01*
X032918Y027453D01*
X032871Y027425D01*
X032822Y027401D01*
X032771Y027380D01*
X032719Y027362D01*
X032666Y027349D01*
X032612Y027339D01*
X032557Y027333D01*
X032502Y027331D01*
X032447Y027333D01*
X032392Y027339D01*
X032338Y027349D01*
X032285Y027362D01*
X032233Y027380D01*
X032182Y027401D01*
X032133Y027425D01*
X032086Y027453D01*
X032041Y027485D01*
X031998Y027519D01*
X031958Y027557D01*
X031920Y027597D01*
X031886Y027640D01*
X031854Y027685D01*
X031826Y027732D01*
X031802Y027781D01*
X031781Y027832D01*
X031763Y027884D01*
X031750Y027937D01*
X031740Y027991D01*
X031734Y028046D01*
X031732Y028101D01*
D11*
X017533Y022822D03*
X017533Y022664D03*
X017533Y022507D03*
X017533Y022349D03*
X017533Y022192D03*
X017533Y022035D03*
X017533Y021877D03*
X017533Y021720D03*
X017533Y021562D03*
X017533Y021405D03*
X017533Y021247D03*
X017533Y021090D03*
X015269Y021090D03*
X015269Y021247D03*
X015269Y021405D03*
X015269Y021562D03*
X015269Y021720D03*
X015269Y021877D03*
X015269Y022035D03*
X015269Y022192D03*
X015269Y022349D03*
X015269Y022507D03*
X015269Y022664D03*
X015269Y022822D03*
D12*
X015535Y023088D03*
X015692Y023088D03*
X015850Y023088D03*
X016007Y023088D03*
X016165Y023088D03*
X016322Y023088D03*
X016480Y023088D03*
X016637Y023088D03*
X016794Y023088D03*
X016952Y023088D03*
X017109Y023088D03*
X017267Y023088D03*
X017267Y020824D03*
X017109Y020824D03*
X016952Y020824D03*
X016794Y020824D03*
X016637Y020824D03*
X016480Y020824D03*
X016322Y020824D03*
X016165Y020824D03*
X016007Y020824D03*
X015850Y020824D03*
X015692Y020824D03*
X015535Y020824D03*
D13*
X016401Y021956D03*
D14*
X015786Y019965D03*
X015786Y019296D03*
X017446Y019610D03*
X017446Y018941D03*
X021021Y018686D03*
X021021Y019355D03*
X023046Y018116D03*
X023715Y018116D03*
X024296Y018111D03*
X024965Y018111D03*
X024980Y017271D03*
X024311Y017271D03*
X023720Y017276D03*
X023051Y017276D03*
X018675Y016126D03*
X018006Y016126D03*
X017445Y016076D03*
X016776Y016076D03*
X016781Y015236D03*
X017450Y015236D03*
X020256Y012815D03*
X021081Y012815D03*
X021081Y012146D03*
X020256Y012146D03*
X013666Y011896D03*
X013666Y012565D03*
X012771Y012570D03*
X012771Y011901D03*
X010780Y013326D03*
X010111Y013326D03*
X010170Y012471D03*
X009501Y012471D03*
X008806Y012530D03*
X008806Y011861D03*
X009496Y011621D03*
X010165Y011621D03*
X010160Y010751D03*
X009491Y010751D03*
X010111Y014201D03*
X010780Y014201D03*
X011105Y015056D03*
X010436Y015056D03*
X010436Y015911D03*
X011105Y015911D03*
X011936Y016086D03*
X012605Y016086D03*
X011110Y016761D03*
X010441Y016761D03*
X010451Y017596D03*
X011120Y017596D03*
X012026Y017596D03*
X012695Y017596D03*
X011125Y018426D03*
X010456Y018426D03*
X009321Y018681D03*
X009321Y019350D03*
X010456Y019261D03*
X011125Y019261D03*
X011661Y019266D03*
X012330Y019266D03*
X011125Y020096D03*
X010456Y020096D03*
X010466Y020926D03*
X011135Y020926D03*
X011681Y020926D03*
X012350Y020926D03*
X012350Y021751D03*
X011681Y021751D03*
X011135Y021751D03*
X010466Y021751D03*
X010471Y022576D03*
X011140Y022576D03*
X011150Y023416D03*
X011751Y023561D03*
X012420Y023561D03*
X011150Y024241D03*
X010481Y024241D03*
X010481Y023416D03*
X009316Y023276D03*
X009316Y023945D03*
X009346Y025096D03*
X010015Y025096D03*
X010646Y025101D03*
X011315Y025101D03*
X010751Y025881D03*
X009995Y025936D03*
X009326Y025936D03*
X010751Y026550D03*
X014081Y024911D03*
X014750Y024911D03*
X015431Y025100D03*
X016236Y025100D03*
X016236Y024431D03*
X015431Y024431D03*
X017366Y024431D03*
X018186Y024615D03*
X018186Y023946D03*
X018061Y025276D03*
X018730Y025276D03*
X017366Y025100D03*
X015470Y025821D03*
X014801Y025821D03*
X015771Y027246D03*
X015771Y027915D03*
X016916Y029636D03*
X017585Y029636D03*
X018201Y027456D03*
X018870Y027456D03*
X020616Y023545D03*
X021481Y023550D03*
X022451Y023525D03*
X022451Y022856D03*
X021481Y022881D03*
X020616Y022876D03*
X024441Y021416D03*
X025110Y021416D03*
X025781Y021416D03*
X026450Y021416D03*
X026450Y022261D03*
X025781Y022261D03*
X025766Y023096D03*
X026435Y023096D03*
X027166Y022256D03*
X027835Y022256D03*
X027966Y022951D03*
X027966Y023620D03*
X026460Y020576D03*
X025791Y020576D03*
X025120Y020606D03*
X024451Y020606D03*
X037816Y028651D03*
X038485Y028651D03*
X038485Y030151D03*
X037816Y030151D03*
X043551Y033016D03*
X043551Y033685D03*
X045501Y033685D03*
X045501Y033016D03*
X050669Y031250D03*
X050669Y030580D03*
X052019Y030893D03*
X052688Y030893D03*
X053620Y030947D03*
X054289Y030947D03*
X054745Y029728D03*
X054745Y029059D03*
X050725Y029190D03*
X050725Y028521D03*
X046085Y028001D03*
X045416Y028001D03*
X045416Y029351D03*
X046085Y029351D03*
X051397Y031884D03*
X052066Y031884D03*
X054016Y023851D03*
X054685Y023851D03*
X055266Y020101D03*
X055935Y020101D03*
X051935Y020101D03*
X051266Y020101D03*
X049851Y018935D03*
X049851Y018266D03*
X057601Y017185D03*
X057601Y016516D03*
X060101Y016516D03*
X060101Y017185D03*
X021315Y005676D03*
X020646Y005676D03*
X018390Y007401D03*
X017721Y007401D03*
X017721Y008236D03*
X018390Y008236D03*
X016205Y005716D03*
X015536Y005716D03*
X014591Y004720D03*
X014591Y004051D03*
X011351Y004016D03*
X011351Y004685D03*
X007751Y004685D03*
X007751Y004016D03*
X004306Y004036D03*
X004306Y004705D03*
X009291Y014641D03*
X009291Y015310D03*
X009291Y015991D03*
X009291Y016660D03*
X009291Y017251D03*
X009291Y017920D03*
X006230Y017856D03*
X005561Y017856D03*
X005561Y018711D03*
X006230Y018711D03*
X006230Y019546D03*
X005561Y019546D03*
X005561Y020376D03*
X006230Y020376D03*
X006230Y021206D03*
X005561Y021206D03*
X009336Y021065D03*
X009336Y020396D03*
X009326Y021916D03*
X009326Y022585D03*
X006230Y017011D03*
X005561Y017011D03*
X005561Y016151D03*
X006230Y016151D03*
X006230Y015296D03*
X005561Y015296D03*
X010156Y034326D03*
X010825Y034326D03*
D15*
X008179Y023430D03*
X007293Y023056D03*
X008179Y022682D03*
X008179Y022005D03*
X007293Y021631D03*
X008179Y021257D03*
X008179Y020675D03*
X007293Y020301D03*
X008179Y019927D03*
X008179Y019330D03*
X007293Y018956D03*
X008179Y018582D03*
X008179Y018005D03*
X007293Y017631D03*
X008179Y017257D03*
X008179Y016720D03*
X007293Y016346D03*
X008179Y015972D03*
X008179Y015410D03*
X007293Y015036D03*
X008179Y014662D03*
X008179Y014095D03*
X007293Y013721D03*
X008179Y013347D03*
D16*
X016500Y016921D03*
X017602Y016921D03*
X027375Y008631D03*
X028477Y008631D03*
X008357Y026301D03*
X007255Y026301D03*
D17*
X011106Y030156D03*
X011106Y031956D03*
X022606Y031791D03*
X022606Y029991D03*
D18*
X020071Y030891D03*
X013641Y031056D03*
D19*
X015971Y030896D03*
X017771Y030896D03*
D20*
X016871Y033431D03*
D21*
X032111Y023784D03*
X032111Y022997D03*
X027126Y019909D03*
X027126Y019122D03*
X027156Y017464D03*
X027156Y016677D03*
X032101Y018207D03*
X032101Y018994D03*
X055669Y028521D03*
X055669Y029309D03*
X058207Y022851D03*
X058994Y022851D03*
X039801Y032907D03*
X039801Y033694D03*
D22*
X003026Y021420D03*
X003026Y020633D03*
X003026Y019846D03*
X003026Y019058D03*
X003026Y018271D03*
X003026Y017483D03*
X003026Y016696D03*
X003026Y015909D03*
X003026Y015121D03*
D23*
X029613Y027286D03*
X029613Y028916D03*
D24*
X019270Y013402D03*
X019270Y013205D03*
X019270Y013008D03*
X019270Y012812D03*
X019270Y012615D03*
X019270Y012418D03*
X019270Y012221D03*
X019270Y012024D03*
X019270Y011827D03*
X019270Y011631D03*
X019270Y011434D03*
X019270Y011237D03*
X019270Y011040D03*
X019270Y010843D03*
X019270Y010646D03*
X019270Y010449D03*
X014782Y010449D03*
X014782Y010646D03*
X014782Y010843D03*
X014782Y011040D03*
X014782Y011237D03*
X014782Y011434D03*
X014782Y011631D03*
X014782Y011827D03*
X014782Y012024D03*
X014782Y012221D03*
X014782Y012418D03*
X014782Y012615D03*
X014782Y012812D03*
X014782Y013008D03*
X014782Y013205D03*
X014782Y013402D03*
D25*
X015549Y014170D03*
X015746Y014170D03*
X015943Y014170D03*
X016140Y014170D03*
X016337Y014170D03*
X016534Y014170D03*
X016731Y014170D03*
X016927Y014170D03*
X017124Y014170D03*
X017321Y014170D03*
X017518Y014170D03*
X017715Y014170D03*
X017912Y014170D03*
X018108Y014170D03*
X018305Y014170D03*
X018502Y014170D03*
X018502Y009682D03*
X018305Y009682D03*
X018108Y009682D03*
X017912Y009682D03*
X017715Y009682D03*
X017518Y009682D03*
X017321Y009682D03*
X017124Y009682D03*
X016927Y009682D03*
X016731Y009682D03*
X016534Y009682D03*
X016337Y009682D03*
X016140Y009682D03*
X015943Y009682D03*
X015746Y009682D03*
X015549Y009682D03*
D26*
X016511Y008406D03*
X017180Y008406D03*
D27*
X018370Y004491D03*
X019551Y004491D03*
X022110Y004491D03*
X015811Y004491D03*
X022186Y019371D03*
X024745Y019371D03*
X041851Y031121D03*
X041851Y033680D03*
X056169Y033694D03*
X056169Y031135D03*
X062101Y022880D03*
X062101Y020321D03*
X008525Y034331D03*
X005966Y034331D03*
D28*
X020576Y015086D03*
X021576Y015086D03*
X022576Y015086D03*
X023576Y015086D03*
X024576Y015086D03*
X013611Y002781D03*
X012611Y002781D03*
X010131Y002776D03*
X009131Y002776D03*
X006611Y002781D03*
X005611Y002781D03*
X003111Y002796D03*
X002111Y002796D03*
X021436Y001701D03*
X051851Y021851D03*
X051851Y022851D03*
X042351Y028651D03*
X041351Y028651D03*
X053169Y032915D03*
X054169Y032915D03*
D29*
X012306Y014127D03*
X012306Y013615D03*
D30*
X013610Y014251D03*
X014122Y014251D03*
D31*
X029841Y014111D03*
X029841Y013211D03*
X029841Y015011D03*
D32*
X027361Y014101D03*
D33*
X032101Y014550D03*
X032101Y013652D03*
X032101Y012550D03*
X032101Y015652D03*
D34*
X031101Y015435D03*
X031101Y014766D03*
X031101Y013585D03*
X031101Y012916D03*
D35*
X031450Y010696D03*
X030662Y010696D03*
X029875Y010696D03*
X029088Y010696D03*
X028300Y010696D03*
X027513Y010696D03*
X026725Y010696D03*
X025938Y010696D03*
X025151Y010696D03*
X024363Y010696D03*
X024363Y002035D03*
X025151Y002035D03*
X025938Y002035D03*
X026725Y002035D03*
X027513Y002035D03*
X028300Y002035D03*
X029088Y002035D03*
X029875Y002035D03*
X030662Y002035D03*
X031450Y002035D03*
D36*
G36*
X033104Y003542D02*
X033424Y003252D01*
X033134Y002932D01*
X032814Y003222D01*
X033104Y003542D01*
G37*
G36*
X032607Y003990D02*
X032927Y003700D01*
X032637Y003380D01*
X032317Y003670D01*
X032607Y003990D01*
G37*
G36*
X032129Y003847D02*
X031809Y004137D01*
X032099Y004457D01*
X032419Y004167D01*
X032129Y003847D01*
G37*
G36*
X031632Y004295D02*
X031312Y004585D01*
X031602Y004905D01*
X031922Y004615D01*
X031632Y004295D01*
G37*
G36*
X032779Y004542D02*
X032459Y004832D01*
X032749Y005152D01*
X033069Y004862D01*
X032779Y004542D01*
G37*
G36*
X033242Y004725D02*
X033562Y004435D01*
X033272Y004115D01*
X032952Y004405D01*
X033242Y004725D01*
G37*
G36*
X032282Y004990D02*
X031962Y005280D01*
X032252Y005600D01*
X032572Y005310D01*
X032282Y004990D01*
G37*
G36*
X033739Y004277D02*
X034059Y003987D01*
X033769Y003667D01*
X033449Y003957D01*
X033739Y004277D01*
G37*
G36*
X032767Y007292D02*
X032447Y007002D01*
X032157Y007322D01*
X032477Y007612D01*
X032767Y007292D01*
G37*
G36*
X033264Y007740D02*
X032944Y007450D01*
X032654Y007770D01*
X032974Y008060D01*
X033264Y007740D01*
G37*
G36*
X033107Y008167D02*
X033427Y008457D01*
X033717Y008137D01*
X033397Y007847D01*
X033107Y008167D01*
G37*
G36*
X032034Y008425D02*
X032354Y008715D01*
X032644Y008395D01*
X032324Y008105D01*
X032034Y008425D01*
G37*
G36*
X031537Y007977D02*
X031857Y008267D01*
X032147Y007947D01*
X031827Y007657D01*
X031537Y007977D01*
G37*
G36*
X033112Y008812D02*
X032792Y008522D01*
X032502Y008842D01*
X032822Y009132D01*
X033112Y008812D01*
G37*
G36*
X033609Y009260D02*
X033289Y008970D01*
X032999Y009290D01*
X033319Y009580D01*
X033609Y009260D01*
G37*
G36*
X033604Y008615D02*
X033924Y008905D01*
X034214Y008585D01*
X033894Y008295D01*
X033604Y008615D01*
G37*
D37*
X024791Y023656D03*
X024791Y025656D03*
X017071Y026471D03*
X017071Y028471D03*
X005011Y028101D03*
X005011Y030101D03*
D38*
X012476Y027706D03*
X014476Y027706D03*
X020601Y025026D03*
X022601Y025026D03*
D39*
X004291Y021481D03*
X004291Y020681D03*
X004291Y019881D03*
X004291Y019081D03*
X004291Y018281D03*
X004291Y017481D03*
X004291Y016681D03*
X004291Y015881D03*
X004291Y015081D03*
D40*
X026526Y023879D03*
X026526Y025572D03*
X002746Y028159D03*
X002746Y029852D03*
D41*
X039936Y011351D03*
X040936Y011351D03*
X044266Y011351D03*
X045266Y011351D03*
X043101Y007601D03*
X042101Y007601D03*
X053601Y011351D03*
X054601Y011351D03*
X058601Y011351D03*
X059601Y011351D03*
X043101Y022601D03*
X042101Y022601D03*
D42*
X044538Y030651D03*
X044538Y031151D03*
X044538Y031651D03*
X044538Y032151D03*
X046664Y032151D03*
X046664Y031651D03*
X046664Y031151D03*
X046664Y030651D03*
D43*
X051584Y029483D03*
X051584Y028983D03*
X051584Y028483D03*
X051584Y027983D03*
X053710Y027983D03*
X053710Y028483D03*
X053710Y028983D03*
X053710Y029483D03*
X054664Y017351D03*
X054664Y016851D03*
X054664Y016351D03*
X054664Y015851D03*
X052538Y015851D03*
X052538Y016351D03*
X052538Y016851D03*
X052538Y017351D03*
D44*
X033595Y014520D02*
X033601Y014451D01*
X033595Y014381D01*
X033577Y014314D01*
X033547Y014251D01*
X033507Y014194D01*
X033458Y014144D01*
X033401Y014104D01*
X033338Y014075D01*
X033270Y014057D01*
X033201Y014051D01*
X032801Y014051D01*
X032601Y014251D01*
X031701Y014251D01*
X031401Y014551D01*
X030951Y014551D01*
X030935Y014553D01*
X030921Y014560D01*
X030910Y014571D01*
X030903Y014585D01*
X030901Y014601D01*
X030901Y014901D01*
X030903Y014916D01*
X030910Y014930D01*
X030921Y014941D01*
X030935Y014948D01*
X030951Y014951D01*
X031701Y014951D01*
X031801Y014851D01*
X033201Y014851D01*
X033270Y014845D01*
X033338Y014827D01*
X033401Y014797D01*
X033458Y014757D01*
X033507Y014708D01*
X033547Y014651D01*
X033577Y014588D01*
X033595Y014520D01*
X033598Y014488D02*
X031463Y014488D01*
X031562Y014390D02*
X033595Y014390D01*
X033566Y014291D02*
X031661Y014291D01*
X032351Y014001D02*
X032384Y013997D01*
X032416Y013986D01*
X032444Y013968D01*
X032468Y013944D01*
X032486Y013916D01*
X032497Y013884D01*
X032501Y013851D01*
X032501Y013451D01*
X032497Y013417D01*
X032486Y013386D01*
X032468Y013357D01*
X032444Y013334D01*
X032416Y013316D01*
X032384Y013305D01*
X032351Y013301D01*
X031801Y013301D01*
X031701Y013401D01*
X030801Y013401D01*
X030351Y013851D01*
X028251Y013851D01*
X027801Y013401D01*
X027051Y013401D01*
X027025Y013404D01*
X027001Y013414D01*
X026980Y013430D01*
X026964Y013451D01*
X026954Y013475D01*
X026951Y013501D01*
X026951Y014751D01*
X026954Y014777D01*
X026964Y014801D01*
X026980Y014821D01*
X027001Y014837D01*
X027025Y014847D01*
X027051Y014851D01*
X027751Y014851D01*
X028201Y014401D01*
X030251Y014401D01*
X030651Y014001D01*
X032351Y014001D01*
X032389Y013995D02*
X026951Y013995D01*
X026951Y013897D02*
X032493Y013897D01*
X032501Y013798D02*
X030403Y013798D01*
X030502Y013700D02*
X032501Y013700D01*
X032501Y013601D02*
X030600Y013601D01*
X030699Y013503D02*
X032501Y013503D01*
X032492Y013404D02*
X030797Y013404D01*
X030551Y013151D02*
X030201Y013501D01*
X029601Y013501D01*
X029575Y013497D01*
X029551Y013487D01*
X029530Y013471D01*
X029514Y013451D01*
X029504Y013427D01*
X029501Y013401D01*
X029501Y012701D01*
X029505Y012667D01*
X029516Y012636D01*
X029534Y012607D01*
X029557Y012584D01*
X029586Y012566D01*
X029617Y012555D01*
X029651Y012551D01*
X031501Y012551D01*
X031545Y012546D01*
X031588Y012531D01*
X031625Y012507D01*
X031657Y012475D01*
X031681Y012438D01*
X031696Y012395D01*
X031701Y012351D01*
X031701Y012201D01*
X031705Y012167D01*
X031716Y012136D01*
X031734Y012107D01*
X031757Y012084D01*
X031786Y012066D01*
X031817Y012055D01*
X031851Y012051D01*
X033101Y012051D01*
X033170Y012057D01*
X033238Y012075D01*
X033301Y012104D01*
X033358Y012144D01*
X033407Y012194D01*
X033447Y012251D01*
X033477Y012314D01*
X033495Y012381D01*
X033501Y012451D01*
X033494Y012529D01*
X033474Y012605D01*
X033441Y012676D01*
X033396Y012740D01*
X033340Y012796D01*
X033276Y012841D01*
X033205Y012874D01*
X033129Y012894D01*
X033051Y012901D01*
X031651Y012901D01*
X031401Y013151D01*
X030551Y013151D01*
X030495Y013207D02*
X029501Y013207D01*
X029501Y013109D02*
X031443Y013109D01*
X031542Y013010D02*
X029501Y013010D01*
X029501Y012911D02*
X031640Y012911D01*
X031609Y012517D02*
X033495Y012517D01*
X033498Y012419D02*
X031688Y012419D01*
X031701Y012320D02*
X033478Y012320D01*
X033427Y012222D02*
X031701Y012222D01*
X031724Y012123D02*
X033328Y012123D01*
X033468Y012616D02*
X029528Y012616D01*
X029501Y012714D02*
X033414Y012714D01*
X033315Y012813D02*
X029501Y012813D01*
X029501Y013306D02*
X030396Y013306D01*
X030297Y013404D02*
X029501Y013404D01*
X028876Y014146D02*
X028756Y014146D01*
X028743Y014148D01*
X028731Y014153D01*
X028721Y014161D01*
X028713Y014171D01*
X028708Y014183D01*
X028706Y014196D01*
X028876Y014146D02*
X028901Y014148D01*
X028925Y014153D01*
X028949Y014162D01*
X028971Y014174D01*
X028991Y014189D01*
X029008Y014206D01*
X029023Y014226D01*
X029035Y014248D01*
X029044Y014272D01*
X029049Y014296D01*
X029051Y014321D01*
X029457Y014734D02*
X029434Y014757D01*
X029416Y014786D01*
X029405Y014817D01*
X029401Y014851D01*
X029401Y016251D01*
X029410Y016294D01*
X029427Y016335D01*
X029453Y016372D01*
X029484Y016403D01*
X029522Y016427D01*
X029563Y016443D01*
X029606Y016451D01*
X029651Y016451D01*
X031501Y016451D01*
X031545Y016456D01*
X031588Y016471D01*
X031625Y016494D01*
X031657Y016526D01*
X031681Y016564D01*
X031696Y016606D01*
X031701Y016651D01*
X031701Y018351D01*
X031706Y018395D01*
X031721Y018438D01*
X031744Y018475D01*
X031776Y018507D01*
X031814Y018531D01*
X031856Y018546D01*
X031901Y018551D01*
X032301Y018551D01*
X032345Y018546D01*
X032388Y018531D01*
X032425Y018507D01*
X032457Y018475D01*
X032481Y018438D01*
X032496Y018395D01*
X032501Y018351D01*
X032501Y015401D01*
X032497Y015367D01*
X032486Y015336D01*
X032468Y015307D01*
X032444Y015284D01*
X032416Y015266D01*
X032384Y015255D01*
X032351Y015251D01*
X030351Y015251D01*
X030325Y015247D01*
X030301Y015237D01*
X030280Y015221D01*
X030264Y015201D01*
X030254Y015177D01*
X030251Y015151D01*
X030251Y014801D01*
X030247Y014775D01*
X030237Y014751D01*
X030221Y014730D01*
X030201Y014714D01*
X030177Y014704D01*
X030151Y014701D01*
X029551Y014701D01*
X029517Y014705D01*
X029486Y014716D01*
X029457Y014734D01*
X029417Y014784D02*
X030249Y014784D01*
X030251Y014882D02*
X029401Y014882D01*
X029401Y014981D02*
X030251Y014981D01*
X030251Y015079D02*
X029401Y015079D01*
X029401Y015178D02*
X030255Y015178D01*
X030901Y014882D02*
X031769Y014882D01*
X032433Y015276D02*
X029401Y015276D01*
X029401Y015375D02*
X032498Y015375D01*
X032501Y015474D02*
X029401Y015474D01*
X029401Y015572D02*
X032501Y015572D01*
X032501Y015671D02*
X029401Y015671D01*
X029401Y015769D02*
X032501Y015769D01*
X032501Y015868D02*
X029401Y015868D01*
X029401Y015966D02*
X032501Y015966D01*
X032501Y016065D02*
X029401Y016065D01*
X029401Y016163D02*
X032501Y016163D01*
X032501Y016262D02*
X029403Y016262D01*
X029445Y016360D02*
X032501Y016360D01*
X032501Y016459D02*
X031554Y016459D01*
X031677Y016558D02*
X032501Y016558D01*
X032501Y016656D02*
X031701Y016656D01*
X031701Y016755D02*
X032501Y016755D01*
X032501Y016853D02*
X031701Y016853D01*
X031701Y016952D02*
X032501Y016952D01*
X032501Y017050D02*
X031701Y017050D01*
X031701Y017149D02*
X032501Y017149D01*
X032501Y017247D02*
X031701Y017247D01*
X031701Y017346D02*
X032501Y017346D01*
X032501Y017444D02*
X031701Y017444D01*
X031701Y017543D02*
X032501Y017543D01*
X032501Y017641D02*
X031701Y017641D01*
X031701Y017740D02*
X032501Y017740D01*
X032501Y017839D02*
X031701Y017839D01*
X031701Y017937D02*
X032501Y017937D01*
X032501Y018036D02*
X031701Y018036D01*
X031701Y018134D02*
X032501Y018134D01*
X032501Y018233D02*
X031701Y018233D01*
X031701Y018331D02*
X032501Y018331D01*
X032484Y018430D02*
X031718Y018430D01*
X031810Y018528D02*
X032392Y018528D01*
X027156Y017464D02*
X026159Y017464D01*
X025391Y016696D01*
X024626Y016696D01*
X024046Y017276D01*
X024306Y017276D01*
X024311Y017271D01*
X024046Y017276D02*
X023720Y017276D01*
X023051Y017276D02*
X023051Y018111D01*
X023046Y018116D01*
X023715Y018116D02*
X024291Y018116D01*
X024296Y018111D01*
X024776Y018591D01*
X025321Y018591D01*
X026639Y019909D01*
X027126Y019909D01*
X026460Y020576D02*
X026460Y021406D01*
X026450Y021416D01*
X025781Y021416D02*
X025110Y021416D01*
X025120Y020606D02*
X025761Y020606D01*
X025791Y020576D01*
X024745Y019371D02*
X023261Y019371D01*
X023141Y019491D01*
X024965Y018111D02*
X024980Y018096D01*
X024980Y017271D01*
X025041Y017271D01*
X025621Y017851D01*
X021386Y017916D02*
X021021Y018281D01*
X021021Y018686D01*
X018346Y016806D02*
X017912Y016372D01*
X017912Y016031D01*
X018006Y016126D01*
X017912Y016031D02*
X017912Y014170D01*
X018108Y014170D02*
X018108Y015559D01*
X018109Y015559D01*
X018696Y016146D01*
X018761Y016146D01*
X018761Y016241D01*
X018986Y016016D01*
X020091Y016016D01*
X019923Y016183D02*
X019921Y016159D01*
X019916Y016136D01*
X019908Y016114D01*
X019896Y016093D01*
X019882Y016074D01*
X019865Y016057D01*
X019846Y016043D01*
X019825Y016031D01*
X019803Y016023D01*
X019780Y016018D01*
X019756Y016016D01*
X019181Y015676D02*
X018305Y014800D01*
X018305Y014170D01*
X018501Y014171D02*
X018501Y014371D01*
X018502Y014374D01*
X018504Y014375D01*
X018506Y014376D01*
X018501Y014171D02*
X018501Y014171D01*
X018501Y014170D01*
X018502Y014170D01*
X018501Y014171D02*
X018501Y013961D01*
X018503Y013988D01*
X018508Y014015D01*
X018517Y014041D01*
X018529Y014066D01*
X018544Y014088D01*
X018562Y014109D01*
X018583Y014127D01*
X018605Y014142D01*
X018630Y014154D01*
X018656Y014163D01*
X018683Y014168D01*
X018710Y014170D01*
X019660Y014170D01*
X020576Y015086D01*
X020986Y015676D02*
X021576Y015086D01*
X020986Y015676D02*
X019181Y015676D01*
X018696Y016146D02*
X018706Y016156D01*
X018675Y016126D02*
X018108Y015559D01*
X017450Y015236D02*
X016927Y014783D01*
X016927Y014170D01*
X016731Y014170D02*
X016731Y015471D01*
X016796Y015536D01*
X016731Y015255D02*
X016781Y015236D01*
X016731Y015255D02*
X016731Y014170D01*
X018506Y014376D02*
X018508Y014349D01*
X018513Y014323D01*
X018522Y014297D01*
X018534Y014273D01*
X018549Y014251D01*
X018566Y014230D01*
X018587Y014213D01*
X018609Y014198D01*
X018633Y014186D01*
X018659Y014177D01*
X018685Y014172D01*
X018712Y014170D01*
X020256Y012815D02*
X019661Y012221D01*
X019270Y012221D01*
X019270Y012024D02*
X020134Y012024D01*
X020256Y012146D01*
X020269Y012024D01*
X020921Y011631D02*
X020924Y011630D01*
X020925Y011628D01*
X020926Y011626D01*
X020926Y011631D01*
X021971Y011631D01*
X022286Y011631D01*
X022369Y011631D01*
X022440Y011660D02*
X024561Y013781D01*
X024591Y013852D02*
X024591Y015071D01*
X024590Y015077D01*
X024587Y015082D01*
X024582Y015085D01*
X024576Y015086D01*
X024591Y013852D02*
X024590Y013836D01*
X024586Y013821D01*
X024580Y013807D01*
X024572Y013793D01*
X024562Y013781D01*
X026951Y013798D02*
X028198Y013798D01*
X028100Y013700D02*
X026951Y013700D01*
X026951Y013601D02*
X028001Y013601D01*
X027903Y013503D02*
X026951Y013503D01*
X027026Y013404D02*
X027804Y013404D01*
X026951Y014094D02*
X030558Y014094D01*
X030459Y014192D02*
X026951Y014192D01*
X026951Y014291D02*
X030361Y014291D01*
X030262Y014390D02*
X026951Y014390D01*
X026951Y014488D02*
X028113Y014488D01*
X028015Y014587D02*
X026951Y014587D01*
X026951Y014685D02*
X027916Y014685D01*
X027818Y014784D02*
X026957Y014784D01*
X030901Y014784D02*
X033420Y014784D01*
X033523Y014685D02*
X030901Y014685D01*
X030903Y014587D02*
X033577Y014587D01*
X033506Y014192D02*
X032659Y014192D01*
X032758Y014094D02*
X033378Y014094D01*
X032387Y013306D02*
X031796Y013306D01*
X029573Y011786D02*
X030662Y010696D01*
X030061Y010611D02*
X029271Y011401D01*
X023291Y011401D01*
X023166Y011276D01*
X023166Y006261D01*
X023741Y006671D02*
X025151Y005261D01*
X025151Y002035D01*
X027246Y004061D02*
X023956Y007351D01*
X023956Y007376D01*
X022606Y006841D02*
X022606Y011316D01*
X023076Y011786D01*
X029573Y011786D01*
X022440Y011660D02*
X022428Y011650D01*
X022414Y011642D01*
X022400Y011636D01*
X022385Y011632D01*
X022369Y011631D01*
X022286Y011631D02*
X022264Y011629D01*
X022242Y011625D01*
X022222Y011617D01*
X022202Y011606D01*
X022184Y011593D01*
X022169Y011578D01*
X022156Y011560D01*
X022145Y011540D01*
X022137Y011520D01*
X022133Y011498D01*
X022131Y011476D01*
X022131Y011470D02*
X022131Y006491D01*
X021315Y005676D01*
X021315Y005286D01*
X022110Y004491D01*
X021421Y006241D02*
X016081Y006241D01*
X015549Y006772D01*
X015549Y009682D01*
X015746Y009682D02*
X015746Y006915D01*
X016096Y006566D01*
X021026Y006566D01*
X021301Y006841D01*
X021761Y006841D01*
X021711Y007561D02*
X020986Y006836D01*
X016136Y006836D01*
X015951Y007021D01*
X015951Y008821D01*
X015949Y008842D01*
X015951Y008863D01*
X015957Y008884D01*
X015966Y008903D01*
X015978Y008920D01*
X015993Y008935D01*
X016011Y008947D01*
X016030Y008956D01*
X016051Y008961D01*
X016284Y008961D01*
X016481Y008751D02*
X016511Y008753D01*
X016541Y008758D01*
X016570Y008767D01*
X016597Y008780D01*
X016623Y008795D01*
X016647Y008814D01*
X016668Y008835D01*
X016687Y008859D01*
X016702Y008885D01*
X016715Y008912D01*
X016724Y008941D01*
X016729Y008971D01*
X016731Y009001D01*
X016731Y009682D01*
X016927Y009682D02*
X016927Y008659D01*
X017180Y008406D01*
X017306Y008806D02*
X017820Y008806D01*
X018390Y008236D01*
X018390Y008196D01*
X017306Y008806D02*
X017124Y008987D01*
X017124Y009682D01*
X016534Y009682D02*
X016534Y009211D01*
X016532Y009181D01*
X016527Y009151D01*
X016518Y009122D01*
X016505Y009095D01*
X016490Y009069D01*
X016471Y009045D01*
X016450Y009024D01*
X016426Y009005D01*
X016400Y008990D01*
X016373Y008977D01*
X016344Y008968D01*
X016314Y008963D01*
X016284Y008961D01*
X016251Y008751D02*
X016481Y008751D01*
X016251Y008751D02*
X016234Y008749D01*
X016217Y008745D01*
X016201Y008738D01*
X016187Y008728D01*
X016174Y008715D01*
X016164Y008701D01*
X016157Y008685D01*
X016153Y008668D01*
X016151Y008651D01*
X016151Y007186D01*
X016321Y007016D01*
X020461Y007016D01*
X021721Y008276D01*
X016205Y005716D02*
X015281Y006640D01*
X015281Y011526D01*
X015279Y011544D01*
X015275Y011562D01*
X015267Y011578D01*
X015256Y011593D01*
X015243Y011606D01*
X015229Y011617D01*
X015212Y011625D01*
X015194Y011629D01*
X015176Y011631D01*
X014782Y011631D01*
X014782Y011827D02*
X013735Y011827D01*
X013666Y011896D01*
X013471Y011434D02*
X014782Y011434D01*
X014782Y011237D02*
X013761Y011237D01*
X013731Y011235D01*
X013701Y011230D01*
X013672Y011221D01*
X013645Y011208D01*
X013619Y011193D01*
X013595Y011174D01*
X013574Y011153D01*
X013555Y011129D01*
X013540Y011103D01*
X013527Y011076D01*
X013518Y011047D01*
X013513Y011017D01*
X013511Y010987D01*
X013511Y007541D01*
X010655Y004685D01*
X007751Y004685D01*
X007751Y004016D02*
X007751Y003921D01*
X006611Y002781D01*
X004306Y003991D02*
X003111Y002796D01*
X004306Y003991D02*
X004306Y004036D01*
X004306Y004705D02*
X004811Y005211D01*
X010396Y005211D01*
X013221Y008036D01*
X013221Y011184D01*
X013223Y011214D01*
X013228Y011244D01*
X013237Y011273D01*
X013250Y011300D01*
X013265Y011326D01*
X013284Y011350D01*
X013305Y011371D01*
X013329Y011390D01*
X013355Y011405D01*
X013382Y011418D01*
X013411Y011427D01*
X013441Y011432D01*
X013471Y011434D01*
X014046Y011040D02*
X014782Y011040D01*
X014782Y010843D02*
X014321Y010843D01*
X014291Y010841D01*
X014261Y010836D01*
X014232Y010827D01*
X014205Y010814D01*
X014179Y010799D01*
X014155Y010780D01*
X014134Y010759D01*
X014115Y010735D01*
X014100Y010709D01*
X014087Y010682D01*
X014078Y010653D01*
X014073Y010623D01*
X014071Y010593D01*
X014071Y005240D01*
X014591Y004720D01*
X014591Y004051D02*
X014591Y003761D01*
X013611Y002781D01*
X011351Y003996D02*
X010131Y002776D01*
X011351Y003996D02*
X011351Y004016D01*
X011351Y004685D02*
X011970Y004685D01*
X013796Y006511D01*
X013796Y010790D01*
X013798Y010820D01*
X013803Y010850D01*
X013812Y010879D01*
X013825Y010906D01*
X013840Y010932D01*
X013859Y010956D01*
X013880Y010977D01*
X013904Y010996D01*
X013930Y011011D01*
X013957Y011024D01*
X013986Y011033D01*
X014016Y011038D01*
X014046Y011040D01*
X013813Y012418D02*
X013666Y012565D01*
X013551Y012576D02*
X013151Y012576D01*
X012776Y012576D01*
X012766Y012566D01*
X012771Y012570D02*
X012811Y012610D01*
X012771Y012570D02*
X012633Y012708D01*
X012306Y013035D01*
X012306Y013615D01*
X012811Y013531D02*
X012811Y012916D01*
X012811Y012886D02*
X012809Y012861D01*
X012804Y012836D01*
X012795Y012812D01*
X012783Y012790D01*
X012768Y012769D01*
X012750Y012751D01*
X012729Y012736D01*
X012707Y012724D01*
X012683Y012715D01*
X012658Y012710D01*
X012633Y012708D01*
X012811Y012916D02*
X012813Y012880D01*
X012818Y012845D01*
X012828Y012811D01*
X012840Y012778D01*
X012857Y012746D01*
X012876Y012716D01*
X012898Y012688D01*
X012923Y012663D01*
X012951Y012641D01*
X012981Y012622D01*
X013013Y012605D01*
X013046Y012593D01*
X013080Y012583D01*
X013115Y012578D01*
X013151Y012576D01*
X013551Y012576D02*
X013709Y012418D01*
X014782Y012418D01*
X013813Y012418D01*
X014272Y012615D02*
X012760Y014127D01*
X012306Y014127D01*
X013166Y014076D02*
X013166Y014246D01*
X013191Y014251D01*
X013610Y014251D01*
X013166Y014076D02*
X014370Y012812D01*
X014782Y012812D01*
X014782Y012615D02*
X014272Y012615D01*
X013976Y013691D02*
X014122Y013837D01*
X014122Y014251D01*
X019270Y011631D02*
X020926Y011631D01*
X021971Y011630D02*
X021994Y011628D01*
X022016Y011624D01*
X022037Y011616D01*
X022058Y011605D01*
X022076Y011591D01*
X022092Y011575D01*
X022106Y011557D01*
X022117Y011536D01*
X022125Y011515D01*
X022129Y011493D01*
X022131Y011470D01*
X015536Y005716D02*
X015441Y005811D01*
X015026Y005811D01*
X016205Y005716D02*
X016205Y004885D01*
X015811Y004491D01*
X016706Y018611D02*
X017406Y018971D01*
X017446Y018941D01*
X016321Y019521D02*
X016180Y019341D01*
X015786Y019296D01*
X016401Y021951D02*
X016401Y021956D01*
X022451Y022006D02*
X022451Y022856D01*
X025526Y022856D01*
X025766Y023096D01*
X026435Y023096D02*
X027441Y023096D01*
X027966Y023620D01*
X027835Y022256D02*
X028300Y021791D01*
X028431Y021791D01*
X024791Y023656D02*
X024660Y023525D01*
X022451Y023525D01*
X022451Y022006D02*
X022786Y021671D01*
X024551Y026542D02*
X024492Y026573D01*
X024440Y026615D01*
X024398Y026667D01*
X024367Y026726D01*
X024347Y026789D01*
X024341Y026856D01*
X024341Y027806D01*
X024345Y027851D01*
X024358Y027894D01*
X024380Y027934D01*
X024408Y027968D01*
X024443Y027997D01*
X024483Y028018D01*
X024526Y028031D01*
X024571Y028036D01*
X029471Y027981D01*
X029671Y027981D01*
X029772Y027972D01*
X029871Y027946D01*
X029963Y027902D01*
X030047Y027844D01*
X030119Y027772D01*
X030177Y027688D01*
X030221Y027596D01*
X030247Y027497D01*
X030256Y027396D01*
X030256Y027216D01*
X030247Y027106D01*
X030222Y026999D01*
X030179Y026898D01*
X030122Y026804D01*
X030051Y026721D01*
X029967Y026649D01*
X029874Y026592D01*
X029772Y026550D01*
X029665Y026524D01*
X029556Y026516D01*
X024681Y026516D01*
X024614Y026522D01*
X024551Y026542D01*
X024448Y026609D02*
X029901Y026609D01*
X030035Y026707D02*
X024376Y026707D01*
X024346Y026806D02*
X030123Y026806D01*
X030182Y026905D02*
X024341Y026905D01*
X024341Y027003D02*
X030222Y027003D01*
X030246Y027102D02*
X024341Y027102D01*
X024341Y027200D02*
X030255Y027200D01*
X030256Y027299D02*
X024341Y027299D01*
X024341Y027397D02*
X030256Y027397D01*
X030247Y027496D02*
X024341Y027496D01*
X024341Y027594D02*
X030221Y027594D01*
X030174Y027693D02*
X024341Y027693D01*
X024341Y027791D02*
X030099Y027791D01*
X029981Y027890D02*
X024357Y027890D01*
X024433Y027989D02*
X028780Y027989D01*
X021286Y029771D02*
X021286Y031996D01*
X020646Y031996D01*
X018006Y034636D01*
X015791Y034636D01*
X013326Y032171D01*
X013026Y032171D01*
X012461Y032161D01*
X012461Y029911D01*
X014916Y029911D01*
X014916Y031996D01*
X018871Y031996D01*
X018871Y029771D01*
X021286Y029771D01*
X021286Y029861D02*
X018871Y029861D01*
X018871Y029959D02*
X021286Y029959D01*
X021286Y030058D02*
X018871Y030058D01*
X018871Y030156D02*
X021286Y030156D01*
X021286Y030255D02*
X018871Y030255D01*
X018871Y030354D02*
X021286Y030354D01*
X021286Y030452D02*
X018871Y030452D01*
X018871Y030551D02*
X021286Y030551D01*
X021286Y030649D02*
X018871Y030649D01*
X018871Y030748D02*
X021286Y030748D01*
X021286Y030846D02*
X018871Y030846D01*
X018871Y030945D02*
X021286Y030945D01*
X021286Y031043D02*
X018871Y031043D01*
X018871Y031142D02*
X021286Y031142D01*
X021286Y031240D02*
X018871Y031240D01*
X018871Y031339D02*
X021286Y031339D01*
X021286Y031438D02*
X018871Y031438D01*
X018871Y031536D02*
X021286Y031536D01*
X021286Y031635D02*
X018871Y031635D01*
X018871Y031733D02*
X021286Y031733D01*
X021286Y031832D02*
X018871Y031832D01*
X018871Y031930D02*
X021286Y031930D01*
X020613Y032029D02*
X012461Y032029D01*
X012461Y032127D02*
X020514Y032127D01*
X020416Y032226D02*
X013381Y032226D01*
X013479Y032324D02*
X020317Y032324D01*
X020219Y032423D02*
X013578Y032423D01*
X013677Y032522D02*
X020120Y032522D01*
X020021Y032620D02*
X013775Y032620D01*
X013874Y032719D02*
X019923Y032719D01*
X019824Y032817D02*
X013972Y032817D01*
X014071Y032916D02*
X019726Y032916D01*
X019627Y033014D02*
X014169Y033014D01*
X014268Y033113D02*
X019529Y033113D01*
X019430Y033211D02*
X014366Y033211D01*
X014465Y033310D02*
X019332Y033310D01*
X019233Y033408D02*
X014563Y033408D01*
X014662Y033507D02*
X019135Y033507D01*
X019036Y033606D02*
X014761Y033606D01*
X014859Y033704D02*
X018938Y033704D01*
X018839Y033803D02*
X014958Y033803D01*
X015056Y033901D02*
X018740Y033901D01*
X018642Y034000D02*
X015155Y034000D01*
X015253Y034098D02*
X018543Y034098D01*
X018445Y034197D02*
X015352Y034197D01*
X015450Y034295D02*
X018346Y034295D01*
X018248Y034394D02*
X015549Y034394D01*
X015647Y034492D02*
X018149Y034492D01*
X018051Y034591D02*
X015746Y034591D01*
X014916Y031930D02*
X012461Y031930D01*
X012461Y031832D02*
X014916Y031832D01*
X014916Y031733D02*
X012461Y031733D01*
X012461Y031635D02*
X014916Y031635D01*
X014916Y031536D02*
X012461Y031536D01*
X012461Y031438D02*
X014916Y031438D01*
X014916Y031339D02*
X012461Y031339D01*
X012461Y031240D02*
X014916Y031240D01*
X014916Y031142D02*
X012461Y031142D01*
X012461Y031043D02*
X014916Y031043D01*
X014916Y030945D02*
X012461Y030945D01*
X012461Y030846D02*
X014916Y030846D01*
X014916Y030748D02*
X012461Y030748D01*
X012461Y030649D02*
X014916Y030649D01*
X014916Y030551D02*
X012461Y030551D01*
X012461Y030452D02*
X014916Y030452D01*
X014916Y030354D02*
X012461Y030354D01*
X012461Y030255D02*
X014916Y030255D01*
X014916Y030156D02*
X012461Y030156D01*
X012461Y030058D02*
X014916Y030058D01*
X014916Y029959D02*
X012461Y029959D01*
X050669Y029415D02*
X050669Y030580D01*
X050752Y030376D01*
X050752Y029194D01*
X050725Y029190D01*
X050669Y029415D02*
X051169Y028915D01*
X051669Y028915D01*
X051584Y028983D01*
X051669Y029415D02*
X051584Y029483D01*
X051669Y029415D02*
X052169Y029915D01*
X053169Y029915D01*
X053169Y029415D01*
X052169Y028415D01*
X052169Y027915D01*
X051669Y027915D01*
X051584Y027983D01*
X051669Y028415D02*
X051584Y028483D01*
X051669Y028415D02*
X052669Y029415D01*
X052169Y029915D02*
X052169Y030915D01*
X052019Y030893D01*
X052169Y030915D02*
X052169Y031415D01*
X050669Y031415D01*
X050669Y031250D01*
X051397Y031884D02*
X051539Y031950D01*
X051539Y032344D01*
X052720Y033525D01*
X055870Y033525D01*
X056169Y033694D01*
X054169Y032915D02*
X054169Y030915D01*
X054289Y030947D01*
X054169Y030915D02*
X054169Y030415D01*
X054669Y029915D01*
X054745Y029728D01*
X055669Y029415D02*
X055669Y029309D01*
X055669Y029415D02*
X056169Y029915D01*
X056169Y031135D01*
X053669Y030915D02*
X053620Y030947D01*
X053669Y030915D02*
X052669Y031915D01*
X052169Y031915D01*
X052066Y031884D01*
X052169Y031915D02*
X052169Y031415D01*
X052669Y031415D02*
X052669Y030915D01*
X052688Y030893D01*
X053710Y028983D02*
X053669Y028915D01*
X053169Y028915D01*
X052669Y028415D01*
X052169Y027915D02*
X053669Y027915D01*
X053710Y027983D01*
X053669Y027915D02*
X054169Y027915D01*
X054669Y028415D01*
X055669Y028415D01*
X055669Y028521D01*
X054745Y029059D02*
X054669Y028915D01*
X054169Y028415D01*
X053669Y028415D01*
X053710Y028483D01*
X050725Y028521D02*
X050669Y028415D01*
X050669Y027915D01*
D45*
X033201Y014451D03*
X033101Y012501D03*
X016401Y021951D03*
D46*
X012956Y021981D02*
X012851Y021751D01*
X012350Y021751D01*
X011681Y021751D02*
X011135Y021751D01*
X010466Y021751D02*
X009781Y021065D01*
X009336Y021065D01*
X008990Y021065D01*
X008586Y020661D01*
X008193Y020661D01*
X008179Y020675D01*
X008179Y021257D02*
X008666Y021257D01*
X009326Y021916D01*
X009811Y021916D01*
X010471Y022576D01*
X009651Y022585D02*
X009326Y022585D01*
X009160Y022585D01*
X008586Y022011D01*
X008235Y022010D01*
X008179Y022005D01*
X007293Y021631D02*
X007293Y021438D01*
X006230Y020376D01*
X005561Y020376D02*
X004786Y020376D01*
X004291Y019881D01*
X003061Y019881D01*
X003026Y019846D01*
X003048Y019081D02*
X003026Y019058D01*
X003048Y019081D02*
X004291Y019081D01*
X004661Y018711D01*
X005561Y018711D01*
X005561Y019546D01*
X006230Y019546D02*
X006538Y019546D01*
X007293Y020301D01*
X008179Y019927D02*
X008866Y019927D01*
X009336Y020396D01*
X009636Y020096D01*
X010456Y020096D01*
X009951Y020621D02*
X010256Y020926D01*
X010466Y020926D01*
X011135Y020926D02*
X011681Y020926D01*
X012350Y020926D02*
X012356Y020920D01*
X012356Y020296D01*
X012330Y019266D02*
X012786Y019266D01*
X013056Y018996D01*
X011661Y019266D02*
X011125Y019261D01*
X010456Y019261D02*
X009410Y019261D01*
X009321Y019350D01*
X009296Y019326D01*
X008586Y019326D01*
X008183Y019326D01*
X008179Y019330D01*
X007293Y018956D02*
X007048Y018711D01*
X006230Y018711D01*
X006230Y017856D02*
X006455Y017631D01*
X007293Y017631D01*
X008179Y018005D02*
X008305Y018005D01*
X008586Y018001D01*
X009210Y018001D01*
X009291Y017920D01*
X010126Y017920D01*
X010451Y017596D01*
X009951Y017251D02*
X009291Y017251D01*
X009285Y017257D01*
X008179Y017257D01*
X008179Y016720D02*
X008380Y016725D01*
X008586Y016726D01*
X008651Y016660D01*
X009291Y016660D01*
X009686Y016660D01*
X010436Y015911D01*
X011105Y015911D02*
X011761Y015911D01*
X011936Y016086D01*
X012605Y016086D02*
X012605Y016096D01*
X013491Y016096D01*
X013301Y017276D02*
X012981Y017596D01*
X012695Y017596D01*
X012026Y017596D02*
X011120Y017596D01*
X010456Y018426D02*
X010201Y018681D01*
X009321Y018681D01*
X009221Y018582D01*
X008179Y018582D01*
X009291Y017920D02*
X009306Y017920D01*
X009951Y017251D02*
X010441Y016761D01*
X009530Y015991D02*
X009291Y015991D01*
X008198Y015991D01*
X008179Y015972D01*
X007293Y016346D02*
X006895Y016346D01*
X006230Y017011D01*
X005561Y017011D02*
X004761Y017011D01*
X004291Y017481D01*
X003028Y017481D01*
X003026Y017483D01*
X003026Y016696D02*
X003041Y016681D01*
X004291Y016681D01*
X004821Y016151D01*
X005561Y016151D01*
X006230Y016151D02*
X007293Y015088D01*
X007293Y015036D01*
X008179Y015410D02*
X008300Y015420D01*
X008621Y015416D01*
X008726Y015310D01*
X009291Y015310D01*
X009431Y015310D01*
X009831Y014911D01*
X009831Y014450D01*
X010080Y014201D01*
X010111Y014201D01*
X009291Y014146D02*
X009291Y014641D01*
X008219Y014641D01*
X008209Y014631D01*
X008179Y014662D01*
X008179Y014095D02*
X008470Y014095D01*
X008711Y014091D01*
X009291Y014146D02*
X010111Y013326D01*
X009501Y012471D02*
X008865Y012471D01*
X008865Y012470D02*
X008852Y012472D01*
X008839Y012476D01*
X008828Y012483D01*
X008818Y012493D01*
X008811Y012504D01*
X008807Y012517D01*
X008805Y012530D01*
X008806Y012530D02*
X008806Y012720D01*
X008179Y013347D01*
X007293Y013721D02*
X006230Y014783D01*
X006230Y015296D01*
X005561Y015296D02*
X004876Y015296D01*
X004291Y015881D01*
X003054Y015881D01*
X003026Y015909D01*
X003026Y015121D02*
X003066Y015081D01*
X004291Y015081D01*
X008749Y012586D02*
X008761Y012585D01*
X008773Y012580D01*
X008784Y012574D01*
X008793Y012565D01*
X008799Y012554D01*
X008804Y012542D01*
X008805Y012530D01*
X008806Y011861D02*
X009046Y011621D01*
X009496Y011621D01*
X009491Y011616D01*
X009491Y010751D01*
X009481Y010741D01*
X008856Y010741D01*
X010160Y010751D02*
X010165Y010756D01*
X010165Y011621D01*
X012281Y012150D02*
X012771Y012570D01*
X012776Y012565D01*
X013666Y012565D01*
X013666Y011896D02*
X012776Y011896D01*
X012771Y011901D01*
X012281Y012150D02*
X012291Y008456D01*
X009506Y005671D01*
X003746Y005671D01*
X002111Y004036D01*
X002111Y002796D01*
X002111Y002291D01*
X002536Y001866D01*
X006171Y001866D01*
X005611Y002426D01*
X005611Y002781D01*
X006171Y001866D02*
X009571Y001866D01*
X009131Y002306D01*
X009131Y002776D01*
X009571Y001866D02*
X013206Y001866D01*
X018026Y001866D01*
X018059Y001864D01*
X018091Y001859D01*
X018123Y001851D01*
X018154Y001839D01*
X018183Y001824D01*
X018211Y001806D01*
X018237Y001785D01*
X018260Y001762D01*
X018281Y001736D01*
X018299Y001708D01*
X018314Y001679D01*
X018326Y001648D01*
X018334Y001616D01*
X018339Y001584D01*
X018341Y001551D01*
X018341Y001651D02*
X018341Y002201D01*
X018341Y004461D01*
X018370Y004491D01*
X019328Y005449D01*
X019555Y005676D01*
X020646Y005676D01*
X019336Y007341D02*
X018390Y007401D01*
X018390Y008196D01*
X017721Y008236D02*
X017721Y007401D01*
X017727Y007391D01*
X017731Y007379D01*
X017732Y007367D01*
X017729Y007356D01*
X017724Y007345D01*
X017716Y007336D01*
X017116Y007336D01*
X016471Y007980D01*
X016511Y008406D01*
X017176Y007791D02*
X017176Y007396D01*
X017116Y007336D01*
X019336Y007341D02*
X019541Y007546D01*
X020256Y012146D02*
X021081Y012146D01*
X021676Y012146D01*
X021686Y012156D01*
X021305Y012815D02*
X021081Y012815D01*
X020256Y012815D01*
X021305Y012815D02*
X023576Y015086D01*
X028041Y014336D02*
X028083Y014338D01*
X028125Y014343D01*
X028167Y014353D01*
X028207Y014365D01*
X028246Y014381D01*
X028283Y014401D01*
X028319Y014424D01*
X028353Y014449D01*
X028384Y014478D01*
X028413Y014509D01*
X028438Y014543D01*
X028461Y014578D01*
X028481Y014616D01*
X028497Y014655D01*
X028509Y014695D01*
X028519Y014737D01*
X028524Y014779D01*
X028526Y014821D01*
X028526Y020116D01*
X028524Y020156D01*
X028519Y020196D01*
X028510Y020235D01*
X028498Y020273D01*
X028483Y020310D01*
X028464Y020346D01*
X028443Y020380D01*
X028418Y020412D01*
X028391Y020441D01*
X028362Y020468D01*
X028330Y020493D01*
X028296Y020514D01*
X028260Y020533D01*
X028223Y020548D01*
X028185Y020560D01*
X028146Y020569D01*
X028106Y020574D01*
X028066Y020576D01*
X026460Y020576D01*
X022186Y019371D02*
X021236Y019371D01*
X021036Y019371D01*
X021021Y019355D01*
X018346Y016806D02*
X018206Y016946D01*
X017602Y016921D01*
X017445Y016789D01*
X017445Y016076D01*
X017450Y016121D01*
X017450Y015236D01*
X016781Y015236D02*
X016781Y016664D01*
X016635Y016810D01*
X016500Y016921D01*
X016781Y016121D02*
X016776Y016076D01*
X016781Y016121D02*
X016781Y015236D01*
X010436Y015085D02*
X009530Y015991D01*
X009291Y015310D02*
X009400Y015201D01*
X010436Y015085D02*
X010436Y015056D01*
X005561Y017856D02*
X004716Y017856D01*
X004291Y018281D01*
X003036Y018281D01*
X003026Y018271D01*
X003026Y020633D02*
X003074Y020681D01*
X004291Y020681D01*
X004816Y021206D01*
X005561Y021206D01*
X006230Y021206D02*
X006230Y021993D01*
X007293Y023056D01*
X006420Y023430D02*
X008179Y023430D01*
X008694Y023945D01*
X009316Y023945D01*
X009346Y023976D01*
X009346Y025096D01*
X008676Y025096D01*
X007255Y026301D01*
X006811Y026301D01*
X005011Y028101D01*
X004952Y028159D01*
X005864Y028159D01*
X006546Y028841D01*
X006546Y033751D01*
X005966Y034331D01*
X008525Y034331D02*
X008530Y034326D01*
X010156Y034326D01*
X010825Y034326D02*
X011885Y035386D01*
X020011Y035386D01*
X022571Y032826D01*
X022571Y032201D01*
X022576Y032196D02*
X022576Y031821D01*
X022577Y031812D01*
X022582Y031803D01*
X022588Y031797D01*
X022597Y031792D01*
X022606Y031791D01*
X022846Y031926D02*
X022306Y031926D01*
X022293Y031924D01*
X022280Y031920D01*
X022269Y031913D01*
X022259Y031903D01*
X022252Y031892D01*
X022248Y031879D01*
X022246Y031866D01*
X022280Y031868D01*
X022315Y031873D01*
X022348Y031882D01*
X022380Y031895D01*
X022411Y031910D01*
X022440Y031929D01*
X022467Y031951D01*
X022491Y031975D01*
X022513Y032002D01*
X022532Y032031D01*
X022547Y032062D01*
X022560Y032094D01*
X022569Y032127D01*
X022574Y032162D01*
X022576Y032196D01*
X022576Y032566D01*
X022571Y032201D02*
X022573Y032170D01*
X022578Y032140D01*
X022586Y032110D01*
X022598Y032082D01*
X022613Y032055D01*
X022631Y032030D01*
X022652Y032007D01*
X022675Y031986D01*
X022700Y031968D01*
X022727Y031953D01*
X022755Y031941D01*
X022785Y031933D01*
X022815Y031928D01*
X022846Y031926D01*
X020071Y030891D02*
X020071Y029325D01*
X019536Y028791D01*
X018531Y028791D01*
X018201Y028461D01*
X018201Y027456D01*
X017071Y026471D02*
X016236Y025636D01*
X016236Y025100D01*
X015431Y025100D02*
X015431Y025781D01*
X015470Y025821D01*
X014476Y026815D01*
X014476Y027706D01*
X013159Y029023D01*
X012982Y029096D02*
X012361Y029096D01*
X012331Y029098D01*
X012301Y029103D01*
X012272Y029112D01*
X012245Y029125D01*
X012219Y029140D01*
X012195Y029159D01*
X012174Y029180D01*
X012155Y029204D01*
X012140Y029230D01*
X012127Y029257D01*
X012118Y029286D01*
X012113Y029316D01*
X012111Y029346D01*
X012111Y031706D01*
X012109Y031736D01*
X012104Y031766D01*
X012095Y031795D01*
X012082Y031822D01*
X012067Y031848D01*
X012048Y031872D01*
X012027Y031893D01*
X012003Y031912D01*
X011977Y031927D01*
X011950Y031940D01*
X011921Y031949D01*
X011891Y031954D01*
X011861Y031956D01*
X011106Y031956D01*
X011106Y030156D02*
X011106Y028881D01*
X012281Y027706D01*
X012476Y027706D01*
X012916Y027706D01*
X013413Y027208D01*
X013721Y026901D01*
X014801Y025821D01*
X014801Y024961D01*
X014750Y024911D01*
X014081Y024911D02*
X011891Y027101D01*
X009811Y027101D01*
X009326Y026616D01*
X009326Y025936D01*
X009326Y025116D01*
X009346Y025096D01*
X009311Y025096D01*
X010015Y025096D02*
X010646Y025101D01*
X011315Y025101D02*
X011956Y025101D01*
X012121Y024886D01*
X010481Y024241D02*
X009516Y023276D01*
X009316Y023276D01*
X008773Y023276D01*
X008179Y022682D01*
X009651Y022585D02*
X010481Y023416D01*
X011150Y023416D02*
X011751Y023561D01*
X012420Y023561D02*
X012901Y023571D01*
X013091Y023726D01*
X010751Y025881D02*
X010751Y025936D01*
X009995Y025936D01*
X010751Y026550D02*
X011501Y026550D01*
X011661Y026391D01*
X012281Y027706D02*
X009545Y027706D01*
X008357Y026301D01*
X004952Y028159D02*
X002746Y028159D01*
X002746Y029852D02*
X004762Y029852D01*
X005011Y030101D01*
X004486Y030626D01*
X003691Y030626D01*
X012982Y029096D02*
X013010Y029094D01*
X013038Y029090D01*
X013065Y029082D01*
X013090Y029071D01*
X013115Y029058D01*
X013138Y029041D01*
X013159Y029023D01*
X014141Y028746D02*
X014846Y028746D01*
X015351Y029251D01*
X015971Y029241D02*
X015971Y030896D01*
X017771Y030896D02*
X017771Y031086D01*
X017796Y031111D01*
X017796Y029846D01*
X017585Y029636D01*
X017585Y028985D01*
X017071Y028471D01*
X016515Y027915D01*
X015771Y027915D01*
X015151Y028421D02*
X015971Y029241D01*
X016466Y029241D02*
X016521Y029241D01*
X016916Y029636D01*
X015151Y028421D02*
X015151Y027246D01*
X015771Y027246D01*
X016295Y027246D01*
X017071Y026471D01*
X018061Y025746D02*
X018061Y025276D01*
X017886Y025100D01*
X017366Y025100D01*
X018061Y025746D02*
X018346Y026031D01*
X018865Y025411D02*
X019236Y025411D01*
X018865Y025411D02*
X018730Y025276D01*
X019756Y024806D02*
X019756Y024405D01*
X020616Y023545D01*
X022601Y024670D02*
X022601Y025026D01*
X021576Y025371D02*
X021231Y025026D01*
X020601Y025026D01*
X020601Y027986D01*
X022606Y029991D01*
X027716Y024301D02*
X027294Y023879D01*
X026526Y023879D01*
X026302Y023656D01*
X024791Y023656D01*
X028526Y014846D02*
X028528Y014803D01*
X028533Y014760D01*
X028542Y014717D01*
X028554Y014676D01*
X028570Y014635D01*
X028589Y014596D01*
X028611Y014559D01*
X028637Y014524D01*
X028665Y014490D01*
X028695Y014460D01*
X028729Y014432D01*
X028764Y014406D01*
X028801Y014384D01*
X028840Y014365D01*
X028881Y014349D01*
X028922Y014337D01*
X028965Y014328D01*
X029008Y014323D01*
X029051Y014321D01*
X028921Y014141D02*
X028885Y014143D01*
X028850Y014148D01*
X028815Y014157D01*
X028781Y014169D01*
X028749Y014184D01*
X028718Y014203D01*
X028689Y014224D01*
X028663Y014248D01*
X028639Y014274D01*
X028618Y014303D01*
X028599Y014334D01*
X028584Y014366D01*
X028572Y014400D01*
X028563Y014435D01*
X028558Y014470D01*
X028556Y014506D01*
X028556Y014561D01*
X028564Y014559D01*
X028570Y014555D01*
X028574Y014549D01*
X028576Y014541D01*
X028576Y014331D01*
X028575Y014333D01*
X028574Y014335D01*
X028571Y014336D01*
X028041Y014336D01*
X040936Y011351D02*
X044266Y011351D01*
X045266Y011351D02*
X045266Y010766D01*
X042101Y007601D01*
X054601Y011351D02*
X058601Y011351D01*
X018341Y002201D02*
X018339Y002166D01*
X018334Y002131D01*
X018325Y002097D01*
X018312Y002065D01*
X018296Y002033D01*
X018277Y002004D01*
X018255Y001977D01*
X018230Y001952D01*
X018203Y001930D01*
X018173Y001911D01*
X018142Y001895D01*
X018110Y001882D01*
X018076Y001873D01*
X018041Y001868D01*
X018006Y001866D01*
X013206Y001866D02*
X012611Y002461D01*
X012611Y002781D01*
X004291Y021481D02*
X003086Y021481D01*
X003026Y021420D01*
X004291Y021481D02*
X006420Y023430D01*
D47*
X008586Y022011D03*
X008586Y020661D03*
X009951Y020621D03*
X011631Y020076D03*
X012356Y020296D03*
X012951Y020011D03*
X013476Y020681D03*
X013451Y021256D03*
X014226Y021121D03*
X014411Y020531D03*
X015171Y019861D03*
X014606Y019491D03*
X015266Y018931D03*
X016321Y019521D03*
X016706Y018611D03*
X018106Y019171D03*
X018346Y019636D03*
X018616Y020136D03*
X020061Y019136D03*
X019391Y018571D03*
X019066Y018201D03*
X020346Y017401D03*
X021386Y017916D03*
X023141Y019491D03*
X023301Y020196D03*
X023616Y021396D03*
X022786Y021671D03*
X020926Y021501D03*
X018166Y021636D03*
X020371Y019886D03*
X018346Y016806D03*
X013491Y016096D03*
X013301Y017276D03*
X013056Y018996D03*
X008586Y019326D03*
X008586Y018001D03*
X008586Y016726D03*
X008621Y015416D03*
X008711Y014091D03*
X012811Y013531D03*
X013976Y013691D03*
X012811Y010676D03*
X008856Y010741D03*
X015026Y005811D03*
X017176Y007791D03*
X019541Y007546D03*
X021711Y007561D03*
X021721Y008276D03*
X021761Y006841D03*
X021421Y006241D03*
X022606Y006841D03*
X023166Y006261D03*
X023741Y006671D03*
X023956Y007376D03*
X028301Y009446D03*
X029711Y008036D03*
X033001Y009946D03*
X027246Y004061D03*
X019328Y005449D03*
X021686Y012156D03*
X025621Y017851D03*
X028431Y021791D03*
X027716Y024301D03*
X021576Y025371D03*
X019756Y024806D03*
X019236Y025411D03*
X018346Y026031D03*
X014141Y028746D03*
X015351Y029251D03*
X016466Y029241D03*
X013413Y027208D03*
X011661Y026391D03*
X012121Y024886D03*
X013091Y023726D03*
X012851Y022591D03*
X012956Y021981D03*
X003691Y030626D03*
D48*
X020616Y023545D02*
X020621Y023550D01*
X021481Y023550D01*
X022796Y024865D01*
X022796Y025026D01*
X024161Y025026D01*
X024791Y025656D01*
X024874Y025572D01*
X026526Y025572D01*
X027626Y026672D01*
X027626Y027271D01*
X022796Y025026D02*
X022601Y025026D01*
X018456Y017521D02*
X017001Y017521D01*
X016635Y017305D01*
X016635Y016810D01*
X018456Y017521D02*
X019923Y016183D01*
X020091Y016016D01*
X023836Y016016D01*
X025446Y016016D01*
X027361Y014101D01*
X023836Y016016D02*
X023805Y016014D01*
X023774Y016008D01*
X023744Y015999D01*
X023715Y015986D01*
X023688Y015970D01*
X023664Y015951D01*
X023641Y015928D01*
X023622Y015904D01*
X023606Y015877D01*
X023593Y015848D01*
X023584Y015818D01*
X023578Y015787D01*
X023576Y015756D01*
X023576Y015086D01*
X024363Y010696D02*
X026429Y008631D01*
X027375Y008631D01*
X028477Y008631D02*
X029384Y008631D01*
X031450Y010696D01*
X031452Y010685D01*
X031457Y010675D01*
X031465Y010667D01*
X031475Y010662D01*
X031486Y010660D01*
X031486Y010661D02*
X033686Y010661D01*
X033713Y010659D01*
X033740Y010654D01*
X033765Y010646D01*
X033790Y010635D01*
X033813Y010621D01*
X033835Y010605D01*
X033854Y010586D01*
X033870Y010564D01*
X033884Y010541D01*
X033895Y010516D01*
X033903Y010491D01*
X033908Y010464D01*
X033910Y010437D01*
X033909Y010437D02*
X033909Y008600D01*
X034406Y008103D01*
X034406Y004626D01*
X034406Y001506D01*
X034404Y001454D01*
X034399Y001401D01*
X034389Y001350D01*
X034376Y001299D01*
X034360Y001249D01*
X034340Y001201D01*
X034316Y001154D01*
X034289Y001109D01*
X034259Y001066D01*
X034226Y001025D01*
X034191Y000986D01*
X034152Y000951D01*
X034111Y000918D01*
X034068Y000888D01*
X034023Y000861D01*
X033976Y000837D01*
X033928Y000817D01*
X033878Y000801D01*
X033827Y000788D01*
X033776Y000778D01*
X033723Y000773D01*
X033671Y000771D01*
X018726Y000771D01*
X018688Y000773D01*
X018651Y000778D01*
X018614Y000788D01*
X018579Y000800D01*
X018545Y000816D01*
X018512Y000836D01*
X018482Y000858D01*
X018454Y000884D01*
X018428Y000912D01*
X018406Y000942D01*
X018386Y000975D01*
X018370Y001009D01*
X018358Y001044D01*
X018348Y001081D01*
X018343Y001118D01*
X018341Y001156D01*
X018341Y001551D01*
X018341Y001651D01*
X018341Y001855D01*
X018340Y001855D02*
X018339Y001860D01*
X018335Y001864D01*
X018330Y001865D01*
X025938Y002035D02*
X029674Y005771D01*
X031756Y005771D01*
X032462Y006477D01*
X032462Y007307D01*
X032959Y007755D02*
X033015Y007755D01*
X033412Y008152D01*
X032807Y008827D02*
X032390Y008410D01*
X032339Y008410D01*
X031842Y007962D02*
X031768Y008036D01*
X029711Y008036D01*
X028301Y009446D02*
X027513Y010234D01*
X027513Y010696D01*
X032101Y013652D02*
X032105Y013656D01*
X033306Y013656D01*
X033909Y013052D01*
X033909Y010437D01*
X033304Y009642D02*
X033001Y009946D01*
X033304Y009642D02*
X033304Y009275D01*
X032267Y005295D02*
X029985Y005295D01*
X027513Y002823D01*
X027513Y002035D01*
X031450Y002035D02*
X031450Y004432D01*
X031617Y004600D01*
X032114Y004152D02*
X032582Y003685D01*
X032622Y003685D01*
X033119Y003337D02*
X033754Y003972D01*
X034406Y004623D01*
X033257Y004420D02*
X033192Y004420D01*
X032764Y004847D01*
X033119Y003337D02*
X033119Y003237D01*
X012811Y010676D02*
X012811Y011861D01*
X012771Y011901D01*
D49*
X011986Y011871D02*
X011986Y014256D01*
X011796Y014416D02*
X011798Y014446D01*
X011803Y014476D01*
X011812Y014505D01*
X011825Y014532D01*
X011840Y014558D01*
X011859Y014582D01*
X011880Y014603D01*
X011904Y014622D01*
X011930Y014637D01*
X011957Y014650D01*
X011986Y014659D01*
X012016Y014664D01*
X012046Y014666D01*
X012826Y014666D01*
X013301Y015141D01*
X015081Y015141D01*
X015246Y014976D02*
X015276Y014978D01*
X015306Y014983D01*
X015335Y014992D01*
X015362Y015005D01*
X015388Y015020D01*
X015412Y015039D01*
X015433Y015060D01*
X015452Y015084D01*
X015467Y015110D01*
X015480Y015137D01*
X015489Y015166D01*
X015494Y015196D01*
X015496Y015226D01*
X015496Y015907D01*
X015656Y016052D02*
X015654Y016080D01*
X015650Y016108D01*
X015642Y016135D01*
X015631Y016160D01*
X015618Y016185D01*
X015601Y016208D01*
X015583Y016229D01*
X015561Y016282D02*
X015561Y018026D01*
X015856Y018321D01*
X017706Y018321D01*
X018941Y019556D01*
X018941Y020551D01*
X018402Y021090D01*
X017533Y021090D01*
X017533Y021247D02*
X018549Y021247D01*
X019141Y020656D01*
X019141Y019496D01*
X017781Y018136D01*
X015911Y018136D01*
X015726Y017921D01*
X015706Y016326D01*
X015956Y016031D01*
X015976Y014961D01*
X015626Y014631D01*
X015616Y014621D01*
X015376Y014621D01*
X015286Y014556D01*
X013711Y014556D01*
X013710Y014555D02*
X013691Y014551D01*
X013672Y014544D01*
X013656Y014534D01*
X013641Y014521D01*
X013628Y014505D01*
X013619Y014488D01*
X013612Y014469D01*
X013609Y014449D01*
X013610Y014430D01*
X013610Y014251D01*
X014122Y014251D02*
X014122Y014160D01*
X014126Y014156D01*
X013424Y014791D02*
X015406Y014791D01*
X015246Y014976D02*
X013371Y014976D01*
X012901Y014506D01*
X012236Y014506D01*
X012206Y014504D01*
X012176Y014499D01*
X012147Y014490D01*
X012120Y014477D01*
X012094Y014462D01*
X012070Y014443D01*
X012049Y014422D01*
X012030Y014398D01*
X012015Y014372D01*
X012002Y014345D01*
X011993Y014316D01*
X011988Y014286D01*
X011986Y014256D01*
X011796Y014416D02*
X011796Y012721D01*
X011794Y012691D01*
X011789Y012661D01*
X011780Y012632D01*
X011767Y012605D01*
X011752Y012579D01*
X011733Y012555D01*
X011712Y012534D01*
X011688Y012515D01*
X011662Y012500D01*
X011635Y012487D01*
X011606Y012478D01*
X011576Y012473D01*
X011546Y012471D01*
X010170Y012471D01*
X010165Y011621D02*
X011736Y011621D01*
X011766Y011623D01*
X011796Y011628D01*
X011825Y011637D01*
X011852Y011650D01*
X011878Y011665D01*
X011902Y011684D01*
X011923Y011705D01*
X011942Y011729D01*
X011957Y011755D01*
X011970Y011782D01*
X011979Y011811D01*
X011984Y011841D01*
X011986Y011871D01*
X011361Y013326D02*
X010780Y013326D01*
X011361Y013326D02*
X011391Y013328D01*
X011421Y013333D01*
X011450Y013342D01*
X011477Y013355D01*
X011503Y013370D01*
X011527Y013389D01*
X011548Y013410D01*
X011567Y013434D01*
X011582Y013460D01*
X011595Y013487D01*
X011604Y013516D01*
X011609Y013546D01*
X011611Y013576D01*
X011611Y014596D01*
X011436Y014761D02*
X011439Y014791D01*
X011445Y014820D01*
X011454Y014848D01*
X011467Y014875D01*
X011482Y014900D01*
X011500Y014924D01*
X011521Y014945D01*
X011544Y014964D01*
X011569Y014981D01*
X011595Y014994D01*
X011623Y015004D01*
X011652Y015011D01*
X011681Y015015D01*
X011711Y015016D01*
X012626Y015016D01*
X013151Y015526D01*
X014731Y015526D01*
X014916Y015336D02*
X014946Y015338D01*
X014976Y015343D01*
X015005Y015352D01*
X015032Y015365D01*
X015058Y015380D01*
X015082Y015399D01*
X015103Y015420D01*
X015122Y015444D01*
X015137Y015470D01*
X015150Y015497D01*
X015159Y015526D01*
X015164Y015556D01*
X015166Y015586D01*
X015166Y015752D01*
X015331Y015837D02*
X015329Y015865D01*
X015325Y015893D01*
X015317Y015920D01*
X015306Y015945D01*
X015293Y015970D01*
X015276Y015993D01*
X015258Y016014D01*
X015221Y016051D01*
X015221Y018157D01*
X015401Y018097D02*
X015401Y016106D01*
X015423Y016084D01*
X015656Y016052D02*
X015656Y015041D01*
X015654Y015011D01*
X015649Y014981D01*
X015640Y014952D01*
X015627Y014925D01*
X015612Y014899D01*
X015593Y014875D01*
X015572Y014854D01*
X015548Y014835D01*
X015522Y014820D01*
X015495Y014807D01*
X015466Y014798D01*
X015436Y014793D01*
X015406Y014791D01*
X015943Y014543D02*
X015943Y014170D01*
X015943Y014543D02*
X016161Y014761D01*
X016161Y016081D01*
X015924Y016343D01*
X016089Y016428D02*
X016342Y016150D01*
X016337Y014170D01*
X015331Y015391D02*
X015331Y015837D01*
X015496Y015907D02*
X015494Y015935D01*
X015490Y015963D01*
X015482Y015990D01*
X015471Y016015D01*
X015458Y016040D01*
X015441Y016063D01*
X015423Y016084D01*
X015583Y016230D02*
X015573Y016241D01*
X015567Y016254D01*
X015562Y016268D01*
X015561Y016282D01*
X015881Y016554D02*
X015886Y017441D01*
X015901Y017801D01*
X015986Y017951D01*
X017846Y017951D01*
X019391Y019496D01*
X019391Y020906D01*
X018376Y021921D01*
X018376Y021846D01*
X018166Y021636D01*
X018376Y021921D02*
X018262Y022035D01*
X017533Y022035D01*
X017533Y022192D02*
X018565Y022192D01*
X019636Y021121D01*
X019636Y019416D01*
X019601Y019381D01*
X019816Y019381D01*
X020061Y019136D01*
X020366Y019356D02*
X021221Y019356D01*
X021236Y019371D01*
X020366Y019356D02*
X019896Y019826D01*
X019896Y021316D01*
X018862Y022349D01*
X017533Y022349D01*
X017533Y022507D02*
X019005Y022507D01*
X020831Y020681D01*
X024376Y020681D01*
X024451Y020606D01*
X023996Y020971D02*
X024441Y021416D01*
X023996Y020971D02*
X020886Y020971D01*
X019192Y022664D01*
X017533Y022664D01*
X017533Y022822D02*
X019640Y022822D01*
X020216Y022246D01*
X021840Y022246D01*
X022451Y022856D01*
X021481Y022881D02*
X021095Y022496D01*
X020296Y022496D01*
X019704Y023088D01*
X017267Y023088D01*
X017109Y023088D02*
X017109Y023239D01*
X017331Y023461D01*
X020041Y023451D01*
X020616Y022876D01*
X018726Y023736D02*
X018726Y024561D01*
X018728Y024591D01*
X018733Y024621D01*
X018742Y024650D01*
X018755Y024677D01*
X018770Y024703D01*
X018789Y024727D01*
X018810Y024748D01*
X018834Y024767D01*
X018860Y024782D01*
X018887Y024795D01*
X018916Y024804D01*
X018946Y024809D01*
X018976Y024811D01*
X019092Y024811D01*
X019269Y024884D02*
X019791Y025406D01*
X019791Y026535D01*
X018870Y027456D01*
X018201Y027456D02*
X017951Y027205D01*
X017951Y026241D01*
X017591Y025881D01*
X017066Y025881D01*
X016751Y025566D01*
X016751Y025001D01*
X016746Y024996D01*
X016746Y024171D01*
X016322Y023747D01*
X016322Y023088D01*
X016165Y023088D02*
X016165Y024360D01*
X016236Y024431D01*
X015934Y023928D02*
X015431Y024431D01*
X014750Y024481D02*
X014750Y024911D01*
X014750Y024481D02*
X015776Y023455D01*
X015619Y023353D02*
X014081Y024865D01*
X014081Y024911D01*
X013681Y024671D02*
X012831Y024671D01*
X011620Y025881D01*
X010751Y025881D01*
X010646Y025101D02*
X010646Y024666D01*
X010646Y024666D01*
X011411Y024666D01*
X011641Y024436D01*
X013655Y024436D01*
X015269Y022822D01*
X015269Y022664D02*
X015057Y022664D01*
X013481Y024241D01*
X011150Y024241D01*
X011751Y023821D02*
X011751Y023561D01*
X011751Y023821D02*
X011753Y023851D01*
X011758Y023881D01*
X011767Y023910D01*
X011780Y023937D01*
X011795Y023963D01*
X011814Y023987D01*
X011835Y024008D01*
X011859Y024027D01*
X011885Y024042D01*
X011912Y024055D01*
X011941Y024064D01*
X011971Y024069D01*
X012001Y024071D01*
X013441Y024071D01*
X015005Y022507D01*
X015269Y022507D01*
X015269Y022349D02*
X014942Y022349D01*
X014171Y023121D01*
X012691Y023166D01*
X012141Y022611D01*
X011145Y022571D01*
X011140Y022576D01*
X011681Y021751D02*
X012526Y022595D01*
X012526Y022756D01*
X012726Y022956D01*
X014136Y022956D01*
X014900Y022192D01*
X015269Y022192D01*
X015269Y022035D02*
X014862Y022035D01*
X014656Y022241D01*
X013201Y022241D01*
X012851Y022591D01*
X013581Y022061D02*
X014591Y022076D01*
X014790Y021877D01*
X015269Y021877D01*
X015269Y021720D02*
X014672Y021720D01*
X014521Y021871D01*
X013596Y021851D01*
X013096Y021351D01*
X013091Y020541D01*
X013526Y020106D01*
X013526Y018426D01*
X011125Y018426D01*
X012026Y017751D02*
X012026Y017596D01*
X012026Y017751D02*
X012251Y017976D01*
X013701Y017976D01*
X013701Y020456D01*
X013476Y020681D01*
X013451Y021256D02*
X013596Y021256D01*
X013691Y021351D01*
X013691Y021691D01*
X014471Y021691D01*
X014599Y021562D01*
X015269Y021562D01*
X015269Y021405D02*
X014532Y021405D01*
X014456Y021481D01*
X013876Y021481D01*
X013876Y016761D01*
X011110Y016761D01*
X011936Y016086D02*
X012401Y016551D01*
X014086Y016551D01*
X014086Y019556D01*
X015354Y020824D01*
X015535Y020824D01*
X015692Y020824D02*
X015692Y020587D01*
X015171Y020066D01*
X015171Y019861D01*
X015786Y019965D02*
X015850Y020024D01*
X015850Y020824D01*
X016007Y020824D02*
X016007Y020389D01*
X016638Y019734D01*
X016833Y019839D02*
X016855Y019817D01*
X016875Y019794D01*
X016892Y019768D01*
X016906Y019741D01*
X016918Y019713D01*
X016927Y019683D01*
X016933Y019653D01*
X016937Y019622D01*
X016936Y019622D02*
X016936Y019346D01*
X016236Y018646D01*
X015846Y018646D01*
X015474Y018274D01*
X015294Y018334D02*
X015276Y018313D01*
X015259Y018290D01*
X015246Y018265D01*
X015235Y018240D01*
X015227Y018213D01*
X015223Y018185D01*
X015221Y018157D01*
X015294Y018334D02*
X015861Y018901D01*
X016231Y018901D01*
X016726Y019396D01*
X016726Y019587D01*
X016719Y019616D01*
X016709Y019643D01*
X016696Y019669D01*
X016679Y019693D01*
X016660Y019715D01*
X016637Y019734D01*
X016833Y019839D02*
X016165Y020517D01*
X016165Y020824D01*
X016322Y020824D02*
X016322Y021877D01*
X016401Y021956D01*
X017267Y021090D01*
X017267Y020824D01*
X016952Y020824D02*
X016952Y020650D01*
X017291Y020311D01*
X018441Y020311D01*
X018616Y020136D01*
X018346Y019636D02*
X017821Y020161D01*
X017241Y020161D01*
X016794Y020607D01*
X016794Y020824D01*
X016637Y020824D02*
X016637Y020550D01*
X017176Y020011D01*
X017686Y020011D01*
X017951Y019746D01*
X017951Y019326D01*
X018106Y019171D01*
X017446Y019610D02*
X017355Y019646D01*
X017001Y019916D01*
X016480Y020437D01*
X016480Y020824D01*
X016789Y021562D02*
X016401Y021951D01*
X016789Y021562D02*
X017533Y021562D01*
X017533Y021720D01*
X017533Y021405D02*
X017533Y021247D01*
X015786Y019965D02*
X014821Y018995D01*
X014821Y016039D01*
X014656Y015956D02*
X014656Y019441D01*
X014606Y019491D01*
X015266Y018931D02*
X015109Y018774D01*
X015036Y018597D02*
X015036Y016501D01*
X015031Y016496D01*
X015031Y015991D01*
X015093Y015929D01*
X014894Y015862D02*
X014876Y015883D01*
X014859Y015906D01*
X014846Y015931D01*
X014835Y015956D01*
X014827Y015983D01*
X014823Y016011D01*
X014821Y016039D01*
X014894Y015863D02*
X014981Y015776D01*
X015166Y015752D02*
X015164Y015780D01*
X015160Y015808D01*
X015152Y015835D01*
X015141Y015860D01*
X015128Y015885D01*
X015111Y015908D01*
X015093Y015929D01*
X014981Y015776D02*
X014979Y015746D01*
X014974Y015716D01*
X014965Y015687D01*
X014952Y015660D01*
X014937Y015634D01*
X014918Y015610D01*
X014897Y015589D01*
X014873Y015570D01*
X014847Y015555D01*
X014820Y015542D01*
X014791Y015533D01*
X014761Y015528D01*
X014731Y015526D01*
X014916Y015336D02*
X013261Y015336D01*
X012771Y014846D01*
X011861Y014846D01*
X011831Y014844D01*
X011801Y014839D01*
X011772Y014830D01*
X011745Y014817D01*
X011719Y014802D01*
X011695Y014783D01*
X011674Y014762D01*
X011655Y014738D01*
X011640Y014712D01*
X011627Y014685D01*
X011618Y014656D01*
X011613Y014626D01*
X011611Y014596D01*
X011431Y014451D02*
X011436Y014761D01*
X011431Y014451D02*
X011431Y014423D01*
X011427Y014394D01*
X011421Y014367D01*
X011411Y014340D01*
X011398Y014315D01*
X011381Y014292D01*
X011363Y014270D01*
X011342Y014251D01*
X011318Y014235D01*
X011293Y014222D01*
X011267Y014212D01*
X011239Y014205D01*
X011211Y014201D01*
X010780Y014201D01*
X011105Y015056D02*
X011105Y015176D01*
X012556Y015176D01*
X013086Y015706D01*
X014406Y015706D01*
X014436Y015708D01*
X014466Y015713D01*
X014495Y015722D01*
X014522Y015735D01*
X014548Y015750D01*
X014572Y015769D01*
X014593Y015790D01*
X014612Y015814D01*
X014627Y015840D01*
X014640Y015867D01*
X014649Y015896D01*
X014654Y015926D01*
X014656Y015956D01*
X015331Y015391D02*
X015329Y015361D01*
X015324Y015331D01*
X015315Y015302D01*
X015302Y015275D01*
X015287Y015249D01*
X015268Y015225D01*
X015247Y015204D01*
X015223Y015185D01*
X015197Y015170D01*
X015170Y015157D01*
X015141Y015148D01*
X015111Y015143D01*
X015081Y015141D01*
X013424Y014791D02*
X012760Y014127D01*
X016046Y016609D02*
X016066Y017646D01*
X016136Y017791D01*
X018011Y017791D01*
X019601Y019381D01*
X020371Y019886D02*
X020681Y020196D01*
X023301Y020196D01*
X022946Y021191D02*
X021236Y021191D01*
X020926Y021501D01*
X022946Y021191D02*
X024386Y022631D01*
X027645Y022631D01*
X027966Y022951D01*
X027166Y022256D02*
X026455Y022256D01*
X026450Y022261D01*
X025781Y022261D02*
X024481Y022261D01*
X023616Y021396D01*
X023205Y018626D02*
X022806Y018626D01*
X022411Y018231D01*
X022411Y017766D01*
X022036Y017391D01*
X021096Y017391D01*
X019916Y018571D01*
X019391Y018571D01*
X019066Y018201D02*
X020581Y016686D01*
X023546Y016686D01*
X023720Y016860D01*
X023720Y017276D01*
X023051Y017276D02*
X023031Y017276D01*
X022691Y016936D01*
X020811Y016936D01*
X020346Y017401D01*
X023205Y018626D02*
X023715Y018116D01*
X016089Y016428D02*
X016075Y016451D01*
X016062Y016476D01*
X016053Y016501D01*
X016047Y016528D01*
X016044Y016555D01*
X016043Y016582D01*
X016046Y016610D01*
X015881Y016555D02*
X015877Y016523D01*
X015876Y016492D01*
X015879Y016460D01*
X015885Y016429D01*
X015895Y016399D01*
X015908Y016370D01*
X015924Y016343D01*
X015401Y018097D02*
X015403Y018125D01*
X015407Y018153D01*
X015415Y018180D01*
X015426Y018205D01*
X015439Y018230D01*
X015456Y018253D01*
X015474Y018274D01*
X015036Y018597D02*
X015038Y018625D01*
X015042Y018653D01*
X015050Y018680D01*
X015061Y018705D01*
X015074Y018730D01*
X015091Y018753D01*
X015109Y018774D01*
X012951Y020011D02*
X012596Y019656D01*
X011681Y019656D01*
X011661Y019636D01*
X011661Y019266D01*
X011631Y020076D02*
X011611Y020096D01*
X011125Y020096D01*
X011681Y020926D02*
X011681Y021336D01*
X012836Y021336D01*
X013581Y022061D01*
X014352Y021247D02*
X014226Y021121D01*
X014352Y021247D02*
X015269Y021247D01*
X015269Y021090D02*
X014970Y021090D01*
X014411Y020531D01*
X015264Y023088D02*
X013681Y024671D01*
X015934Y023928D02*
X015952Y023907D01*
X015969Y023884D01*
X015982Y023859D01*
X015993Y023834D01*
X016001Y023807D01*
X016005Y023779D01*
X016007Y023751D01*
X016007Y023088D01*
X015850Y023088D02*
X015850Y023278D01*
X015692Y023176D02*
X015692Y023088D01*
X015535Y023088D02*
X015264Y023088D01*
X015692Y023176D02*
X015690Y023204D01*
X015686Y023232D01*
X015678Y023259D01*
X015667Y023284D01*
X015654Y023309D01*
X015637Y023332D01*
X015619Y023353D01*
X015777Y023455D02*
X015795Y023434D01*
X015812Y023411D01*
X015825Y023386D01*
X015836Y023361D01*
X015844Y023334D01*
X015848Y023306D01*
X015850Y023278D01*
X016480Y023441D02*
X016480Y023088D01*
X016637Y023088D02*
X016637Y023318D01*
X016480Y023441D02*
X016482Y023469D01*
X016486Y023497D01*
X016494Y023524D01*
X016505Y023549D01*
X016518Y023574D01*
X016535Y023597D01*
X016553Y023618D01*
X017366Y024431D01*
X017526Y024036D02*
X017556Y024038D01*
X017586Y024043D01*
X017615Y024052D01*
X017642Y024065D01*
X017668Y024080D01*
X017692Y024099D01*
X017713Y024120D01*
X017732Y024144D01*
X017747Y024170D01*
X017760Y024197D01*
X017769Y024226D01*
X017774Y024256D01*
X017776Y024286D01*
X017776Y024316D01*
X017778Y024346D01*
X017783Y024376D01*
X017792Y024405D01*
X017805Y024432D01*
X017820Y024458D01*
X017839Y024482D01*
X017860Y024503D01*
X017884Y024522D01*
X017910Y024537D01*
X017937Y024550D01*
X017966Y024559D01*
X017996Y024564D01*
X018026Y024566D01*
X018161Y024566D01*
X018186Y024615D01*
X018186Y023946D02*
X018105Y023841D01*
X017434Y023841D01*
X017354Y024036D02*
X017326Y024034D01*
X017298Y024030D01*
X017271Y024022D01*
X017246Y024011D01*
X017221Y023998D01*
X017198Y023981D01*
X017177Y023963D01*
X017178Y023963D02*
X016710Y023495D01*
X016858Y023418D02*
X017248Y023808D01*
X017291Y023631D02*
X018596Y023606D01*
X018616Y023608D01*
X018636Y023612D01*
X018655Y023620D01*
X018672Y023631D01*
X018688Y023644D01*
X018701Y023660D01*
X018712Y023677D01*
X018720Y023696D01*
X018724Y023716D01*
X018726Y023736D01*
X017526Y024036D02*
X017354Y024036D01*
X017291Y023631D02*
X016952Y023292D01*
X016952Y023088D01*
X016794Y023088D02*
X016794Y023201D01*
X016637Y023318D02*
X016639Y023346D01*
X016643Y023374D01*
X016651Y023401D01*
X016662Y023426D01*
X016675Y023451D01*
X016692Y023474D01*
X016710Y023495D01*
X016858Y023418D02*
X016839Y023391D01*
X016823Y023362D01*
X016810Y023331D01*
X016801Y023300D01*
X016795Y023267D01*
X016793Y023234D01*
X016795Y023201D01*
X017247Y023808D02*
X017272Y023822D01*
X017297Y023832D01*
X017324Y023840D01*
X017351Y023845D01*
X017379Y023847D01*
X017407Y023846D01*
X017434Y023841D01*
X019092Y024811D02*
X019120Y024813D01*
X019148Y024817D01*
X019175Y024825D01*
X019200Y024836D01*
X019225Y024849D01*
X019248Y024866D01*
X019269Y024884D01*
X034406Y004626D02*
X033119Y003339D01*
X033119Y003237D01*
D50*
X032111Y022997D02*
X031314Y022997D01*
X027086Y027226D01*
X027086Y027311D01*
X022606Y031791D01*
X027041Y027271D02*
X027626Y027271D01*
X029598Y027271D01*
X029613Y027286D01*
X027086Y027226D02*
X027041Y027271D01*
D51*
X037816Y028651D02*
X037816Y030151D01*
X037851Y030151D01*
X037851Y030951D01*
X038485Y030151D02*
X040085Y031121D01*
X041851Y031121D01*
X044538Y031121D01*
X044538Y031151D01*
X044538Y031651D02*
X044134Y031651D01*
X044088Y031653D01*
X044043Y031658D01*
X043998Y031667D01*
X043954Y031680D01*
X043911Y031695D01*
X043869Y031715D01*
X043829Y031737D01*
X043791Y031762D01*
X043755Y031791D01*
X043722Y031822D01*
X043691Y031855D01*
X043662Y031891D01*
X043637Y031929D01*
X043615Y031969D01*
X043595Y032011D01*
X043580Y032054D01*
X043567Y032098D01*
X043558Y032143D01*
X043553Y032188D01*
X043551Y032234D01*
X043551Y033016D01*
X045501Y033016D01*
X045501Y033685D02*
X046401Y033685D01*
X046401Y033801D01*
X046931Y034551D02*
X046976Y034549D01*
X047020Y034544D01*
X047064Y034535D01*
X047107Y034523D01*
X047149Y034508D01*
X047190Y034489D01*
X047229Y034467D01*
X047266Y034442D01*
X047301Y034414D01*
X047334Y034384D01*
X047364Y034351D01*
X047392Y034316D01*
X047417Y034279D01*
X047439Y034240D01*
X047458Y034199D01*
X047473Y034157D01*
X047485Y034114D01*
X047494Y034070D01*
X047499Y034026D01*
X047501Y033981D01*
X047501Y032146D01*
X047499Y032103D01*
X047493Y032060D01*
X047484Y032018D01*
X047471Y031977D01*
X047455Y031937D01*
X047435Y031898D01*
X047411Y031862D01*
X047385Y031828D01*
X047356Y031796D01*
X047324Y031767D01*
X047290Y031741D01*
X047253Y031717D01*
X047215Y031697D01*
X047175Y031681D01*
X047134Y031668D01*
X047092Y031659D01*
X047049Y031653D01*
X047006Y031651D01*
X046664Y031651D01*
X046664Y031151D02*
X046998Y031151D01*
X047040Y031149D01*
X047081Y031143D01*
X047122Y031134D01*
X047162Y031120D01*
X047200Y031104D01*
X047236Y031083D01*
X047271Y031060D01*
X047303Y031033D01*
X047333Y031003D01*
X047360Y030971D01*
X047383Y030936D01*
X047404Y030900D01*
X047420Y030862D01*
X047434Y030822D01*
X047443Y030781D01*
X047449Y030740D01*
X047451Y030698D01*
X047451Y029934D01*
X047449Y029888D01*
X047444Y029843D01*
X047435Y029798D01*
X047422Y029754D01*
X047407Y029711D01*
X047387Y029669D01*
X047365Y029629D01*
X047340Y029591D01*
X047311Y029555D01*
X047280Y029522D01*
X047247Y029491D01*
X047211Y029462D01*
X047173Y029437D01*
X047133Y029415D01*
X047091Y029395D01*
X047048Y029380D01*
X047004Y029367D01*
X046959Y029358D01*
X046914Y029353D01*
X046868Y029351D01*
X046085Y029351D01*
X045416Y029351D02*
X045416Y028001D01*
X046085Y028001D02*
X047101Y028001D01*
X045416Y029351D02*
X042951Y029351D01*
X042351Y028651D01*
X041351Y028651D02*
X038485Y028651D01*
X043651Y030301D02*
X044001Y030651D01*
X044538Y030651D01*
X043551Y033685D02*
X041851Y033685D01*
X041851Y033680D01*
X039815Y033680D01*
X039810Y033681D01*
X039805Y033684D01*
X039802Y033689D01*
X039801Y033694D01*
X043551Y033685D02*
X043551Y034036D01*
X043553Y034079D01*
X043558Y034121D01*
X043567Y034162D01*
X043579Y034203D01*
X043594Y034243D01*
X043613Y034281D01*
X043635Y034318D01*
X043660Y034352D01*
X043687Y034385D01*
X043717Y034415D01*
X043750Y034442D01*
X043784Y034467D01*
X043821Y034489D01*
X043859Y034508D01*
X043899Y034523D01*
X043940Y034535D01*
X043981Y034544D01*
X044023Y034549D01*
X044066Y034551D01*
X046931Y034551D01*
X051766Y023101D02*
X054016Y023851D01*
X054685Y023851D02*
X055935Y020101D01*
X058207Y022851D01*
X058994Y022851D02*
X062101Y022880D01*
X062101Y020321D02*
X062101Y017601D01*
X061016Y016516D01*
X060101Y016516D01*
X059101Y016601D01*
X060101Y017185D02*
X057601Y017185D01*
X055935Y020101D01*
X055266Y020101D02*
X051851Y021851D01*
X051851Y022851D02*
X051766Y023101D01*
X051851Y022851D02*
X049851Y021351D01*
X049851Y018935D01*
X049851Y018266D02*
X049851Y017101D01*
X050601Y016351D01*
X052538Y016351D01*
X052538Y016851D02*
X051851Y016851D01*
X051101Y017601D01*
X051101Y019935D01*
X051266Y020101D01*
X051935Y020101D02*
X053851Y020101D01*
X056101Y018601D01*
X056101Y016442D01*
X056110Y016432D01*
X057601Y016516D01*
X057601Y017185D02*
X056851Y017351D01*
X056110Y016432D02*
X054664Y016351D01*
X054664Y016851D02*
X055351Y016851D01*
X055601Y017351D02*
X054664Y017351D01*
X030061Y010611D02*
X029875Y010611D01*
X029875Y010696D01*
D52*
X055351Y016851D03*
X055601Y017351D03*
X056851Y017351D03*
X059101Y016601D03*
X047101Y028001D03*
X043651Y030301D03*
X037851Y030951D03*
X046401Y033801D03*
D53*
X052669Y031415D03*
X052669Y029415D03*
X052669Y028415D03*
X050669Y027915D03*
M02*
