%
M48
M72
T01C0.0197
T02C0.0236
T03C0.0240
T04C0.0300
T05C0.0315
T06C0.0320
T07C0.0400
T08C0.0472
T09C0.0583
T10C0.0591
T11C0.1539
%
T01
X39936Y11351
X40936Y11351
X44266Y11351
X45266Y11351
X43101Y7601
X42101Y7601
X53601Y11351
X54601Y11351
X58601Y11351
X59601Y11351
X43101Y22601
X42101Y22601
T02
X47101Y28001
X43651Y30301
X37851Y30951
X46401Y33801
X27716Y24301
X28431Y21791
X23616Y21396
X22786Y21671
X20926Y21501
X18616Y20136
X18346Y19636
X18106Y19171
X19066Y18201
X19391Y18571
X20061Y19136
X20371Y19886
X21386Y17916
X20346Y17401
X18346Y16806
X16706Y18611
X16321Y19521
X15171Y19861
X14606Y19491
X15266Y18931
X13056Y18996
X12951Y20011
X12356Y20296
X11631Y20076
X13476Y20681
X13451Y21256
X14226Y21121
X14411Y20531
X12956Y21981
X12851Y22591
X13091Y23726
X12121Y24886
X11661Y26391
X13413Y27208
X14141Y28746
X15351Y29251
X16466Y29241
X18346Y26031
X19236Y25411
X19756Y24806
X21576Y25371
X18166Y21636
X23301Y20196
X23141Y19491
X25621Y17851
X21686Y12156
X21721Y8276
X21711Y7561
X21761Y6841
X21421Y6241
X22606Y6841
X23166Y6261
X23741Y6671
X23956Y7376
X19541Y7546
X17176Y7791
X15026Y5811
X19328Y5449
X27246Y4061
X29711Y8036
X28301Y9446
X33001Y9946
X13976Y13691
X12811Y13531
X8711Y14091
X8621Y15416
X8586Y16726
X8586Y18001
X8586Y19326
X9951Y20621
X8586Y20661
X8586Y22011
X13301Y17276
X13491Y16096
X12811Y10676
X8856Y10741
X3691Y30626
X55351Y16851
X55601Y17351
X56851Y17351
X59101Y16601
T03
X50669Y27915
X52669Y28415
X52669Y29415
X52669Y31415
T04
X4291Y21481
X4291Y20681
X4291Y19881
X4291Y19081
X4291Y18281
X4291Y17481
X4291Y16681
X4291Y15881
X4291Y15081
T05
X3026Y15121
X3026Y15909
X3026Y16696
X3026Y17483
X3026Y18271
X3026Y19058
X3026Y19846
X3026Y20633
X3026Y21420
X24363Y10696
X25151Y10696
X25938Y10696
X26725Y10696
X27513Y10696
X28300Y10696
X29088Y10696
X29875Y10696
X30662Y10696
X31450Y10696
X27156Y16677
X27156Y17464
X27126Y19122
X27126Y19909
X32101Y18994
X32101Y18207
X32111Y22997
X32111Y23784
X39801Y32907
X39801Y33694
X55669Y29309
X55669Y28521
X58207Y22851
X58994Y22851
X31450Y2035
X30662Y2035
X29875Y2035
X29088Y2035
X28300Y2035
X27513Y2035
X26725Y2035
X25938Y2035
X25151Y2035
X24363Y2035
T06
X2111Y2796
X3111Y2796
X5611Y2781
X6611Y2781
X9131Y2776
X10131Y2776
X12611Y2781
X13611Y2781
X51851Y21851
X51851Y22851
X42351Y28651
X41351Y28651
X53169Y32915
X54169Y32915
T07
X24576Y15086
X23576Y15086
X22576Y15086
X21576Y15086
X20576Y15086
X21436Y1701
T08
X33101Y12501
X33201Y14451
X16401Y21951
T09
X29613Y27286
X29613Y28916
T10
X41851Y31121
X41851Y33680
X56169Y33694
X56169Y31135
X62101Y22880
X62101Y20321
X24745Y19371
X22186Y19371
X22110Y4491
X19551Y4491
X18370Y4491
X15811Y4491
X8525Y34331
X5966Y34331
T11
X32502Y28101
M30
