G75*
G70*
%OFA0B0*%
%FSLAX24Y24*%
%IPPOS*%
%LPD*%
%AMOC8*
5,1,8,0,0,1.08239X$1,22.5*
%
%ADD10R,0.0336X0.0159*%
%ADD11R,0.0159X0.0336*%
%ADD12R,0.1812X0.1812*%
%ADD13R,0.0513X0.0513*%
%ADD14R,0.0336X0.0316*%
%ADD15R,0.0710X0.0789*%
%ADD16R,0.1261X0.0710*%
%ADD17R,0.2550X0.2360*%
%ADD18R,0.0710X0.1261*%
%ADD19R,0.2360X0.2550*%
%ADD20C,0.0595*%
%ADD21R,0.0595X0.0595*%
%ADD22C,0.0954*%
%ADD23C,0.1619*%
%ADD24R,0.0671X0.0198*%
%ADD25R,0.0198X0.0671*%
%ADD26R,0.0513X0.0474*%
%ADD27R,0.0966X0.0966*%
%ADD28C,0.0820*%
%ADD29R,0.0434X0.0356*%
%ADD30R,0.0356X0.0434*%
%ADD31R,0.0870X0.0670*%
%ADD32R,0.0870X0.1580*%
%ADD33R,0.0789X0.0710*%
%ADD34R,0.0474X0.0513*%
%ADD35C,0.0680*%
%ADD36R,0.0513X0.0513*%
%ADD37R,0.0986X0.0769*%
%ADD38R,0.0769X0.0986*%
%ADD39C,0.0580*%
%ADD40R,0.0722X0.0678*%
%ADD41C,0.0477*%
%ADD42R,0.0671X0.0297*%
%ADD43R,0.0690X0.0316*%
%ADD44C,0.0789*%
%ADD45C,0.0476*%
%ADD46R,0.0476X0.0476*%
%ADD47C,0.0480*%
D10*
X015269Y021090D03*
X015269Y021247D03*
X015269Y021405D03*
X015269Y021562D03*
X015269Y021720D03*
X015269Y021877D03*
X015269Y022035D03*
X015269Y022192D03*
X015269Y022349D03*
X015269Y022507D03*
X015269Y022664D03*
X015269Y022822D03*
X017533Y022822D03*
X017533Y022664D03*
X017533Y022507D03*
X017533Y022349D03*
X017533Y022192D03*
X017533Y022035D03*
X017533Y021877D03*
X017533Y021720D03*
X017533Y021562D03*
X017533Y021405D03*
X017533Y021247D03*
X017533Y021090D03*
D11*
X017267Y020824D03*
X017109Y020824D03*
X016952Y020824D03*
X016794Y020824D03*
X016637Y020824D03*
X016480Y020824D03*
X016322Y020824D03*
X016165Y020824D03*
X016007Y020824D03*
X015850Y020824D03*
X015692Y020824D03*
X015535Y020824D03*
X015535Y023088D03*
X015692Y023088D03*
X015850Y023088D03*
X016007Y023088D03*
X016165Y023088D03*
X016322Y023088D03*
X016480Y023088D03*
X016637Y023088D03*
X016794Y023088D03*
X016952Y023088D03*
X017109Y023088D03*
X017267Y023088D03*
D12*
X016401Y021956D03*
D13*
X015786Y019965D03*
X015786Y019296D03*
X017446Y019610D03*
X017446Y018941D03*
X021021Y018686D03*
X021021Y019355D03*
X023046Y018116D03*
X023715Y018116D03*
X024296Y018111D03*
X024965Y018111D03*
X024980Y017271D03*
X024311Y017271D03*
X023720Y017276D03*
X023051Y017276D03*
X018675Y016126D03*
X018006Y016126D03*
X017445Y016076D03*
X016776Y016076D03*
X016781Y015236D03*
X017450Y015236D03*
X020256Y012815D03*
X021081Y012815D03*
X021081Y012146D03*
X020256Y012146D03*
X013666Y011896D03*
X013666Y012565D03*
X012771Y012570D03*
X012771Y011901D03*
X010780Y013326D03*
X010111Y013326D03*
X010170Y012471D03*
X009501Y012471D03*
X008806Y012530D03*
X008806Y011861D03*
X009496Y011621D03*
X010165Y011621D03*
X010160Y010751D03*
X009491Y010751D03*
X010111Y014201D03*
X010780Y014201D03*
X011105Y015056D03*
X010436Y015056D03*
X010436Y015911D03*
X011105Y015911D03*
X011936Y016086D03*
X012605Y016086D03*
X011110Y016761D03*
X010441Y016761D03*
X010451Y017596D03*
X011120Y017596D03*
X012026Y017596D03*
X012695Y017596D03*
X011125Y018426D03*
X010456Y018426D03*
X009321Y018681D03*
X009321Y019350D03*
X010456Y019261D03*
X011125Y019261D03*
X011661Y019266D03*
X012330Y019266D03*
X011125Y020096D03*
X010456Y020096D03*
X010466Y020926D03*
X011135Y020926D03*
X011681Y020926D03*
X012350Y020926D03*
X012350Y021751D03*
X011681Y021751D03*
X011135Y021751D03*
X010466Y021751D03*
X010471Y022576D03*
X011140Y022576D03*
X011150Y023416D03*
X011751Y023561D03*
X012420Y023561D03*
X011150Y024241D03*
X010481Y024241D03*
X010481Y023416D03*
X009316Y023276D03*
X009316Y023945D03*
X009346Y025096D03*
X010015Y025096D03*
X010646Y025101D03*
X011315Y025101D03*
X010751Y025881D03*
X009995Y025936D03*
X009326Y025936D03*
X010751Y026550D03*
X014081Y024911D03*
X014750Y024911D03*
X015431Y025100D03*
X016236Y025100D03*
X016236Y024431D03*
X015431Y024431D03*
X017366Y024431D03*
X018186Y024615D03*
X018186Y023946D03*
X018061Y025276D03*
X018730Y025276D03*
X017366Y025100D03*
X015470Y025821D03*
X014801Y025821D03*
X015771Y027246D03*
X015771Y027915D03*
X016916Y029636D03*
X017585Y029636D03*
X018201Y027456D03*
X018870Y027456D03*
X020616Y023545D03*
X021481Y023550D03*
X022451Y023525D03*
X022451Y022856D03*
X021481Y022881D03*
X020616Y022876D03*
X024441Y021416D03*
X025110Y021416D03*
X025781Y021416D03*
X026450Y021416D03*
X026450Y022261D03*
X025781Y022261D03*
X025766Y023096D03*
X026435Y023096D03*
X027166Y022256D03*
X027835Y022256D03*
X027966Y022951D03*
X027966Y023620D03*
X026460Y020576D03*
X025791Y020576D03*
X025120Y020606D03*
X024451Y020606D03*
X037816Y028651D03*
X038485Y028651D03*
X038485Y030151D03*
X037816Y030151D03*
X043551Y033016D03*
X043551Y033685D03*
X045501Y033685D03*
X045501Y033016D03*
X050669Y031250D03*
X050669Y030580D03*
X052019Y030893D03*
X052688Y030893D03*
X053620Y030947D03*
X054289Y030947D03*
X054745Y029728D03*
X054745Y029059D03*
X050725Y029190D03*
X050725Y028521D03*
X046085Y028001D03*
X045416Y028001D03*
X045416Y029351D03*
X046085Y029351D03*
X051397Y031884D03*
X052066Y031884D03*
X054016Y023851D03*
X054685Y023851D03*
X055266Y020101D03*
X055935Y020101D03*
X051935Y020101D03*
X051266Y020101D03*
X049851Y018935D03*
X049851Y018266D03*
X057601Y017185D03*
X057601Y016516D03*
X060101Y016516D03*
X060101Y017185D03*
X021315Y005676D03*
X020646Y005676D03*
X018390Y007401D03*
X017721Y007401D03*
X017721Y008236D03*
X018390Y008236D03*
X016205Y005716D03*
X015536Y005716D03*
X014591Y004720D03*
X014591Y004051D03*
X011351Y004016D03*
X011351Y004685D03*
X007751Y004685D03*
X007751Y004016D03*
X004306Y004036D03*
X004306Y004705D03*
X009291Y014641D03*
X009291Y015310D03*
X009291Y015991D03*
X009291Y016660D03*
X009291Y017251D03*
X009291Y017920D03*
X006230Y017856D03*
X005561Y017856D03*
X005561Y018711D03*
X006230Y018711D03*
X006230Y019546D03*
X005561Y019546D03*
X005561Y020376D03*
X006230Y020376D03*
X006230Y021206D03*
X005561Y021206D03*
X009336Y021065D03*
X009336Y020396D03*
X009326Y021916D03*
X009326Y022585D03*
X006230Y017011D03*
X005561Y017011D03*
X005561Y016151D03*
X006230Y016151D03*
X006230Y015296D03*
X005561Y015296D03*
X010156Y034326D03*
X010825Y034326D03*
D14*
X008179Y023430D03*
X007293Y023056D03*
X008179Y022682D03*
X008179Y022005D03*
X007293Y021631D03*
X008179Y021257D03*
X008179Y020675D03*
X007293Y020301D03*
X008179Y019927D03*
X008179Y019330D03*
X007293Y018956D03*
X008179Y018582D03*
X008179Y018005D03*
X007293Y017631D03*
X008179Y017257D03*
X008179Y016720D03*
X007293Y016346D03*
X008179Y015972D03*
X008179Y015410D03*
X007293Y015036D03*
X008179Y014662D03*
X008179Y014095D03*
X007293Y013721D03*
X008179Y013347D03*
D15*
X016500Y016921D03*
X017602Y016921D03*
X027375Y008631D03*
X028477Y008631D03*
X008357Y026301D03*
X007255Y026301D03*
D16*
X011106Y030156D03*
X011106Y031956D03*
X022606Y031791D03*
X022606Y029991D03*
D17*
X020071Y030891D03*
X013641Y031056D03*
D18*
X015971Y030896D03*
X017771Y030896D03*
D19*
X016871Y033431D03*
D20*
X032111Y023784D03*
X032111Y022997D03*
X027126Y019909D03*
X027126Y019122D03*
X027156Y017464D03*
X027156Y016677D03*
X032101Y018207D03*
X032101Y018994D03*
X055669Y028521D03*
X055669Y029309D03*
X058207Y022851D03*
X058994Y022851D03*
X039801Y032907D03*
X039801Y033694D03*
D21*
X003026Y021420D03*
X003026Y020633D03*
X003026Y019846D03*
X003026Y019058D03*
X003026Y018271D03*
X003026Y017483D03*
X003026Y016696D03*
X003026Y015909D03*
X003026Y015121D03*
D22*
X029613Y027286D03*
X029613Y028916D03*
D23*
X032502Y028101D03*
D24*
X019270Y013402D03*
X019270Y013205D03*
X019270Y013008D03*
X019270Y012812D03*
X019270Y012615D03*
X019270Y012418D03*
X019270Y012221D03*
X019270Y012024D03*
X019270Y011827D03*
X019270Y011631D03*
X019270Y011434D03*
X019270Y011237D03*
X019270Y011040D03*
X019270Y010843D03*
X019270Y010646D03*
X019270Y010449D03*
X014782Y010449D03*
X014782Y010646D03*
X014782Y010843D03*
X014782Y011040D03*
X014782Y011237D03*
X014782Y011434D03*
X014782Y011631D03*
X014782Y011827D03*
X014782Y012024D03*
X014782Y012221D03*
X014782Y012418D03*
X014782Y012615D03*
X014782Y012812D03*
X014782Y013008D03*
X014782Y013205D03*
X014782Y013402D03*
D25*
X015549Y014170D03*
X015746Y014170D03*
X015943Y014170D03*
X016140Y014170D03*
X016337Y014170D03*
X016534Y014170D03*
X016731Y014170D03*
X016927Y014170D03*
X017124Y014170D03*
X017321Y014170D03*
X017518Y014170D03*
X017715Y014170D03*
X017912Y014170D03*
X018108Y014170D03*
X018305Y014170D03*
X018502Y014170D03*
X018502Y009682D03*
X018305Y009682D03*
X018108Y009682D03*
X017912Y009682D03*
X017715Y009682D03*
X017518Y009682D03*
X017321Y009682D03*
X017124Y009682D03*
X016927Y009682D03*
X016731Y009682D03*
X016534Y009682D03*
X016337Y009682D03*
X016140Y009682D03*
X015943Y009682D03*
X015746Y009682D03*
X015549Y009682D03*
D26*
X016511Y008406D03*
X017180Y008406D03*
D27*
X018370Y004491D03*
X019551Y004491D03*
X022110Y004491D03*
X015811Y004491D03*
X022186Y019371D03*
X024745Y019371D03*
X041851Y031121D03*
X041851Y033680D03*
X056169Y033694D03*
X056169Y031135D03*
X062101Y022880D03*
X062101Y020321D03*
X008525Y034331D03*
X005966Y034331D03*
D28*
X002111Y002796D03*
X003111Y002796D03*
X005611Y002781D03*
X006611Y002781D03*
X009131Y002776D03*
X010131Y002776D03*
X012611Y002781D03*
X013611Y002781D03*
X021436Y001701D03*
X021576Y015086D03*
X020576Y015086D03*
X022576Y015086D03*
X023576Y015086D03*
X024576Y015086D03*
X041351Y028651D03*
X042351Y028651D03*
X051851Y022851D03*
X051851Y021851D03*
X053169Y032915D03*
X054169Y032915D03*
D29*
X012306Y014127D03*
X012306Y013615D03*
D30*
X013610Y014251D03*
X014122Y014251D03*
D31*
X029841Y014111D03*
X029841Y013211D03*
X029841Y015011D03*
D32*
X027361Y014101D03*
D33*
X032101Y014550D03*
X032101Y013652D03*
X032101Y012550D03*
X032101Y015652D03*
D34*
X031101Y015435D03*
X031101Y014766D03*
X031101Y013585D03*
X031101Y012916D03*
D35*
X031450Y010696D03*
X030662Y010696D03*
X029875Y010696D03*
X029088Y010696D03*
X028300Y010696D03*
X027513Y010696D03*
X026725Y010696D03*
X025938Y010696D03*
X025151Y010696D03*
X024363Y010696D03*
X024363Y002035D03*
X025151Y002035D03*
X025938Y002035D03*
X026725Y002035D03*
X027513Y002035D03*
X028300Y002035D03*
X029088Y002035D03*
X029875Y002035D03*
X030662Y002035D03*
X031450Y002035D03*
D36*
G36*
X033101Y003598D02*
X033480Y003255D01*
X033137Y002876D01*
X032758Y003219D01*
X033101Y003598D01*
G37*
G36*
X032604Y004046D02*
X032983Y003703D01*
X032640Y003324D01*
X032261Y003667D01*
X032604Y004046D01*
G37*
G36*
X032132Y003791D02*
X031753Y004134D01*
X032096Y004513D01*
X032475Y004170D01*
X032132Y003791D01*
G37*
G36*
X031635Y004239D02*
X031256Y004582D01*
X031599Y004961D01*
X031978Y004618D01*
X031635Y004239D01*
G37*
G36*
X032782Y004486D02*
X032403Y004829D01*
X032746Y005208D01*
X033125Y004865D01*
X032782Y004486D01*
G37*
G36*
X033239Y004781D02*
X033618Y004438D01*
X033275Y004059D01*
X032896Y004402D01*
X033239Y004781D01*
G37*
G36*
X032285Y004934D02*
X031906Y005277D01*
X032249Y005656D01*
X032628Y005313D01*
X032285Y004934D01*
G37*
G36*
X033736Y004333D02*
X034115Y003990D01*
X033772Y003611D01*
X033393Y003954D01*
X033736Y004333D01*
G37*
G36*
X032823Y007289D02*
X032444Y006946D01*
X032101Y007325D01*
X032480Y007668D01*
X032823Y007289D01*
G37*
G36*
X033320Y007737D02*
X032941Y007394D01*
X032598Y007773D01*
X032977Y008116D01*
X033320Y007737D01*
G37*
G36*
X033051Y008170D02*
X033430Y008513D01*
X033773Y008134D01*
X033394Y007791D01*
X033051Y008170D01*
G37*
G36*
X031978Y008428D02*
X032357Y008771D01*
X032700Y008392D01*
X032321Y008049D01*
X031978Y008428D01*
G37*
G36*
X031481Y007980D02*
X031860Y008323D01*
X032203Y007944D01*
X031824Y007601D01*
X031481Y007980D01*
G37*
G36*
X033168Y008809D02*
X032789Y008466D01*
X032446Y008845D01*
X032825Y009188D01*
X033168Y008809D01*
G37*
G36*
X033665Y009257D02*
X033286Y008914D01*
X032943Y009293D01*
X033322Y009636D01*
X033665Y009257D01*
G37*
G36*
X033548Y008618D02*
X033927Y008961D01*
X034270Y008582D01*
X033891Y008239D01*
X033548Y008618D01*
G37*
D37*
X024791Y023656D03*
X024791Y025656D03*
X017071Y026471D03*
X017071Y028471D03*
X005011Y028101D03*
X005011Y030101D03*
D38*
X012476Y027706D03*
X014476Y027706D03*
X020601Y025026D03*
X022601Y025026D03*
D39*
X004291Y021481D03*
X004291Y020681D03*
X004291Y019881D03*
X004291Y019081D03*
X004291Y018281D03*
X004291Y017481D03*
X004291Y016681D03*
X004291Y015881D03*
X004291Y015081D03*
D40*
X026526Y023879D03*
X026526Y025572D03*
X002746Y028159D03*
X002746Y029852D03*
D41*
X039936Y011351D03*
X040936Y011351D03*
X044266Y011351D03*
X045266Y011351D03*
X043101Y007601D03*
X042101Y007601D03*
X053601Y011351D03*
X054601Y011351D03*
X058601Y011351D03*
X059601Y011351D03*
X043101Y022601D03*
X042101Y022601D03*
D42*
X044538Y030651D03*
X044538Y031151D03*
X044538Y031651D03*
X044538Y032151D03*
X046664Y032151D03*
X046664Y031651D03*
X046664Y031151D03*
X046664Y030651D03*
D43*
X051584Y029483D03*
X051584Y028983D03*
X051584Y028483D03*
X051584Y027983D03*
X053710Y027983D03*
X053710Y028483D03*
X053710Y028983D03*
X053710Y029483D03*
X054664Y017351D03*
X054664Y016851D03*
X054664Y016351D03*
X054664Y015851D03*
X052538Y015851D03*
X052538Y016351D03*
X052538Y016851D03*
X052538Y017351D03*
D44*
X033201Y014451D03*
X033101Y012501D03*
X016401Y021951D03*
D45*
X018166Y021636D03*
X018616Y020136D03*
X018346Y019636D03*
X018106Y019171D03*
X019066Y018201D03*
X019391Y018571D03*
X020061Y019136D03*
X020371Y019886D03*
X020926Y021501D03*
X022786Y021671D03*
X023616Y021396D03*
X023301Y020196D03*
X023141Y019491D03*
X021386Y017916D03*
X020346Y017401D03*
X018346Y016806D03*
X016706Y018611D03*
X016321Y019521D03*
X015171Y019861D03*
X014606Y019491D03*
X015266Y018931D03*
X013056Y018996D03*
X012951Y020011D03*
X012356Y020296D03*
X011631Y020076D03*
X013476Y020681D03*
X013451Y021256D03*
X014226Y021121D03*
X014411Y020531D03*
X012956Y021981D03*
X012851Y022591D03*
X013091Y023726D03*
X012121Y024886D03*
X011661Y026391D03*
X013413Y027208D03*
X014141Y028746D03*
X015351Y029251D03*
X016466Y029241D03*
X018346Y026031D03*
X019236Y025411D03*
X019756Y024806D03*
X021576Y025371D03*
X027716Y024301D03*
X028431Y021791D03*
X025621Y017851D03*
X021686Y012156D03*
X021721Y008276D03*
X021711Y007561D03*
X021761Y006841D03*
X021421Y006241D03*
X022606Y006841D03*
X023166Y006261D03*
X023741Y006671D03*
X023956Y007376D03*
X019541Y007546D03*
X017176Y007791D03*
X015026Y005811D03*
X019328Y005449D03*
X027246Y004061D03*
X029711Y008036D03*
X028301Y009446D03*
X033001Y009946D03*
X013976Y013691D03*
X012811Y013531D03*
X008711Y014091D03*
X008621Y015416D03*
X008586Y016726D03*
X008586Y018001D03*
X008586Y019326D03*
X009951Y020621D03*
X008586Y020661D03*
X008586Y022011D03*
X013301Y017276D03*
X013491Y016096D03*
X012811Y010676D03*
X008856Y010741D03*
X003691Y030626D03*
D46*
X037851Y030951D03*
X043651Y030301D03*
X047101Y028001D03*
X046401Y033801D03*
X055601Y017351D03*
X055351Y016851D03*
X056851Y017351D03*
X059101Y016601D03*
D47*
X050669Y027915D03*
X052669Y028415D03*
X052669Y029415D03*
X052669Y031415D03*
M02*
