G75*
G70*
%OFA0B0*%
%FSLAX24Y24*%
%IPPOS*%
%LPD*%
%AMOC8*
5,1,8,0,0,1.08239X$1,22.5*
%
%ADD10C,0.0515*%
%ADD11R,0.0515X0.0515*%
%ADD12C,0.0874*%
%ADD13R,0.0886X0.0886*%
%ADD14C,0.0740*%
%ADD15C,0.0600*%
%ADD16C,0.0500*%
%ADD17C,0.0397*%
%ADD18R,0.0433X0.1654*%
%ADD19R,0.0591X0.1457*%
%ADD20C,0.0100*%
%ADD21C,0.0709*%
%ADD22C,0.0396*%
%ADD23C,0.0200*%
%ADD24C,0.0300*%
%ADD25C,0.0080*%
%ADD26C,0.0160*%
%ADD27R,0.0396X0.0396*%
%ADD28C,0.0400*%
D10*
X027156Y016677D03*
X027156Y017464D03*
X027126Y019122D03*
X027126Y019909D03*
X032101Y018994D03*
X032101Y018207D03*
X032111Y022997D03*
X032111Y023784D03*
X039801Y032907D03*
X039801Y033694D03*
X055669Y029309D03*
X055669Y028521D03*
X058207Y022851D03*
X058994Y022851D03*
D11*
X003026Y021420D03*
X003026Y020633D03*
X003026Y019846D03*
X003026Y019058D03*
X003026Y018271D03*
X003026Y017483D03*
X003026Y016696D03*
X003026Y015909D03*
X003026Y015121D03*
D12*
X029613Y027286D03*
X029613Y028916D03*
D13*
X041851Y031121D03*
X041851Y033680D03*
X056169Y033694D03*
X056169Y031135D03*
X062101Y022880D03*
X062101Y020321D03*
X024745Y019371D03*
X022186Y019371D03*
X022110Y004491D03*
X019551Y004491D03*
X018370Y004491D03*
X015811Y004491D03*
X008525Y034331D03*
X005966Y034331D03*
D14*
X020576Y015086D03*
X021576Y015086D03*
X022576Y015086D03*
X023576Y015086D03*
X024576Y015086D03*
X013611Y002781D03*
X012611Y002781D03*
X010131Y002776D03*
X009131Y002776D03*
X006611Y002781D03*
X005611Y002781D03*
X003111Y002796D03*
X002111Y002796D03*
X021436Y001701D03*
X051851Y021851D03*
X051851Y022851D03*
X042351Y028651D03*
X041351Y028651D03*
X053169Y032915D03*
X054169Y032915D03*
D15*
X031450Y010696D03*
X030662Y010696D03*
X029875Y010696D03*
X029088Y010696D03*
X028300Y010696D03*
X027513Y010696D03*
X026725Y010696D03*
X025938Y010696D03*
X025151Y010696D03*
X024363Y010696D03*
X024363Y002035D03*
X025151Y002035D03*
X025938Y002035D03*
X026725Y002035D03*
X027513Y002035D03*
X028300Y002035D03*
X029088Y002035D03*
X029875Y002035D03*
X030662Y002035D03*
X031450Y002035D03*
D16*
X004291Y015081D03*
X004291Y015881D03*
X004291Y016681D03*
X004291Y017481D03*
X004291Y018281D03*
X004291Y019081D03*
X004291Y019881D03*
X004291Y020681D03*
X004291Y021481D03*
D17*
X039936Y011351D03*
X040936Y011351D03*
X044266Y011351D03*
X045266Y011351D03*
X043101Y007601D03*
X042101Y007601D03*
X053601Y011351D03*
X054601Y011351D03*
X058601Y011351D03*
X059601Y011351D03*
X043101Y022601D03*
X042101Y022601D03*
D18*
X042207Y018632D03*
X042994Y018632D03*
X042994Y003632D03*
X042207Y003632D03*
X056207Y003632D03*
X056994Y003632D03*
D19*
X057920Y001369D03*
X055282Y001369D03*
X043920Y001369D03*
X041282Y001369D03*
X041282Y016369D03*
X043920Y016369D03*
D20*
X001185Y000691D02*
X001060Y000760D01*
X000946Y000845D01*
X000845Y000946D01*
X000760Y001060D01*
X000691Y001185D01*
X000641Y001319D01*
X000611Y001458D01*
X000601Y001601D01*
X000551Y007966D01*
X000551Y035285D01*
X000585Y035331D01*
X000686Y035432D01*
X000800Y035517D01*
X000925Y035585D01*
X001059Y035635D01*
X001131Y035651D01*
X034036Y035651D01*
X034091Y035630D01*
X034216Y035562D01*
X034331Y035477D01*
X034432Y035376D01*
X034517Y035261D01*
X034585Y035136D01*
X034635Y035003D01*
X034666Y034863D01*
X034676Y034721D01*
X034601Y003101D01*
X034601Y001601D01*
X034591Y001458D01*
X034560Y001319D01*
X034510Y001185D01*
X021502Y001185D01*
X021486Y001185D02*
X021386Y001185D01*
X021386Y001182D02*
X021386Y001651D01*
X020917Y001651D01*
X020929Y001579D01*
X000602Y001579D01*
X000600Y001677D02*
X021386Y001677D01*
X021386Y001651D02*
X021386Y001751D01*
X021386Y002219D01*
X021314Y002208D01*
X021236Y002183D01*
X021163Y002146D01*
X021097Y002097D01*
X021039Y002040D01*
X020991Y001973D01*
X000598Y001973D01*
X000599Y001875D02*
X020946Y001875D01*
X020954Y001900D02*
X020929Y001823D01*
X020917Y001751D01*
X021386Y001751D01*
X021486Y001751D01*
X021486Y002219D01*
X021558Y002208D01*
X021635Y002183D01*
X021708Y002146D01*
X021775Y002097D01*
X021832Y002040D01*
X021881Y001973D01*
X023933Y001973D01*
X023933Y001950D02*
X023999Y001791D01*
X024120Y001671D01*
X024278Y001605D01*
X024449Y001605D01*
X024607Y001671D01*
X024728Y001791D01*
X024757Y001862D01*
X024786Y001791D01*
X024907Y001671D01*
X025065Y001605D01*
X025236Y001605D01*
X025394Y001671D01*
X025515Y001791D01*
X025544Y001862D01*
X025573Y001791D01*
X025694Y001671D01*
X025852Y001605D01*
X026024Y001605D01*
X026182Y001671D01*
X026302Y001791D01*
X026332Y001862D01*
X026361Y001791D01*
X026482Y001671D01*
X026640Y001605D01*
X026811Y001605D01*
X026969Y001671D01*
X027090Y001791D01*
X027119Y001862D01*
X027148Y001791D01*
X027269Y001671D01*
X027427Y001605D01*
X027598Y001605D01*
X027756Y001671D01*
X027877Y001791D01*
X027906Y001862D01*
X027936Y001791D01*
X028057Y001671D01*
X028215Y001605D01*
X028386Y001605D01*
X028544Y001671D01*
X028665Y001791D01*
X028694Y001862D01*
X028723Y001791D01*
X028844Y001671D01*
X029002Y001605D01*
X029173Y001605D01*
X029331Y001671D01*
X029452Y001791D01*
X029481Y001862D01*
X029510Y001791D01*
X029631Y001671D01*
X029789Y001605D01*
X029961Y001605D01*
X030119Y001671D01*
X030239Y001791D01*
X030269Y001862D01*
X030298Y001791D01*
X030419Y001671D01*
X030577Y001605D01*
X030748Y001605D01*
X030906Y001671D01*
X031027Y001791D01*
X031056Y001862D01*
X031085Y001791D01*
X031206Y001671D01*
X031364Y001605D01*
X031535Y001605D01*
X031693Y001671D01*
X031814Y001791D01*
X031880Y001950D01*
X031880Y002121D01*
X031814Y002279D01*
X031693Y002400D01*
X031535Y002465D01*
X031364Y002465D01*
X031206Y002400D01*
X031085Y002279D01*
X031056Y002208D01*
X031027Y002279D01*
X030906Y002400D01*
X030748Y002465D01*
X030577Y002465D01*
X030419Y002400D01*
X030298Y002279D01*
X030269Y002208D01*
X030239Y002279D01*
X030119Y002400D01*
X029961Y002465D01*
X029789Y002465D01*
X029631Y002400D01*
X029510Y002279D01*
X029481Y002208D01*
X029452Y002279D01*
X029331Y002400D01*
X029173Y002465D01*
X029002Y002465D01*
X028844Y002400D01*
X028723Y002279D01*
X028694Y002208D01*
X028665Y002279D01*
X028544Y002400D01*
X028480Y002426D01*
X028480Y003081D01*
X028375Y003186D01*
X027571Y003990D01*
X027574Y003995D01*
X027574Y004126D01*
X027524Y004247D01*
X027432Y004339D01*
X027311Y004389D01*
X027180Y004389D01*
X027060Y004339D01*
X026968Y004247D01*
X026918Y004126D01*
X026918Y003995D01*
X026968Y003875D01*
X027060Y003783D01*
X027180Y003733D01*
X027311Y003733D01*
X027317Y003735D01*
X028120Y002932D01*
X028120Y002426D01*
X028057Y002400D01*
X027936Y002279D01*
X027906Y002208D01*
X027877Y002279D01*
X027756Y002400D01*
X027598Y002465D01*
X027427Y002465D01*
X027269Y002400D01*
X027148Y002279D01*
X027119Y002208D01*
X027090Y002279D01*
X026969Y002400D01*
X026811Y002465D01*
X026640Y002465D01*
X026482Y002400D01*
X026361Y002279D01*
X026332Y002208D01*
X026302Y002279D01*
X026182Y002400D01*
X026024Y002465D01*
X025852Y002465D01*
X025694Y002400D01*
X025573Y002279D01*
X025544Y002208D01*
X025515Y002279D01*
X025394Y002400D01*
X025236Y002465D01*
X025065Y002465D01*
X024907Y002400D01*
X024786Y002279D01*
X024757Y002208D01*
X024728Y002279D01*
X024607Y002400D01*
X024449Y002465D01*
X024278Y002465D01*
X024120Y002400D01*
X023999Y002279D01*
X023933Y002121D01*
X023933Y001950D01*
X023964Y001875D02*
X021926Y001875D01*
X021918Y001900D02*
X021881Y001973D01*
X021918Y001900D02*
X021943Y001823D01*
X021954Y001751D01*
X021486Y001751D01*
X021486Y001651D01*
X021954Y001651D01*
X021943Y001579D01*
X021918Y001501D01*
X021881Y001428D01*
X021832Y001362D01*
X021775Y001304D01*
X021708Y001256D01*
X021635Y001219D01*
X021558Y001194D01*
X021486Y001182D01*
X021486Y001651D01*
X021386Y001651D01*
X021386Y001579D02*
X021486Y001579D01*
X021486Y001677D02*
X024113Y001677D01*
X024014Y001776D02*
X021950Y001776D01*
X021943Y001579D02*
X034599Y001579D01*
X034601Y001677D02*
X031700Y001677D01*
X031799Y001776D02*
X034601Y001776D01*
X034601Y001875D02*
X031849Y001875D01*
X031880Y001973D02*
X034601Y001973D01*
X034601Y002072D02*
X031880Y002072D01*
X031859Y002170D02*
X034601Y002170D01*
X034601Y002269D02*
X031818Y002269D01*
X031726Y002367D02*
X034601Y002367D01*
X034601Y002466D02*
X028480Y002466D01*
X028480Y002564D02*
X034601Y002564D01*
X034601Y002663D02*
X028480Y002663D01*
X028480Y002761D02*
X034601Y002761D01*
X034601Y002860D02*
X028480Y002860D01*
X028480Y002959D02*
X034601Y002959D01*
X034601Y003057D02*
X028480Y003057D01*
X028405Y003156D02*
X034601Y003156D01*
X034601Y003254D02*
X028307Y003254D01*
X028208Y003353D02*
X034601Y003353D01*
X034602Y003451D02*
X028110Y003451D01*
X028011Y003550D02*
X034602Y003550D01*
X034602Y003648D02*
X027913Y003648D01*
X027814Y003747D02*
X034602Y003747D01*
X034603Y003845D02*
X027716Y003845D01*
X027617Y003944D02*
X034603Y003944D01*
X034603Y004043D02*
X027574Y004043D01*
X027568Y004141D02*
X034603Y004141D01*
X034604Y004240D02*
X027527Y004240D01*
X027432Y004338D02*
X034604Y004338D01*
X034604Y004437D02*
X022683Y004437D01*
X022683Y004535D02*
X034604Y004535D01*
X034604Y004634D02*
X022683Y004634D01*
X022683Y004732D02*
X034605Y004732D01*
X034605Y004831D02*
X022683Y004831D01*
X022683Y004929D02*
X034605Y004929D01*
X034605Y005028D02*
X022643Y005028D01*
X022607Y005064D02*
X021614Y005064D01*
X021537Y004988D01*
X021537Y003994D01*
X021614Y003918D01*
X022607Y003918D01*
X022683Y003994D01*
X022683Y004988D01*
X022607Y005064D01*
X022683Y004338D02*
X027059Y004338D01*
X026965Y004240D02*
X022683Y004240D01*
X022683Y004141D02*
X026924Y004141D01*
X026918Y004043D02*
X022683Y004043D01*
X022633Y003944D02*
X026939Y003944D01*
X026997Y003845D02*
X000583Y003845D01*
X000584Y003747D02*
X027146Y003747D01*
X027404Y003648D02*
X000585Y003648D01*
X000585Y003550D02*
X027502Y003550D01*
X027601Y003451D02*
X000586Y003451D01*
X000587Y003353D02*
X027699Y003353D01*
X027798Y003254D02*
X013774Y003254D01*
X013710Y003281D02*
X013894Y003205D01*
X014035Y003064D01*
X014111Y002880D01*
X014111Y002681D01*
X014035Y002498D01*
X013894Y002357D01*
X013710Y002281D01*
X013511Y002281D01*
X013328Y002357D01*
X013187Y002498D01*
X013111Y002681D01*
X013111Y002880D01*
X013187Y003064D01*
X013328Y003205D01*
X013511Y003281D01*
X013710Y003281D01*
X013447Y003254D02*
X012774Y003254D01*
X012710Y003281D02*
X012511Y003281D01*
X012328Y003205D01*
X012187Y003064D01*
X012111Y002880D01*
X012111Y002681D01*
X012187Y002498D01*
X012328Y002357D01*
X012511Y002281D01*
X012710Y002281D01*
X012894Y002357D01*
X013035Y002498D01*
X013111Y002681D01*
X013111Y002880D01*
X013035Y003064D01*
X012894Y003205D01*
X012710Y003281D01*
X012447Y003254D02*
X010282Y003254D01*
X010230Y003276D02*
X010414Y003200D01*
X010555Y003059D01*
X010631Y002875D01*
X010631Y002676D01*
X010555Y002493D01*
X010414Y002352D01*
X010230Y002276D01*
X010031Y002276D01*
X009848Y002352D01*
X009707Y002493D01*
X009631Y002676D01*
X009631Y002875D01*
X009707Y003059D01*
X009848Y003200D01*
X010031Y003276D01*
X010230Y003276D01*
X009979Y003254D02*
X009282Y003254D01*
X009230Y003276D02*
X009414Y003200D01*
X009555Y003059D01*
X009631Y002875D01*
X009631Y002676D01*
X009555Y002493D01*
X009414Y002352D01*
X009230Y002276D01*
X009031Y002276D01*
X008848Y002352D01*
X008707Y002493D01*
X008631Y002676D01*
X008631Y002875D01*
X008707Y003059D01*
X008848Y003200D01*
X009031Y003276D01*
X009230Y003276D01*
X008979Y003254D02*
X006774Y003254D01*
X006710Y003281D02*
X006894Y003205D01*
X007035Y003064D01*
X007111Y002880D01*
X007111Y002681D01*
X007035Y002498D01*
X006894Y002357D01*
X006710Y002281D01*
X006511Y002281D01*
X006328Y002357D01*
X006187Y002498D01*
X006111Y002681D01*
X006111Y002880D01*
X006187Y003064D01*
X006328Y003205D01*
X006511Y003281D01*
X006710Y003281D01*
X006447Y003254D02*
X005774Y003254D01*
X005710Y003281D02*
X005511Y003281D01*
X005328Y003205D01*
X005187Y003064D01*
X005111Y002880D01*
X005111Y002681D01*
X005187Y002498D01*
X005328Y002357D01*
X005511Y002281D01*
X005710Y002281D01*
X005894Y002357D01*
X006035Y002498D01*
X006111Y002681D01*
X006111Y002880D01*
X006035Y003064D01*
X005894Y003205D01*
X005710Y003281D01*
X005447Y003254D02*
X003311Y003254D01*
X003394Y003220D02*
X003210Y003296D01*
X003011Y003296D01*
X002828Y003220D01*
X002687Y003079D01*
X002611Y002895D01*
X002611Y002696D01*
X002687Y002513D01*
X002828Y002372D01*
X003011Y002296D01*
X003210Y002296D01*
X003394Y002372D01*
X003535Y002513D01*
X003611Y002696D01*
X003611Y002895D01*
X003535Y003079D01*
X003394Y003220D01*
X003458Y003156D02*
X005279Y003156D01*
X005184Y003057D02*
X003544Y003057D01*
X003585Y002959D02*
X005143Y002959D01*
X005111Y002860D02*
X003611Y002860D01*
X003611Y002761D02*
X005111Y002761D01*
X005118Y002663D02*
X003597Y002663D01*
X003556Y002564D02*
X005159Y002564D01*
X005219Y002466D02*
X003488Y002466D01*
X003383Y002367D02*
X005317Y002367D01*
X005904Y002367D02*
X006317Y002367D01*
X006219Y002466D02*
X006003Y002466D01*
X006062Y002564D02*
X006159Y002564D01*
X006118Y002663D02*
X006103Y002663D01*
X006111Y002761D02*
X006111Y002761D01*
X006111Y002860D02*
X006111Y002860D01*
X006078Y002959D02*
X006143Y002959D01*
X006184Y003057D02*
X006038Y003057D01*
X005943Y003156D02*
X006279Y003156D01*
X006943Y003156D02*
X008804Y003156D01*
X008706Y003057D02*
X007038Y003057D01*
X007078Y002959D02*
X008665Y002959D01*
X008631Y002860D02*
X007111Y002860D01*
X007111Y002761D02*
X008631Y002761D01*
X008636Y002663D02*
X007103Y002663D01*
X007062Y002564D02*
X008677Y002564D01*
X008734Y002466D02*
X007003Y002466D01*
X006904Y002367D02*
X008832Y002367D01*
X009429Y002367D02*
X009832Y002367D01*
X009734Y002466D02*
X009528Y002466D01*
X009584Y002564D02*
X009677Y002564D01*
X009636Y002663D02*
X009625Y002663D01*
X009631Y002761D02*
X009631Y002761D01*
X009631Y002860D02*
X009631Y002860D01*
X009665Y002959D02*
X009596Y002959D01*
X009555Y003057D02*
X009706Y003057D01*
X009804Y003156D02*
X009458Y003156D01*
X010458Y003156D02*
X012279Y003156D01*
X012184Y003057D02*
X010555Y003057D01*
X010596Y002959D02*
X012143Y002959D01*
X012111Y002860D02*
X010631Y002860D01*
X010631Y002761D02*
X012111Y002761D01*
X012118Y002663D02*
X010625Y002663D01*
X010584Y002564D02*
X012159Y002564D01*
X012219Y002466D02*
X010528Y002466D01*
X010429Y002367D02*
X012317Y002367D01*
X012904Y002367D02*
X013317Y002367D01*
X013219Y002466D02*
X013003Y002466D01*
X013062Y002564D02*
X013159Y002564D01*
X013118Y002663D02*
X013103Y002663D01*
X013111Y002761D02*
X013111Y002761D01*
X013111Y002860D02*
X013111Y002860D01*
X013078Y002959D02*
X013143Y002959D01*
X013184Y003057D02*
X013038Y003057D01*
X012943Y003156D02*
X013279Y003156D01*
X013943Y003156D02*
X027896Y003156D01*
X027995Y003057D02*
X014038Y003057D01*
X014078Y002959D02*
X028093Y002959D01*
X028120Y002860D02*
X014111Y002860D01*
X014111Y002761D02*
X028120Y002761D01*
X028120Y002663D02*
X014103Y002663D01*
X014062Y002564D02*
X028120Y002564D01*
X028120Y002466D02*
X014003Y002466D01*
X013904Y002367D02*
X024087Y002367D01*
X023995Y002269D02*
X000596Y002269D01*
X000595Y002367D02*
X001839Y002367D01*
X001828Y002372D02*
X002011Y002296D01*
X002210Y002296D01*
X002394Y002372D01*
X002535Y002513D01*
X002611Y002696D01*
X002611Y002895D01*
X002535Y003079D01*
X002394Y003220D01*
X002210Y003296D01*
X002011Y003296D01*
X001828Y003220D01*
X001687Y003079D01*
X001611Y002895D01*
X001611Y002696D01*
X001687Y002513D01*
X001828Y002372D01*
X001734Y002466D02*
X000594Y002466D01*
X000593Y002564D02*
X001665Y002564D01*
X001625Y002663D02*
X000592Y002663D01*
X000592Y002761D02*
X001611Y002761D01*
X001611Y002860D02*
X000591Y002860D01*
X000590Y002959D02*
X001637Y002959D01*
X001678Y003057D02*
X000589Y003057D01*
X000589Y003156D02*
X001764Y003156D01*
X001911Y003254D02*
X000588Y003254D01*
X000582Y003944D02*
X015288Y003944D01*
X015314Y003918D02*
X016308Y003918D01*
X016384Y003994D01*
X016384Y004988D01*
X016308Y005064D01*
X015314Y005064D01*
X015238Y004988D01*
X015238Y003994D01*
X015314Y003918D01*
X015238Y004043D02*
X000582Y004043D01*
X000581Y004141D02*
X015238Y004141D01*
X015238Y004240D02*
X000580Y004240D01*
X000579Y004338D02*
X015238Y004338D01*
X015238Y004437D02*
X000579Y004437D01*
X000578Y004535D02*
X015238Y004535D01*
X015238Y004634D02*
X000577Y004634D01*
X000576Y004732D02*
X015238Y004732D01*
X015238Y004831D02*
X000575Y004831D01*
X000575Y004929D02*
X015238Y004929D01*
X015279Y005028D02*
X000574Y005028D01*
X000573Y005126D02*
X019248Y005126D01*
X019263Y005120D02*
X019142Y005170D01*
X019050Y005263D01*
X019000Y005383D01*
X019000Y005514D01*
X019050Y005634D01*
X019142Y005727D01*
X019263Y005777D01*
X019311Y005777D01*
X019311Y007312D01*
X019263Y007360D01*
X019213Y007480D01*
X019213Y007611D01*
X019263Y007732D01*
X019355Y007824D01*
X019475Y007874D01*
X019606Y007874D01*
X019727Y007824D01*
X019819Y007732D01*
X019869Y007611D01*
X019869Y007480D01*
X019819Y007360D01*
X019771Y007312D01*
X019771Y005566D01*
X019656Y005451D01*
X019656Y005383D01*
X019606Y005263D01*
X019514Y005170D01*
X019393Y005120D01*
X019263Y005120D01*
X019408Y005126D02*
X034606Y005126D01*
X034606Y005225D02*
X019569Y005225D01*
X019631Y005324D02*
X034606Y005324D01*
X034606Y005422D02*
X019656Y005422D01*
X019725Y005521D02*
X034607Y005521D01*
X034607Y005619D02*
X019771Y005619D01*
X019771Y005718D02*
X034607Y005718D01*
X034607Y005816D02*
X019771Y005816D01*
X019771Y005915D02*
X021350Y005915D01*
X021355Y005913D02*
X021486Y005913D01*
X021607Y005963D01*
X021699Y006055D01*
X021701Y006061D01*
X022902Y006061D01*
X022980Y005983D01*
X023100Y005933D01*
X023231Y005933D01*
X023352Y005983D01*
X023444Y006075D01*
X023494Y006195D01*
X023494Y006326D01*
X023444Y006447D01*
X023352Y006539D01*
X023231Y006589D01*
X023100Y006589D01*
X022980Y006539D01*
X022888Y006447D01*
X022877Y006421D01*
X021701Y006421D01*
X021699Y006427D01*
X021607Y006519D01*
X021486Y006569D01*
X021355Y006569D01*
X021235Y006519D01*
X021143Y006427D01*
X021093Y006306D01*
X021093Y006175D01*
X021143Y006055D01*
X021235Y005963D01*
X021355Y005913D01*
X021491Y005915D02*
X034607Y005915D01*
X034608Y006013D02*
X023382Y006013D01*
X023459Y006112D02*
X034608Y006112D01*
X034608Y006210D02*
X023494Y006210D01*
X023494Y006309D02*
X034608Y006309D01*
X034609Y006408D02*
X023942Y006408D01*
X023927Y006393D02*
X024019Y006485D01*
X024069Y006605D01*
X024069Y006736D01*
X024019Y006857D01*
X023927Y006949D01*
X023806Y006999D01*
X023675Y006999D01*
X023667Y006999D01*
X023670Y006996D02*
X022925Y007741D01*
X022776Y007741D01*
X021991Y007741D01*
X021989Y007747D01*
X021897Y007839D01*
X021776Y007889D01*
X021645Y007889D01*
X021525Y007839D01*
X021433Y007747D01*
X021383Y007626D01*
X021383Y007495D01*
X021433Y007375D01*
X021525Y007283D01*
X021645Y007233D01*
X021776Y007233D01*
X021897Y007283D01*
X021989Y007375D01*
X021991Y007381D01*
X022776Y007381D01*
X023415Y006742D01*
X023413Y006736D01*
X023413Y006605D01*
X022834Y006605D01*
X022792Y006563D02*
X022884Y006655D01*
X022934Y006775D01*
X022934Y006906D01*
X022884Y007027D01*
X022792Y007119D01*
X022671Y007169D01*
X022540Y007169D01*
X022420Y007119D01*
X022328Y007027D01*
X022325Y007021D01*
X022041Y007021D01*
X022039Y007027D01*
X021947Y007119D01*
X021826Y007169D01*
X021695Y007169D01*
X021575Y007119D01*
X021483Y007027D01*
X021433Y006906D01*
X021433Y006775D01*
X021483Y006655D01*
X021575Y006563D01*
X021695Y006513D01*
X021826Y006513D01*
X021947Y006563D01*
X022039Y006655D01*
X022041Y006661D01*
X022325Y006661D01*
X022328Y006655D01*
X022420Y006563D01*
X022540Y006513D01*
X022671Y006513D01*
X022792Y006563D01*
X022947Y006506D02*
X021619Y006506D01*
X021533Y006605D02*
X019771Y006605D01*
X019771Y006703D02*
X021463Y006703D01*
X021433Y006802D02*
X019771Y006802D01*
X019771Y006900D02*
X021433Y006900D01*
X021471Y006999D02*
X019771Y006999D01*
X019771Y007097D02*
X021553Y007097D01*
X021513Y007294D02*
X019771Y007294D01*
X019771Y007196D02*
X022961Y007196D01*
X022863Y007294D02*
X021908Y007294D01*
X021968Y007097D02*
X022398Y007097D01*
X022606Y006841D02*
X021761Y006841D01*
X021989Y006605D02*
X022378Y006605D01*
X022904Y006703D02*
X023413Y006703D01*
X023413Y006605D02*
X023463Y006485D01*
X023555Y006393D01*
X023675Y006343D01*
X023806Y006343D01*
X023927Y006393D01*
X024028Y006506D02*
X034609Y006506D01*
X034609Y006605D02*
X024069Y006605D01*
X024069Y006703D02*
X034609Y006703D01*
X034610Y006802D02*
X024042Y006802D01*
X023975Y006900D02*
X034610Y006900D01*
X034610Y006999D02*
X023806Y006999D01*
X023890Y007048D02*
X024021Y007048D01*
X024142Y007098D01*
X024234Y007190D01*
X024284Y007310D01*
X024284Y007441D01*
X024234Y007562D01*
X024142Y007654D01*
X024021Y007704D01*
X023890Y007704D01*
X023885Y007701D01*
X023130Y008456D01*
X022981Y008456D01*
X022001Y008456D01*
X021999Y008462D01*
X021907Y008554D01*
X021786Y008604D01*
X021655Y008604D01*
X021535Y008554D01*
X021443Y008462D01*
X021393Y008341D01*
X021393Y008210D01*
X021443Y008090D01*
X021535Y007998D01*
X021655Y007948D01*
X021786Y007948D01*
X021907Y007998D01*
X021999Y008090D01*
X022001Y008096D01*
X022981Y008096D01*
X023630Y007447D01*
X023628Y007441D01*
X023628Y007310D01*
X023678Y007190D01*
X023770Y007098D01*
X023890Y007048D01*
X023771Y007097D02*
X023569Y007097D01*
X023470Y007196D02*
X023675Y007196D01*
X023634Y007294D02*
X023372Y007294D01*
X023273Y007393D02*
X023628Y007393D01*
X023585Y007492D02*
X023175Y007492D01*
X023076Y007590D02*
X023487Y007590D01*
X023388Y007689D02*
X022977Y007689D01*
X022851Y007561D02*
X023741Y006671D01*
X023454Y006506D02*
X023384Y006506D01*
X023460Y006408D02*
X023540Y006408D01*
X023166Y006261D02*
X023146Y006241D01*
X021421Y006241D01*
X021657Y006013D02*
X022949Y006013D01*
X022934Y006802D02*
X023355Y006802D01*
X023257Y006900D02*
X022934Y006900D01*
X022895Y006999D02*
X023158Y006999D01*
X023060Y007097D02*
X022813Y007097D01*
X022851Y007561D02*
X021711Y007561D01*
X021948Y007787D02*
X023290Y007787D01*
X023191Y007886D02*
X021784Y007886D01*
X021874Y007984D02*
X023093Y007984D01*
X022994Y008083D02*
X021992Y008083D01*
X021721Y008276D02*
X023056Y008276D01*
X023956Y007376D01*
X024263Y007492D02*
X034611Y007492D01*
X034611Y007590D02*
X024205Y007590D01*
X024058Y007689D02*
X034612Y007689D01*
X034612Y007787D02*
X029926Y007787D01*
X029897Y007758D02*
X029989Y007850D01*
X030039Y007970D01*
X030039Y008101D01*
X029989Y008222D01*
X029897Y008314D01*
X029780Y008362D01*
X028627Y009515D01*
X028579Y009632D01*
X028487Y009724D01*
X028366Y009774D01*
X028235Y009774D01*
X028115Y009724D01*
X028023Y009632D01*
X027973Y009511D01*
X027973Y009380D01*
X028023Y009260D01*
X028115Y009168D01*
X028231Y009119D01*
X029384Y007966D01*
X029433Y007850D01*
X029525Y007758D01*
X029645Y007708D01*
X029776Y007708D01*
X029897Y007758D01*
X030004Y007886D02*
X034612Y007886D01*
X034612Y007984D02*
X030039Y007984D01*
X030039Y008083D02*
X034613Y008083D01*
X034613Y008181D02*
X030006Y008181D01*
X029931Y008280D02*
X034613Y008280D01*
X034613Y008378D02*
X029764Y008378D01*
X029666Y008477D02*
X034614Y008477D01*
X034614Y008576D02*
X029567Y008576D01*
X029468Y008674D02*
X034614Y008674D01*
X034614Y008773D02*
X029370Y008773D01*
X029271Y008871D02*
X034614Y008871D01*
X034615Y008970D02*
X029173Y008970D01*
X029074Y009068D02*
X034615Y009068D01*
X034615Y009167D02*
X028976Y009167D01*
X028877Y009265D02*
X034615Y009265D01*
X034616Y009364D02*
X028779Y009364D01*
X028680Y009462D02*
X034616Y009462D01*
X034616Y009561D02*
X028608Y009561D01*
X028551Y009659D02*
X034616Y009659D01*
X034617Y009758D02*
X028404Y009758D01*
X028197Y009758D02*
X000551Y009758D01*
X000551Y009659D02*
X028051Y009659D01*
X027993Y009561D02*
X000551Y009561D01*
X000551Y009462D02*
X027973Y009462D01*
X027980Y009364D02*
X000551Y009364D01*
X000551Y009265D02*
X028020Y009265D01*
X028117Y009167D02*
X000551Y009167D01*
X000551Y009068D02*
X028282Y009068D01*
X028381Y008970D02*
X000551Y008970D01*
X000551Y008871D02*
X028479Y008871D01*
X028578Y008773D02*
X000551Y008773D01*
X000551Y008674D02*
X028677Y008674D01*
X028775Y008576D02*
X021854Y008576D01*
X021984Y008477D02*
X028874Y008477D01*
X028972Y008378D02*
X023208Y008378D01*
X023306Y008280D02*
X029071Y008280D01*
X029169Y008181D02*
X023405Y008181D01*
X023503Y008083D02*
X029268Y008083D01*
X029366Y007984D02*
X023602Y007984D01*
X023700Y007886D02*
X029418Y007886D01*
X029495Y007787D02*
X023799Y007787D01*
X024284Y007393D02*
X034611Y007393D01*
X034611Y007294D02*
X024277Y007294D01*
X024236Y007196D02*
X034611Y007196D01*
X034610Y007097D02*
X024141Y007097D01*
X023675Y006999D02*
X023670Y006996D01*
X021638Y007886D02*
X000551Y007886D01*
X000551Y007984D02*
X021567Y007984D01*
X021450Y008083D02*
X000551Y008083D01*
X000551Y008181D02*
X021405Y008181D01*
X021393Y008280D02*
X000551Y008280D01*
X000551Y008378D02*
X021408Y008378D01*
X021458Y008477D02*
X000551Y008477D01*
X000551Y008576D02*
X021587Y008576D01*
X021473Y007787D02*
X019763Y007787D01*
X019837Y007689D02*
X021409Y007689D01*
X021383Y007590D02*
X019869Y007590D01*
X019869Y007492D02*
X021384Y007492D01*
X021425Y007393D02*
X019833Y007393D01*
X019311Y007294D02*
X000556Y007294D01*
X000557Y007196D02*
X019311Y007196D01*
X019311Y007097D02*
X000558Y007097D01*
X000558Y006999D02*
X019311Y006999D01*
X019311Y006900D02*
X000559Y006900D01*
X000560Y006802D02*
X019311Y006802D01*
X019311Y006703D02*
X000561Y006703D01*
X000561Y006605D02*
X019311Y006605D01*
X019311Y006506D02*
X000562Y006506D01*
X000563Y006408D02*
X019311Y006408D01*
X019311Y006309D02*
X000564Y006309D01*
X000565Y006210D02*
X019311Y006210D01*
X019311Y006112D02*
X000565Y006112D01*
X000566Y006013D02*
X019311Y006013D01*
X019311Y005915D02*
X000567Y005915D01*
X000568Y005816D02*
X019311Y005816D01*
X019133Y005718D02*
X000568Y005718D01*
X000569Y005619D02*
X019044Y005619D01*
X019003Y005521D02*
X000570Y005521D01*
X000571Y005422D02*
X019000Y005422D01*
X019025Y005324D02*
X000572Y005324D01*
X000572Y005225D02*
X019088Y005225D01*
X019089Y005084D02*
X019050Y005073D01*
X019016Y005054D01*
X018988Y005026D01*
X018969Y004992D01*
X018958Y004953D01*
X018958Y004541D01*
X019501Y004541D01*
X019501Y004441D01*
X018958Y004441D01*
X018958Y004028D01*
X018969Y003990D01*
X018988Y003956D01*
X019016Y003928D01*
X019050Y003908D01*
X019089Y003898D01*
X019501Y003898D01*
X019501Y004441D01*
X019601Y004441D01*
X019601Y003898D01*
X020014Y003898D01*
X020052Y003908D01*
X020086Y003928D01*
X020114Y003956D01*
X020134Y003990D01*
X020144Y004028D01*
X020144Y004441D01*
X019601Y004441D01*
X019601Y004541D01*
X019501Y004541D01*
X019501Y005084D01*
X019089Y005084D01*
X018990Y005028D02*
X018903Y005028D01*
X018867Y005064D02*
X017874Y005064D01*
X017797Y004988D01*
X017797Y003994D01*
X017874Y003918D01*
X018867Y003918D01*
X018943Y003994D01*
X018943Y004988D01*
X018867Y005064D01*
X018943Y004929D02*
X018958Y004929D01*
X018958Y004831D02*
X018943Y004831D01*
X018943Y004732D02*
X018958Y004732D01*
X018958Y004634D02*
X018943Y004634D01*
X018943Y004535D02*
X019501Y004535D01*
X019501Y004437D02*
X019601Y004437D01*
X019601Y004535D02*
X021537Y004535D01*
X021537Y004437D02*
X020144Y004437D01*
X020144Y004338D02*
X021537Y004338D01*
X021537Y004240D02*
X020144Y004240D01*
X020144Y004141D02*
X021537Y004141D01*
X021537Y004043D02*
X020144Y004043D01*
X020102Y003944D02*
X021587Y003944D01*
X021537Y004634D02*
X020144Y004634D01*
X020144Y004541D02*
X020144Y004953D01*
X020134Y004992D01*
X020114Y005026D01*
X020086Y005054D01*
X020052Y005073D01*
X020014Y005084D01*
X019601Y005084D01*
X019601Y004541D01*
X020144Y004541D01*
X020144Y004732D02*
X021537Y004732D01*
X021537Y004831D02*
X020144Y004831D01*
X020144Y004929D02*
X021537Y004929D01*
X021578Y005028D02*
X020112Y005028D01*
X019601Y005028D02*
X019501Y005028D01*
X019501Y004929D02*
X019601Y004929D01*
X019601Y004831D02*
X019501Y004831D01*
X019501Y004732D02*
X019601Y004732D01*
X019601Y004634D02*
X019501Y004634D01*
X019501Y004338D02*
X019601Y004338D01*
X019601Y004240D02*
X019501Y004240D01*
X019501Y004141D02*
X019601Y004141D01*
X019601Y004043D02*
X019501Y004043D01*
X019501Y003944D02*
X019601Y003944D01*
X019000Y003944D02*
X018893Y003944D01*
X018943Y004043D02*
X018958Y004043D01*
X018958Y004141D02*
X018943Y004141D01*
X018943Y004240D02*
X018958Y004240D01*
X018958Y004338D02*
X018943Y004338D01*
X018943Y004437D02*
X018958Y004437D01*
X017797Y004437D02*
X016384Y004437D01*
X016384Y004535D02*
X017797Y004535D01*
X017797Y004634D02*
X016384Y004634D01*
X016384Y004732D02*
X017797Y004732D01*
X017797Y004831D02*
X016384Y004831D01*
X016384Y004929D02*
X017797Y004929D01*
X017838Y005028D02*
X016344Y005028D01*
X016384Y004338D02*
X017797Y004338D01*
X017797Y004240D02*
X016384Y004240D01*
X016384Y004141D02*
X017797Y004141D01*
X017797Y004043D02*
X016384Y004043D01*
X016334Y003944D02*
X017847Y003944D01*
X015046Y005596D02*
X015046Y005791D01*
X015026Y005811D01*
X019249Y007393D02*
X000555Y007393D01*
X000554Y007492D02*
X019213Y007492D01*
X019213Y007590D02*
X000554Y007590D01*
X000553Y007689D02*
X019245Y007689D01*
X019318Y007787D02*
X000552Y007787D01*
X000551Y009857D02*
X034617Y009857D01*
X034617Y009955D02*
X000551Y009955D01*
X000551Y010054D02*
X034617Y010054D01*
X034618Y010152D02*
X000551Y010152D01*
X000551Y010251D02*
X024301Y010251D01*
X024328Y010246D02*
X024258Y010258D01*
X024190Y010279D01*
X024127Y010312D01*
X024070Y010353D01*
X024020Y010403D01*
X023978Y010461D01*
X023946Y010524D01*
X023924Y010591D01*
X023913Y010661D01*
X023913Y010668D01*
X024334Y010668D01*
X024334Y010725D01*
X023913Y010725D01*
X023913Y010732D01*
X023924Y010802D01*
X023946Y010869D01*
X023978Y010932D01*
X024020Y010990D01*
X024070Y011040D01*
X024127Y011081D01*
X024190Y011114D01*
X024258Y011135D01*
X024328Y011146D01*
X024334Y011146D01*
X024334Y010725D01*
X024392Y010725D01*
X024392Y011146D01*
X024399Y011146D01*
X024469Y011135D01*
X024536Y011114D01*
X024599Y011081D01*
X024656Y011040D01*
X024706Y010990D01*
X024748Y010932D01*
X024767Y010895D01*
X024786Y010940D01*
X024907Y011061D01*
X025065Y011126D01*
X025236Y011126D01*
X025394Y011061D01*
X025515Y010940D01*
X025544Y010870D01*
X025573Y010940D01*
X025694Y011061D01*
X025852Y011126D01*
X026024Y011126D01*
X026182Y011061D01*
X026302Y010940D01*
X026332Y010870D01*
X026361Y010940D01*
X026482Y011061D01*
X026640Y011126D01*
X026811Y011126D01*
X026969Y011061D01*
X027090Y010940D01*
X027119Y010870D01*
X027148Y010940D01*
X027269Y011061D01*
X027427Y011126D01*
X027598Y011126D01*
X027756Y011061D01*
X027877Y010940D01*
X027906Y010870D01*
X027936Y010940D01*
X028057Y011061D01*
X028215Y011126D01*
X028386Y011126D01*
X028544Y011061D01*
X028665Y010940D01*
X028694Y010870D01*
X028723Y010940D01*
X028844Y011061D01*
X029002Y011126D01*
X029173Y011126D01*
X029331Y011061D01*
X029452Y010940D01*
X029481Y010870D01*
X029510Y010940D01*
X029631Y011061D01*
X029789Y011126D01*
X029961Y011126D01*
X030119Y011061D01*
X030239Y010940D01*
X030269Y010870D01*
X030298Y010940D01*
X030419Y011061D01*
X030577Y011126D01*
X030748Y011126D01*
X030906Y011061D01*
X031027Y010940D01*
X031056Y010870D01*
X031085Y010940D01*
X031206Y011061D01*
X031364Y011126D01*
X031535Y011126D01*
X031693Y011061D01*
X031814Y010940D01*
X031880Y010782D01*
X031880Y010611D01*
X031814Y010453D01*
X031693Y010332D01*
X031535Y010266D01*
X031364Y010266D01*
X031206Y010332D01*
X031085Y010453D01*
X031056Y010523D01*
X031027Y010453D01*
X030906Y010332D01*
X030748Y010266D01*
X030577Y010266D01*
X030419Y010332D01*
X030298Y010453D01*
X030269Y010523D01*
X030239Y010453D01*
X030119Y010332D01*
X029961Y010266D01*
X029789Y010266D01*
X029631Y010332D01*
X029510Y010453D01*
X029481Y010523D01*
X029452Y010453D01*
X029331Y010332D01*
X029173Y010266D01*
X029002Y010266D01*
X028844Y010332D01*
X028723Y010453D01*
X028694Y010523D01*
X028665Y010453D01*
X028544Y010332D01*
X028386Y010266D01*
X028215Y010266D01*
X028057Y010332D01*
X027936Y010453D01*
X027906Y010523D01*
X027877Y010453D01*
X027756Y010332D01*
X027598Y010266D01*
X027427Y010266D01*
X027269Y010332D01*
X027148Y010453D01*
X027119Y010523D01*
X027090Y010453D01*
X026969Y010332D01*
X026811Y010266D01*
X026640Y010266D01*
X026482Y010332D01*
X026361Y010453D01*
X026332Y010523D01*
X026302Y010453D01*
X026182Y010332D01*
X026024Y010266D01*
X025852Y010266D01*
X025694Y010332D01*
X025573Y010453D01*
X025544Y010523D01*
X025515Y010453D01*
X025394Y010332D01*
X025236Y010266D01*
X025065Y010266D01*
X024907Y010332D01*
X024786Y010453D01*
X024767Y010498D01*
X024748Y010461D01*
X024706Y010403D01*
X024656Y010353D01*
X024599Y010312D01*
X024536Y010279D01*
X024469Y010258D01*
X024399Y010246D01*
X024392Y010246D01*
X024392Y010667D01*
X024334Y010667D01*
X024334Y010246D01*
X024328Y010246D01*
X024334Y010251D02*
X024392Y010251D01*
X024425Y010251D02*
X034618Y010251D01*
X034618Y010349D02*
X031711Y010349D01*
X031809Y010448D02*
X034618Y010448D01*
X034618Y010546D02*
X031853Y010546D01*
X031880Y010645D02*
X034619Y010645D01*
X034619Y010743D02*
X031880Y010743D01*
X031855Y010842D02*
X034619Y010842D01*
X034619Y010941D02*
X031814Y010941D01*
X031715Y011039D02*
X034620Y011039D01*
X034620Y011138D02*
X024454Y011138D01*
X024392Y011138D02*
X024334Y011138D01*
X024272Y011138D02*
X000551Y011138D01*
X000551Y011236D02*
X034620Y011236D01*
X034620Y011335D02*
X000551Y011335D01*
X000551Y011433D02*
X034621Y011433D01*
X034621Y011532D02*
X000551Y011532D01*
X000551Y011630D02*
X034621Y011630D01*
X034621Y011729D02*
X000551Y011729D01*
X000551Y011827D02*
X034621Y011827D01*
X034622Y011926D02*
X000551Y011926D01*
X000551Y012025D02*
X034622Y012025D01*
X034622Y012123D02*
X000551Y012123D01*
X000551Y012222D02*
X034622Y012222D01*
X034623Y012320D02*
X000551Y012320D01*
X000551Y012419D02*
X034623Y012419D01*
X034623Y012517D02*
X000551Y012517D01*
X000551Y012616D02*
X034623Y012616D01*
X034624Y012714D02*
X000551Y012714D01*
X000551Y012813D02*
X034624Y012813D01*
X034624Y012911D02*
X000551Y012911D01*
X000551Y013010D02*
X034624Y013010D01*
X034625Y013109D02*
X000551Y013109D01*
X000551Y013207D02*
X012735Y013207D01*
X012745Y013203D02*
X012876Y013203D01*
X012997Y013253D01*
X013089Y013345D01*
X013139Y013465D01*
X013139Y013511D01*
X013695Y013511D01*
X013698Y013505D01*
X013790Y013413D01*
X013910Y013363D01*
X014041Y013363D01*
X014162Y013413D01*
X014254Y013505D01*
X014304Y013625D01*
X014304Y013756D01*
X014254Y013877D01*
X014162Y013969D01*
X014041Y014019D01*
X013910Y014019D01*
X013790Y013969D01*
X013698Y013877D01*
X013695Y013871D01*
X013045Y013871D01*
X012896Y013871D01*
X012882Y013856D01*
X012876Y013859D01*
X012745Y013859D01*
X012625Y013809D01*
X012533Y013717D01*
X012483Y013596D01*
X012483Y013465D01*
X012533Y013345D01*
X012625Y013253D01*
X012745Y013203D01*
X012887Y013207D02*
X034625Y013207D01*
X034625Y013306D02*
X013050Y013306D01*
X013113Y013404D02*
X013810Y013404D01*
X013700Y013503D02*
X013139Y013503D01*
X012971Y013691D02*
X012811Y013531D01*
X012971Y013691D02*
X013976Y013691D01*
X014098Y013995D02*
X034627Y013995D01*
X034626Y013897D02*
X014234Y013897D01*
X014286Y013798D02*
X034626Y013798D01*
X034626Y013700D02*
X014304Y013700D01*
X014294Y013601D02*
X034626Y013601D01*
X034625Y013503D02*
X014252Y013503D01*
X014141Y013404D02*
X034625Y013404D01*
X034627Y014094D02*
X000551Y014094D01*
X000551Y014192D02*
X034627Y014192D01*
X034627Y014291D02*
X000551Y014291D01*
X000551Y014390D02*
X034628Y014390D01*
X034628Y014488D02*
X000551Y014488D01*
X000551Y014587D02*
X020474Y014587D01*
X020476Y014586D02*
X020675Y014586D01*
X020859Y014662D01*
X021000Y014803D01*
X021076Y014986D01*
X021152Y014803D01*
X021293Y014662D01*
X021476Y014586D01*
X021675Y014586D01*
X021859Y014662D01*
X022000Y014803D01*
X022068Y014968D01*
X022069Y014964D01*
X022094Y014886D01*
X022131Y014813D01*
X022179Y014747D01*
X022237Y014689D01*
X022303Y014641D01*
X022376Y014604D01*
X022454Y014579D01*
X022526Y014567D01*
X022526Y015036D01*
X022626Y015036D01*
X022626Y014567D01*
X022698Y014579D01*
X022775Y014604D01*
X022848Y014641D01*
X022915Y014689D01*
X022972Y014747D01*
X023021Y014813D01*
X023058Y014886D01*
X023083Y014964D01*
X023084Y014968D01*
X023152Y014803D01*
X023293Y014662D01*
X023476Y014586D01*
X023675Y014586D01*
X023859Y014662D01*
X024000Y014803D01*
X024076Y014986D01*
X024152Y014803D01*
X024293Y014662D01*
X024476Y014586D01*
X024675Y014586D01*
X024859Y014662D01*
X025000Y014803D01*
X025076Y014986D01*
X025076Y015185D01*
X025000Y015369D01*
X024859Y015510D01*
X024675Y015586D01*
X024476Y015586D01*
X024293Y015510D01*
X024152Y015369D01*
X024076Y015185D01*
X024076Y014986D01*
X024076Y015185D01*
X024000Y015369D01*
X023859Y015510D01*
X023675Y015586D01*
X023476Y015586D01*
X023293Y015510D01*
X023152Y015369D01*
X023084Y015204D01*
X023083Y015208D01*
X023058Y015285D01*
X023021Y015358D01*
X022972Y015425D01*
X022915Y015482D01*
X022848Y015531D01*
X022775Y015568D01*
X022698Y015593D01*
X022626Y015604D01*
X022626Y015136D01*
X022526Y015136D01*
X022526Y015604D01*
X022454Y015593D01*
X022376Y015568D01*
X022303Y015531D01*
X022237Y015482D01*
X022179Y015425D01*
X022131Y015358D01*
X022094Y015285D01*
X022069Y015208D01*
X022068Y015204D01*
X022000Y015369D01*
X021859Y015510D01*
X021675Y015586D01*
X021476Y015586D01*
X021293Y015510D01*
X021152Y015369D01*
X021076Y015185D01*
X021076Y014986D01*
X021076Y015185D01*
X021000Y015369D01*
X020859Y015510D01*
X020675Y015586D01*
X020476Y015586D01*
X020293Y015510D01*
X020152Y015369D01*
X020076Y015185D01*
X020076Y014986D01*
X020152Y014803D01*
X020293Y014662D01*
X020476Y014586D01*
X020677Y014587D02*
X021474Y014587D01*
X021677Y014587D02*
X022429Y014587D01*
X022526Y014587D02*
X022626Y014587D01*
X022722Y014587D02*
X023474Y014587D01*
X023677Y014587D02*
X024474Y014587D01*
X024677Y014587D02*
X034628Y014587D01*
X034628Y014685D02*
X024882Y014685D01*
X024981Y014784D02*
X034629Y014784D01*
X034629Y014882D02*
X025033Y014882D01*
X025073Y014981D02*
X034629Y014981D01*
X034629Y015079D02*
X025076Y015079D01*
X025076Y015178D02*
X034629Y015178D01*
X034630Y015276D02*
X025038Y015276D01*
X024994Y015375D02*
X034630Y015375D01*
X034630Y015474D02*
X024895Y015474D01*
X024708Y015572D02*
X034630Y015572D01*
X034631Y015671D02*
X008830Y015671D01*
X008807Y015694D02*
X008686Y015744D01*
X008555Y015744D01*
X008435Y015694D01*
X008387Y015646D01*
X004851Y015646D01*
X004671Y015826D01*
X004671Y015956D01*
X004613Y016096D01*
X004506Y016203D01*
X004366Y016261D01*
X004215Y016261D01*
X004076Y016203D01*
X003969Y016096D01*
X003911Y015956D01*
X003911Y015805D01*
X003969Y015666D01*
X004076Y015559D01*
X004215Y015501D01*
X004346Y015501D01*
X004374Y015472D01*
X004330Y015481D01*
X004316Y015481D01*
X004316Y015106D01*
X004691Y015106D01*
X004691Y015120D01*
X004678Y015186D01*
X004851Y015186D01*
X008387Y015186D01*
X008435Y015138D01*
X008555Y015088D01*
X008686Y015088D01*
X008807Y015138D01*
X008899Y015230D01*
X008949Y015350D01*
X008949Y015481D01*
X008899Y015602D01*
X008807Y015694D01*
X008911Y015572D02*
X020443Y015572D01*
X020256Y015474D02*
X008949Y015474D01*
X008949Y015375D02*
X020158Y015375D01*
X020114Y015276D02*
X008918Y015276D01*
X008847Y015178D02*
X020076Y015178D01*
X020076Y015079D02*
X004316Y015079D01*
X004316Y015056D02*
X004316Y015106D01*
X004266Y015106D01*
X004266Y015481D01*
X004251Y015481D01*
X004174Y015465D01*
X004101Y015435D01*
X004036Y015391D01*
X003980Y015336D01*
X003936Y015270D01*
X003906Y015197D01*
X003891Y015120D01*
X003891Y015106D01*
X004266Y015106D01*
X004266Y015056D01*
X004316Y015056D01*
X004691Y015056D01*
X004691Y015041D01*
X004675Y014964D01*
X004645Y014891D01*
X004601Y014826D01*
X004546Y014770D01*
X004480Y014726D01*
X004407Y014696D01*
X004330Y014681D01*
X004316Y014681D01*
X004316Y015056D01*
X004266Y015056D02*
X004266Y014681D01*
X004251Y014681D01*
X004174Y014696D01*
X004101Y014726D01*
X004036Y014770D01*
X003980Y014826D01*
X003936Y014891D01*
X003906Y014964D01*
X003891Y015041D01*
X003891Y015056D01*
X004266Y015056D01*
X004266Y015079D02*
X003433Y015079D01*
X003433Y015092D02*
X003055Y015092D01*
X003055Y015150D01*
X003433Y015150D01*
X003433Y015398D01*
X003423Y015437D01*
X003403Y015471D01*
X003375Y015499D01*
X003341Y015518D01*
X003331Y015521D01*
X003337Y015521D01*
X003413Y015597D01*
X003413Y016220D01*
X003337Y016296D01*
X002714Y016296D01*
X002638Y016220D01*
X002638Y015597D01*
X002714Y015521D01*
X002721Y015521D01*
X002710Y015518D01*
X002676Y015499D01*
X002648Y015471D01*
X002629Y015437D01*
X002618Y015398D01*
X002618Y015150D01*
X002997Y015150D01*
X002997Y015092D01*
X003055Y015092D01*
X003055Y014714D01*
X003303Y014714D01*
X003341Y014724D01*
X003375Y014744D01*
X003403Y014772D01*
X003423Y014806D01*
X003433Y014844D01*
X003433Y015092D01*
X003433Y015178D02*
X003902Y015178D01*
X003940Y015276D02*
X003433Y015276D01*
X003433Y015375D02*
X004019Y015375D01*
X004062Y015572D02*
X003388Y015572D01*
X003400Y015474D02*
X004215Y015474D01*
X004266Y015474D02*
X004316Y015474D01*
X004366Y015474D02*
X004373Y015474D01*
X004316Y015375D02*
X004266Y015375D01*
X004266Y015276D02*
X004316Y015276D01*
X004316Y015178D02*
X004266Y015178D01*
X004266Y014981D02*
X004316Y014981D01*
X004316Y014882D02*
X004266Y014882D01*
X004266Y014784D02*
X004316Y014784D01*
X004316Y014685D02*
X004266Y014685D01*
X004229Y014685D02*
X000551Y014685D01*
X000551Y014784D02*
X002641Y014784D01*
X002648Y014772D02*
X002676Y014744D01*
X002710Y014724D01*
X002749Y014714D01*
X002997Y014714D01*
X002997Y015092D01*
X002618Y015092D01*
X002618Y014844D01*
X002629Y014806D01*
X002648Y014772D01*
X002618Y014882D02*
X000551Y014882D01*
X000551Y014981D02*
X002618Y014981D01*
X002618Y015079D02*
X000551Y015079D01*
X000551Y015178D02*
X002618Y015178D01*
X002618Y015276D02*
X000551Y015276D01*
X000551Y015375D02*
X002618Y015375D01*
X002651Y015474D02*
X000551Y015474D01*
X000551Y015572D02*
X002663Y015572D01*
X002638Y015671D02*
X000551Y015671D01*
X000551Y015769D02*
X002638Y015769D01*
X002638Y015868D02*
X000551Y015868D01*
X000551Y015966D02*
X002638Y015966D01*
X002638Y016065D02*
X000551Y016065D01*
X000551Y016163D02*
X002638Y016163D01*
X002680Y016262D02*
X000551Y016262D01*
X000551Y016360D02*
X002663Y016360D01*
X002638Y016385D02*
X002714Y016309D01*
X003337Y016309D01*
X003413Y016385D01*
X003413Y017007D01*
X003337Y017083D01*
X002714Y017083D01*
X002638Y017007D01*
X002638Y016385D01*
X002638Y016459D02*
X000551Y016459D01*
X000551Y016558D02*
X002638Y016558D01*
X002638Y016656D02*
X000551Y016656D01*
X000551Y016755D02*
X002638Y016755D01*
X002638Y016853D02*
X000551Y016853D01*
X000551Y016952D02*
X002638Y016952D01*
X002681Y017050D02*
X000551Y017050D01*
X000551Y017149D02*
X002662Y017149D01*
X002638Y017172D02*
X002714Y017096D01*
X003337Y017096D01*
X003413Y017172D01*
X003413Y017795D01*
X003337Y017871D01*
X002714Y017871D01*
X002638Y017795D01*
X002638Y017172D01*
X002638Y017247D02*
X000551Y017247D01*
X000551Y017346D02*
X002638Y017346D01*
X002638Y017444D02*
X000551Y017444D01*
X000551Y017543D02*
X002638Y017543D01*
X002638Y017641D02*
X000551Y017641D01*
X000551Y017740D02*
X002638Y017740D01*
X002682Y017839D02*
X000551Y017839D01*
X000551Y017937D02*
X002661Y017937D01*
X002638Y017959D02*
X002714Y017883D01*
X003337Y017883D01*
X003413Y017959D01*
X003413Y018582D01*
X003337Y018658D01*
X002714Y018658D01*
X002638Y018582D01*
X002638Y017959D01*
X002638Y018036D02*
X000551Y018036D01*
X000551Y018134D02*
X002638Y018134D01*
X002638Y018233D02*
X000551Y018233D01*
X000551Y018331D02*
X002638Y018331D01*
X002638Y018430D02*
X000551Y018430D01*
X000551Y018528D02*
X002638Y018528D01*
X002683Y018627D02*
X000551Y018627D01*
X000551Y018725D02*
X002660Y018725D01*
X002638Y018747D02*
X002714Y018671D01*
X003337Y018671D01*
X003413Y018747D01*
X003413Y019369D01*
X003337Y019446D01*
X002714Y019446D01*
X002638Y019369D01*
X002638Y018747D01*
X002638Y018824D02*
X000551Y018824D01*
X000551Y018923D02*
X002638Y018923D01*
X002638Y019021D02*
X000551Y019021D01*
X000551Y019120D02*
X002638Y019120D01*
X002638Y019218D02*
X000551Y019218D01*
X000551Y019317D02*
X002638Y019317D01*
X002684Y019415D02*
X000551Y019415D01*
X000551Y019514D02*
X002659Y019514D01*
X002638Y019534D02*
X002714Y019458D01*
X003337Y019458D01*
X003413Y019534D01*
X003413Y020157D01*
X003337Y020233D01*
X002714Y020233D01*
X002638Y020157D01*
X002638Y019534D01*
X002638Y019612D02*
X000551Y019612D01*
X000551Y019711D02*
X002638Y019711D01*
X002638Y019809D02*
X000551Y019809D01*
X000551Y019908D02*
X002638Y019908D01*
X002638Y020007D02*
X000551Y020007D01*
X000551Y020105D02*
X002638Y020105D01*
X002685Y020204D02*
X000551Y020204D01*
X000551Y020302D02*
X002658Y020302D01*
X002638Y020322D02*
X002714Y020246D01*
X003337Y020246D01*
X003413Y020322D01*
X003413Y020944D01*
X003337Y021020D01*
X002714Y021020D01*
X002638Y020944D01*
X002638Y020322D01*
X002638Y020401D02*
X000551Y020401D01*
X000551Y020499D02*
X002638Y020499D01*
X002638Y020598D02*
X000551Y020598D01*
X000551Y020696D02*
X002638Y020696D01*
X002638Y020795D02*
X000551Y020795D01*
X000551Y020893D02*
X002638Y020893D01*
X002686Y020992D02*
X000551Y020992D01*
X000551Y021091D02*
X002657Y021091D01*
X002638Y021109D02*
X002714Y021033D01*
X003337Y021033D01*
X003413Y021109D01*
X003413Y021732D01*
X003337Y021808D01*
X002714Y021808D01*
X002638Y021732D01*
X002638Y021109D01*
X002638Y021189D02*
X000551Y021189D01*
X000551Y021288D02*
X002638Y021288D01*
X002638Y021386D02*
X000551Y021386D01*
X000551Y021485D02*
X002638Y021485D01*
X002638Y021583D02*
X000551Y021583D01*
X000551Y021682D02*
X002638Y021682D01*
X002687Y021780D02*
X000551Y021780D01*
X000551Y021879D02*
X005164Y021879D01*
X005262Y021977D02*
X000551Y021977D01*
X000551Y022076D02*
X005361Y022076D01*
X005459Y022174D02*
X000551Y022174D01*
X000551Y022273D02*
X008384Y022273D01*
X008400Y022289D02*
X008352Y022241D01*
X005716Y022241D01*
X005526Y022241D01*
X004657Y021372D01*
X004671Y021405D01*
X004671Y021556D01*
X004613Y021696D01*
X004506Y021803D01*
X004366Y021861D01*
X004215Y021861D01*
X004076Y021803D01*
X003969Y021696D01*
X003911Y021556D01*
X003911Y021405D01*
X003969Y021266D01*
X004076Y021159D01*
X004215Y021101D01*
X004366Y021101D01*
X004399Y021114D01*
X004346Y021061D01*
X004215Y021061D01*
X004076Y021003D01*
X003969Y020896D01*
X003911Y020756D01*
X003911Y020605D01*
X003969Y020466D01*
X004076Y020359D01*
X004215Y020301D01*
X004366Y020301D01*
X004399Y020314D01*
X004346Y020261D01*
X004215Y020261D01*
X004076Y020203D01*
X003969Y020096D01*
X003911Y019956D01*
X003911Y019805D01*
X003969Y019666D01*
X004076Y019559D01*
X004215Y019501D01*
X004366Y019501D01*
X004399Y019514D01*
X004346Y019461D01*
X004215Y019461D01*
X004076Y019403D01*
X003969Y019296D01*
X003911Y019156D01*
X003911Y019005D01*
X003969Y018866D01*
X004076Y018759D01*
X004215Y018701D01*
X004366Y018701D01*
X004506Y018759D01*
X004613Y018866D01*
X004671Y019005D01*
X004671Y019136D01*
X005241Y019706D01*
X010046Y019706D01*
X010181Y019841D01*
X010181Y020031D01*
X010181Y020387D01*
X010229Y020435D01*
X010279Y020555D01*
X010279Y020686D01*
X010229Y020807D01*
X010137Y020899D01*
X010016Y020949D01*
X009885Y020949D01*
X009765Y020899D01*
X009673Y020807D01*
X009623Y020686D01*
X009623Y020555D01*
X009673Y020435D01*
X009721Y020387D01*
X009721Y020166D01*
X005241Y020166D01*
X005051Y020166D01*
X004657Y019772D01*
X004671Y019805D01*
X004671Y019936D01*
X005166Y020431D01*
X008352Y020431D01*
X008400Y020383D01*
X008520Y020333D01*
X008651Y020333D01*
X008772Y020383D01*
X008864Y020475D01*
X008914Y020595D01*
X008914Y020726D01*
X008864Y020847D01*
X008772Y020939D01*
X008651Y020989D01*
X008520Y020989D01*
X008400Y020939D01*
X008352Y020891D01*
X005166Y020891D01*
X004976Y020891D01*
X004657Y020572D01*
X004671Y020605D01*
X004671Y020736D01*
X005716Y021781D01*
X008352Y021781D01*
X008400Y021733D01*
X008520Y021683D01*
X008651Y021683D01*
X008772Y021733D01*
X008864Y021825D01*
X008914Y021945D01*
X008914Y022076D01*
X012096Y022076D01*
X012194Y022174D02*
X008873Y022174D01*
X008864Y022197D02*
X008772Y022289D01*
X008651Y022339D01*
X008520Y022339D01*
X008400Y022289D01*
X008787Y022273D02*
X012293Y022273D01*
X012391Y022372D02*
X000551Y022372D01*
X000551Y022470D02*
X012490Y022470D01*
X012529Y022510D02*
X011461Y021441D01*
X011461Y021300D01*
X011461Y020360D01*
X011445Y020354D01*
X011353Y020262D01*
X011303Y020141D01*
X011303Y020010D01*
X011353Y019890D01*
X011445Y019798D01*
X011565Y019748D01*
X011696Y019748D01*
X011817Y019798D01*
X011909Y019890D01*
X011959Y020010D01*
X011959Y020141D01*
X011909Y020262D01*
X011817Y020354D01*
X011801Y020360D01*
X011801Y021300D01*
X012770Y022269D01*
X012785Y022263D01*
X012916Y022263D01*
X013037Y022313D01*
X013129Y022405D01*
X013179Y022525D01*
X013179Y022656D01*
X013129Y022777D01*
X013037Y022869D01*
X012916Y022919D01*
X012785Y022919D01*
X012665Y022869D01*
X012573Y022777D01*
X012523Y022656D01*
X012523Y022525D01*
X012529Y022510D01*
X012523Y022569D02*
X000551Y022569D01*
X000551Y022667D02*
X012527Y022667D01*
X012568Y022766D02*
X000551Y022766D01*
X000551Y022864D02*
X012660Y022864D01*
X013041Y022864D02*
X031746Y022864D01*
X031723Y022920D02*
X031782Y022778D01*
X031891Y022669D01*
X032034Y022610D01*
X032188Y022610D01*
X032330Y022669D01*
X032439Y022778D01*
X032498Y022920D01*
X032498Y023074D01*
X032439Y023217D01*
X032330Y023326D01*
X032188Y023384D01*
X032206Y023387D01*
X032267Y023407D01*
X032324Y023436D01*
X032376Y023474D01*
X032422Y023519D01*
X032459Y023571D01*
X032488Y023628D01*
X032508Y023689D01*
X032518Y023752D01*
X032518Y023756D01*
X032140Y023756D01*
X032140Y023813D01*
X032518Y023813D01*
X032518Y023817D01*
X032508Y023880D01*
X032488Y023941D01*
X032459Y023998D01*
X032422Y024050D01*
X032376Y024095D01*
X032324Y024133D01*
X032267Y024162D01*
X032206Y024182D01*
X032143Y024192D01*
X032140Y024192D01*
X032140Y023813D01*
X032082Y023813D01*
X032082Y023756D01*
X031703Y023756D01*
X031703Y023752D01*
X031713Y023689D01*
X031733Y023628D01*
X031762Y023571D01*
X031800Y023519D01*
X031845Y023474D01*
X031897Y023436D01*
X031954Y023407D01*
X032015Y023387D01*
X032033Y023384D01*
X031891Y023326D01*
X031782Y023217D01*
X031723Y023074D01*
X031723Y022920D01*
X031723Y022963D02*
X000551Y022963D01*
X000551Y023061D02*
X031723Y023061D01*
X031759Y023160D02*
X000551Y023160D01*
X000551Y023258D02*
X031824Y023258D01*
X031741Y023366D02*
X031741Y024276D01*
X031871Y024276D01*
X031991Y024261D01*
X032621Y024261D01*
X032621Y023366D01*
X032233Y023366D01*
X032188Y023385D01*
X032034Y023385D01*
X031988Y023366D01*
X031741Y023366D01*
X031741Y023456D02*
X032621Y023456D01*
X032621Y023554D02*
X031741Y023554D01*
X031774Y023554D02*
X000551Y023554D01*
X000551Y023456D02*
X031870Y023456D01*
X031967Y023357D02*
X000551Y023357D01*
X000551Y023653D02*
X031725Y023653D01*
X031741Y023653D02*
X032621Y023653D01*
X032621Y023751D02*
X031741Y023751D01*
X031703Y023751D02*
X000551Y023751D01*
X000551Y023850D02*
X031709Y023850D01*
X031713Y023880D02*
X031703Y023817D01*
X031703Y023813D01*
X032082Y023813D01*
X032082Y024192D01*
X032079Y024192D01*
X032015Y024182D01*
X031954Y024162D01*
X031897Y024133D01*
X031845Y024095D01*
X031800Y024050D01*
X031762Y023998D01*
X031733Y023941D01*
X031713Y023880D01*
X031741Y023850D02*
X032621Y023850D01*
X032621Y023948D02*
X031741Y023948D01*
X031737Y023948D02*
X000551Y023948D01*
X000551Y024047D02*
X031798Y024047D01*
X031741Y024047D02*
X032621Y024047D01*
X032621Y024145D02*
X031741Y024145D01*
X031741Y024244D02*
X032621Y024244D01*
X032424Y024047D02*
X034650Y024047D01*
X034651Y024145D02*
X032300Y024145D01*
X032140Y024145D02*
X032082Y024145D01*
X032082Y024047D02*
X032140Y024047D01*
X032140Y023948D02*
X032082Y023948D01*
X032082Y023850D02*
X032140Y023850D01*
X032485Y023948D02*
X034650Y023948D01*
X034650Y023850D02*
X032513Y023850D01*
X032518Y023751D02*
X034650Y023751D01*
X034650Y023653D02*
X032496Y023653D01*
X032447Y023554D02*
X034649Y023554D01*
X034649Y023456D02*
X032351Y023456D01*
X032254Y023357D02*
X034649Y023357D01*
X034649Y023258D02*
X032397Y023258D01*
X032463Y023160D02*
X034648Y023160D01*
X034648Y023061D02*
X032498Y023061D01*
X032498Y022963D02*
X034648Y022963D01*
X034648Y022864D02*
X032475Y022864D01*
X032427Y022766D02*
X034647Y022766D01*
X034647Y022667D02*
X032327Y022667D01*
X031895Y022667D02*
X013174Y022667D01*
X013179Y022569D02*
X034647Y022569D01*
X034647Y022470D02*
X013156Y022470D01*
X013096Y022372D02*
X034647Y022372D01*
X034646Y022273D02*
X012941Y022273D01*
X012675Y022174D02*
X034646Y022174D01*
X034646Y022076D02*
X012576Y022076D01*
X012478Y021977D02*
X022669Y021977D01*
X022720Y021999D02*
X022600Y021949D01*
X022508Y021857D01*
X022458Y021736D01*
X022458Y021605D01*
X022508Y021485D01*
X021254Y021485D01*
X021254Y021435D02*
X021204Y021315D01*
X021112Y021223D01*
X020991Y021173D01*
X020860Y021173D01*
X020740Y021223D01*
X020648Y021315D01*
X020641Y021331D01*
X018371Y021331D01*
X018287Y021331D01*
X018231Y021308D01*
X018100Y021308D01*
X017980Y021358D01*
X017888Y021450D01*
X017838Y021570D01*
X017838Y021701D01*
X017888Y021822D01*
X017980Y021914D01*
X018100Y021964D01*
X018231Y021964D01*
X018352Y021914D01*
X018444Y021822D01*
X018494Y021701D01*
X018494Y021671D01*
X020641Y021671D01*
X020648Y021687D01*
X020740Y021779D01*
X020860Y021829D01*
X020991Y021829D01*
X021112Y021779D01*
X021204Y021687D01*
X021254Y021566D01*
X021254Y021435D01*
X021233Y021386D02*
X022606Y021386D01*
X022606Y021390D02*
X022606Y019944D01*
X021689Y019944D01*
X021613Y019868D01*
X021613Y018874D01*
X021689Y018798D01*
X022683Y018798D01*
X022759Y018874D01*
X022759Y019618D01*
X022815Y019562D01*
X022813Y019556D01*
X022813Y019425D01*
X022863Y019305D01*
X022955Y019213D01*
X023075Y019163D01*
X023206Y019163D01*
X023327Y019213D01*
X023419Y019305D01*
X023469Y019425D01*
X023469Y019556D01*
X023419Y019677D01*
X023327Y019769D01*
X023206Y019819D01*
X023075Y019819D01*
X023070Y019816D01*
X022966Y019920D01*
X022966Y021390D01*
X022972Y021393D01*
X023064Y021485D01*
X023114Y021605D01*
X023114Y021736D01*
X023064Y021857D01*
X022972Y021949D01*
X022851Y021999D01*
X022720Y021999D01*
X022903Y021977D02*
X034646Y021977D01*
X034645Y021879D02*
X023042Y021879D01*
X023096Y021780D02*
X034645Y021780D01*
X034645Y021682D02*
X023783Y021682D01*
X023802Y021674D02*
X023681Y021724D01*
X023550Y021724D01*
X023430Y021674D01*
X023338Y021582D01*
X023288Y021461D01*
X023288Y021330D01*
X023338Y021210D01*
X023430Y021118D01*
X023446Y021111D01*
X023446Y020581D01*
X023382Y020517D01*
X023366Y020524D01*
X023235Y020524D01*
X023115Y020474D01*
X023023Y020382D01*
X022973Y020261D01*
X022973Y020130D01*
X023023Y020010D01*
X023115Y019918D01*
X023235Y019868D01*
X023366Y019868D01*
X023487Y019918D01*
X023579Y020010D01*
X023629Y020130D01*
X023629Y020261D01*
X023622Y020277D01*
X023786Y020440D01*
X023786Y020581D01*
X023786Y021111D01*
X023802Y021118D01*
X023894Y021210D01*
X023944Y021330D01*
X023944Y021461D01*
X023894Y021582D01*
X023802Y021674D01*
X023892Y021583D02*
X034645Y021583D01*
X034644Y021485D02*
X023934Y021485D01*
X023944Y021386D02*
X034644Y021386D01*
X034644Y021288D02*
X023926Y021288D01*
X023873Y021189D02*
X034644Y021189D01*
X034643Y021091D02*
X023786Y021091D01*
X023786Y020992D02*
X034643Y020992D01*
X034643Y020893D02*
X023786Y020893D01*
X023786Y020795D02*
X034643Y020795D01*
X034643Y020696D02*
X023786Y020696D01*
X023786Y020598D02*
X034642Y020598D01*
X034642Y020499D02*
X023786Y020499D01*
X023746Y020401D02*
X034642Y020401D01*
X034642Y020302D02*
X023648Y020302D01*
X023629Y020204D02*
X026872Y020204D01*
X026906Y020238D02*
X026797Y020129D01*
X026738Y019987D01*
X026738Y019832D01*
X026797Y019690D01*
X026906Y019581D01*
X027048Y019522D01*
X027030Y019519D01*
X026969Y019500D01*
X026912Y019471D01*
X026860Y019433D01*
X026815Y019388D01*
X026777Y019336D01*
X026748Y019279D01*
X026728Y019217D01*
X026718Y019154D01*
X026718Y019151D01*
X027097Y019151D01*
X027097Y019093D01*
X027155Y019093D01*
X027155Y019151D01*
X027533Y019151D01*
X027533Y019154D01*
X027523Y019217D01*
X027503Y019279D01*
X027474Y019336D01*
X027437Y019388D01*
X027391Y019433D01*
X027339Y019471D01*
X027282Y019500D01*
X027221Y019519D01*
X027203Y019522D01*
X027345Y019581D01*
X027454Y019690D01*
X027513Y019832D01*
X027513Y019987D01*
X027454Y020129D01*
X027345Y020238D01*
X027203Y020297D01*
X027049Y020297D01*
X026906Y020238D01*
X026787Y020105D02*
X023618Y020105D01*
X023576Y020007D02*
X026747Y020007D01*
X026738Y019908D02*
X025278Y019908D01*
X025242Y019944D02*
X025318Y019868D01*
X025318Y018874D01*
X025242Y018798D01*
X024249Y018798D01*
X024172Y018874D01*
X024172Y019868D01*
X024249Y019944D01*
X025242Y019944D01*
X025318Y019809D02*
X026748Y019809D01*
X026789Y019711D02*
X025318Y019711D01*
X025318Y019612D02*
X026875Y019612D01*
X027013Y019514D02*
X025318Y019514D01*
X025318Y019415D02*
X026843Y019415D01*
X026768Y019317D02*
X025318Y019317D01*
X025318Y019218D02*
X026729Y019218D01*
X026718Y019093D02*
X026718Y019090D01*
X026728Y019027D01*
X026748Y018966D01*
X026777Y018909D01*
X026815Y018857D01*
X026860Y018811D01*
X026912Y018774D01*
X026969Y018744D01*
X027030Y018725D01*
X027094Y018715D01*
X027097Y018715D01*
X027097Y019093D01*
X026718Y019093D01*
X026730Y019021D02*
X025318Y019021D01*
X025318Y018923D02*
X026770Y018923D01*
X026848Y018824D02*
X025268Y018824D01*
X025318Y019120D02*
X027097Y019120D01*
X027155Y019120D02*
X031713Y019120D01*
X031703Y019090D02*
X031693Y019027D01*
X031693Y019023D01*
X032072Y019023D01*
X032072Y018966D01*
X031693Y018966D01*
X031693Y018962D01*
X031703Y018899D01*
X031723Y018838D01*
X031752Y018781D01*
X031790Y018729D01*
X031835Y018684D01*
X031887Y018646D01*
X031944Y018617D01*
X032005Y018597D01*
X032023Y018594D01*
X031881Y018536D01*
X031772Y018427D01*
X031713Y018284D01*
X031713Y018130D01*
X031772Y017988D01*
X031881Y017879D01*
X032024Y017820D01*
X032178Y017820D01*
X032320Y017879D01*
X032429Y017988D01*
X032488Y018130D01*
X032488Y018284D01*
X032429Y018427D01*
X032320Y018536D01*
X032178Y018594D01*
X032196Y018597D01*
X032257Y018617D01*
X032314Y018646D01*
X032366Y018684D01*
X032412Y018729D01*
X032449Y018781D01*
X032478Y018838D01*
X032498Y018899D01*
X032508Y018962D01*
X032508Y018966D01*
X032130Y018966D01*
X032130Y019023D01*
X032508Y019023D01*
X032508Y019027D01*
X032498Y019090D01*
X032478Y019151D01*
X032449Y019208D01*
X032412Y019260D01*
X032366Y019305D01*
X032314Y019343D01*
X032257Y019372D01*
X032196Y019392D01*
X032133Y019402D01*
X032130Y019402D01*
X032130Y019023D01*
X032072Y019023D01*
X032072Y019402D01*
X032069Y019402D01*
X032005Y019392D01*
X031944Y019372D01*
X031887Y019343D01*
X031835Y019305D01*
X031790Y019260D01*
X031752Y019208D01*
X031723Y019151D01*
X031703Y019090D01*
X031760Y019218D02*
X027523Y019218D01*
X027484Y019317D02*
X031851Y019317D01*
X032072Y019317D02*
X032130Y019317D01*
X032130Y019218D02*
X032072Y019218D01*
X032072Y019120D02*
X032130Y019120D01*
X032130Y019021D02*
X034639Y019021D01*
X034638Y018923D02*
X032502Y018923D01*
X032471Y018824D02*
X034638Y018824D01*
X034638Y018725D02*
X032408Y018725D01*
X032277Y018627D02*
X034638Y018627D01*
X034637Y018528D02*
X032327Y018528D01*
X032426Y018430D02*
X034637Y018430D01*
X034637Y018331D02*
X032469Y018331D01*
X032488Y018233D02*
X034637Y018233D01*
X034636Y018134D02*
X032488Y018134D01*
X032449Y018036D02*
X034636Y018036D01*
X034636Y017937D02*
X032379Y017937D01*
X032224Y017839D02*
X034636Y017839D01*
X034636Y017740D02*
X027428Y017740D01*
X027375Y017793D02*
X027233Y017852D01*
X027079Y017852D01*
X026936Y017793D01*
X026827Y017684D01*
X026768Y017542D01*
X026768Y017387D01*
X026827Y017245D01*
X026936Y017136D01*
X027078Y017077D01*
X027060Y017074D01*
X026999Y017055D01*
X026942Y017026D01*
X026890Y016988D01*
X026845Y016943D01*
X026807Y016891D01*
X026778Y016834D01*
X026758Y016772D01*
X026748Y016709D01*
X026748Y016706D01*
X027127Y016706D01*
X027127Y016648D01*
X027185Y016648D01*
X027185Y016706D01*
X027563Y016706D01*
X027563Y016709D01*
X027553Y016772D01*
X027533Y016834D01*
X027504Y016891D01*
X027467Y016943D01*
X027421Y016988D01*
X027369Y017026D01*
X027312Y017055D01*
X027251Y017074D01*
X027233Y017077D01*
X027375Y017136D01*
X027484Y017245D01*
X027543Y017387D01*
X027543Y017542D01*
X027484Y017684D01*
X027375Y017793D01*
X027265Y017839D02*
X031978Y017839D01*
X031823Y017937D02*
X020050Y017937D01*
X020046Y017941D02*
X020046Y018808D01*
X020126Y018808D01*
X020247Y018858D01*
X020339Y018950D01*
X020389Y019070D01*
X020389Y019201D01*
X020382Y019217D01*
X020541Y019375D01*
X020541Y019516D01*
X020541Y019601D01*
X020557Y019608D01*
X020649Y019700D01*
X020699Y019820D01*
X020699Y019951D01*
X020649Y020072D01*
X020557Y020164D01*
X020436Y020214D01*
X020305Y020214D01*
X020185Y020164D01*
X020093Y020072D01*
X020043Y019951D01*
X020043Y019820D01*
X020093Y019700D01*
X020185Y019608D01*
X020201Y019601D01*
X020201Y019516D01*
X020142Y019457D01*
X020126Y019464D01*
X019995Y019464D01*
X019875Y019414D01*
X019783Y019322D01*
X019733Y019201D01*
X019733Y019194D01*
X018918Y020009D01*
X018944Y020070D01*
X018944Y020201D01*
X018894Y020322D01*
X018802Y020414D01*
X018681Y020464D01*
X018550Y020464D01*
X018430Y020414D01*
X018338Y020322D01*
X018288Y020201D01*
X018288Y020070D01*
X018332Y019964D01*
X018280Y019964D01*
X018160Y019914D01*
X018068Y019822D01*
X018018Y019701D01*
X018018Y019570D01*
X018047Y019499D01*
X018040Y019499D01*
X017920Y019449D01*
X017828Y019357D01*
X017778Y019236D01*
X017778Y019105D01*
X017828Y018985D01*
X017920Y018893D01*
X018040Y018843D01*
X018171Y018843D01*
X018180Y018846D01*
X018744Y018282D01*
X018738Y018266D01*
X018738Y018135D01*
X018788Y018015D01*
X018880Y017923D01*
X019000Y017873D01*
X019131Y017873D01*
X019252Y017923D01*
X019344Y018015D01*
X019394Y018135D01*
X019394Y018243D01*
X019456Y018243D01*
X019577Y018293D01*
X019669Y018385D01*
X019706Y018474D01*
X019706Y017941D01*
X019706Y017800D01*
X020024Y017482D01*
X020018Y017466D01*
X020018Y017335D01*
X020068Y017215D01*
X020160Y017123D01*
X020280Y017073D01*
X020411Y017073D01*
X020532Y017123D01*
X020624Y017215D01*
X020674Y017335D01*
X020674Y017466D01*
X020624Y017587D01*
X020532Y017679D01*
X020411Y017729D01*
X020280Y017729D01*
X020265Y017722D01*
X020046Y017941D01*
X020046Y018036D02*
X031752Y018036D01*
X031713Y018134D02*
X020046Y018134D01*
X020046Y018233D02*
X031713Y018233D01*
X031733Y018331D02*
X020046Y018331D01*
X020046Y018430D02*
X031776Y018430D01*
X031874Y018528D02*
X020046Y018528D01*
X020046Y018627D02*
X031925Y018627D01*
X031794Y018725D02*
X027224Y018725D01*
X027221Y018725D02*
X027282Y018744D01*
X027339Y018774D01*
X027391Y018811D01*
X027437Y018857D01*
X027474Y018909D01*
X027503Y018966D01*
X027523Y019027D01*
X027533Y019090D01*
X027533Y019093D01*
X027155Y019093D01*
X027155Y018715D01*
X027158Y018715D01*
X027221Y018725D01*
X027155Y018725D02*
X027097Y018725D01*
X027028Y018725D02*
X020046Y018725D01*
X020165Y018824D02*
X021663Y018824D01*
X021613Y018923D02*
X020312Y018923D01*
X020368Y019021D02*
X021613Y019021D01*
X021613Y019120D02*
X020389Y019120D01*
X020384Y019218D02*
X021613Y019218D01*
X021613Y019317D02*
X020482Y019317D01*
X020541Y019415D02*
X021613Y019415D01*
X021613Y019514D02*
X020541Y019514D01*
X020561Y019612D02*
X021613Y019612D01*
X021613Y019711D02*
X020653Y019711D01*
X020694Y019809D02*
X021613Y019809D01*
X021654Y019908D02*
X020699Y019908D01*
X020676Y020007D02*
X022606Y020007D01*
X022606Y020105D02*
X020615Y020105D01*
X020461Y020204D02*
X022606Y020204D01*
X022606Y020302D02*
X018902Y020302D01*
X018943Y020204D02*
X020281Y020204D01*
X020126Y020105D02*
X018944Y020105D01*
X018920Y020007D02*
X020066Y020007D01*
X020043Y019908D02*
X019019Y019908D01*
X019117Y019809D02*
X020047Y019809D01*
X020088Y019711D02*
X019216Y019711D01*
X019315Y019612D02*
X020180Y019612D01*
X020198Y019514D02*
X019413Y019514D01*
X019512Y019415D02*
X019878Y019415D01*
X019781Y019317D02*
X019610Y019317D01*
X019709Y019218D02*
X019740Y019218D01*
X018498Y018528D02*
X008114Y018528D01*
X008212Y018627D02*
X015142Y018627D01*
X015200Y018603D02*
X015331Y018603D01*
X015452Y018653D01*
X015544Y018745D01*
X015594Y018865D01*
X015594Y018996D01*
X015544Y019117D01*
X015452Y019209D01*
X015436Y019215D01*
X015436Y019662D01*
X015449Y019675D01*
X015499Y019795D01*
X015499Y019926D01*
X015449Y020047D01*
X015357Y020139D01*
X015236Y020189D01*
X015105Y020189D01*
X014985Y020139D01*
X014893Y020047D01*
X014843Y019926D01*
X014843Y019795D01*
X014893Y019675D01*
X014985Y019583D01*
X015096Y019537D01*
X015096Y019215D01*
X015080Y019209D01*
X014988Y019117D01*
X014938Y018996D01*
X014938Y018865D01*
X014988Y018745D01*
X015080Y018653D01*
X015200Y018603D01*
X015390Y018627D02*
X018399Y018627D01*
X018301Y018725D02*
X015524Y018725D01*
X015577Y018824D02*
X018202Y018824D01*
X017890Y018923D02*
X015594Y018923D01*
X015584Y019021D02*
X017813Y019021D01*
X017778Y019120D02*
X015541Y019120D01*
X015436Y019218D02*
X017778Y019218D01*
X017811Y019317D02*
X015436Y019317D01*
X015436Y019415D02*
X017886Y019415D01*
X018041Y019514D02*
X015436Y019514D01*
X015436Y019612D02*
X018018Y019612D01*
X018022Y019711D02*
X015464Y019711D01*
X015499Y019809D02*
X018063Y019809D01*
X018154Y019908D02*
X015499Y019908D01*
X015466Y020007D02*
X018314Y020007D01*
X018288Y020105D02*
X015390Y020105D01*
X014951Y020105D02*
X014776Y020105D01*
X014776Y020007D02*
X014876Y020007D01*
X014843Y019908D02*
X014776Y019908D01*
X014776Y019809D02*
X014843Y019809D01*
X014792Y019769D02*
X014776Y019775D01*
X014776Y020265D01*
X014776Y020406D01*
X014736Y020446D01*
X014732Y020450D01*
X014739Y020465D01*
X014739Y020596D01*
X014689Y020717D01*
X014597Y020809D01*
X014476Y020859D01*
X014428Y020859D01*
X014504Y020935D01*
X014554Y021055D01*
X014554Y021186D01*
X014504Y021307D01*
X014412Y021399D01*
X014291Y021449D01*
X014160Y021449D01*
X014040Y021399D01*
X013948Y021307D01*
X013898Y021186D01*
X013898Y021055D01*
X013904Y021040D01*
X013743Y020878D01*
X013662Y020959D01*
X013626Y020973D01*
X013637Y020978D01*
X013729Y021070D01*
X013779Y021190D01*
X013779Y021321D01*
X013729Y021442D01*
X013637Y021534D01*
X013516Y021584D01*
X013385Y021584D01*
X013265Y021534D01*
X013173Y021442D01*
X013123Y021321D01*
X013123Y021190D01*
X013129Y021175D01*
X012880Y020926D01*
X012781Y020826D01*
X012781Y020295D01*
X012765Y020289D01*
X012673Y020197D01*
X012623Y020076D01*
X012623Y019945D01*
X012673Y019825D01*
X012765Y019733D01*
X012885Y019683D01*
X013016Y019683D01*
X013137Y019733D01*
X013229Y019825D01*
X013279Y019945D01*
X013279Y020076D01*
X013229Y020197D01*
X013137Y020289D01*
X013121Y020295D01*
X013121Y020685D01*
X013148Y020712D01*
X013148Y020615D01*
X013198Y020495D01*
X013290Y020403D01*
X013410Y020353D01*
X013541Y020353D01*
X013662Y020403D01*
X013754Y020495D01*
X013760Y020511D01*
X013856Y020511D01*
X014145Y020799D01*
X014160Y020793D01*
X014209Y020793D01*
X014133Y020717D01*
X014083Y020596D01*
X014083Y020465D01*
X014133Y020345D01*
X014225Y020253D01*
X014345Y020203D01*
X014436Y020203D01*
X014436Y019775D01*
X014420Y019769D01*
X014328Y019677D01*
X014278Y019556D01*
X014278Y019425D01*
X014328Y019305D01*
X014420Y019213D01*
X014540Y019163D01*
X014671Y019163D01*
X014792Y019213D01*
X014884Y019305D01*
X014934Y019425D01*
X014934Y019556D01*
X014884Y019677D01*
X014792Y019769D01*
X014850Y019711D02*
X014878Y019711D01*
X014911Y019612D02*
X014955Y019612D01*
X014934Y019514D02*
X015096Y019514D01*
X015096Y019415D02*
X014930Y019415D01*
X014889Y019317D02*
X015096Y019317D01*
X015096Y019218D02*
X014797Y019218D01*
X014991Y019120D02*
X008844Y019120D01*
X008864Y019140D02*
X008914Y019260D01*
X008914Y019391D01*
X008864Y019512D01*
X008772Y019604D01*
X008651Y019654D01*
X008520Y019654D01*
X008400Y019604D01*
X008308Y019512D01*
X008258Y019391D01*
X008258Y019323D01*
X007446Y018511D01*
X004598Y018511D01*
X004506Y018603D01*
X004366Y018661D01*
X004215Y018661D01*
X004076Y018603D01*
X003969Y018496D01*
X003911Y018356D01*
X003911Y018205D01*
X003969Y018066D01*
X004076Y017959D01*
X004215Y017901D01*
X004366Y017901D01*
X004506Y017959D01*
X004598Y018051D01*
X007446Y018051D01*
X007636Y018051D01*
X008583Y018998D01*
X008651Y018998D01*
X008772Y019048D01*
X008864Y019140D01*
X008896Y019218D02*
X014414Y019218D01*
X014323Y019317D02*
X008914Y019317D01*
X008904Y019415D02*
X014282Y019415D01*
X014278Y019514D02*
X008862Y019514D01*
X008751Y019612D02*
X014301Y019612D01*
X014362Y019711D02*
X013084Y019711D01*
X013213Y019809D02*
X014436Y019809D01*
X014436Y019908D02*
X013263Y019908D01*
X013279Y020007D02*
X014436Y020007D01*
X014436Y020105D02*
X013267Y020105D01*
X013222Y020204D02*
X014343Y020204D01*
X014175Y020302D02*
X013121Y020302D01*
X013121Y020401D02*
X013295Y020401D01*
X013196Y020499D02*
X013121Y020499D01*
X013121Y020598D02*
X013155Y020598D01*
X013148Y020696D02*
X013132Y020696D01*
X012848Y020893D02*
X011801Y020893D01*
X011801Y020795D02*
X012781Y020795D01*
X012781Y020696D02*
X011801Y020696D01*
X011801Y020598D02*
X012781Y020598D01*
X012781Y020499D02*
X011801Y020499D01*
X011801Y020401D02*
X012781Y020401D01*
X012781Y020302D02*
X011868Y020302D01*
X011933Y020204D02*
X012680Y020204D01*
X012635Y020105D02*
X011959Y020105D01*
X011957Y020007D02*
X012623Y020007D01*
X012638Y019908D02*
X011916Y019908D01*
X011828Y019809D02*
X012688Y019809D01*
X012817Y019711D02*
X010051Y019711D01*
X010150Y019809D02*
X011433Y019809D01*
X011345Y019908D02*
X010181Y019908D01*
X010181Y020007D02*
X011304Y020007D01*
X011303Y020105D02*
X010181Y020105D01*
X010181Y020204D02*
X011329Y020204D01*
X011393Y020302D02*
X010181Y020302D01*
X010195Y020401D02*
X011461Y020401D01*
X011461Y020499D02*
X010256Y020499D01*
X010279Y020598D02*
X011461Y020598D01*
X011461Y020696D02*
X010275Y020696D01*
X010234Y020795D02*
X011461Y020795D01*
X011461Y020893D02*
X010142Y020893D01*
X009759Y020893D02*
X008817Y020893D01*
X008885Y020795D02*
X009668Y020795D01*
X009627Y020696D02*
X008914Y020696D01*
X008914Y020598D02*
X009623Y020598D01*
X009646Y020499D02*
X008874Y020499D01*
X008790Y020401D02*
X009707Y020401D01*
X009721Y020302D02*
X005037Y020302D01*
X004939Y020204D02*
X009721Y020204D01*
X008382Y020401D02*
X005136Y020401D01*
X004990Y020105D02*
X004840Y020105D01*
X004891Y020007D02*
X004742Y020007D01*
X004793Y019908D02*
X004671Y019908D01*
X004671Y019809D02*
X004694Y019809D01*
X004398Y019514D02*
X004399Y019514D01*
X004184Y019514D02*
X003393Y019514D01*
X003413Y019612D02*
X004022Y019612D01*
X003950Y019711D02*
X003413Y019711D01*
X003413Y019809D02*
X003911Y019809D01*
X003911Y019908D02*
X003413Y019908D01*
X003413Y020007D02*
X003932Y020007D01*
X003978Y020105D02*
X003413Y020105D01*
X003366Y020204D02*
X004077Y020204D01*
X004212Y020302D02*
X003394Y020302D01*
X003413Y020401D02*
X004033Y020401D01*
X003955Y020499D02*
X003413Y020499D01*
X003413Y020598D02*
X003914Y020598D01*
X003911Y020696D02*
X003413Y020696D01*
X003413Y020795D02*
X003927Y020795D01*
X003968Y020893D02*
X003413Y020893D01*
X003366Y020992D02*
X004065Y020992D01*
X004045Y021189D02*
X003413Y021189D01*
X003413Y021288D02*
X003959Y021288D01*
X003919Y021386D02*
X003413Y021386D01*
X003413Y021485D02*
X003911Y021485D01*
X003922Y021583D02*
X003413Y021583D01*
X003413Y021682D02*
X003963Y021682D01*
X004053Y021780D02*
X003365Y021780D01*
X003395Y021091D02*
X004375Y021091D01*
X004663Y021386D02*
X004671Y021386D01*
X004671Y021485D02*
X004769Y021485D01*
X004868Y021583D02*
X004660Y021583D01*
X004619Y021682D02*
X004967Y021682D01*
X005065Y021780D02*
X004529Y021780D01*
X005321Y021386D02*
X011461Y021386D01*
X011461Y021288D02*
X005223Y021288D01*
X005124Y021189D02*
X011461Y021189D01*
X011461Y021091D02*
X005026Y021091D01*
X004927Y020992D02*
X011461Y020992D01*
X011801Y020992D02*
X012947Y020992D01*
X013045Y021091D02*
X011801Y021091D01*
X011801Y021189D02*
X013123Y021189D01*
X013123Y021288D02*
X011801Y021288D01*
X011887Y021386D02*
X013150Y021386D01*
X013216Y021485D02*
X011985Y021485D01*
X012084Y021583D02*
X013384Y021583D01*
X013518Y021583D02*
X017838Y021583D01*
X017838Y021682D02*
X012182Y021682D01*
X012281Y021780D02*
X017871Y021780D01*
X017945Y021879D02*
X012379Y021879D01*
X011997Y021977D02*
X008914Y021977D01*
X008914Y022076D02*
X008864Y022197D01*
X008886Y021879D02*
X011898Y021879D01*
X011800Y021780D02*
X008819Y021780D01*
X008352Y021780D02*
X005716Y021780D01*
X005617Y021682D02*
X011701Y021682D01*
X011603Y021583D02*
X005518Y021583D01*
X005420Y021485D02*
X011504Y021485D01*
X013133Y022766D02*
X031794Y022766D01*
X031922Y024145D02*
X000551Y024145D01*
X000551Y024244D02*
X034651Y024244D01*
X034651Y024342D02*
X000551Y024342D01*
X000551Y024441D02*
X034651Y024441D01*
X034652Y024540D02*
X019954Y024540D01*
X019942Y024528D02*
X020034Y024620D01*
X020084Y024740D01*
X020084Y024871D01*
X020034Y024992D01*
X019942Y025084D01*
X019850Y025122D01*
X019564Y025408D01*
X019564Y025476D01*
X019514Y025597D01*
X019422Y025689D01*
X019301Y025739D01*
X019170Y025739D01*
X019050Y025689D01*
X018958Y025597D01*
X018908Y025476D01*
X018908Y025345D01*
X018958Y025225D01*
X019050Y025133D01*
X019170Y025083D01*
X019239Y025083D01*
X019434Y024887D01*
X019428Y024871D01*
X019428Y024740D01*
X019478Y024620D01*
X019570Y024528D01*
X019690Y024478D01*
X019821Y024478D01*
X019942Y024528D01*
X020041Y024638D02*
X034652Y024638D01*
X034652Y024737D02*
X020082Y024737D01*
X020084Y024835D02*
X034652Y024835D01*
X034653Y024934D02*
X020058Y024934D01*
X019993Y025032D02*
X034653Y025032D01*
X034653Y025131D02*
X021800Y025131D01*
X021762Y025093D02*
X021854Y025185D01*
X021904Y025305D01*
X021904Y025436D01*
X021854Y025557D01*
X021762Y025649D01*
X021641Y025699D01*
X021573Y025699D01*
X021146Y026126D01*
X021011Y026261D01*
X018580Y026261D01*
X018532Y026309D01*
X018411Y026359D01*
X018280Y026359D01*
X018160Y026309D01*
X018068Y026217D01*
X018018Y026096D01*
X018018Y025965D01*
X018068Y025845D01*
X018160Y025753D01*
X018280Y025703D01*
X018411Y025703D01*
X018532Y025753D01*
X018580Y025801D01*
X020821Y025801D01*
X021248Y025374D01*
X021248Y025305D01*
X021298Y025185D01*
X021390Y025093D01*
X021510Y025043D01*
X021641Y025043D01*
X021762Y025093D01*
X021872Y025229D02*
X034653Y025229D01*
X034654Y025328D02*
X021904Y025328D01*
X021904Y025426D02*
X034654Y025426D01*
X034654Y025525D02*
X021867Y025525D01*
X021787Y025624D02*
X034654Y025624D01*
X034654Y025722D02*
X021550Y025722D01*
X021451Y025821D02*
X034655Y025821D01*
X034655Y025919D02*
X021353Y025919D01*
X021254Y026018D02*
X034655Y026018D01*
X034655Y026116D02*
X021156Y026116D01*
X021057Y026215D02*
X034656Y026215D01*
X034656Y026313D02*
X018521Y026313D01*
X018171Y026313D02*
X000551Y026313D01*
X000551Y026215D02*
X018067Y026215D01*
X018026Y026116D02*
X000551Y026116D01*
X000551Y026018D02*
X018018Y026018D01*
X018037Y025919D02*
X000551Y025919D01*
X000551Y025821D02*
X018092Y025821D01*
X018234Y025722D02*
X000551Y025722D01*
X000551Y025624D02*
X018985Y025624D01*
X018928Y025525D02*
X000551Y025525D01*
X000551Y025426D02*
X018908Y025426D01*
X018915Y025328D02*
X000551Y025328D01*
X000551Y025229D02*
X018956Y025229D01*
X019054Y025131D02*
X000551Y025131D01*
X000551Y025032D02*
X019289Y025032D01*
X019388Y024934D02*
X000551Y024934D01*
X000551Y024835D02*
X019428Y024835D01*
X019429Y024737D02*
X000551Y024737D01*
X000551Y024638D02*
X019470Y024638D01*
X019558Y024540D02*
X000551Y024540D01*
X000551Y026412D02*
X034656Y026412D01*
X034656Y026510D02*
X000551Y026510D01*
X000551Y026609D02*
X034657Y026609D01*
X034657Y026707D02*
X000551Y026707D01*
X000551Y026806D02*
X029290Y026806D01*
X029291Y026805D02*
X029500Y026719D01*
X029725Y026719D01*
X029934Y026805D01*
X030093Y026965D01*
X030180Y027173D01*
X030180Y027399D01*
X030093Y027607D01*
X029934Y027766D01*
X029725Y027853D01*
X029500Y027853D01*
X029291Y027766D01*
X029132Y027607D01*
X029046Y027399D01*
X029046Y027173D01*
X029132Y026965D01*
X029291Y026805D01*
X029192Y026905D02*
X013537Y026905D01*
X013479Y026880D02*
X013599Y026930D01*
X013692Y027023D01*
X013742Y027143D01*
X013742Y027274D01*
X013692Y027394D01*
X013643Y027442D01*
X013643Y027923D01*
X014138Y028418D01*
X014206Y028418D01*
X014327Y028468D01*
X014419Y028560D01*
X014469Y028680D01*
X014469Y028811D01*
X014419Y028932D01*
X014327Y029024D01*
X014206Y029074D01*
X014075Y029074D01*
X013955Y029024D01*
X013863Y028932D01*
X013813Y028811D01*
X013813Y028743D01*
X013318Y028248D01*
X013183Y028114D01*
X013183Y027442D01*
X013135Y027394D01*
X013085Y027274D01*
X013085Y027143D01*
X013135Y027023D01*
X013228Y026930D01*
X013348Y026880D01*
X013479Y026880D01*
X013290Y026905D02*
X000551Y026905D01*
X000551Y027003D02*
X013155Y027003D01*
X013103Y027102D02*
X000551Y027102D01*
X000551Y027200D02*
X013085Y027200D01*
X013096Y027299D02*
X000551Y027299D01*
X000551Y027397D02*
X013138Y027397D01*
X013183Y027496D02*
X000551Y027496D01*
X000551Y027594D02*
X013183Y027594D01*
X013183Y027693D02*
X000551Y027693D01*
X000551Y027791D02*
X013183Y027791D01*
X013183Y027890D02*
X000551Y027890D01*
X000551Y027989D02*
X013183Y027989D01*
X013183Y028087D02*
X000551Y028087D01*
X000551Y028186D02*
X013255Y028186D01*
X013354Y028284D02*
X000551Y028284D01*
X000551Y028383D02*
X013452Y028383D01*
X013551Y028481D02*
X000551Y028481D01*
X000551Y028580D02*
X013650Y028580D01*
X013748Y028678D02*
X000551Y028678D01*
X000551Y028777D02*
X013813Y028777D01*
X013839Y028875D02*
X000551Y028875D01*
X000551Y028974D02*
X013905Y028974D01*
X014072Y029073D02*
X000551Y029073D01*
X000551Y029171D02*
X015029Y029171D01*
X015023Y029185D02*
X015073Y029065D01*
X015165Y028973D01*
X015285Y028923D01*
X015416Y028923D01*
X015537Y028973D01*
X015585Y029021D01*
X016222Y029021D01*
X016280Y028963D01*
X016400Y028913D01*
X016531Y028913D01*
X016652Y028963D01*
X016744Y029055D01*
X016794Y029175D01*
X016794Y029306D01*
X016744Y029427D01*
X016652Y029519D01*
X016531Y029569D01*
X016400Y029569D01*
X016280Y029519D01*
X016242Y029481D01*
X015585Y029481D01*
X015537Y029529D01*
X015416Y029579D01*
X015285Y029579D01*
X015165Y029529D01*
X015073Y029437D01*
X015023Y029316D01*
X015023Y029185D01*
X015023Y029270D02*
X000551Y029270D01*
X000551Y029368D02*
X015044Y029368D01*
X015103Y029467D02*
X000551Y029467D01*
X000551Y029565D02*
X015253Y029565D01*
X015449Y029565D02*
X016392Y029565D01*
X016540Y029565D02*
X034664Y029565D01*
X034663Y029467D02*
X029816Y029467D01*
X029838Y029460D02*
X029750Y029488D01*
X029663Y029502D01*
X029663Y028966D01*
X030199Y028966D01*
X030185Y029053D01*
X030157Y029141D01*
X030115Y029223D01*
X030060Y029298D01*
X029995Y029363D01*
X029920Y029418D01*
X029838Y029460D01*
X029663Y029467D02*
X029563Y029467D01*
X029563Y029502D02*
X029475Y029488D01*
X029387Y029460D01*
X029305Y029418D01*
X029230Y029363D01*
X029165Y029298D01*
X029111Y029223D01*
X029069Y029141D01*
X029040Y029053D01*
X029026Y028966D01*
X029562Y028966D01*
X029562Y028866D01*
X029026Y028866D01*
X029040Y028778D01*
X029069Y028690D01*
X029111Y028608D01*
X029165Y028533D01*
X029230Y028468D01*
X029305Y028414D01*
X029387Y028372D01*
X029475Y028343D01*
X029563Y028329D01*
X029563Y028866D01*
X029663Y028866D01*
X029663Y028966D01*
X029563Y028966D01*
X029563Y029502D01*
X029563Y029368D02*
X029663Y029368D01*
X029663Y029270D02*
X029563Y029270D01*
X029563Y029171D02*
X029663Y029171D01*
X029663Y029073D02*
X029563Y029073D01*
X029563Y028974D02*
X029663Y028974D01*
X029663Y028875D02*
X031552Y028875D01*
X031526Y028850D02*
X031366Y028572D01*
X031283Y028261D01*
X031283Y027940D01*
X031366Y027630D01*
X031526Y027352D01*
X031753Y027125D01*
X032032Y026964D01*
X032342Y026881D01*
X032663Y026881D01*
X032973Y026964D01*
X033251Y027125D01*
X033478Y027352D01*
X033639Y027630D01*
X033722Y027940D01*
X033722Y028261D01*
X033639Y028572D01*
X033478Y028850D01*
X033251Y029077D01*
X032973Y029237D01*
X032663Y029320D01*
X032342Y029320D01*
X032032Y029237D01*
X031753Y029077D01*
X031526Y028850D01*
X031484Y028777D02*
X030185Y028777D01*
X030185Y028778D02*
X030199Y028866D01*
X029663Y028866D01*
X029663Y028329D01*
X029750Y028343D01*
X029838Y028372D01*
X029920Y028414D01*
X029995Y028468D01*
X030060Y028533D01*
X030115Y028608D01*
X030157Y028690D01*
X030185Y028778D01*
X030150Y028678D02*
X031427Y028678D01*
X031371Y028580D02*
X030094Y028580D01*
X030008Y028481D02*
X031342Y028481D01*
X031315Y028383D02*
X029859Y028383D01*
X029663Y028383D02*
X029563Y028383D01*
X029563Y028481D02*
X029663Y028481D01*
X029663Y028580D02*
X029563Y028580D01*
X029563Y028678D02*
X029663Y028678D01*
X029663Y028777D02*
X029563Y028777D01*
X029562Y028875D02*
X014442Y028875D01*
X014469Y028777D02*
X029040Y028777D01*
X029075Y028678D02*
X014468Y028678D01*
X014427Y028580D02*
X029131Y028580D01*
X029217Y028481D02*
X014340Y028481D01*
X014103Y028383D02*
X029366Y028383D01*
X028786Y028383D02*
X030386Y028383D01*
X030386Y028481D02*
X028786Y028481D01*
X028786Y028580D02*
X030386Y028580D01*
X030386Y028678D02*
X028786Y028678D01*
X028786Y028777D02*
X030386Y028777D01*
X030386Y028875D02*
X028786Y028875D01*
X028786Y028974D02*
X030386Y028974D01*
X030386Y029073D02*
X028786Y029073D01*
X028786Y029171D02*
X030386Y029171D01*
X030386Y029270D02*
X028786Y029270D01*
X028786Y029368D02*
X030386Y029368D01*
X030386Y029467D02*
X028786Y029467D01*
X028786Y029565D02*
X030386Y029565D01*
X030386Y029661D02*
X029561Y029661D01*
X029321Y029676D01*
X028786Y029676D01*
X028786Y028176D01*
X030386Y028176D01*
X030386Y029661D01*
X029989Y029368D02*
X034663Y029368D01*
X034663Y029270D02*
X032853Y029270D01*
X033088Y029171D02*
X034663Y029171D01*
X034662Y029073D02*
X033255Y029073D01*
X033354Y028974D02*
X034662Y028974D01*
X034662Y028875D02*
X033453Y028875D01*
X033520Y028777D02*
X034662Y028777D01*
X034661Y028678D02*
X033577Y028678D01*
X033634Y028580D02*
X034661Y028580D01*
X034661Y028481D02*
X033663Y028481D01*
X033689Y028383D02*
X034661Y028383D01*
X034661Y028284D02*
X033716Y028284D01*
X033722Y028186D02*
X034660Y028186D01*
X034660Y028087D02*
X033722Y028087D01*
X033722Y027989D02*
X034660Y027989D01*
X034660Y027890D02*
X033709Y027890D01*
X033682Y027791D02*
X034659Y027791D01*
X034659Y027693D02*
X033656Y027693D01*
X033618Y027594D02*
X034659Y027594D01*
X034659Y027496D02*
X033561Y027496D01*
X033505Y027397D02*
X034658Y027397D01*
X034658Y027299D02*
X033425Y027299D01*
X033327Y027200D02*
X034658Y027200D01*
X034658Y027102D02*
X033211Y027102D01*
X033040Y027003D02*
X034658Y027003D01*
X034657Y026905D02*
X032750Y026905D01*
X032254Y026905D02*
X030033Y026905D01*
X030109Y027003D02*
X031964Y027003D01*
X031794Y027102D02*
X030150Y027102D01*
X030180Y027200D02*
X031678Y027200D01*
X031579Y027299D02*
X030180Y027299D01*
X030180Y027397D02*
X031500Y027397D01*
X031443Y027496D02*
X030139Y027496D01*
X030099Y027594D02*
X031386Y027594D01*
X031349Y027693D02*
X030007Y027693D01*
X029874Y027791D02*
X031323Y027791D01*
X031296Y027890D02*
X013643Y027890D01*
X013643Y027791D02*
X029352Y027791D01*
X029218Y027693D02*
X013643Y027693D01*
X013643Y027594D02*
X029127Y027594D01*
X029086Y027496D02*
X013643Y027496D01*
X013689Y027397D02*
X029046Y027397D01*
X029046Y027299D02*
X013731Y027299D01*
X013742Y027200D02*
X029046Y027200D01*
X029075Y027102D02*
X013724Y027102D01*
X013672Y027003D02*
X029116Y027003D01*
X029935Y026806D02*
X034657Y026806D01*
X031283Y027989D02*
X013709Y027989D01*
X013807Y028087D02*
X031283Y028087D01*
X031283Y028186D02*
X013906Y028186D01*
X014004Y028284D02*
X031289Y028284D01*
X030386Y028284D02*
X028786Y028284D01*
X028786Y028186D02*
X030386Y028186D01*
X030198Y028974D02*
X031651Y028974D01*
X031749Y029073D02*
X030179Y029073D01*
X030141Y029171D02*
X031917Y029171D01*
X032152Y029270D02*
X030081Y029270D01*
X029513Y029664D02*
X028786Y029664D01*
X029144Y029270D02*
X016794Y029270D01*
X016792Y029171D02*
X029084Y029171D01*
X029046Y029073D02*
X016751Y029073D01*
X016663Y028974D02*
X029028Y028974D01*
X029237Y029368D02*
X016768Y029368D01*
X016704Y029467D02*
X029409Y029467D01*
X034664Y029664D02*
X000551Y029664D01*
X000551Y029762D02*
X034664Y029762D01*
X034664Y029861D02*
X000551Y029861D01*
X000551Y029959D02*
X034665Y029959D01*
X034665Y030058D02*
X000551Y030058D01*
X000551Y030156D02*
X034665Y030156D01*
X034665Y030255D02*
X000551Y030255D01*
X000551Y030354D02*
X034665Y030354D01*
X034666Y030452D02*
X000551Y030452D01*
X000551Y030551D02*
X034666Y030551D01*
X034666Y030649D02*
X000551Y030649D01*
X000551Y030748D02*
X034666Y030748D01*
X034667Y030846D02*
X000551Y030846D01*
X000551Y030945D02*
X034667Y030945D01*
X034667Y031043D02*
X000551Y031043D01*
X000551Y031142D02*
X034667Y031142D01*
X034668Y031240D02*
X000551Y031240D01*
X000551Y031339D02*
X034668Y031339D01*
X034668Y031438D02*
X000551Y031438D01*
X000551Y031536D02*
X034668Y031536D01*
X034669Y031635D02*
X000551Y031635D01*
X000551Y031733D02*
X034669Y031733D01*
X034669Y031832D02*
X000551Y031832D01*
X000551Y031930D02*
X034669Y031930D01*
X034669Y032029D02*
X000551Y032029D01*
X000551Y032127D02*
X034670Y032127D01*
X034670Y032226D02*
X000551Y032226D01*
X000551Y032324D02*
X034670Y032324D01*
X034670Y032423D02*
X000551Y032423D01*
X000551Y032522D02*
X034671Y032522D01*
X034671Y032620D02*
X000551Y032620D01*
X000551Y032719D02*
X034671Y032719D01*
X034671Y032817D02*
X000551Y032817D01*
X000551Y032916D02*
X034672Y032916D01*
X034672Y033014D02*
X000551Y033014D01*
X000551Y033113D02*
X034672Y033113D01*
X034672Y033211D02*
X000551Y033211D01*
X000551Y033310D02*
X034672Y033310D01*
X034673Y033408D02*
X000551Y033408D01*
X000551Y033507D02*
X034673Y033507D01*
X034673Y033606D02*
X000551Y033606D01*
X000551Y033704D02*
X034673Y033704D01*
X034674Y033803D02*
X009067Y033803D01*
X009098Y033834D02*
X009022Y033758D01*
X008029Y033758D01*
X007952Y033834D01*
X007952Y034828D01*
X008029Y034904D01*
X009022Y034904D01*
X009098Y034828D01*
X009098Y033834D01*
X009098Y033901D02*
X034674Y033901D01*
X034674Y034000D02*
X009098Y034000D01*
X009098Y034098D02*
X034674Y034098D01*
X034675Y034197D02*
X009098Y034197D01*
X009098Y034295D02*
X034675Y034295D01*
X034675Y034394D02*
X009098Y034394D01*
X009098Y034492D02*
X034675Y034492D01*
X034676Y034591D02*
X009098Y034591D01*
X009098Y034689D02*
X034676Y034689D01*
X034671Y034788D02*
X009098Y034788D01*
X009039Y034887D02*
X034660Y034887D01*
X034639Y034985D02*
X000551Y034985D01*
X000551Y034887D02*
X005452Y034887D01*
X005469Y034904D02*
X005393Y034828D01*
X005393Y033834D01*
X005469Y033758D01*
X006463Y033758D01*
X006539Y033834D01*
X006539Y034828D01*
X006463Y034904D01*
X005469Y034904D01*
X005393Y034788D02*
X000551Y034788D01*
X000551Y034689D02*
X005393Y034689D01*
X005393Y034591D02*
X000551Y034591D01*
X000551Y034492D02*
X005393Y034492D01*
X005393Y034394D02*
X000551Y034394D01*
X000551Y034295D02*
X005393Y034295D01*
X005393Y034197D02*
X000551Y034197D01*
X000551Y034098D02*
X005393Y034098D01*
X005393Y034000D02*
X000551Y034000D01*
X000551Y033901D02*
X005393Y033901D01*
X005425Y033803D02*
X000551Y033803D01*
X000551Y035084D02*
X034605Y035084D01*
X034560Y035182D02*
X000551Y035182D01*
X000551Y035281D02*
X034503Y035281D01*
X034428Y035379D02*
X000634Y035379D01*
X000748Y035478D02*
X034329Y035478D01*
X034190Y035576D02*
X000909Y035576D01*
X006480Y034887D02*
X008011Y034887D01*
X007952Y034788D02*
X006539Y034788D01*
X006539Y034689D02*
X007952Y034689D01*
X007952Y034591D02*
X006539Y034591D01*
X006539Y034492D02*
X007952Y034492D01*
X007952Y034394D02*
X006539Y034394D01*
X006539Y034295D02*
X007952Y034295D01*
X007952Y034197D02*
X006539Y034197D01*
X006539Y034098D02*
X007952Y034098D01*
X007952Y034000D02*
X006539Y034000D01*
X006539Y033901D02*
X007952Y033901D01*
X007984Y033803D02*
X006508Y033803D01*
X014209Y029073D02*
X015069Y029073D01*
X015164Y028974D02*
X014377Y028974D01*
X015538Y028974D02*
X016269Y028974D01*
X018458Y025722D02*
X019130Y025722D01*
X019342Y025722D02*
X020899Y025722D01*
X020998Y025624D02*
X019487Y025624D01*
X019544Y025525D02*
X021096Y025525D01*
X021195Y025426D02*
X019564Y025426D01*
X019644Y025328D02*
X021248Y025328D01*
X021279Y025229D02*
X019742Y025229D01*
X019841Y025131D02*
X021352Y025131D01*
X021108Y021780D02*
X022476Y021780D01*
X022458Y021682D02*
X021206Y021682D01*
X021247Y021583D02*
X022467Y021583D01*
X022508Y021485D02*
X022600Y021393D01*
X022606Y021390D01*
X022606Y021288D02*
X021177Y021288D01*
X021031Y021189D02*
X022606Y021189D01*
X022606Y021091D02*
X014554Y021091D01*
X014553Y021189D02*
X020821Y021189D01*
X020675Y021288D02*
X014512Y021288D01*
X014424Y021386D02*
X017951Y021386D01*
X017873Y021485D02*
X013686Y021485D01*
X013752Y021386D02*
X014027Y021386D01*
X013940Y021288D02*
X013779Y021288D01*
X013778Y021189D02*
X013899Y021189D01*
X013898Y021091D02*
X013737Y021091D01*
X013651Y020992D02*
X013857Y020992D01*
X013758Y020893D02*
X013727Y020893D01*
X013943Y020598D02*
X014083Y020598D01*
X014083Y020499D02*
X013756Y020499D01*
X013657Y020401D02*
X014109Y020401D01*
X014124Y020696D02*
X014042Y020696D01*
X014140Y020795D02*
X014155Y020795D01*
X014462Y020893D02*
X022606Y020893D01*
X022606Y020795D02*
X014611Y020795D01*
X014697Y020696D02*
X022606Y020696D01*
X022606Y020598D02*
X014738Y020598D01*
X014739Y020499D02*
X022606Y020499D01*
X022606Y020401D02*
X018815Y020401D01*
X018417Y020401D02*
X014776Y020401D01*
X014776Y020302D02*
X018330Y020302D01*
X018289Y020204D02*
X014776Y020204D01*
X014528Y020992D02*
X022606Y020992D01*
X022966Y020992D02*
X023446Y020992D01*
X023446Y021091D02*
X022966Y021091D01*
X022966Y021189D02*
X023359Y021189D01*
X023305Y021288D02*
X022966Y021288D01*
X022966Y021386D02*
X023288Y021386D01*
X023297Y021485D02*
X023064Y021485D01*
X023105Y021583D02*
X023339Y021583D01*
X023449Y021682D02*
X023114Y021682D01*
X022786Y021671D02*
X022786Y019846D01*
X023141Y019491D01*
X023446Y019612D02*
X024172Y019612D01*
X024172Y019514D02*
X023469Y019514D01*
X023465Y019415D02*
X024172Y019415D01*
X024172Y019317D02*
X023424Y019317D01*
X023332Y019218D02*
X024172Y019218D01*
X024172Y019120D02*
X022759Y019120D01*
X022759Y019218D02*
X022949Y019218D01*
X022858Y019317D02*
X022759Y019317D01*
X022759Y019415D02*
X022817Y019415D01*
X022813Y019514D02*
X022759Y019514D01*
X022759Y019612D02*
X022765Y019612D01*
X022978Y019908D02*
X023138Y019908D01*
X023229Y019809D02*
X024172Y019809D01*
X024172Y019711D02*
X023385Y019711D01*
X023463Y019908D02*
X024213Y019908D01*
X024172Y019021D02*
X022759Y019021D01*
X022759Y018923D02*
X024172Y018923D01*
X024222Y018824D02*
X022709Y018824D01*
X021711Y017866D02*
X021661Y017916D01*
X021386Y017916D01*
X020642Y017543D02*
X026769Y017543D01*
X026768Y017444D02*
X020674Y017444D01*
X020674Y017346D02*
X026785Y017346D01*
X026826Y017247D02*
X020637Y017247D01*
X020558Y017149D02*
X026924Y017149D01*
X026991Y017050D02*
X008660Y017050D01*
X008651Y017054D02*
X008520Y017054D01*
X008400Y017004D01*
X008352Y016956D01*
X004553Y016956D01*
X004506Y017003D01*
X004366Y017061D01*
X004215Y017061D01*
X004076Y017003D01*
X003969Y016896D01*
X003911Y016756D01*
X003911Y016605D01*
X003969Y016466D01*
X004076Y016359D01*
X004215Y016301D01*
X004366Y016301D01*
X004506Y016359D01*
X004613Y016466D01*
X004625Y016496D01*
X008352Y016496D01*
X008400Y016448D01*
X008520Y016398D01*
X008651Y016398D01*
X008772Y016448D01*
X008864Y016540D01*
X008914Y016660D01*
X008914Y016791D01*
X008864Y016912D01*
X008772Y017004D01*
X008651Y017054D01*
X008512Y017050D02*
X004392Y017050D01*
X004366Y017101D02*
X004506Y017159D01*
X004598Y017251D01*
X007971Y017251D01*
X008161Y017251D01*
X008583Y017673D01*
X008651Y017673D01*
X008772Y017723D01*
X008864Y017815D01*
X008914Y017935D01*
X008914Y018066D01*
X008864Y018187D01*
X008772Y018279D01*
X008651Y018329D01*
X008520Y018329D01*
X008400Y018279D01*
X008308Y018187D01*
X008258Y018066D01*
X008258Y017998D01*
X007971Y017711D01*
X004598Y017711D01*
X004506Y017803D01*
X004366Y017861D01*
X004215Y017861D01*
X004076Y017803D01*
X003969Y017696D01*
X003911Y017556D01*
X003911Y017405D01*
X003969Y017266D01*
X004076Y017159D01*
X004215Y017101D01*
X004366Y017101D01*
X004482Y017149D02*
X020134Y017149D01*
X020054Y017247D02*
X004595Y017247D01*
X004190Y017050D02*
X003370Y017050D01*
X003390Y017149D02*
X004099Y017149D01*
X003987Y017247D02*
X003413Y017247D01*
X003413Y017346D02*
X003935Y017346D01*
X003911Y017444D02*
X003413Y017444D01*
X003413Y017543D02*
X003911Y017543D01*
X003946Y017641D02*
X003413Y017641D01*
X003413Y017740D02*
X004013Y017740D01*
X004162Y017839D02*
X003369Y017839D01*
X003391Y017937D02*
X004127Y017937D01*
X003998Y018036D02*
X003413Y018036D01*
X003413Y018134D02*
X003940Y018134D01*
X003911Y018233D02*
X003413Y018233D01*
X003413Y018331D02*
X003911Y018331D01*
X003941Y018430D02*
X003413Y018430D01*
X003413Y018528D02*
X004001Y018528D01*
X004134Y018627D02*
X003368Y018627D01*
X003392Y018725D02*
X004156Y018725D01*
X004010Y018824D02*
X003413Y018824D01*
X003413Y018923D02*
X003945Y018923D01*
X003911Y019021D02*
X003413Y019021D01*
X003413Y019120D02*
X003911Y019120D01*
X003936Y019218D02*
X003413Y019218D01*
X003413Y019317D02*
X003989Y019317D01*
X004105Y019415D02*
X003367Y019415D01*
X004426Y018725D02*
X007660Y018725D01*
X007562Y018627D02*
X004448Y018627D01*
X004581Y018528D02*
X007463Y018528D01*
X007759Y018824D02*
X004571Y018824D01*
X004637Y018923D02*
X007857Y018923D01*
X007956Y019021D02*
X004671Y019021D01*
X004671Y019120D02*
X008054Y019120D01*
X008153Y019218D02*
X004753Y019218D01*
X004852Y019317D02*
X008251Y019317D01*
X008268Y019415D02*
X004950Y019415D01*
X005049Y019514D02*
X008310Y019514D01*
X008420Y019612D02*
X005148Y019612D01*
X004387Y020302D02*
X004370Y020302D01*
X004668Y020598D02*
X004683Y020598D01*
X004671Y020696D02*
X004781Y020696D01*
X004730Y020795D02*
X004880Y020795D01*
X004829Y020893D02*
X008354Y020893D01*
X008708Y019021D02*
X014948Y019021D01*
X014938Y018923D02*
X008508Y018923D01*
X008409Y018824D02*
X014955Y018824D01*
X015007Y018725D02*
X008311Y018725D01*
X008015Y018430D02*
X018596Y018430D01*
X018695Y018331D02*
X007917Y018331D01*
X007818Y018233D02*
X008354Y018233D01*
X008286Y018134D02*
X007719Y018134D01*
X008098Y017839D02*
X004420Y017839D01*
X004454Y017937D02*
X008197Y017937D01*
X008258Y018036D02*
X004583Y018036D01*
X004569Y017740D02*
X008000Y017740D01*
X008355Y017444D02*
X020018Y017444D01*
X020018Y017346D02*
X008256Y017346D01*
X008453Y017543D02*
X019963Y017543D01*
X019865Y017641D02*
X008552Y017641D01*
X008789Y017740D02*
X019766Y017740D01*
X019706Y017839D02*
X008874Y017839D01*
X008914Y017937D02*
X018865Y017937D01*
X018779Y018036D02*
X008914Y018036D01*
X008886Y018134D02*
X018738Y018134D01*
X018738Y018233D02*
X008818Y018233D01*
X008824Y016952D02*
X026854Y016952D01*
X026788Y016853D02*
X008888Y016853D01*
X008914Y016755D02*
X026756Y016755D01*
X026748Y016648D02*
X026748Y016645D01*
X026758Y016582D01*
X026778Y016521D01*
X026807Y016464D01*
X026845Y016412D01*
X026890Y016366D01*
X026942Y016329D01*
X026999Y016299D01*
X027060Y016280D01*
X027124Y016270D01*
X027127Y016270D01*
X027127Y016648D01*
X026748Y016648D01*
X026766Y016558D02*
X008871Y016558D01*
X008912Y016656D02*
X027127Y016656D01*
X027185Y016656D02*
X034633Y016656D01*
X034633Y016558D02*
X027545Y016558D01*
X027553Y016582D02*
X027563Y016645D01*
X027563Y016648D01*
X027185Y016648D01*
X027185Y016270D01*
X027188Y016270D01*
X027251Y016280D01*
X027312Y016299D01*
X027369Y016329D01*
X027421Y016366D01*
X027467Y016412D01*
X027504Y016464D01*
X027533Y016521D01*
X027553Y016582D01*
X027501Y016459D02*
X034632Y016459D01*
X034632Y016360D02*
X027413Y016360D01*
X027185Y016360D02*
X027127Y016360D01*
X027127Y016459D02*
X027185Y016459D01*
X027185Y016558D02*
X027127Y016558D01*
X026898Y016360D02*
X004508Y016360D01*
X004606Y016459D02*
X008389Y016459D01*
X008783Y016459D02*
X026811Y016459D01*
X027556Y016755D02*
X034633Y016755D01*
X034633Y016853D02*
X027523Y016853D01*
X027457Y016952D02*
X034634Y016952D01*
X034634Y017050D02*
X027321Y017050D01*
X027388Y017149D02*
X034634Y017149D01*
X034634Y017247D02*
X027485Y017247D01*
X027526Y017346D02*
X034635Y017346D01*
X034635Y017444D02*
X027543Y017444D01*
X027543Y017543D02*
X034635Y017543D01*
X034635Y017641D02*
X027502Y017641D01*
X027046Y017839D02*
X020148Y017839D01*
X020247Y017740D02*
X026883Y017740D01*
X026810Y017641D02*
X020569Y017641D01*
X019706Y017937D02*
X019266Y017937D01*
X019352Y018036D02*
X019706Y018036D01*
X019706Y018134D02*
X019393Y018134D01*
X019394Y018233D02*
X019706Y018233D01*
X019706Y018331D02*
X019615Y018331D01*
X019687Y018430D02*
X019706Y018430D01*
X018456Y016806D02*
X018461Y016801D01*
X018456Y016806D02*
X018346Y016806D01*
X020708Y015572D02*
X021443Y015572D01*
X021256Y015474D02*
X020895Y015474D01*
X020994Y015375D02*
X021158Y015375D01*
X021114Y015276D02*
X021038Y015276D01*
X021076Y015178D02*
X021076Y015178D01*
X021076Y015079D02*
X021076Y015079D01*
X021073Y014981D02*
X021078Y014981D01*
X021119Y014882D02*
X021033Y014882D01*
X020981Y014784D02*
X021171Y014784D01*
X021269Y014685D02*
X020882Y014685D01*
X020269Y014685D02*
X004352Y014685D01*
X004559Y014784D02*
X020171Y014784D01*
X020119Y014882D02*
X004639Y014882D01*
X004679Y014981D02*
X020078Y014981D01*
X021708Y015572D02*
X022390Y015572D01*
X022526Y015572D02*
X022626Y015572D01*
X022626Y015474D02*
X022526Y015474D01*
X022526Y015375D02*
X022626Y015375D01*
X022626Y015276D02*
X022526Y015276D01*
X022526Y015178D02*
X022626Y015178D01*
X022626Y014981D02*
X022526Y014981D01*
X022526Y014882D02*
X022626Y014882D01*
X022626Y014784D02*
X022526Y014784D01*
X022526Y014685D02*
X022626Y014685D01*
X022909Y014685D02*
X023269Y014685D01*
X023171Y014784D02*
X022999Y014784D01*
X023056Y014882D02*
X023119Y014882D01*
X023114Y015276D02*
X023061Y015276D01*
X023008Y015375D02*
X023158Y015375D01*
X023256Y015474D02*
X022923Y015474D01*
X022762Y015572D02*
X023443Y015572D01*
X023708Y015572D02*
X024443Y015572D01*
X024256Y015474D02*
X023895Y015474D01*
X023994Y015375D02*
X024158Y015375D01*
X024114Y015276D02*
X024038Y015276D01*
X024076Y015178D02*
X024076Y015178D01*
X024076Y015079D02*
X024076Y015079D01*
X024073Y014981D02*
X024078Y014981D01*
X024119Y014882D02*
X024033Y014882D01*
X023981Y014784D02*
X024171Y014784D01*
X024269Y014685D02*
X023882Y014685D01*
X022242Y014685D02*
X021882Y014685D01*
X021981Y014784D02*
X022152Y014784D01*
X022096Y014882D02*
X022033Y014882D01*
X022038Y015276D02*
X022091Y015276D01*
X022143Y015375D02*
X021994Y015375D01*
X021895Y015474D02*
X022228Y015474D01*
X025621Y017851D02*
X025621Y018081D01*
X025676Y018136D01*
X027097Y018824D02*
X027155Y018824D01*
X027155Y018923D02*
X027097Y018923D01*
X027097Y019021D02*
X027155Y019021D01*
X027404Y018824D02*
X031730Y018824D01*
X031700Y018923D02*
X027481Y018923D01*
X027521Y019021D02*
X032072Y019021D01*
X032350Y019317D02*
X034639Y019317D01*
X034639Y019415D02*
X027409Y019415D01*
X027239Y019514D02*
X034640Y019514D01*
X034640Y019612D02*
X027377Y019612D01*
X027463Y019711D02*
X034640Y019711D01*
X034640Y019809D02*
X027504Y019809D01*
X027513Y019908D02*
X034641Y019908D01*
X034641Y020007D02*
X027505Y020007D01*
X027464Y020105D02*
X034641Y020105D01*
X034641Y020204D02*
X027380Y020204D01*
X028431Y021791D02*
X028501Y021861D01*
X028841Y021861D01*
X032442Y019218D02*
X034639Y019218D01*
X034639Y019120D02*
X032489Y019120D01*
X034632Y016262D02*
X003371Y016262D01*
X003389Y016360D02*
X004074Y016360D01*
X003975Y016459D02*
X003413Y016459D01*
X003413Y016558D02*
X003931Y016558D01*
X003911Y016656D02*
X003413Y016656D01*
X003413Y016755D02*
X003911Y016755D01*
X003951Y016853D02*
X003413Y016853D01*
X003413Y016952D02*
X004024Y016952D01*
X004036Y016163D02*
X003413Y016163D01*
X003413Y016065D02*
X003956Y016065D01*
X003915Y015966D02*
X003413Y015966D01*
X003413Y015868D02*
X003911Y015868D01*
X003926Y015769D02*
X003413Y015769D01*
X003413Y015671D02*
X003966Y015671D01*
X004671Y015868D02*
X034631Y015868D01*
X034631Y015966D02*
X004667Y015966D01*
X004626Y016065D02*
X034632Y016065D01*
X034632Y016163D02*
X004546Y016163D01*
X004728Y015769D02*
X034631Y015769D01*
X031184Y011039D02*
X030928Y011039D01*
X031026Y010941D02*
X031086Y010941D01*
X030397Y011039D02*
X030140Y011039D01*
X030239Y010941D02*
X030298Y010941D01*
X029610Y011039D02*
X029353Y011039D01*
X029452Y010941D02*
X029511Y010941D01*
X028822Y011039D02*
X028566Y011039D01*
X028664Y010941D02*
X028724Y010941D01*
X028035Y011039D02*
X027778Y011039D01*
X027877Y010941D02*
X027936Y010941D01*
X027247Y011039D02*
X026991Y011039D01*
X027089Y010941D02*
X027149Y010941D01*
X026460Y011039D02*
X026203Y011039D01*
X026302Y010941D02*
X026361Y010941D01*
X026366Y010448D02*
X026297Y010448D01*
X026199Y010349D02*
X026464Y010349D01*
X026986Y010349D02*
X027252Y010349D01*
X027153Y010448D02*
X027085Y010448D01*
X027774Y010349D02*
X028039Y010349D01*
X027941Y010448D02*
X027872Y010448D01*
X028561Y010349D02*
X028827Y010349D01*
X028728Y010448D02*
X028660Y010448D01*
X029348Y010349D02*
X029614Y010349D01*
X029516Y010448D02*
X029447Y010448D01*
X030136Y010349D02*
X030401Y010349D01*
X030303Y010448D02*
X030234Y010448D01*
X030923Y010349D02*
X031189Y010349D01*
X031090Y010448D02*
X031022Y010448D01*
X025677Y010349D02*
X025411Y010349D01*
X025510Y010448D02*
X025579Y010448D01*
X024890Y010349D02*
X024651Y010349D01*
X024739Y010448D02*
X024791Y010448D01*
X024392Y010448D02*
X024334Y010448D01*
X024334Y010546D02*
X024392Y010546D01*
X024392Y010645D02*
X024334Y010645D01*
X024334Y010743D02*
X024392Y010743D01*
X024392Y010842D02*
X024334Y010842D01*
X024334Y010941D02*
X024392Y010941D01*
X024392Y011039D02*
X024334Y011039D01*
X024069Y011039D02*
X000551Y011039D01*
X000551Y010941D02*
X023984Y010941D01*
X023937Y010842D02*
X000551Y010842D01*
X000551Y010743D02*
X023915Y010743D01*
X023916Y010645D02*
X000551Y010645D01*
X000551Y010546D02*
X023939Y010546D01*
X023988Y010448D02*
X000551Y010448D01*
X000551Y010349D02*
X024075Y010349D01*
X024334Y010349D02*
X024392Y010349D01*
X024742Y010941D02*
X024787Y010941D01*
X024885Y011039D02*
X024657Y011039D01*
X025416Y011039D02*
X025673Y011039D01*
X025574Y010941D02*
X025515Y010941D01*
X021222Y006506D02*
X019771Y006506D01*
X019771Y006408D02*
X021135Y006408D01*
X021094Y006309D02*
X019771Y006309D01*
X019771Y006210D02*
X021093Y006210D01*
X021119Y006112D02*
X019771Y006112D01*
X019771Y006013D02*
X021184Y006013D01*
X024639Y002367D02*
X024875Y002367D01*
X024782Y002269D02*
X024732Y002269D01*
X025426Y002367D02*
X025662Y002367D01*
X025569Y002269D02*
X025519Y002269D01*
X026214Y002367D02*
X026450Y002367D01*
X026357Y002269D02*
X026307Y002269D01*
X026287Y001776D02*
X026376Y001776D01*
X026475Y001677D02*
X026188Y001677D01*
X025687Y001677D02*
X025401Y001677D01*
X025500Y001776D02*
X025589Y001776D01*
X024900Y001677D02*
X024614Y001677D01*
X024712Y001776D02*
X024802Y001776D01*
X023933Y002072D02*
X021800Y002072D01*
X021660Y002170D02*
X023954Y002170D01*
X021907Y001480D02*
X034592Y001480D01*
X034574Y001382D02*
X021847Y001382D01*
X021746Y001283D02*
X034547Y001283D01*
X034510Y001185D02*
X034442Y001060D01*
X034357Y000946D01*
X034256Y000845D01*
X034141Y000760D01*
X034016Y000691D01*
X033883Y000641D01*
X033743Y000611D01*
X033601Y000601D01*
X001601Y000601D01*
X001458Y000611D01*
X001319Y000641D01*
X001185Y000691D01*
X001184Y000692D02*
X034018Y000692D01*
X034183Y000791D02*
X001019Y000791D01*
X000902Y000889D02*
X034300Y000889D01*
X034388Y000988D02*
X000814Y000988D01*
X000745Y001086D02*
X034456Y001086D01*
X031199Y001677D02*
X030913Y001677D01*
X031011Y001776D02*
X031101Y001776D01*
X030412Y001677D02*
X030125Y001677D01*
X030224Y001776D02*
X030313Y001776D01*
X029624Y001677D02*
X029338Y001677D01*
X029437Y001776D02*
X029526Y001776D01*
X028837Y001677D02*
X028551Y001677D01*
X028649Y001776D02*
X028739Y001776D01*
X028300Y002035D02*
X028300Y003006D01*
X027246Y004061D01*
X027237Y002367D02*
X027001Y002367D01*
X027094Y002269D02*
X027144Y002269D01*
X027789Y002367D02*
X028024Y002367D01*
X027932Y002269D02*
X027881Y002269D01*
X028576Y002367D02*
X028812Y002367D01*
X028719Y002269D02*
X028669Y002269D01*
X029363Y002367D02*
X029599Y002367D01*
X029506Y002269D02*
X029456Y002269D01*
X030151Y002367D02*
X030387Y002367D01*
X030294Y002269D02*
X030244Y002269D01*
X030938Y002367D02*
X031174Y002367D01*
X031081Y002269D02*
X031031Y002269D01*
X028050Y001677D02*
X027763Y001677D01*
X027862Y001776D02*
X027951Y001776D01*
X027262Y001677D02*
X026976Y001677D01*
X027074Y001776D02*
X027164Y001776D01*
X021486Y001776D02*
X021386Y001776D01*
X021386Y001875D02*
X021486Y001875D01*
X021486Y001973D02*
X021386Y001973D01*
X021386Y002072D02*
X021486Y002072D01*
X021486Y002170D02*
X021386Y002170D01*
X021212Y002170D02*
X000596Y002170D01*
X000597Y002072D02*
X021071Y002072D01*
X020991Y001973D02*
X020954Y001900D01*
X020921Y001776D02*
X000599Y001776D01*
X000609Y001480D02*
X020964Y001480D01*
X020954Y001501D02*
X020991Y001428D01*
X021039Y001362D01*
X021097Y001304D01*
X021163Y001256D01*
X021236Y001219D01*
X021314Y001194D01*
X021386Y001182D01*
X021370Y001185D02*
X000691Y001185D01*
X000655Y001283D02*
X021126Y001283D01*
X021025Y001382D02*
X000628Y001382D01*
X002383Y002367D02*
X002839Y002367D01*
X002734Y002466D02*
X002488Y002466D01*
X002556Y002564D02*
X002665Y002564D01*
X002625Y002663D02*
X002597Y002663D01*
X002611Y002761D02*
X002611Y002761D01*
X002611Y002860D02*
X002611Y002860D01*
X002585Y002959D02*
X002637Y002959D01*
X002678Y003057D02*
X002544Y003057D01*
X002458Y003156D02*
X002764Y003156D01*
X002911Y003254D02*
X002311Y003254D01*
X000551Y013306D02*
X012572Y013306D01*
X012508Y013404D02*
X000551Y013404D01*
X000551Y013503D02*
X012483Y013503D01*
X012485Y013601D02*
X000551Y013601D01*
X000551Y013700D02*
X012526Y013700D01*
X012614Y013798D02*
X000551Y013798D01*
X000551Y013897D02*
X013718Y013897D01*
X013854Y013995D02*
X000551Y013995D01*
X002997Y014784D02*
X003055Y014784D01*
X003055Y014882D02*
X002997Y014882D01*
X002997Y014981D02*
X003055Y014981D01*
X003055Y015079D02*
X002997Y015079D01*
X003433Y014981D02*
X003903Y014981D01*
X003942Y014882D02*
X003433Y014882D01*
X003410Y014784D02*
X004022Y014784D01*
X004679Y015178D02*
X008395Y015178D01*
X008412Y015671D02*
X004826Y015671D01*
X016321Y019266D02*
X016386Y019331D01*
X016321Y019266D02*
X016321Y019521D01*
X016886Y018751D02*
X016816Y018681D01*
X016886Y018751D02*
X016706Y018611D01*
X018494Y021682D02*
X020646Y021682D01*
X020743Y021780D02*
X018461Y021780D01*
X018387Y021879D02*
X022530Y021879D01*
X022966Y020893D02*
X023446Y020893D01*
X023446Y020795D02*
X022966Y020795D01*
X022966Y020696D02*
X023446Y020696D01*
X023446Y020598D02*
X022966Y020598D01*
X022966Y020499D02*
X023176Y020499D01*
X023042Y020401D02*
X022966Y020401D01*
X022966Y020302D02*
X022990Y020302D01*
X022973Y020204D02*
X022966Y020204D01*
X022966Y020105D02*
X022983Y020105D01*
X022966Y020007D02*
X023026Y020007D01*
X050669Y027915D02*
X051169Y028415D01*
X052669Y028415D01*
X052669Y029415D02*
X056169Y032915D01*
X056169Y033694D01*
X053169Y032915D02*
X052669Y032915D01*
X052669Y031415D01*
X021486Y001480D02*
X021386Y001480D01*
X021386Y001382D02*
X021486Y001382D01*
X021486Y001283D02*
X021386Y001283D01*
X020954Y001501D02*
X020929Y001579D01*
D21*
X033101Y012501D03*
X033201Y014451D03*
X016401Y021951D03*
D22*
X018166Y021636D03*
X018616Y020136D03*
X018346Y019636D03*
X018106Y019171D03*
X019066Y018201D03*
X019391Y018571D03*
X020061Y019136D03*
X020371Y019886D03*
X020926Y021501D03*
X022786Y021671D03*
X023616Y021396D03*
X023301Y020196D03*
X023141Y019491D03*
X021386Y017916D03*
X020346Y017401D03*
X018346Y016806D03*
X016706Y018611D03*
X016321Y019521D03*
X015171Y019861D03*
X014606Y019491D03*
X015266Y018931D03*
X013056Y018996D03*
X012951Y020011D03*
X012356Y020296D03*
X011631Y020076D03*
X013476Y020681D03*
X013451Y021256D03*
X014226Y021121D03*
X014411Y020531D03*
X012956Y021981D03*
X012851Y022591D03*
X013091Y023726D03*
X012121Y024886D03*
X011661Y026391D03*
X013413Y027208D03*
X014141Y028746D03*
X015351Y029251D03*
X016466Y029241D03*
X018346Y026031D03*
X019236Y025411D03*
X019756Y024806D03*
X021576Y025371D03*
X027716Y024301D03*
X028431Y021791D03*
X025621Y017851D03*
X021686Y012156D03*
X021721Y008276D03*
X021711Y007561D03*
X021761Y006841D03*
X021421Y006241D03*
X022606Y006841D03*
X023166Y006261D03*
X023741Y006671D03*
X023956Y007376D03*
X019541Y007546D03*
X017176Y007791D03*
X015026Y005811D03*
X019328Y005449D03*
X027246Y004061D03*
X029711Y008036D03*
X028301Y009446D03*
X033001Y009946D03*
X013976Y013691D03*
X012811Y013531D03*
X008711Y014091D03*
X008621Y015416D03*
X008586Y016726D03*
X008586Y018001D03*
X008586Y019326D03*
X009951Y020621D03*
X008586Y020661D03*
X008586Y022011D03*
X013301Y017276D03*
X013491Y016096D03*
X012811Y010676D03*
X008856Y010741D03*
X003691Y030626D03*
D23*
X003656Y030661D01*
X003436Y030661D01*
X011466Y026306D02*
X011551Y026391D01*
X011661Y026391D01*
X013413Y027208D02*
X013413Y028018D01*
X014141Y028746D01*
X015351Y029251D02*
X016456Y029251D01*
X016466Y029241D01*
X018346Y026031D02*
X020916Y026031D01*
X021576Y025371D01*
X019756Y024891D02*
X019756Y024806D01*
X019756Y024891D02*
X019236Y025411D01*
X013356Y023511D02*
X013266Y023601D01*
X013091Y023726D01*
X012121Y024886D02*
X012136Y024916D01*
X012031Y024811D01*
X012956Y021981D02*
X012356Y021256D01*
X012356Y020296D01*
X013046Y018996D02*
X012896Y018846D01*
X013046Y018996D02*
X013056Y018996D01*
X013206Y017276D02*
X013106Y017176D01*
X013206Y017276D02*
X013301Y017276D01*
X013491Y016096D02*
X013846Y016096D01*
X008621Y015416D02*
X004756Y015416D01*
X004291Y015881D01*
X004291Y015081D02*
X005446Y014106D01*
X008711Y014091D01*
X008726Y010871D01*
X008856Y010741D01*
X012586Y010601D02*
X012666Y010521D01*
X016946Y007916D02*
X017051Y007916D01*
X017176Y007791D01*
X019541Y007546D02*
X019541Y005661D01*
X019328Y005449D01*
X021686Y012156D02*
X021686Y012271D01*
X008586Y016726D02*
X004336Y016726D01*
X004291Y016681D01*
X004291Y017481D02*
X008066Y017481D01*
X008586Y018001D01*
X007541Y018281D02*
X008586Y019326D01*
X009951Y019936D02*
X005146Y019936D01*
X004291Y019081D01*
X004291Y019881D02*
X005071Y020661D01*
X008586Y020661D01*
X009951Y020621D02*
X009951Y019936D01*
X008586Y022011D02*
X005621Y022011D01*
X004291Y020681D01*
X004291Y018281D02*
X007541Y018281D01*
X027566Y024766D02*
X027716Y024616D01*
X027716Y024301D01*
X042101Y022601D02*
X042207Y022494D01*
X042207Y018632D01*
X042994Y018632D02*
X042994Y022494D01*
X043101Y022601D01*
X039936Y011351D02*
X039936Y005904D01*
X042207Y003632D01*
X042994Y003632D02*
X042994Y007494D01*
X043101Y007601D01*
X053601Y011351D02*
X056207Y008744D01*
X056207Y003632D01*
X056994Y003632D02*
X056994Y008744D01*
X059601Y011351D01*
D24*
X033001Y009946D02*
X032936Y009946D01*
X032776Y009786D01*
X029711Y008036D02*
X028301Y009446D01*
X012821Y010331D02*
X012821Y010666D01*
X012811Y010676D01*
D25*
X019876Y017871D02*
X020346Y017401D01*
X019876Y017871D02*
X019876Y018811D01*
X018626Y020061D01*
X018616Y020136D01*
X018346Y019636D02*
X018346Y019616D01*
X019391Y018571D01*
X019066Y018201D02*
X018106Y019161D01*
X018106Y019171D01*
X020061Y019136D02*
X020371Y019446D01*
X020371Y019886D01*
X020926Y021501D02*
X018301Y021501D01*
X018166Y021636D01*
X015266Y019766D02*
X015266Y019716D01*
X015266Y018931D01*
X014606Y019491D02*
X014606Y020336D01*
X014566Y020376D01*
X014411Y020531D01*
X014226Y021121D02*
X013786Y020681D01*
X013476Y020681D01*
X012951Y020756D02*
X012951Y020011D01*
X012951Y020756D02*
X013451Y021256D01*
X012851Y022591D02*
X011631Y021371D01*
X011631Y020076D01*
X015171Y019861D02*
X015266Y019766D01*
X023301Y020196D02*
X023616Y020511D01*
X023616Y021396D01*
D26*
X036901Y026901D02*
X036951Y035501D01*
X048101Y035501D01*
X048101Y026901D01*
X036901Y026901D01*
X036902Y027053D02*
X048101Y027053D01*
X048101Y027212D02*
X036903Y027212D01*
X036904Y027370D02*
X048101Y027370D01*
X048101Y027529D02*
X036904Y027529D01*
X036905Y027687D02*
X048101Y027687D01*
X048101Y027846D02*
X036906Y027846D01*
X036907Y028004D02*
X048101Y028004D01*
X048101Y028163D02*
X042558Y028163D01*
X042651Y028201D02*
X042800Y028351D01*
X042881Y028545D01*
X042881Y028756D01*
X042800Y028951D01*
X042651Y029100D01*
X042456Y029181D01*
X042245Y029181D01*
X042051Y029100D01*
X041901Y028951D01*
X041851Y028829D01*
X041800Y028951D01*
X041651Y029100D01*
X041456Y029181D01*
X041245Y029181D01*
X041051Y029100D01*
X040901Y028951D01*
X040821Y028756D01*
X040821Y028545D01*
X040901Y028351D01*
X041051Y028201D01*
X041245Y028121D01*
X041456Y028121D01*
X041651Y028201D01*
X041800Y028351D01*
X041851Y028473D01*
X041901Y028351D01*
X042051Y028201D01*
X042245Y028121D01*
X042456Y028121D01*
X042651Y028201D01*
X042771Y028321D02*
X048101Y028321D01*
X048101Y028480D02*
X042854Y028480D01*
X042881Y028639D02*
X048101Y028639D01*
X048101Y028797D02*
X042864Y028797D01*
X042795Y028956D02*
X048101Y028956D01*
X048101Y029114D02*
X042617Y029114D01*
X042085Y029114D02*
X041617Y029114D01*
X041795Y028956D02*
X041906Y028956D01*
X041931Y028321D02*
X041771Y028321D01*
X041558Y028163D02*
X042144Y028163D01*
X041144Y028163D02*
X036908Y028163D01*
X036909Y028321D02*
X040931Y028321D01*
X040848Y028480D02*
X036910Y028480D01*
X036911Y028639D02*
X040821Y028639D01*
X040838Y028797D02*
X036912Y028797D01*
X036913Y028956D02*
X040906Y028956D01*
X041085Y029114D02*
X036914Y029114D01*
X036915Y029273D02*
X048101Y029273D01*
X048101Y029431D02*
X036915Y029431D01*
X036916Y029590D02*
X048101Y029590D01*
X048101Y029748D02*
X036917Y029748D01*
X036918Y029907D02*
X048101Y029907D01*
X048101Y030065D02*
X036919Y030065D01*
X036920Y030224D02*
X048101Y030224D01*
X048101Y030383D02*
X036921Y030383D01*
X036922Y030541D02*
X041319Y030541D01*
X041342Y030518D02*
X041248Y030612D01*
X041248Y031630D01*
X041342Y031724D01*
X042360Y031724D01*
X042454Y031630D01*
X042454Y030612D01*
X042360Y030518D01*
X041342Y030518D01*
X041248Y030700D02*
X036923Y030700D01*
X036924Y030858D02*
X041248Y030858D01*
X041248Y031017D02*
X036925Y031017D01*
X036926Y031175D02*
X041248Y031175D01*
X041248Y031334D02*
X036927Y031334D01*
X036927Y031492D02*
X041248Y031492D01*
X041268Y031651D02*
X036928Y031651D01*
X036929Y031809D02*
X048101Y031809D01*
X048101Y031651D02*
X042433Y031651D01*
X042454Y031492D02*
X048101Y031492D01*
X048101Y031334D02*
X042454Y031334D01*
X042454Y031175D02*
X048101Y031175D01*
X048101Y031017D02*
X042454Y031017D01*
X042454Y030858D02*
X048101Y030858D01*
X048101Y030700D02*
X042454Y030700D01*
X042383Y030541D02*
X048101Y030541D01*
X048101Y031968D02*
X036930Y031968D01*
X036931Y032127D02*
X048101Y032127D01*
X048101Y032285D02*
X036932Y032285D01*
X036933Y032444D02*
X048101Y032444D01*
X048101Y032602D02*
X040115Y032602D01*
X040134Y032622D02*
X040175Y032678D01*
X040206Y032739D01*
X040227Y032805D01*
X040238Y032873D01*
X040238Y032907D01*
X039801Y032907D01*
X039801Y032907D01*
X040238Y032907D01*
X040238Y032941D01*
X040227Y033010D01*
X040206Y033075D01*
X040175Y033136D01*
X040134Y033192D01*
X040086Y033241D01*
X040030Y033281D01*
X039969Y033312D01*
X040037Y033341D01*
X040155Y033458D01*
X040218Y033611D01*
X040218Y033778D01*
X040155Y033931D01*
X040037Y034048D01*
X039884Y034112D01*
X039718Y034112D01*
X039564Y034048D01*
X039447Y033931D01*
X039383Y033778D01*
X039383Y033611D01*
X039447Y033458D01*
X039564Y033341D01*
X039633Y033312D01*
X039571Y033281D01*
X039516Y033241D01*
X039467Y033192D01*
X039427Y033136D01*
X039395Y033075D01*
X039374Y033010D01*
X039363Y032941D01*
X039363Y032907D01*
X039363Y032873D01*
X039374Y032805D01*
X039395Y032739D01*
X039427Y032678D01*
X039467Y032622D01*
X039516Y032573D01*
X039571Y032533D01*
X039633Y032502D01*
X039698Y032480D01*
X039766Y032470D01*
X039801Y032470D01*
X039835Y032470D01*
X039903Y032480D01*
X039969Y032502D01*
X040030Y032533D01*
X040086Y032573D01*
X040134Y032622D01*
X040213Y032761D02*
X048101Y032761D01*
X048101Y032919D02*
X040238Y032919D01*
X040205Y033078D02*
X041341Y033078D01*
X041342Y033077D02*
X041248Y033171D01*
X041248Y034189D01*
X041342Y034283D01*
X042360Y034283D01*
X042454Y034189D01*
X042454Y033171D01*
X042360Y033077D01*
X041342Y033077D01*
X041248Y033236D02*
X040090Y033236D01*
X040092Y033395D02*
X041248Y033395D01*
X041248Y033553D02*
X040194Y033553D01*
X040218Y033712D02*
X041248Y033712D01*
X041248Y033871D02*
X040180Y033871D01*
X040057Y034029D02*
X041248Y034029D01*
X041248Y034188D02*
X036943Y034188D01*
X036944Y034346D02*
X048101Y034346D01*
X048101Y034188D02*
X042454Y034188D01*
X042454Y034029D02*
X048101Y034029D01*
X048101Y033871D02*
X042454Y033871D01*
X042454Y033712D02*
X048101Y033712D01*
X048101Y033553D02*
X042454Y033553D01*
X042454Y033395D02*
X048101Y033395D01*
X048101Y033236D02*
X042454Y033236D01*
X042360Y033078D02*
X048101Y033078D01*
X046651Y033501D02*
X046651Y033801D01*
X046401Y033801D01*
X048101Y034505D02*
X036945Y034505D01*
X036946Y034663D02*
X048101Y034663D01*
X048101Y034822D02*
X036947Y034822D01*
X036948Y034980D02*
X048101Y034980D01*
X048101Y035139D02*
X036949Y035139D01*
X036950Y035297D02*
X048101Y035297D01*
X048101Y035456D02*
X036951Y035456D01*
X036942Y034029D02*
X039545Y034029D01*
X039422Y033871D02*
X036941Y033871D01*
X036940Y033712D02*
X039383Y033712D01*
X039407Y033553D02*
X036939Y033553D01*
X036939Y033395D02*
X039510Y033395D01*
X039511Y033236D02*
X036938Y033236D01*
X036937Y033078D02*
X039397Y033078D01*
X039363Y032919D02*
X036936Y032919D01*
X036935Y032761D02*
X039388Y032761D01*
X039363Y032907D02*
X039800Y032907D01*
X039800Y032907D01*
X039363Y032907D01*
X039487Y032602D02*
X036934Y032602D01*
X038151Y031251D02*
X038151Y030951D01*
X037851Y030951D01*
X039801Y032470D02*
X039801Y032907D01*
X039801Y032470D01*
X039801Y032602D02*
X039801Y032602D01*
X039801Y032761D02*
X039801Y032761D01*
X039801Y032907D02*
X039801Y032907D01*
X043351Y030101D02*
X043551Y030301D01*
X043651Y030301D01*
X047101Y028001D02*
X047201Y028001D01*
X047201Y027651D01*
X049634Y027095D02*
X049634Y035248D01*
X049634Y035348D02*
X058720Y035348D01*
X058720Y027095D01*
X049634Y027095D01*
X055601Y017351D02*
X056851Y017351D01*
X055351Y016851D02*
X059101Y016601D01*
D27*
X059101Y016601D03*
X056851Y017351D03*
X055601Y017351D03*
X055351Y016851D03*
X047101Y028001D03*
X043651Y030301D03*
X037851Y030951D03*
X046401Y033801D03*
D28*
X052669Y031415D03*
X052669Y029415D03*
X052669Y028415D03*
X050669Y027915D03*
M02*
