G04 (created by PCBNEW (2013-05-31 BZR 4019)-stable) date 7/10/2013 3:54:15 PM*
%MOIN*%
G04 Gerber Fmt 3.4, Leading zero omitted, Abs format*
%FSLAX34Y34*%
G01*
G70*
G90*
G04 APERTURE LIST*
%ADD10C,0.00590551*%
%ADD11R,0.0590551X0.011811*%
%ADD12R,0.011811X0.0590551*%
%ADD13R,0.025X0.045*%
%ADD14R,0.045X0.025*%
%ADD15R,0.06X0.06*%
%ADD16C,0.06*%
%ADD17R,0.023622X0.0531496*%
%ADD18R,0.0472441X0.0787402*%
%ADD19R,0.0787X0.0157*%
G04 APERTURE END LIST*
G54D10*
G54D11*
X24055Y-20973D03*
X24055Y-21170D03*
X24055Y-21367D03*
X24055Y-21564D03*
X24055Y-21761D03*
X24055Y-21957D03*
X24055Y-22154D03*
X24055Y-22351D03*
X24055Y-22548D03*
X24055Y-22745D03*
X24055Y-22942D03*
X24055Y-23138D03*
X24055Y-23335D03*
X24055Y-23532D03*
X24055Y-23729D03*
X24055Y-23926D03*
G54D12*
X24823Y-24694D03*
X25020Y-24694D03*
X25217Y-24694D03*
X25414Y-24694D03*
X25611Y-24694D03*
X25807Y-24694D03*
X26004Y-24694D03*
X26201Y-24694D03*
X26398Y-24694D03*
X26595Y-24694D03*
X26792Y-24694D03*
X26988Y-24694D03*
X27185Y-24694D03*
X27382Y-24694D03*
X27579Y-24694D03*
X27776Y-24694D03*
G54D11*
X28544Y-23926D03*
X28544Y-23729D03*
X28544Y-23532D03*
X28544Y-23335D03*
X28544Y-23138D03*
X28544Y-22942D03*
X28544Y-22745D03*
X28544Y-22548D03*
X28544Y-22351D03*
X28544Y-22154D03*
X28544Y-21957D03*
X28544Y-21761D03*
X28544Y-21564D03*
X28544Y-21367D03*
X28544Y-21170D03*
X28544Y-20973D03*
G54D12*
X27776Y-20205D03*
X27579Y-20205D03*
X27382Y-20205D03*
X27185Y-20205D03*
X26988Y-20205D03*
X26792Y-20205D03*
X26595Y-20205D03*
X26398Y-20205D03*
X26201Y-20205D03*
X26004Y-20205D03*
X25807Y-20205D03*
X25611Y-20205D03*
X25414Y-20205D03*
X25217Y-20205D03*
X25020Y-20205D03*
X24823Y-20205D03*
G54D13*
X25100Y-33450D03*
X24500Y-33450D03*
G54D14*
X30900Y-23700D03*
X30900Y-23100D03*
G54D15*
X24700Y-35250D03*
G54D16*
X25700Y-35250D03*
X26700Y-35250D03*
X27700Y-35250D03*
X28700Y-35250D03*
G54D17*
X26103Y-31801D03*
X26496Y-31801D03*
G54D18*
X26772Y-33258D03*
X25827Y-33258D03*
G54D19*
X30000Y-23594D03*
X30000Y-23200D03*
X30000Y-22806D03*
G54D16*
X20600Y-22050D03*
X20600Y-30050D03*
X20600Y-28050D03*
X20600Y-26050D03*
X20600Y-24050D03*
X20600Y-37050D03*
X20600Y-35050D03*
X20600Y-33050D03*
X20600Y-31050D03*
X20600Y-29050D03*
X20600Y-36050D03*
X20600Y-27050D03*
X20600Y-34050D03*
X20600Y-25050D03*
X20600Y-32050D03*
X20600Y-23050D03*
G54D15*
X20600Y-6050D03*
G54D16*
X20600Y-7050D03*
X20600Y-16050D03*
X20600Y-9050D03*
X20600Y-18050D03*
X20600Y-11050D03*
X20600Y-20050D03*
X20600Y-13050D03*
X20600Y-15050D03*
X20600Y-17050D03*
X20600Y-19050D03*
X20600Y-21050D03*
X20600Y-8050D03*
X20600Y-10050D03*
X20600Y-12050D03*
X20600Y-14050D03*
G54D15*
X33100Y-37050D03*
G54D16*
X33100Y-36050D03*
X33100Y-27050D03*
X33100Y-34050D03*
X33100Y-25050D03*
X33100Y-32050D03*
X33100Y-23050D03*
X33100Y-30050D03*
X33100Y-21050D03*
X33100Y-28050D03*
X33100Y-19050D03*
X33100Y-26050D03*
X33100Y-17050D03*
X33100Y-24050D03*
X33100Y-15050D03*
X33100Y-22050D03*
X33100Y-13050D03*
X33100Y-20050D03*
X33100Y-11050D03*
X33100Y-18050D03*
X33100Y-9050D03*
X33100Y-16050D03*
X33100Y-7050D03*
X33100Y-14050D03*
X33100Y-12050D03*
X33100Y-10050D03*
X33100Y-6050D03*
X33100Y-35050D03*
X33100Y-33050D03*
X33100Y-31050D03*
X33100Y-29050D03*
X33100Y-8050D03*
M02*
