G04 (created by PCBNEW (2013-05-31 BZR 4019)-stable) date 7/10/2013 3:54:15 PM*
%MOIN*%
G04 Gerber Fmt 3.4, Leading zero omitted, Abs format*
%FSLAX34Y34*%
G01*
G70*
G90*
G04 APERTURE LIST*
%ADD10C,0.00590551*%
%ADD11R,0.025X0.045*%
%ADD12R,0.045X0.025*%
%ADD13R,0.06X0.06*%
%ADD14C,0.06*%
%ADD15C,0.04*%
%ADD16C,0.007*%
G04 APERTURE END LIST*
G54D10*
G54D11*
X26900Y-20150D03*
X26300Y-20150D03*
X24600Y-24650D03*
X25200Y-24650D03*
G54D12*
X23700Y-22350D03*
X23700Y-22950D03*
G54D11*
X25800Y-24650D03*
X26400Y-24650D03*
X24800Y-20150D03*
X25400Y-20150D03*
G54D12*
X28150Y-22750D03*
X28150Y-22150D03*
G54D13*
X24700Y-35250D03*
G54D14*
X25700Y-35250D03*
X26700Y-35250D03*
X27700Y-35250D03*
X28700Y-35250D03*
X20600Y-22050D03*
X20600Y-30050D03*
X20600Y-28050D03*
X20600Y-26050D03*
X20600Y-24050D03*
X20600Y-37050D03*
X20600Y-35050D03*
X20600Y-33050D03*
X20600Y-31050D03*
X20600Y-29050D03*
X20600Y-36050D03*
X20600Y-27050D03*
X20600Y-34050D03*
X20600Y-25050D03*
X20600Y-32050D03*
X20600Y-23050D03*
G54D13*
X20600Y-6050D03*
G54D14*
X20600Y-7050D03*
X20600Y-16050D03*
X20600Y-9050D03*
X20600Y-18050D03*
X20600Y-11050D03*
X20600Y-20050D03*
X20600Y-13050D03*
X20600Y-15050D03*
X20600Y-17050D03*
X20600Y-19050D03*
X20600Y-21050D03*
X20600Y-8050D03*
X20600Y-10050D03*
X20600Y-12050D03*
X20600Y-14050D03*
G54D13*
X33100Y-37050D03*
G54D14*
X33100Y-36050D03*
X33100Y-27050D03*
X33100Y-34050D03*
X33100Y-25050D03*
X33100Y-32050D03*
X33100Y-23050D03*
X33100Y-30050D03*
X33100Y-21050D03*
X33100Y-28050D03*
X33100Y-19050D03*
X33100Y-26050D03*
X33100Y-17050D03*
X33100Y-24050D03*
X33100Y-15050D03*
X33100Y-22050D03*
X33100Y-13050D03*
X33100Y-20050D03*
X33100Y-11050D03*
X33100Y-18050D03*
X33100Y-9050D03*
X33100Y-16050D03*
X33100Y-7050D03*
X33100Y-14050D03*
X33100Y-12050D03*
X33100Y-10050D03*
X33100Y-6050D03*
X33100Y-35050D03*
X33100Y-33050D03*
X33100Y-31050D03*
X33100Y-29050D03*
X33100Y-8050D03*
G54D15*
X24950Y-20900D03*
X27350Y-34050D03*
X25550Y-23850D03*
X29200Y-22900D03*
X27500Y-22150D03*
X30750Y-25050D03*
X31050Y-29600D03*
X30500Y-29650D03*
X30700Y-26150D03*
X30050Y-29350D03*
X30200Y-25700D03*
X27750Y-23800D03*
X29650Y-26250D03*
X31750Y-30600D03*
X30650Y-30500D03*
X30650Y-31700D03*
X27800Y-29100D03*
X28550Y-28250D03*
X27450Y-21600D03*
X32200Y-20650D03*
X26200Y-22600D03*
X30850Y-24300D03*
X25700Y-21750D03*
X26100Y-21250D03*
X23500Y-24150D03*
X23250Y-24900D03*
X23650Y-31400D03*
X23050Y-32050D03*
X22650Y-24300D03*
X24500Y-32550D03*
X29750Y-30150D03*
X24700Y-23650D03*
X27650Y-23250D03*
X23450Y-33150D03*
X26700Y-23950D03*
X24700Y-22950D03*
X25600Y-21050D03*
G54D16*
X24550Y-20900D02*
X24550Y-22350D01*
X24550Y-20900D02*
X24950Y-20900D01*
X24800Y-20150D02*
X24800Y-20250D01*
X24550Y-20500D02*
X24550Y-20900D01*
X24800Y-20250D02*
X24550Y-20500D01*
X27500Y-22150D02*
X25050Y-22150D01*
X25050Y-22150D02*
X25000Y-22150D01*
X25000Y-22150D02*
X24800Y-22350D01*
X25800Y-24650D02*
X25800Y-29200D01*
X27350Y-30750D02*
X27350Y-34050D01*
X25800Y-29200D02*
X27350Y-30750D01*
X25800Y-24650D02*
X25800Y-24100D01*
X25800Y-24100D02*
X25550Y-23850D01*
X25550Y-23850D02*
X25200Y-23500D01*
X26900Y-20150D02*
X26900Y-19650D01*
X24600Y-20150D02*
X24800Y-20150D01*
X24300Y-19850D02*
X24600Y-20150D01*
X24300Y-19650D02*
X24300Y-19850D01*
X24800Y-19150D02*
X24300Y-19650D01*
X26400Y-19150D02*
X24800Y-19150D01*
X26900Y-19650D02*
X26400Y-19150D01*
X26900Y-21550D02*
X27500Y-22150D01*
X26900Y-21250D02*
X26900Y-21550D01*
X27025Y-21125D02*
X26900Y-21250D01*
X28775Y-21125D02*
X27025Y-21125D01*
X29200Y-21550D02*
X28775Y-21125D01*
X29200Y-22900D02*
X29200Y-21550D01*
X27500Y-22150D02*
X28150Y-22150D01*
X25200Y-23850D02*
X25200Y-23500D01*
X25200Y-24650D02*
X25200Y-23850D01*
X25200Y-23500D02*
X25200Y-22750D01*
X24800Y-22350D02*
X24550Y-22350D01*
X24550Y-22350D02*
X24500Y-22350D01*
X23700Y-22350D02*
X24500Y-22350D01*
X25200Y-22750D02*
X24800Y-22350D01*
X30750Y-25050D02*
X31050Y-25350D01*
X31050Y-25350D02*
X31050Y-29600D01*
X30500Y-26350D02*
X30500Y-29650D01*
X30700Y-26150D02*
X30500Y-26350D01*
X30050Y-25850D02*
X30050Y-29350D01*
X30200Y-25700D02*
X30050Y-25850D01*
X27750Y-23800D02*
X29650Y-25700D01*
X29650Y-25700D02*
X29650Y-26250D01*
X31750Y-30600D02*
X31650Y-30500D01*
X31650Y-30500D02*
X30650Y-30500D01*
X30650Y-31700D02*
X30650Y-32400D01*
X30650Y-32400D02*
X30650Y-33550D01*
X30650Y-33550D02*
X33100Y-36000D01*
X27800Y-29000D02*
X27800Y-29100D01*
X28550Y-28250D02*
X27800Y-29000D01*
X33100Y-25050D02*
X31450Y-25050D01*
X27650Y-21800D02*
X27450Y-21600D01*
X28600Y-21800D02*
X27650Y-21800D01*
X28700Y-21900D02*
X28600Y-21800D01*
X28700Y-23550D02*
X28700Y-21900D01*
X29800Y-24650D02*
X28700Y-23550D01*
X31050Y-24650D02*
X29800Y-24650D01*
X31450Y-25050D02*
X31050Y-24650D01*
X32350Y-22300D02*
X33100Y-23050D01*
X32350Y-20800D02*
X32350Y-22300D01*
X32200Y-20650D02*
X32350Y-20800D01*
X30200Y-30000D02*
X33100Y-30000D01*
X29950Y-29750D02*
X30200Y-30000D01*
X27650Y-29750D02*
X29950Y-29750D01*
X27050Y-29150D02*
X27650Y-29750D01*
X27050Y-23450D02*
X27050Y-29150D01*
X26200Y-22600D02*
X27050Y-23450D01*
X31500Y-23650D02*
X30850Y-24300D01*
X31500Y-21800D02*
X31500Y-23650D01*
X30250Y-20550D02*
X31500Y-21800D01*
X27200Y-20550D02*
X30250Y-20550D01*
X26700Y-21050D02*
X27200Y-20550D01*
X26700Y-21350D02*
X26700Y-21050D01*
X26450Y-21600D02*
X26700Y-21350D01*
X25850Y-21600D02*
X26450Y-21600D01*
X25700Y-21750D02*
X25850Y-21600D01*
X26300Y-21050D02*
X26300Y-20150D01*
X26100Y-21250D02*
X26300Y-21050D01*
X23000Y-23450D02*
X20600Y-21050D01*
X23000Y-23650D02*
X23000Y-23450D01*
X23500Y-24150D02*
X23000Y-23650D01*
X23250Y-31000D02*
X23250Y-24900D01*
X23650Y-31400D02*
X23250Y-31000D01*
X23050Y-32050D02*
X22650Y-31650D01*
X22650Y-31650D02*
X22650Y-24300D01*
X21400Y-12850D02*
X20600Y-12050D01*
X21400Y-21450D02*
X21400Y-12850D01*
X24000Y-24050D02*
X21400Y-21450D01*
X24000Y-32050D02*
X24000Y-24050D01*
X24500Y-32550D02*
X24000Y-32050D01*
X31600Y-32000D02*
X33100Y-32000D01*
X29750Y-30150D02*
X31600Y-32000D01*
X27800Y-22750D02*
X28150Y-22750D01*
X27600Y-22950D02*
X27800Y-22750D01*
X27600Y-23200D02*
X27600Y-22950D01*
X27650Y-23250D02*
X27600Y-23200D01*
X21350Y-31050D02*
X20600Y-31050D01*
X23450Y-33150D02*
X21350Y-31050D01*
X26400Y-24250D02*
X26700Y-23950D01*
X26400Y-24650D02*
X26400Y-24250D01*
X24700Y-23650D02*
X24700Y-22950D01*
X24600Y-23750D02*
X24700Y-23650D01*
X25400Y-20850D02*
X25600Y-21050D01*
X25400Y-20150D02*
X25400Y-20850D01*
X24600Y-24650D02*
X24600Y-23750D01*
X23700Y-22950D02*
X24700Y-22950D01*
M02*
