G04 (created by PCBNEW (2013-05-31 BZR 4019)-stable) date 7/11/2013 3:51:15 PM*
%MOIN*%
G04 Gerber Fmt 3.4, Leading zero omitted, Abs format*
%FSLAX34Y34*%
G01*
G70*
G90*
G04 APERTURE LIST*
%ADD10C,0.00590551*%
%ADD11R,0.025X0.045*%
%ADD12R,0.045X0.025*%
%ADD13R,0.06X0.06*%
%ADD14C,0.06*%
G04 APERTURE END LIST*
G54D10*
G54D11*
X26900Y-20150D03*
X26300Y-20150D03*
X24600Y-24650D03*
X25200Y-24650D03*
G54D12*
X23700Y-22350D03*
X23700Y-22950D03*
G54D11*
X25800Y-24650D03*
X26400Y-24650D03*
X24800Y-20150D03*
X25400Y-20150D03*
G54D12*
X28150Y-22750D03*
X28150Y-22150D03*
G54D13*
X24700Y-35250D03*
G54D14*
X25700Y-35250D03*
X26700Y-35250D03*
X27700Y-35250D03*
X28700Y-35250D03*
X20600Y-22050D03*
X20600Y-30050D03*
X20600Y-28050D03*
X20600Y-26050D03*
X20600Y-24050D03*
X20600Y-37050D03*
X20600Y-35050D03*
X20600Y-33050D03*
X20600Y-31050D03*
X20600Y-29050D03*
X20600Y-36050D03*
X20600Y-27050D03*
X20600Y-34050D03*
X20600Y-25050D03*
X20600Y-32050D03*
X20600Y-23050D03*
G54D13*
X20600Y-6050D03*
G54D14*
X20600Y-7050D03*
X20600Y-16050D03*
X20600Y-9050D03*
X20600Y-18050D03*
X20600Y-11050D03*
X20600Y-20050D03*
X20600Y-13050D03*
X20600Y-15050D03*
X20600Y-17050D03*
X20600Y-19050D03*
X20600Y-21050D03*
X20600Y-8050D03*
X20600Y-10050D03*
X20600Y-12050D03*
X20600Y-14050D03*
G54D13*
X33100Y-37050D03*
G54D14*
X33100Y-36050D03*
X33100Y-27050D03*
X33100Y-34050D03*
X33100Y-25050D03*
X33100Y-32050D03*
X33100Y-23050D03*
X33100Y-30050D03*
X33100Y-21050D03*
X33100Y-28050D03*
X33100Y-19050D03*
X33100Y-26050D03*
X33100Y-17050D03*
X33100Y-24050D03*
X33100Y-15050D03*
X33100Y-22050D03*
X33100Y-13050D03*
X33100Y-20050D03*
X33100Y-11050D03*
X33100Y-18050D03*
X33100Y-9050D03*
X33100Y-16050D03*
X33100Y-7050D03*
X33100Y-14050D03*
X33100Y-12050D03*
X33100Y-10050D03*
X33100Y-6050D03*
X33100Y-35050D03*
X33100Y-33050D03*
X33100Y-31050D03*
X33100Y-29050D03*
X33100Y-8050D03*
M02*
