  0
SECTION
  2
HEADER
  9
$ACADVER
  1
AC1015
  9
$ACADMAINTVER
 70
     6
  9
$DWGCODEPAGE
  3
ANSI_1252
  9
$INSBASE
 10
0.0
 20
0.0
 30
0.0
  9
$EXTMIN
 10
0.0
 20
0.0
 30
0.0
  9
$EXTMAX
 10
14.0
 20
12.0
 30
0.0
  9
$LIMMIN
 10
0.0
 20
0.0
  9
$LIMMAX
 10
14.0
 20
12.0
  9
$ORTHOMODE
 70
     0
  9
$REGENMODE
 70
     1
  9
$FILLMODE
 70
     1
  9
$QTEXTMODE
 70
     0
  9
$MIRRTEXT
 70
     1
  9
$LTSCALE
 40
1.0
  9
$ATTMODE
 70
     1
  9
$TEXTSIZE
 40
0.1666666667
  9
$TRACEWID
 40
0.05
  9
$TEXTSTYLE
  7
Standard
  9
$CLAYER
  8
0
  9
$CELTYPE
  6
ByLayer
  9
$CECOLOR
 62
   256
  9
$CELTSCALE
 40
1.0
  9
$DISPSILH
 70
     0
  9
$DIMSCALE
 40
1.0
  9
$DIMASZ
 40
0.12
  9
$DIMEXO
 40
0.05
  9
$DIMDLI
 40
0.38
  9
$DIMRND
 40
0.0
  9
$DIMDLE
 40
0.0
  9
$DIMEXE
 40
0.125
  9
$DIMTP
 40
0.0
  9
$DIMTM
 40
0.0
  9
$DIMTXT
 40
0.1666666667
  9
$DIMCEN
 40
0.09
  9
$DIMTSZ
 40
0.0
  9
$DIMTOL
 70
     0
  9
$DIMLIM
 70
     0
  9
$DIMTIH
 70
     1
  9
$DIMTOH
 70
     1
  9
$DIMSE1
 70
     0
  9
$DIMSE2
 70
     0
  9
$DIMTAD
 70
     0
  9
$DIMZIN
 70
     0
  9
$DIMBLK
  1

  9
$DIMASO
 70
     1
  9
$DIMSHO
 70
     1
  9
$DIMPOST
  1

  9
$DIMAPOST
  1

  9
$DIMALT
 70
     0
  9
$DIMALTD
 70
     2
  9
$DIMALTF
 40
25.4
  9
$DIMLFAC
 40
1.0
  9
$DIMTOFL
 70
     0
  9
$DIMTVP
 40
0.0
  9
$DIMTIX
 70
     0
  9
$DIMSOXD
 70
     0
  9
$DIMSAH
 70
     0
  9
$DIMBLK1
  1

  9
$DIMBLK2
  1

  9
$DIMSTYLE
  2
Standard
  9
$DIMCLRD
 70
     0
  9
$DIMCLRE
 70
     0
  9
$DIMCLRT
 70
     0
  9
$DIMTFAC
 40
1.0
  9
$DIMGAP
 40
0.06
  9
$DIMJUST
 70
     0
  9
$DIMSD1
 70
     0
  9
$DIMSD2
 70
     0
  9
$DIMTOLJ
 70
     1
  9
$DIMTZIN
 70
     0
  9
$DIMALTZ
 70
     0
  9
$DIMALTTZ
 70
     0
  9
$DIMUPT
 70
     0
  9
$DIMDEC
 70
     3
  9
$DIMTDEC
 70
     3
  9
$DIMALTU
 70
     2
  9
$DIMALTTD
 70
     2
  9
$DIMTXSTY
  7
Standard
  9
$DIMAUNIT
 70
     0
  9
$DIMADEC
 70
     1
  9
$DIMALTRND
 40
0.0
  9
$DIMAZIN
 70
     0
  9
$DIMDSEP
 70
    46
  9
$DIMATFIT
 70
     3
  9
$DIMFRAC
 70
     0
  9
$DIMLDRBLK
  1

  9
$DIMLUNIT
 70
     2
  9
$DIMLWD
 70
    -2
  9
$DIMLWE
 70
    -2
  9
$DIMTMOVE
 70
     0
  9
$LUNITS
 70
     2
  9
$LUPREC
 70
     3
  9
$SKETCHINC
 40
0.1
  9
$FILLETRAD
 40
0.5
  9
$AUNITS
 70
     0
  9
$AUPREC
 70
     1
  9
$MENU
  1
.
  9
$ELEVATION
 40
0.0
  9
$PELEVATION
 40
0.0
  9
$THICKNESS
 40
0.0
  9
$LIMCHECK
 70
     0
  9
$CHAMFERA
 40
0.5
  9
$CHAMFERB
 40
0.5
  9
$CHAMFERC
 40
1.0
  9
$CHAMFERD
 40
0.0
  9
$SKPOLY
 70
     0
  9
$TDCREATE
 40
2455357.421384433
  9
$TDUCREATE
 40
2455357.671384433
  9
$TDUPDATE
 40
2455357.421384444
  9
$TDUUPDATE
 40
2455357.671384444
  9
$TDINDWG
 40
0.0000000116
  9
$TDUSRTIMER
 40
0.0000000116
  9
$USRTIMER
 70
     1
  9
$ANGBASE
 50
0.0
  9
$ANGDIR
 70
     0
  9
$PDMODE
 70
     0
  9
$PDSIZE
 40
-1.0
  9
$PLINEWID
 40
0.0
  9
$SPLFRAME
 70
     0
  9
$SPLINETYPE
 70
     6
  9
$SPLINESEGS
 70
     8
  9
$HANDSEED
  5
1EB
  9
$SURFTAB1
 70
     6
  9
$SURFTAB2
 70
     6
  9
$SURFTYPE
 70
     6
  9
$SURFU
 70
     6
  9
$SURFV
 70
     6
  9
$UCSBASE
  2

  9
$UCSNAME
  2

  9
$UCSORG
 10
0.0
 20
0.0
 30
0.0
  9
$UCSXDIR
 10
1.0
 20
0.0
 30
0.0
  9
$UCSYDIR
 10
0.0
 20
1.0
 30
0.0
  9
$UCSORTHOREF
  2

  9
$UCSORTHOVIEW
 70
     0
  9
$UCSORGTOP
 10
0.0
 20
0.0
 30
0.0
  9
$UCSORGBOTTOM
 10
0.0
 20
0.0
 30
0.0
  9
$UCSORGLEFT
 10
0.0
 20
0.0
 30
0.0
  9
$UCSORGRIGHT
 10
0.0
 20
0.0
 30
0.0
  9
$UCSORGFRONT
 10
0.0
 20
0.0
 30
0.0
  9
$UCSORGBACK
 10
0.0
 20
0.0
 30
0.0
  9
$PUCSBASE
  2

  9
$PUCSNAME
  2

  9
$PUCSORG
 10
0.0
 20
0.0
 30
0.0
  9
$PUCSXDIR
 10
1.0
 20
0.0
 30
0.0
  9
$PUCSYDIR
 10
0.0
 20
1.0
 30
0.0
  9
$PUCSORTHOREF
  2

  9
$PUCSORTHOVIEW
 70
     0
  9
$PUCSORGTOP
 10
0.0
 20
0.0
 30
0.0
  9
$PUCSORGBOTTOM
 10
0.0
 20
0.0
 30
0.0
  9
$PUCSORGLEFT
 10
0.0
 20
0.0
 30
0.0
  9
$PUCSORGRIGHT
 10
0.0
 20
0.0
 30
0.0
  9
$PUCSORGFRONT
 10
0.0
 20
0.0
 30
0.0
  9
$PUCSORGBACK
 10
0.0
 20
0.0
 30
0.0
  9
$USERI1
 70
     0
  9
$USERI2
 70
     0
  9
$USERI3
 70
     0
  9
$USERI4
 70
     0
  9
$USERI5
 70
     0
  9
$USERR1
 40
0.0
  9
$USERR2
 40
0.0
  9
$USERR3
 40
0.0
  9
$USERR4
 40
0.0
  9
$USERR5
 40
0.0
  9
$WORLDVIEW
 70
     1
  9
$SHADEDGE
 70
     3
  9
$SHADEDIF
 70
    70
  9
$TILEMODE
 70
     1
  9
$MAXACTVP
 70
    64
  9
$PINSBASE
 10
0.0
 20
0.0
 30
0.0
  9
$PLIMCHECK
 70
     0
  9
$PEXTMIN
 10
1.0000000000E+20
 20
1.0000000000E+20
 30
1.0000000000E+20
  9
$PEXTMAX
 10
-1.0000000000E+20
 20
-1.0000000000E+20
 30
-1.0000000000E+20
  9
$PLIMMIN
 10
0.0
 20
0.0
  9
$PLIMMAX
 10
12.0
 20
9.0
  9
$UNITMODE
 70
     0
  9
$VISRETAIN
 70
     1
  9
$PLINEGEN
 70
     0
  9
$PSLTSCALE
 70
     1
  9
$TREEDEPTH
 70
  3020
  9
$CMLSTYLE
  2
Standard
  9
$CMLJUST
 70
     0
  9
$CMLSCALE
 40
1.0
  9
$PROXYGRAPHICS
 70
     1
  9
$MEASUREMENT
 70
     0
  9
$CELWEIGHT
370
    -1
  9
$ENDCAPS
280
     0
  9
$JOINSTYLE
280
     0
  9
$LWDISPLAY
290
     1
  9
$INSUNITS
 70
     1
  9
$HYPERLINKBASE
  1

  9
$STYLESHEET
  1

  9
$XEDIT
290
     1
  9
$CEPSNTYPE
380
     0
  9
$PSTYLEMODE
290
     1
  9
$FINGERPRINTGUID
  2
{8CFC9753-4CD7-431D-9F28-80BC3000C4A9}
  9
$VERSIONGUID
  2
{FAEB1C32-E019-11D5-929B-00C0DF256EC4}
  9
$EXTNAMES
290
     1
  9
$PSVPSCALE
 40
0.0
  9
$OLESTARTUP
290
     0
  0
ENDSEC
  0
SECTION
  2
CLASSES
  0
CLASS
  1
ACDBDICTIONARYWDFLT
  2
AcDbDictionaryWithDefault
  3
ObjectDBX Classes
 90
        0
280
     0
281
     0
  0
CLASS
  1
VISUALSTYLE
  2
AcDbVisualStyle
  3
ObjectDBX Classes
 90
     4095
280
     0
281
     0
  0
CLASS
  1
MATERIAL
  2
AcDbMaterial
  3
ObjectDBX Classes
 90
     1153
280
     0
281
     0
  0
CLASS
  1
ACDBPLACEHOLDER
  2
AcDbPlaceHolder
  3
ObjectDBX Classes
 90
        0
280
     0
281
     0
  0
CLASS
  1
LAYOUT
  2
AcDbLayout
  3
ObjectDBX Classes
 90
        0
280
     0
281
     0
  0
ENDSEC
  0
SECTION
  2
TABLES
  0
TABLE
  2
VPORT
  5
8
330
0
100
AcDbSymbolTable
 70
     1
  0
VPORT
  5
29
330
8
100
AcDbSymbolTableRecord
100
AcDbViewportTableRecord
  2
*Active
 70
     0
 10
0.0
 20
0.0
 11
1.0
 21
1.0
 12
7.0
 22
6.0
 13
0.0
 23
0.0
 14
0.5
 24
0.5
 15
0.5
 25
0.5
 16
0.0
 26
0.0
 36
1.0
 17
0.0
 27
0.0
 37
0.0
 40
12.0
 41
1.1666666667
 42
50.0
 43
0.0
 44
0.0
 50
0.0
 51
0.0
 71
     0
 72
  2000
 73
     1
 74
     3
 75
     0
 76
     0
 77
     0
 78
     0
281
     0
 65
     1
110
0.0
120
0.0
130
0.0
111
1.0
121
0.0
131
0.0
112
0.0
122
1.0
132
0.0
 79
     0
146
0.0
  0
ENDTAB
  0
TABLE
  2
LTYPE
  5
5
330
0
100
AcDbSymbolTable
 70
     6
  0
LTYPE
  5
14
330
5
100
AcDbSymbolTableRecord
100
AcDbLinetypeTableRecord
  2
ByBlock
 70
     0
  3

 72
    65
 73
     0
 40
0.0
  0
LTYPE
  5
15
330
5
100
AcDbSymbolTableRecord
100
AcDbLinetypeTableRecord
  2
ByLayer
 70
     0
  3

 72
    65
 73
     0
 40
0.0
  0
LTYPE
  5
16
330
5
100
AcDbSymbolTableRecord
100
AcDbLinetypeTableRecord
  2
Continuous
 70
     0
  3
Solid line
 72
    65
 73
     0
 40
0.0
  0
LTYPE
  5
3F
330
5
100
AcDbSymbolTableRecord
100
AcDbLinetypeTableRecord
  2
HIDDEN
 70
     0
  3
Hidden __ __ __ __ __ __ __ __ __ __ __ __ __ __
 72
    65
 73
     2
 40
0.075
 49
0.05
 74
     0
 49
-0.025
 74
     0
  0
LTYPE
  5
40
330
5
100
AcDbSymbolTableRecord
100
AcDbLinetypeTableRecord
  2
PHANTOM
 70
     0
  3
Phantom ______  __  __  ______  __  __  ______
 72
    65
 73
     6
 40
0.5
 49
0.25
 74
     0
 49
-0.05
 74
     0
 49
0.05
 74
     0
 49
-0.05
 74
     0
 49
0.05
 74
     0
 49
-0.05
 74
     0
  0
LTYPE
  5
41
330
5
100
AcDbSymbolTableRecord
100
AcDbLinetypeTableRecord
  2
CENTER
 70
     0
  3
Center ____ _ ____ _ ____ _ ____ _ ____ _ ____
 72
    65
 73
     4
 40
0.4
 49
0.25
 74
     0
 49
-0.05
 74
     0
 49
0.05
 74
     0
 49
-0.05
 74
     0
  0
LTYPE
  5
42
330
5
100
AcDbSymbolTableRecord
100
AcDbLinetypeTableRecord
  2
CENTERX2
 70
     0
  3
Center (2x) ________  __  ________  __  _____
 72
    65
 73
     4
 40
0.8
 49
0.5
 74
     0
 49
-0.1
 74
     0
 49
0.1
 74
     0
 49
-0.1
 74
     0
  0
LTYPE
  5
43
330
5
100
AcDbSymbolTableRecord
100
AcDbLinetypeTableRecord
  2
DOT2
 70
     0
  3
Dot (.5x) ........................................
 72
    65
 73
     2
 40
0.025
 49
0.0
 74
     0
 49
-0.025
 74
     0
  0
ENDTAB
  0
TABLE
  2
LAYER
  5
2
330
0
100
AcDbSymbolTable
 70
     2
  0
LAYER
  5
10
330
2
100
AcDbSymbolTableRecord
100
AcDbLayerTableRecord
  2
0
 70
     0
 62
     7
  6
Continuous
370
    -3
390
F
  0
LAYER
  5
44
330
2
100
AcDbSymbolTableRecord
100
AcDbLayerTableRecord
  2
FORMAT
 70
     0
 62
     7
  6
Continuous
370
    -3
390
F
  0
ENDTAB
  0
TABLE
  2
STYLE
  5
3
330
0
100
AcDbSymbolTable
 70
     1
  0
STYLE
  5
11
330
3
100
AcDbSymbolTableRecord
100
AcDbTextStyleTableRecord
  2
Standard
 70
     0
 40
0.0
 41
1.0
 50
0.0
 71
     0
 42
0.2
  3
txt
  4

  0
ENDTAB
  0
TABLE
  2
VIEW
  5
6
330
0
100
AcDbSymbolTable
 70
     0
  0
ENDTAB
  0
TABLE
  2
UCS
  5
7
330
0
100
AcDbSymbolTable
 70
     0
  0
ENDTAB
  0
TABLE
  2
APPID
  5
9
330
0
100
AcDbSymbolTable
 70
     1
  0
APPID
  5
12
330
9
100
AcDbSymbolTableRecord
100
AcDbRegAppTableRecord
  2
ACAD
 70
     0
  0
ENDTAB
  0
TABLE
  2
DIMSTYLE
  5
A
330
0
100
AcDbSymbolTable
 70
     1
100
AcDbDimStyleTable
  0
DIMSTYLE
105
27
330
A
100
AcDbSymbolTableRecord
100
AcDbDimStyleTableRecord
  2
Standard
 70
     0
340
11
  0
ENDTAB
  0
TABLE
  2
BLOCK_RECORD
  5
1
330
0
100
AcDbSymbolTable
 70
     1
  0
BLOCK_RECORD
  5
1F
330
1
100
AcDbSymbolTableRecord
100
AcDbBlockTableRecord
  2
*Model_Space
340
22
  0
BLOCK_RECORD
  5
1B
330
1
100
AcDbSymbolTableRecord
100
AcDbBlockTableRecord
  2
*Paper_Space
340
1E
  0
BLOCK_RECORD
  5
23
330
1
100
AcDbSymbolTableRecord
100
AcDbBlockTableRecord
  2
*Paper_Space0
340
26
  0
ENDTAB
  0
ENDSEC
  0
SECTION
  2
BLOCKS
  0
BLOCK
  5
20
330
1F
100
AcDbEntity
  8
0
100
AcDbBlockBegin
  2
*Model_Space
 70
     0
 10
0.0
 20
0.0
 30
0.0
  3
*Model_Space
  1

  0
ENDBLK
  5
21
330
1F
100
AcDbEntity
  8
0
100
AcDbBlockEnd
  0
BLOCK
  5
1C
330
1B
100
AcDbEntity
 67
     1
  8
0
100
AcDbBlockBegin
  2
*Paper_Space
 70
     0
 10
0.0
 20
0.0
 30
0.0
  3
*Paper_Space
  1

  0
ENDBLK
  5
1D
330
1B
100
AcDbEntity
 67
     1
  8
0
100
AcDbBlockEnd
  0
BLOCK
  5
24
330
23
100
AcDbEntity
  8
0
100
AcDbBlockBegin
  2
*Paper_Space0
 70
     0
 10
0.0
 20
0.0
 30
0.0
  3
*Paper_Space0
  1

  0
ENDBLK
  5
25
330
23
100
AcDbEntity
  8
0
100
AcDbBlockEnd
  0
ENDSEC
  0
SECTION
  2
ENTITIES
  0
ARC
  5
45
330
1F
100
AcDbEntity
  8
0
  6
Continuous
 62
     7
370
    15
100
AcDbCircle
 10
13.5650436399
 20
6.5736034088
 30
0.0
 40
0.2500000000000009
100
AcDbArc
 50
270.0
 51
0.0
  0
LINE
  5
46
330
1F
100
AcDbEntity
  8
0
  6
Continuous
 62
     7
370
    15
100
AcDbLine
 10
13.8150436584
 20
6.5736033972
 30
0.0
 11
13.8150436584
 21
7.2279034487
 31
0.0
  0
LINE
  5
47
330
1F
100
AcDbEntity
  8
0
  6
Continuous
 62
     7
370
    15
100
AcDbLine
 10
0.3150434916
 20
5.152903406
 30
0.0
 11
0.3150434916
 21
4.2279034116
 31
0.0
  0
ARC
  5
48
330
1F
100
AcDbEntity
  8
0
  6
Continuous
 62
     7
370
    15
100
AcDbCircle
 10
0.5650436399
 20
5.1529034088
 30
0.0
 40
0.2500000000000009
100
AcDbArc
 50
90.0
 51
180.0
  0
ARC
  5
49
330
1F
100
AcDbEntity
  8
0
  6
Continuous
 62
     7
370
    15
100
AcDbCircle
 10
0.5650436399
 20
5.5904034088
 30
0.0
 40
0.1875000000000001
100
AcDbArc
 50
270.0
 51
0.0
  0
ARC
  5
4A
330
1F
100
AcDbEntity
  8
0
  6
Continuous
 62
     7
370
    15
100
AcDbCircle
 10
11.2275436399
 20
6.1361034088
 30
0.0
 40
0.1875000000000009
100
AcDbArc
 50
0.0
 51
90.0
  0
ARC
  5
4B
330
1F
100
AcDbEntity
  8
0
  6
Continuous
 62
     7
370
    15
100
AcDbCircle
 10
13.4025436399
 20
6.1361034088
 30
0.0
 40
0.1875000000000009
100
AcDbArc
 50
90.0
 51
180.0
  0
LINE
  5
4C
330
1F
100
AcDbEntity
  8
0
  6
Continuous
 62
     7
370
    15
100
AcDbLine
 10
0.7525439309
 20
7.2279034487
 30
0.0
 11
0.7525439309
 21
5.5904034053
 31
0.0
  0
LINE
  5
4D
330
1F
100
AcDbEntity
  8
0
  6
Continuous
 62
     7
370
    15
100
AcDbLine
 10
11.4150436434
 20
6.1361034163
 30
0.0
 11
11.4150436434
 21
6.0736034125
 31
0.0
  0
LINE
  5
4E
330
1F
100
AcDbEntity
  8
0
  6
Continuous
 62
     7
370
    15
100
AcDbLine
 10
13.2150436364
 20
6.0736034125
 30
0.0
 11
13.2150436364
 21
6.1361034163
 31
0.0
  0
ARC
  5
4F
330
1F
100
AcDbEntity
  8
0
  6
Continuous
 62
     7
370
    15
100
AcDbCircle
 10
3.8775436399
 20
6.1361034088
 30
0.0
 40
0.1875000000000009
100
AcDbArc
 50
90.0
 51
180.0
  0
LINE
  5
50
330
1F
100
AcDbEntity
  8
0
  6
Continuous
 62
     7
370
    15
100
AcDbLine
 10
3.6900438633
 20
4.2279034116
 30
0.0
 11
3.6900438633
 21
6.1361034163
 31
0.0
  0
LINE
  5
51
330
1F
100
AcDbEntity
  8
0
  6
Continuous
 62
     7
370
    15
100
AcDbLine
 10
3.8600438194
 20
7.2279034487
 30
0.0
 11
12.3150436399
 21
7.2279034487
 31
0.0
  0
LINE
  5
52
330
1F
100
AcDbEntity
  8
0
  6
Continuous
 62
     7
370
    15
100
AcDbLine
 10
12.3150436399
 20
6.5736033972
 30
0.0
 11
12.3150436399
 21
7.2279034487
 31
0.0
  0
LINE
  5
53
330
1F
100
AcDbEntity
  8
0
  6
Continuous
 62
     7
370
    15
100
AcDbLine
 10
3.8600438194
 20
6.5736033972
 30
0.0
 11
12.3150436399
 21
6.5736033972
 31
0.0
  0
LINE
  5
54
330
1F
100
AcDbEntity
  8
0
  6
Continuous
 62
     7
370
    15
100
AcDbLine
 10
3.8600438194
 20
7.2279034487
 30
0.0
 11
3.8600438194
 21
6.5736033972
 31
0.0
  0
LINE
  5
55
330
1F
100
AcDbEntity
  8
0
  6
Continuous
 62
     7
370
    15
100
AcDbLine
 10
3.8600438194
 20
7.2279034487
 30
0.0
 11
3.3175910992
 21
7.2279034487
 31
0.0
  0
LINE
  5
56
330
1F
100
AcDbEntity
  8
0
  6
Continuous
 62
     7
370
    15
100
AcDbLine
 10
3.3175910992
 20
6.5736033972
 30
0.0
 11
3.8600438194
 21
6.5736033972
 31
0.0
  0
LINE
  5
57
330
1F
100
AcDbEntity
  8
0
  6
Continuous
 62
     7
370
    15
100
AcDbLine
 10
3.3175910992
 20
6.5736033972
 30
0.0
 11
3.3175910992
 21
7.2279034487
 31
0.0
  0
LINE
  5
58
330
1F
100
AcDbEntity
  8
0
  6
Continuous
 62
     7
370
    15
100
AcDbLine
 10
3.8600438194
 20
6.5736033972
 30
0.0
 11
3.8600438194
 21
6.3236034186
 31
0.0
  0
LINE
  5
59
330
1F
100
AcDbEntity
  8
0
  6
Continuous
 62
     7
370
    15
100
AcDbLine
 10
3.8600438194
 20
6.3236034186
 30
0.0
 11
3.5455125729
 21
6.3236034186
 31
0.0
  0
ARC
  5
5A
330
1F
100
AcDbEntity
  8
0
  6
Continuous
 62
     7
370
    15
100
AcDbCircle
 10
3.5570869518
 20
6.563052012
 30
0.0
 40
0.2397281692078474
100
AcDbArc
 50
177.477371105
 51
267.2326115105
  0
LINE
  5
5B
330
1F
100
AcDbEntity
  8
0
  6
Continuous
 62
     7
370
    15
100
AcDbLine
 10
12.3150436399
 20
6.5736033972
 30
0.0
 11
12.3150436399
 21
6.3236034186
 31
0.0
  0
LINE
  5
5C
330
1F
100
AcDbEntity
  8
0
  6
Continuous
 62
     7
370
    15
100
AcDbLine
 10
12.3150436399
 20
6.3236034186
 30
0.0
 11
3.8600438194
 21
6.3236034186
 31
0.0
  0
LINE
  5
5D
330
1F
100
AcDbEntity
  8
0
  6
Continuous
 62
     7
370
    15
100
AcDbLine
 10
13.5650436798
 20
6.3236034186
 30
0.0
 11
12.3150436399
 21
6.3236034186
 31
0.0
  0
LINE
  5
5E
330
1F
100
AcDbEntity
  8
0
  6
Continuous
 62
     7
370
    15
100
AcDbLine
 10
12.3150436399
 20
7.2279034487
 30
0.0
 11
13.8150436584
 21
7.2279034487
 31
0.0
  0
LINE
  5
5F
330
1F
100
AcDbEntity
  8
0
  6
Continuous
 62
     7
370
    15
100
AcDbLine
 10
1.4770360415
 20
4.2279034116
 30
0.0
 11
1.0918856108
 21
4.2279034116
 31
0.0
  0
LINE
  5
60
330
1F
100
AcDbEntity
  8
0
  6
Continuous
 62
     7
370
    15
100
AcDbLine
 10
1.0918856108
 20
4.2279034116
 30
0.0
 11
1.0918856108
 21
5.152903406
 31
0.0
  0
SPLINE
  5
61
330
1F
100
AcDbEntity
  8
0
  6
Continuous
 62
     7
370
    15
100
AcDbSpline
210
0.0
220
0.0
230
1.0
 70
     8
 71
     3
 72
    18
 73
    14
 74
     0
 42
0.00000001
 43
0.00000001
 40
0.0
 40
0.0
 40
0.0
 40
0.0
 40
0.1249999999999978
 40
0.1249999999999978
 40
0.2499999999999956
 40
0.2499999999999956
 40
0.5000000000000079
 40
0.5000000000000079
 40
0.6250000000000059
 40
0.6250000000000059
 40
0.7500000000000039
 40
0.7500000000000039
 40
1.0
 40
1.0
 40
1.0
 40
1.0
 10
1.477036427814702
 20
5.157249474287299
 30
0.0
 10
1.461048564656076
 20
5.156537099090756
 30
0.0
 10
1.444864647053483
 20
5.155954483997379
 30
0.0
 10
1.412107443523739
 20
5.154987275636847
 30
0.0
 10
1.395587024043276
 20
5.154604908594825
 30
0.0
 10
1.346185024428826
 20
5.153687870261742
 30
0.0
 10
1.313239066622549
 20
5.15337165444141
 30
0.0
 10
1.263806272221878
 20
5.15309177285862
 30
0.0
 10
1.247236741446117
 20
5.153032090960342
 30
0.0
 10
1.214710123607524
 20
5.152952862937315
 30
0.0
 10
1.198720261562432
 20
5.152932811090973
 30
0.0
 10
1.151551780877907
 20
5.152897640149011
 30
0.0
 10
1.121166204125391
 20
5.152903408820023
 30
0.0
 10
1.091885605660786
 20
5.152903408820023
 30
0.0
  0
LINE
  5
62
330
1F
100
AcDbEntity
  8
0
  6
Continuous
 62
     7
370
    15
100
AcDbLine
 10
1.4770360415
 20
5.1572494558
 30
0.0
 11
1.4770360415
 21
4.2279034116
 31
0.0
  0
SPLINE
  5
63
330
1F
100
AcDbEntity
  8
0
  6
Continuous
 62
     7
370
    15
100
AcDbSpline
210
0.0
220
0.0
230
1.0
 70
     8
 71
     3
 72
     9
 73
     5
 74
     0
 42
0.00000001
 43
0.00000001
 40
0.0
 40
0.0
 40
0.0
 40
0.0
 40
0.8997193497611998
 40
1.0
 40
1.0
 40
1.0
 40
1.0
 10
1.21241136511693
 20
5.402903421268945
 30
0.0
 10
1.237167173950416
 20
5.402790034414784
 30
0.0
 10
1.264682208322027
 20
5.40266400972254
 30
0.0
 10
1.294905050832178
 20
5.403035426710054
 30
0.0
 10
1.297935817131162
 20
5.403072672647072
 30
0.0
  0
LWPOLYLINE
  5
64
330
1F
100
AcDbEntity
  8
0
  6
Continuous
 62
     7
370
    15
100
AcDbPolyline
 90
        9
 70
   128
 43
0.0
 10
1.3928597339
 20
5.4047659931
 10
1.4064526435
 20
5.3955912191
 10
1.4199962737
 20
5.3785199663
 10
1.4330435897
 20
5.3541178482
 10
1.445160463
 20
5.3231932454
 10
1.4559467918
 20
5.2867707595
 10
1.4650447133
 20
5.2460571498
 10
1.4721538579
 20
5.2024012942
 10
1.4770360415
 20
5.1572494558
  0
LWPOLYLINE
  5
65
330
1F
100
AcDbEntity
  8
0
  6
Continuous
 62
     7
370
    15
100
AcDbPolyline
 90
        9
 70
   128
 43
0.0
 10
1.2124125384
 20
5.4029034213
 10
1.1888980367
 20
5.3980997401
 10
1.1662881646
 20
5.3838732744
 10
1.1454511786
 20
5.3607707913
 10
1.127187283
 20
5.3296800905
 10
1.1121981228
 20
5.2917959415
 10
1.1010597981
 20
5.2485742874
 10
1.094201744
 20
5.2016759625
 10
1.0918856108
 20
5.152903406
  0
SPLINE
  5
66
330
1F
100
AcDbEntity
  8
0
  6
Continuous
 62
     7
370
    15
100
AcDbSpline
210
0.0
220
0.0
230
1.0
 70
     8
 71
     3
 72
    10
 73
     6
 74
     0
 42
0.00000001
 43
0.00000001
 40
0.0
 40
0.0
 40
0.0
 40
0.0
 40
0.5
 40
0.5
 40
1.0
 40
1.0
 40
1.0
 40
1.0
 10
1.392859558582058
 20
5.404766008305999
 30
0.0
 10
1.465139368246398
 20
5.40783509433107
 30
0.0
 10
1.537152541725344
 20
5.413966921403102
 30
0.0
 10
1.681048198834094
 20
5.426980618601394
 30
0.0
 10
1.753035120119435
 20
5.433957881360822
 30
0.0
 10
1.824775118813373
 20
5.439737899617467
 30
0.0
  0
ARC
  5
67
330
1F
100
AcDbEntity
  8
0
  6
Continuous
 62
     7
370
    15
100
AcDbCircle
 10
1.2607068101
 20
5.1280924817
 30
0.0
 40
0.6444346171817272
100
AcDbArc
 50
9.896480245
 51
28.9204665269
  0
SPLINE
  5
68
330
1F
100
AcDbEntity
  8
0
  6
Continuous
 62
     7
370
    15
100
AcDbSpline
210
0.0
220
0.0
230
1.0
 70
     8
 71
     3
 72
    10
 73
     6
 74
     0
 42
0.00000001
 43
0.00000001
 40
0.0
 40
0.0
 40
0.0
 40
0.0
 40
0.5
 40
0.5
 40
1.0
 40
1.0
 40
1.0
 40
1.0
 10
1.895552097099368
 20
5.23885055401406
 30
0.0
 10
1.826059119208779
 20
5.223798147048089
 30
0.0
 10
1.757010081901688
 20
5.20626261630436
 30
0.0
 10
1.618015994469967
 20
5.176203285699666
 30
0.0
 10
1.548088508195266
 20
5.163581244733887
 30
0.0
 10
1.477036427814702
 20
5.157249474287299
 30
0.0
  0
SPLINE
  5
69
330
1F
100
AcDbEntity
  8
0
  6
Continuous
 62
     7
370
    15
100
AcDbSpline
210
0.0
220
0.0
230
1.0
 70
     8
 71
     3
 72
    16
 73
    12
 74
     0
 42
0.00000001
 43
0.00000001
 40
0.0
 40
0.0
 40
0.0
 40
0.0
 40
0.2500000000000028
 40
0.2500000000000028
 40
0.5000000000000056
 40
0.5000000000000056
 40
0.7500000000000083
 40
0.7500000000000083
 40
0.8750000000000041
 40
0.8750000000000041
 40
1.0
 40
1.0
 40
1.0
 40
1.0
 10
2.426206226212028
 20
5.238850554014061
 30
0.0
 10
2.382266150488689
 20
5.248368118550505
 30
0.0
 10
2.338204748606086
 20
5.254665358932501
 30
0.0
 10
2.249925657461626
 20
5.263111550279507
 30
0.0
 10
2.205703952893451
 20
5.265153924163653
 30
0.0
 10
2.11710787937851
 20
5.26518654674365
 30
0.0
 10
2.072733551693103
 20
5.263177890627781
 30
0.0
 10
2.006046308092148
 20
5.25682710659168
 30
0.0
 10
1.983783476930258
 20
5.254145528044361
 30
0.0
 10
1.93951431740343
 20
5.247528306364912
 30
0.0
 10
1.917472266544431
 20
5.243598534619665
 30
0.0
 10
1.895552097099366
 20
5.23885055401406
 30
0.0
  0
SPLINE
  5
6A
330
1F
100
AcDbEntity
  8
0
  6
Continuous
 62
     7
370
    15
100
AcDbSpline
210
0.0
220
0.0
230
1.0
 70
     8
 71
     3
 72
     8
 73
     4
 74
     0
 42
0.00000001
 43
0.00000001
 40
0.0000000121813899
 40
0.0000000121813899
 40
0.0000000121813899
 40
0.0000000121813899
 40
0.000255071800334
 40
0.000255071800334
 40
0.000255071800334
 40
0.000255071800334
 10
2.435618418825279
 20
5.236795742003473
 30
0.0
 10
2.432482019355318
 20
5.237485646355804
 30
0.0
 10
2.429344649556541
 20
5.238170761222802
 30
0.0
 10
2.426206226212028
 20
5.238850554014061
 30
0.0
  0
SPLINE
  5
6B
330
1F
100
AcDbEntity
  8
0
  6
Continuous
 62
     7
370
    15
100
AcDbSpline
210
0.0
220
0.0
230
1.0
 70
     8
 71
     3
 72
    11
 73
     7
 74
     0
 42
0.00000001
 43
0.00000001
 40
0.0
 40
0.0
 40
0.0
 40
0.0
 40
0.2012586235146766
 40
0.407390970301638
 40
0.7001435907121173
 40
1.0
 40
1.0
 40
1.0
 40
1.0
 10
2.944468956239834
 20
5.27718972352431
 30
0.0
 10
2.911861130129234
 20
5.264593871550871
 30
0.0
 10
2.845855839589945
 20
5.239097143670983
 30
0.0
 10
2.726182832446199
 20
5.21938019535833
 30
0.0
 10
2.588009948150285
 20
5.212452948429743
 30
0.0
 10
2.486819884661879
 20
5.22861681138708
 30
0.0
 10
2.435618354525408
 20
5.236795623493733
 30
0.0
  0
LINE
  5
6C
330
1F
100
AcDbEntity
  8
0
  6
Continuous
 62
     7
370
    15
100
AcDbLine
 10
2.9444689562
 20
4.2279034116
 30
0.0
 11
2.9444689562
 21
5.2771897235
 31
0.0
  0
LWPOLYLINE
  5
6D
330
1F
100
AcDbEntity
  8
0
  6
Continuous
 62
     7
370
    15
100
AcDbPolyline
 90
       17
 70
   128
 43
0.0
 10
2.2571153499
 20
4.8154033981
 10
2.2497891412
 20
4.8538630605
 10
2.2289286889
 20
4.8864676372
 10
2.1977066496
 20
4.9082533255
 10
2.1608796617
 20
4.9159034438
 10
2.1240515004
 20
4.9082533255
 10
2.0928306344
 20
4.8864676372
 10
2.0719690088
 20
4.8538630605
 10
2.0646428001
 20
4.8154033981
 10
2.0719690088
 20
4.7769437357
 10
2.0928306344
 20
4.7443392324
 10
2.1240515004
 20
4.7225534707
 10
2.1608796617
 20
4.7149034258
 10
2.1977066496
 20
4.7225534707
 10
2.2289286889
 20
4.7443392324
 10
2.2497891412
 20
4.7769437357
 10
2.2571153499
 20
4.8154033981
  0
LINE
  5
6E
330
1F
100
AcDbEntity
  8
0
  6
Continuous
 62
     7
370
    15
100
AcDbLine
 10
1.4770360415
 20
4.2279034116
 30
0.0
 11
2.9444689562
 21
4.2279034116
 31
0.0
  0
LINE
  5
6F
330
1F
100
AcDbEntity
  8
0
  6
Continuous
 62
     7
370
    15
100
AcDbLine
 10
0.3150434916
 20
4.2279034116
 30
0.0
 11
1.0918856108
 21
4.2279034116
 31
0.0
  0
LINE
  5
70
330
1F
100
AcDbEntity
  8
0
  6
Continuous
 62
     7
370
    15
100
AcDbLine
 10
1.2124125384
 20
5.4029034213
 30
0.0
 11
0.5650439102
 21
5.4029034213
 31
0.0
  0
SPLINE
  5
71
330
1F
100
AcDbEntity
  8
0
  6
Continuous
 62
     7
370
    15
100
AcDbSpline
210
0.0
220
0.0
230
1.0
 70
     8
 71
     3
 72
    14
 73
    10
 74
     0
 42
0.00000001
 43
0.00000001
 40
0.0
 40
0.0
 40
0.0
 40
0.0
 40
0.25
 40
0.25
 40
0.5
 40
0.5
 40
0.75
 40
0.75
 40
1.0
 40
1.0
 40
1.0
 40
1.0
 10
1.824775118813373
 20
5.439737899617467
 30
0.0
 10
1.878073138405783
 20
5.443494160219425
 30
0.0
 10
1.930735667390686
 20
5.445053755532219
 30
0.0
 10
2.035068962204395
 20
5.446896168339243
 30
0.0
 10
2.086729844148167
 20
5.447136683749276
 30
0.0
 10
2.189081195183467
 20
5.447139378235325
 30
0.0
 10
2.239800990423196
 20
5.446900035327924
 30
0.0
 10
2.339071485515484
 20
5.445055593879286
 30
0.0
 10
2.387778014844819
 20
5.443490513311891
 30
0.0
 10
2.435226527167416
 20
5.439737926045331
 30
0.0
  0
ARC
  5
72
330
1F
100
AcDbEntity
  8
0
  6
Continuous
 62
     7
370
    15
100
AcDbCircle
 10
1.9006454445
 20
5.3630960866
 30
0.0
 40
0.5400470665783813
100
AcDbArc
 50
346.6991437274
 51
8.1587838811
  0
SPLINE
  5
73
330
1F
100
AcDbEntity
  8
0
  6
Continuous
 62
     7
370
    15
100
AcDbSpline
210
0.0
220
0.0
230
1.0
 70
     8
 71
     3
 72
    18
 73
    14
 74
     0
 42
0.00000001
 43
0.00000001
 40
0.0
 40
0.0
 40
0.0
 40
0.0
 40
0.2499999999999998
 40
0.2499999999999998
 40
0.3749999999999997
 40
0.3749999999999997
 40
0.4999999999999997
 40
0.4999999999999997
 40
0.7499999999999998
 40
0.7499999999999998
 40
0.8749999999999999
 40
0.8749999999999999
 40
1.0
 40
1.0
 40
1.0
 40
1.0
 10
1.824126353552136
 20
5.590403408820023
 30
0.0
 10
1.874639868194337
 20
5.590403408820023
 30
0.0
 10
1.924762827156395
 20
5.588325412957333
 30
0.0
 10
1.999462090800186
 20
5.585765300480038
 30
0.0
 10
2.024300933138676
 20
5.584982699053908
 30
0.0
 10
2.073281670496254
 20
5.583907423653115
 30
0.0
 10
2.09749033786681
 20
5.583612469277162
 30
0.0
 10
2.169281584841412
 20
5.583616513204226
 30
0.0
 10
2.216033016601583
 20
5.584909799182098
 30
0.0
 10
2.284473880941022
 20
5.587464756413826
 30
0.0
 10
2.307012887792072
 20
5.588392082032813
 30
0.0
 10
2.351103736865443
 20
5.589859635905063
 30
0.0
 10
2.372710090224915
 20
5.590403408820023
 30
0.0
 10
2.393881313230998
 20
5.590403408820023
 30
0.0
  0
ARC
  5
74
330
1F
100
AcDbEntity
  8
0
  6
Continuous
 62
     7
370
    15
100
AcDbCircle
 10
2.6557282874
 20
5.5812534634
 30
0.0
 40
0.2620070822318974
100
AcDbArc
 50
177.9986813033
 51
212.6918884394
  0
ARC
  5
75
330
1F
100
AcDbEntity
  8
0
  6
Continuous
 62
     7
370
    15
100
AcDbCircle
 10
16.2852625376
 20
5.5773465931
 30
0.0
 40
14.46114210687423
100
AcDbArc
 50
179.9482682401
 51
180.545220903
  0
ARC
  5
76
330
1F
100
AcDbEntity
  8
0
  6
Continuous
 62
     7
370
    15
100
AcDbCircle
 10
2.1293192499
 20
4.8135330999
 30
0.0
 40
0.0989935157459671
100
AcDbArc
 50
279.9762893876
 51
1.0825615376
  0
ARC
  5
77
330
1F
100
AcDbEntity
  8
0
  6
Continuous
 62
     7
370
    15
100
AcDbCircle
 10
2.1293193057
 20
4.8172737423
 30
0.0
 40
0.0989934608538739
100
AcDbArc
 50
358.9174112767
 51
80.0237377981
  0
LINE
  5
78
330
1F
100
AcDbEntity
  8
0
  6
Continuous
 62
     7
370
    15
100
AcDbLine
 10
3.2090044603
 20
6.5736033972
 30
0.0
 11
3.3175910992
 21
6.5736033972
 31
0.0
  0
LWPOLYLINE
  5
79
330
1F
100
AcDbEntity
  8
0
  6
Continuous
 62
     7
370
    15
100
AcDbPolyline
 90
        9
 70
   128
 43
0.0
 10
3.2090044603
 20
6.5736033972
 10
3.212549646
 20
6.5248308407
 10
3.2230479247
 20
6.4779325524
 10
3.2400962611
 20
6.4347108617
 10
3.2630393561
 20
6.3968267127
 10
3.2909960465
 20
6.3657360119
 10
3.3228915713
 20
6.3426335288
 10
3.3574998115
 20
6.3284070998
 10
3.3934913958
 20
6.3236034186
  0
LINE
  5
7A
330
1F
100
AcDbEntity
  8
0
  6
Continuous
 62
     7
370
    15
100
AcDbLine
 10
3.5455125729
 20
6.3236034186
 30
0.0
 11
3.3934913958
 21
6.3236034186
 31
0.0
  0
LINE
  5
7B
330
1F
100
AcDbEntity
  8
0
  6
Continuous
 62
     7
370
    15
100
AcDbLine
 10
2.9392418166
 20
5.5904034053
 30
0.0
 11
2.9392418166
 21
6.1361034163
 31
0.0
  0
LINE
  5
7C
330
1F
100
AcDbEntity
  8
0
  6
Continuous
 62
     7
370
    15
100
AcDbLine
 10
2.4023277524
 20
5.5904034053
 30
0.0
 11
2.9392418166
 21
5.5904034053
 31
0.0
  0
LINE
  5
7D
330
1F
100
AcDbEntity
  8
0
  6
Continuous
 62
     7
370
    15
100
AcDbLine
 10
2.4023277524
 20
5.5904034053
 30
0.0
 11
2.4023277524
 21
7.2279034487
 31
0.0
  0
SPLINE
  5
7E
330
1F
100
AcDbEntity
  8
0
  6
Continuous
 62
     7
370
    15
100
AcDbSpline
210
0.0
220
0.0
230
1.0
 70
     8
 71
     3
 72
    26
 73
    22
 74
     0
 42
0.00000001
 43
0.00000001
 40
0.0
 40
0.0
 40
0.0
 40
0.0
 40
0.1249999999999992
 40
0.1249999999999992
 40
0.2499999999999983
 40
0.2499999999999983
 40
0.3749999999999975
 40
0.3749999999999975
 40
0.4999999999999967
 40
0.4999999999999967
 40
0.5624999999999962
 40
0.5624999999999962
 40
0.6249999999999958
 40
0.6249999999999958
 40
0.7499999999999982
 40
0.7499999999999982
 40
0.8124999999999977
 40
0.8124999999999977
 40
0.8749999999999971
 40
0.8749999999999971
 40
1.0
 40
1.0
 40
1.0
 40
1.0
 10
2.939241735649089
 20
6.136103408820022
 30
0.0
 10
2.939241735649089
 20
6.161142322582435
 30
0.0
 10
2.940904232095828
 20
6.186190633005236
 30
0.0
 10
2.947426797104623
 20
6.235503384369052
 30
0.0
 10
2.952276450913122
 20
6.259832474523857
 30
0.0
 10
2.965138490047054
 20
6.307822063346545
 30
0.0
 10
2.973174327382691
 20
6.331489572074898
 30
0.0
 10
2.992116679858303
 20
6.377098821282394
 30
0.0
 10
3.002952035654271
 20
6.398937934880308
 30
0.0
 10
3.021235906520548
 20
6.430140782819105
 30
0.0
 10
3.027671077007085
 20
6.44028065952645
 30
0.0
 10
3.041252899506127
 20
6.459990707404221
 30
0.0
 10
3.048430717127381
 20
6.469593005981659
 30
0.0
 10
3.070628448305325
 20
6.496857936027282
 30
0.0
 10
3.086408621744184
 20
6.513188573901431
 30
0.0
 10
3.111618774839147
 20
6.534296158741856
 30
0.0
 10
3.12034955184349
 20
6.540803814748479
 30
0.0
 10
3.138057570939239
 20
6.552246138742147
 30
0.0
 10
3.146959156122681
 20
6.557144269835357
 30
0.0
 10
3.173761793113052
 20
6.569179332431098
 30
0.0
 10
3.191954693723615
 20
6.573603408820023
 30
0.0
 10
3.209004729314663
 20
6.573603408820023
 30
0.0
  0
LINE
  5
7F
330
1F
100
AcDbEntity
  8
0
  6
Continuous
 62
     7
370
    15
100
AcDbLine
 10
3.3175910992
 20
7.2279034487
 30
0.0
 11
2.4023277524
 21
7.2279034487
 31
0.0
  0
SPLINE
  5
80
330
1F
100
AcDbEntity
  8
0
  6
Continuous
 62
     7
370
    15
100
AcDbSpline
210
0.0
220
0.0
230
1.0
 70
     8
 71
     3
 72
    14
 73
    10
 74
     0
 42
0.00000001
 43
0.00000001
 40
0.0
 40
0.0
 40
0.0
 40
0.0
 40
0.25
 40
0.25
 40
0.5
 40
0.5
 40
0.75
 40
0.75
 40
1.0
 40
1.0
 40
1.0
 40
1.0
 10
2.444938949801381
 20
5.438857223535408
 30
0.0
 10
2.476481885431937
 20
5.434773731147698
 30
0.0
 10
2.508475997894965
 20
5.432490044157408
 30
0.0
 10
2.573478411120886
 20
5.430114143275761
 30
0.0
 10
2.606486906389703
 20
5.430040697237901
 30
0.0
 10
2.673533796188578
 20
5.432107229576872
 30
0.0
 10
2.70766921809275
 20
5.434253154011494
 30
0.0
 10
2.775606686675502
 20
5.441910376663368
 30
0.0
 10
2.809549410708728
 20
5.447343644787074
 30
0.0
 10
2.843139718161967
 20
5.456168968482214
 30
0.0
  0
ARC
  5
81
330
1F
100
AcDbEntity
  8
0
  6
Continuous
 62
     7
370
    15
100
AcDbCircle
 10
2.2334776737
 20
4.9928355139
 30
0.0
 40
0.7657453365153367
100
AcDbArc
 50
21.7984705853
 51
37.2342495849
  0
ARC
  5
82
330
1F
100
AcDbEntity
  8
0
  6
Continuous
 62
     7
370
    15
100
AcDbCircle
 10
1.9159468289
 20
5.3620132156
 30
0.0
 40
0.5345446098611143
100
AcDbArc
 50
346.4525260006
 51
8.2652516567
  0
SPLINE
  5
83
330
1F
100
AcDbEntity
  8
0
  6
Continuous
 62
     7
370
    15
100
AcDbSpline
210
0.0
220
0.0
230
1.0
 70
     8
 71
     3
 72
     8
 73
     4
 74
     0
 42
0.00000001
 43
0.00000001
 40
0.0
 40
0.0
 40
0.0
 40
0.0
 40
0.0002776838101286
 40
0.0002776838101286
 40
0.0002776838101286
 40
0.0002776838101286
 10
2.435226861326436
 20
5.439737899617467
 30
0.0
 10
2.438468958152439
 20
5.439447223666237
 30
0.0
 10
2.441706329716374
 20
5.439153603516579
 30
0.0
 10
2.444938949801381
 20
5.438857223535408
 30
0.0
  0
LINE
  5
84
330
1F
100
AcDbEntity
  8
0
  6
Continuous
 62
     7
370
    15
100
AcDbLine
 10
2.3938810233
 20
5.5904034053
 30
0.0
 11
2.4023277524
 21
5.5904034053
 31
0.0
  0
LINE
  5
85
330
1F
100
AcDbEntity
  8
0
  6
Continuous
 62
     7
370
    15
100
AcDbLine
 10
2.4023277524
 20
7.2279034487
 30
0.0
 11
0.7525439309
 21
7.2279034487
 31
0.0
  0
SPLINE
  5
86
330
1F
100
AcDbEntity
  8
0
  6
Continuous
 62
     7
370
    15
100
AcDbSpline
210
0.0
220
0.0
230
1.0
 70
     8
 71
     3
 72
    24
 73
    20
 74
     0
 42
0.00000001
 43
0.00000001
 40
0.0
 40
0.0
 40
0.0
 40
0.0
 40
0.0624999999999997
 40
0.0624999999999997
 40
0.1249999999999993
 40
0.1249999999999993
 40
0.2499999999999994
 40
0.2499999999999994
 40
0.3749999999999996
 40
0.3749999999999996
 40
0.4999999999999997
 40
0.4999999999999997
 40
0.6249999999999998
 40
0.6249999999999998
 40
0.7499999999999999
 40
0.7499999999999999
 40
0.875
 40
0.875
 40
1.0
 40
1.0
 40
1.0
 40
1.0
 10
3.393491192535756
 20
6.323603408820023
 30
0.0
 10
3.389237476127102
 20
6.323603408820023
 30
0.0
 10
3.384672432549433
 20
6.323248188615622
 30
0.0
 10
3.375154085859741
 20
6.321865055761377
 30
0.0
 10
3.370177829652523
 20
6.32083854207058
 30
0.0
 10
3.354650019761555
 20
6.316785343983327
 30
0.0
 10
3.343430956783133
 20
6.3127298549136
 30
0.0
 10
3.321178503501186
 20
6.302762766656533
 30
0.0
 10
3.310145683615065
 20
6.296899465093996
 30
0.0
 10
3.288431473090608
 20
6.28359555738531
 30
0.0
 10
3.277661774943319
 20
6.276077061373511
 30
0.0
 10
3.25728394570354
 20
6.259779280830839
 30
0.0
 10
3.247640381547848
 20
6.251000642964438
 30
0.0
 10
3.229727096199313
 20
6.231925339248217
 30
0.0
 10
3.221416368389307
 20
6.22156326631967
 30
0.0
 10
3.207186729376895
 20
6.199314888132361
 30
0.0
 10
3.20133196726343
 20
6.187544914427107
 30
0.0
 10
3.193120552579395
 20
6.162621012765264
 30
0.0
 10
3.190823001403951
 20
6.149361798860442
 30
0.0
 10
3.190823001403953
 20
6.136103408820022
 30
0.0
  0
LINE
  5
87
330
1F
100
AcDbEntity
  8
0
  6
Continuous
 62
     7
370
    15
100
AcDbLine
 10
2.9392418166
 20
6.1361034163
 30
0.0
 11
3.1908232837
 21
6.1361034163
 31
0.0
  0
ARC
  5
88
330
1F
100
AcDbEntity
  8
0
  6
Continuous
 62
     7
370
    15
100
AcDbCircle
 10
2.6602314907
 20
5.5811564881
 30
0.0
 40
0.2580694551924792
100
AcDbArc
 50
177.9465885956
 51
213.463045714
  0
SPLINE
  5
89
330
1F
100
AcDbEntity
  8
0
  6
Continuous
 62
     7
370
    15
100
AcDbSpline
210
0.0
220
0.0
230
1.0
 70
     8
 71
     3
 72
    12
 73
     8
 74
     0
 42
0.00000001
 43
0.00000001
 40
0.0
 40
0.0
 40
0.0
 40
0.0
 40
0.2499999999999978
 40
0.2499999999999978
 40
0.4999999999999956
 40
0.4999999999999956
 40
1.0
 40
1.0
 40
1.0
 40
1.0
 10
2.914264415686854
 20
5.503593428911478
 30
0.0
 10
2.918254233637132
 20
5.509924529868582
 30
0.0
 10
2.92180941402565
 20
5.516533513864727
 30
0.0
 10
2.928020867149917
 20
5.530334099679456
 30
0.0
 10
2.93068716773661
 20
5.537579469773937
 30
0.0
 10
2.937049978544843
 20
5.559578966965137
 30
0.0
 10
2.939241735649091
 20
5.574729957488438
 30
0.0
 10
2.939241735649089
 20
5.590403408820023
 30
0.0
  0
SPLINE
  5
8A
330
1F
100
AcDbEntity
  8
0
  6
Continuous
 62
     7
370
    15
100
AcDbSpline
210
0.0
220
0.0
230
1.0
 70
     8
 71
     3
 72
    12
 73
     8
 74
     0
 42
0.00000001
 43
0.00000001
 40
0.0
 40
0.0
 40
0.0
 40
0.0
 40
0.4999999999999999
 40
0.4999999999999999
 40
0.7499999999999999
 40
0.7499999999999999
 40
1.0
 40
1.0
 40
1.0
 40
1.0
 10
2.843139718161967
 20
5.456168968482215
 30
0.0
 10
2.857677422156891
 20
5.459988521003964
 30
0.0
 10
2.871408892625095
 20
5.465331918573141
 30
0.0
 10
2.890066638229531
 20
5.477217008043033
 30
0.0
 10
2.895726800752573
 20
5.48170084516612
 30
0.0
 10
2.905894353257044
 20
5.491815339474546
 30
0.0
 10
2.91044399308719
 20
5.497531126952171
 30
0.0
 10
2.914264415686854
 20
5.503593428911478
 30
0.0
  0
SPLINE
  5
8B
330
1F
100
AcDbEntity
  8
0
  6
Continuous
 62
     7
370
    15
100
AcDbSpline
210
0.0
220
0.0
230
1.0
 70
     8
 71
     3
 72
    14
 73
    10
 74
     0
 42
0.00000001
 43
0.00000001
 40
0.0
 40
0.0
 40
0.0
 40
0.0
 40
0.25
 40
0.25
 40
0.5
 40
0.5
 40
0.75
 40
0.75
 40
1.0
 40
1.0
 40
1.0
 40
1.0
 10
3.150370926424299
 20
5.387846789033419
 30
0.0
 10
3.138024345865082
 20
5.373452466054715
 30
0.0
 10
3.124195670961712
 20
5.360519375563881
 30
0.0
 10
3.094173668202177
 20
5.337453663164816
 30
0.0
 10
3.077918232200516
 20
5.327243179460449
 30
0.0
 10
3.042821531255466
 20
5.309013322980927
 30
0.0
 10
3.024323204879081
 20
5.301177340689927
 30
0.0
 10
2.985687433732203
 20
5.287656106270601
 30
0.0
 10
2.965517022729138
 20
5.281956534021092
 30
0.0
 10
2.944469060491341
 20
5.277189714698471
 30
0.0
  0
LINE
  5
8C
330
1F
100
AcDbEntity
  8
0
  6
Continuous
 62
     7
370
    15
100
AcDbLine
 10
3.1503707376
 20
5.3878467952
 30
0.0
 11
3.1503707376
 21
4.2279034116
 31
0.0
  0
LINE
  5
8D
330
1F
100
AcDbEntity
  8
0
  6
Continuous
 62
     7
370
    15
100
AcDbLine
 10
3.1503707376
 20
4.2279034116
 30
0.0
 11
2.9444689562
 21
4.2279034116
 31
0.0
  0
ARC
  5
8E
330
1F
100
AcDbEntity
  8
0
  6
Continuous
 62
     7
370
    15
100
AcDbCircle
 10
2.7639854404
 20
4.8983612573
 30
0.0
 40
0.6236102065482609
100
AcDbArc
 50
51.713489603
 51
76.0555024878
  0
LINE
  5
8F
330
1F
100
AcDbEntity
  8
0
  6
Continuous
 62
     7
370
    15
100
AcDbLine
 10
13.2150436364
 20
6.0736034125
 30
0.0
 11
11.4150436434
 21
6.0736034125
 31
0.0
  0
LINE
  5
90
330
1F
100
AcDbEntity
  8
0
  6
Continuous
 62
     7
370
    15
100
AcDbLine
 10
2.9392418166
 20
5.5904034053
 30
0.0
 11
3.1908232837
 21
5.5904034053
 31
0.0
  0
SPLINE
  5
91
330
1F
100
AcDbEntity
  8
0
  6
Continuous
 62
     7
370
    15
100
AcDbSpline
210
0.0
220
0.0
230
1.0
 70
     8
 71
     3
 72
    12
 73
     8
 74
     0
 42
0.00000001
 43
0.00000001
 40
0.0
 40
0.0
 40
0.0
 40
0.0
 40
0.499999999999999
 40
0.499999999999999
 40
0.7499999999999994
 40
0.7499999999999994
 40
1.0
 40
1.0
 40
1.0
 40
1.0
 10
3.190823001403953
 20
5.590403408820023
 30
0.0
 10
3.190823001403953
 20
5.554649838588248
 30
0.0
 10
3.187345926928822
 20
5.519736683796327
 30
0.0
 10
3.177122364758039
 20
5.46857738265245
 30
0.0
 10
3.172838108532791
 20
5.451655134327234
 30
0.0
 10
3.162752130395621
 20
5.418991859172937
 30
0.0
 10
3.156941675670651
 20
5.403167871078839
 30
0.0
 10
3.150370926424299
 20
5.387846789033419
 30
0.0
  0
LWPOLYLINE
  5
92
330
1F
100
AcDbEntity
  8
0
  6
Continuous
 62
     7
370
    15
100
AcDbPolyline
 90
        9
 70
   128
 43
0.0
 10
3.6337937398
 20
6.3236034186
 10
3.6081877956
 20
6.3200006669
 10
3.5835662667
 20
6.3093308268
 10
3.5608748488
 20
6.2920039736
 10
3.5409859052
 20
6.2686859297
 10
3.5246632671
 20
6.2402728362
 10
3.5125346606
 20
6.207856559
 10
3.5050653068
 20
6.172682852
 10
3.5025438426
 20
6.1361034163
  0
LINE
  5
93
330
1F
100
AcDbEntity
  8
0
  6
Continuous
 62
     7
370
    15
100
AcDbLine
 10
3.5025438426
 20
6.1361034163
 30
0.0
 11
3.1908232837
 21
6.1361034163
 31
0.0
  0
LINE
  5
94
330
1F
100
AcDbEntity
  8
0
  6
Continuous
 62
     7
370
    15
100
AcDbLine
 10
3.1908232837
 20
6.1361034163
 30
0.0
 11
3.1908232837
 21
5.5904034053
 31
0.0
  0
LINE
  5
95
330
1F
100
AcDbEntity
  8
0
  6
Continuous
 62
     7
370
    15
100
AcDbLine
 10
3.5025438426
 20
4.2279034116
 30
0.0
 11
3.5025438426
 21
6.1361034163
 31
0.0
  0
LINE
  5
96
330
1F
100
AcDbEntity
  8
0
  6
Continuous
 62
     7
370
    15
100
AcDbLine
 10
3.5025438426
 20
4.2279034116
 30
0.0
 11
3.1503707376
 21
4.2279034116
 31
0.0
  0
LINE
  5
97
330
1F
100
AcDbEntity
  8
0
  6
Continuous
 62
     7
370
    15
100
AcDbLine
 10
3.6900438633
 20
4.2279034116
 30
0.0
 11
3.5025438426
 21
4.2279034116
 31
0.0
  0
LINE
  5
98
330
1F
100
AcDbEntity
  8
0
  6
Continuous
 62
     8
370
    15
100
AcDbLine
 10
12.3150436399
 20
6.5736033972
 30
0.0
 11
13.8150436584
 21
6.5736033972
 31
0.0
  0
SPLINE
  5
99
330
1F
100
AcDbEntity
  8
0
  6
Continuous
 62
     8
370
    15
100
AcDbSpline
210
0.0
220
0.0
230
1.0
 70
     8
 71
     3
 72
     9
 73
     5
 74
     0
 42
0.00000001
 43
0.00000001
 40
0.0
 40
0.0
 40
0.0
 40
0.0
 40
0.7228140048624937
 40
1.0
 40
1.0
 40
1.0
 40
1.0
 10
1.297935817131162
 20
5.403072672647072
 30
0.0
 10
1.320497447559965
 20
5.40315760406777
 30
0.0
 10
1.351711051996278
 20
5.403275105140143
 30
0.0
 10
1.383929289634095
 20
5.40444242763759
 30
0.0
 10
1.392859733895309
 20
5.40476599308569
 30
0.0
  0
LINE
  5
9A
330
1F
100
AcDbEntity
  8
0
  6
Continuous
 62
     8
370
    15
100
AcDbLine
 10
1.0918856108
 20
5.152903406
 30
0.0
 11
0.3150434916
 21
5.152903406
 31
0.0
  0
LINE
  5
9B
330
1F
100
AcDbEntity
  8
0
  6
Continuous
 62
     8
370
    15
100
AcDbLine
 10
0.7525439309
 20
5.5904034053
 30
0.0
 11
1.8241263252
 21
5.5904034053
 31
0.0
  0
LINE
  5
9C
330
1F
100
AcDbEntity
  8
0
  6
Continuous
 62
     8
370
    15
100
AcDbLine
 10
12.3150436399
 20
6.1361034163
 30
0.0
 11
11.4150436434
 21
6.1361034163
 31
0.0
  0
LINE
  5
9D
330
1F
100
AcDbEntity
  8
0
  6
Continuous
 62
     8
370
    15
100
AcDbLine
 10
13.2150436364
 20
6.1361034163
 30
0.0
 11
12.3150436399
 21
6.1361034163
 31
0.0
  0
LINE
  5
9E
330
1F
100
AcDbEntity
  8
0
  6
Continuous
 62
     8
370
    15
100
AcDbLine
 10
3.6900438633
 20
6.1361034163
 30
0.0
 11
3.5025438426
 21
6.1361034163
 31
0.0
  0
CIRCLE
  5
9F
330
1F
100
AcDbEntity
  8
0
  6
Continuous
 62
     7
370
    15
100
AcDbCircle
 10
1.8150436399
 20
9.4790680524
 30
0.0
 40
1.002000000000001
  0
LINE
  5
A0
330
1F
100
AcDbEntity
  8
0
  6
Continuous
 62
     7
370
    15
100
AcDbLine
 10
3.8600438194
 20
8.0290680296
 30
0.0
 11
12.3150436399
 21
8.0290680296
 31
0.0
  0
LINE
  5
A1
330
1F
100
AcDbEntity
  8
0
  6
Continuous
 62
     7
370
    15
100
AcDbLine
 10
3.315043822
 20
10.3840680778
 30
0.0
 11
3.315043822
 21
8.5740680271
 31
0.0
  0
ARC
  5
A2
330
1F
100
AcDbEntity
  8
0
  6
Continuous
 62
     7
370
    15
100
AcDbCircle
 10
3.8600436399
 20
8.5740680524
 30
0.0
 40
0.5449999999999999
100
AcDbArc
 50
180.0
 51
270.0
  0
ARC
  5
A3
330
1F
100
AcDbEntity
  8
0
  6
Continuous
 62
     7
370
    15
100
AcDbCircle
 10
2.7477885713
 20
8.0727810465
 30
0.0
 40
0.624999999999999
100
AcDbArc
 50
24.2608175996
 51
123.5550366652
  0
ARC
  5
A4
330
1F
100
AcDbEntity
  8
0
  6
Continuous
 62
     7
370
    15
100
AcDbCircle
 10
1.8150436399
 20
9.4790680524
 30
0.0
 40
1.062500000000001
100
AcDbArc
 50
56.4449633348
 51
303.5550366652
  0
ARC
  5
A5
330
1F
100
AcDbEntity
  8
0
  6
Continuous
 62
     7
370
    15
100
AcDbCircle
 10
2.7477885713
 20
10.8853550584
 30
0.0
 40
0.6250000000000009
100
AcDbArc
 50
236.4449633348
 51
335.7391824004
  0
LINE
  5
A6
330
1F
100
AcDbEntity
  8
0
  6
Continuous
 62
     7
370
    15
100
AcDbLine
 10
3.8600438194
 20
7.9790680339
 30
0.0
 11
12.3150436399
 21
7.9790680339
 31
0.0
  0
ARC
  5
A7
330
1F
100
AcDbEntity
  8
0
  6
Continuous
 62
     7
370
    15
100
AcDbCircle
 10
3.8600436399
 20
8.5740680524
 30
0.0
 40
0.5949999999999992
100
AcDbArc
 50
204.2608175996
 51
270.0
  0
LINE
  5
A8
330
1F
100
AcDbEntity
  8
0
  6
Continuous
 62
     7
370
    15
100
AcDbLine
 10
12.3150436399
 20
10.979068071
 30
0.0
 11
3.8600438194
 21
10.979068071
 31
0.0
  0
ARC
  5
A9
330
1F
100
AcDbEntity
  8
0
  6
Continuous
 62
     7
370
    15
100
AcDbCircle
 10
3.8600436399
 20
10.3840680524
 30
0.0
 40
0.594999999999998
100
AcDbArc
 50
90.0
 51
155.7391824004
  0
ARC
  5
AA
330
1F
100
AcDbEntity
  8
0
  6
Continuous
 62
     7
370
    15
100
AcDbCircle
 10
3.8600436399
 20
10.3840680524
 30
0.0
 40
0.5449999999999999
100
AcDbArc
 50
90.0
 51
180.0
  0
ARC
  5
AB
330
1F
100
AcDbEntity
  8
0
  6
Continuous
 62
     7
370
    15
100
AcDbCircle
 10
12.3150436399
 20
9.4790680524
 30
0.0
 40
1.450000000000001
100
AcDbArc
 50
270.0
 51
90.0
  0
LINE
  5
AC
330
1F
100
AcDbEntity
  8
0
  6
Continuous
 62
     7
370
    15
100
AcDbLine
 10
12.3150436399
 20
10.9290680753
 30
0.0
 11
3.8600438194
 21
10.9290680753
 31
0.0
  0
ARC
  5
AD
330
1F
100
AcDbEntity
  8
0
  6
Continuous
 62
     7
370
    15
100
AcDbCircle
 10
12.3150436399
 20
9.4790680524
 30
0.0
 40
1.500000000000001
100
AcDbArc
 50
270.0
 51
90.0
  0
CIRCLE
  5
AE
330
1F
100
AcDbEntity
  8
0
  6
Continuous
 62
     7
370
    15
100
AcDbCircle
 10
4.8150436399
 20
10.7540680524
 30
0.0
 40
0.0444999999999993
  0
CIRCLE
  5
AF
330
1F
100
AcDbEntity
  8
0
  6
Continuous
 62
     7
370
    15
100
AcDbCircle
 10
4.8150436399
 20
8.2040680524
 30
0.0
 40
0.0445000000000011
  0
CIRCLE
  5
B0
330
1F
100
AcDbEntity
  8
0
  6
Continuous
 62
     7
370
    15
100
AcDbCircle
 10
8.3150436399
 20
10.7540680524
 30
0.0
 40
0.0444999999999993
  0
CIRCLE
  5
B1
330
1F
100
AcDbEntity
  8
0
  6
Continuous
 62
     7
370
    15
100
AcDbCircle
 10
11.8150436399
 20
10.7540680524
 30
0.0
 40
0.0444999999999993
  0
CIRCLE
  5
B2
330
1F
100
AcDbEntity
  8
0
  6
Continuous
 62
     7
370
    15
100
AcDbCircle
 10
8.3150436399
 20
8.2040680524
 30
0.0
 40
0.0445000000000011
  0
CIRCLE
  5
B3
330
1F
100
AcDbEntity
  8
0
  6
Continuous
 62
     7
370
    15
100
AcDbCircle
 10
11.8150436399
 20
8.2040680524
 30
0.0
 40
0.0445000000000011
  0
LINE
  5
B4
330
1F
100
AcDbEntity
  8
0
  6
Continuous
 62
     7
370
    15
100
AcDbLine
 10
3.615043503
 20
8.7915680745
 30
0.0
 11
3.615043503
 21
8.579068056
 31
0.0
  0
ARC
  5
B5
330
1F
100
AcDbEntity
  8
0
  6
Continuous
 62
     7
370
    15
100
AcDbCircle
 10
4.1150436399
 20
8.5790680524
 30
0.0
 40
0.5
100
AcDbArc
 50
180.0
 51
270.0
  0
LINE
  5
B6
330
1F
100
AcDbEntity
  8
0
  6
Continuous
 62
     7
370
    15
100
AcDbLine
 10
4.1150437537
 20
8.0790680254
 30
0.0
 11
4.3150437366
 21
8.0790680254
 31
0.0
  0
ARC
  5
B7
330
1F
100
AcDbEntity
  8
0
  6
Continuous
 62
     7
370
    15
100
AcDbCircle
 10
4.3150436399
 20
8.5790680524
 30
0.0
 40
0.5
100
AcDbArc
 50
270.0
 51
323.1301023542
  0
ARC
  5
B8
330
1F
100
AcDbEntity
  8
0
  6
Continuous
 62
     7
370
    15
100
AcDbCircle
 10
4.8150436399
 20
8.2040680524
 30
0.0
 40
0.1250000000000011
100
AcDbArc
 50
36.8698976458
 51
143.1301023542
  0
ARC
  5
B9
330
1F
100
AcDbEntity
  8
0
  6
Continuous
 62
     7
370
    15
100
AcDbCircle
 10
5.3150436399
 20
8.5790680524
 30
0.0
 40
0.5
100
AcDbArc
 50
216.8698976458
 51
270.0
  0
LINE
  5
BA
330
1F
100
AcDbEntity
  8
0
  6
Continuous
 62
     7
370
    15
100
AcDbLine
 10
5.3150436512
 20
8.0790680254
 30
0.0
 11
7.8150437309
 21
8.0790680254
 31
0.0
  0
ARC
  5
BB
330
1F
100
AcDbEntity
  8
0
  6
Continuous
 62
     7
370
    15
100
AcDbCircle
 10
7.8150436399
 20
8.5790680524
 30
0.0
 40
0.5
100
AcDbArc
 50
270.0
 51
323.1301023542
  0
ARC
  5
BC
330
1F
100
AcDbEntity
  8
0
  6
Continuous
 62
     7
370
    15
100
AcDbCircle
 10
8.3150436399
 20
8.2040680524
 30
0.0
 40
0.1250000000000007
100
AcDbArc
 50
36.8698976458
 51
143.1301023542
  0
ARC
  5
BD
330
1F
100
AcDbEntity
  8
0
  6
Continuous
 62
     7
370
    15
100
AcDbCircle
 10
8.8150436399
 20
8.5790680524
 30
0.0
 40
0.5
100
AcDbArc
 50
216.8698976458
 51
270.0
  0
LINE
  5
BE
330
1F
100
AcDbEntity
  8
0
  6
Continuous
 62
     7
370
    15
100
AcDbLine
 10
8.8150436455
 20
8.0790680254
 30
0.0
 11
11.315043652
 21
8.0790680254
 31
0.0
  0
ARC
  5
BF
330
1F
100
AcDbEntity
  8
0
  6
Continuous
 62
     7
370
    15
100
AcDbCircle
 10
11.3150436399
 20
8.5790680524
 30
0.0
 40
0.5000000000000007
100
AcDbArc
 50
270.0
 51
323.1301023542
  0
ARC
  5
C0
330
1F
100
AcDbEntity
  8
0
  6
Continuous
 62
     7
370
    15
100
AcDbCircle
 10
11.8150436399
 20
8.2040680524
 30
0.0
 40
0.1249999999999993
100
AcDbArc
 50
36.8698976458
 51
143.1301023542
  0
ARC
  5
C1
330
1F
100
AcDbEntity
  8
0
  6
Continuous
 62
     7
370
    15
100
AcDbCircle
 10
12.3150436399
 20
8.5790680524
 30
0.0
 40
0.500000000000001
100
AcDbArc
 50
216.8698976458
 51
270.0
  0
ARC
  5
C2
330
1F
100
AcDbEntity
  8
0
  6
Continuous
 62
     7
370
    15
100
AcDbCircle
 10
12.3150436399
 20
9.4790680524
 30
0.0
 40
1.4
100
AcDbArc
 50
270.0
 51
90.0
  0
ARC
  5
C3
330
1F
100
AcDbEntity
  8
0
  6
Continuous
 62
     7
370
    15
100
AcDbCircle
 10
12.3150436399
 20
10.3790680524
 30
0.0
 40
0.5000000000000021
100
AcDbArc
 50
90.0
 51
143.1301023542
  0
ARC
  5
C4
330
1F
100
AcDbEntity
  8
0
  6
Continuous
 62
     7
370
    15
100
AcDbCircle
 10
11.8150436399
 20
10.7540680524
 30
0.0
 40
0.1249999999999993
100
AcDbArc
 50
216.8698976458
 51
323.1301023542
  0
ARC
  5
C5
330
1F
100
AcDbEntity
  8
0
  6
Continuous
 62
     7
370
    15
100
AcDbCircle
 10
11.3150436399
 20
10.3790680524
 30
0.0
 40
0.5000000000000018
100
AcDbArc
 50
36.8698976458
 51
90.0
  0
LINE
  5
C6
330
1F
100
AcDbEntity
  8
0
  6
Continuous
 62
     7
370
    15
100
AcDbLine
 10
11.315043652
 20
10.8790680795
 30
0.0
 11
8.8150436455
 21
10.8790680795
 31
0.0
  0
ARC
  5
C7
330
1F
100
AcDbEntity
  8
0
  6
Continuous
 62
     7
370
    15
100
AcDbCircle
 10
8.8150436399
 20
10.3790680524
 30
0.0
 40
0.5000000000000018
100
AcDbArc
 50
90.0
 51
143.1301023542
  0
ARC
  5
C8
330
1F
100
AcDbEntity
  8
0
  6
Continuous
 62
     7
370
    15
100
AcDbCircle
 10
8.3150436399
 20
10.7540680524
 30
0.0
 40
0.1250000000000007
100
AcDbArc
 50
216.8698976458
 51
323.1301023542
  0
ARC
  5
C9
330
1F
100
AcDbEntity
  8
0
  6
Continuous
 62
     7
370
    15
100
AcDbCircle
 10
7.8150436399
 20
10.3790680524
 30
0.0
 40
0.5000000000000018
100
AcDbArc
 50
36.8698976458
 51
90.0
  0
LINE
  5
CA
330
1F
100
AcDbEntity
  8
0
  6
Continuous
 62
     7
370
    15
100
AcDbLine
 10
7.8150437309
 20
10.8790680795
 30
0.0
 11
5.3150436512
 21
10.8790680795
 31
0.0
  0
ARC
  5
CB
330
1F
100
AcDbEntity
  8
0
  6
Continuous
 62
     7
370
    15
100
AcDbCircle
 10
5.3150436399
 20
10.3790680524
 30
0.0
 40
0.5
100
AcDbArc
 50
90.0
 51
143.1301023542
  0
ARC
  5
CC
330
1F
100
AcDbEntity
  8
0
  6
Continuous
 62
     7
370
    15
100
AcDbCircle
 10
4.8150436399
 20
10.7540680524
 30
0.0
 40
0.125
100
AcDbArc
 50
216.8698976458
 51
323.1301023542
  0
ARC
  5
CD
330
1F
100
AcDbEntity
  8
0
  6
Continuous
 62
     7
370
    15
100
AcDbCircle
 10
4.3150436399
 20
10.3790680524
 30
0.0
 40
0.5
100
AcDbArc
 50
36.8698976458
 51
90.0
  0
LINE
  5
CE
330
1F
100
AcDbEntity
  8
0
  6
Continuous
 62
     7
370
    15
100
AcDbLine
 10
4.3150437366
 20
10.8790680795
 30
0.0
 11
4.1150437537
 21
10.8790680795
 31
0.0
  0
ARC
  5
CF
330
1F
100
AcDbEntity
  8
0
  6
Continuous
 62
     7
370
    15
100
AcDbCircle
 10
4.1150436399
 20
10.3790680524
 30
0.0
 40
0.5
100
AcDbArc
 50
90.0
 51
180.0
  0
LINE
  5
D0
330
1F
100
AcDbEntity
  8
0
  6
Continuous
 62
     7
370
    15
100
AcDbLine
 10
3.615043503
 20
10.3790680489
 30
0.0
 11
3.615043503
 21
10.1665680304
 31
0.0
  0
ARC
  5
D1
330
1F
100
AcDbEntity
  8
0
  6
Continuous
 62
     7
370
    15
100
AcDbCircle
 10
3.6150436399
 20
9.9165680524
 30
0.0
 40
0.25
100
AcDbArc
 50
90.0
 51
180.0
  0
LINE
  5
D2
330
1F
100
AcDbEntity
  8
0
  6
Continuous
 62
     7
370
    15
100
AcDbLine
 10
3.3650436711
 20
9.9165680517
 30
0.0
 11
3.3650436711
 21
9.0415680531
 31
0.0
  0
ARC
  5
D3
330
1F
100
AcDbEntity
  8
0
  6
Continuous
 62
     7
370
    15
100
AcDbCircle
 10
3.6150436399
 20
9.0415680524
 30
0.0
 40
0.25
100
AcDbArc
 50
180.0
 51
270.0
  0
CIRCLE
  5
D4
330
1F
100
AcDbEntity
  8
0
  6
Continuous
 62
     7
370
    15
100
AcDbCircle
 10
1.8150436399
 20
9.4790680524
 30
0.0
 40
0.8360000000000003
  0
ARC
  5
D5
330
1F
100
AcDbEntity
  8
0
  6
Continuous
 62
     7
370
    15
100
AcDbCircle
 10
8.8150436399
 20
10.3790680524
 30
0.0
 40
0.3125000000000018
100
AcDbArc
 50
90.0
 51
143.1301023542
  0
LWPOLYLINE
  5
D6
330
1F
100
AcDbEntity
  8
0
  6
Continuous
 62
     7
370
    15
100
AcDbPolyline
 90
        9
 70
   128
 43
0.0
 10
8.5650435202
 20
10.5665680696
 10
8.5357800449
 20
10.5885157493
 10
8.5076411967
 20
10.6096199589
 10
8.4817081896
 20
10.6290697142
 10
8.4589777588
 20
10.6461175373
 10
8.4403231477
 20
10.660108349
 10
8.4264618411
 20
10.6705044755
 10
8.4179259397
 20
10.6769064016
 10
8.4150436797
 20
10.6790680233
  0
LINE
  5
D7
330
1F
100
AcDbEntity
  8
0
  6
Continuous
 62
     7
370
    15
100
AcDbLine
 10
8.8150436455
 20
10.6915680589
 30
0.0
 11
8.8150436455
 21
10.8790680795
 31
0.0
  0
LINE
  5
D8
330
1F
100
AcDbEntity
  8
0
  6
Continuous
 62
     7
370
    15
100
AcDbLine
 10
4.3150437366
 20
10.8790680795
 30
0.0
 11
4.3150437366
 21
10.6915680589
 31
0.0
  0
LINE
  5
D9
330
1F
100
AcDbEntity
  8
0
  6
Continuous
 62
     7
370
    15
100
AcDbLine
 10
4.3150437366
 20
10.6915680589
 30
0.0
 11
4.1150437537
 21
10.6915680589
 31
0.0
  0
LINE
  5
DA
330
1F
100
AcDbEntity
  8
0
  6
Continuous
 62
     7
370
    15
100
AcDbLine
 10
4.1150437537
 20
10.8790680795
 30
0.0
 11
4.1150437537
 21
10.6915680589
 31
0.0
  0
ARC
  5
DB
330
1F
100
AcDbEntity
  8
0
  6
Continuous
 62
     7
370
    15
100
AcDbCircle
 10
12.3150436399
 20
9.4790680524
 30
0.0
 40
1.2125
100
AcDbArc
 50
270.0
 51
90.0
  0
LINE
  5
DC
330
1F
100
AcDbEntity
  8
0
  6
Continuous
 62
     7
370
    15
100
AcDbLine
 10
12.3150436399
 20
10.6915680589
 30
0.0
 11
12.3150436399
 21
10.8790680795
 31
0.0
  0
LINE
  5
DD
330
1F
100
AcDbEntity
  8
0
  6
Continuous
 62
     7
370
    15
100
AcDbLine
 10
12.3150436399
 20
8.266568046
 30
0.0
 11
12.3150436399
 21
8.0790680254
 31
0.0
  0
ARC
  5
DE
330
1F
100
AcDbEntity
  8
0
  6
Continuous
 62
     7
370
    15
100
AcDbCircle
 10
11.3150436399
 20
10.3790680524
 30
0.0
 40
0.3124999999999986
100
AcDbArc
 50
36.8698976458
 51
90.0
  0
LINE
  5
DF
330
1F
100
AcDbEntity
  8
0
  6
Continuous
 62
     7
370
    15
100
AcDbLine
 10
11.315043652
 20
10.6915680589
 30
0.0
 11
11.315043652
 21
10.8790680795
 31
0.0
  0
LWPOLYLINE
  5
E0
330
1F
100
AcDbEntity
  8
0
  6
Continuous
 62
     7
370
    15
100
AcDbPolyline
 90
        9
 70
   128
 43
0.0
 10
11.5650436306
 20
10.5665680696
 10
11.5943071792
 20
10.5885157493
 10
11.6224461742
 20
10.6096199589
 10
11.6483791813
 20
10.6290697142
 10
11.6711096853
 20
10.6461175373
 10
11.6897640765
 20
10.660108349
 10
11.7036255664
 20
10.6705044755
 10
11.7121614311
 20
10.6769064016
 10
11.7150436545
 20
10.6790680233
  0
ARC
  5
E1
330
1F
100
AcDbEntity
  8
0
  6
Continuous
 62
     7
370
    15
100
AcDbCircle
 10
7.8150436399
 20
10.3790680524
 30
0.0
 40
0.3125000000000018
100
AcDbArc
 50
36.8698976458
 51
90.0
  0
LINE
  5
E2
330
1F
100
AcDbEntity
  8
0
  6
Continuous
 62
     7
370
    15
100
AcDbLine
 10
7.8150437309
 20
10.8790680795
 30
0.0
 11
7.8150437309
 21
10.6915680589
 31
0.0
  0
LWPOLYLINE
  5
E3
330
1F
100
AcDbEntity
  8
0
  6
Continuous
 62
     7
370
    15
100
AcDbPolyline
 90
        9
 70
   128
 43
0.0
 10
8.0650435629
 20
10.5665680696
 10
8.0943073315
 20
10.5885157493
 10
8.1224461798
 20
10.6096199589
 10
8.1483791869
 20
10.6290697142
 10
8.1711096176
 20
10.6461175373
 10
8.1897639355
 20
10.660108349
 10
8.2036255353
 20
10.6705044755
 10
8.2121614367
 20
10.6769064016
 10
8.2150436968
 20
10.6790680233
  0
ARC
  5
E4
330
1F
100
AcDbEntity
  8
0
  6
Continuous
 62
     7
370
    15
100
AcDbCircle
 10
4.1150436399
 20
10.3790680524
 30
0.0
 40
0.3125
100
AcDbArc
 50
90.0
 51
180.0
  0
LINE
  5
E5
330
1F
100
AcDbEntity
  8
0
  6
Continuous
 62
     7
370
    15
100
AcDbLine
 10
3.615043503
 20
10.3790680489
 30
0.0
 11
3.8025435237
 21
10.3790680489
 31
0.0
  0
LWPOLYLINE
  5
E6
330
1F
100
AcDbEntity
  8
0
  6
Continuous
 62
     7
370
    15
100
AcDbPolyline
 90
        9
 70
   128
 43
0.0
 10
4.7150437024
 20
10.6790680233
 10
4.7121614424
 20
10.6769064016
 10
4.703625541
 20
10.6705044755
 10
4.6897639411
 20
10.660108349
 10
4.6711099166
 20
10.6461175373
 10
4.6483791925
 20
10.6290697142
 10
4.6224458921
 20
10.6096199589
 10
4.5943073372
 20
10.5885157493
 10
4.5650435686
 20
10.5665680696
  0
ARC
  5
E7
330
1F
100
AcDbEntity
  8
0
  6
Continuous
 62
     7
370
    15
100
AcDbCircle
 10
4.3150436399
 20
10.3790680524
 30
0.0
 40
0.3125
100
AcDbArc
 50
36.8698976458
 51
90.0
  0
LINE
  5
E8
330
1F
100
AcDbEntity
  8
0
  6
Continuous
 62
     7
370
    15
100
AcDbLine
 10
11.315043652
 20
10.6915680589
 30
0.0
 11
8.8150436455
 21
10.6915680589
 31
0.0
  0
LINE
  5
E9
330
1F
100
AcDbEntity
  8
0
  6
Continuous
 62
     7
370
    15
100
AcDbLine
 10
5.3150436512
 20
10.8790680795
 30
0.0
 11
5.3150436512
 21
10.6915680589
 31
0.0
  0
ARC
  5
EA
330
1F
100
AcDbEntity
  8
0
  6
Continuous
 62
     7
370
    15
100
AcDbCircle
 10
5.3150436399
 20
10.3790680524
 30
0.0
 40
0.3125
100
AcDbArc
 50
90.0
 51
143.1301023542
  0
LWPOLYLINE
  5
EB
330
1F
100
AcDbEntity
  8
0
  6
Continuous
 62
     7
370
    15
100
AcDbPolyline
 90
        9
 70
   128
 43
0.0
 10
4.9150436853
 20
10.6790680233
 10
4.9179259454
 20
10.6769064016
 10
4.9264618468
 20
10.6705044755
 10
4.9403234466
 20
10.660108349
 10
4.9589774711
 20
10.6461175373
 10
4.9817081952
 20
10.6290697142
 10
5.007640909
 20
10.6096199589
 10
5.0357800506
 20
10.5885157493
 10
5.0650438192
 20
10.5665680696
  0
LINE
  5
EC
330
1F
100
AcDbEntity
  8
0
  6
Continuous
 62
     7
370
    15
100
AcDbLine
 10
7.8150437309
 20
10.6915680589
 30
0.0
 11
5.3150436512
 21
10.6915680589
 31
0.0
  0
ARC
  5
ED
330
1F
100
AcDbEntity
  8
0
  6
Continuous
 62
     7
370
    15
100
AcDbCircle
 10
12.3150436399
 20
10.3790680524
 30
0.0
 40
0.3125000000000018
100
AcDbArc
 50
90.0
 51
143.1301023542
  0
LWPOLYLINE
  5
EE
330
1F
100
AcDbEntity
  8
0
  6
Continuous
 62
     7
370
    15
100
AcDbPolyline
 90
        9
 70
   128
 43
0.0
 10
12.0650436429
 20
10.5665680696
 10
12.0357800943
 20
10.5885157493
 10
12.0076411177
 20
10.6096199589
 10
11.9817081106
 20
10.6290697142
 10
11.9589776065
 20
10.6461175373
 10
11.9403232154
 20
10.660108349
 10
11.9264617255
 20
10.6705044755
 10
11.9179258608
 20
10.6769064016
 10
11.9150436374
 20
10.6790680233
  0
ARC
  5
EF
330
1F
100
AcDbEntity
  8
0
  6
Continuous
 62
     7
370
    15
100
AcDbCircle
 10
11.8150436399
 20
10.7540680524
 30
0.0
 40
0.3125000000000014
100
AcDbArc
 50
216.8698976458
 51
323.1301023542
  0
ARC
  5
F0
330
1F
100
AcDbEntity
  8
0
  6
Continuous
 62
     7
370
    15
100
AcDbCircle
 10
4.8150436399
 20
10.7540680524
 30
0.0
 40
0.3124999999999997
100
AcDbArc
 50
216.8698976458
 51
323.1301023542
  0
ARC
  5
F1
330
1F
100
AcDbEntity
  8
0
  6
Continuous
 62
     7
370
    15
100
AcDbCircle
 10
8.3150436399
 20
10.7540680524
 30
0.0
 40
0.3125000000000003
100
AcDbArc
 50
216.8698976458
 51
323.1301023542
  0
LINE
  5
F2
330
1F
100
AcDbEntity
  8
0
  6
Continuous
 62
     7
370
    15
100
AcDbLine
 10
3.8025435237
 20
10.3790680489
 30
0.0
 11
3.8025435237
 21
10.354068051
 31
0.0
  0
LINE
  5
F3
330
1F
100
AcDbEntity
  8
0
  6
Continuous
 62
     7
370
    15
100
AcDbLine
 10
3.8025435237
 20
10.354068051
 30
0.0
 11
3.8025435237
 21
10.2915680197
 31
0.0
  0
SPLINE
  5
F4
330
1F
100
AcDbEntity
  8
0
  6
Continuous
 62
     7
370
    15
100
AcDbSpline
210
0.0
220
0.0
230
1.0
 70
     8
 71
     3
 72
    22
 73
    18
 74
     0
 42
0.00000001
 43
0.00000001
 40
0.0
 40
0.0
 40
0.0
 40
0.0
 40
0.125
 40
0.125
 40
0.25
 40
0.25
 40
0.375
 40
0.375
 40
0.5
 40
0.5
 40
0.625
 40
0.625
 40
0.75
 40
0.75
 40
0.875
 40
0.875
 40
1.0
 40
1.0
 40
1.0
 40
1.0
 10
3.677543639894803
 20
10.16656805244338
 30
0.0
 10
3.683971367506092
 20
10.16656805244338
 30
0.0
 10
3.690906083390305
 20
10.16707641985598
 30
0.0
 10
3.705095681883768
 20
10.16943039869694
 30
0.0
 10
3.712394898882217
 20
10.17126422239062
 30
0.0
 10
3.727288039446
 20
10.17661973148277
 30
0.0
 10
3.734642707503197
 20
10.18006581744009
 30
0.0
 10
3.748800826848305
 20
10.1885366725635
 30
0.0
 10
3.755718642758261
 20
10.19365737704667
 30
0.0
 10
3.768300539352567
 20
10.20519087588524
 30
0.0
 10
3.774006675756945
 20
10.21159655014993
 30
0.0
 10
3.784147055171136
 20
10.22571768935984
 30
0.0
 10
3.788439861730359
 20
10.23324597982432
 30
0.0
 10
3.795401008613977
 20
10.24903480884997
 30
0.0
 10
3.798096342178674
 20
10.25741267558024
 30
0.0
 10
3.801647426314465
 20
10.27431134380849
 30
0.0
 10
3.802543639894802
 20
10.2828792914466
 30
0.0
 10
3.802543639894803
 20
10.29156805244338
 30
0.0
  0
LINE
  5
F5
330
1F
100
AcDbEntity
  8
0
  6
Continuous
 62
     7
370
    15
100
AcDbLine
 10
3.615043503
 20
10.1665680304
 30
0.0
 11
3.677543901
 21
10.1665680304
 31
0.0
  0
LINE
  5
F6
330
1F
100
AcDbEntity
  8
0
  6
Continuous
 62
     7
370
    15
100
AcDbLine
 10
3.8025435237
 20
8.6040680539
 30
0.0
 11
3.8025435237
 21
8.579068056
 31
0.0
  0
LINE
  5
F7
330
1F
100
AcDbEntity
  8
0
  6
Continuous
 62
     7
370
    15
100
AcDbLine
 10
3.615043503
 20
8.579068056
 30
0.0
 11
3.8025435237
 21
8.579068056
 31
0.0
  0
SPLINE
  5
F8
330
1F
100
AcDbEntity
  8
0
  6
Continuous
 62
     7
370
    15
100
AcDbSpline
210
0.0
220
0.0
230
1.0
 70
     8
 71
     3
 72
    22
 73
    18
 74
     0
 42
0.00000001
 43
0.00000001
 40
0.0
 40
0.0
 40
0.0
 40
0.0
 40
0.1249999999999998
 40
0.1249999999999998
 40
0.2499999999999996
 40
0.2499999999999996
 40
0.3749999999999993
 40
0.3749999999999993
 40
0.4999999999999991
 40
0.4999999999999991
 40
0.6249999999999989
 40
0.6249999999999989
 40
0.7499999999999987
 40
0.7499999999999987
 40
0.8749999999999993
 40
0.8749999999999993
 40
1.0
 40
1.0
 40
1.0
 40
1.0
 10
3.802543639894803
 20
8.666568052443383
 30
0.0
 10
3.802543639894803
 20
8.675255513826936
 30
0.0
 10
3.801631762099094
 20
8.683922838063829
 30
0.0
 10
3.798082931980663
 20
8.700763515878732
 30
0.0
 10
3.795406297093616
 20
8.709094412098159
 30
0.0
 10
3.788410528482066
 20
8.72495152820863
 30
0.0
 10
3.78414335466462
 20
8.73241360701735
 30
0.0
 10
3.774108259574787
 20
8.74640795770522
 30
0.0
 10
3.768287440086201
 20
8.75295470355149
 30
0.0
 10
3.755772203284915
 20
8.764432155324718
 30
0.0
 10
3.74901040727217
 20
8.769464861122318
 30
0.0
 10
3.734633278149295
 20
8.778084980663502
 30
0.0
 10
3.727305681397264
 20
8.781503461670924
 30
0.0
 10
3.712561614469112
 20
8.786818418453253
 30
0.0
 10
3.70509844982575
 20
8.788705694652027
 30
0.0
 10
3.690888184808213
 20
8.791062206184318
 30
0.0
 10
3.68402713800655
 20
8.791568052443383
 30
0.0
 10
3.677543639894803
 20
8.791568052443383
 30
0.0
  0
LINE
  5
F9
330
1F
100
AcDbEntity
  8
0
  6
Continuous
 62
     7
370
    15
100
AcDbLine
 10
3.8025435237
 20
8.6665680852
 30
0.0
 11
3.8025435237
 21
8.6040680539
 31
0.0
  0
LINE
  5
FA
330
1F
100
AcDbEntity
  8
0
  6
Continuous
 62
     7
370
    15
100
AcDbLine
 10
3.677543901
 20
8.7915680745
 30
0.0
 11
3.615043503
 21
8.7915680745
 31
0.0
  0
ARC
  5
FB
330
1F
100
AcDbEntity
  8
0
  6
Continuous
 62
     7
370
    15
100
AcDbCircle
 10
4.1150436399
 20
8.5790680524
 30
0.0
 40
0.3125
100
AcDbArc
 50
180.0
 51
270.0
  0
LINE
  5
FC
330
1F
100
AcDbEntity
  8
0
  6
Continuous
 62
     7
370
    15
100
AcDbLine
 10
4.1150437537
 20
8.0790680254
 30
0.0
 11
4.1150437537
 21
8.266568046
 31
0.0
  0
ARC
  5
FD
330
1F
100
AcDbEntity
  8
0
  6
Continuous
 62
     7
370
    15
100
AcDbCircle
 10
11.8150436399
 20
8.2040680524
 30
0.0
 40
0.3124999999999989
100
AcDbArc
 50
36.8698976458
 51
143.1301023542
  0
LWPOLYLINE
  5
FE
330
1F
100
AcDbEntity
  8
0
  6
Continuous
 62
     7
370
    15
100
AcDbPolyline
 90
        9
 70
   128
 43
0.0
 10
12.0650436429
 20
8.3915680353
 10
12.0357800943
 20
8.3696203555
 10
12.0076411177
 20
8.348516146
 10
11.9817081106
 20
8.3290663907
 10
11.9589776065
 20
8.3120185676
 10
11.9403232154
 20
8.2980277559
 10
11.9264617255
 20
8.2876316294
 10
11.9179258608
 20
8.2812297033
 10
11.9150436374
 20
8.2790680816
  0
LWPOLYLINE
  5
FF
330
1F
100
AcDbEntity
  8
0
  6
Continuous
 62
     7
370
    15
100
AcDbPolyline
 90
        9
 70
   128
 43
0.0
 10
11.5650436306
 20
8.3915680353
 10
11.5943071792
 20
8.3696203555
 10
11.6224461742
 20
8.348516146
 10
11.6483791813
 20
8.3290663907
 10
11.6711096853
 20
8.3120185676
 10
11.6897640765
 20
8.2980277559
 10
11.7036255664
 20
8.2876316294
 10
11.7121614311
 20
8.2812297033
 10
11.7150436545
 20
8.2790680816
  0
ARC
  5
100
330
1F
100
AcDbEntity
  8
0
  6
Continuous
 62
     7
370
    15
100
AcDbCircle
 10
8.3150436399
 20
8.2040680524
 30
0.0
 40
0.3125000000000003
100
AcDbArc
 50
36.8698976458
 51
143.1301023542
  0
LWPOLYLINE
  5
101
330
1F
100
AcDbEntity
  8
0
  6
Continuous
 62
     7
370
    15
100
AcDbPolyline
 90
        9
 70
   128
 43
0.0
 10
8.5650435202
 20
8.3915680353
 10
8.5357800449
 20
8.3696203555
 10
8.5076411967
 20
8.348516146
 10
8.4817081896
 20
8.3290663907
 10
8.4589777588
 20
8.3120185676
 10
8.4403231477
 20
8.2980277559
 10
8.4264618411
 20
8.2876316294
 10
8.4179259397
 20
8.2812297033
 10
8.4150436797
 20
8.2790680816
  0
LWPOLYLINE
  5
102
330
1F
100
AcDbEntity
  8
0
  6
Continuous
 62
     7
370
    15
100
AcDbPolyline
 90
        9
 70
   128
 43
0.0
 10
8.0650435629
 20
8.3915680353
 10
8.0943073315
 20
8.3696203555
 10
8.1224461798
 20
8.348516146
 10
8.1483791869
 20
8.3290663907
 10
8.1711096176
 20
8.3120185676
 10
8.1897639355
 20
8.2980277559
 10
8.2036255353
 20
8.2876316294
 10
8.2121614367
 20
8.2812297033
 10
8.2150436968
 20
8.2790680816
  0
LWPOLYLINE
  5
103
330
1F
100
AcDbEntity
  8
0
  6
Continuous
 62
     7
370
    15
100
AcDbPolyline
 90
        9
 70
   128
 43
0.0
 10
4.7150437024
 20
8.2790680816
 10
4.7121614424
 20
8.2812297033
 10
4.703625541
 20
8.2876316294
 10
4.6897639411
 20
8.2980277559
 10
4.6711099166
 20
8.3120185676
 10
4.6483791925
 20
8.3290663907
 10
4.6224458921
 20
8.348516146
 10
4.5943073372
 20
8.3696203555
 10
4.5650435686
 20
8.3915680353
  0
ARC
  5
104
330
1F
100
AcDbEntity
  8
0
  6
Continuous
 62
     7
370
    15
100
AcDbCircle
 10
4.8150436399
 20
8.2040680524
 30
0.0
 40
0.3125000000000007
100
AcDbArc
 50
36.8698976458
 51
143.1301023542
  0
LWPOLYLINE
  5
105
330
1F
100
AcDbEntity
  8
0
  6
Continuous
 62
     7
370
    15
100
AcDbPolyline
 90
        9
 70
   128
 43
0.0
 10
4.9150436853
 20
8.2790680816
 10
4.9179259454
 20
8.2812297033
 10
4.9264618468
 20
8.2876316294
 10
4.9403234466
 20
8.2980277559
 10
4.9589774711
 20
8.3120185676
 10
4.9817081952
 20
8.3290663907
 10
5.007640909
 20
8.348516146
 10
5.0357800506
 20
8.3696203555
 10
5.0650438192
 20
8.3915680353
  0
LINE
  5
106
330
1F
100
AcDbEntity
  8
0
  6
Continuous
 62
     7
370
    15
100
AcDbLine
 10
4.3150437366
 20
8.0790680254
 30
0.0
 11
4.3150437366
 21
8.266568046
 31
0.0
  0
ARC
  5
107
330
1F
100
AcDbEntity
  8
0
  6
Continuous
 62
     7
370
    15
100
AcDbCircle
 10
4.3150436399
 20
8.5790680524
 30
0.0
 40
0.3125
100
AcDbArc
 50
270.0
 51
323.1301023542
  0
ARC
  5
108
330
1F
100
AcDbEntity
  8
0
  6
Continuous
 62
     7
370
    15
100
AcDbCircle
 10
12.3150436399
 20
8.5790680524
 30
0.0
 40
0.3125000000000014
100
AcDbArc
 50
216.8698976458
 51
270.0
  0
ARC
  5
109
330
1F
100
AcDbEntity
  8
0
  6
Continuous
 62
     7
370
    15
100
AcDbCircle
 10
7.8150436399
 20
8.5790680524
 30
0.0
 40
0.3125
100
AcDbArc
 50
270.0
 51
323.1301023542
  0
LINE
  5
10A
330
1F
100
AcDbEntity
  8
0
  6
Continuous
 62
     7
370
    15
100
AcDbLine
 10
7.8150437309
 20
8.0790680254
 30
0.0
 11
7.8150437309
 21
8.266568046
 31
0.0
  0
ARC
  5
10B
330
1F
100
AcDbEntity
  8
0
  6
Continuous
 62
     7
370
    15
100
AcDbCircle
 10
5.3150436399
 20
8.5790680524
 30
0.0
 40
0.3125
100
AcDbArc
 50
216.8698976458
 51
270.0
  0
LINE
  5
10C
330
1F
100
AcDbEntity
  8
0
  6
Continuous
 62
     7
370
    15
100
AcDbLine
 10
5.3150436512
 20
8.0790680254
 30
0.0
 11
5.3150436512
 21
8.266568046
 31
0.0
  0
ARC
  5
10D
330
1F
100
AcDbEntity
  8
0
  6
Continuous
 62
     7
370
    15
100
AcDbCircle
 10
11.3150436399
 20
8.5790680524
 30
0.0
 40
0.3125
100
AcDbArc
 50
270.0
 51
323.1301023542
  0
LINE
  5
10E
330
1F
100
AcDbEntity
  8
0
  6
Continuous
 62
     7
370
    15
100
AcDbLine
 10
11.315043652
 20
8.266568046
 30
0.0
 11
11.315043652
 21
8.0790680254
 31
0.0
  0
ARC
  5
10F
330
1F
100
AcDbEntity
  8
0
  6
Continuous
 62
     7
370
    15
100
AcDbCircle
 10
8.8150436399
 20
8.5790680524
 30
0.0
 40
0.3125
100
AcDbArc
 50
216.8698976458
 51
270.0
  0
LINE
  5
110
330
1F
100
AcDbEntity
  8
0
  6
Continuous
 62
     7
370
    15
100
AcDbLine
 10
8.8150436455
 20
8.266568046
 30
0.0
 11
8.8150436455
 21
8.0790680254
 31
0.0
  0
LINE
  5
111
330
1F
100
AcDbEntity
  8
0
  6
Continuous
 62
     7
370
    15
100
AcDbLine
 10
8.8150436455
 20
8.266568046
 30
0.0
 11
11.315043652
 21
8.266568046
 31
0.0
  0
LINE
  5
112
330
1F
100
AcDbEntity
  8
0
  6
Continuous
 62
     7
370
    15
100
AcDbLine
 10
4.1150437537
 20
8.266568046
 30
0.0
 11
4.3150437366
 21
8.266568046
 31
0.0
  0
LINE
  5
113
330
1F
100
AcDbEntity
  8
0
  6
Continuous
 62
     7
370
    15
100
AcDbLine
 10
5.3150436512
 20
8.266568046
 30
0.0
 11
7.8150437309
 21
8.266568046
 31
0.0
  0
CIRCLE
  5
114
330
1F
100
AcDbEntity
  8
0
  6
Continuous
 62
     7
370
    15
100
AcDbCircle
 10
12.3150436399
 20
10.148359391
 30
0.0
 40
0.0794999999999977
  0
CIRCLE
  5
115
330
1F
100
AcDbEntity
  8
0
  6
Continuous
 62
     7
370
    15
100
AcDbCircle
 10
12.3150436399
 20
9.4790680524
 30
0.0
 40
0.3755000000000006
  0
CIRCLE
  5
116
330
1F
100
AcDbEntity
  8
0
  6
Continuous
 62
     7
370
    15
100
AcDbCircle
 10
12.3150436399
 20
8.8097767139
 30
0.0
 40
0.0794999999999995
  0
CIRCLE
  5
117
330
1F
100
AcDbEntity
  8
0
  6
Continuous
 62
     7
370
    15
100
AcDbCircle
 10
11.7354203381
 20
9.8137137217
 30
0.0
 40
0.0795000000000012
  0
CIRCLE
  5
118
330
1F
100
AcDbEntity
  8
0
  6
Continuous
 62
     7
370
    15
100
AcDbCircle
 10
11.7354203381
 20
9.1444223832
 30
0.0
 40
0.0794999999999995
  0
CIRCLE
  5
119
330
1F
100
AcDbEntity
  8
0
  6
Continuous
 62
     7
370
    15
100
AcDbCircle
 10
12.8946669416
 20
9.8137137217
 30
0.0
 40
0.0795000000000012
  0
CIRCLE
  5
11A
330
1F
100
AcDbEntity
  8
0
  6
Continuous
 62
     7
370
    15
100
AcDbCircle
 10
12.8946669416
 20
9.1444223832
 30
0.0
 40
0.0795000000000012
  0
LINE
  5
11B
330
1F
100
AcDbEntity
  8
0
  6
Continuous
 62
     7
370
    15
100
AcDbLine
 10
4.0525433557
 20
8.3540680752
 30
0.0
 11
4.3400436611
 21
8.3540680752
 31
0.0
  0
ARC
  5
11C
330
1F
100
AcDbEntity
  8
0
  6
Continuous
 62
     7
370
    15
100
AcDbCircle
 10
4.3400436399
 20
8.6040680524
 30
0.0
 40
0.25
100
AcDbArc
 50
270.0
 51
0.0
  0
LINE
  5
11D
330
1F
100
AcDbEntity
  8
0
  6
Continuous
 62
     7
370
    15
100
AcDbLine
 10
4.5900434931
 20
8.6040680539
 30
0.0
 11
4.5900434931
 21
10.354068051
 31
0.0
  0
ARC
  5
11E
330
1F
100
AcDbEntity
  8
0
  6
Continuous
 62
     7
370
    15
100
AcDbCircle
 10
4.3400436399
 20
10.3540680524
 30
0.0
 40
0.25
100
AcDbArc
 50
0.0
 51
90.0
  0
LINE
  5
11F
330
1F
100
AcDbEntity
  8
0
  6
Continuous
 62
     7
370
    15
100
AcDbLine
 10
4.3400436611
 20
10.6040680297
 30
0.0
 11
4.0525433557
 21
10.6040680297
 31
0.0
  0
ARC
  5
120
330
1F
100
AcDbEntity
  8
0
  6
Continuous
 62
     7
370
    15
100
AcDbCircle
 10
4.0525436399
 20
10.3540680524
 30
0.0
 40
0.2499999999999996
100
AcDbArc
 50
90.0
 51
180.0
  0
ARC
  5
121
330
1F
100
AcDbEntity
  8
0
  6
Continuous
 62
     7
370
    15
100
AcDbCircle
 10
4.0525436399
 20
8.6040680524
 30
0.0
 40
0.25
100
AcDbArc
 50
180.0
 51
270.0
  0
LINE
  5
122
330
1F
100
AcDbEntity
  8
0
  6
Continuous
 62
     7
370
    15
100
AcDbLine
 10
5.2900437266
 20
8.3540680752
 30
0.0
 11
7.8400436555
 21
8.3540680752
 31
0.0
  0
ARC
  5
123
330
1F
100
AcDbEntity
  8
0
  6
Continuous
 62
     7
370
    15
100
AcDbCircle
 10
7.8400436399
 20
8.6040680524
 30
0.0
 40
0.25
100
AcDbArc
 50
270.0
 51
0.0
  0
LINE
  5
124
330
1F
100
AcDbEntity
  8
0
  6
Continuous
 62
     7
370
    15
100
AcDbLine
 10
8.0900437808
 20
8.6040680539
 30
0.0
 11
8.0900437808
 21
10.354068051
 31
0.0
  0
ARC
  5
125
330
1F
100
AcDbEntity
  8
0
  6
Continuous
 62
     7
370
    15
100
AcDbCircle
 10
7.8400436399
 20
10.3540680524
 30
0.0
 40
0.2499999999999982
100
AcDbArc
 50
0.0
 51
90.0
  0
LINE
  5
126
330
1F
100
AcDbEntity
  8
0
  6
Continuous
 62
     7
370
    15
100
AcDbLine
 10
7.8400436555
 20
10.6040680297
 30
0.0
 11
5.2900437266
 21
10.6040680297
 31
0.0
  0
ARC
  5
127
330
1F
100
AcDbEntity
  8
0
  6
Continuous
 62
     7
370
    15
100
AcDbCircle
 10
5.2900436399
 20
10.3540680524
 30
0.0
 40
0.2499999999999991
100
AcDbArc
 50
90.0
 51
180.0
  0
LINE
  5
128
330
1F
100
AcDbEntity
  8
0
  6
Continuous
 62
     7
370
    15
100
AcDbLine
 10
5.0400438946
 20
10.354068051
 30
0.0
 11
5.0400438946
 21
8.6040680539
 31
0.0
  0
ARC
  5
129
330
1F
100
AcDbEntity
  8
0
  6
Continuous
 62
     7
370
    15
100
AcDbCircle
 10
5.2900436399
 20
8.6040680524
 30
0.0
 40
0.25
100
AcDbArc
 50
180.0
 51
270.0
  0
LINE
  5
12A
330
1F
100
AcDbEntity
  8
0
  6
Continuous
 62
     7
370
    15
100
AcDbLine
 10
8.790043721
 20
8.3540680752
 30
0.0
 11
11.3400436498
 21
8.3540680752
 31
0.0
  0
ARC
  5
12B
330
1F
100
AcDbEntity
  8
0
  6
Continuous
 62
     7
370
    15
100
AcDbCircle
 10
11.3400436399
 20
8.6040680524
 30
0.0
 40
0.25
100
AcDbArc
 50
270.0
 51
0.0
  0
LINE
  5
12C
330
1F
100
AcDbEntity
  8
0
  6
Continuous
 62
     7
370
    15
100
AcDbLine
 10
11.5900436285
 20
8.6040680539
 30
0.0
 11
11.5900436285
 21
10.354068051
 31
0.0
  0
ARC
  5
12D
330
1F
100
AcDbEntity
  8
0
  6
Continuous
 62
     7
370
    15
100
AcDbCircle
 10
11.3400436399
 20
10.3540680524
 30
0.0
 40
0.25
100
AcDbArc
 50
0.0
 51
90.0
  0
LINE
  5
12E
330
1F
100
AcDbEntity
  8
0
  6
Continuous
 62
     7
370
    15
100
AcDbLine
 10
11.3400436498
 20
10.6040680297
 30
0.0
 11
8.790043721
 21
10.6040680297
 31
0.0
  0
ARC
  5
12F
330
1F
100
AcDbEntity
  8
0
  6
Continuous
 62
     7
370
    15
100
AcDbCircle
 10
8.7900436399
 20
10.3540680524
 30
0.0
 40
0.25
100
AcDbArc
 50
90.0
 51
180.0
  0
LINE
  5
130
330
1F
100
AcDbEntity
  8
0
  6
Continuous
 62
     7
370
    15
100
AcDbLine
 10
8.5400435957
 20
10.354068051
 30
0.0
 11
8.5400435957
 21
8.6040680539
 31
0.0
  0
ARC
  5
131
330
1F
100
AcDbEntity
  8
0
  6
Continuous
 62
     7
370
    15
100
AcDbCircle
 10
8.7900436399
 20
8.6040680524
 30
0.0
 40
0.25
100
AcDbArc
 50
180.0
 51
270.0
  0
ARC
  5
132
330
1F
100
AcDbEntity
  8
0
  6
Continuous
 62
     7
370
    15
100
AcDbCircle
 10
3.0650436399
 20
9.4790680524
 30
0.0
 40
0.5250000000000012
100
AcDbArc
 50
304.849904579
 51
55.150095421
  0
CIRCLE
  5
133
330
1F
100
AcDbEntity
  8
0
  6
Continuous
 62
     7
370
    15
100
AcDbCircle
 10
1.8150436399
 20
9.4790680524
 30
0.0
 40
0.559000000000001
  0
CIRCLE
  5
134
330
1F
100
AcDbEntity
  8
0
  6
Continuous
 62
     7
370
    15
100
AcDbCircle
 10
1.1650436399
 20
9.4790680524
 30
0.0
 40
0.046875
  0
ARC
  5
135
330
1F
100
AcDbEntity
  8
0
  6
Continuous
 62
     7
370
    15
100
AcDbCircle
 10
3.0650436399
 20
9.4790680524
 30
0.0
 40
0.5250000000000015
100
AcDbArc
 50
150.2252057696
 51
209.7747942304
  0
LWPOLYLINE
  5
136
330
1F
100
AcDbEntity
  8
0
  6
Continuous
 62
     7
370
    15
100
AcDbPolyline
 90
        9
 70
   128
 43
0.0
 10
1.8241263252
 20
10.5415292055
 10
1.8241368851
 20
10.5428035041
 10
1.824169738
 20
10.5466090201
 10
1.8242237107
 20
10.5528940542
 10
1.8242976299
 20
10.5615731739
 10
1.8243914955
 20
10.5725283874
 10
1.8245029608
 20
10.5856107562
 10
1.824632026
 20
10.6006425226
 10
1.824775171
 20
10.6174193088
  0
SPLINE
  5
137
330
1F
100
AcDbEntity
  8
0
  6
Continuous
 62
     7
370
    15
100
AcDbSpline
210
0.0
220
0.0
230
1.0
 70
     8
 71
     3
 72
    14
 73
    10
 74
     0
 42
0.00000001
 43
0.00000001
 40
0.0
 40
0.0
 40
0.0
 40
0.0
 40
0.25
 40
0.25
 40
0.5
 40
0.5
 40
0.75
 40
0.75
 40
1.0
 40
1.0
 40
1.0
 40
1.0
 10
2.435226522366884
 20
10.43369437047962
 30
0.0
 10
2.387731703016992
 20
10.45850292640286
 30
0.0
 10
2.33908401108598
 20
10.48041830045931
 30
0.0
 10
2.240094563820609
 20
10.51989272075242
 30
0.0
 10
2.189734480094215
 20
10.53740616827339
 30
0.0
 10
2.087394395345552
 20
10.56822744017187
 30
0.0
 10
2.035375407561324
 20
10.58152949203435
 30
0.0
 10
1.930751839133734
 20
10.60331889045264
 30
0.0
 10
1.878021171980677
 20
10.61189807355964
 30
0.0
 10
1.824775118813371
 20
10.6174193143621
 30
0.0
  0
LWPOLYLINE
  5
138
330
1F
100
AcDbEntity
  8
0
  6
Continuous
 62
     7
370
    15
100
AcDbPolyline
 90
        9
 70
   128
 43
0.0
 10
2.3938810233
 20
10.3700524797
 10
2.3945756287
 20
10.3711210807
 10
2.3966488847
 20
10.3743123638
 10
2.4000726318
 20
10.379583063
 10
2.4048011105
 20
10.3868613855
 10
2.4107697882
 20
10.3960484794
 10
2.4178977059
 20
10.407019386
 10
2.4260863046
 20
10.4196250937
 10
2.4352264657
 20
10.4336942245
  0
LWPOLYLINE
  5
139
330
1F
100
AcDbEntity
  8
0
  6
Continuous
 62
     7
370
    15
100
AcDbPolyline
 90
        9
 70
   128
 43
0.0
 10
2.3938810233
 20
8.5880836252
 10
2.3945756287
 20
8.5870150242
 10
2.3966488847
 20
8.583823741
 10
2.4000726318
 20
8.5785530419
 10
2.4048011105
 20
8.5712747193
 10
2.4107697882
 20
8.5620876255
 10
2.4178977059
 20
8.5511167189
 10
2.4260863046
 20
8.5385110112
 10
2.4352264657
 20
8.5244418804
  0
SPLINE
  5
13A
330
1F
100
AcDbEntity
  8
0
  6
Continuous
 62
     7
370
    15
100
AcDbSpline
210
0.0
220
0.0
230
1.0
 70
     8
 71
     3
 72
    14
 73
    10
 74
     0
 42
0.00000001
 43
0.00000001
 40
0.0
 40
0.0
 40
0.0
 40
0.0
 40
0.25
 40
0.25
 40
0.5
 40
0.5
 40
0.75
 40
0.75
 40
1.0
 40
1.0
 40
1.0
 40
1.0
 10
1.824775118813375
 20
8.340716790524667
 30
0.0
 10
1.878073138405786
 20
8.346243419879505
 30
0.0
 10
1.930735667390688
 20
8.354818948927065
 30
0.0
 10
2.035068962204397
 20
8.376537704352003
 30
0.0
 10
2.086729844148169
 20
8.389729071233301
 30
0.0
 10
2.189081195183469
 20
8.420512906589565
 30
0.0
 10
2.239800990423198
 20
8.438131707528916
 30
0.0
 10
2.339071485515487
 20
8.477707433319324
 30
0.0
 10
2.387778014844821
 20
8.499657368869164
 30
0.0
 10
2.435226527167418
 20
8.52444173691467
 30
0.0
  0
LWPOLYLINE
  5
13B
330
1F
100
AcDbEntity
  8
0
  6
Continuous
 62
     7
370
    15
100
AcDbPolyline
 90
        9
 70
   128
 43
0.0
 10
1.8241263252
 20
8.4166068994
 10
1.8241368851
 20
8.4153326008
 10
1.824169738
 20
8.4115270848
 10
1.8242237107
 20
8.4052420507
 10
1.8242976299
 20
8.396562931
 10
1.8243914955
 20
8.3856077175
 10
1.8245029608
 20
8.3725253487
 10
1.824632026
 20
8.3574935823
 10
1.824775171
 20
8.3407167961
  0
SPLINE
  5
13C
330
1F
100
AcDbEntity
  8
0
  6
Continuous
 62
     7
370
    15
100
AcDbSpline
210
0.0
220
0.0
230
1.0
 70
     8
 71
     3
 72
    14
 73
    10
 74
     0
 42
0.00000001
 43
0.00000001
 40
0.0
 40
0.0
 40
0.0
 40
0.0
 40
0.25
 40
0.25
 40
0.5
 40
0.5
 40
0.75
 40
0.75
 40
1.0
 40
1.0
 40
1.0
 40
1.0
 10
1.392859558582061
 20
10.62756629500184
 30
0.0
 10
1.377028831752081
 20
10.62678994506352
 30
0.0
 10
1.361245447422747
 20
10.62490069289496
 30
0.0
 10
1.330152811900273
 20
10.61928879663446
 30
0.0
 10
1.31481447029326
 20
10.6155645936443
 30
0.0
 10
1.284520727892295
 20
10.60643288166445
 30
0.0
 10
1.269601784411726
 20
10.60102818779987
 30
0.0
 10
1.240515544191506
 20
10.58874497347094
 30
0.0
 10
1.226300405367444
 20
10.58185209961136
 30
0.0
 10
1.212412421286511
 20
10.57420987629918
 30
0.0
  0
SPLINE
  5
13D
330
1F
100
AcDbEntity
  8
0
  6
Continuous
 62
     7
370
    15
100
AcDbSpline
210
0.0
220
0.0
230
1.0
 70
     8
 71
     3
 72
    10
 73
     6
 74
     0
 42
0.00000001
 43
0.00000001
 40
0.0
 40
0.0
 40
0.0
 40
0.0
 40
0.5
 40
0.5
 40
1.0
 40
1.0
 40
1.0
 40
1.0
 10
1.824775118813371
 20
10.6174193143621
 30
0.0
 10
1.753002670235172
 20
10.62583950421917
 30
0.0
 10
1.681195872720409
 20
10.63024094021395
 30
0.0
 10
1.537298551407052
 20
10.63288328349026
 30
0.0
 10
1.46514024522546
 20
10.631110990531
 30
0.0
 10
1.392859558582061
 20
10.62756629500184
 30
0.0
  0
SPLINE
  5
13E
330
1F
100
AcDbEntity
  8
0
  6
Continuous
 62
     7
370
    15
100
AcDbSpline
210
0.0
220
0.0
230
1.0
 70
     8
 71
     3
 72
    10
 73
     6
 74
     0
 42
0.00000001
 43
0.00000001
 40
0.0
 40
0.0
 40
0.0
 40
0.0
 40
0.5
 40
0.5
 40
1.0
 40
1.0
 40
1.0
 40
1.0
 10
1.392859558582061
 20
8.33056980988492
 30
0.0
 10
1.4651393682464
 20
8.32702515736343
 30
0.0
 10
1.537152541725346
 20
8.325254303640289
 30
0.0
 10
1.681048198834096
 20
8.32788829809483
 30
0.0
 10
1.753035120119437
 20
8.332300407618476
 30
0.0
 10
1.824775118813375
 20
8.340716790524667
 30
0.0
  0
SPLINE
  5
13F
330
1F
100
AcDbEntity
  8
0
  6
Continuous
 62
     7
370
    15
100
AcDbSpline
210
0.0
220
0.0
230
1.0
 70
     8
 71
     3
 72
    10
 73
     6
 74
     0
 42
0.00000001
 43
0.00000001
 40
0.0
 40
0.0
 40
0.0
 40
0.0
 40
0.440193988551398
 40
0.8584291928677762
 40
1.0
 40
1.0
 40
1.0
 40
1.0
 10
1.21241136511693
 20
8.383926496945417
 30
0.0
 10
1.237500517252542
 20
8.371802356619677
 30
0.0
 10
1.286427265862588
 20
8.348158880641524
 30
0.0
 10
1.348703326764239
 20
8.333871367496997
 30
0.0
 10
1.38394689555792
 20
8.331236195528296
 30
0.0
 10
1.392859733895311
 20
8.33056977999343
 30
0.0
  0
ARC
  5
140
330
1F
100
AcDbEntity
  8
0
  6
Continuous
 62
     7
370
    15
100
AcDbCircle
 10
1.8150436399
 20
9.4790680524
 30
0.0
 40
1.250000000000001
100
AcDbArc
 50
118.8229959992
 51
241.1770040008
  0
SPLINE
  5
141
330
1F
100
AcDbEntity
  8
0
  6
Continuous
 62
     7
370
    15
100
AcDbSpline
210
0.0
220
0.0
230
1.0
 70
     8
 71
     3
 72
    12
 73
     8
 74
     0
 42
0.00000001
 43
0.00000001
 40
0.0
 40
0.0
 40
0.0
 40
0.0
 40
0.2500000000000002
 40
0.2500000000000002
 40
0.5000000000000003
 40
0.5000000000000003
 40
1.0
 40
1.0
 40
1.0
 40
1.0
 10
2.939241735649093
 20
10.29040070225647
 30
0.0
 10
2.939241735649093
 20
10.29040070225647
 30
0.0
 10
2.938684849993472
 20
10.29073486593683
 30
0.0
 10
2.936486593991351
 20
10.29204870249114
 30
0.0
 10
2.934825303028845
 20
10.29304012851043
 30
0.0
 10
2.928410097062176
 20
10.29684395307345
 30
0.0
 10
2.922237861114851
 20
10.30048124269728
 30
0.0
 10
2.914264415686856
 20
10.30506924283056
 30
0.0
  0
LWPOLYLINE
  5
142
330
1F
100
AcDbEntity
  8
0
  6
Continuous
 62
     7
370
    15
100
AcDbPolyline
 90
        9
 70
   128
 43
0.0
 10
2.4023277524
 20
10.3645080304
 10
2.4030434775
 20
10.3655880713
 10
2.4051836128
 20
10.3688133807
 10
2.4087153053
 20
10.3741392992
 10
2.4135927956
 20
10.3814922742
 10
2.4197468579
 20
10.3907705204
 10
2.427093013
 20
10.4018459258
 10
2.4355291822
 20
10.4145652988
 10
2.4449392069
 20
10.4287527149
  0
SPLINE
  5
143
330
1F
100
AcDbEntity
  8
0
  6
Continuous
 62
     7
370
    15
100
AcDbSpline
210
0.0
220
0.0
230
1.0
 70
     8
 71
     3
 72
    14
 73
    10
 74
     0
 42
0.00000001
 43
0.00000001
 40
0.0
 40
0.0
 40
0.0
 40
0.0
 40
0.25
 40
0.25
 40
0.5
 40
0.5
 40
0.75
 40
0.75
 40
1.0
 40
1.0
 40
1.0
 40
1.0
 10
2.843139718161968
 20
10.32499998073197
 30
0.0
 10
2.80954941070873
 20
10.32846372375286
 30
0.0
 10
2.775606686675504
 20
10.33283735657482
 30
0.0
 10
2.707669218092754
 20
10.34426988716757
 30
0.0
 10
2.67353379618858
 20
10.35137340140171
 30
0.0
 10
2.606486906389708
 20
10.36852740438489
 30
0.0
 10
2.573478411120886
 20
10.37858138710624
 30
0.0
 10
2.508475997894965
 20
10.40159587764256
 30
0.0
 10
2.476481885431943
 20
10.41455714795889
 30
0.0
 10
2.444938949801387
 20
10.42875275146488
 30
0.0
  0
SPLINE
  5
144
330
1F
100
AcDbEntity
  8
0
  6
Continuous
 62
     7
370
    15
100
AcDbSpline
210
0.0
220
0.0
230
1.0
 70
     8
 71
     3
 72
    14
 73
    10
 74
     0
 42
0.00000001
 43
0.00000001
 40
0.0
 40
0.0
 40
0.0
 40
0.0
 40
0.25
 40
0.25
 40
0.5
 40
0.5
 40
0.75
 40
0.75
 40
1.0
 40
1.0
 40
1.0
 40
1.0
 10
2.914264415686856
 20
10.30506924283056
 30
0.0
 10
2.910410520144807
 20
10.30728681281586
 30
0.0
 10
2.905854302121782
 20
10.30956534778763
 30
0.0
 10
2.895696455001559
 20
10.31378971929237
 30
0.0
 10
2.890069330991447
 20
10.31575617195446
 30
0.0
 10
2.877782421513053
 20
10.319258473535
 30
0.0
 10
2.871130400276109
 20
10.32078441983819
 30
0.0
 10
2.857475517999109
 20
10.32326924524985
 30
0.0
 10
2.850405119148438
 20
10.32425079193707
 30
0.0
 10
2.843139718161968
 20
10.32499998073197
 30
0.0
  0
SPLINE
  5
145
330
1F
100
AcDbEntity
  8
0
  6
Continuous
 62
     7
370
    15
100
AcDbSpline
210
0.0
220
0.0
230
1.0
 70
     8
 71
     3
 72
     8
 73
     4
 74
     0
 42
0.00000001
 43
0.00000001
 40
0.0
 40
0.0
 40
0.0
 40
0.0
 40
0.0002776838101286
 40
0.0002776838101286
 40
0.0002776838101286
 40
0.0002776838101286
 10
2.444938949801385
 20
10.42875275146488
 30
0.0
 10
2.441706329716379
 20
10.43040868484394
 30
0.0
 10
2.438468958152444
 20
10.4320558696719
 30
0.0
 10
2.43522686132644
 20
10.43369419342662
 30
0.0
  0
SPLINE
  5
146
330
1F
100
AcDbEntity
  8
0
  6
Continuous
 62
     7
370
    15
100
AcDbSpline
210
0.0
220
0.0
230
1.0
 70
     8
 71
     3
 72
    12
 73
     8
 74
     0
 42
0.00000001
 43
0.00000001
 40
0.0
 40
0.0
 40
0.0
 40
0.0
 40
0.2499999999999978
 40
0.2499999999999978
 40
0.4999999999999956
 40
0.4999999999999956
 40
1.0
 40
1.0
 40
1.0
 40
1.0
 10
2.914264415686856
 20
8.653066862056209
 30
0.0
 10
2.918254233637135
 20
8.655362643152715
 30
0.0
 10
2.921809414025652
 20
8.657430522055433
 30
0.0
 10
2.928020867149919
 20
8.661067226670022
 30
0.0
 10
2.930687167736612
 20
8.662642074677649
 30
0.0
 10
2.937049978544845
 20
8.666415575461523
 30
0.0
 10
2.939241735649093
 20
8.667735402630294
 30
0.0
 10
2.939241735649091
 20
8.667735402630294
 30
0.0
  0
SPLINE
  5
147
330
1F
100
AcDbEntity
  8
0
  6
Continuous
 62
     7
370
    15
100
AcDbSpline
210
0.0
220
0.0
230
1.0
 70
     8
 71
     3
 72
    14
 73
    10
 74
     0
 42
0.00000001
 43
0.00000001
 40
0.0
 40
0.0
 40
0.0
 40
0.0
 40
0.25
 40
0.25
 40
0.5
 40
0.5
 40
0.75
 40
0.75
 40
1.0
 40
1.0
 40
1.0
 40
1.0
 10
2.444938949801383
 20
8.529383353421881
 30
0.0
 10
2.476481885431939
 20
8.543578956927869
 30
0.0
 10
2.508475997894967
 20
8.556540227244204
 30
0.0
 10
2.573478411120889
 20
8.57955471778053
 30
0.0
 10
2.606486906389705
 20
8.589608700501872
 30
0.0
 10
2.67353379618858
 20
8.606762703485053
 30
0.0
 10
2.707669218092752
 20
8.61386621771919
 30
0.0
 10
2.775606686675504
 20
8.625298748311948
 30
0.0
 10
2.809549410708731
 20
8.629672381133906
 30
0.0
 10
2.843139718161969
 20
8.6331361241548
 30
0.0
  0
LWPOLYLINE
  5
148
330
1F
100
AcDbEntity
  8
0
  6
Continuous
 62
     7
370
    15
100
AcDbPolyline
 90
        9
 70
   128
 43
0.0
 10
2.4023277524
 20
8.5936280745
 10
2.4030434775
 20
8.5925480336
 10
2.4051836128
 20
8.5893227242
 10
2.4087153053
 20
8.5839968057
 10
2.4135927956
 20
8.5766438307
 10
2.4197468579
 20
8.5673655845
 10
2.427093013
 20
8.5562901791
 10
2.4355291822
 20
8.5435708061
 10
2.4449392069
 20
8.5293833899
  0
SPLINE
  5
149
330
1F
100
AcDbEntity
  8
0
  6
Continuous
 62
     7
370
    15
100
AcDbSpline
210
0.0
220
0.0
230
1.0
 70
     8
 71
     3
 72
    12
 73
     8
 74
     0
 42
0.00000001
 43
0.00000001
 40
0.0
 40
0.0
 40
0.0
 40
0.0
 40
0.4999999999999999
 40
0.4999999999999999
 40
0.7499999999999999
 40
0.7499999999999999
 40
1.0
 40
1.0
 40
1.0
 40
1.0
 10
2.843139718161969
 20
8.6331361241548
 30
0.0
 10
2.857677422156894
 20
8.634635213462703
 30
0.0
 10
2.871408892625097
 20
8.637067100209567
 30
0.0
 10
2.890066638229533
 20
8.642376094264595
 30
0.0
 10
2.895726800752576
 20
8.644357301452686
 30
0.0
 10
2.905894353257046
 20
8.648589129223145
 30
0.0
 10
2.910443993087192
 20
8.650868552736265
 30
0.0
 10
2.914264415686856
 20
8.653066862056209
 30
0.0
  0
SPLINE
  5
14A
330
1F
100
AcDbEntity
  8
0
  6
Continuous
 62
     7
370
    15
100
AcDbSpline
210
0.0
220
0.0
230
1.0
 70
     8
 71
     3
 72
     8
 73
     4
 74
     0
 42
0.00000001
 43
0.00000001
 40
0.0
 40
0.0
 40
0.0
 40
0.0
 40
0.0002776838101286
 40
0.0002776838101286
 40
0.0002776838101286
 40
0.0002776838101286
 10
2.435226861326438
 20
8.52444191146014
 30
0.0
 10
2.438468958152442
 20
8.526080235214865
 30
0.0
 10
2.441706329716376
 20
8.527727420042826
 30
0.0
 10
2.444938949801383
 20
8.529383353421881
 30
0.0
  0
SPLINE
  5
14B
330
1F
100
AcDbEntity
  8
0
  6
Continuous
 62
     7
370
    15
100
AcDbSpline
210
0.0
220
0.0
230
1.0
 70
     8
 71
     3
 72
     9
 73
     5
 74
     0
 42
0.00000001
 43
0.00000001
 40
0.0
 40
0.0
 40
0.0
 40
0.0
 40
0.9015718954857622
 40
1.0
 40
1.0
 40
1.0
 40
1.0
 10
2.944468956239837
 20
10.3923198891469
 30
0.0
 10
2.97955377753424
 20
10.38092818157658
 30
0.0
 10
3.01846894499906
 20
10.36829279705832
 30
0.0
 10
3.047593533753911
 20
10.34736279292763
 30
0.0
 10
3.050460211819808
 20
10.34530269229357
 30
0.0
  0
ARC
  5
14C
330
1F
100
AcDbEntity
  8
0
  6
Continuous
 62
     7
370
    15
100
AcDbCircle
 10
2.9452687556
 20
10.2811964572
 30
0.0
 40
0.1111263101744496
100
AcDbArc
 50
90.4123733223
 51
156.7852804492
  0
LINE
  5
14D
330
1F
100
AcDbEntity
  8
0
  6
Continuous
 62
     7
370
    15
100
AcDbLine
 10
3.0537097209
 20
8.6142023834
 30
0.0
 11
2.9444689562
 21
8.5658162157
 31
0.0
  0
ARC
  5
14E
330
1F
100
AcDbEntity
  8
0
  6
Continuous
 62
     7
370
    15
100
AcDbCircle
 10
2.9452687556
 20
8.6769396477
 30
0.0
 40
0.1111263101744532
100
AcDbArc
 50
203.2147195508
 51
269.5876266777
  0
SPLINE
  5
14F
330
1F
100
AcDbEntity
  8
0
  6
Continuous
 62
     7
370
    15
100
AcDbSpline
210
0.0
220
0.0
230
1.0
 70
    24
 71
     3
 72
    16
 73
    12
 74
     0
 42
0.00000001
 43
0.00000001
 40
0.0
 40
0.0
 40
0.0
 40
0.0
 40
0.25
 40
0.25
 40
0.5
 40
0.5
 40
0.75
 40
0.75
 40
0.875
 40
0.875
 40
1.0
 40
1.0
 40
1.0
 40
1.0
 10
1.895552097099368
 20
10.70800806803798
 30
0.0
 10
1.939492172822709
 20
10.69478360627635
 30
0.0
 10
1.983553574705306
 20
10.68152262948539
 30
0.0
 10
2.071832665849774
 20
10.65495363874122
 30
0.0
 10
2.116054370417943
 20
10.64164441631798
 30
0.0
 10
2.204650443932888
 20
10.61498002470869
 30
0.0
 10
2.249024771618289
 20
10.60162486794091
 30
0.0
 10
2.31571201521925
 20
10.5815542857111
 30
0.0
 10
2.33797484638114
 20
10.57485393404899
 30
0.0
 10
2.38224400590797
 20
10.56153042930429
 30
0.0
 10
2.40428605676696
 20
10.55489652497131
 30
0.0
 10
2.426206226212035
 20
10.54829930278034
 30
0.0
  0
LWPOLYLINE
  5
150
330
1F
100
AcDbEntity
  8
0
  6
Continuous
 62
     7
370
    15
100
AcDbPolyline
 90
        9
 70
   128
 43
0.0
 10
2.4262059833
 20
10.5482993339
 10
2.4315211219
 20
10.5448123009
 10
2.4357169134
 20
10.5379142072
 10
2.4387335185
 20
10.5277049318
 10
2.4405275245
 20
10.5143320197
 10
2.4410731182
 20
10.4979887751
 10
2.4403609131
 20
10.4789116222
 10
2.4384026424
 20
10.4573762909
 10
2.4352264657
 20
10.4336942245
  0
LWPOLYLINE
  5
151
330
1F
100
AcDbEntity
  8
0
  6
Continuous
 62
     7
370
    15
100
AcDbPolyline
 90
        9
 70
   128
 43
0.0
 10
1.8955521667
 20
10.7080081023
 10
1.8891951202
 20
10.7080336953
 10
1.8818888579
 20
10.7045974817
 10
1.8737389787
 20
10.6977491808
 10
1.8648616413
 20
10.6875877915
 10
1.8553870841
 20
10.6742602721
 10
1.8454514122
 20
10.6579592671
 10
1.8351977706
 20
10.6389205404
 10
1.824775171
 20
10.6174193088
  0
LWPOLYLINE
  5
152
330
1F
100
AcDbEntity
  8
0
  6
Continuous
 62
     7
370
    15
100
AcDbPolyline
 90
        9
 70
   128
 43
0.0
 10
2.4352264657
 20
8.5244418804
 10
2.4384026424
 20
8.5007598139
 10
2.4403609131
 20
8.4792244827
 10
2.4410731182
 20
8.4601473298
 10
2.4405275245
 20
8.4438040852
 10
2.4387335185
 20
8.4304311731
 10
2.4357169134
 20
8.4202218977
 10
2.4315211219
 20
8.413323804
 10
2.4262059833
 20
8.409836771
  0
SPLINE
  5
153
330
1F
100
AcDbEntity
  8
0
  6
Continuous
 62
     7
370
    15
100
AcDbSpline
210
0.0
220
0.0
230
1.0
 70
    24
 71
     3
 72
    16
 73
    12
 74
     0
 42
0.00000001
 43
0.00000001
 40
0.0
 40
0.0
 40
0.0
 40
0.0
 40
0.2500000000000028
 40
0.2500000000000028
 40
0.5000000000000056
 40
0.5000000000000056
 40
0.7500000000000083
 40
0.7500000000000083
 40
0.8750000000000041
 40
0.8750000000000041
 40
1.0
 40
1.0
 40
1.0
 40
1.0
 10
2.42620622621203
 20
8.409836802106419
 30
0.0
 10
2.382266150488691
 20
8.39661234034479
 30
0.0
 10
2.338204748606088
 20
8.383351363553828
 30
0.0
 10
2.249925657461628
 20
8.35678237280966
 30
0.0
 10
2.205703952893453
 20
8.343473150386421
 30
0.0
 10
2.117107879378513
 20
8.316808758777132
 30
0.0
 10
2.072733551693105
 20
8.303453602009345
 30
0.0
 10
2.00604630809215
 20
8.283383019779533
 30
0.0
 10
1.98378347693026
 20
8.276682668117427
 30
0.0
 10
1.939514317403432
 20
8.263359163372735
 30
0.0
 10
1.917472266544433
 20
8.25672525903975
 30
0.0
 10
1.895552097099368
 20
8.250128036848784
 30
0.0
  0
LWPOLYLINE
  5
154
330
1F
100
AcDbEntity
  8
0
  6
Continuous
 62
     7
370
    15
100
AcDbPolyline
 90
        9
 70
   128
 43
0.0
 10
1.824775171
 20
8.3407167961
 10
1.8351977706
 20
8.3192155645
 10
1.8454514122
 20
8.3001768378
 10
1.8553870841
 20
8.2838758327
 10
1.8648616413
 20
8.2705483134
 10
1.8737389787
 20
8.2603869241
 10
1.8818888579
 20
8.2535386232
 10
1.8891951202
 20
8.2501024096
 10
1.8955521667
 20
8.2501280026
  0
SPLINE
  5
155
330
1F
100
AcDbEntity
  8
0
  6
Continuous
 62
     7
370
    15
100
AcDbSpline
210
0.0
220
0.0
230
1.0
 70
     8
 71
     3
 72
    11
 73
     7
 74
     0
 42
0.00000001
 43
0.00000001
 40
0.0
 40
0.0
 40
0.0
 40
0.0
 40
0.2924843575476814
 40
0.5926129839447425
 40
0.7942885189997554
 40
1.0
 40
1.0
 40
1.0
 40
1.0
 10
2.43561835452541
 20
10.5454664266517
 30
0.0
 10
2.485546510190152
 20
10.53043977636659
 30
0.0
 10
2.586707726329775
 20
10.49999374452128
 30
0.0
 10
2.724157008962947
 20
10.45862627473653
 30
0.0
 10
2.84508835071265
 20
10.42223024385561
 30
0.0
 10
2.911124017956862
 20
10.40235563934678
 30
0.0
 10
2.944468956239836
 20
10.3923198891469
 30
0.0
  0
LWPOLYLINE
  5
156
330
1F
100
AcDbEntity
  8
0
  6
Continuous
 62
     7
370
    15
100
AcDbPolyline
 90
        9
 70
   128
 43
0.0
 10
2.4356183545
 20
10.5454664267
 10
2.4410672516
 20
10.5419021012
 10
2.4453745085
 20
10.5348610825
 10
2.4484744193
 20
10.5244472095
 10
2.4503235713
 20
10.5108140403
 10
2.4508926314
 20
10.4941624327
 10
2.4501745597
 20
10.4747380504
 10
2.4481810894
 20
10.4528271835
 10
2.4449392069
 20
10.4287527149
  0
SPLINE
  5
157
330
1F
100
AcDbEntity
  8
0
  6
Continuous
 62
     7
370
    15
100
AcDbSpline
210
0.0
220
0.0
230
1.0
 70
     8
 71
     3
 72
    11
 73
     7
 74
     0
 42
0.00000001
 43
0.00000001
 40
0.0
 40
0.0
 40
0.0
 40
0.0
 40
0.2012586235146766
 40
0.407390970301638
 40
0.7001435907121173
 40
1.0
 40
1.0
 40
1.0
 40
1.0
 10
2.944468956239836
 20
8.565816215739863
 30
0.0
 10
2.911861130129236
 20
8.55600235815888
 30
0.0
 10
2.845855839589947
 20
8.536136988454471
 30
0.0
 10
2.726182832446201
 20
8.500119505002493
 30
0.0
 10
2.588009948150287
 20
8.458534122349139
 30
0.0
 10
2.486819884661881
 20
8.428079515888447
 30
0.0
 10
2.43561835452541
 20
8.412669678235067
 30
0.0
  0
LWPOLYLINE
  5
158
330
1F
100
AcDbEntity
  8
0
  6
Continuous
 62
     7
370
    15
100
AcDbPolyline
 90
        9
 70
   128
 43
0.0
 10
2.4449392069
 20
8.5293833899
 10
2.4481810894
 20
8.5053089214
 10
2.4501745597
 20
8.4833980545
 10
2.4508926314
 20
8.4639736722
 10
2.4503235713
 20
8.4473220646
 10
2.4484744193
 20
8.4336888954
 10
2.4453745085
 20
8.4232750224
 10
2.4410672516
 20
8.4162340037
 10
2.4356183545
 20
8.4126696782
  0
SPLINE
  5
159
330
1F
100
AcDbEntity
  8
0
  6
Continuous
 62
     7
370
    15
100
AcDbSpline
210
0.0
220
0.0
230
1.0
 70
    24
 71
     3
 72
    10
 73
     6
 74
     0
 42
0.00000001
 43
0.00000001
 40
0.0
 40
0.0
 40
0.0
 40
0.0
 40
0.5
 40
0.5
 40
1.0
 40
1.0
 40
1.0
 40
1.0
 10
1.477036427814705
 20
10.83396698763443
 30
0.0
 10
1.548071470457373
 20
10.81258786641765
 30
0.0
 10
1.618023448506198
 20
10.79153471064519
 30
0.0
 10
1.757014983780589
 20
10.74970300659899
 30
0.0
 10
1.826060391780433
 20
10.72892269744206
 30
0.0
 10
1.895552097099368
 20
10.70800806803798
 30
0.0
  0
ARC
  5
15A
330
1F
100
AcDbEntity
  8
0
  6
Continuous
 62
     7
370
    15
100
AcDbCircle
 10
2.0220591635
 20
10.4913252764
 30
0.0
 40
0.6437806656933512
100
AcDbArc
 50
147.8435042333
 51
167.7823137039
  0
SPLINE
  5
15B
330
1F
100
AcDbEntity
  8
0
  6
Continuous
 62
     7
370
    15
100
AcDbSpline
210
0.0
220
0.0
230
1.0
 70
    24
 71
     3
 72
    10
 73
     6
 74
     0
 42
0.00000001
 43
0.00000001
 40
0.0
 40
0.0
 40
0.0
 40
0.0
 40
0.5
 40
0.5
 40
1.0
 40
1.0
 40
1.0
 40
1.0
 10
1.89555209709937
 20
8.250128036848785
 30
0.0
 10
1.826059119208781
 20
8.229213024444112
 30
0.0
 10
1.75701008190169
 20
8.208431622989677
 30
0.0
 10
1.618015994469969
 20
8.166599150831301
 30
0.0
 10
1.548088508195269
 20
8.145553366246196
 30
0.0
 10
1.477036427814705
 20
8.124169117252334
 30
0.0
  0
ARC
  5
15C
330
1F
100
AcDbEntity
  8
0
  6
Continuous
 62
     7
370
    15
100
AcDbCircle
 10
2.0220591635
 20
8.4668108285
 30
0.0
 40
0.6437806656933512
100
AcDbArc
 50
192.2176862961
 51
212.1564957667
  0
SPLINE
  5
15D
330
1F
100
AcDbEntity
  8
0
  6
Continuous
 62
     7
370
    15
100
AcDbSpline
210
0.0
220
0.0
230
1.0
 70
    24
 71
     3
 72
     8
 73
     4
 74
     0
 42
0.00000001
 43
0.00000001
 40
0.0
 40
0.0
 40
0.0
 40
0.0
 40
0.000255059618944
 40
0.000255059618944
 40
0.000255059618944
 40
0.000255059618944
 10
2.426206226212035
 20
10.54829930278034
 30
0.0
 10
2.429344649556546
 20
10.54735474456491
 30
0.0
 10
2.432482019355322
 20
10.54641050343075
 30
0.0
 10
2.435618418825281
 20
10.54546655433242
 30
0.0
  0
SPLINE
  5
15E
330
1F
100
AcDbEntity
  8
0
  6
Continuous
 62
     7
370
    15
100
AcDbSpline
210
0.0
220
0.0
230
1.0
 70
    24
 71
     3
 72
     8
 73
     4
 74
     0
 42
0.00000001
 43
0.00000001
 40
0.0000000121813899
 40
0.0000000121813899
 40
0.0000000121813899
 40
0.0000000121813899
 40
0.000255071800334
 40
0.000255071800334
 40
0.000255071800334
 40
0.000255071800334
 10
2.435618418825281
 20
8.412669550554345
 30
0.0
 10
2.43248201935532
 20
8.411725601456013
 30
0.0
 10
2.429344649556544
 20
8.410781360321854
 30
0.0
 10
2.42620622621203
 20
8.409836802106419
 30
0.0
  0
SPLINE
  5
15F
330
1F
100
AcDbEntity
  8
0
  6
Continuous
 62
     7
370
    15
100
AcDbSpline
210
0.0
220
0.0
230
1.0
 70
     8
 71
     3
 72
    18
 73
    14
 74
     0
 42
0.00000001
 43
0.00000001
 40
0.0
 40
0.0
 40
0.0
 40
0.0
 40
0.250000000000004
 40
0.250000000000004
 40
0.375000000000006
 40
0.375000000000006
 40
0.500000000000008
 40
0.500000000000008
 40
0.7499999999999958
 40
0.7499999999999958
 40
0.8749999999999979
 40
0.8749999999999979
 40
1.0
 40
1.0
 40
1.0
 40
1.0
 10
1.091885620674098
 20
10.79323793462635
 30
0.0
 10
1.121166219686012
 20
10.80935038726289
 30
0.0
 10
1.1515517811194
 20
10.82228458675874
 30
0.0
 10
1.198720261755302
 20
10.83711196102478
 30
0.0
 10
1.214710123757041
 20
10.84128630821537
 30
0.0
 10
1.247236741447749
 20
10.84806183646171
 30
0.0
 10
1.263806272275341
 20
10.85065614984578
 30
0.0
 10
1.313239066850798
 20
10.85589096829675
 30
0.0
 10
1.346185024661532
 20
10.85609901441456
 30
0.0
 10
1.395587024115245
 20
10.85151651945815
 30
0.0
 10
1.412107443463372
 20
10.84915567068577
 30
0.0
 10
1.444864647044905
 20
10.84277839238925
 30
0.0
 10
1.461048564658681
 20
10.83877878828512
 30
0.0
 10
1.477036427814705
 20
10.83396698763443
 30
0.0
  0
LWPOLYLINE
  5
160
330
1F
100
AcDbEntity
  8
0
  6
Continuous
 62
     7
370
    15
100
AcDbPolyline
 90
        9
 70
   128
 43
0.0
 10
1.0918856108
 20
10.7932379777
 10
1.094201744
 20
10.7890294263
 10
1.1010597981
 20
10.776565397
 10
1.1121981228
 20
10.7563250441
 10
1.127187283
 20
10.7290859855
 10
1.1454511786
 20
10.6958952622
 10
1.1662881646
 20
10.6580281263
 10
1.1888980367
 20
10.6169399343
 10
1.2124125384
 20
10.5742096079
  0
SPLINE
  5
161
330
1F
100
AcDbEntity
  8
0
  6
Continuous
 62
     7
370
    15
100
AcDbSpline
210
0.0
220
0.0
230
1.0
 70
     8
 71
     3
 72
    18
 73
    14
 74
     0
 42
0.00000001
 43
0.00000001
 40
0.0
 40
0.0
 40
0.0
 40
0.0
 40
0.1249999999999978
 40
0.1249999999999978
 40
0.2499999999999956
 40
0.2499999999999956
 40
0.5000000000000079
 40
0.5000000000000079
 40
0.6250000000000059
 40
0.6250000000000059
 40
0.7500000000000039
 40
0.7500000000000039
 40
1.0
 40
1.0
 40
1.0
 40
1.0
 10
1.477036427814705
 20
8.124169117252334
 30
0.0
 10
1.461048564656078
 20
8.119357316600858
 30
0.0
 10
1.444864647053486
 20
8.115357712500384
 30
0.0
 10
1.412107443523741
 20
8.108980434211558
 30
0.0
 10
1.395587024043278
 20
8.106619585417747
 30
0.0
 10
1.346185024428829
 20
8.102037090458998
 30
0.0
 10
1.313239066622551
 20
8.102245136606694
 30
0.0
 10
1.26380627222188
 20
8.107479955050394
 30
0.0
 10
1.247236741446119
 20
8.110074268422771
 30
0.0
 10
1.214710123607526
 20
8.116849796705157
 30
0.0
 10
1.198720261562434
 20
8.121024143915042
 30
0.0
 10
1.151551780877909
 20
8.135851518219082
 30
0.0
 10
1.121166204125393
 20
8.148785724879133
 30
0.0
 10
1.091885605660788
 20
8.164898178521902
 30
0.0
  0
LWPOLYLINE
  5
162
330
1F
100
AcDbEntity
  8
0
  6
Continuous
 62
     7
370
    15
100
AcDbPolyline
 90
        9
 70
   128
 43
0.0
 10
1.2124125384
 20
8.3839264969
 10
1.1888980367
 20
8.3411961706
 10
1.1662881646
 20
8.3001079786
 10
1.1454511786
 20
8.2622408427
 10
1.127187283
 20
8.2290501194
 10
1.1121981228
 20
8.2018110608
 10
1.1010597981
 20
8.1815707079
 10
1.094201744
 20
8.1691066786
 10
1.0918856108
 20
8.1648981272
  0
ARC
  5
163
330
1F
100
AcDbEntity
  8
0
  6
Continuous
 62
     7
370
    15
100
AcDbCircle
 10
1.8150436399
 20
9.4790680524
 30
0.0
 40
1.500000000000001
100
AcDbArc
 50
118.8229959992
 51
241.1770040008
  0
ARC
  5
164
330
1F
100
AcDbEntity
  8
0
  6
Continuous
 62
     8
370
    15
100
AcDbCircle
 10
3.0113347084
 20
10.081264665
 30
0.0
 40
0.2439491440772963
100
AcDbArc
 50
86.9450487844
 51
113.447771503
  0
ARC
  5
165
330
1F
100
AcDbEntity
  8
0
  6
Continuous
 62
     8
370
    15
100
AcDbCircle
 10
3.0113347084
 20
8.8768714399
 30
0.0
 40
0.2439491440772981
100
AcDbArc
 50
246.552228497
 51
273.0549512156
  0
CIRCLE
  5
166
330
1F
100
AcDbEntity
  8
0
  6
HIDDEN
 62
     7
370
     0
100
AcDbCircle
 10
11.7354203381
 20
9.1444223832
 30
0.0
 40
0.0950000174050309
  0
CIRCLE
  5
167
330
1F
100
AcDbEntity
  8
0
  6
HIDDEN
 62
     7
370
     0
100
AcDbCircle
 10
11.7354203381
 20
9.8137137217
 30
0.0
 40
0.0949999993652408
  0
CIRCLE
  5
168
330
1F
100
AcDbEntity
  8
0
  6
HIDDEN
 62
     7
370
     0
100
AcDbCircle
 10
12.3150436399
 20
10.148359391
 30
0.0
 40
0.0949999995119004
  0
CIRCLE
  5
169
330
1F
100
AcDbEntity
  8
0
  6
HIDDEN
 62
     7
370
     0
100
AcDbCircle
 10
12.8946669416
 20
9.8137137217
 30
0.0
 40
0.0949999993652302
  0
CIRCLE
  5
16A
330
1F
100
AcDbEntity
  8
0
  6
HIDDEN
 62
     7
370
     0
100
AcDbCircle
 10
12.8946669416
 20
9.1444223832
 30
0.0
 40
0.0950000174050185
  0
CIRCLE
  5
16B
330
1F
100
AcDbEntity
  8
0
  6
HIDDEN
 62
     7
370
     0
100
AcDbCircle
 10
12.3150436399
 20
8.8097767139
 30
0.0
 40
0.0949999989252408
  0
CIRCLE
  5
16C
330
1F
100
AcDbEntity
  8
0
  6
HIDDEN
 62
     7
370
     0
100
AcDbCircle
 10
4.8150436399
 20
10.7540680524
 30
0.0
 40
0.0559999670569464
  0
CIRCLE
  5
16D
330
1F
100
AcDbEntity
  8
0
  6
HIDDEN
 62
     7
370
     0
100
AcDbCircle
 10
4.8150436399
 20
8.2040680524
 30
0.0
 40
0.0559999670569464
  0
CIRCLE
  5
16E
330
1F
100
AcDbEntity
  8
0
  6
HIDDEN
 62
     7
370
     0
100
AcDbCircle
 10
8.3150436399
 20
8.2040680524
 30
0.0
 40
0.0559999614250124
  0
CIRCLE
  5
16F
330
1F
100
AcDbEntity
  8
0
  6
HIDDEN
 62
     7
370
     0
100
AcDbCircle
 10
11.8150436399
 20
8.2040680524
 30
0.0
 40
0.0559999924593217
  0
CIRCLE
  5
170
330
1F
100
AcDbEntity
  8
0
  6
HIDDEN
 62
     7
370
     0
100
AcDbCircle
 10
8.3150436399
 20
10.7540680524
 30
0.0
 40
0.0559999614250124
  0
CIRCLE
  5
171
330
1F
100
AcDbEntity
  8
0
  6
HIDDEN
 62
     7
370
     0
100
AcDbCircle
 10
11.8150436399
 20
10.7540680524
 30
0.0
 40
0.0559999924593217
  0
ARC
  5
172
330
1F
100
AcDbEntity
  8
0
  6
Continuous
 62
     7
370
    15
100
AcDbCircle
 10
1.3329382937
 20
3.2158679532
 30
0.0
 40
0.4999999999999999
100
AcDbArc
 50
73.25
 51
118.8229959992
  0
LINE
  5
173
330
1F
100
AcDbEntity
  8
0
  6
Continuous
 62
     7
370
    15
100
AcDbLine
 10
1.4770360415
 20
3.6946536332
 30
0.0
 11
2.9444689562
 21
3.2530065352
 31
0.0
  0
ARC
  5
174
330
1F
100
AcDbEntity
  8
0
  6
Continuous
 62
     7
370
    15
100
AcDbCircle
 10
2.8003709264
 20
2.7742208596
 30
0.0
 40
0.5
100
AcDbArc
 50
45.5729959992
 51
73.25
  0
LINE
  5
175
330
1F
100
AcDbEntity
  8
0
  6
Continuous
 62
     7
370
    15
100
AcDbLine
 10
3.5025438426
 20
2.7860939756
 30
0.0
 11
3.1503707376
 21
3.1312922812
 31
0.0
  0
ARC
  5
176
330
1F
100
AcDbEntity
  8
0
  6
Continuous
 62
     7
370
    15
100
AcDbCircle
 10
3.0650436399
 20
2.3397546985
 30
0.0
 40
0.625000000000002
100
AcDbArc
 50
314.4270040008
 51
45.5729959992
  0
LINE
  5
177
330
1F
100
AcDbEntity
  8
0
  6
Continuous
 62
     7
370
    15
100
AcDbLine
 10
3.1503707376
 20
1.5482171157
 30
0.0
 11
3.5025438426
 21
1.8934154213
 31
0.0
  0
ARC
  5
178
330
1F
100
AcDbEntity
  8
0
  6
Continuous
 62
     7
370
    15
100
AcDbCircle
 10
2.8003709264
 20
1.9052885373
 30
0.0
 40
0.5000000000000003
100
AcDbArc
 50
286.75
 51
314.4270040008
  0
LINE
  5
179
330
1F
100
AcDbEntity
  8
0
  6
Continuous
 62
     7
370
    15
100
AcDbLine
 10
1.4770360415
 20
0.9848557637
 30
0.0
 11
2.9444689562
 21
1.4265028617
 31
0.0
  0
ARC
  5
17A
330
1F
100
AcDbEntity
  8
0
  6
Continuous
 62
     7
370
    15
100
AcDbCircle
 10
1.3329382937
 20
1.4636414437
 30
0.0
 40
0.5000000000000001
100
AcDbArc
 50
241.1770040008
 51
286.75
  0
ARC
  5
17B
330
1F
100
AcDbEntity
  8
0
  6
Continuous
 62
     7
370
    15
100
AcDbCircle
 10
1.8150436399
 20
2.3397546985
 30
0.0
 40
1.5
100
AcDbArc
 50
118.8229959992
 51
241.1770040008
  0
ARC
  5
17C
330
1F
100
AcDbEntity
  8
0
  6
Continuous
 62
     7
370
    15
100
AcDbCircle
 10
2.8003709264
 20
1.9052885373
 30
0.0
 40
0.4500000000000005
100
AcDbArc
 50
286.75
 51
314.4270040008
  0
LINE
  5
17D
330
1F
100
AcDbEntity
  8
0
  6
Continuous
 62
     7
370
    15
100
AcDbLine
 10
3.1153711953
 20
1.5839242432
 30
0.0
 11
3.4675437136
 21
1.9291225488
 31
0.0
  0
ARC
  5
17E
330
1F
100
AcDbEntity
  8
0
  6
Continuous
 62
     7
370
    15
100
AcDbCircle
 10
3.0650436399
 20
2.3397546985
 30
0.0
 40
0.5750000000000014
100
AcDbArc
 50
314.4270040008
 51
45.5729959992
  0
LINE
  5
17F
330
1F
100
AcDbEntity
  8
0
  6
Continuous
 62
     7
370
    15
100
AcDbLine
 10
3.4675437136
 20
2.7503868481
 30
0.0
 11
3.1153711953
 21
3.0955851537
 31
0.0
  0
ARC
  5
180
330
1F
100
AcDbEntity
  8
0
  6
Continuous
 62
     7
370
    15
100
AcDbCircle
 10
2.8003709264
 20
2.7742208596
 30
0.0
 40
0.4500000000000001
100
AcDbArc
 50
45.5729959992
 51
73.25
  0
LINE
  5
181
330
1F
100
AcDbEntity
  8
0
  6
Continuous
 62
     7
370
    15
100
AcDbLine
 10
2.930059416
 20
3.2051279749
 30
0.0
 11
1.4626265013
 21
3.6467749996
 31
0.0
  0
ARC
  5
182
330
1F
100
AcDbEntity
  8
0
  6
Continuous
 62
     7
370
    15
100
AcDbCircle
 10
1.3329382937
 20
3.2158679532
 30
0.0
 40
0.4500000000000005
100
AcDbArc
 50
73.25
 51
118.8229959992
  0
ARC
  5
183
330
1F
100
AcDbEntity
  8
0
  6
Continuous
 62
     7
370
    15
100
AcDbCircle
 10
1.8150436399
 20
2.3397546985
 30
0.0
 40
1.45
100
AcDbArc
 50
118.8229959992
 51
241.1770040008
  0
ARC
  5
184
330
1F
100
AcDbEntity
  8
0
  6
Continuous
 62
     7
370
    15
100
AcDbCircle
 10
1.3329382937
 20
1.4636414437
 30
0.0
 40
0.4499999999999998
100
AcDbArc
 50
241.1770040008
 51
286.75
  0
LINE
  5
185
330
1F
100
AcDbEntity
  8
0
  6
Continuous
 62
     7
370
    15
100
AcDbLine
 10
1.4626265013
 20
1.0327343973
 30
0.0
 11
2.930059416
 21
1.474381422
 31
0.0
  0
CIRCLE
  5
186
330
1F
100
AcDbEntity
  8
0
  6
Continuous
 62
     7
370
    15
100
AcDbCircle
 10
1.3150436399
 20
3.5147546985
 30
0.0
 40
0.0444999999999993
  0
ARC
  5
187
330
1F
100
AcDbEntity
  8
0
  6
Continuous
 62
     7
370
    15
100
AcDbCircle
 10
1.3150436399
 20
1.1647546985
 30
0.0
 40
0.1230407210877865
100
AcDbArc
 50
54.4548778351
 51
107.5123976354
  0
ARC
  5
188
330
1F
100
AcDbEntity
  8
0
  6
Continuous
 62
     7
370
    15
100
AcDbCircle
 10
1.6772445727
 20
1.6716967311
 30
0.0
 40
0.4999999999999999
100
AcDbArc
 50
234.4548778351
 51
286.75
  0
LINE
  5
189
330
1F
100
AcDbEntity
  8
0
  6
Continuous
 62
     7
370
    15
100
AcDbLine
 10
2.9156492892
 20
1.5222599822
 30
0.0
 11
1.8213432107
 21
1.1929110269
 31
0.0
  0
ARC
  5
18A
330
1F
100
AcDbEntity
  8
0
  6
Continuous
 62
     7
370
    15
100
AcDbCircle
 10
2.8003709264
 20
1.9052885373
 30
0.0
 40
0.4000000000000002
100
AcDbArc
 50
286.75
 51
314.4270040008
  0
LINE
  5
18B
330
1F
100
AcDbEntity
  8
0
  6
Continuous
 62
     7
370
    15
100
AcDbLine
 10
3.4325435846
 20
1.9648297129
 30
0.0
 11
3.0803710663
 21
1.6196313707
 31
0.0
  0
ARC
  5
18C
330
1F
100
AcDbEntity
  8
0
  6
Continuous
 62
     7
370
    15
100
AcDbCircle
 10
3.0650436399
 20
2.3397546985
 30
0.0
 40
0.5250000000000016
100
AcDbArc
 50
314.4270040008
 51
45.5729959992
  0
LINE
  5
18D
330
1F
100
AcDbEntity
  8
0
  6
Continuous
 62
     7
370
    15
100
AcDbLine
 10
3.0803710663
 20
3.0598780262
 30
0.0
 11
3.4325435846
 21
2.714679684
 31
0.0
  0
ARC
  5
18E
330
1F
100
AcDbEntity
  8
0
  6
Continuous
 62
     7
370
    15
100
AcDbCircle
 10
2.8003709264
 20
2.7742208596
 30
0.0
 40
0.4000000000000001
100
AcDbArc
 50
45.5729959992
 51
73.25
  0
LINE
  5
18F
330
1F
100
AcDbEntity
  8
0
  6
Continuous
 62
     7
370
    15
100
AcDbLine
 10
1.8213432107
 20
3.48659837
 30
0.0
 11
2.9156492892
 21
3.1572494147
 31
0.0
  0
ARC
  5
190
330
1F
100
AcDbEntity
  8
0
  6
Continuous
 62
     7
370
    15
100
AcDbCircle
 10
1.6772445727
 20
3.0078126658
 30
0.0
 40
0.4999999999999999
100
AcDbArc
 50
73.25
 51
125.5451221649
  0
ARC
  5
191
330
1F
100
AcDbEntity
  8
0
  6
Continuous
 62
     7
370
    15
100
AcDbCircle
 10
1.3150436399
 20
3.5147546985
 30
0.0
 40
0.1230407210877866
100
AcDbArc
 50
252.4876023646
 51
305.5451221649
  0
ARC
  5
192
330
1F
100
AcDbEntity
  8
0
  6
Continuous
 62
     7
370
    15
100
AcDbCircle
 10
1.1275631124
 20
2.9205907548
 30
0.0
 40
0.5000000000000014
100
AcDbArc
 50
72.4876023646
 51
139.8063228123
  0
ARC
  5
193
330
1F
100
AcDbEntity
  8
0
  6
Continuous
 62
     7
370
    15
100
AcDbCircle
 10
1.8150436399
 20
2.3397546985
 30
0.0
 40
1.400000000000001
100
AcDbArc
 50
139.8063228123
 51
220.1936771877
  0
ARC
  5
194
330
1F
100
AcDbEntity
  8
0
  6
Continuous
 62
     7
370
    15
100
AcDbCircle
 10
1.1275631124
 20
1.7589186421
 30
0.0
 40
0.5000000000000011
100
AcDbArc
 50
220.1936771877
 51
287.5123976354
  0
CIRCLE
  5
195
330
1F
100
AcDbEntity
  8
0
  6
Continuous
 62
     7
370
    15
100
AcDbCircle
 10
1.3150436399
 20
1.1647546985
 30
0.0
 40
0.0444999999999991
  0
LWPOLYLINE
  5
196
330
1F
100
AcDbEntity
  8
0
  6
Continuous
 62
     7
370
    15
100
AcDbPolyline
 90
        9
 70
   128
 43
0.0
 10
3.0803710663
 20
1.6196313707
 10
3.0778490154
 20
1.6222043143
 10
3.0703802484
 20
1.629824073
 10
3.0582510552
 20
1.6421979034
 10
3.041928417
 20
1.6588503176
 10
3.0220394735
 20
1.6791413432
 10
2.9993480556
 20
1.7022911625
 10
2.9747265267
 20
1.7274102523
 10
2.9491211692
 20
1.7535331905
  0
LINE
  5
197
330
1F
100
AcDbEntity
  8
0
  6
Continuous
 62
     7
370
    15
100
AcDbLine
 10
2.9491211692
 20
1.7535331905
 30
0.0
 11
3.0141060718
 21
1.8172315847
 31
0.0
  0
SPLINE
  5
198
330
1F
100
AcDbEntity
  8
0
  6
Continuous
 62
     7
370
    15
100
AcDbSpline
210
0.0
220
0.0
230
1.0
 70
     8
 71
     3
 72
    20
 73
    16
 74
     0
 42
0.00000001
 43
0.00000001
 40
0.0
 40
0.0
 40
0.0
 40
0.0
 40
0.1250000000000007
 40
0.1250000000000007
 40
0.2500000000000015
 40
0.2500000000000015
 40
0.3750000000000022
 40
0.3750000000000022
 40
0.500000000000003
 40
0.500000000000003
 40
0.750000000000004
 40
0.750000000000004
 40
0.875000000000002
 40
0.875000000000002
 40
1.0
 40
1.0
 40
1.0
 40
1.0
 10
3.014106309916617
 20
1.817231599999667
 30
0.0
 10
3.035139431247596
 20
1.815181219748758
 30
0.0
 10
3.055916929611299
 20
1.814429860321684
 30
0.0
 10
3.097113033068923
 20
1.815330217312263
 30
0.0
 10
3.117652094390405
 20
1.817015029789294
 30
0.0
 10
3.157240689578503
 20
1.822527364770169
 30
0.0
 10
3.176436265187271
 20
1.82634483202276
 30
0.0
 10
3.213858205112395
 20
1.83591719181369
 30
0.0
 10
3.232139556520442
 20
1.841695617666182
 30
0.0
 10
3.285334532334607
 20
1.861703973184966
 30
0.0
 10
3.317901075092131
 20
1.878249330709546
 30
0.0
 10
3.363424469520436
 20
1.90741380024751
 30
0.0
 10
3.378032190786477
 20
1.917869950160482
 30
0.0
 10
3.40617448585211
 20
1.940282146495482
 30
0.0
 10
3.419747112294749
 20
1.952286600031884
 30
0.0
 10
3.432543639894804
 20
1.964829705952034
 30
0.0
  0
LINE
  5
199
330
1F
100
AcDbEntity
  8
0
  6
Continuous
 62
     7
370
    15
100
AcDbLine
 10
3.0141060718
 20
2.8622778122
 30
0.0
 11
2.9491211692
 21
2.9259762064
 31
0.0
  0
LWPOLYLINE
  5
19A
330
1F
100
AcDbEntity
  8
0
  6
Continuous
 62
     7
370
    15
100
AcDbPolyline
 90
        9
 70
   128
 43
0.0
 10
3.0803710663
 20
3.0598780262
 10
3.0778490154
 20
3.0573050826
 10
3.0703802484
 20
3.0496853239
 10
3.0582510552
 20
3.0373114935
 10
3.041928417
 20
3.0206590793
 10
3.0220394735
 20
3.0003680537
 10
2.9993480556
 20
2.9772182344
 10
2.9747265267
 20
2.9520991446
 10
2.9491211692
 20
2.9259762064
  0
SPLINE
  5
19B
330
1F
100
AcDbEntity
  8
0
  6
Continuous
 62
     7
370
    15
100
AcDbSpline
210
0.0
220
0.0
230
1.0
 70
     8
 71
     3
 72
    20
 73
    16
 74
     0
 42
0.00000001
 43
0.00000001
 40
0.0
 40
0.0
 40
0.0
 40
0.0
 40
0.1250000000000006
 40
0.1250000000000006
 40
0.2500000000000012
 40
0.2500000000000012
 40
0.3750000000000018
 40
0.3750000000000018
 40
0.5000000000000024
 40
0.5000000000000024
 40
0.7500000000000036
 40
0.7500000000000036
 40
0.8750000000000018
 40
0.8750000000000018
 40
1.0
 40
1.0
 40
1.0
 40
1.0
 10
3.014106309916617
 20
2.862277796901401
 30
0.0
 10
3.035139431247595
 20
2.86432817715231
 30
0.0
 10
3.055916929611299
 20
2.865079536579384
 30
0.0
 10
3.097113033068924
 20
2.864179179588806
 30
0.0
 10
3.117652094390405
 20
2.862494367111774
 30
0.0
 10
3.157240689578507
 20
2.856982032130899
 30
0.0
 10
3.176436265187274
 20
2.853164564878308
 30
0.0
 10
3.213858205112397
 20
2.843592205087379
 30
0.0
 10
3.232139556520442
 20
2.837813779234887
 30
0.0
 10
3.285334532334605
 20
2.817805423716103
 30
0.0
 10
3.317901075092127
 20
2.801260066191523
 30
0.0
 10
3.363424469520433
 20
2.772095596653559
 30
0.0
 10
3.378032190786477
 20
2.761639446740587
 30
0.0
 10
3.406174485852111
 20
2.739227250405587
 30
0.0
 10
3.41974711229529
 20
2.727222796868651
 30
0.0
 10
3.432543639894804
 20
2.714679690949035
 30
0.0
  0
LWPOLYLINE
  5
19C
330
1F
100
AcDbEntity
  8
0
  6
Continuous
 62
     7
370
    15
100
AcDbPolyline
 90
        9
 70
   128
 43
0.0
 10
1.8213432107
 20
1.1929110269
 10
1.8203048227
 20
1.1963609537
 10
1.8172295515
 20
1.2065780757
 10
1.8122359026
 20
1.2231697707
 10
1.8055151269
 20
1.2454984861
 10
1.7973277014
 20
1.2727060118
 10
1.787984556
 20
1.3037469198
 10
1.7778482465
 20
1.3374282374
 10
1.7673059683
 20
1.3724556461
  0
LINE
  5
19D
330
1F
100
AcDbEntity
  8
0
  6
Continuous
 62
     7
370
    15
100
AcDbLine
 10
1.7673059683
 20
1.3724556461
 30
0.0
 11
2.8616126334
 21
1.7018046014
 31
0.0
  0
LWPOLYLINE
  5
19E
330
1F
100
AcDbEntity
  8
0
  6
Continuous
 62
     7
370
    15
100
AcDbPolyline
 90
        9
 70
   128
 43
0.0
 10
2.9156492892
 20
1.5222599822
 10
2.9146109012
 20
1.525709909
 10
2.9115362167
 20
1.535927031
 10
2.9065425677
 20
1.552518726
 10
2.8998223787
 20
1.5748473681
 10
2.8916337799
 20
1.6020549671
 10
2.8822918078
 20
1.6330958752
 10
2.8721549116
 20
1.6667771927
 10
2.8616126334
 20
1.7018046014
  0
ARC
  5
19F
330
1F
100
AcDbEntity
  8
0
  6
Continuous
 62
     7
370
    15
100
AcDbCircle
 10
2.8003709264
 20
1.9052885373
 30
0.0
 40
0.2125000000000004
100
AcDbArc
 50
286.75
 51
314.4270040008
  0
ARC
  5
1A0
330
1F
100
AcDbEntity
  8
0
  6
Continuous
 62
     7
370
    15
100
AcDbCircle
 10
2.8003709264
 20
2.7742208596
 30
0.0
 40
0.2124999999999999
100
AcDbArc
 50
45.5729959992
 51
73.25
  0
LWPOLYLINE
  5
1A1
330
1F
100
AcDbEntity
  8
0
  6
Continuous
 62
     7
370
    15
100
AcDbPolyline
 90
        9
 70
   128
 43
0.0
 10
2.9156492892
 20
3.1572494147
 10
2.9146109012
 20
3.1537994879
 10
2.9115362167
 20
3.1435823659
 10
2.9065425677
 20
3.1269906709
 10
2.8998223787
 20
3.1046620288
 10
2.8916337799
 20
3.0774544298
 10
2.8822918078
 20
3.0464135217
 10
2.8721549116
 20
3.0127322042
 10
2.8616126334
 20
2.9777047955
  0
LINE
  5
1A2
330
1F
100
AcDbEntity
  8
0
  6
Continuous
 62
     7
370
    15
100
AcDbLine
 10
2.8616126334
 20
2.9777047955
 30
0.0
 11
1.7673059683
 21
3.3070537508
 31
0.0
  0
LWPOLYLINE
  5
1A3
330
1F
100
AcDbEntity
  8
0
  6
Continuous
 62
     7
370
    15
100
AcDbPolyline
 90
        9
 70
   128
 43
0.0
 10
1.8213432107
 20
3.48659837
 10
1.8203048227
 20
3.4831484432
 10
1.8172295515
 20
3.4729313212
 10
1.8122359026
 20
3.4563396262
 10
1.8055151269
 20
3.4340109108
 10
1.7973277014
 20
3.4068033851
 10
1.787984556
 20
3.3757624771
 10
1.7778482465
 20
3.3420811595
 10
1.7673059683
 20
3.3070537508
  0
LWPOLYLINE
  5
1A4
330
1F
100
AcDbEntity
  8
0
  6
Continuous
 62
     7
370
    15
100
AcDbPolyline
 90
        9
 70
   128
 43
0.0
 10
1.3865730865
 20
1.2648677223
 10
1.3886674623
 20
1.2677991884
 10
1.3948696307
 20
1.2764807281
 10
1.404942581
 20
1.2905788986
 10
1.4184991177
 20
1.3095517728
 10
1.4350159402
 20
1.3326703524
 10
1.4538618025
 20
1.359046141
 10
1.4743092463
 20
1.3876654637
 10
1.495574494
 20
1.4174286266
  0
ARC
  5
1A5
330
1F
100
AcDbEntity
  8
0
  6
Continuous
 62
     7
370
    15
100
AcDbCircle
 10
1.6772445727
 20
1.6716967311
 30
0.0
 40
0.3124999999999998
100
AcDbArc
 50
234.4548778351
 51
286.75
  0
LWPOLYLINE
  5
1A6
330
1F
100
AcDbEntity
  8
0
  6
Continuous
 62
     7
370
    15
100
AcDbPolyline
 90
        9
 70
   128
 43
0.0
 10
0.7456295574
 20
1.436231956
 10
0.7483809923
 20
1.4385570358
 10
0.7565320448
 20
1.4454431029
 10
0.7697670919
 20
1.4566253538
 10
0.7875792595
 20
1.4716742066
 10
0.8092833288
 20
1.4900112881
 10
0.8340450694
 20
1.5109318731
 10
0.860912919
 20
1.5336320908
 10
0.8888543562
 20
1.5572394315
  0
ARC
  5
1A7
330
1F
100
AcDbEntity
  8
0
  6
Continuous
 62
     7
370
    15
100
AcDbCircle
 10
1.1275631124
 20
1.7589186421
 30
0.0
 40
0.3125000000000003
100
AcDbArc
 50
220.1936771877
 51
287.5123976354
  0
LWPOLYLINE
  5
1A8
330
1F
100
AcDbEntity
  8
0
  6
Continuous
 62
     7
370
    15
100
AcDbPolyline
 90
        9
 70
   128
 43
0.0
 10
1.2780187139
 20
1.2820927167
 10
1.2769345664
 20
1.2855284903
 10
1.2737243635
 20
1.2957038127
 10
1.2685101304
 20
1.3122276019
 10
1.2614936781
 20
1.3344648716
 10
1.2529436969
 20
1.3615610786
 10
1.2431898896
 20
1.3924749015
 10
1.2326053718
 20
1.426018354
 10
1.221598459
 20
1.460902471
  0
ARC
  5
1A9
330
1F
100
AcDbEntity
  8
0
  6
Continuous
 62
     7
370
    15
100
AcDbCircle
 10
1.3150436399
 20
1.1647546985
 30
0.0
 40
0.3105407210877866
100
AcDbArc
 50
54.4548778351
 51
107.5123976354
  0
LWPOLYLINE
  5
1AA
330
1F
100
AcDbEntity
  8
0
  6
Continuous
 62
     7
370
    15
100
AcDbPolyline
 90
        9
 70
   128
 43
0.0
 10
0.7456295574
 20
3.2432774409
 10
0.7483809923
 20
3.2409523611
 10
0.7565320448
 20
3.234066294
 10
0.7697670919
 20
3.2228840431
 10
0.7875792595
 20
3.2078351903
 10
0.8092833288
 20
3.1894981088
 10
0.8340450694
 20
3.1685775238
 10
0.860912919
 20
3.1458773061
 10
0.8888543562
 20
3.1222699654
  0
ARC
  5
1AB
330
1F
100
AcDbEntity
  8
0
  6
Continuous
 62
     7
370
    15
100
AcDbCircle
 10
1.8150436399
 20
2.3397546985
 30
0.0
 40
1.2125
100
AcDbArc
 50
139.8063228123
 51
220.1936771877
  0
LWPOLYLINE
  5
1AC
330
1F
100
AcDbEntity
  8
0
  6
Continuous
 62
     7
370
    15
100
AcDbPolyline
 90
        9
 70
   128
 43
0.0
 10
1.2780187139
 20
3.3974166802
 10
1.2769345664
 20
3.3939809066
 10
1.2737243635
 20
3.3838055842
 10
1.2685101304
 20
3.367281795
 10
1.2614936781
 20
3.3450445253
 10
1.2529436969
 20
3.3179483183
 10
1.2431898896
 20
3.2870344954
 10
1.2326053718
 20
3.2534910429
 10
1.221598459
 20
3.2186069259
  0
ARC
  5
1AD
330
1F
100
AcDbEntity
  8
0
  6
Continuous
 62
     7
370
    15
100
AcDbCircle
 10
1.1275631124
 20
2.9205907548
 30
0.0
 40
0.3125000000000007
100
AcDbArc
 50
72.4876023646
 51
139.8063228123
  0
LWPOLYLINE
  5
1AE
330
1F
100
AcDbEntity
  8
0
  6
Continuous
 62
     7
370
    15
100
AcDbPolyline
 90
        9
 70
   128
 43
0.0
 10
1.3865730865
 20
3.4146416746
 10
1.3886674623
 20
3.4117102085
 10
1.3948696307
 20
3.4030286688
 10
1.404942581
 20
3.3889304983
 10
1.4184991177
 20
3.3699576241
 10
1.4350159402
 20
3.3468390445
 10
1.4538618025
 20
3.3204632559
 10
1.4743092463
 20
3.2918439332
 10
1.495574494
 20
3.2620807703
  0
ARC
  5
1AF
330
1F
100
AcDbEntity
  8
0
  6
Continuous
 62
     7
370
    15
100
AcDbCircle
 10
1.3150436399
 20
3.5147546985
 30
0.0
 40
0.310540721087787
100
AcDbArc
 50
252.4876023646
 51
305.5451221649
  0
ARC
  5
1B0
330
1F
100
AcDbEntity
  8
0
  6
Continuous
 62
     7
370
    15
100
AcDbCircle
 10
1.6772445727
 20
3.0078126658
 30
0.0
 40
0.3124999999999996
100
AcDbArc
 50
73.25
 51
125.5451221649
  0
CIRCLE
  5
1B1
330
1F
100
AcDbEntity
  8
0
  6
Continuous
 62
     7
370
    15
100
AcDbCircle
 10
1.8150436399
 20
2.3397546985
 30
0.0
 40
0.5590000000000004
  0
CIRCLE
  5
1B2
330
1F
100
AcDbEntity
  8
0
  6
Continuous
 62
     7
370
    15
100
AcDbCircle
 10
1.1063822226
 20
2.3397546985
 30
0.0
 40
0.03925
  0
CIRCLE
  5
1B3
330
1F
100
AcDbEntity
  8
0
  6
Continuous
 62
     7
370
    15
100
AcDbCircle
 10
2.1693743486
 20
2.9534734885
 30
0.0
 40
0.0392499999999994
  0
CIRCLE
  5
1B4
330
1F
100
AcDbEntity
  8
0
  6
Continuous
 62
     7
370
    15
100
AcDbCircle
 10
2.1693743486
 20
1.7260359084
 30
0.0
 40
0.0392499999999989
  0
ARC
  5
1B5
330
1F
100
AcDbEntity
  8
0
  6
Continuous
 62
     7
370
    15
100
AcDbCircle
 10
3.0650436399
 20
2.3397546985
 30
0.0
 40
0.5250000000000016
100
AcDbArc
 50
95.5677951143
 51
264.4322048857
  0
CIRCLE
  5
1B6
330
1F
100
AcDbEntity
  8
0
  6
Continuous
 62
     7
370
    15
100
AcDbCircle
 10
12.3150436399
 20
2.3397546985
 30
0.0
 40
0.3754999999999995
  0
CIRCLE
  5
1B7
330
1F
100
AcDbEntity
  8
0
  6
Continuous
 62
     7
370
    15
100
AcDbCircle
 10
12.3150436399
 20
2.3397546985
 30
0.0
 40
0.9000000000000001
  0
CIRCLE
  5
1B8
330
1F
100
AcDbEntity
  8
0
  6
Continuous
 62
     7
370
    15
100
AcDbCircle
 10
11.7354203381
 20
2.6744003677
 30
0.0
 40
0.0795000000000003
  0
CIRCLE
  5
1B9
330
1F
100
AcDbEntity
  8
0
  6
Continuous
 62
     7
370
    15
100
AcDbCircle
 10
11.7354203381
 20
2.0051090292
 30
0.0
 40
0.0794999999999999
  0
CIRCLE
  5
1BA
330
1F
100
AcDbEntity
  8
0
  6
Continuous
 62
     7
370
    15
100
AcDbCircle
 10
12.3150436399
 20
1.6704633599
 30
0.0
 40
0.0795000000000001
  0
CIRCLE
  5
1BB
330
1F
100
AcDbEntity
  8
0
  6
Continuous
 62
     7
370
    15
100
AcDbCircle
 10
12.8946669416
 20
2.0051090292
 30
0.0
 40
0.0794999999999999
  0
CIRCLE
  5
1BC
330
1F
100
AcDbEntity
  8
0
  6
Continuous
 62
     7
370
    15
100
AcDbCircle
 10
12.8946669416
 20
2.6744003677
 30
0.0
 40
0.0794999999999995
  0
CIRCLE
  5
1BD
330
1F
100
AcDbEntity
  8
0
  6
Continuous
 62
     7
370
    15
100
AcDbCircle
 10
12.3150436399
 20
3.009046037
 30
0.0
 40
0.0794999999999999
  0
LWPOLYLINE
  5
1BE
330
1F
100
AcDbEntity
  8
0
  6
Continuous
 62
     7
370
    15
100
AcDbPolyline
 90
        9
 70
   128
 43
0.0
 10
3.2090044603
 20
3.3242542521
 10
3.212549646
 20
3.3210124429
 10
3.2230479247
 20
3.3114116071
 10
3.2400962611
 20
3.2958206806
 10
3.2630393561
 20
3.2748387896
 10
3.2909960465
 20
3.2492722983
 10
3.3228915713
 20
3.2201037153
 10
3.3574998115
 20
3.1884539275
 10
3.3934913958
 20
3.1555393011
  0
SPLINE
  5
1BF
330
1F
100
AcDbEntity
  8
0
  6
Continuous
 62
     7
370
    15
100
AcDbSpline
210
0.0
220
0.0
230
1.0
 70
     8
 71
     3
 72
    24
 73
    20
 74
     0
 42
0.00000001
 43
0.00000001
 40
0.0
 40
0.0
 40
0.0
 40
0.0
 40
0.0624999999999997
 40
0.0624999999999997
 40
0.1249999999999993
 40
0.1249999999999993
 40
0.2499999999999994
 40
0.2499999999999994
 40
0.3749999999999996
 40
0.3749999999999996
 40
0.4999999999999997
 40
0.4999999999999997
 40
0.6249999999999998
 40
0.6249999999999998
 40
0.7499999999999999
 40
0.7499999999999999
 40
0.875
 40
0.875
 40
1.0
 40
1.0
 40
1.0
 40
1.0
 10
3.393491192535758
 20
3.155539270095685
 30
0.0
 10
3.389237476127104
 20
3.150434977127437
 30
0.0
 10
3.384672432549436
 20
3.145604746843279
 30
0.0
 10
3.375154085859743
 20
3.136682571605748
 30
0.0
 10
3.370177829652525
 20
3.132560489411347
 30
0.0
 10
3.354650019761557
 20
3.121141591267285
 30
0.0
 10
3.343430956783136
 20
3.114808068053765
 30
0.0
 10
3.321178503501188
 20
3.104875695119323
 30
0.0
 10
3.310145683615067
 20
3.101202313437563
 30
0.0
 10
3.28843147309061
 20
3.095586776441766
 30
0.0
 10
3.277661774943321
 20
3.093648500468268
 30
0.0
 10
3.257283945703542
 20
3.09105996620603
 30
0.0
 10
3.24764038154785
 20
3.09039243310746
 30
0.0
 10
3.229727096199315
 20
3.089806162501345
 30
0.0
 10
3.221416368389309
 20
3.089895965311122
 30
0.0
 10
3.207186729376898
 20
3.090390113886156
 30
0.0
 10
3.201331967263432
 20
3.090785487610491
 30
0.0
 10
3.193120552579397
 20
3.09141673886884
 30
0.0
 10
3.190823001403953
 20
3.091641316535924
 30
0.0
 10
3.190823001403956
 20
3.091641316535924
 30
0.0
  0
SPLINE
  5
1C0
330
1F
100
AcDbEntity
  8
0
  6
Continuous
 62
     7
370
    15
100
AcDbSpline
210
0.0
220
0.0
230
1.0
 70
     8
 71
     3
 72
    12
 73
     8
 74
     0
 42
0.00000001
 43
0.00000001
 40
0.0
 40
0.0
 40
0.0
 40
0.0
 40
0.21486612916133
 40
0.4808466719756884
 40
0.8098939393992584
 40
0.9482999848106146
 40
1.0
 40
1.0
 40
1.0
 40
1.0
 10
3.051665211232884
 20
3.200161605623188
 30
0.0
 10
3.06155268331837
 20
3.205743832496877
 30
0.0
 10
3.083679754090837
 20
3.218236239861888
 30
0.0
 10
3.126661651740009
 20
3.247763302046419
 30
0.0
 10
3.167999179250963
 20
3.282317352213306
 30
0.0
 10
3.196311277152597
 20
3.310539132549196
 30
0.0
 10
3.206290559258496
 20
3.321321853119293
 30
0.0
 10
3.209004460303121
 20
3.324254252094347
 30
0.0
  0
SPLINE
  5
1C1
330
1F
100
AcDbEntity
  8
0
  6
Continuous
 62
     7
370
    15
100
AcDbSpline
210
0.0
220
0.0
230
1.0
 70
     8
 71
     3
 72
    26
 73
    22
 74
     0
 42
0.00000001
 43
0.00000001
 40
0.0
 40
0.0
 40
0.0
 40
0.0
 40
0.0625000000000003
 40
0.0625000000000003
 40
0.1250000000000005
 40
0.1250000000000005
 40
0.2500000000000007
 40
0.2500000000000007
 40
0.3750000000000009
 40
0.3750000000000009
 40
0.5000000000000012
 40
0.5000000000000012
 40
0.6250000000000014
 40
0.6250000000000014
 40
0.7500000000000016
 40
0.7500000000000016
 40
0.8125000000000014
 40
0.8125000000000014
 40
0.8750000000000012
 40
0.8750000000000012
 40
1.0
 40
1.0
 40
1.0
 40
1.0
 10
3.190823001403956
 20
1.587868080365146
 30
0.0
 10
3.190823001403956
 20
1.587868080365146
 30
0.0
 10
3.191387159100741
 20
1.587920838938522
 30
0.0
 10
3.193549222800287
 20
1.588111081603873
 30
0.0
 10
3.195136291170832
 20
1.588247338714721
 30
0.0
 10
3.201234418149157
 20
1.588716956427073
 30
0.0
 10
3.207139726744644
 20
1.589116912443209
 30
0.0
 10
3.221383222381939
 20
1.589613014719862
 30
0.0
 10
3.229572740189387
 20
1.589703285721371
 30
0.0
 10
3.247421346860918
 20
1.589129029352169
 30
0.0
 10
3.257146554627073
 20
1.588463537017067
 30
0.0
 10
3.27761934635039
 20
1.585869602797353
 30
0.0
 10
3.288378644886436
 20
1.583936502895569
 30
0.0
 10
3.310207025096594
 20
1.578290999312777
 30
0.0
 10
3.321258905070822
 20
1.57460134702185
 30
0.0
 10
3.337897373376221
 20
1.56716946406831
 30
0.0
 10
3.343487788871133
 20
1.564349727063921
 30
0.0
 10
3.354366449566209
 20
1.558098318597509
 30
0.0
 10
3.359680734924122
 20
1.55465904749003
 30
0.0
 10
3.375184362068216
 20
1.543285283902847
 30
0.0
 10
3.384993535647583
 20
1.534166982010085
 30
0.0
 10
3.393491192535761
 20
1.523970126805383
 30
0.0
  0
LWPOLYLINE
  5
1C2
330
1F
100
AcDbEntity
  8
0
  6
Continuous
 62
     7
370
    15
100
AcDbPolyline
 90
        9
 70
   128
 43
0.0
 10
3.3934913958
 20
1.5239700958
 10
3.3574998115
 20
1.4910554694
 10
3.3228915713
 20
1.4594056817
 10
3.2909960465
 20
1.4302370986
 10
3.2630393561
 20
1.4046706073
 10
3.2400962611
 20
1.3836887163
 10
3.2230479247
 20
1.3680977898
 10
3.212549646
 20
1.358496954
 10
3.2090044603
 20
1.3552551448
  0
SPLINE
  5
1C3
330
1F
100
AcDbEntity
  8
0
  6
Continuous
 62
     7
370
    15
100
AcDbSpline
210
0.0
220
0.0
230
1.0
 70
     8
 71
     3
 72
    12
 73
     8
 74
     0
 42
0.00000001
 43
0.00000001
 40
0.0
 40
0.0
 40
0.0
 40
0.0
 40
0.0742931423497139
 40
0.4047281067250701
 40
0.4976205265892759
 40
0.954808816231562
 40
1.0
 40
1.0
 40
1.0
 40
1.0
 10
3.209004460303121
 20
1.355255144806722
 30
0.0
 10
3.205102301695893
 20
1.359450069541979
 30
0.0
 10
3.18384444107385
 20
1.382302837539904
 30
0.0
 10
3.155490862977592
 20
1.407961591785532
 30
0.0
 10
3.107472157021656
 20
1.445777620513268
 30
0.0
 10
3.075013486423921
 20
1.467178192121194
 30
0.0
 10
3.053596996133961
 20
1.478410979769789
 30
0.0
 10
3.051670491171891
 20
1.479421417094016
 30
0.0
  0
LWPOLYLINE
  5
1C4
330
1F
100
AcDbEntity
  8
0
  6
Continuous
 62
     7
370
    15
100
AcDbPolyline
 90
        9
 70
   128
 43
0.0
 10
3.6337937398
 20
2.9199957588
 10
3.6081877956
 20
2.8938728206
 10
3.5835662667
 20
2.8687537674
 10
3.5608748488
 20
2.8456039115
 10
3.5409859052
 20
2.8253128859
 10
3.5246632671
 20
2.8086605083
 10
3.5125346606
 20
2.7962866412
 10
3.5050653068
 20
2.7886668459
 10
3.5025438426
 20
2.7860939756
  0
LINE
  5
1C5
330
1F
100
AcDbEntity
  8
0
  6
Continuous
 62
     7
370
    15
100
AcDbLine
 10
3.3934913958
 20
3.1555393011
 30
0.0
 11
3.6337937398
 21
2.9199957588
 31
0.0
  0
LWPOLYLINE
  5
1C6
330
1F
100
AcDbEntity
  8
0
  6
Continuous
 62
     7
370
    15
100
AcDbPolyline
 90
        9
 70
   128
 43
0.0
 10
3.6337937398
 20
1.7595136381
 10
3.6081877956
 20
1.7856365763
 10
3.5835662667
 20
1.8107556295
 10
3.5608748488
 20
1.8339054854
 10
3.5409859052
 20
1.854196511
 10
3.5246632671
 20
1.8708488886
 10
3.5125346606
 20
1.8832227557
 10
3.5050653068
 20
1.890842551
 10
3.5025438426
 20
1.8934154213
  0
LINE
  5
1C7
330
1F
100
AcDbEntity
  8
0
  6
Continuous
 62
     7
370
    15
100
AcDbLine
 10
3.6337937398
 20
1.7595136381
 30
0.0
 11
3.3934913958
 21
1.5239700958
 31
0.0
  0
CIRCLE
  5
1C8
330
1F
100
AcDbEntity
  8
0
  6
Continuous
 62
     7
370
    15
100
AcDbCircle
 10
12.3150436399
 20
2.3397546985
 30
0.0
 40
1.0875
  0
ARC
  5
1C9
330
1F
100
AcDbEntity
  8
0
  6
Continuous
 62
     7
370
    15
100
AcDbCircle
 10
3.0650436399
 20
2.3397546985
 30
0.0
 40
0.8125000000000017
100
AcDbArc
 50
314.4270040008
 51
45.5729959992
  0
LINE
  5
1CA
330
1F
100
AcDbEntity
  8
0
  6
Continuous
 62
     7
370
    15
100
AcDbLine
 10
3.8600438194
 20
1.0897546586
 30
0.0
 11
12.3150436399
 21
1.0897546586
 31
0.0
  0
LINE
  5
1CB
330
1F
100
AcDbEntity
  8
0
  6
Continuous
 62
     7
370
    15
100
AcDbLine
 10
12.3150436399
 20
1.0897546586
 30
0.0
 11
12.3150436399
 21
0.8397546799
 31
0.0
  0
LINE
  5
1CC
330
1F
100
AcDbEntity
  8
0
  6
Continuous
 62
     7
370
    15
100
AcDbLine
 10
12.3150436399
 20
0.8397546799
 30
0.0
 11
3.8600438194
 21
0.8397546799
 31
0.0
  0
LINE
  5
1CD
330
1F
100
AcDbEntity
  8
0
  6
Continuous
 62
     7
370
    15
100
AcDbLine
 10
3.8600438194
 20
1.0897546586
 30
0.0
 11
3.8600438194
 21
0.8397546799
 31
0.0
  0
ARC
  5
1CE
330
1F
100
AcDbEntity
  8
0
  6
Continuous
 62
     7
370
    15
100
AcDbCircle
 10
3.8600436399
 20
1.4347546985
 30
0.0
 40
0.3449999999999995
100
AcDbArc
 50
204.2608175996
 51
270.0
  0
ARC
  5
1CF
330
1F
100
AcDbEntity
  8
0
  6
Continuous
 62
     7
370
    15
100
AcDbCircle
 10
3.8600436399
 20
1.4347546985
 30
0.0
 40
0.5949999999999988
100
AcDbArc
 50
204.2608175996
 51
270.0
  0
LWPOLYLINE
  5
1D0
330
1F
100
AcDbEntity
  8
0
  6
Continuous
 62
     7
370
    15
100
AcDbPolyline
 90
        9
 70
   128
 43
0.0
 10
3.5455125729
 20
1.2929973307
 10
3.5010472733
 20
1.2729571022
 10
3.4582909139
 20
1.2536870115
 10
3.4188861424
 20
1.2359276433
 10
3.3843477147
 20
1.2203613564
 10
3.3560032422
 20
1.2075864707
 10
3.3349409788
 20
1.1980938737
 10
3.321971102
 20
1.1922483212
 10
3.3175910992
 20
1.1902745773
  0
ARC
  5
1D1
330
1F
100
AcDbEntity
  8
0
  6
Continuous
 62
     7
370
    15
100
AcDbCircle
 10
12.3150436399
 20
2.3397546985
 30
0.0
 40
1.5
100
AcDbArc
 50
270.0
 51
90.0
  0
ARC
  5
1D2
330
1F
100
AcDbEntity
  8
0
  6
Continuous
 62
     7
370
    15
100
AcDbCircle
 10
12.3150436399
 20
2.3397546985
 30
0.0
 40
1.25
100
AcDbArc
 50
270.0
 51
90.0
  0
LINE
  5
1D3
330
1F
100
AcDbEntity
  8
0
  6
Continuous
 62
     7
370
    15
100
AcDbLine
 10
12.3150436399
 20
3.839754717
 30
0.0
 11
12.3150436399
 21
3.5897547383
 31
0.0
  0
LINE
  5
1D4
330
1F
100
AcDbEntity
  8
0
  6
Continuous
 62
     7
370
    15
100
AcDbLine
 10
12.3150436399
 20
3.5897547383
 30
0.0
 11
3.8600438194
 21
3.5897547383
 31
0.0
  0
ARC
  5
1D5
330
1F
100
AcDbEntity
  8
0
  6
Continuous
 62
     7
370
    15
100
AcDbCircle
 10
2.7477885713
 20
0.9334676925
 30
0.0
 40
0.8750000000000002
100
AcDbArc
 50
24.2608175996
 51
42.4432735122
  0
ARC
  5
1D6
330
1F
100
AcDbEntity
  8
0
  6
Continuous
 62
     7
370
    15
100
AcDbCircle
 10
2.7477885713
 20
3.7460417044
 30
0.0
 40
0.8750000000000006
100
AcDbArc
 50
317.5567264878
 51
335.7391824004
  0
ARC
  5
1D7
330
1F
100
AcDbEntity
  8
0
  6
Continuous
 62
     7
370
    15
100
AcDbCircle
 10
3.8600436399
 20
3.2447546985
 30
0.0
 40
0.3449999999999983
100
AcDbArc
 50
90.0
 51
155.7391824004
  0
ARC
  5
1D8
330
1F
100
AcDbEntity
  8
0
  6
Continuous
 62
     7
370
    15
100
AcDbCircle
 10
2.7477885713
 20
0.9334676925
 30
0.0
 40
0.6250000000000003
100
AcDbArc
 50
24.2608175996
 51
42.4432735122
  0
LWPOLYLINE
  5
1D9
330
1F
100
AcDbEntity
  8
0
  6
Continuous
 62
     7
370
    15
100
AcDbPolyline
 90
        9
 70
   128
 43
0.0
 10
3.3175910992
 20
3.4892348196
 10
3.321971102
 20
3.4872610757
 10
3.3349409788
 20
3.4814155232
 10
3.3560032422
 20
3.4719229262
 10
3.3843477147
 20
3.4591480405
 10
3.4188861424
 20
3.4435817536
 10
3.4582909139
 20
3.4258223854
 10
3.5010472733
 20
3.4065522947
 10
3.5455125729
 20
3.3865120662
  0
ARC
  5
1DA
330
1F
100
AcDbEntity
  8
0
  6
Continuous
 62
     7
370
    15
100
AcDbCircle
 10
2.7477885713
 20
3.7460417044
 30
0.0
 40
0.6249999999999997
100
AcDbArc
 50
317.5567264878
 51
335.7391824004
  0
ARC
  5
1DB
330
1F
100
AcDbEntity
  8
0
  6
Continuous
 62
     7
370
    15
100
AcDbCircle
 10
3.8600436399
 20
3.2447546985
 30
0.0
 40
0.5949999999999993
100
AcDbArc
 50
90.0
 51
155.7391824004
  0
LINE
  5
1DC
330
1F
100
AcDbEntity
  8
0
  6
Continuous
 62
     7
370
    15
100
AcDbLine
 10
3.8600438194
 20
3.839754717
 30
0.0
 11
3.8600438194
 21
3.5897547383
 31
0.0
  0
LINE
  5
1DD
330
1F
100
AcDbEntity
  8
0
  6
Continuous
 62
     7
370
    15
100
AcDbLine
 10
3.8600438194
 20
3.839754717
 30
0.0
 11
12.3150436399
 21
3.839754717
 31
0.0
  0
LINE
  5
1DE
330
1F
100
AcDbEntity
  8
0
  6
Continuous
 62
     7
370
    15
100
AcDbLine
 10
3.3650436711
 20
1.9089124822
 30
0.0
 11
3.3650436711
 21
2.7705969147
 31
0.0
  0
ARC
  5
1DF
330
1F
100
AcDbEntity
  8
0
  6
Continuous
 62
     7
370
    15
100
AcDbCircle
 10
1.8150436399
 20
2.3397546985
 30
0.0
 40
0.8359999999999993
100
AcDbArc
 50
341.8289353889
 51
18.1710646111
  0
CIRCLE
  5
1E0
330
1F
100
AcDbEntity
  8
0
  6
HIDDEN
 62
     7
370
     0
100
AcDbCircle
 10
11.7354203381
 20
2.6744003677
 30
0.0
 40
0.0949999934886403
  0
CIRCLE
  5
1E1
330
1F
100
AcDbEntity
  8
0
  6
HIDDEN
 62
     7
370
     0
100
AcDbCircle
 10
11.7354203381
 20
2.0051090292
 30
0.0
 40
0.095000005848636
  0
CIRCLE
  5
1E2
330
1F
100
AcDbEntity
  8
0
  6
HIDDEN
 62
     7
370
     0
100
AcDbCircle
 10
12.3150436399
 20
1.6704633599
 30
0.0
 40
0.0949999996740551
  0
CIRCLE
  5
1E3
330
1F
100
AcDbEntity
  8
0
  6
HIDDEN
 62
     7
370
     0
100
AcDbCircle
 10
12.8946669416
 20
2.0051090292
 30
0.0
 40
0.0949999934886421
  0
CIRCLE
  5
1E4
330
1F
100
AcDbEntity
  8
0
  6
HIDDEN
 62
     7
370
     0
100
AcDbCircle
 10
12.8946669416
 20
2.6744003677
 30
0.0
 40
0.095000005848636
  0
CIRCLE
  5
1E5
330
1F
100
AcDbEntity
  8
0
  6
HIDDEN
 62
     7
370
     0
100
AcDbCircle
 10
12.3150436399
 20
3.009046037
 30
0.0
 40
0.0949999996740587
  0
CIRCLE
  5
1E6
330
1F
100
AcDbEntity
  8
0
  6
HIDDEN
 62
     7
370
     0
100
AcDbCircle
 10
1.1063822226
 20
2.3397546985
 30
0.0
 40
0.0494997689104459
  0
CIRCLE
  5
1E7
330
1F
100
AcDbEntity
  8
0
  6
HIDDEN
 62
     7
370
     0
100
AcDbCircle
 10
2.1693743486
 20
2.9534734885
 30
0.0
 40
0.0494999212798466
  0
CIRCLE
  5
1E8
330
1F
100
AcDbEntity
  8
0
  6
HIDDEN
 62
     7
370
     0
100
AcDbCircle
 10
2.1693743486
 20
1.7260359084
 30
0.0
 40
0.0494999212798466
  0
CIRCLE
  5
1E9
330
1F
100
AcDbEntity
  8
0
  6
HIDDEN
 62
     7
370
     0
100
AcDbCircle
 10
1.3150436399
 20
3.5147546985
 30
0.0
 40
0.0560005593487656
  0
CIRCLE
  5
1EA
330
1F
100
AcDbEntity
  8
0
  6
HIDDEN
 62
     7
370
     0
100
AcDbCircle
 10
1.3150436399
 20
1.1647546985
 30
0.0
 40
0.0560005593487656
  0
ENDSEC
  0
SECTION
  2
OBJECTS
  0
DICTIONARY
  5
C
330
0
100
AcDbDictionary
281
     1
  3
ACAD_GROUP
350
D
  3
ACAD_LAYOUT
350
1A
  3
ACAD_MLINESTYLE
350
17
  3
ACAD_PLOTSETTINGS
350
19
  3
ACAD_PLOTSTYLENAME
350
E
  0
DICTIONARY
  5
D
102
{ACAD_REACTORS
330
C
102
}
330
C
100
AcDbDictionary
281
     1
  0
DICTIONARY
  5
1A
102
{ACAD_REACTORS
330
C
102
}
330
C
100
AcDbDictionary
281
     1
  3
Layout1
350
1E
  3
Layout2
350
26
  3
Model
350
22
  0
DICTIONARY
  5
17
102
{ACAD_REACTORS
330
C
102
}
330
C
100
AcDbDictionary
281
     1
  3
Standard
350
18
  0
DICTIONARY
  5
19
102
{ACAD_REACTORS
330
C
102
}
330
C
100
AcDbDictionary
281
     1
  0
ACDBDICTIONARYWDFLT
  5
E
102
{ACAD_REACTORS
330
C
102
}
330
C
100
AcDbDictionary
281
     1
  3
Normal
350
F
100
AcDbDictionaryWithDefault
340
F
  0
LAYOUT
  5
1E
102
{ACAD_REACTORS
330
1A
102
}
330
1A
100
AcDbPlotSettings
  1

  2
none_device
  4

  6

 40
0.0
 41
0.0
 42
0.0
 43
0.0
 44
0.0
 45
0.0
 46
0.0
 47
0.0
 48
0.0
 49
0.0
140
0.0
141
0.0
142
1.0
143
1.0
 70
   688
 72
     0
 73
     0
 74
     5
  7

 75
    16
147
1.0
148
0.0
149
0.0
100
AcDbLayout
  1
Layout1
 70
     1
 71
     1
 10
0.0
 20
0.0
 11
12.0
 21
9.0
 12
0.0
 22
0.0
 32
0.0
 14
1.0000000000E+20
 24
1.0000000000E+20
 34
1.0000000000E+20
 15
-1.0000000000E+20
 25
-1.0000000000E+20
 35
-1.0000000000E+20
146
0.0
 13
0.0
 23
0.0
 33
0.0
 16
1.0
 26
0.0
 36
0.0
 17
0.0
 27
1.0
 37
0.0
 76
     0
330
1B
  0
LAYOUT
  5
26
102
{ACAD_REACTORS
330
1A
102
}
330
1A
100
AcDbPlotSettings
  1

  2
none_device
  4

  6

 40
0.0
 41
0.0
 42
0.0
 43
0.0
 44
0.0
 45
0.0
 46
0.0
 47
0.0
 48
0.0
 49
0.0
140
0.0
141
0.0
142
1.0
143
1.0
 70
   688
 72
     0
 73
     0
 74
     5
  7

 75
    16
147
1.0
148
0.0
149
0.0
100
AcDbLayout
  1
Layout2
 70
     1
 71
     2
 10
0.0
 20
0.0
 11
0.0
 21
0.0
 12
0.0
 22
0.0
 32
0.0
 14
0.0
 24
0.0
 34
0.0
 15
0.0
 25
0.0
 35
0.0
146
0.0
 13
0.0
 23
0.0
 33
0.0
 16
1.0
 26
0.0
 36
0.0
 17
0.0
 27
1.0
 37
0.0
 76
     0
330
23
  0
LAYOUT
  5
22
102
{ACAD_REACTORS
330
1A
102
}
330
1A
100
AcDbPlotSettings
  1

  2
none_device
  4

  6

 40
0.0
 41
0.0
 42
0.0
 43
0.0
 44
0.0
 45
0.0
 46
0.0
 47
0.0
 48
0.0
 49
0.0
140
0.0
141
0.0
142
1.0
143
1.0
 70
  1712
 72
     0
 73
     0
 74
     0
  7

 75
     0
147
1.0
148
0.0
149
0.0
100
AcDbLayout
  1
Model
 70
     1
 71
     0
 10
0.0
 20
0.0
 11
14.0
 21
12.0
 12
0.0
 22
0.0
 32
0.0
 14
0.0
 24
0.0
 34
0.0
 15
14.0
 25
12.0
 35
0.0
146
0.0
 13
0.0
 23
0.0
 33
0.0
 16
1.0
 26
0.0
 36
0.0
 17
0.0
 27
1.0
 37
0.0
 76
     0
330
1F
331
29
  0
MLINESTYLE
  5
18
102
{ACAD_REACTORS
330
17
102
}
330
17
100
AcDbMlineStyle
  2
Standard
 70
     0
  3

 62
   256
 51
90.0
 52
90.0
 71
     2
 49
0.5
 62
   256
  6
BYLAYER
 49
-0.5
 62
   256
  6
BYLAYER
  0
ACDBPLACEHOLDER
  5
F
102
{ACAD_REACTORS
330
E
102
}
330
E
  0
ENDSEC
  0
EOF
