  0
SECTION
  2
HEADER
  9
$ACADVER
  1
AC1015
  9
$ACADMAINTVER
 70
     6
  9
$DWGCODEPAGE
  3
ANSI_1252
  9
$INSBASE
 10
0.0
 20
0.0
 30
0.0
  9
$EXTMIN
 10
0.0
 20
0.0
 30
0.0
  9
$EXTMAX
 10
14.0
 20
10.0
 30
0.0
  9
$LIMMIN
 10
0.0
 20
0.0
  9
$LIMMAX
 10
14.0
 20
10.0
  9
$ORTHOMODE
 70
     0
  9
$REGENMODE
 70
     1
  9
$FILLMODE
 70
     1
  9
$QTEXTMODE
 70
     0
  9
$MIRRTEXT
 70
     1
  9
$LTSCALE
 40
1.0
  9
$ATTMODE
 70
     1
  9
$TEXTSIZE
 40
0.1666666667
  9
$TRACEWID
 40
0.05
  9
$TEXTSTYLE
  7
Standard
  9
$CLAYER
  8
0
  9
$CELTYPE
  6
ByLayer
  9
$CECOLOR
 62
   256
  9
$CELTSCALE
 40
1.0
  9
$DISPSILH
 70
     0
  9
$DIMSCALE
 40
1.0
  9
$DIMASZ
 40
0.12
  9
$DIMEXO
 40
0.05
  9
$DIMDLI
 40
0.38
  9
$DIMRND
 40
0.0
  9
$DIMDLE
 40
0.0
  9
$DIMEXE
 40
0.125
  9
$DIMTP
 40
0.0
  9
$DIMTM
 40
0.0
  9
$DIMTXT
 40
0.1666666667
  9
$DIMCEN
 40
0.09
  9
$DIMTSZ
 40
0.0
  9
$DIMTOL
 70
     0
  9
$DIMLIM
 70
     0
  9
$DIMTIH
 70
     1
  9
$DIMTOH
 70
     1
  9
$DIMSE1
 70
     0
  9
$DIMSE2
 70
     0
  9
$DIMTAD
 70
     0
  9
$DIMZIN
 70
     0
  9
$DIMBLK
  1

  9
$DIMASO
 70
     1
  9
$DIMSHO
 70
     1
  9
$DIMPOST
  1

  9
$DIMAPOST
  1

  9
$DIMALT
 70
     0
  9
$DIMALTD
 70
     2
  9
$DIMALTF
 40
25.4
  9
$DIMLFAC
 40
1.0
  9
$DIMTOFL
 70
     0
  9
$DIMTVP
 40
0.0
  9
$DIMTIX
 70
     0
  9
$DIMSOXD
 70
     0
  9
$DIMSAH
 70
     0
  9
$DIMBLK1
  1

  9
$DIMBLK2
  1

  9
$DIMSTYLE
  2
Standard
  9
$DIMCLRD
 70
     0
  9
$DIMCLRE
 70
     0
  9
$DIMCLRT
 70
     0
  9
$DIMTFAC
 40
1.0
  9
$DIMGAP
 40
0.06
  9
$DIMJUST
 70
     0
  9
$DIMSD1
 70
     0
  9
$DIMSD2
 70
     0
  9
$DIMTOLJ
 70
     1
  9
$DIMTZIN
 70
     0
  9
$DIMALTZ
 70
     0
  9
$DIMALTTZ
 70
     0
  9
$DIMUPT
 70
     0
  9
$DIMDEC
 70
     3
  9
$DIMTDEC
 70
     3
  9
$DIMALTU
 70
     2
  9
$DIMALTTD
 70
     2
  9
$DIMTXSTY
  7
Standard
  9
$DIMAUNIT
 70
     0
  9
$DIMADEC
 70
     1
  9
$DIMALTRND
 40
0.0
  9
$DIMAZIN
 70
     0
  9
$DIMDSEP
 70
    46
  9
$DIMATFIT
 70
     3
  9
$DIMFRAC
 70
     0
  9
$DIMLDRBLK
  1

  9
$DIMLUNIT
 70
     2
  9
$DIMLWD
 70
    -2
  9
$DIMLWE
 70
    -2
  9
$DIMTMOVE
 70
     0
  9
$LUNITS
 70
     2
  9
$LUPREC
 70
     3
  9
$SKETCHINC
 40
0.1
  9
$FILLETRAD
 40
0.5
  9
$AUNITS
 70
     0
  9
$AUPREC
 70
     1
  9
$MENU
  1
.
  9
$ELEVATION
 40
0.0
  9
$PELEVATION
 40
0.0
  9
$THICKNESS
 40
0.0
  9
$LIMCHECK
 70
     0
  9
$CHAMFERA
 40
0.5
  9
$CHAMFERB
 40
0.5
  9
$CHAMFERC
 40
1.0
  9
$CHAMFERD
 40
0.0
  9
$SKPOLY
 70
     0
  9
$TDCREATE
 40
2455357.421911319
  9
$TDUCREATE
 40
2455357.671911319
  9
$TDUPDATE
 40
2455357.421911331
  9
$TDUUPDATE
 40
2455357.671911331
  9
$TDINDWG
 40
0.0000000116
  9
$TDUSRTIMER
 40
0.0000000116
  9
$USRTIMER
 70
     1
  9
$ANGBASE
 50
0.0
  9
$ANGDIR
 70
     0
  9
$PDMODE
 70
     0
  9
$PDSIZE
 40
-1.0
  9
$PLINEWID
 40
0.0
  9
$SPLFRAME
 70
     0
  9
$SPLINETYPE
 70
     6
  9
$SPLINESEGS
 70
     8
  9
$HANDSEED
  5
214
  9
$SURFTAB1
 70
     6
  9
$SURFTAB2
 70
     6
  9
$SURFTYPE
 70
     6
  9
$SURFU
 70
     6
  9
$SURFV
 70
     6
  9
$UCSBASE
  2

  9
$UCSNAME
  2

  9
$UCSORG
 10
0.0
 20
0.0
 30
0.0
  9
$UCSXDIR
 10
1.0
 20
0.0
 30
0.0
  9
$UCSYDIR
 10
0.0
 20
1.0
 30
0.0
  9
$UCSORTHOREF
  2

  9
$UCSORTHOVIEW
 70
     0
  9
$UCSORGTOP
 10
0.0
 20
0.0
 30
0.0
  9
$UCSORGBOTTOM
 10
0.0
 20
0.0
 30
0.0
  9
$UCSORGLEFT
 10
0.0
 20
0.0
 30
0.0
  9
$UCSORGRIGHT
 10
0.0
 20
0.0
 30
0.0
  9
$UCSORGFRONT
 10
0.0
 20
0.0
 30
0.0
  9
$UCSORGBACK
 10
0.0
 20
0.0
 30
0.0
  9
$PUCSBASE
  2

  9
$PUCSNAME
  2

  9
$PUCSORG
 10
0.0
 20
0.0
 30
0.0
  9
$PUCSXDIR
 10
1.0
 20
0.0
 30
0.0
  9
$PUCSYDIR
 10
0.0
 20
1.0
 30
0.0
  9
$PUCSORTHOREF
  2

  9
$PUCSORTHOVIEW
 70
     0
  9
$PUCSORGTOP
 10
0.0
 20
0.0
 30
0.0
  9
$PUCSORGBOTTOM
 10
0.0
 20
0.0
 30
0.0
  9
$PUCSORGLEFT
 10
0.0
 20
0.0
 30
0.0
  9
$PUCSORGRIGHT
 10
0.0
 20
0.0
 30
0.0
  9
$PUCSORGFRONT
 10
0.0
 20
0.0
 30
0.0
  9
$PUCSORGBACK
 10
0.0
 20
0.0
 30
0.0
  9
$USERI1
 70
     0
  9
$USERI2
 70
     0
  9
$USERI3
 70
     0
  9
$USERI4
 70
     0
  9
$USERI5
 70
     0
  9
$USERR1
 40
0.0
  9
$USERR2
 40
0.0
  9
$USERR3
 40
0.0
  9
$USERR4
 40
0.0
  9
$USERR5
 40
0.0
  9
$WORLDVIEW
 70
     1
  9
$SHADEDGE
 70
     3
  9
$SHADEDIF
 70
    70
  9
$TILEMODE
 70
     1
  9
$MAXACTVP
 70
    64
  9
$PINSBASE
 10
0.0
 20
0.0
 30
0.0
  9
$PLIMCHECK
 70
     0
  9
$PEXTMIN
 10
1.0000000000E+20
 20
1.0000000000E+20
 30
1.0000000000E+20
  9
$PEXTMAX
 10
-1.0000000000E+20
 20
-1.0000000000E+20
 30
-1.0000000000E+20
  9
$PLIMMIN
 10
0.0
 20
0.0
  9
$PLIMMAX
 10
12.0
 20
9.0
  9
$UNITMODE
 70
     0
  9
$VISRETAIN
 70
     1
  9
$PLINEGEN
 70
     0
  9
$PSLTSCALE
 70
     1
  9
$TREEDEPTH
 70
  3020
  9
$CMLSTYLE
  2
Standard
  9
$CMLJUST
 70
     0
  9
$CMLSCALE
 40
1.0
  9
$PROXYGRAPHICS
 70
     1
  9
$MEASUREMENT
 70
     0
  9
$CELWEIGHT
370
    -1
  9
$ENDCAPS
280
     0
  9
$JOINSTYLE
280
     0
  9
$LWDISPLAY
290
     1
  9
$INSUNITS
 70
     1
  9
$HYPERLINKBASE
  1

  9
$STYLESHEET
  1

  9
$XEDIT
290
     1
  9
$CEPSNTYPE
380
     0
  9
$PSTYLEMODE
290
     1
  9
$FINGERPRINTGUID
  2
{4C188B5B-3606-44E2-A24B-A99D51758B2D}
  9
$VERSIONGUID
  2
{FAEB1C32-E019-11D5-929B-00C0DF256EC4}
  9
$EXTNAMES
290
     1
  9
$PSVPSCALE
 40
0.0
  9
$OLESTARTUP
290
     0
  0
ENDSEC
  0
SECTION
  2
CLASSES
  0
CLASS
  1
ACDBDICTIONARYWDFLT
  2
AcDbDictionaryWithDefault
  3
ObjectDBX Classes
 90
        0
280
     0
281
     0
  0
CLASS
  1
VISUALSTYLE
  2
AcDbVisualStyle
  3
ObjectDBX Classes
 90
     4095
280
     0
281
     0
  0
CLASS
  1
MATERIAL
  2
AcDbMaterial
  3
ObjectDBX Classes
 90
     1153
280
     0
281
     0
  0
CLASS
  1
ACDBPLACEHOLDER
  2
AcDbPlaceHolder
  3
ObjectDBX Classes
 90
        0
280
     0
281
     0
  0
CLASS
  1
LAYOUT
  2
AcDbLayout
  3
ObjectDBX Classes
 90
        0
280
     0
281
     0
  0
ENDSEC
  0
SECTION
  2
TABLES
  0
TABLE
  2
VPORT
  5
8
330
0
100
AcDbSymbolTable
 70
     1
  0
VPORT
  5
29
330
8
100
AcDbSymbolTableRecord
100
AcDbViewportTableRecord
  2
*Active
 70
     0
 10
0.0
 20
0.0
 11
1.0
 21
1.0
 12
7.0
 22
5.0
 13
0.0
 23
0.0
 14
0.5
 24
0.5
 15
0.5
 25
0.5
 16
0.0
 26
0.0
 36
1.0
 17
0.0
 27
0.0
 37
0.0
 40
10.0
 41
1.4
 42
50.0
 43
0.0
 44
0.0
 50
0.0
 51
0.0
 71
     0
 72
  2000
 73
     1
 74
     3
 75
     0
 76
     0
 77
     0
 78
     0
281
     0
 65
     1
110
0.0
120
0.0
130
0.0
111
1.0
121
0.0
131
0.0
112
0.0
122
1.0
132
0.0
 79
     0
146
0.0
  0
ENDTAB
  0
TABLE
  2
LTYPE
  5
5
330
0
100
AcDbSymbolTable
 70
     6
  0
LTYPE
  5
14
330
5
100
AcDbSymbolTableRecord
100
AcDbLinetypeTableRecord
  2
ByBlock
 70
     0
  3

 72
    65
 73
     0
 40
0.0
  0
LTYPE
  5
15
330
5
100
AcDbSymbolTableRecord
100
AcDbLinetypeTableRecord
  2
ByLayer
 70
     0
  3

 72
    65
 73
     0
 40
0.0
  0
LTYPE
  5
16
330
5
100
AcDbSymbolTableRecord
100
AcDbLinetypeTableRecord
  2
Continuous
 70
     0
  3
Solid line
 72
    65
 73
     0
 40
0.0
  0
LTYPE
  5
3F
330
5
100
AcDbSymbolTableRecord
100
AcDbLinetypeTableRecord
  2
HIDDEN
 70
     0
  3
Hidden __ __ __ __ __ __ __ __ __ __ __ __ __ __
 72
    65
 73
     2
 40
0.075
 49
0.05
 74
     0
 49
-0.025
 74
     0
  0
LTYPE
  5
40
330
5
100
AcDbSymbolTableRecord
100
AcDbLinetypeTableRecord
  2
PHANTOM
 70
     0
  3
Phantom ______  __  __  ______  __  __  ______
 72
    65
 73
     6
 40
0.5
 49
0.25
 74
     0
 49
-0.05
 74
     0
 49
0.05
 74
     0
 49
-0.05
 74
     0
 49
0.05
 74
     0
 49
-0.05
 74
     0
  0
LTYPE
  5
41
330
5
100
AcDbSymbolTableRecord
100
AcDbLinetypeTableRecord
  2
CENTER
 70
     0
  3
Center ____ _ ____ _ ____ _ ____ _ ____ _ ____
 72
    65
 73
     4
 40
0.4
 49
0.25
 74
     0
 49
-0.05
 74
     0
 49
0.05
 74
     0
 49
-0.05
 74
     0
  0
LTYPE
  5
42
330
5
100
AcDbSymbolTableRecord
100
AcDbLinetypeTableRecord
  2
CENTERX2
 70
     0
  3
Center (2x) ________  __  ________  __  _____
 72
    65
 73
     4
 40
0.8
 49
0.5
 74
     0
 49
-0.1
 74
     0
 49
0.1
 74
     0
 49
-0.1
 74
     0
  0
LTYPE
  5
43
330
5
100
AcDbSymbolTableRecord
100
AcDbLinetypeTableRecord
  2
DOT2
 70
     0
  3
Dot (.5x) ........................................
 72
    65
 73
     2
 40
0.025
 49
0.0
 74
     0
 49
-0.025
 74
     0
  0
ENDTAB
  0
TABLE
  2
LAYER
  5
2
330
0
100
AcDbSymbolTable
 70
     2
  0
LAYER
  5
10
330
2
100
AcDbSymbolTableRecord
100
AcDbLayerTableRecord
  2
0
 70
     0
 62
     7
  6
Continuous
370
    -3
390
F
  0
LAYER
  5
44
330
2
100
AcDbSymbolTableRecord
100
AcDbLayerTableRecord
  2
FORMAT
 70
     0
 62
     7
  6
Continuous
370
    -3
390
F
  0
ENDTAB
  0
TABLE
  2
STYLE
  5
3
330
0
100
AcDbSymbolTable
 70
     1
  0
STYLE
  5
11
330
3
100
AcDbSymbolTableRecord
100
AcDbTextStyleTableRecord
  2
Standard
 70
     0
 40
0.0
 41
1.0
 50
0.0
 71
     0
 42
0.2
  3
txt
  4

  0
ENDTAB
  0
TABLE
  2
VIEW
  5
6
330
0
100
AcDbSymbolTable
 70
     0
  0
ENDTAB
  0
TABLE
  2
UCS
  5
7
330
0
100
AcDbSymbolTable
 70
     0
  0
ENDTAB
  0
TABLE
  2
APPID
  5
9
330
0
100
AcDbSymbolTable
 70
     1
  0
APPID
  5
12
330
9
100
AcDbSymbolTableRecord
100
AcDbRegAppTableRecord
  2
ACAD
 70
     0
  0
ENDTAB
  0
TABLE
  2
DIMSTYLE
  5
A
330
0
100
AcDbSymbolTable
 70
     1
100
AcDbDimStyleTable
  0
DIMSTYLE
105
27
330
A
100
AcDbSymbolTableRecord
100
AcDbDimStyleTableRecord
  2
Standard
 70
     0
340
11
  0
ENDTAB
  0
TABLE
  2
BLOCK_RECORD
  5
1
330
0
100
AcDbSymbolTable
 70
     1
  0
BLOCK_RECORD
  5
1F
330
1
100
AcDbSymbolTableRecord
100
AcDbBlockTableRecord
  2
*Model_Space
340
22
  0
BLOCK_RECORD
  5
1B
330
1
100
AcDbSymbolTableRecord
100
AcDbBlockTableRecord
  2
*Paper_Space
340
1E
  0
BLOCK_RECORD
  5
23
330
1
100
AcDbSymbolTableRecord
100
AcDbBlockTableRecord
  2
*Paper_Space0
340
26
  0
ENDTAB
  0
ENDSEC
  0
SECTION
  2
BLOCKS
  0
BLOCK
  5
20
330
1F
100
AcDbEntity
  8
0
100
AcDbBlockBegin
  2
*Model_Space
 70
     0
 10
0.0
 20
0.0
 30
0.0
  3
*Model_Space
  1

  0
ENDBLK
  5
21
330
1F
100
AcDbEntity
  8
0
100
AcDbBlockEnd
  0
BLOCK
  5
1C
330
1B
100
AcDbEntity
 67
     1
  8
0
100
AcDbBlockBegin
  2
*Paper_Space
 70
     0
 10
0.0
 20
0.0
 30
0.0
  3
*Paper_Space
  1

  0
ENDBLK
  5
1D
330
1B
100
AcDbEntity
 67
     1
  8
0
100
AcDbBlockEnd
  0
BLOCK
  5
24
330
23
100
AcDbEntity
  8
0
100
AcDbBlockBegin
  2
*Paper_Space0
 70
     0
 10
0.0
 20
0.0
 30
0.0
  3
*Paper_Space0
  1

  0
ENDBLK
  5
25
330
23
100
AcDbEntity
  8
0
100
AcDbBlockEnd
  0
ENDSEC
  0
SECTION
  2
ENTITIES
  0
ARC
  5
45
330
1F
100
AcDbEntity
  8
0
  6
Continuous
 62
     7
370
    15
100
AcDbCircle
 10
0.4484499808
 20
4.9046019261
 30
0.0
 40
0.2500000000000009
100
AcDbArc
 50
180.0
 51
270.0
  0
LINE
  5
46
330
1F
100
AcDbEntity
  8
0
  6
Continuous
 62
     7
370
    15
100
AcDbLine
 10
0.1984498325
 20
6.5296019233
 30
0.0
 11
0.1984498325
 21
4.9046019246
 31
0.0
  0
LINE
  5
47
330
1F
100
AcDbEntity
  8
0
  6
Continuous
 62
     7
370
    15
100
AcDbLine
 10
13.6984499993
 20
4.871108274
 30
0.0
 11
13.6984499993
 21
6.5296019233
 31
0.0
  0
ARC
  5
48
330
1F
100
AcDbEntity
  8
0
  6
Continuous
 62
     7
370
    15
100
AcDbCircle
 10
13.4484499808
 20
4.871108277
 30
0.0
 40
0.2500000000000006
100
AcDbArc
 50
300.0
 51
0.0
  0
ARC
  5
49
330
1F
100
AcDbEntity
  8
0
  6
Continuous
 62
     7
370
    15
100
AcDbCircle
 10
0.4484499808
 20
4.4671019261
 30
0.0
 40
0.1875000000000001
100
AcDbArc
 50
0.0
 51
90.0
  0
ARC
  5
4A
330
1F
100
AcDbEntity
  8
0
  6
Continuous
 62
     7
370
    15
100
AcDbCircle
 10
2.9484499808
 20
4.4671019261
 30
0.0
 40
0.1875000000000004
100
AcDbArc
 50
90.0
 51
180.0
  0
LINE
  5
4B
330
1F
100
AcDbEntity
  8
0
  6
Continuous
 62
     7
370
    15
100
AcDbLine
 10
0.6359502718
 20
4.4671019161
 30
0.0
 11
0.6359502718
 21
3.5296018862
 31
0.0
  0
LINE
  5
4C
330
1F
100
AcDbEntity
  8
0
  6
Continuous
 62
     7
370
    15
100
AcDbLine
 10
2.7609497236
 20
3.5296018862
 30
0.0
 11
2.7609497236
 21
4.4671019161
 31
0.0
  0
LINE
  5
4D
330
1F
100
AcDbEntity
  8
0
  6
Continuous
 62
     7
370
    15
100
AcDbLine
 10
1.6984499977
 20
4.9046019246
 30
0.0
 11
1.6984499977
 21
4.6546019276
 31
0.0
  0
LINE
  5
4E
330
1F
100
AcDbEntity
  8
0
  6
Continuous
 62
     7
370
    15
100
AcDbLine
 10
1.6984499977
 20
4.6546019276
 30
0.0
 11
0.4484502511
 21
4.6546019276
 31
0.0
  0
LINE
  5
4F
330
1F
100
AcDbEntity
  8
0
  6
Continuous
 62
     7
370
    15
100
AcDbLine
 10
0.1984498325
 20
6.5296019233
 30
0.0
 11
1.6984499977
 21
6.5296019233
 31
0.0
  0
LINE
  5
50
330
1F
100
AcDbEntity
  8
0
  6
Continuous
 62
     7
370
    15
100
AcDbLine
 10
1.6984499977
 20
4.9046019246
 30
0.0
 11
1.6984499977
 21
6.5296019233
 31
0.0
  0
LINE
  5
51
330
1F
100
AcDbEntity
  8
0
  6
Continuous
 62
     7
370
    15
100
AcDbLine
 10
1.6984499977
 20
4.9046019246
 30
0.0
 11
11.6256280047
 21
4.9046019246
 31
0.0
  0
LINE
  5
52
330
1F
100
AcDbEntity
  8
0
  6
Continuous
 62
     7
370
    15
100
AcDbLine
 10
11.6256280047
 20
4.6546019276
 30
0.0
 11
11.6256280047
 21
4.9046019246
 31
0.0
  0
LINE
  5
53
330
1F
100
AcDbEntity
  8
0
  6
Continuous
 62
     7
370
    15
100
AcDbLine
 10
11.6256280047
 20
4.6546019276
 30
0.0
 11
1.6984499977
 21
4.6546019276
 31
0.0
  0
LINE
  5
54
330
1F
100
AcDbEntity
  8
0
  6
Continuous
 62
     7
370
    15
100
AcDbLine
 10
12.1984499808
 20
6.5296019233
 30
0.0
 11
13.6984499993
 21
6.5296019233
 31
0.0
  0
LINE
  5
55
330
1F
100
AcDbEntity
  8
0
  6
Continuous
 62
     7
370
    15
100
AcDbLine
 10
12.1984499808
 20
4.871108274
 30
0.0
 11
12.1984499808
 21
6.5296019233
 31
0.0
  0
LINE
  5
56
330
1F
100
AcDbEntity
  8
0
  6
Continuous
 62
     7
370
    15
100
AcDbLine
 10
1.6984499977
 20
6.5296019233
 30
0.0
 11
12.1984499808
 21
6.5296019233
 31
0.0
  0
SPLINE
  5
57
330
1F
100
AcDbEntity
  8
0
  6
Continuous
 62
     7
370
    15
100
AcDbSpline
210
0.0
220
0.0
230
1.0
 70
     8
 71
     3
 72
    12
 73
     8
 74
     0
 42
0.00000001
 43
0.00000001
 40
0.0
 40
0.0
 40
0.0
 40
0.0
 40
0.5
 40
0.5
 40
0.75
 40
0.75
 40
1.0
 40
1.0
 40
1.0
 40
1.0
 10
11.62562801890732
 20
4.904601926102498
 30
0.0
 10
11.72146820921964
 20
4.904601926102498
 30
0.0
 10
11.8167083292611
 20
4.895308238874574
 30
0.0
 10
11.95964657275558
 20
4.88257672830733
 30
0.0
 10
12.0073043972087
 20
4.878514767564746
 30
0.0
 10
12.10277332056577
 20
4.872764709400384
 30
0.0
 10
12.150605156002
 20
4.871108277048608
 30
0.0
 10
12.1984499807768
 20
4.871108277048608
 30
0.0
  0
LINE
  5
58
330
1F
100
AcDbEntity
  8
0
  6
Continuous
 62
     7
370
    15
100
AcDbLine
 10
11.6256280047
 20
4.6546019276
 30
0.0
 11
12.1984499808
 21
4.6546019276
 31
0.0
  0
LINE
  5
59
330
1F
100
AcDbEntity
  8
0
  6
Continuous
 62
     7
370
    15
100
AcDbLine
 10
12.1984499808
 20
4.6546019276
 30
0.0
 11
12.1984499808
 21
4.871108274
 31
0.0
  0
LINE
  5
5A
330
1F
100
AcDbEntity
  8
0
  6
Continuous
 62
     7
370
    15
100
AcDbLine
 10
12.1984499808
 20
4.6546019276
 30
0.0
 11
13.5734499367
 21
4.6546019276
 31
0.0
  0
LINE
  5
5B
330
1F
100
AcDbEntity
  8
0
  6
Continuous
 62
     7
370
    15
100
AcDbLine
 10
1.6984499977
 20
3.5296018862
 30
0.0
 11
2.7609497236
 21
3.5296018862
 31
0.0
  0
LINE
  5
5C
330
1F
100
AcDbEntity
  8
0
  6
Continuous
 62
     7
370
    15
100
AcDbLine
 10
0.6359502718
 20
3.5296018862
 30
0.0
 11
1.6984499977
 21
3.5296018862
 31
0.0
  0
LINE
  5
5D
330
1F
100
AcDbEntity
  8
0
  6
Continuous
 62
     8
370
    15
100
AcDbLine
 10
0.1984498325
 20
4.9046019246
 30
0.0
 11
1.6984499977
 21
4.9046019246
 31
0.0
  0
LINE
  5
5E
330
1F
100
AcDbEntity
  8
0
  6
Continuous
 62
     8
370
    15
100
AcDbLine
 10
12.1984499808
 20
4.871108274
 30
0.0
 11
13.6984499993
 21
4.871108274
 31
0.0
  0
LINE
  5
5F
330
1F
100
AcDbEntity
  8
0
  6
Continuous
 62
     8
370
    15
100
AcDbLine
 10
1.6984499977
 20
4.4671019161
 30
0.0
 11
0.6359502718
 21
4.4671019161
 31
0.0
  0
LINE
  5
60
330
1F
100
AcDbEntity
  8
0
  6
Continuous
 62
     8
370
    15
100
AcDbLine
 10
2.7609497236
 20
4.4671019161
 30
0.0
 11
1.6984499977
 21
4.4671019161
 31
0.0
  0
CIRCLE
  5
61
330
1F
100
AcDbEntity
  8
0
  6
Continuous
 62
     7
370
    15
100
AcDbCircle
 10
1.6984499808
 20
1.8431287342
 30
0.0
 40
1.002
  0
CIRCLE
  5
62
330
1F
100
AcDbEntity
  8
0
  6
Continuous
 62
     7
370
    15
100
AcDbCircle
 10
1.6984499808
 20
1.8431287342
 30
0.0
 40
1.0625
  0
CIRCLE
  5
63
330
1F
100
AcDbEntity
  8
0
  6
Continuous
 62
     7
370
    15
100
AcDbCircle
 10
1.6984499808
 20
1.8431287342
 30
0.0
 40
0.8359999999999996
  0
ARC
  5
64
330
1F
100
AcDbEntity
  8
0
  6
Continuous
 62
     7
370
    15
100
AcDbCircle
 10
1.6984499808
 20
1.8431287342
 30
0.0
 40
1.25
100
AcDbArc
 50
90.0
 51
270.0
  0
ARC
  5
65
330
1F
100
AcDbEntity
  8
0
  6
Continuous
 62
     7
370
    15
100
AcDbCircle
 10
1.6984499808
 20
1.8431287342
 30
0.0
 40
1.25
100
AcDbArc
 50
0.0
 51
90.0
  0
ARC
  5
66
330
1F
100
AcDbEntity
  8
0
  6
Continuous
 62
     7
370
    15
100
AcDbCircle
 10
1.6984499808
 20
1.8431287342
 30
0.0
 40
1.25
100
AcDbArc
 50
270.0
 51
0.0
  0
CIRCLE
  5
67
330
1F
100
AcDbEntity
  8
0
  6
Continuous
 62
     7
370
    15
100
AcDbCircle
 10
1.6984499808
 20
1.8431287342
 30
0.0
 40
0.5590000000000004
  0
CIRCLE
  5
68
330
1F
100
AcDbEntity
  8
0
  6
Continuous
 62
     7
370
    15
100
AcDbCircle
 10
2.4719499808
 20
1.8431287342
 30
0.0
 40
0.0624999999999996
  0
CIRCLE
  5
69
330
1F
100
AcDbEntity
  8
0
  6
Continuous
 62
     7
370
    15
100
AcDbCircle
 10
1.0484499808
 20
1.8431287342
 30
0.0
 40
0.046875
  0
ARC
  5
6A
330
1F
100
AcDbEntity
  8
0
  6
Continuous
 62
     7
370
    15
100
AcDbCircle
 10
1.6984499808
 20
1.8431287342
 30
0.0
 40
1.5
100
AcDbArc
 50
90.0
 51
270.0
  0
LINE
  5
6B
330
1F
100
AcDbEntity
  8
0
  6
Continuous
 62
     7
370
    15
100
AcDbLine
 10
1.6984499977
 20
3.3431287527
 30
0.0
 11
1.6984499977
 21
3.0931287741
 31
0.0
  0
LINE
  5
6C
330
1F
100
AcDbEntity
  8
0
  6
Continuous
 62
     7
370
    15
100
AcDbLine
 10
1.6984499977
 20
0.3431287157
 30
0.0
 11
1.6984499977
 21
0.5931286943
 31
0.0
  0
LINE
  5
6D
330
1F
100
AcDbEntity
  8
0
  6
Continuous
 62
     7
370
    15
100
AcDbLine
 10
11.6256280047
 20
0.3431287157
 30
0.0
 11
1.6984499977
 21
0.3431287157
 31
0.0
  0
LINE
  5
6E
330
1F
100
AcDbEntity
  8
0
  6
Continuous
 62
     7
370
    15
100
AcDbLine
 10
1.6984499977
 20
0.5931286943
 30
0.0
 11
11.6256280047
 21
0.5931286943
 31
0.0
  0
LINE
  5
6F
330
1F
100
AcDbEntity
  8
0
  6
Continuous
 62
     7
370
    15
100
AcDbLine
 10
11.6256280047
 20
0.3431287157
 30
0.0
 11
11.6256280047
 21
0.5931286943
 31
0.0
  0
ARC
  5
70
330
1F
100
AcDbEntity
  8
0
  6
Continuous
 62
     7
370
    15
100
AcDbCircle
 10
12.1984499808
 20
1.8431287342
 30
0.0
 40
1.375000000000001
100
AcDbArc
 50
270.0
 51
90.0
  0
LINE
  5
71
330
1F
100
AcDbEntity
  8
0
  6
Continuous
 62
     7
370
    15
100
AcDbLine
 10
12.1984499808
 20
3.2181286901
 30
0.0
 11
12.1984499808
 21
3.3431287527
 31
0.0
  0
ARC
  5
72
330
1F
100
AcDbEntity
  8
0
  6
Continuous
 62
     7
370
    15
100
AcDbCircle
 10
12.1984499808
 20
1.8431287342
 30
0.0
 40
1.5
100
AcDbArc
 50
270.0
 51
90.0
  0
LINE
  5
73
330
1F
100
AcDbEntity
  8
0
  6
Continuous
 62
     7
370
    15
100
AcDbLine
 10
12.1984499808
 20
0.4681287783
 30
0.0
 11
12.1984499808
 21
0.3431287157
 31
0.0
  0
SPLINE
  5
74
330
1F
100
AcDbEntity
  8
0
  6
Continuous
 62
     7
370
    15
100
AcDbSpline
210
0.0
220
0.0
230
1.0
 70
    24
 71
     3
 72
    14
 73
    10
 74
     0
 42
0.00000001
 43
0.00000001
 40
0.0
 40
0.0
 40
0.0
 40
0.0
 40
0.25
 40
0.25
 40
0.5
 40
0.5
 40
0.75
 40
0.75
 40
1.0
 40
1.0
 40
1.0
 40
1.0
 10
12.19844998077681
 20
0.343128734207395
 30
0.0
 10
12.15053205625936
 20
0.343128734207395
 30
0.0
 10
12.10271976252769
 20
0.3431287342073948
 30
0.0
 10
12.0072501884046
 20
0.343128734207395
 30
0.0
 10
11.95959097164191
 20
0.343128734207395
 30
0.0
 10
11.86429564808713
 20
0.343128734207395
 30
0.0
 10
11.81665853396743
 20
0.343128734207395
 30
0.0
 10
11.72125324779456
 20
0.343128734207395
 30
0.0
 10
11.67346189073925
 20
0.343128734207395
 30
0.0
 10
11.62562801890732
 20
0.343128734207395
 30
0.0
  0
ARC
  5
75
330
1F
100
AcDbEntity
  8
0
  6
Continuous
 62
     7
370
    15
100
AcDbCircle
 10
12.1984499808
 20
1.8431287342
 30
0.0
 40
1.375000000000001
100
AcDbArc
 50
245.3800226713
 51
270.0
  0
CIRCLE
  5
76
330
1F
100
AcDbEntity
  8
0
  6
Continuous
 62
     7
370
    15
100
AcDbCircle
 10
6.2984499808
 20
0.7431287342
 30
0.0
 40
0.044499999999999
  0
CIRCLE
  5
77
330
1F
100
AcDbEntity
  8
0
  6
Continuous
 62
     7
370
    15
100
AcDbCircle
 10
4.6234499808
 20
0.7431287342
 30
0.0
 40
0.044499999999999
  0
CIRCLE
  5
78
330
1F
100
AcDbEntity
  8
0
  6
Continuous
 62
     7
370
    15
100
AcDbCircle
 10
2.9484499808
 20
0.7431287342
 30
0.0
 40
0.044499999999999
  0
CIRCLE
  5
79
330
1F
100
AcDbEntity
  8
0
  6
Continuous
 62
     7
370
    15
100
AcDbCircle
 10
2.9484499808
 20
2.9431287342
 30
0.0
 40
0.0444999999999989
  0
CIRCLE
  5
7A
330
1F
100
AcDbEntity
  8
0
  6
Continuous
 62
     7
370
    15
100
AcDbCircle
 10
10.9234499808
 20
0.7181287342
 30
0.0
 40
0.1004999999999996
  0
CIRCLE
  5
7B
330
1F
100
AcDbEntity
  8
0
  6
Continuous
 62
     7
370
    15
100
AcDbCircle
 10
10.9234499808
 20
2.9681287342
 30
0.0
 40
0.1004999999999989
  0
CIRCLE
  5
7C
330
1F
100
AcDbEntity
  8
0
  6
Continuous
 62
     7
370
    15
100
AcDbCircle
 10
4.6234499808
 20
2.9431287342
 30
0.0
 40
0.0444999999999993
  0
CIRCLE
  5
7D
330
1F
100
AcDbEntity
  8
0
  6
Continuous
 62
     7
370
    15
100
AcDbCircle
 10
6.2984499808
 20
2.9431287342
 30
0.0
 40
0.0444999999999993
  0
ARC
  5
7E
330
1F
100
AcDbEntity
  8
0
  6
Continuous
 62
     7
370
    15
100
AcDbCircle
 10
11.0234499808
 20
2.4681287342
 30
0.0
 40
0.25
100
AcDbArc
 50
66.8938502937
 51
90.0
  0
LINE
  5
7F
330
1F
100
AcDbEntity
  8
0
  6
Continuous
 62
     7
370
    15
100
AcDbLine
 10
6.6484497215
 20
2.7181287328
 30
0.0
 11
11.0234500078
 21
2.7181287328
 31
0.0
  0
ARC
  5
80
330
1F
100
AcDbEntity
  8
0
  6
Continuous
 62
     7
370
    15
100
AcDbCircle
 10
6.6484499808
 20
2.4681287342
 30
0.0
 40
0.25
100
AcDbArc
 50
90.0
 51
180.0
  0
LINE
  5
81
330
1F
100
AcDbEntity
  8
0
  6
Continuous
 62
     7
370
    15
100
AcDbLine
 10
6.3984498895
 20
1.2181287143
 30
0.0
 11
6.3984498895
 21
2.4681287542
 31
0.0
  0
ARC
  5
82
330
1F
100
AcDbEntity
  8
0
  6
Continuous
 62
     7
370
    15
100
AcDbCircle
 10
6.6484499808
 20
1.2181287342
 30
0.0
 40
0.2500000000000001
100
AcDbArc
 50
180.0
 51
270.0
  0
LINE
  5
83
330
1F
100
AcDbEntity
  8
0
  6
Continuous
 62
     7
370
    15
100
AcDbLine
 10
11.0234500078
 20
0.9681287356
 30
0.0
 11
6.6484497215
 21
0.9681287356
 31
0.0
  0
ARC
  5
84
330
1F
100
AcDbEntity
  8
0
  6
Continuous
 62
     7
370
    15
100
AcDbCircle
 10
11.0234499808
 20
1.2181287342
 30
0.0
 40
0.2499999999999999
100
AcDbArc
 50
270.0
 51
293.1061497063
  0
LINE
  5
85
330
1F
100
AcDbEntity
  8
0
  6
Continuous
 62
     7
370
    15
100
AcDbLine
 10
2.9484497442
 20
1.8431287342
 30
0.0
 11
2.9484497442
 21
1.2181287143
 31
0.0
  0
ARC
  5
86
330
1F
100
AcDbEntity
  8
0
  6
Continuous
 62
     7
370
    15
100
AcDbCircle
 10
3.1984499808
 20
1.2181287342
 30
0.0
 40
0.25
100
AcDbArc
 50
180.0
 51
270.0
  0
LINE
  5
87
330
1F
100
AcDbEntity
  8
0
  6
Continuous
 62
     7
370
    15
100
AcDbLine
 10
3.1984501629
 20
0.9681287356
 30
0.0
 11
5.148450143
 21
0.9681287356
 31
0.0
  0
ARC
  5
88
330
1F
100
AcDbEntity
  8
0
  6
Continuous
 62
     7
370
    15
100
AcDbCircle
 10
5.1484499808
 20
1.2181287342
 30
0.0
 40
0.25
100
AcDbArc
 50
270.0
 51
0.0
  0
LINE
  5
89
330
1F
100
AcDbEntity
  8
0
  6
Continuous
 62
     7
370
    15
100
AcDbLine
 10
5.398449975
 20
1.2181287143
 30
0.0
 11
5.398449975
 21
2.4681287542
 31
0.0
  0
ARC
  5
8A
330
1F
100
AcDbEntity
  8
0
  6
Continuous
 62
     7
370
    15
100
AcDbCircle
 10
5.1484499808
 20
2.4681287342
 30
0.0
 40
0.25
100
AcDbArc
 50
0.0
 51
90.0
  0
LINE
  5
8B
330
1F
100
AcDbEntity
  8
0
  6
Continuous
 62
     7
370
    15
100
AcDbLine
 10
5.148450143
 20
2.7181287328
 30
0.0
 11
3.1984501629
 21
2.7181287328
 31
0.0
  0
ARC
  5
8C
330
1F
100
AcDbEntity
  8
0
  6
Continuous
 62
     7
370
    15
100
AcDbCircle
 10
3.1984499808
 20
2.4681287342
 30
0.0
 40
0.25
100
AcDbArc
 50
90.0
 51
180.0
  0
LINE
  5
8D
330
1F
100
AcDbEntity
  8
0
  6
Continuous
 62
     7
370
    15
100
AcDbLine
 10
2.9484497442
 20
2.4681287542
 30
0.0
 11
2.9484497442
 21
1.8431287342
 31
0.0
  0
LINE
  5
8E
330
1F
100
AcDbEntity
  8
0
  6
Continuous
 62
     7
370
    15
100
AcDbLine
 10
11.6256280047
 20
3.0931287741
 30
0.0
 11
1.6984499977
 21
3.0931287741
 31
0.0
  0
ARC
  5
8F
330
1F
100
AcDbEntity
  8
0
  6
Continuous
 62
     7
370
    15
100
AcDbCircle
 10
12.1984499808
 20
1.8431287342
 30
0.0
 40
1.375000000000002
100
AcDbArc
 50
114.6199773287
 51
141.553904904
  0
ARC
  5
90
330
1F
100
AcDbEntity
  8
0
  6
Continuous
 62
     7
370
    15
100
AcDbCircle
 10
12.1984499808
 20
1.8431287342
 30
0.0
 40
1.375000000000002
100
AcDbArc
 50
218.446095096
 51
245.3800226713
  0
LINE
  5
91
330
1F
100
AcDbEntity
  8
0
  6
Continuous
 62
     7
370
    15
100
AcDbLine
 10
1.6984499977
 20
3.3431287527
 30
0.0
 11
11.6256280047
 21
3.3431287527
 31
0.0
  0
LINE
  5
92
330
1F
100
AcDbEntity
  8
0
  6
Continuous
 62
     7
370
    15
100
AcDbLine
 10
11.6256280047
 20
3.0931287741
 30
0.0
 11
11.6256280047
 21
3.3431287527
 31
0.0
  0
SPLINE
  5
93
330
1F
100
AcDbEntity
  8
0
  6
Continuous
 62
     7
370
    15
100
AcDbSpline
210
0.0
220
0.0
230
1.0
 70
    24
 71
     3
 72
    12
 73
     8
 74
     0
 42
0.00000001
 43
0.00000001
 40
0.0
 40
0.0
 40
0.0
 40
0.0
 40
0.5
 40
0.5
 40
0.75
 40
0.75
 40
1.0
 40
1.0
 40
1.0
 40
1.0
 10
11.62562801890732
 20
3.343128734207395
 30
0.0
 10
11.72146820921964
 20
3.343128734207395
 30
0.0
 10
11.8167083292611
 20
3.343128734207395
 30
0.0
 10
11.95964657275558
 20
3.343128734207395
 30
0.0
 10
12.00730439720871
 20
3.343128734207395
 30
0.0
 10
12.10277332056577
 20
3.343128734207395
 30
0.0
 10
12.150605156002
 20
3.343128734207395
 30
0.0
 10
12.19844998077681
 20
3.343128734207395
 30
0.0
  0
ARC
  5
94
330
1F
100
AcDbEntity
  8
0
  6
Continuous
 62
     7
370
    15
100
AcDbCircle
 10
12.1984499808
 20
1.8431287342
 30
0.0
 40
1.375000000000002
100
AcDbArc
 50
90.0
 51
114.6199773287
  0
CIRCLE
  5
95
330
1F
100
AcDbEntity
  8
0
  6
Continuous
 62
     7
370
    15
100
AcDbCircle
 10
12.1984499808
 20
1.8431287342
 30
0.0
 40
0.8100000000000003
  0
LINE
  5
96
330
1F
100
AcDbEntity
  8
0
  6
Continuous
 62
     7
370
    15
100
AcDbLine
 10
11.2734499865
 20
1.2181287143
 30
0.0
 11
11.2734499865
 21
2.4681287542
 31
0.0
  0
CIRCLE
  5
97
330
1F
100
AcDbEntity
  8
0
  6
Continuous
 62
     7
370
    15
100
AcDbCircle
 10
11.8556453693
 20
0.7558914104
 30
0.0
 40
0.225
  0
CIRCLE
  5
98
330
1F
100
AcDbEntity
  8
0
  6
Continuous
 62
     7
370
    15
100
AcDbCircle
 10
12.459046694
 20
0.7333137257
 30
0.0
 40
0.2249999999999995
  0
CIRCLE
  5
99
330
1F
100
AcDbEntity
  8
0
  6
Continuous
 62
     7
370
    15
100
AcDbCircle
 10
12.9893375846
 20
1.0220947532
 30
0.0
 40
0.2250000000000008
  0
CIRCLE
  5
9A
330
1F
100
AcDbEntity
  8
0
  6
Continuous
 62
     7
370
    15
100
AcDbCircle
 10
13.2977448786
 20
1.5412169464
 30
0.0
 40
0.2249999999999992
  0
CIRCLE
  5
9B
330
1F
100
AcDbEntity
  8
0
  6
Continuous
 62
     7
370
    15
100
AcDbCircle
 10
13.2977448786
 20
2.145040522
 30
0.0
 40
0.2250000000000006
  0
CIRCLE
  5
9C
330
1F
100
AcDbEntity
  8
0
  6
Continuous
 62
     7
370
    15
100
AcDbCircle
 10
12.9893375846
 20
2.6641627153
 30
0.0
 40
0.2249999999999996
  0
CIRCLE
  5
9D
330
1F
100
AcDbEntity
  8
0
  6
Continuous
 62
     7
370
    15
100
AcDbCircle
 10
12.459046694
 20
2.9529437427
 30
0.0
 40
0.2249999999999998
  0
CIRCLE
  5
9E
330
1F
100
AcDbEntity
  8
0
  6
Continuous
 62
     7
370
    15
100
AcDbCircle
 10
11.8556453693
 20
2.9303660581
 30
0.0
 40
0.2250000000000002
  0
ARC
  5
9F
330
1F
100
AcDbEntity
  8
0
  6
Continuous
 62
     7
370
    15
100
AcDbCircle
 10
11.0234499808
 20
2.4681287342
 30
0.0
 40
0.25
100
AcDbArc
 50
0.0
 51
66.8938502937
  0
ARC
  5
A0
330
1F
100
AcDbEntity
  8
0
  6
Continuous
 62
     7
370
    15
100
AcDbCircle
 10
11.0234499808
 20
1.2181287342
 30
0.0
 40
0.25
100
AcDbArc
 50
293.1061497063
 51
0.0
  0
CIRCLE
  5
A1
330
1F
100
AcDbEntity
  8
0
  6
HIDDEN
 62
     7
370
     0
100
AcDbCircle
 10
10.9234499808
 20
2.9681287342
 30
0.0
 40
0.1250000398928819
  0
CIRCLE
  5
A2
330
1F
100
AcDbEntity
  8
0
  6
HIDDEN
 62
     7
370
     0
100
AcDbCircle
 10
10.9234499808
 20
0.7181287342
 30
0.0
 40
0.1250000120852022
  0
CIRCLE
  5
A3
330
1F
100
AcDbEntity
  8
0
  6
HIDDEN
 62
     7
370
     0
100
AcDbCircle
 10
2.9484499808
 20
2.9431287342
 30
0.0
 40
0.0559999698729063
  0
CIRCLE
  5
A4
330
1F
100
AcDbEntity
  8
0
  6
HIDDEN
 62
     7
370
     0
100
AcDbCircle
 10
2.9484499808
 20
0.7431287342
 30
0.0
 40
0.0559999698729063
  0
CIRCLE
  5
A5
330
1F
100
AcDbEntity
  8
0
  6
HIDDEN
 62
     7
370
     0
100
AcDbCircle
 10
4.6234499808
 20
2.9431287342
 30
0.0
 40
0.0560001934607239
  0
CIRCLE
  5
A6
330
1F
100
AcDbEntity
  8
0
  6
HIDDEN
 62
     7
370
     0
100
AcDbCircle
 10
4.6234499808
 20
0.7431287342
 30
0.0
 40
0.0560001934607239
  0
CIRCLE
  5
A7
330
1F
100
AcDbEntity
  8
0
  6
HIDDEN
 62
     7
370
     0
100
AcDbCircle
 10
6.2984499808
 20
2.9431287342
 30
0.0
 40
0.0559998303886502
  0
CIRCLE
  5
A8
330
1F
100
AcDbEntity
  8
0
  6
HIDDEN
 62
     7
370
     0
100
AcDbCircle
 10
6.2984499808
 20
0.7431287342
 30
0.0
 40
0.0559998303886502
  0
LINE
  5
A9
330
1F
100
AcDbEntity
  8
0
  6
Continuous
 62
     7
370
    15
100
AcDbLine
 10
1.6984499977
 20
6.7954848349
 30
0.0
 11
12.1984499808
 21
6.7954848349
 31
0.0
  0
LINE
  5
AA
330
1F
100
AcDbEntity
  8
0
  6
Continuous
 62
     7
370
    15
100
AcDbLine
 10
1.6984499977
 20
6.8579847929
 30
0.0
 11
12.1984499808
 21
6.8579847929
 31
0.0
  0
ARC
  5
AB
330
1F
100
AcDbEntity
  8
0
  6
Continuous
 62
     7
370
    15
100
AcDbCircle
 10
12.1984499808
 20
8.2954848534
 30
0.0
 40
1.4375
100
AcDbArc
 50
270.0
 51
90.0
  0
LINE
  5
AC
330
1F
100
AcDbEntity
  8
0
  6
Continuous
 62
     7
370
    15
100
AcDbLine
 10
12.1984499808
 20
9.7329849139
 30
0.0
 11
1.6984499977
 21
9.7329849139
 31
0.0
  0
ARC
  5
AD
330
1F
100
AcDbEntity
  8
0
  6
Continuous
 62
     7
370
    15
100
AcDbCircle
 10
1.6984499808
 20
8.2954848534
 30
0.0
 40
1.4375
100
AcDbArc
 50
90.0
 51
270.0
  0
ARC
  5
AE
330
1F
100
AcDbEntity
  8
0
  6
Continuous
 62
     7
370
    15
100
AcDbCircle
 10
12.1984499808
 20
8.2954848534
 30
0.0
 40
1.5
100
AcDbArc
 50
270.0
 51
90.0
  0
ARC
  5
AF
330
1F
100
AcDbEntity
  8
0
  6
Continuous
 62
     7
370
    15
100
AcDbCircle
 10
1.6984499808
 20
8.2954848534
 30
0.0
 40
1.5
100
AcDbArc
 50
90.0
 51
270.0
  0
LINE
  5
B0
330
1F
100
AcDbEntity
  8
0
  6
Continuous
 62
     7
370
    15
100
AcDbLine
 10
12.1984499808
 20
9.7954848719
 30
0.0
 11
1.6984499977
 21
9.7954848719
 31
0.0
  0
CIRCLE
  5
B1
330
1F
100
AcDbEntity
  8
0
  6
Continuous
 62
     7
370
    15
100
AcDbCircle
 10
11.4409388042
 20
9.4961879357
 30
0.0
 40
0.0445000000000011
  0
CIRCLE
  5
B2
330
1F
100
AcDbEntity
  8
0
  6
Continuous
 62
     7
370
    15
100
AcDbCircle
 10
2.0559195219
 20
9.4961879357
 30
0.0
 40
0.0444999999999975
  0
ARC
  5
B3
330
1F
100
AcDbEntity
  8
0
  6
Continuous
 62
     7
370
    15
100
AcDbCircle
 10
11.0234499808
 20
7.1704848534
 30
0.0
 40
0.25
100
AcDbArc
 50
270.0
 51
349.7222536063
  0
ARC
  5
B4
330
1F
100
AcDbEntity
  8
0
  6
Continuous
 62
     7
370
    15
100
AcDbCircle
 10
11.4409388042
 20
7.0947817711
 30
0.0
 40
0.1742969176579258
100
AcDbArc
 50
10.2777463937
 51
169.7222536063
  0
ARC
  5
B5
330
1F
100
AcDbEntity
  8
0
  6
Continuous
 62
     7
370
    15
100
AcDbCircle
 10
11.8584276276
 20
7.1704848534
 30
0.0
 40
0.25
100
AcDbArc
 50
190.2777463937
 51
270.0
  0
LINE
  5
B6
330
1F
100
AcDbEntity
  8
0
  6
Continuous
 62
     7
370
    15
100
AcDbLine
 10
12.1984499808
 20
6.9204848975
 30
0.0
 11
11.8584276287
 21
6.9204848975
 31
0.0
  0
ARC
  5
B7
330
1F
100
AcDbEntity
  8
0
  6
Continuous
 62
     7
370
    15
100
AcDbCircle
 10
12.1984499808
 20
8.2954848534
 30
0.0
 40
1.375
100
AcDbArc
 50
270.0
 51
90.0
  0
LINE
  5
B8
330
1F
100
AcDbEntity
  8
0
  6
Continuous
 62
     7
370
    15
100
AcDbLine
 10
11.8584276287
 20
9.6704848093
 30
0.0
 11
12.1984499808
 21
9.6704848093
 31
0.0
  0
ARC
  5
B9
330
1F
100
AcDbEntity
  8
0
  6
Continuous
 62
     7
370
    15
100
AcDbCircle
 10
11.8584276276
 20
9.4204848534
 30
0.0
 40
0.2499999999999987
100
AcDbArc
 50
90.0
 51
169.7222536063
  0
ARC
  5
BA
330
1F
100
AcDbEntity
  8
0
  6
Continuous
 62
     7
370
    15
100
AcDbCircle
 10
11.4409388042
 20
9.4961879357
 30
0.0
 40
0.1742969176579262
100
AcDbArc
 50
190.2777463937
 51
349.7222536063
  0
ARC
  5
BB
330
1F
100
AcDbEntity
  8
0
  6
Continuous
 62
     7
370
    15
100
AcDbCircle
 10
11.0234499808
 20
9.4204848534
 30
0.0
 40
0.25
100
AcDbArc
 50
10.2777463937
 51
90.0
  0
LINE
  5
BC
330
1F
100
AcDbEntity
  8
0
  6
Continuous
 62
     7
370
    15
100
AcDbLine
 10
9.5546237758
 20
9.6704848093
 30
0.0
 11
11.0234500078
 21
9.6704848093
 31
0.0
  0
ARC
  5
BD
330
1F
100
AcDbEntity
  8
0
  6
Continuous
 62
     7
370
    15
100
AcDbCircle
 10
9.5546237499
 20
9.3454848534
 30
0.0
 40
0.325
100
AcDbArc
 50
90.0
 51
141.5952958853
  0
ARC
  5
BE
330
1F
100
AcDbEntity
  8
0
  6
Continuous
 62
     7
370
    15
100
AcDbCircle
 10
9.2960217391
 20
9.5504848534
 30
0.0
 40
0.0050000000000008
100
AcDbArc
 50
270.0
 51
321.5952958853
  0
LINE
  5
BF
330
1F
100
AcDbEntity
  8
0
  6
Continuous
 62
     7
370
    15
100
AcDbLine
 10
9.200878129
 20
9.5454848933
 30
0.0
 11
9.2960217499
 21
9.5454848933
 31
0.0
  0
ARC
  5
C0
330
1F
100
AcDbEntity
  8
0
  6
Continuous
 62
     7
370
    15
100
AcDbCircle
 10
9.2008782224
 20
9.5504848534
 30
0.0
 40
0.0050000000000012
100
AcDbArc
 50
218.4047041147
 51
270.0
  0
ARC
  5
C1
330
1F
100
AcDbEntity
  8
0
  6
Continuous
 62
     7
370
    15
100
AcDbCircle
 10
8.9422762116
 20
9.3454848534
 30
0.0
 40
0.325
100
AcDbArc
 50
38.4047041147
 51
90.0
  0
LINE
  5
C2
330
1F
100
AcDbEntity
  8
0
  6
Continuous
 62
     7
370
    15
100
AcDbLine
 10
7.7146236983
 20
9.6704848093
 30
0.0
 11
8.942276103
 21
9.6704848093
 31
0.0
  0
ARC
  5
C3
330
1F
100
AcDbEntity
  8
0
  6
Continuous
 62
     7
370
    15
100
AcDbCircle
 10
7.7146237499
 20
9.3454848534
 30
0.0
 40
0.3249999999999993
100
AcDbArc
 50
90.0
 51
141.5952958853
  0
ARC
  5
C4
330
1F
100
AcDbEntity
  8
0
  6
Continuous
 62
     7
370
    15
100
AcDbCircle
 10
7.4560217391
 20
9.5504848534
 30
0.0
 40
0.0050000000000008
100
AcDbArc
 50
270.0
 51
321.5952958853
  0
LINE
  5
C5
330
1F
100
AcDbEntity
  8
0
  6
Continuous
 62
     7
370
    15
100
AcDbLine
 10
7.3608783448
 20
9.5454848933
 30
0.0
 11
7.4560216724
 21
9.5454848933
 31
0.0
  0
ARC
  5
C6
330
1F
100
AcDbEntity
  8
0
  6
Continuous
 62
     7
370
    15
100
AcDbCircle
 10
7.3608782224
 20
9.5504848534
 30
0.0
 40
0.0050000000000008
100
AcDbArc
 50
218.4047041147
 51
270.0
  0
ARC
  5
C7
330
1F
100
AcDbEntity
  8
0
  6
Continuous
 62
     7
370
    15
100
AcDbCircle
 10
7.1022762116
 20
9.3454848534
 30
0.0
 40
0.3249999999999993
100
AcDbArc
 50
38.4047041147
 51
90.0
  0
LINE
  5
C8
330
1F
100
AcDbEntity
  8
0
  6
Continuous
 62
     7
370
    15
100
AcDbLine
 10
5.8746236208
 20
9.6704848093
 30
0.0
 11
7.1022763189
 21
9.6704848093
 31
0.0
  0
ARC
  5
C9
330
1F
100
AcDbEntity
  8
0
  6
Continuous
 62
     7
370
    15
100
AcDbCircle
 10
5.8746237499
 20
9.3454848534
 30
0.0
 40
0.3250000000000011
100
AcDbArc
 50
90.0
 51
141.5952958853
  0
ARC
  5
CA
330
1F
100
AcDbEntity
  8
0
  6
Continuous
 62
     7
370
    15
100
AcDbCircle
 10
5.6160217391
 20
9.5504848534
 30
0.0
 40
0.0050000000000008
100
AcDbArc
 50
270.0
 51
321.5952958853
  0
LINE
  5
CB
330
1F
100
AcDbEntity
  8
0
  6
Continuous
 62
     7
370
    15
100
AcDbLine
 10
5.5208782673
 20
9.5454848933
 30
0.0
 11
5.6160215949
 21
9.5454848933
 31
0.0
  0
ARC
  5
CC
330
1F
100
AcDbEntity
  8
0
  6
Continuous
 62
     7
370
    15
100
AcDbCircle
 10
5.5208782224
 20
9.5504848534
 30
0.0
 40
0.0050000000000008
100
AcDbArc
 50
218.4047041147
 51
270.0
  0
ARC
  5
CD
330
1F
100
AcDbEntity
  8
0
  6
Continuous
 62
     7
370
    15
100
AcDbCircle
 10
5.2622762116
 20
9.3454848534
 30
0.0
 40
0.3250000000000011
100
AcDbArc
 50
38.4047041147
 51
90.0
  0
LINE
  5
CE
330
1F
100
AcDbEntity
  8
0
  6
Continuous
 62
     7
370
    15
100
AcDbLine
 10
4.0346235433
 20
9.6704848093
 30
0.0
 11
5.2622762414
 21
9.6704848093
 31
0.0
  0
ARC
  5
CF
330
1F
100
AcDbEntity
  8
0
  6
Continuous
 62
     7
370
    15
100
AcDbCircle
 10
4.0346237499
 20
9.3454848534
 30
0.0
 40
0.3250000000000011
100
AcDbArc
 50
90.0
 51
141.5952958853
  0
ARC
  5
D0
330
1F
100
AcDbEntity
  8
0
  6
Continuous
 62
     7
370
    15
100
AcDbCircle
 10
3.7760217391
 20
9.5504848534
 30
0.0
 40
0.0050000000000008
100
AcDbArc
 50
270.0
 51
321.5952958853
  0
LINE
  5
D1
330
1F
100
AcDbEntity
  8
0
  6
Continuous
 62
     7
370
    15
100
AcDbLine
 10
3.6808781898
 20
9.5454848933
 30
0.0
 11
3.7760215174
 21
9.5454848933
 31
0.0
  0
ARC
  5
D2
330
1F
100
AcDbEntity
  8
0
  6
Continuous
 62
     7
370
    15
100
AcDbCircle
 10
3.6808782224
 20
9.5504848534
 30
0.0
 40
0.0050000000000008
100
AcDbArc
 50
218.4047041147
 51
270.0
  0
ARC
  5
D3
330
1F
100
AcDbEntity
  8
0
  6
Continuous
 62
     7
370
    15
100
AcDbCircle
 10
3.4222762116
 20
9.3454848534
 30
0.0
 40
0.3250000000000011
100
AcDbArc
 50
38.4047041147
 51
90.0
  0
LINE
  5
D4
330
1F
100
AcDbEntity
  8
0
  6
Continuous
 62
     7
370
    15
100
AcDbLine
 10
2.5319300226
 20
9.6704848093
 30
0.0
 11
3.4222761639
 21
9.6704848093
 31
0.0
  0
ARC
  5
D5
330
1F
100
AcDbEntity
  8
0
  6
Continuous
 62
     7
370
    15
100
AcDbCircle
 10
2.5319300186
 20
9.3454848534
 30
0.0
 40
0.3250000000000011
100
AcDbArc
 50
90.0
 51
162.4324142802
  0
ARC
  5
D6
330
1F
100
AcDbEntity
  8
0
  6
Continuous
 62
     7
370
    15
100
AcDbCircle
 10
2.0559195219
 20
9.4961879357
 30
0.0
 40
0.1742969176579123
100
AcDbArc
 50
199.4904289884
 51
342.4324142802
  0
ARC
  5
D7
330
1F
100
AcDbEntity
  8
0
  6
Continuous
 62
     7
370
    15
100
AcDbCircle
 10
1.5734499808
 20
9.3254272062
 30
0.0
 40
0.3374999999999984
100
AcDbArc
 50
19.4904289884
 51
96.919916803
  0
ARC
  5
D8
330
1F
100
AcDbEntity
  8
0
  6
Continuous
 62
     7
370
    15
100
AcDbCircle
 10
1.6984499808
 20
8.2954848534
 30
0.0
 40
1.375
100
AcDbArc
 50
96.919916803
 51
263.080083197
  0
ARC
  5
D9
330
1F
100
AcDbEntity
  8
0
  6
Continuous
 62
     7
370
    15
100
AcDbCircle
 10
1.5734499808
 20
7.2655425006
 30
0.0
 40
0.3374999999999993
100
AcDbArc
 50
263.080083197
 51
340.5095710116
  0
ARC
  5
DA
330
1F
100
AcDbEntity
  8
0
  6
Continuous
 62
     7
370
    15
100
AcDbCircle
 10
2.0559195219
 20
7.0947817711
 30
0.0
 40
0.1742969176579123
100
AcDbArc
 50
17.5675857198
 51
160.5095710116
  0
ARC
  5
DB
330
1F
100
AcDbEntity
  8
0
  6
Continuous
 62
     7
370
    15
100
AcDbCircle
 10
2.5319300186
 20
7.2454848534
 30
0.0
 40
0.3250000000000002
100
AcDbArc
 50
197.5675857198
 51
270.0
  0
LINE
  5
DC
330
1F
100
AcDbEntity
  8
0
  6
Continuous
 62
     7
370
    15
100
AcDbLine
 10
3.4222761639
 20
6.9204848975
 30
0.0
 11
2.5319300226
 21
6.9204848975
 31
0.0
  0
ARC
  5
DD
330
1F
100
AcDbEntity
  8
0
  6
Continuous
 62
     7
370
    15
100
AcDbCircle
 10
3.4222762116
 20
7.2454848534
 30
0.0
 40
0.3250000000000003
100
AcDbArc
 50
270.0
 51
321.5952958853
  0
ARC
  5
DE
330
1F
100
AcDbEntity
  8
0
  6
Continuous
 62
     7
370
    15
100
AcDbCircle
 10
3.6808782224
 20
7.0404848534
 30
0.0
 40
0.0049999999999999
100
AcDbArc
 50
90.0
 51
141.5952958853
  0
LINE
  5
DF
330
1F
100
AcDbEntity
  8
0
  6
Continuous
 62
     7
370
    15
100
AcDbLine
 10
3.6808781898
 20
7.0454848135
 30
0.0
 11
3.7760215174
 21
7.0454848135
 31
0.0
  0
ARC
  5
E0
330
1F
100
AcDbEntity
  8
0
  6
Continuous
 62
     7
370
    15
100
AcDbCircle
 10
3.7760217391
 20
7.0404848534
 30
0.0
 40
0.0049999999999997
100
AcDbArc
 50
38.4047041147
 51
90.0
  0
ARC
  5
E1
330
1F
100
AcDbEntity
  8
0
  6
Continuous
 62
     7
370
    15
100
AcDbCircle
 10
4.0346237499
 20
7.2454848534
 30
0.0
 40
0.3250000000000005
100
AcDbArc
 50
218.4047041147
 51
270.0
  0
LINE
  5
E2
330
1F
100
AcDbEntity
  8
0
  6
Continuous
 62
     7
370
    15
100
AcDbLine
 10
5.2622762414
 20
6.9204848975
 30
0.0
 11
4.0346235433
 21
6.9204848975
 31
0.0
  0
ARC
  5
E3
330
1F
100
AcDbEntity
  8
0
  6
Continuous
 62
     7
370
    15
100
AcDbCircle
 10
5.2622762116
 20
7.2454848534
 30
0.0
 40
0.3250000000000003
100
AcDbArc
 50
270.0
 51
321.5952958853
  0
ARC
  5
E4
330
1F
100
AcDbEntity
  8
0
  6
Continuous
 62
     7
370
    15
100
AcDbCircle
 10
5.5208782224
 20
7.0404848534
 30
0.0
 40
0.0049999999999999
100
AcDbArc
 50
90.0
 51
141.5952958853
  0
LINE
  5
E5
330
1F
100
AcDbEntity
  8
0
  6
Continuous
 62
     7
370
    15
100
AcDbLine
 10
5.5208782673
 20
7.0454848135
 30
0.0
 11
5.6160215949
 21
7.0454848135
 31
0.0
  0
ARC
  5
E6
330
1F
100
AcDbEntity
  8
0
  6
Continuous
 62
     7
370
    15
100
AcDbCircle
 10
5.6160217391
 20
7.0404848534
 30
0.0
 40
0.005
100
AcDbArc
 50
38.4047041147
 51
90.0
  0
ARC
  5
E7
330
1F
100
AcDbEntity
  8
0
  6
Continuous
 62
     7
370
    15
100
AcDbCircle
 10
5.8746237499
 20
7.2454848534
 30
0.0
 40
0.3250000000000005
100
AcDbArc
 50
218.4047041147
 51
270.0
  0
LINE
  5
E8
330
1F
100
AcDbEntity
  8
0
  6
Continuous
 62
     7
370
    15
100
AcDbLine
 10
7.1022763189
 20
6.9204848975
 30
0.0
 11
5.8746236208
 21
6.9204848975
 31
0.0
  0
ARC
  5
E9
330
1F
100
AcDbEntity
  8
0
  6
Continuous
 62
     7
370
    15
100
AcDbCircle
 10
7.1022762116
 20
7.2454848534
 30
0.0
 40
0.3250000000000003
100
AcDbArc
 50
270.0
 51
321.5952958853
  0
ARC
  5
EA
330
1F
100
AcDbEntity
  8
0
  6
Continuous
 62
     7
370
    15
100
AcDbCircle
 10
7.3608782224
 20
7.0404848534
 30
0.0
 40
0.0049999999999999
100
AcDbArc
 50
90.0
 51
141.5952958853
  0
LINE
  5
EB
330
1F
100
AcDbEntity
  8
0
  6
Continuous
 62
     7
370
    15
100
AcDbLine
 10
7.3608783448
 20
7.0454848135
 30
0.0
 11
7.4560216724
 21
7.0454848135
 31
0.0
  0
ARC
  5
EC
330
1F
100
AcDbEntity
  8
0
  6
Continuous
 62
     7
370
    15
100
AcDbCircle
 10
7.4560217391
 20
7.0404848534
 30
0.0
 40
0.005
100
AcDbArc
 50
38.4047041147
 51
90.0
  0
ARC
  5
ED
330
1F
100
AcDbEntity
  8
0
  6
Continuous
 62
     7
370
    15
100
AcDbCircle
 10
7.7146237499
 20
7.2454848534
 30
0.0
 40
0.3250000000000002
100
AcDbArc
 50
218.4047041147
 51
270.0
  0
LINE
  5
EE
330
1F
100
AcDbEntity
  8
0
  6
Continuous
 62
     7
370
    15
100
AcDbLine
 10
8.942276103
 20
6.9204848975
 30
0.0
 11
7.7146236983
 21
6.9204848975
 31
0.0
  0
ARC
  5
EF
330
1F
100
AcDbEntity
  8
0
  6
Continuous
 62
     7
370
    15
100
AcDbCircle
 10
8.9422762116
 20
7.2454848534
 30
0.0
 40
0.3250000000000005
100
AcDbArc
 50
270.0
 51
321.5952958853
  0
ARC
  5
F0
330
1F
100
AcDbEntity
  8
0
  6
Continuous
 62
     7
370
    15
100
AcDbCircle
 10
9.2008782224
 20
7.0404848534
 30
0.0
 40
0.0050000000000007
100
AcDbArc
 50
90.0
 51
141.5952958853
  0
LINE
  5
F1
330
1F
100
AcDbEntity
  8
0
  6
Continuous
 62
     7
370
    15
100
AcDbLine
 10
9.200878129
 20
7.0454848135
 30
0.0
 11
9.2960217499
 21
7.0454848135
 31
0.0
  0
ARC
  5
F2
330
1F
100
AcDbEntity
  8
0
  6
Continuous
 62
     7
370
    15
100
AcDbCircle
 10
9.2960217391
 20
7.0404848534
 30
0.0
 40
0.0049999999999993
100
AcDbArc
 50
38.4047041147
 51
90.0
  0
ARC
  5
F3
330
1F
100
AcDbEntity
  8
0
  6
Continuous
 62
     7
370
    15
100
AcDbCircle
 10
9.5546237499
 20
7.2454848534
 30
0.0
 40
0.3250000000000005
100
AcDbArc
 50
218.4047041147
 51
270.0
  0
LINE
  5
F4
330
1F
100
AcDbEntity
  8
0
  6
Continuous
 62
     7
370
    15
100
AcDbLine
 10
11.0234500078
 20
6.9204848975
 30
0.0
 11
9.5546237758
 21
6.9204848975
 31
0.0
  0
CIRCLE
  5
F5
330
1F
100
AcDbEntity
  8
0
  6
Continuous
 62
     7
370
    15
100
AcDbCircle
 10
11.4409388042
 20
7.0947817711
 30
0.0
 40
0.0445000000000002
  0
CIRCLE
  5
F6
330
1F
100
AcDbEntity
  8
0
  6
Continuous
 62
     7
370
    15
100
AcDbCircle
 10
2.0559195219
 20
7.0947817711
 30
0.0
 40
0.0444999999999984
  0
LINE
  5
F7
330
1F
100
AcDbEntity
  8
0
  6
Continuous
 62
     7
370
    15
100
AcDbLine
 10
11.2734499865
 20
7.1704848762
 30
0.0
 11
11.2734499865
 21
9.4204848306
 31
0.0
  0
CIRCLE
  5
F8
330
1F
100
AcDbEntity
  8
0
  6
Continuous
 62
     7
370
    15
100
AcDbCircle
 10
12.1984499808
 20
8.2954848534
 30
0.0
 40
0.8099999999999996
  0
CIRCLE
  5
F9
330
1F
100
AcDbEntity
  8
0
  6
Continuous
 62
     7
370
    15
100
AcDbCircle
 10
11.8556453693
 20
9.3827221772
 30
0.0
 40
0.2250000000000014
  0
CIRCLE
  5
FA
330
1F
100
AcDbEntity
  8
0
  6
Continuous
 62
     7
370
    15
100
AcDbCircle
 10
12.459046694
 20
9.4052998619
 30
0.0
 40
0.2250000000000007
  0
CIRCLE
  5
FB
330
1F
100
AcDbEntity
  8
0
  6
Continuous
 62
     7
370
    15
100
AcDbCircle
 10
12.9893375846
 20
9.1165188344
 30
0.0
 40
0.2249999999999992
  0
CIRCLE
  5
FC
330
1F
100
AcDbEntity
  8
0
  6
Continuous
 62
     7
370
    15
100
AcDbCircle
 10
13.2977448786
 20
8.5973966412
 30
0.0
 40
0.225000000000001
  0
CIRCLE
  5
FD
330
1F
100
AcDbEntity
  8
0
  6
Continuous
 62
     7
370
    15
100
AcDbCircle
 10
13.2977448786
 20
7.9935730656
 30
0.0
 40
0.2250000000000006
  0
CIRCLE
  5
FE
330
1F
100
AcDbEntity
  8
0
  6
Continuous
 62
     7
370
    15
100
AcDbCircle
 10
12.9893375846
 20
7.4744508723
 30
0.0
 40
0.2250000000000008
  0
CIRCLE
  5
FF
330
1F
100
AcDbEntity
  8
0
  6
Continuous
 62
     7
370
    15
100
AcDbCircle
 10
12.459046694
 20
7.1856698449
 30
0.0
 40
0.2250000000000007
  0
CIRCLE
  5
100
330
1F
100
AcDbEntity
  8
0
  6
Continuous
 62
     7
370
    15
100
AcDbCircle
 10
11.8556453693
 20
7.2082475295
 30
0.0
 40
0.2249999999999996
  0
ARC
  5
101
330
1F
100
AcDbEntity
  8
0
  6
Continuous
 62
     7
370
    15
100
AcDbCircle
 10
11.0234499808
 20
7.1704848534
 30
0.0
 40
0.25
100
AcDbArc
 50
349.7222536063
 51
0.0
  0
ARC
  5
102
330
1F
100
AcDbEntity
  8
0
  6
Continuous
 62
     7
370
    15
100
AcDbCircle
 10
11.0234499808
 20
9.4204848534
 30
0.0
 40
0.25
100
AcDbArc
 50
0.0
 51
10.2777463937
  0
ARC
  5
103
330
1F
100
AcDbEntity
  8
0
  6
Continuous
 62
     7
370
    15
100
AcDbCircle
 10
11.0234499808
 20
8.9204848534
 30
0.0
 40
0.25
100
AcDbArc
 50
0.0
 51
90.0
  0
LINE
  5
104
330
1F
100
AcDbEntity
  8
0
  6
Continuous
 62
     7
370
    15
100
AcDbLine
 10
11.0234500078
 20
9.170484852
 30
0.0
 11
10.6984499622
 21
9.170484852
 31
0.0
  0
LINE
  5
105
330
1F
100
AcDbEntity
  8
0
  6
Continuous
 62
     7
370
    15
100
AcDbLine
 10
10.6984499622
 20
9.170484852
 30
0.0
 11
10.6984499622
 21
9.345484837
 31
0.0
  0
CIRCLE
  5
106
330
1F
100
AcDbEntity
  8
0
  6
Continuous
 62
     7
370
    15
100
AcDbCircle
 10
10.9234499808
 20
9.4204848534
 30
0.0
 40
0.1005000000000003
  0
ARC
  5
107
330
1F
100
AcDbEntity
  8
0
  6
Continuous
 62
     7
370
    15
100
AcDbCircle
 10
10.3734499808
 20
9.3454848534
 30
0.0
 40
0.3250000000000011
100
AcDbArc
 50
0.0
 51
90.0
  0
ARC
  5
108
330
1F
100
AcDbEntity
  8
0
  6
Continuous
 62
     7
370
    15
100
AcDbCircle
 10
1.6984499808
 20
8.2954848534
 30
0.0
 40
0.6999999999999998
100
AcDbArc
 50
203.4276265087
 51
263.080083197
  0
ARC
  5
109
330
1F
100
AcDbEntity
  8
0
  6
Continuous
 62
     7
370
    15
100
AcDbCircle
 10
0.7464783425
 20
7.8829848534
 30
0.0
 40
0.3375000000000001
100
AcDbArc
 50
23.4276265087
 51
203.4276265087
  0
ARC
  5
10A
330
1F
100
AcDbEntity
  8
0
  6
Continuous
 62
     7
370
    15
100
AcDbCircle
 10
0.7464783425
 20
8.7079848534
 30
0.0
 40
0.3375000000000025
100
AcDbArc
 50
156.5723734913
 51
336.5723734913
  0
ARC
  5
10B
330
1F
100
AcDbEntity
  8
0
  6
Continuous
 62
     7
370
    15
100
AcDbCircle
 10
1.6984499808
 20
8.2954848534
 30
0.0
 40
0.6999999999999998
100
AcDbArc
 50
96.919916803
 51
156.5723734913
  0
LINE
  5
10C
330
1F
100
AcDbEntity
  8
0
  6
Continuous
 62
     7
370
    15
100
AcDbLine
 10
2.206930417
 20
9.345484837
 30
0.0
 11
2.206930417
 21
8.9954848669
 31
0.0
  0
ARC
  5
10D
330
1F
100
AcDbEntity
  8
0
  6
Continuous
 62
     7
370
    15
100
AcDbCircle
 10
2.8819300186
 20
8.9954848534
 30
0.0
 40
0.675
100
AcDbArc
 50
180.0
 51
210.6032946082
  0
ARC
  5
10E
330
1F
100
AcDbEntity
  8
0
  6
Continuous
 62
     7
370
    15
100
AcDbCircle
 10
1.6984499808
 20
8.2954848534
 30
0.0
 40
0.6999999999999992
100
AcDbArc
 50
329.3967053918
 51
30.6032946082
  0
ARC
  5
10F
330
1F
100
AcDbEntity
  8
0
  6
Continuous
 62
     7
370
    15
100
AcDbCircle
 10
2.8819300186
 20
7.5954848534
 30
0.0
 40
0.6750000000000005
100
AcDbArc
 50
149.3967053918
 51
180.0
  0
LINE
  5
110
330
1F
100
AcDbEntity
  8
0
  6
Continuous
 62
     7
370
    15
100
AcDbLine
 10
2.206930417
 20
7.5954848399
 30
0.0
 11
2.206930417
 21
7.2454848698
 31
0.0
  0
CIRCLE
  5
111
330
1F
100
AcDbEntity
  8
0
  6
Continuous
 62
     7
370
    15
100
AcDbCircle
 10
1.6984499808
 20
8.2954848534
 30
0.0
 40
0.559000000000001
  0
CIRCLE
  5
112
330
1F
100
AcDbEntity
  8
0
  6
Continuous
 62
     7
370
    15
100
AcDbCircle
 10
0.9897885635
 20
8.2954848534
 30
0.0
 40
0.0392499999999991
  0
CIRCLE
  5
113
330
1F
100
AcDbEntity
  8
0
  6
Continuous
 62
     7
370
    15
100
AcDbCircle
 10
2.0527806894
 20
7.6817660633
 30
0.0
 40
0.0392499999999989
  0
CIRCLE
  5
114
330
1F
100
AcDbEntity
  8
0
  6
Continuous
 62
     7
370
    15
100
AcDbCircle
 10
2.0527806894
 20
8.9092036435
 30
0.0
 40
0.0392499999999989
  0
ARC
  5
115
330
1F
100
AcDbEntity
  8
0
  6
Continuous
 62
     7
370
    15
100
AcDbCircle
 10
2.5319300186
 20
7.2454848534
 30
0.0
 40
0.3250000000000006
100
AcDbArc
 50
180.0
 51
197.5675857198
  0
ARC
  5
116
330
1F
100
AcDbEntity
  8
0
  6
Continuous
 62
     7
370
    15
100
AcDbCircle
 10
1.5734499808
 20
7.2655425006
 30
0.0
 40
0.3375000000000011
100
AcDbArc
 50
340.5095710116
 51
83.080083197
  0
ARC
  5
117
330
1F
100
AcDbEntity
  8
0
  6
Continuous
 62
     7
370
    15
100
AcDbCircle
 10
1.5734499808
 20
9.3254272062
 30
0.0
 40
0.337500000000002
100
AcDbArc
 50
276.919916803
 51
19.4904289884
  0
ARC
  5
118
330
1F
100
AcDbEntity
  8
0
  6
Continuous
 62
     7
370
    15
100
AcDbCircle
 10
2.5319300186
 20
9.3454848534
 30
0.0
 40
0.3250000000000028
100
AcDbArc
 50
162.4324142802
 51
180.0
  0
ARC
  5
119
330
1F
100
AcDbEntity
  8
0
  6
Continuous
 62
     7
370
    15
100
AcDbCircle
 10
10.4484499808
 20
7.1704848534
 30
0.0
 40
0.2500000000000009
100
AcDbArc
 50
270.0
 51
0.0
  0
LINE
  5
11A
330
1F
100
AcDbEntity
  8
0
  6
Continuous
 62
     7
370
    15
100
AcDbLine
 10
10.6984499622
 20
7.1704848762
 30
0.0
 11
10.6984499622
 21
7.4204848548
 31
0.0
  0
LINE
  5
11B
330
1F
100
AcDbEntity
  8
0
  6
Continuous
 62
     7
370
    15
100
AcDbLine
 10
10.6984499622
 20
7.4204848548
 30
0.0
 11
11.0234500078
 21
7.4204848548
 31
0.0
  0
ARC
  5
11C
330
1F
100
AcDbEntity
  8
0
  6
Continuous
 62
     7
370
    15
100
AcDbCircle
 10
11.0234499808
 20
7.6704848534
 30
0.0
 40
0.25
100
AcDbArc
 50
270.0
 51
0.0
  0
CIRCLE
  5
11D
330
1F
100
AcDbEntity
  8
0
  6
Continuous
 62
     7
370
    15
100
AcDbCircle
 10
10.9234499808
 20
7.1704848534
 30
0.0
 40
0.1005000000000003
  0
ARC
  5
11E
330
1F
100
AcDbEntity
  8
0
  6
Continuous
 62
     7
370
    15
100
AcDbCircle
 10
4.0346237499
 20
9.3454848534
 30
0.0
 40
0.1375000000000006
100
AcDbArc
 50
90.0
 51
141.5952958853
  0
LWPOLYLINE
  5
11F
330
1F
100
AcDbEntity
  8
0
  6
Continuous
 62
     7
370
    15
100
AcDbPolyline
 90
        9
 70
   128
 43
0.0
 10
3.9268728947
 20
9.4309014903
 10
3.8982075192
 20
9.4536251011
 10
3.870643891
 20
9.4754754687
 10
3.8452415178
 20
9.4956127894
 10
3.8229754283
 20
9.5132634055
 10
3.8047027327
 20
9.5277488448
 10
3.7911244896
 20
9.5385124405
 10
3.7827634128
 20
9.5451406706
 10
3.7799398188
 20
9.5473787781
  0
LINE
  5
120
330
1F
100
AcDbEntity
  8
0
  6
Continuous
 62
     7
370
    15
100
AcDbLine
 10
4.0346235433
 20
9.482984862
 30
0.0
 11
4.0346235433
 21
9.6704848093
 31
0.0
  0
ARC
  5
121
330
1F
100
AcDbEntity
  8
0
  6
Continuous
 62
     7
370
    15
100
AcDbCircle
 10
7.1022762116
 20
9.3454848534
 30
0.0
 40
0.1374999999999995
100
AcDbArc
 50
38.4047041147
 51
90.0
  0
LINE
  5
122
330
1F
100
AcDbEntity
  8
0
  6
Continuous
 62
     7
370
    15
100
AcDbLine
 10
7.1022763189
 20
9.482984862
 30
0.0
 11
7.1022763189
 21
9.6704848093
 31
0.0
  0
LWPOLYLINE
  5
123
330
1F
100
AcDbEntity
  8
0
  6
Continuous
 62
     7
370
    15
100
AcDbPolyline
 90
        9
 70
   128
 43
0.0
 10
7.2100269675
 20
9.4309014903
 10
7.238692343
 20
9.4536251011
 10
7.2662559712
 20
9.4754754687
 10
7.2916586378
 20
9.4956127894
 10
7.3139244339
 20
9.5132634055
 10
7.3321974228
 20
9.5277488448
 10
7.3457753726
 20
9.5385124405
 10
7.3541367427
 20
9.5451406706
 10
7.3569600434
 20
9.5473787781
  0
ARC
  5
124
330
1F
100
AcDbEntity
  8
0
  6
Continuous
 62
     7
370
    15
100
AcDbCircle
 10
6.6984499808
 20
9.3954848534
 30
0.0
 40
0.2750000000000039
100
AcDbArc
 50
90.0
 51
180.0
  0
ARC
  5
125
330
1F
100
AcDbEntity
  8
0
  6
Continuous
 62
     7
370
    15
100
AcDbCircle
 10
6.2984499808
 20
9.3954848534
 30
0.0
 40
0.125
100
AcDbArc
 50
180.0
 51
0.0
  0
ARC
  5
126
330
1F
100
AcDbEntity
  8
0
  6
Continuous
 62
     7
370
    15
100
AcDbCircle
 10
5.8984499808
 20
9.3954848534
 30
0.0
 40
0.2750000000000039
100
AcDbArc
 50
0.0
 51
90.0
  0
CIRCLE
  5
127
330
1F
100
AcDbEntity
  8
0
  6
Continuous
 62
     7
370
    15
100
AcDbCircle
 10
6.2984499808
 20
9.3954848534
 30
0.0
 40
0.0444999999999975
  0
ARC
  5
128
330
1F
100
AcDbEntity
  8
0
  6
Continuous
 62
     7
370
    15
100
AcDbCircle
 10
2.5319300186
 20
9.3454848534
 30
0.0
 40
0.1375000000000015
100
AcDbArc
 50
90.0
 51
180.0
  0
LINE
  5
129
330
1F
100
AcDbEntity
  8
0
  6
Continuous
 62
     7
370
    15
100
AcDbLine
 10
2.394429851
 20
9.345484837
 30
0.0
 11
2.206930417
 21
9.345484837
 31
0.0
  0
LINE
  5
12A
330
1F
100
AcDbEntity
  8
0
  6
Continuous
 62
     7
370
    15
100
AcDbLine
 10
2.5319300226
 20
9.482984862
 30
0.0
 11
2.5319300226
 21
9.6704848093
 31
0.0
  0
ARC
  5
12B
330
1F
100
AcDbEntity
  8
0
  6
Continuous
 62
     7
370
    15
100
AcDbCircle
 10
3.4222762116
 20
9.3454848534
 30
0.0
 40
0.1374999999999999
100
AcDbArc
 50
38.4047041147
 51
90.0
  0
LINE
  5
12C
330
1F
100
AcDbEntity
  8
0
  6
Continuous
 62
     7
370
    15
100
AcDbLine
 10
3.4222761639
 20
9.482984862
 30
0.0
 11
3.4222761639
 21
9.6704848093
 31
0.0
  0
LWPOLYLINE
  5
12D
330
1F
100
AcDbEntity
  8
0
  6
Continuous
 62
     7
370
    15
100
AcDbPolyline
 90
        9
 70
   128
 43
0.0
 10
3.5300268125
 20
9.4309014903
 10
3.558692188
 20
9.4536251011
 10
3.5862558162
 20
9.4754754687
 10
3.6116587761
 20
9.4956127894
 10
3.6339242789
 20
9.5132634055
 10
3.6521975611
 20
9.5277488448
 10
3.6657752176
 20
9.5385124405
 10
3.674136881
 20
9.5451406706
 10
3.6769598884
 20
9.5473787781
  0
LINE
  5
12E
330
1F
100
AcDbEntity
  8
0
  6
Continuous
 62
     7
370
    15
100
AcDbLine
 10
3.4222761639
 20
9.482984862
 30
0.0
 11
3.3484497101
 21
9.482984862
 31
0.0
  0
LINE
  5
12F
330
1F
100
AcDbEntity
  8
0
  6
Continuous
 62
     7
370
    15
100
AcDbLine
 10
3.3484497101
 20
9.482984862
 30
0.0
 11
3.3484497101
 21
9.6704848093
 31
0.0
  0
ARC
  5
130
330
1F
100
AcDbEntity
  8
0
  6
Continuous
 62
     7
370
    15
100
AcDbCircle
 10
8.9422762116
 20
9.3454848534
 30
0.0
 40
0.1374999999999995
100
AcDbArc
 50
38.4047041147
 51
90.0
  0
LINE
  5
131
330
1F
100
AcDbEntity
  8
0
  6
Continuous
 62
     7
370
    15
100
AcDbLine
 10
8.942276103
 20
9.482984862
 30
0.0
 11
8.942276103
 21
9.6704848093
 31
0.0
  0
LWPOLYLINE
  5
132
330
1F
100
AcDbEntity
  8
0
  6
Continuous
 62
     7
370
    15
100
AcDbPolyline
 90
        9
 70
   128
 43
0.0
 10
9.050027045
 20
9.4309014903
 10
9.0786921272
 20
9.4536251011
 10
9.1062557554
 20
9.4754754687
 10
9.1316587153
 20
9.4956127894
 10
9.1539242181
 20
9.5132634055
 10
9.172197207
 20
9.5277488448
 10
9.1857754501
 20
9.5385124405
 10
9.1941368202
 20
9.5451406706
 10
9.1969601209
 20
9.5473787781
  0
LINE
  5
133
330
1F
100
AcDbEntity
  8
0
  6
Continuous
 62
     7
370
    15
100
AcDbLine
 10
4.223450002
 20
9.482984862
 30
0.0
 11
4.0346235433
 21
9.482984862
 31
0.0
  0
LINE
  5
134
330
1F
100
AcDbEntity
  8
0
  6
Continuous
 62
     7
370
    15
100
AcDbLine
 10
4.223450002
 20
9.482984862
 30
0.0
 11
4.223450002
 21
9.6704848093
 31
0.0
  0
LINE
  5
135
330
1F
100
AcDbEntity
  8
0
  6
Continuous
 62
     7
370
    15
100
AcDbLine
 10
10.3734499167
 20
9.482984862
 30
0.0
 11
9.5546237758
 21
9.482984862
 31
0.0
  0
LINE
  5
136
330
1F
100
AcDbEntity
  8
0
  6
Continuous
 62
     7
370
    15
100
AcDbLine
 10
9.5546237758
 20
9.482984862
 30
0.0
 11
9.5546237758
 21
9.6704848093
 31
0.0
  0
LINE
  5
137
330
1F
100
AcDbEntity
  8
0
  6
Continuous
 62
     7
370
    15
100
AcDbLine
 10
10.3734499167
 20
9.482984862
 30
0.0
 11
10.3734499167
 21
9.6704848093
 31
0.0
  0
ARC
  5
138
330
1F
100
AcDbEntity
  8
0
  6
Continuous
 62
     7
370
    15
100
AcDbCircle
 10
9.5546237499
 20
9.3454848534
 30
0.0
 40
0.1375000000000006
100
AcDbArc
 50
90.0
 51
141.5952958853
  0
LWPOLYLINE
  5
139
330
1F
100
AcDbEntity
  8
0
  6
Continuous
 62
     7
370
    15
100
AcDbPolyline
 90
        9
 70
   128
 43
0.0
 10
9.4468728339
 20
9.4309014903
 10
9.4182077517
 20
9.4536251011
 10
9.3906441235
 20
9.4754754687
 10
9.3652414569
 20
9.4956127894
 10
9.3429756608
 20
9.5132634055
 10
9.3247026719
 20
9.5277488448
 10
9.3111244287
 20
9.5385124405
 10
9.302763352
 20
9.5451406706
 10
9.2999400513
 20
9.5473787781
  0
LINE
  5
13A
330
1F
100
AcDbEntity
  8
0
  6
Continuous
 62
     7
370
    15
100
AcDbLine
 10
2.5484497784
 20
9.482984862
 30
0.0
 11
2.5319300226
 21
9.482984862
 31
0.0
  0
LINE
  5
13B
330
1F
100
AcDbEntity
  8
0
  6
Continuous
 62
     7
370
    15
100
AcDbLine
 10
2.5484497784
 20
9.482984862
 30
0.0
 11
2.5484497784
 21
9.6704848093
 31
0.0
  0
ARC
  5
13C
330
1F
100
AcDbEntity
  8
0
  6
Continuous
 62
     7
370
    15
100
AcDbCircle
 10
3.3484499808
 20
9.3954848534
 30
0.0
 40
0.0875000000000039
100
AcDbArc
 50
90.0
 51
180.0
  0
LINE
  5
13D
330
1F
100
AcDbEntity
  8
0
  6
Continuous
 62
     7
370
    15
100
AcDbLine
 10
3.2609499742
 20
9.3954848328
 30
0.0
 11
3.0734499536
 21
9.3954848328
 31
0.0
  0
ARC
  5
13E
330
1F
100
AcDbEntity
  8
0
  6
Continuous
 62
     7
370
    15
100
AcDbCircle
 10
3.3484499808
 20
9.3954848534
 30
0.0
 40
0.2750000000000057
100
AcDbArc
 50
90.0
 51
180.0
  0
LINE
  5
13F
330
1F
100
AcDbEntity
  8
0
  6
Continuous
 62
     7
370
    15
100
AcDbLine
 10
7.1022763189
 20
9.482984862
 30
0.0
 11
6.6984501572
 21
9.482984862
 31
0.0
  0
LINE
  5
140
330
1F
100
AcDbEntity
  8
0
  6
Continuous
 62
     7
370
    15
100
AcDbLine
 10
6.6984501572
 20
9.482984862
 30
0.0
 11
6.6984501572
 21
9.6704848093
 31
0.0
  0
LINE
  5
141
330
1F
100
AcDbEntity
  8
0
  6
Continuous
 62
     7
370
    15
100
AcDbLine
 10
5.2622762414
 20
9.482984862
 30
0.0
 11
5.0234499337
 21
9.482984862
 31
0.0
  0
LINE
  5
142
330
1F
100
AcDbEntity
  8
0
  6
Continuous
 62
     7
370
    15
100
AcDbLine
 10
5.0234499337
 20
9.482984862
 30
0.0
 11
5.0234499337
 21
9.6704848093
 31
0.0
  0
LINE
  5
143
330
1F
100
AcDbEntity
  8
0
  6
Continuous
 62
     7
370
    15
100
AcDbLine
 10
5.2622762414
 20
9.482984862
 30
0.0
 11
5.2622762414
 21
9.6704848093
 31
0.0
  0
ARC
  5
144
330
1F
100
AcDbEntity
  8
0
  6
Continuous
 62
     7
370
    15
100
AcDbCircle
 10
6.6984499808
 20
9.3954848534
 30
0.0
 40
0.0875000000000039
100
AcDbArc
 50
90.0
 51
180.0
  0
LINE
  5
145
330
1F
100
AcDbEntity
  8
0
  6
Continuous
 62
     7
370
    15
100
AcDbLine
 10
6.6109498347
 20
9.3954848328
 30
0.0
 11
6.4234498141
 21
9.3954848328
 31
0.0
  0
ARC
  5
146
330
1F
100
AcDbEntity
  8
0
  6
Continuous
 62
     7
370
    15
100
AcDbCircle
 10
5.0234499808
 20
9.3954848534
 30
0.0
 40
0.0875000000000039
100
AcDbArc
 50
90.0
 51
180.0
  0
LINE
  5
147
330
1F
100
AcDbEntity
  8
0
  6
Continuous
 62
     7
370
    15
100
AcDbLine
 10
4.9359501978
 20
9.3954848328
 30
0.0
 11
4.7484501771
 21
9.3954848328
 31
0.0
  0
ARC
  5
148
330
1F
100
AcDbEntity
  8
0
  6
Continuous
 62
     7
370
    15
100
AcDbCircle
 10
5.0234499808
 20
9.3954848534
 30
0.0
 40
0.2750000000000057
100
AcDbArc
 50
90.0
 51
180.0
  0
ARC
  5
149
330
1F
100
AcDbEntity
  8
0
  6
Continuous
 62
     7
370
    15
100
AcDbCircle
 10
10.3734499808
 20
9.3454848534
 30
0.0
 40
0.1374999999999993
100
AcDbArc
 50
0.0
 51
90.0
  0
LINE
  5
14A
330
1F
100
AcDbEntity
  8
0
  6
Continuous
 62
     7
370
    15
100
AcDbLine
 10
10.5109499416
 20
9.345484837
 30
0.0
 11
10.6984499622
 21
9.345484837
 31
0.0
  0
ARC
  5
14B
330
1F
100
AcDbEntity
  8
0
  6
Continuous
 62
     7
370
    15
100
AcDbCircle
 10
5.8746237499
 20
9.3454848534
 30
0.0
 40
0.1375000000000006
100
AcDbArc
 50
90.0
 51
141.5952958853
  0
LWPOLYLINE
  5
14C
330
1F
100
AcDbEntity
  8
0
  6
Continuous
 62
     7
370
    15
100
AcDbPolyline
 90
        9
 70
   128
 43
0.0
 10
5.7668729722
 20
9.4309014903
 10
5.7382075967
 20
9.4536251011
 10
5.7106439685
 20
9.4754754687
 10
5.6852415952
 20
9.4956127894
 10
5.6629755058
 20
9.5132634055
 10
5.6447028102
 20
9.5277488448
 10
5.6311245671
 20
9.5385124405
 10
5.6227634903
 20
9.5451406706
 10
5.6199398963
 20
9.5473787781
  0
LINE
  5
14D
330
1F
100
AcDbEntity
  8
0
  6
Continuous
 62
     7
370
    15
100
AcDbLine
 10
5.8746236208
 20
9.482984862
 30
0.0
 11
5.8746236208
 21
9.6704848093
 31
0.0
  0
ARC
  5
14E
330
1F
100
AcDbEntity
  8
0
  6
Continuous
 62
     7
370
    15
100
AcDbCircle
 10
4.6234499808
 20
9.3954848534
 30
0.0
 40
0.125
100
AcDbArc
 50
180.0
 51
0.0
  0
ARC
  5
14F
330
1F
100
AcDbEntity
  8
0
  6
Continuous
 62
     7
370
    15
100
AcDbCircle
 10
4.2234499808
 20
9.3954848534
 30
0.0
 40
0.2750000000000057
100
AcDbArc
 50
0.0
 51
90.0
  0
CIRCLE
  5
150
330
1F
100
AcDbEntity
  8
0
  6
Continuous
 62
     7
370
    15
100
AcDbCircle
 10
4.6234499808
 20
9.3954848534
 30
0.0
 40
0.0444999999999975
  0
ARC
  5
151
330
1F
100
AcDbEntity
  8
0
  6
Continuous
 62
     7
370
    15
100
AcDbCircle
 10
7.7146237499
 20
9.3454848534
 30
0.0
 40
0.1374999999999993
100
AcDbArc
 50
90.0
 51
141.5952958853
  0
LWPOLYLINE
  5
152
330
1F
100
AcDbEntity
  8
0
  6
Continuous
 62
     7
370
    15
100
AcDbPolyline
 90
        9
 70
   128
 43
0.0
 10
7.6068730497
 20
9.4309014903
 10
7.5782076742
 20
9.4536251011
 10
7.550644046
 20
9.4754754687
 10
7.5252413794
 20
9.4956127894
 10
7.5029755833
 20
9.5132634055
 10
7.4847025944
 20
9.5277488448
 10
7.4711246446
 20
9.5385124405
 10
7.4627632745
 20
9.5451406706
 10
7.4599399738
 20
9.5473787781
  0
LINE
  5
153
330
1F
100
AcDbEntity
  8
0
  6
Continuous
 62
     7
370
    15
100
AcDbLine
 10
7.7146236983
 20
9.482984862
 30
0.0
 11
7.7146236983
 21
9.6704848093
 31
0.0
  0
ARC
  5
154
330
1F
100
AcDbEntity
  8
0
  6
Continuous
 62
     7
370
    15
100
AcDbCircle
 10
2.9484499808
 20
9.3954848534
 30
0.0
 40
0.1250000000000004
100
AcDbArc
 50
180.0
 51
0.0
  0
ARC
  5
155
330
1F
100
AcDbEntity
  8
0
  6
Continuous
 62
     7
370
    15
100
AcDbCircle
 10
2.5484499808
 20
9.3954848534
 30
0.0
 40
0.2750000000000057
100
AcDbArc
 50
0.0
 51
90.0
  0
CIRCLE
  5
156
330
1F
100
AcDbEntity
  8
0
  6
Continuous
 62
     7
370
    15
100
AcDbCircle
 10
2.9484499808
 20
9.3954848534
 30
0.0
 40
0.0444999999999975
  0
ARC
  5
157
330
1F
100
AcDbEntity
  8
0
  6
Continuous
 62
     7
370
    15
100
AcDbCircle
 10
5.2622762116
 20
9.3454848534
 30
0.0
 40
0.1375000000000002
100
AcDbArc
 50
38.4047041147
 51
90.0
  0
LWPOLYLINE
  5
158
330
1F
100
AcDbEntity
  8
0
  6
Continuous
 62
     7
370
    15
100
AcDbPolyline
 90
        9
 70
   128
 43
0.0
 10
5.37002689
 20
9.4309014903
 10
5.3986922655
 20
9.4536251011
 10
5.4262558937
 20
9.4754754687
 10
5.4516588536
 20
9.4956127894
 10
5.4739243564
 20
9.5132634055
 10
5.492197052
 20
9.5277488448
 10
5.5057752951
 20
9.5385124405
 10
5.5141369585
 20
9.5451406706
 10
5.5169599659
 20
9.5473787781
  0
LINE
  5
159
330
1F
100
AcDbEntity
  8
0
  6
Continuous
 62
     7
370
    15
100
AcDbLine
 10
5.8984502256
 20
9.482984862
 30
0.0
 11
5.8746236208
 21
9.482984862
 31
0.0
  0
LINE
  5
15A
330
1F
100
AcDbEntity
  8
0
  6
Continuous
 62
     7
370
    15
100
AcDbLine
 10
5.8984502256
 20
9.482984862
 30
0.0
 11
5.8984502256
 21
9.6704848093
 31
0.0
  0
LINE
  5
15B
330
1F
100
AcDbEntity
  8
0
  6
Continuous
 62
     7
370
    15
100
AcDbLine
 10
8.942276103
 20
9.482984862
 30
0.0
 11
7.7146236983
 21
9.482984862
 31
0.0
  0
LWPOLYLINE
  5
15C
330
1F
100
AcDbEntity
  8
0
  6
Continuous
 62
     7
370
    15
100
AcDbPolyline
 90
        9
 70
   128
 43
0.0
 10
1.6141129453
 20
8.9903856925
 10
1.613678817
 20
8.9939622645
 10
1.6123928585
 20
9.0045543355
 10
1.6103055226
 20
9.0217549835
 10
1.607496595
 20
9.0449031161
 10
1.6040728479
 20
9.0731092835
 10
1.6001668664
 20
9.1052894118
 10
1.5959300087
 20
9.1402068951
 10
1.5915218462
 20
9.1765198956
  0
ARC
  5
15D
330
1F
100
AcDbEntity
  8
0
  6
Continuous
 62
     7
370
    15
100
AcDbCircle
 10
1.5734499808
 20
9.3254272062
 30
0.0
 40
0.1500000000000004
100
AcDbArc
 50
276.919916803
 51
96.919916803
  0
LWPOLYLINE
  5
15E
330
1F
100
AcDbEntity
  8
0
  6
Continuous
 62
     7
370
    15
100
AcDbPolyline
 90
        9
 70
   128
 43
0.0
 10
1.5553777305
 20
9.4743345619
 10
1.5509707414
 20
9.5106474891
 10
1.5467327103
 20
9.5455649724
 10
1.5428267288
 20
9.5777451739
 10
1.539404155
 20
9.6059511948
 10
1.5365940541
 20
9.629099474
 10
1.5345067182
 20
9.6463000487
 10
1.5332219331
 20
9.656892193
 10
1.5327878047
 20
9.660468765
  0
ARC
  5
15F
330
1F
100
AcDbEntity
  8
0
  6
Continuous
 62
     7
370
    15
100
AcDbCircle
 10
1.6984499808
 20
8.2954848534
 30
0.0
 40
1.187499999999999
100
AcDbArc
 50
96.919916803
 51
156.5723734913
  0
LWPOLYLINE
  5
160
330
1F
100
AcDbEntity
  8
0
  6
Continuous
 62
     7
370
    15
100
AcDbPolyline
 90
        9
 70
   128
 43
0.0
 10
0.6088442382
 20
8.7676234159
 10
0.5752802526
 20
8.7821670445
 10
0.5430057455
 20
8.7961517696
 10
0.5132620891
 20
8.8090401741
 10
0.4871909236
 20
8.8203369336
 10
0.4657954374
 20
8.8296079565
 10
0.4498969544
 20
8.8364969569
 10
0.4401067742
 20
8.8407391679
 10
0.436800359
 20
8.842171608
  0
ARC
  5
161
330
1F
100
AcDbEntity
  8
0
  6
Continuous
 62
     7
370
    15
100
AcDbCircle
 10
4.2234499808
 20
9.3954848534
 30
0.0
 40
0.0875000000000039
100
AcDbArc
 50
0.0
 51
90.0
  0
LINE
  5
162
330
1F
100
AcDbEntity
  8
0
  6
Continuous
 62
     7
370
    15
100
AcDbLine
 10
4.3109497379
 20
9.3954848328
 30
0.0
 11
4.4984497585
 21
9.3954848328
 31
0.0
  0
ARC
  5
163
330
1F
100
AcDbEntity
  8
0
  6
Continuous
 62
     7
370
    15
100
AcDbCircle
 10
5.8984499808
 20
9.3954848534
 30
0.0
 40
0.0875000000000039
100
AcDbArc
 50
0.0
 51
90.0
  0
LINE
  5
164
330
1F
100
AcDbEntity
  8
0
  6
Continuous
 62
     7
370
    15
100
AcDbLine
 10
5.9859499614
 20
9.3954848328
 30
0.0
 11
6.1734499821
 21
9.3954848328
 31
0.0
  0
ARC
  5
165
330
1F
100
AcDbEntity
  8
0
  6
Continuous
 62
     7
370
    15
100
AcDbCircle
 10
2.5484499808
 20
9.3954848534
 30
0.0
 40
0.0875000000000039
100
AcDbArc
 50
0.0
 51
90.0
  0
LINE
  5
166
330
1F
100
AcDbEntity
  8
0
  6
Continuous
 62
     7
370
    15
100
AcDbLine
 10
2.6359501009
 20
9.3954848328
 30
0.0
 11
2.8234501216
 21
9.3954848328
 31
0.0
  0
LINE
  5
167
330
1F
100
AcDbEntity
  8
0
  6
Continuous
 62
     7
370
    15
100
AcDbLine
 10
3.7760215174
 20
9.3579848726
 30
0.0
 11
3.6808781898
 21
9.3579848726
 31
0.0
  0
LINE
  5
168
330
1F
100
AcDbEntity
  8
0
  6
Continuous
 62
     7
370
    15
100
AcDbLine
 10
3.6808781898
 20
9.3579848726
 30
0.0
 11
3.6808781898
 21
9.5454848933
 31
0.0
  0
LINE
  5
169
330
1F
100
AcDbEntity
  8
0
  6
Continuous
 62
     7
370
    15
100
AcDbLine
 10
3.7760215174
 20
9.3579848726
 30
0.0
 11
3.7760215174
 21
9.5454848933
 31
0.0
  0
LINE
  5
16A
330
1F
100
AcDbEntity
  8
0
  6
Continuous
 62
     7
370
    15
100
AcDbLine
 10
9.2960217499
 20
9.3579848726
 30
0.0
 11
9.200878129
 21
9.3579848726
 31
0.0
  0
LINE
  5
16B
330
1F
100
AcDbEntity
  8
0
  6
Continuous
 62
     7
370
    15
100
AcDbLine
 10
9.200878129
 20
9.3579848726
 30
0.0
 11
9.200878129
 21
9.5454848933
 31
0.0
  0
LINE
  5
16C
330
1F
100
AcDbEntity
  8
0
  6
Continuous
 62
     7
370
    15
100
AcDbLine
 10
9.2960217499
 20
9.3579848726
 30
0.0
 11
9.2960217499
 21
9.5454848933
 31
0.0
  0
ARC
  5
16D
330
1F
100
AcDbEntity
  8
0
  6
Continuous
 62
     7
370
    15
100
AcDbCircle
 10
5.5208782224
 20
9.5504848534
 30
0.0
 40
0.1925000000000008
100
AcDbArc
 50
218.4047041147
 51
270.0
  0
LINE
  5
16E
330
1F
100
AcDbEntity
  8
0
  6
Continuous
 62
     7
370
    15
100
AcDbLine
 10
5.5208782673
 20
9.3579848726
 30
0.0
 11
5.5208782673
 21
9.5454848933
 31
0.0
  0
LINE
  5
16F
330
1F
100
AcDbEntity
  8
0
  6
Continuous
 62
     7
370
    15
100
AcDbLine
 10
5.6160215949
 20
9.3579848726
 30
0.0
 11
5.5208782673
 21
9.3579848726
 31
0.0
  0
LINE
  5
170
330
1F
100
AcDbEntity
  8
0
  6
Continuous
 62
     7
370
    15
100
AcDbLine
 10
5.6160215949
 20
9.3579848726
 30
0.0
 11
5.6160215949
 21
9.5454848933
 31
0.0
  0
ARC
  5
171
330
1F
100
AcDbEntity
  8
0
  6
Continuous
 62
     7
370
    15
100
AcDbCircle
 10
3.7760217391
 20
9.5504848534
 30
0.0
 40
0.1925000000000008
100
AcDbArc
 50
270.0
 51
321.5952958853
  0
ARC
  5
172
330
1F
100
AcDbEntity
  8
0
  6
Continuous
 62
     7
370
    15
100
AcDbCircle
 10
9.2960217391
 20
9.5504848534
 30
0.0
 40
0.1925000000000008
100
AcDbArc
 50
270.0
 51
321.5952958853
  0
ARC
  5
173
330
1F
100
AcDbEntity
  8
0
  6
Continuous
 62
     7
370
    15
100
AcDbCircle
 10
7.3608782224
 20
9.5504848534
 30
0.0
 40
0.1925000000000008
100
AcDbArc
 50
218.4047041147
 51
270.0
  0
LINE
  5
174
330
1F
100
AcDbEntity
  8
0
  6
Continuous
 62
     7
370
    15
100
AcDbLine
 10
7.3608783448
 20
9.3579848726
 30
0.0
 11
7.3608783448
 21
9.5454848933
 31
0.0
  0
LINE
  5
175
330
1F
100
AcDbEntity
  8
0
  6
Continuous
 62
     7
370
    15
100
AcDbLine
 10
7.4560216724
 20
9.3579848726
 30
0.0
 11
7.3608783448
 21
9.3579848726
 31
0.0
  0
LINE
  5
176
330
1F
100
AcDbEntity
  8
0
  6
Continuous
 62
     7
370
    15
100
AcDbLine
 10
7.4560216724
 20
9.3579848726
 30
0.0
 11
7.4560216724
 21
9.5454848933
 31
0.0
  0
ARC
  5
177
330
1F
100
AcDbEntity
  8
0
  6
Continuous
 62
     7
370
    15
100
AcDbCircle
 10
5.6160217391
 20
9.5504848534
 30
0.0
 40
0.1925000000000008
100
AcDbArc
 50
270.0
 51
321.5952958853
  0
ARC
  5
178
330
1F
100
AcDbEntity
  8
0
  6
Continuous
 62
     7
370
    15
100
AcDbCircle
 10
3.6808782224
 20
9.5504848534
 30
0.0
 40
0.1925000000000008
100
AcDbArc
 50
218.4047041147
 51
270.0
  0
ARC
  5
179
330
1F
100
AcDbEntity
  8
0
  6
Continuous
 62
     7
370
    15
100
AcDbCircle
 10
9.2008782224
 20
9.5504848534
 30
0.0
 40
0.1925000000000016
100
AcDbArc
 50
218.4047041147
 51
270.0
  0
ARC
  5
17A
330
1F
100
AcDbEntity
  8
0
  6
Continuous
 62
     7
370
    15
100
AcDbCircle
 10
7.4560217391
 20
9.5504848534
 30
0.0
 40
0.1925000000000008
100
AcDbArc
 50
270.0
 51
321.5952958853
  0
ARC
  5
17B
330
1F
100
AcDbEntity
  8
0
  6
Continuous
 62
     7
370
    15
100
AcDbCircle
 10
4.6234499808
 20
9.3954848534
 30
0.0
 40
0.3125000000000009
100
AcDbArc
 50
313.9455195623
 51
0.0
  0
SPLINE
  5
17C
330
1F
100
AcDbEntity
  8
0
  6
Continuous
 62
     7
370
    15
100
AcDbSpline
210
0.0
220
0.0
230
1.0
 70
    24
 71
     3
 72
    18
 73
    14
 74
     0
 42
0.00000001
 43
0.00000001
 40
0.0
 40
0.0
 40
0.0
 40
0.0
 40
0.25
 40
0.25
 40
0.375
 40
0.375
 40
0.5
 40
0.5
 40
0.625
 40
0.625
 40
0.75
 40
0.75
 40
1.0
 40
1.0
 40
1.0
 40
1.0
 10
4.406583086115586
 20
9.170484853396902
 30
0.0
 10
4.442877061229572
 20
9.170484853396902
 30
0.0
 10
4.478905703540522
 20
9.170484853396902
 30
0.0
 10
4.532898280413372
 20
9.170484853396902
 30
0.0
 10
4.550893273201598
 20
9.170484853396902
 30
0.0
 10
4.587046508313761
 20
9.170484853396902
 30
0.0
 10
4.605221668200456
 20
9.170484853396902
 30
0.0
 10
4.64178822206436
 20
9.170484853396902
 30
0.0
 10
4.659941627369312
 20
9.170484853396902
 30
0.0
 10
4.69608025202533
 20
9.170484853396902
 30
0.0
 10
4.714069876039169
 20
9.170484853396902
 30
0.0
 10
4.768046459894824
 20
9.170484853396902
 30
0.0
 10
4.804054502255994
 20
9.170484853396902
 30
0.0
 10
4.840316875438023
 20
9.170484853396902
 30
0.0
  0
ARC
  5
17D
330
1F
100
AcDbEntity
  8
0
  6
Continuous
 62
     7
370
    15
100
AcDbCircle
 10
4.6234499808
 20
9.3954848534
 30
0.0
 40
0.3124999999999998
100
AcDbArc
 50
180.0
 51
226.0544804377
  0
ARC
  5
17E
330
1F
100
AcDbEntity
  8
0
  6
Continuous
 62
     7
370
    15
100
AcDbCircle
 10
2.9484499808
 20
9.3954848534
 30
0.0
 40
0.3125000000000004
100
AcDbArc
 50
313.2587729394
 51
0.0
  0
SPLINE
  5
17F
330
1F
100
AcDbEntity
  8
0
  6
Continuous
 62
     7
370
    15
100
AcDbSpline
210
0.0
220
0.0
230
1.0
 70
     8
 71
     3
 72
    14
 73
    10
 74
     0
 42
0.00000001
 43
0.00000001
 40
0.0
 40
0.0
 40
0.0
 40
0.0
 40
0.25
 40
0.25
 40
0.5
 40
0.5
 40
0.75
 40
0.75
 40
1.0
 40
1.0
 40
1.0
 40
1.0
 10
3.014799785410103
 20
9.090109750572324
 30
0.0
 10
3.024467608823119
 20
9.100576950188282
 30
0.0
 10
3.034914218448621
 20
9.110105943989527
 30
0.0
 10
3.057348293880391
 20
9.127343301406121
 30
0.0
 10
3.069463574378183
 20
9.135111149827852
 30
0.0
 10
3.094615515853576
 20
9.148345214252851
 30
0.0
 10
3.107626670922434
 20
9.153832267634405
 30
0.0
 10
3.134514566717301
 20
9.162584320916498
 30
0.0
 10
3.148510062847497
 20
9.16585972554067
 30
0.0
 10
3.162604514538303
 20
9.167901713271375
 30
0.0
  0
ARC
  5
180
330
1F
100
AcDbEntity
  8
0
  6
Continuous
 62
     7
370
    15
100
AcDbCircle
 10
2.9484499808
 20
9.3954848534
 30
0.0
 40
0.3124999999999996
100
AcDbArc
 50
180.0
 51
282.2583082627
  0
ARC
  5
181
330
1F
100
AcDbEntity
  8
0
  6
Continuous
 62
     7
370
    15
100
AcDbCircle
 10
6.2984499808
 20
9.3954848534
 30
0.0
 40
0.3125000000000009
100
AcDbArc
 50
180.0
 51
0.0
  0
LINE
  5
182
330
1F
100
AcDbEntity
  8
0
  6
Continuous
 62
     7
370
    15
100
AcDbLine
 10
2.394429851
 20
9.345484837
 30
0.0
 11
2.394429851
 21
8.9954848669
 31
0.0
  0
LINE
  5
183
330
1F
100
AcDbEntity
  8
0
  6
Continuous
 62
     7
370
    15
100
AcDbLine
 10
2.394429851
 20
8.9954848669
 30
0.0
 11
2.206930417
 21
8.9954848669
 31
0.0
  0
LINE
  5
184
330
1F
100
AcDbEntity
  8
0
  6
Continuous
 62
     7
370
    15
100
AcDbLine
 10
10.5109499416
 20
9.170484852
 30
0.0
 11
10.5109499416
 21
9.345484837
 31
0.0
  0
LINE
  5
185
330
1F
100
AcDbEntity
  8
0
  6
Continuous
 62
     7
370
    15
100
AcDbLine
 10
10.6984499622
 20
9.170484852
 30
0.0
 11
10.5109499416
 21
9.170484852
 31
0.0
  0
LWPOLYLINE
  5
186
330
1F
100
AcDbEntity
  8
0
  6
Continuous
 62
     7
370
    15
100
AcDbPolyline
 90
        9
 70
   128
 43
0.0
 10
1.0561559775
 20
8.5737981016
 10
1.0528495624
 20
8.5752305234
 10
1.0430593821
 20
8.5794727527
 10
1.0271608991
 20
8.5863617348
 10
1.005765413
 20
8.5956327577
 10
0.9796942475
 20
8.6069295356
 10
0.9499505911
 20
8.61981794
 10
0.9176772572
 20
8.6338026651
 10
0.8841132716
 20
8.6483462938
  0
ARC
  5
187
330
1F
100
AcDbEntity
  8
0
  6
Continuous
 62
     7
370
    15
100
AcDbCircle
 10
1.6984499808
 20
8.2954848534
 30
0.0
 40
0.8875000000000005
100
AcDbArc
 50
96.919916803
 51
156.5723734913
  0
ARC
  5
188
330
1F
100
AcDbEntity
  8
0
  6
Continuous
 62
     7
370
    15
100
AcDbCircle
 10
2.8819300186
 20
8.9954848534
 30
0.0
 40
0.4874999999999996
100
AcDbArc
 50
180.0
 51
210.6032946082
  0
LWPOLYLINE
  5
189
330
1F
100
AcDbEntity
  8
0
  6
Continuous
 62
     7
370
    15
100
AcDbPolyline
 90
        9
 70
   128
 43
0.0
 10
2.4623327999
 20
8.7473030206
 10
2.4308479369
 20
8.7286807857
 10
2.40057394
 20
8.7107741659
 10
2.3726723957
 20
8.6942713132
 10
2.3482168915
 20
8.6798064803
 10
2.3281472567
 20
8.6679354908
 10
2.313233189
 20
8.659114546
 10
2.3040496151
 20
8.6536826255
 10
2.3009485309
 20
8.6518485067
  0
ARC
  5
18A
330
1F
100
AcDbEntity
  8
0
  6
Continuous
 62
     7
370
    15
100
AcDbCircle
 10
0.7464783425
 20
8.7079848534
 30
0.0
 40
0.1500000000000003
100
AcDbArc
 50
156.5723734913
 51
336.5723734913
  0
SPLINE
  5
18B
330
1F
100
AcDbEntity
  8
0
  6
Continuous
 62
     7
370
    15
100
AcDbSpline
210
0.0
220
0.0
230
1.0
 70
     8
 71
     3
 72
    12
 73
     8
 74
     0
 42
0.00000001
 43
0.00000001
 40
0.0
 40
0.0
 40
0.0
 40
0.0
 40
0.5
 40
0.5
 40
0.75
 40
0.75
 40
1.0
 40
1.0
 40
1.0
 40
1.0
 10
2.423796719990328
 20
8.255641240664183
 30
0.0
 10
2.42204130136748
 20
8.268537851295244
 30
0.0
 10
2.420968336333286
 20
8.281700555655895
 30
0.0
 10
2.420960724668048
 20
8.302229054133234
 30
0.0
 10
2.421228968131394
 20
8.309042997084813
 30
0.0
 10
2.422208886993181
 20
8.322334770364506
 30
0.0
 10
2.422917411325639
 20
8.32886841077571
 30
0.0
 10
2.423796719990399
 20
8.335328466130141
 30
0.0
  0
SPLINE
  5
18C
330
1F
100
AcDbEntity
  8
0
  6
Continuous
 62
     7
370
    15
100
AcDbSpline
210
0.0
220
0.0
230
1.0
 70
     8
 71
     3
 72
    42
 73
    38
 74
     0
 42
0.00000001
 43
0.00000001
 40
0.0
 40
0.0
 40
0.0
 40
0.0
 40
0.0625000000000014
 40
0.0625000000000014
 40
0.1250000000000028
 40
0.1250000000000028
 40
0.1875000000000042
 40
0.1875000000000042
 40
0.2500000000000056
 40
0.2500000000000056
 40
0.312500000000007
 40
0.312500000000007
 40
0.3750000000000084
 40
0.3750000000000084
 40
0.4375000000000098
 40
0.4375000000000098
 40
0.5000000000000112
 40
0.5000000000000112
 40
0.5625000000000127
 40
0.5625000000000127
 40
0.5937500000000118
 40
0.5937500000000118
 40
0.6250000000000109
 40
0.6250000000000109
 40
0.6562500000000101
 40
0.6562500000000101
 40
0.6875000000000092
 40
0.6875000000000092
 40
0.7500000000000073
 40
0.7500000000000073
 40
0.8125000000000056
 40
0.8125000000000056
 40
0.8750000000000038
 40
0.8750000000000038
 40
0.9375000000000019
 40
0.9375000000000019
 40
1.0
 40
1.0
 40
1.0
 40
1.0
 10
2.423796719990399
 20
8.335328466130141
 30
0.0
 10
2.427000115896637
 20
8.339199951366885
 30
0.0
 10
2.430591069163334
 20
8.34261078034007
 30
0.0
 10
2.438636701829866
 20
8.348603946065236
 30
0.0
 10
2.443089432499869
 20
8.351184159314721
 30
0.0
 10
2.453059017369033
 20
8.355305213042245
 30
0.0
 10
2.458468706044927
 20
8.356792514375739
 30
0.0
 10
2.470063233835682
 20
8.358228890954845
 30
0.0
 10
2.476334533567049
 20
8.358161486100999
 30
0.0
 10
2.48900243053733
 20
8.35595632226826
 30
0.0
 10
2.495580227744939
 20
8.353762868533975
 30
0.0
 10
2.507824833312193
 20
8.347134737962659
 30
0.0
 10
2.513697509170745
 20
8.34257570887383
 30
0.0
 10
2.52349347980684
 20
8.331591258705275
 30
0.0
 10
2.52753576403421
 20
8.325034647196116
 30
0.0
 10
2.532964199452456
 20
8.310984360915372
 30
0.0
 10
2.534416917623125
 20
8.303329440326342
 30
0.0
 10
2.534481894751415
 20
8.288176264085182
 30
0.0
 10
2.533101119459961
 20
8.280523463606185
 30
0.0
 10
2.52910743439457
 20
8.269920439994433
 30
0.0
 10
2.527431664537426
 20
8.266466140420482
 30
0.0
 10
2.523565316318153
 20
8.260042504819594
 30
0.0
 10
2.521369042494433
 20
8.257043033474327
 30
0.0
 10
2.51647362753502
 20
8.251465970410624
 30
0.0
 10
2.513774409924253
 20
8.248901288202857
 30
0.0
 10
2.508126213753113
 20
8.244390904759694
 30
0.0
 10
2.505152034144147
 20
8.242414784051762
 30
0.0
 10
2.495834377881842
 20
8.237295335377311
 30
0.0
 10
2.489373968277957
 20
8.235109458120409
 30
0.0
 10
2.476534156192753
 20
8.232812937589348
 30
0.0
 10
2.470359932471452
 20
8.232725729037453
 30
0.0
 10
2.458614779415191
 20
8.2341382288066
 30
0.0
 10
2.453239797468461
 20
8.235610874649815
 30
0.0
 10
2.443320933230674
 20
8.239669605237996
 30
0.0
 10
2.438757102326461
 20
8.242285447525719
 30
0.0
 10
2.430618065172677
 20
8.248329612782953
 30
0.0
 10
2.427006473476014
 20
8.251762071932276
 30
0.0
 10
2.423796719989997
 20
8.25564124066403
 30
0.0
  0
ARC
  5
18D
330
1F
100
AcDbEntity
  8
0
  6
Continuous
 62
     7
370
    15
100
AcDbCircle
 10
1.6984499808
 20
8.2954848534
 30
0.0
 40
0.8874999999999996
100
AcDbArc
 50
329.3967053918
 51
30.6032946082
  0
LWPOLYLINE
  5
18E
330
1F
100
AcDbEntity
  8
0
  6
Continuous
 62
     7
370
    15
100
AcDbPolyline
 90
        9
 70
   128
 43
0.0
 10
2.4623327999
 20
7.8436666862
 10
2.4308479369
 20
7.862288921
 10
2.40057394
 20
7.8801955409
 10
2.3726723957
 20
7.8966983935
 10
2.3482168915
 20
7.9111632264
 10
2.3281472567
 20
7.923034216
 10
2.313233189
 20
7.9318551607
 10
2.3040496151
 20
7.9372870813
 10
2.3009485309
 20
7.9391212001
  0
ARC
  5
18F
330
1F
100
AcDbEntity
  8
0
  6
Continuous
 62
     7
370
    15
100
AcDbCircle
 10
1.6984499808
 20
8.2954848534
 30
0.0
 40
0.7216687604822292
100
AcDbArc
 50
331.698308575
 51
28.301691425
  0
SPLINE
  5
190
330
1F
100
AcDbEntity
  8
0
  6
Continuous
 62
     7
370
    15
100
AcDbSpline
210
0.0
220
0.0
230
1.0
 70
     8
 71
     3
 72
    12
 73
     8
 74
     0
 42
0.00000001
 43
0.00000001
 40
0.0
 40
0.0
 40
0.0
 40
0.0
 40
0.4999999999999998
 40
0.4999999999999998
 40
0.7499999999999999
 40
0.7499999999999999
 40
1.0
 40
1.0
 40
1.0
 40
1.0
 10
2.333852880704784
 20
7.95333144537782
 30
0.0
 10
2.328746496231819
 20
7.958772785218549
 30
0.0
 10
2.324950429102856
 20
7.963049218184768
 30
0.0
 10
2.321075627831487
 20
7.967471988704091
 30
0.0
 10
2.320089032992982
 20
7.96861484498582
 30
0.0
 10
2.318778608114612
 20
7.970137872486768
 30
0.0
 10
2.318449980776796
 20
7.970523317211473
 30
0.0
 10
2.318449980776797
 20
7.970523317211473
 30
0.0
  0
SPLINE
  5
191
330
1F
100
AcDbEntity
  8
0
  6
Continuous
 62
     7
370
    15
100
AcDbSpline
210
0.0
220
0.0
230
1.0
 70
     8
 71
     3
 72
    12
 73
     8
 74
     0
 42
0.00000001
 43
0.00000001
 40
0.0
 40
0.0
 40
0.0
 40
0.0
 40
0.5000000000000004
 40
0.5000000000000004
 40
0.7500000000000002
 40
0.7500000000000002
 40
1.0
 40
1.0
 40
1.0
 40
1.0
 10
2.318449980776804
 20
8.620446389582339
 30
0.0
 10
2.318449980776806
 20
8.620446389582339
 30
0.0
 10
2.319746807728073
 20
8.621979967422183
 30
0.0
 10
2.323593803034322
 20
8.62637249928019
 30
0.0
 10
2.325209038544838
 20
8.628200167124652
 30
0.0
 10
2.329063408025223
 20
8.632474231297753
 30
0.0
 10
2.331298345014109
 20
8.634916159917001
 30
0.0
 10
2.333852880704777
 20
8.637638261415978
 30
0.0
  0
LWPOLYLINE
  5
192
330
1F
100
AcDbEntity
  8
0
  6
Continuous
 62
     7
370
    15
100
AcDbPolyline
 90
        9
 70
   128
 43
0.0
 10
1.0561559775
 20
8.0171716052
 10
1.0528495624
 20
8.0157391834
 10
1.0430593821
 20
8.011496954
 10
1.0271608991
 20
8.004607972
 10
1.005765413
 20
7.9953369491
 10
0.9796942475
 20
7.9840401712
 10
0.9499505911
 20
7.9711517668
 10
0.9176772572
 20
7.9571670417
 10
0.8841132716
 20
7.942623413
  0
ARC
  5
193
330
1F
100
AcDbEntity
  8
0
  6
Continuous
 62
     7
370
    15
100
AcDbCircle
 10
0.7464783425
 20
7.8829848534
 30
0.0
 40
0.1500000000000007
100
AcDbArc
 50
23.4276265087
 51
203.4276265087
  0
LWPOLYLINE
  5
194
330
1F
100
AcDbEntity
  8
0
  6
Continuous
 62
     7
370
    15
100
AcDbPolyline
 90
        9
 70
   128
 43
0.0
 10
0.6088442382
 20
7.8233462909
 10
0.5752802526
 20
7.8088026623
 10
0.5430057455
 20
7.7948179371
 10
0.5132620891
 20
7.7819295327
 10
0.4871909236
 20
7.7706327732
 10
0.4657954374
 20
7.7613617503
 10
0.4498969544
 20
7.7544727499
 10
0.4401067742
 20
7.7502305389
 10
0.436800359
 20
7.7487980988
  0
LWPOLYLINE
  5
195
330
1F
100
AcDbEntity
  8
0
  6
Continuous
 62
     7
370
    15
100
AcDbPolyline
 90
        9
 70
   128
 43
0.0
 10
1.6141129453
 20
7.6005840143
 10
1.613678817
 20
7.5970074423
 10
1.6123928585
 20
7.5864153713
 10
1.6103055226
 20
7.5692147233
 10
1.607496595
 20
7.5460665907
 10
1.6040728479
 20
7.5178604232
 10
1.6001668664
 20
7.485680295
 10
1.5959300087
 20
7.4507628117
 10
1.5915218462
 20
7.4144498112
  0
ARC
  5
196
330
1F
100
AcDbEntity
  8
0
  6
Continuous
 62
     7
370
    15
100
AcDbCircle
 10
1.6984499808
 20
8.2954848534
 30
0.0
 40
0.8874999999999996
100
AcDbArc
 50
203.4276265087
 51
263.080083197
  0
ARC
  5
197
330
1F
100
AcDbEntity
  8
0
  6
Continuous
 62
     7
370
    15
100
AcDbCircle
 10
2.8819300186
 20
7.5954848534
 30
0.0
 40
0.4875000000000007
100
AcDbArc
 50
149.3967053918
 51
180.0
  0
LINE
  5
198
330
1F
100
AcDbEntity
  8
0
  6
Continuous
 62
     7
370
    15
100
AcDbLine
 10
2.394429851
 20
7.5954848399
 30
0.0
 11
2.206930417
 21
7.5954848399
 31
0.0
  0
ARC
  5
199
330
1F
100
AcDbEntity
  8
0
  6
Continuous
 62
     7
370
    15
100
AcDbCircle
 10
1.6984499808
 20
8.2954848534
 30
0.0
 40
1.187500000000001
100
AcDbArc
 50
203.4276265087
 51
263.080083197
  0
LWPOLYLINE
  5
19A
330
1F
100
AcDbEntity
  8
0
  6
Continuous
 62
     7
370
    15
100
AcDbPolyline
 90
        9
 70
   128
 43
0.0
 10
1.5553777305
 20
7.1166351449
 10
1.5509707414
 20
7.0803222177
 10
1.5467327103
 20
7.0454047344
 10
1.5428267288
 20
7.0132245328
 10
1.539404155
 20
6.985018512
 10
1.5365940541
 20
6.9618702328
 10
1.5345067182
 20
6.9446696581
 10
1.5332219331
 20
6.9340775138
 10
1.5327878047
 20
6.9305009418
  0
ARC
  5
19B
330
1F
100
AcDbEntity
  8
0
  6
Continuous
 62
     7
370
    15
100
AcDbCircle
 10
1.5734499808
 20
7.2655425006
 30
0.0
 40
0.1500000000000012
100
AcDbArc
 50
263.080083197
 51
83.080083197
  0
LINE
  5
19C
330
1F
100
AcDbEntity
  8
0
  6
Continuous
 62
     7
370
    15
100
AcDbLine
 10
2.394429851
 20
7.5954848399
 30
0.0
 11
2.394429851
 21
7.2454848698
 31
0.0
  0
LINE
  5
19D
330
1F
100
AcDbEntity
  8
0
  6
Continuous
 62
     7
370
    15
100
AcDbLine
 10
2.394429851
 20
7.2454848698
 30
0.0
 11
2.206930417
 21
7.2454848698
 31
0.0
  0
LINE
  5
19E
330
1F
100
AcDbEntity
  8
0
  6
Continuous
 62
     7
370
    15
100
AcDbLine
 10
3.2609499742
 20
7.195484874
 30
0.0
 11
3.0734499536
 21
7.195484874
 31
0.0
  0
ARC
  5
19F
330
1F
100
AcDbEntity
  8
0
  6
Continuous
 62
     7
370
    15
100
AcDbCircle
 10
2.9484499808
 20
7.1954848534
 30
0.0
 40
0.1250000000000004
100
AcDbArc
 50
0.0
 51
180.0
  0
LINE
  5
1A0
330
1F
100
AcDbEntity
  8
0
  6
Continuous
 62
     7
370
    15
100
AcDbLine
 10
2.6359501009
 20
7.195484874
 30
0.0
 11
2.8234501216
 21
7.195484874
 31
0.0
  0
ARC
  5
1A1
330
1F
100
AcDbEntity
  8
0
  6
Continuous
 62
     7
370
    15
100
AcDbCircle
 10
2.9484499808
 20
7.1954848534
 30
0.0
 40
0.3124999999999996
100
AcDbArc
 50
77.7416917373
 51
180.0
  0
SPLINE
  5
1A2
330
1F
100
AcDbEntity
  8
0
  6
Continuous
 62
     7
370
    15
100
AcDbSpline
210
0.0
220
0.0
230
1.0
 70
     8
 71
     3
 72
    14
 73
    10
 74
     0
 42
0.00000001
 43
0.00000001
 40
0.0
 40
0.0
 40
0.0
 40
0.0
 40
0.25
 40
0.25
 40
0.5
 40
0.5
 40
0.75
 40
0.75
 40
1.0
 40
1.0
 40
1.0
 40
1.0
 10
3.162604514538303
 20
7.423067993522428
 30
0.0
 10
3.148653669230438
 20
7.425089175727778
 30
0.0
 10
3.134904794679042
 20
7.428277154008317
 30
0.0
 10
3.107826934270562
 20
7.437053870532077
 30
0.0
 10
3.094637895720848
 20
7.442619215373681
 30
0.0
 10
3.06962064167336
 20
7.455769461816408
 30
0.0
 10
3.057686090047726
 20
7.463386418779545
 30
0.0
 10
3.035002917851746
 20
7.480776413481014
 30
0.0
 10
3.024478370351126
 20
7.490381105269228
 30
0.0
 10
3.014799785410103
 20
7.50085995622148
 30
0.0
  0
ARC
  5
1A3
330
1F
100
AcDbEntity
  8
0
  6
Continuous
 62
     7
370
    15
100
AcDbCircle
 10
2.9484499808
 20
7.1954848534
 30
0.0
 40
0.3125000000000004
100
AcDbArc
 50
0.0
 51
46.7412270606
  0
ARC
  5
1A4
330
1F
100
AcDbEntity
  8
0
  6
Continuous
 62
     7
370
    15
100
AcDbCircle
 10
6.2984499808
 20
7.1954848534
 30
0.0
 40
0.3125000000000009
100
AcDbArc
 50
0.0
 51
180.0
  0
LINE
  5
1A5
330
1F
100
AcDbEntity
  8
0
  6
Continuous
 62
     7
370
    15
100
AcDbLine
 10
6.6109498347
 20
7.195484874
 30
0.0
 11
6.4234498141
 21
7.195484874
 31
0.0
  0
ARC
  5
1A6
330
1F
100
AcDbEntity
  8
0
  6
Continuous
 62
     7
370
    15
100
AcDbCircle
 10
6.2984499808
 20
7.1954848534
 30
0.0
 40
0.125
100
AcDbArc
 50
0.0
 51
180.0
  0
LINE
  5
1A7
330
1F
100
AcDbEntity
  8
0
  6
Continuous
 62
     7
370
    15
100
AcDbLine
 10
5.9859499614
 20
7.195484874
 30
0.0
 11
6.1734499821
 21
7.195484874
 31
0.0
  0
LINE
  5
1A8
330
1F
100
AcDbEntity
  8
0
  6
Continuous
 62
     7
370
    15
100
AcDbLine
 10
10.5109499416
 20
7.1704848762
 30
0.0
 11
10.6984499622
 21
7.1704848762
 31
0.0
  0
LINE
  5
1A9
330
1F
100
AcDbEntity
  8
0
  6
Continuous
 62
     7
370
    15
100
AcDbLine
 10
10.5109499416
 20
7.1704848762
 30
0.0
 11
10.5109499416
 21
7.4204848548
 31
0.0
  0
LINE
  5
1AA
330
1F
100
AcDbEntity
  8
0
  6
Continuous
 62
     7
370
    15
100
AcDbLine
 10
10.5109499416
 20
7.4204848548
 30
0.0
 11
10.6984499622
 21
7.4204848548
 31
0.0
  0
LINE
  5
1AB
330
1F
100
AcDbEntity
  8
0
  6
Continuous
 62
     7
370
    15
100
AcDbLine
 10
4.9359501978
 20
7.195484874
 30
0.0
 11
4.7484501771
 21
7.195484874
 31
0.0
  0
ARC
  5
1AC
330
1F
100
AcDbEntity
  8
0
  6
Continuous
 62
     7
370
    15
100
AcDbCircle
 10
4.6234499808
 20
7.1954848534
 30
0.0
 40
0.125
100
AcDbArc
 50
0.0
 51
180.0
  0
LINE
  5
1AD
330
1F
100
AcDbEntity
  8
0
  6
Continuous
 62
     7
370
    15
100
AcDbLine
 10
4.3109497379
 20
7.195484874
 30
0.0
 11
4.4984497585
 21
7.195484874
 31
0.0
  0
ARC
  5
1AE
330
1F
100
AcDbEntity
  8
0
  6
Continuous
 62
     7
370
    15
100
AcDbCircle
 10
4.6234499808
 20
7.1954848534
 30
0.0
 40
0.3125000000000004
100
AcDbArc
 50
133.9455195623
 51
180.0
  0
SPLINE
  5
1AF
330
1F
100
AcDbEntity
  8
0
  6
Continuous
 62
     7
370
    15
100
AcDbSpline
210
0.0
220
0.0
230
1.0
 70
    24
 71
     3
 72
    18
 73
    14
 74
     0
 42
0.00000001
 43
0.00000001
 40
0.0
 40
0.0
 40
0.0
 40
0.0
 40
0.25
 40
0.25
 40
0.375
 40
0.375
 40
0.5
 40
0.5
 40
0.625
 40
0.625
 40
0.75
 40
0.75
 40
1.0
 40
1.0
 40
1.0
 40
1.0
 10
4.840316875438023
 20
7.420484853396903
 30
0.0
 10
4.804022900324041
 20
7.420484853396903
 30
0.0
 10
4.76799425801309
 20
7.420484853396903
 30
0.0
 10
4.714001681140234
 20
7.420484853396903
 30
0.0
 10
4.696006688352011
 20
7.420484853396903
 30
0.0
 10
4.659853453239852
 20
7.420484853396903
 30
0.0
 10
4.641678293353152
 20
7.420484853396903
 30
0.0
 10
4.605111739489253
 20
7.420484853396903
 30
0.0
 10
4.586958334184296
 20
7.420484853396903
 30
0.0
 10
4.55081970952828
 20
7.420484853396903
 30
0.0
 10
4.532830085514441
 20
7.420484853396903
 30
0.0
 10
4.478853501658784
 20
7.420484853396903
 30
0.0
 10
4.442845459297614
 20
7.420484853396903
 30
0.0
 10
4.406583086115586
 20
7.420484853396903
 30
0.0
  0
ARC
  5
1B0
330
1F
100
AcDbEntity
  8
0
  6
Continuous
 62
     7
370
    15
100
AcDbCircle
 10
4.6234499808
 20
7.1954848534
 30
0.0
 40
0.3125000000000009
100
AcDbArc
 50
0.0
 51
46.0544804377
  0
ARC
  5
1B1
330
1F
100
AcDbEntity
  8
0
  6
Continuous
 62
     7
370
    15
100
AcDbCircle
 10
6.6984499808
 20
7.1954848534
 30
0.0
 40
0.275000000000003
100
AcDbArc
 50
180.0
 51
270.0
  0
ARC
  5
1B2
330
1F
100
AcDbEntity
  8
0
  6
Continuous
 62
     7
370
    15
100
AcDbCircle
 10
5.8984499808
 20
7.1954848534
 30
0.0
 40
0.275000000000003
100
AcDbArc
 50
270.0
 51
0.0
  0
CIRCLE
  5
1B3
330
1F
100
AcDbEntity
  8
0
  6
Continuous
 62
     7
370
    15
100
AcDbCircle
 10
6.2984499808
 20
7.1954848534
 30
0.0
 40
0.0444999999999993
  0
ARC
  5
1B4
330
1F
100
AcDbEntity
  8
0
  6
Continuous
 62
     7
370
    15
100
AcDbCircle
 10
5.0234499808
 20
7.1954848534
 30
0.0
 40
0.275000000000003
100
AcDbArc
 50
180.0
 51
270.0
  0
ARC
  5
1B5
330
1F
100
AcDbEntity
  8
0
  6
Continuous
 62
     7
370
    15
100
AcDbCircle
 10
4.2234499808
 20
7.1954848534
 30
0.0
 40
0.275000000000003
100
AcDbArc
 50
270.0
 51
0.0
  0
CIRCLE
  5
1B6
330
1F
100
AcDbEntity
  8
0
  6
Continuous
 62
     7
370
    15
100
AcDbCircle
 10
4.6234499808
 20
7.1954848534
 30
0.0
 40
0.0444999999999993
  0
ARC
  5
1B7
330
1F
100
AcDbEntity
  8
0
  6
Continuous
 62
     7
370
    15
100
AcDbCircle
 10
3.3484499808
 20
7.1954848534
 30
0.0
 40
0.275000000000003
100
AcDbArc
 50
180.0
 51
270.0
  0
ARC
  5
1B8
330
1F
100
AcDbEntity
  8
0
  6
Continuous
 62
     7
370
    15
100
AcDbCircle
 10
2.5484499808
 20
7.1954848534
 30
0.0
 40
0.275000000000003
100
AcDbArc
 50
270.0
 51
0.0
  0
CIRCLE
  5
1B9
330
1F
100
AcDbEntity
  8
0
  6
Continuous
 62
     7
370
    15
100
AcDbCircle
 10
2.9484499808
 20
7.1954848534
 30
0.0
 40
0.0444999999999984
  0
ARC
  5
1BA
330
1F
100
AcDbEntity
  8
0
  6
Continuous
 62
     7
370
    15
100
AcDbCircle
 10
2.5319300186
 20
7.2454848534
 30
0.0
 40
0.1375000000000002
100
AcDbArc
 50
180.0
 51
270.0
  0
LINE
  5
1BB
330
1F
100
AcDbEntity
  8
0
  6
Continuous
 62
     7
370
    15
100
AcDbLine
 10
2.5319300226
 20
7.1079848448
 30
0.0
 11
2.5319300226
 21
6.9204848975
 31
0.0
  0
ARC
  5
1BC
330
1F
100
AcDbEntity
  8
0
  6
Continuous
 62
     7
370
    15
100
AcDbCircle
 10
5.6160217391
 20
7.0404848534
 30
0.0
 40
0.1925000000000008
100
AcDbArc
 50
38.4047041147
 51
90.0
  0
LWPOLYLINE
  5
1BD
330
1F
100
AcDbEntity
  8
0
  6
Continuous
 62
     7
370
    15
100
AcDbPolyline
 90
        9
 70
   128
 43
0.0
 10
5.7668729722
 20
7.1600682165
 10
5.7382075967
 20
7.1373446057
 10
5.7106439685
 20
7.1154942381
 10
5.6852415952
 20
7.0953569174
 10
5.6629755058
 20
7.0777063013
 10
5.6447028102
 20
7.0632208619
 10
5.6311245671
 20
7.0524572663
 10
5.6227634903
 20
7.0458290362
 10
5.6199398963
 20
7.0435909287
  0
LINE
  5
1BE
330
1F
100
AcDbEntity
  8
0
  6
Continuous
 62
     7
370
    15
100
AcDbLine
 10
5.6160215949
 20
7.2329848342
 30
0.0
 11
5.6160215949
 21
7.0454848135
 31
0.0
  0
ARC
  5
1BF
330
1F
100
AcDbEntity
  8
0
  6
Continuous
 62
     7
370
    15
100
AcDbCircle
 10
7.4560217391
 20
7.0404848534
 30
0.0
 40
0.1925000000000008
100
AcDbArc
 50
38.4047041147
 51
90.0
  0
LWPOLYLINE
  5
1C0
330
1F
100
AcDbEntity
  8
0
  6
Continuous
 62
     7
370
    15
100
AcDbPolyline
 90
        9
 70
   128
 43
0.0
 10
7.6068730497
 20
7.1600682165
 10
7.5782076742
 20
7.1373446057
 10
7.550644046
 20
7.1154942381
 10
7.5252413794
 20
7.0953569174
 10
7.5029755833
 20
7.0777063013
 10
7.4847025944
 20
7.0632208619
 10
7.4711246446
 20
7.0524572663
 10
7.4627632745
 20
7.0458290362
 10
7.4599399738
 20
7.0435909287
  0
LINE
  5
1C1
330
1F
100
AcDbEntity
  8
0
  6
Continuous
 62
     7
370
    15
100
AcDbLine
 10
7.4560216724
 20
7.2329848342
 30
0.0
 11
7.4560216724
 21
7.0454848135
 31
0.0
  0
LINE
  5
1C2
330
1F
100
AcDbEntity
  8
0
  6
Continuous
 62
     7
370
    15
100
AcDbLine
 10
3.6808781898
 20
7.2329848342
 30
0.0
 11
3.7760215174
 21
7.2329848342
 31
0.0
  0
LINE
  5
1C3
330
1F
100
AcDbEntity
  8
0
  6
Continuous
 62
     7
370
    15
100
AcDbLine
 10
3.7760215174
 20
7.2329848342
 30
0.0
 11
3.7760215174
 21
7.0454848135
 31
0.0
  0
LINE
  5
1C4
330
1F
100
AcDbEntity
  8
0
  6
Continuous
 62
     7
370
    15
100
AcDbLine
 10
3.6808781898
 20
7.2329848342
 30
0.0
 11
3.6808781898
 21
7.0454848135
 31
0.0
  0
ARC
  5
1C5
330
1F
100
AcDbEntity
  8
0
  6
Continuous
 62
     7
370
    15
100
AcDbCircle
 10
9.2008782224
 20
7.0404848534
 30
0.0
 40
0.1925000000000016
100
AcDbArc
 50
90.0
 51
141.5952958853
  0
LINE
  5
1C6
330
1F
100
AcDbEntity
  8
0
  6
Continuous
 62
     7
370
    15
100
AcDbLine
 10
9.200878129
 20
7.2329848342
 30
0.0
 11
9.200878129
 21
7.0454848135
 31
0.0
  0
LWPOLYLINE
  5
1C7
330
1F
100
AcDbEntity
  8
0
  6
Continuous
 62
     7
370
    15
100
AcDbPolyline
 90
        9
 70
   128
 43
0.0
 10
9.050027045
 20
7.1600682165
 10
9.0786921272
 20
7.1373446057
 10
9.1062557554
 20
7.1154942381
 10
9.1316587153
 20
7.0953569174
 10
9.1539242181
 20
7.0777063013
 10
9.172197207
 20
7.0632208619
 10
9.1857754501
 20
7.0524572663
 10
9.1941368202
 20
7.0458290362
 10
9.1969601209
 20
7.0435909287
  0
ARC
  5
1C8
330
1F
100
AcDbEntity
  8
0
  6
Continuous
 62
     7
370
    15
100
AcDbCircle
 10
7.3608782224
 20
7.0404848534
 30
0.0
 40
0.1924999999999996
100
AcDbArc
 50
90.0
 51
141.5952958853
  0
LINE
  5
1C9
330
1F
100
AcDbEntity
  8
0
  6
Continuous
 62
     7
370
    15
100
AcDbLine
 10
7.3608783448
 20
7.2329848342
 30
0.0
 11
7.3608783448
 21
7.0454848135
 31
0.0
  0
LWPOLYLINE
  5
1CA
330
1F
100
AcDbEntity
  8
0
  6
Continuous
 62
     7
370
    15
100
AcDbPolyline
 90
        9
 70
   128
 43
0.0
 10
7.2100269675
 20
7.1600682165
 10
7.238692343
 20
7.1373446057
 10
7.2662559712
 20
7.1154942381
 10
7.2916586378
 20
7.0953569174
 10
7.3139244339
 20
7.0777063013
 10
7.3321974228
 20
7.0632208619
 10
7.3457753726
 20
7.0524572663
 10
7.3541367427
 20
7.0458290362
 10
7.3569600434
 20
7.0435909287
  0
LINE
  5
1CB
330
1F
100
AcDbEntity
  8
0
  6
Continuous
 62
     7
370
    15
100
AcDbLine
 10
7.3608783448
 20
7.2329848342
 30
0.0
 11
7.4560216724
 21
7.2329848342
 31
0.0
  0
ARC
  5
1CC
330
1F
100
AcDbEntity
  8
0
  6
Continuous
 62
     7
370
    15
100
AcDbCircle
 10
3.6808782224
 20
7.0404848534
 30
0.0
 40
0.1924999999999996
100
AcDbArc
 50
90.0
 51
141.5952958853
  0
LWPOLYLINE
  5
1CD
330
1F
100
AcDbEntity
  8
0
  6
Continuous
 62
     7
370
    15
100
AcDbPolyline
 90
        9
 70
   128
 43
0.0
 10
3.5300268125
 20
7.1600682165
 10
3.558692188
 20
7.1373446057
 10
3.5862558162
 20
7.1154942381
 10
3.6116587761
 20
7.0953569174
 10
3.6339242789
 20
7.0777063013
 10
3.6521975611
 20
7.0632208619
 10
3.6657752176
 20
7.0524572663
 10
3.674136881
 20
7.0458290362
 10
3.6769598884
 20
7.0435909287
  0
ARC
  5
1CE
330
1F
100
AcDbEntity
  8
0
  6
Continuous
 62
     7
370
    15
100
AcDbCircle
 10
9.2960217391
 20
7.0404848534
 30
0.0
 40
0.1925000000000008
100
AcDbArc
 50
38.4047041147
 51
90.0
  0
LWPOLYLINE
  5
1CF
330
1F
100
AcDbEntity
  8
0
  6
Continuous
 62
     7
370
    15
100
AcDbPolyline
 90
        9
 70
   128
 43
0.0
 10
9.4468728339
 20
7.1600682165
 10
9.4182077517
 20
7.1373446057
 10
9.3906441235
 20
7.1154942381
 10
9.3652414569
 20
7.0953569174
 10
9.3429756608
 20
7.0777063013
 10
9.3247026719
 20
7.0632208619
 10
9.3111244287
 20
7.0524572663
 10
9.302763352
 20
7.0458290362
 10
9.2999400513
 20
7.0435909287
  0
LINE
  5
1D0
330
1F
100
AcDbEntity
  8
0
  6
Continuous
 62
     7
370
    15
100
AcDbLine
 10
9.2960217499
 20
7.2329848342
 30
0.0
 11
9.2960217499
 21
7.0454848135
 31
0.0
  0
ARC
  5
1D1
330
1F
100
AcDbEntity
  8
0
  6
Continuous
 62
     7
370
    15
100
AcDbCircle
 10
5.5208782224
 20
7.0404848534
 30
0.0
 40
0.1924999999999996
100
AcDbArc
 50
90.0
 51
141.5952958853
  0
LINE
  5
1D2
330
1F
100
AcDbEntity
  8
0
  6
Continuous
 62
     7
370
    15
100
AcDbLine
 10
5.5208782673
 20
7.2329848342
 30
0.0
 11
5.5208782673
 21
7.0454848135
 31
0.0
  0
LWPOLYLINE
  5
1D3
330
1F
100
AcDbEntity
  8
0
  6
Continuous
 62
     7
370
    15
100
AcDbPolyline
 90
        9
 70
   128
 43
0.0
 10
5.37002689
 20
7.1600682165
 10
5.3986922655
 20
7.1373446057
 10
5.4262558937
 20
7.1154942381
 10
5.4516588536
 20
7.0953569174
 10
5.4739243564
 20
7.0777063013
 10
5.492197052
 20
7.0632208619
 10
5.5057752951
 20
7.0524572663
 10
5.5141369585
 20
7.0458290362
 10
5.5169599659
 20
7.0435909287
  0
ARC
  5
1D4
330
1F
100
AcDbEntity
  8
0
  6
Continuous
 62
     7
370
    15
100
AcDbCircle
 10
3.7760217391
 20
7.0404848534
 30
0.0
 40
0.1925000000000008
100
AcDbArc
 50
38.4047041147
 51
90.0
  0
LWPOLYLINE
  5
1D5
330
1F
100
AcDbEntity
  8
0
  6
Continuous
 62
     7
370
    15
100
AcDbPolyline
 90
        9
 70
   128
 43
0.0
 10
3.9268728947
 20
7.1600682165
 10
3.8982075192
 20
7.1373446057
 10
3.870643891
 20
7.1154942381
 10
3.8452415178
 20
7.0953569174
 10
3.8229754283
 20
7.0777063013
 10
3.8047027327
 20
7.0632208619
 10
3.7911244896
 20
7.0524572663
 10
3.7827634128
 20
7.0458290362
 10
3.7799398188
 20
7.0435909287
  0
LINE
  5
1D6
330
1F
100
AcDbEntity
  8
0
  6
Continuous
 62
     7
370
    15
100
AcDbLine
 10
5.5208782673
 20
7.2329848342
 30
0.0
 11
5.6160215949
 21
7.2329848342
 31
0.0
  0
LINE
  5
1D7
330
1F
100
AcDbEntity
  8
0
  6
Continuous
 62
     7
370
    15
100
AcDbLine
 10
9.200878129
 20
7.2329848342
 30
0.0
 11
9.2960217499
 21
7.2329848342
 31
0.0
  0
ARC
  5
1D8
330
1F
100
AcDbEntity
  8
0
  6
Continuous
 62
     7
370
    15
100
AcDbCircle
 10
5.8984499808
 20
7.1954848534
 30
0.0
 40
0.087500000000003
100
AcDbArc
 50
270.0
 51
360.0
  0
LINE
  5
1D9
330
1F
100
AcDbEntity
  8
0
  6
Continuous
 62
     7
370
    15
100
AcDbLine
 10
5.8984502256
 20
7.1079848448
 30
0.0
 11
5.8984502256
 21
6.9204848975
 31
0.0
  0
ARC
  5
1DA
330
1F
100
AcDbEntity
  8
0
  6
Continuous
 62
     7
370
    15
100
AcDbCircle
 10
4.2234499808
 20
7.1954848534
 30
0.0
 40
0.087500000000003
100
AcDbArc
 50
270.0
 51
360.0
  0
LINE
  5
1DB
330
1F
100
AcDbEntity
  8
0
  6
Continuous
 62
     7
370
    15
100
AcDbLine
 10
4.223450002
 20
7.1079848448
 30
0.0
 11
4.223450002
 21
6.9204848975
 31
0.0
  0
ARC
  5
1DC
330
1F
100
AcDbEntity
  8
0
  6
Continuous
 62
     7
370
    15
100
AcDbCircle
 10
10.4484499808
 20
7.1704848534
 30
0.0
 40
0.0625000000000009
100
AcDbArc
 50
270.0
 51
0.0
  0
LINE
  5
1DD
330
1F
100
AcDbEntity
  8
0
  6
Continuous
 62
     7
370
    15
100
AcDbLine
 10
10.4484499836
 20
7.1079848448
 30
0.0
 11
10.4484499836
 21
6.9204848975
 31
0.0
  0
ARC
  5
1DE
330
1F
100
AcDbEntity
  8
0
  6
Continuous
 62
     7
370
    15
100
AcDbCircle
 10
6.6984499808
 20
7.1954848534
 30
0.0
 40
0.0875000000000021
100
AcDbArc
 50
180.0
 51
270.0
  0
LINE
  5
1DF
330
1F
100
AcDbEntity
  8
0
  6
Continuous
 62
     7
370
    15
100
AcDbLine
 10
6.6984501572
 20
7.1079848448
 30
0.0
 11
6.6984501572
 21
6.9204848975
 31
0.0
  0
ARC
  5
1E0
330
1F
100
AcDbEntity
  8
0
  6
Continuous
 62
     7
370
    15
100
AcDbCircle
 10
3.3484499808
 20
7.1954848534
 30
0.0
 40
0.087500000000003
100
AcDbArc
 50
180.0
 51
270.0
  0
LINE
  5
1E1
330
1F
100
AcDbEntity
  8
0
  6
Continuous
 62
     7
370
    15
100
AcDbLine
 10
3.3484497101
 20
7.1079848448
 30
0.0
 11
3.3484497101
 21
6.9204848975
 31
0.0
  0
ARC
  5
1E2
330
1F
100
AcDbEntity
  8
0
  6
Continuous
 62
     7
370
    15
100
AcDbCircle
 10
2.5484499808
 20
7.1954848534
 30
0.0
 40
0.087500000000003
100
AcDbArc
 50
270.0
 51
360.0
  0
LINE
  5
1E3
330
1F
100
AcDbEntity
  8
0
  6
Continuous
 62
     7
370
    15
100
AcDbLine
 10
2.5484497784
 20
7.1079848448
 30
0.0
 11
2.5484497784
 21
6.9204848975
 31
0.0
  0
ARC
  5
1E4
330
1F
100
AcDbEntity
  8
0
  6
Continuous
 62
     7
370
    15
100
AcDbCircle
 10
5.0234499808
 20
7.1954848534
 30
0.0
 40
0.0875000000000021
100
AcDbArc
 50
180.0
 51
270.0
  0
LINE
  5
1E5
330
1F
100
AcDbEntity
  8
0
  6
Continuous
 62
     7
370
    15
100
AcDbLine
 10
5.0234499337
 20
7.1079848448
 30
0.0
 11
5.0234499337
 21
6.9204848975
 31
0.0
  0
ARC
  5
1E6
330
1F
100
AcDbEntity
  8
0
  6
Continuous
 62
     7
370
    15
100
AcDbCircle
 10
7.7146237499
 20
7.2454848534
 30
0.0
 40
0.1375000000000002
100
AcDbArc
 50
218.4047041147
 51
270.0
  0
LINE
  5
1E7
330
1F
100
AcDbEntity
  8
0
  6
Continuous
 62
     7
370
    15
100
AcDbLine
 10
7.7146236983
 20
7.1079848448
 30
0.0
 11
7.7146236983
 21
6.9204848975
 31
0.0
  0
ARC
  5
1E8
330
1F
100
AcDbEntity
  8
0
  6
Continuous
 62
     7
370
    15
100
AcDbCircle
 10
5.8746237499
 20
7.2454848534
 30
0.0
 40
0.1375000000000002
100
AcDbArc
 50
218.4047041147
 51
270.0
  0
LINE
  5
1E9
330
1F
100
AcDbEntity
  8
0
  6
Continuous
 62
     7
370
    15
100
AcDbLine
 10
5.8746236208
 20
7.1079848448
 30
0.0
 11
5.8746236208
 21
6.9204848975
 31
0.0
  0
ARC
  5
1EA
330
1F
100
AcDbEntity
  8
0
  6
Continuous
 62
     7
370
    15
100
AcDbCircle
 10
5.2622762116
 20
7.2454848534
 30
0.0
 40
0.1375000000000002
100
AcDbArc
 50
270.0
 51
321.5952958853
  0
LINE
  5
1EB
330
1F
100
AcDbEntity
  8
0
  6
Continuous
 62
     7
370
    15
100
AcDbLine
 10
5.2622762414
 20
7.1079848448
 30
0.0
 11
5.2622762414
 21
6.9204848975
 31
0.0
  0
ARC
  5
1EC
330
1F
100
AcDbEntity
  8
0
  6
Continuous
 62
     7
370
    15
100
AcDbCircle
 10
7.1022762116
 20
7.2454848534
 30
0.0
 40
0.1375000000000002
100
AcDbArc
 50
270.0
 51
321.5952958853
  0
LINE
  5
1ED
330
1F
100
AcDbEntity
  8
0
  6
Continuous
 62
     7
370
    15
100
AcDbLine
 10
7.1022763189
 20
7.1079848448
 30
0.0
 11
7.1022763189
 21
6.9204848975
 31
0.0
  0
ARC
  5
1EE
330
1F
100
AcDbEntity
  8
0
  6
Continuous
 62
     7
370
    15
100
AcDbCircle
 10
4.0346237499
 20
7.2454848534
 30
0.0
 40
0.1375000000000002
100
AcDbArc
 50
218.4047041147
 51
270.0
  0
LINE
  5
1EF
330
1F
100
AcDbEntity
  8
0
  6
Continuous
 62
     7
370
    15
100
AcDbLine
 10
4.0346235433
 20
7.1079848448
 30
0.0
 11
4.0346235433
 21
6.9204848975
 31
0.0
  0
ARC
  5
1F0
330
1F
100
AcDbEntity
  8
0
  6
Continuous
 62
     7
370
    15
100
AcDbCircle
 10
8.9422762116
 20
7.2454848534
 30
0.0
 40
0.1375000000000002
100
AcDbArc
 50
270.0
 51
321.5952958853
  0
LINE
  5
1F1
330
1F
100
AcDbEntity
  8
0
  6
Continuous
 62
     7
370
    15
100
AcDbLine
 10
8.942276103
 20
7.1079848448
 30
0.0
 11
8.942276103
 21
6.9204848975
 31
0.0
  0
ARC
  5
1F2
330
1F
100
AcDbEntity
  8
0
  6
Continuous
 62
     7
370
    15
100
AcDbCircle
 10
3.4222762116
 20
7.2454848534
 30
0.0
 40
0.1375000000000002
100
AcDbArc
 50
270.0
 51
321.5952958853
  0
LINE
  5
1F3
330
1F
100
AcDbEntity
  8
0
  6
Continuous
 62
     7
370
    15
100
AcDbLine
 10
3.4222761639
 20
7.1079848448
 30
0.0
 11
3.4222761639
 21
6.9204848975
 31
0.0
  0
ARC
  5
1F4
330
1F
100
AcDbEntity
  8
0
  6
Continuous
 62
     7
370
    15
100
AcDbCircle
 10
9.5546237499
 20
7.2454848534
 30
0.0
 40
0.1375000000000002
100
AcDbArc
 50
218.4047041147
 51
270.0
  0
LINE
  5
1F5
330
1F
100
AcDbEntity
  8
0
  6
Continuous
 62
     7
370
    15
100
AcDbLine
 10
9.5546237758
 20
7.1079848448
 30
0.0
 11
9.5546237758
 21
6.9204848975
 31
0.0
  0
LINE
  5
1F6
330
1F
100
AcDbEntity
  8
0
  6
Continuous
 62
     7
370
    15
100
AcDbLine
 10
3.3484497101
 20
7.1079848448
 30
0.0
 11
3.4222761639
 21
7.1079848448
 31
0.0
  0
LINE
  5
1F7
330
1F
100
AcDbEntity
  8
0
  6
Continuous
 62
     7
370
    15
100
AcDbLine
 10
7.7146236983
 20
7.1079848448
 30
0.0
 11
8.942276103
 21
7.1079848448
 31
0.0
  0
LINE
  5
1F8
330
1F
100
AcDbEntity
  8
0
  6
Continuous
 62
     7
370
    15
100
AcDbLine
 10
4.0346235433
 20
7.1079848448
 30
0.0
 11
4.223450002
 21
7.1079848448
 31
0.0
  0
LINE
  5
1F9
330
1F
100
AcDbEntity
  8
0
  6
Continuous
 62
     7
370
    15
100
AcDbLine
 10
6.6984501572
 20
7.1079848448
 30
0.0
 11
7.1022763189
 21
7.1079848448
 31
0.0
  0
LINE
  5
1FA
330
1F
100
AcDbEntity
  8
0
  6
Continuous
 62
     7
370
    15
100
AcDbLine
 10
5.8746236208
 20
7.1079848448
 30
0.0
 11
5.8984502256
 21
7.1079848448
 31
0.0
  0
LINE
  5
1FB
330
1F
100
AcDbEntity
  8
0
  6
Continuous
 62
     7
370
    15
100
AcDbLine
 10
5.0234499337
 20
7.1079848448
 30
0.0
 11
5.2622762414
 21
7.1079848448
 31
0.0
  0
LINE
  5
1FC
330
1F
100
AcDbEntity
  8
0
  6
Continuous
 62
     7
370
    15
100
AcDbLine
 10
9.5546237758
 20
7.1079848448
 30
0.0
 11
10.4484499836
 21
7.1079848448
 31
0.0
  0
LINE
  5
1FD
330
1F
100
AcDbEntity
  8
0
  6
Continuous
 62
     7
370
    15
100
AcDbLine
 10
2.5319300226
 20
7.1079848448
 30
0.0
 11
2.5484497784
 21
7.1079848448
 31
0.0
  0
ARC
  5
1FE
330
1F
100
AcDbEntity
  8
0
  6
Continuous
 62
     7
370
    15
100
AcDbCircle
 10
5.1484499808
 20
7.6704848534
 30
0.0
 40
0.25
100
AcDbArc
 50
270.0
 51
0.0
  0
LINE
  5
1FF
330
1F
100
AcDbEntity
  8
0
  6
Continuous
 62
     7
370
    15
100
AcDbLine
 10
5.398449975
 20
7.6704848335
 30
0.0
 11
5.398449975
 21
8.9204848733
 31
0.0
  0
ARC
  5
200
330
1F
100
AcDbEntity
  8
0
  6
Continuous
 62
     7
370
    15
100
AcDbCircle
 10
5.1484499808
 20
8.9204848534
 30
0.0
 40
0.25
100
AcDbArc
 50
0.0
 51
90.0
  0
ARC
  5
201
330
1F
100
AcDbEntity
  8
0
  6
Continuous
 62
     7
370
    15
100
AcDbCircle
 10
6.6484499808
 20
8.9204848534
 30
0.0
 40
0.25
100
AcDbArc
 50
90.0
 51
180.0
  0
LINE
  5
202
330
1F
100
AcDbEntity
  8
0
  6
Continuous
 62
     7
370
    15
100
AcDbLine
 10
6.3984498895
 20
8.9204848733
 30
0.0
 11
6.3984498895
 21
7.6704848335
 31
0.0
  0
ARC
  5
203
330
1F
100
AcDbEntity
  8
0
  6
Continuous
 62
     7
370
    15
100
AcDbCircle
 10
6.6484499808
 20
7.6704848534
 30
0.0
 40
0.2500000000000009
100
AcDbArc
 50
180.0
 51
270.0
  0
LINE
  5
204
330
1F
100
AcDbEntity
  8
0
  6
Continuous
 62
     7
370
    15
100
AcDbLine
 10
4.8403170092
 20
7.4204848548
 30
0.0
 11
5.148450143
 21
7.4204848548
 31
0.0
  0
LINE
  5
205
330
1F
100
AcDbEntity
  8
0
  6
Continuous
 62
     7
370
    15
100
AcDbLine
 10
5.148450143
 20
9.170484852
 30
0.0
 11
4.8403170092
 21
9.170484852
 31
0.0
  0
LINE
  5
206
330
1F
100
AcDbEntity
  8
0
  6
Continuous
 62
     7
370
    15
100
AcDbLine
 10
6.6484497215
 20
7.4204848548
 30
0.0
 11
10.5109499416
 21
7.4204848548
 31
0.0
  0
LINE
  5
207
330
1F
100
AcDbEntity
  8
0
  6
Continuous
 62
     7
370
    15
100
AcDbLine
 10
10.5109499416
 20
9.170484852
 30
0.0
 11
6.6484497215
 21
9.170484852
 31
0.0
  0
ARC
  5
208
330
1F
100
AcDbEntity
  8
0
  6
Continuous
 62
     7
370
    15
100
AcDbCircle
 10
3.1984499808
 20
8.9204848534
 30
0.0
 40
0.2500000000000005
100
AcDbArc
 50
90.0
 51
98.2435877831
  0
LINE
  5
209
330
1F
100
AcDbEntity
  8
0
  6
Continuous
 62
     7
370
    15
100
AcDbLine
 10
4.4065829264
 20
9.170484852
 30
0.0
 11
3.1984501629
 21
9.170484852
 31
0.0
  0
LINE
  5
20A
330
1F
100
AcDbEntity
  8
0
  6
Continuous
 62
     7
370
    15
100
AcDbLine
 10
2.9484497442
 20
8.9204848733
 30
0.0
 11
2.9484497442
 21
7.6704848335
 31
0.0
  0
ARC
  5
20B
330
1F
100
AcDbEntity
  8
0
  6
Continuous
 62
     7
370
    15
100
AcDbCircle
 10
3.1984499808
 20
7.6704848534
 30
0.0
 40
0.2500000000000023
100
AcDbArc
 50
180.0
 51
222.726506581
  0
ARC
  5
20C
330
1F
100
AcDbEntity
  8
0
  6
Continuous
 62
     7
370
    15
100
AcDbCircle
 10
3.1984499808
 20
8.9204848534
 30
0.0
 40
0.2500000000000023
100
AcDbArc
 50
137.273493419
 51
180.0
  0
ARC
  5
20D
330
1F
100
AcDbEntity
  8
0
  6
Continuous
 62
     7
370
    15
100
AcDbCircle
 10
3.1984499808
 20
7.6704848534
 30
0.0
 40
0.2500000000000005
100
AcDbArc
 50
261.7564122169
 51
270.0
  0
LINE
  5
20E
330
1F
100
AcDbEntity
  8
0
  6
Continuous
 62
     7
370
    15
100
AcDbLine
 10
3.1984501629
 20
7.4204848548
 30
0.0
 11
4.4065829264
 21
7.4204848548
 31
0.0
  0
CIRCLE
  5
20F
330
1F
100
AcDbEntity
  8
0
  6
HIDDEN
 62
     7
370
     0
100
AcDbCircle
 10
10.9234499808
 20
7.1704848534
 30
0.0
 40
0.1250000248978491
  0
CIRCLE
  5
210
330
1F
100
AcDbEntity
  8
0
  6
HIDDEN
 62
     7
370
     0
100
AcDbCircle
 10
10.9234499808
 20
9.4204848534
 30
0.0
 40
0.1250000248978491
  0
CIRCLE
  5
211
330
1F
100
AcDbEntity
  8
0
  6
HIDDEN
 62
     7
370
     0
100
AcDbCircle
 10
0.9897885635
 20
8.2954848534
 30
0.0
 40
0.0494997689104459
  0
CIRCLE
  5
212
330
1F
100
AcDbEntity
  8
0
  6
HIDDEN
 62
     7
370
     0
100
AcDbCircle
 10
2.0527806894
 20
7.6817660633
 30
0.0
 40
0.049499921279847
  0
CIRCLE
  5
213
330
1F
100
AcDbEntity
  8
0
  6
HIDDEN
 62
     7
370
     0
100
AcDbCircle
 10
2.0527806894
 20
8.9092036435
 30
0.0
 40
0.0494999212798461
  0
ENDSEC
  0
SECTION
  2
OBJECTS
  0
DICTIONARY
  5
C
330
0
100
AcDbDictionary
281
     1
  3
ACAD_GROUP
350
D
  3
ACAD_LAYOUT
350
1A
  3
ACAD_MLINESTYLE
350
17
  3
ACAD_PLOTSETTINGS
350
19
  3
ACAD_PLOTSTYLENAME
350
E
  0
DICTIONARY
  5
D
102
{ACAD_REACTORS
330
C
102
}
330
C
100
AcDbDictionary
281
     1
  0
DICTIONARY
  5
1A
102
{ACAD_REACTORS
330
C
102
}
330
C
100
AcDbDictionary
281
     1
  3
Layout1
350
1E
  3
Layout2
350
26
  3
Model
350
22
  0
DICTIONARY
  5
17
102
{ACAD_REACTORS
330
C
102
}
330
C
100
AcDbDictionary
281
     1
  3
Standard
350
18
  0
DICTIONARY
  5
19
102
{ACAD_REACTORS
330
C
102
}
330
C
100
AcDbDictionary
281
     1
  0
ACDBDICTIONARYWDFLT
  5
E
102
{ACAD_REACTORS
330
C
102
}
330
C
100
AcDbDictionary
281
     1
  3
Normal
350
F
100
AcDbDictionaryWithDefault
340
F
  0
LAYOUT
  5
1E
102
{ACAD_REACTORS
330
1A
102
}
330
1A
100
AcDbPlotSettings
  1

  2
none_device
  4

  6

 40
0.0
 41
0.0
 42
0.0
 43
0.0
 44
0.0
 45
0.0
 46
0.0
 47
0.0
 48
0.0
 49
0.0
140
0.0
141
0.0
142
1.0
143
1.0
 70
   688
 72
     0
 73
     0
 74
     5
  7

 75
    16
147
1.0
148
0.0
149
0.0
100
AcDbLayout
  1
Layout1
 70
     1
 71
     1
 10
0.0
 20
0.0
 11
12.0
 21
9.0
 12
0.0
 22
0.0
 32
0.0
 14
1.0000000000E+20
 24
1.0000000000E+20
 34
1.0000000000E+20
 15
-1.0000000000E+20
 25
-1.0000000000E+20
 35
-1.0000000000E+20
146
0.0
 13
0.0
 23
0.0
 33
0.0
 16
1.0
 26
0.0
 36
0.0
 17
0.0
 27
1.0
 37
0.0
 76
     0
330
1B
  0
LAYOUT
  5
26
102
{ACAD_REACTORS
330
1A
102
}
330
1A
100
AcDbPlotSettings
  1

  2
none_device
  4

  6

 40
0.0
 41
0.0
 42
0.0
 43
0.0
 44
0.0
 45
0.0
 46
0.0
 47
0.0
 48
0.0
 49
0.0
140
0.0
141
0.0
142
1.0
143
1.0
 70
   688
 72
     0
 73
     0
 74
     5
  7

 75
    16
147
1.0
148
0.0
149
0.0
100
AcDbLayout
  1
Layout2
 70
     1
 71
     2
 10
0.0
 20
0.0
 11
0.0
 21
0.0
 12
0.0
 22
0.0
 32
0.0
 14
0.0
 24
0.0
 34
0.0
 15
0.0
 25
0.0
 35
0.0
146
0.0
 13
0.0
 23
0.0
 33
0.0
 16
1.0
 26
0.0
 36
0.0
 17
0.0
 27
1.0
 37
0.0
 76
     0
330
23
  0
LAYOUT
  5
22
102
{ACAD_REACTORS
330
1A
102
}
330
1A
100
AcDbPlotSettings
  1

  2
none_device
  4

  6

 40
0.0
 41
0.0
 42
0.0
 43
0.0
 44
0.0
 45
0.0
 46
0.0
 47
0.0
 48
0.0
 49
0.0
140
0.0
141
0.0
142
1.0
143
1.0
 70
  1712
 72
     0
 73
     0
 74
     0
  7

 75
     0
147
1.0
148
0.0
149
0.0
100
AcDbLayout
  1
Model
 70
     1
 71
     0
 10
0.0
 20
0.0
 11
14.0
 21
10.0
 12
0.0
 22
0.0
 32
0.0
 14
0.0
 24
0.0
 34
0.0
 15
14.0
 25
10.0
 35
0.0
146
0.0
 13
0.0
 23
0.0
 33
0.0
 16
1.0
 26
0.0
 36
0.0
 17
0.0
 27
1.0
 37
0.0
 76
     0
330
1F
331
29
  0
MLINESTYLE
  5
18
102
{ACAD_REACTORS
330
17
102
}
330
17
100
AcDbMlineStyle
  2
Standard
 70
     0
  3

 62
   256
 51
90.0
 52
90.0
 71
     2
 49
0.5
 62
   256
  6
BYLAYER
 49
-0.5
 62
   256
  6
BYLAYER
  0
ACDBPLACEHOLDER
  5
F
102
{ACAD_REACTORS
330
E
102
}
330
E
  0
ENDSEC
  0
EOF
