%
M48
M72
T01C0.0236
T02C0.0276
T03C0.0315
T04C0.0320
T05C0.0354
T06C0.0400
T07C0.0433
T08C0.0472
T09C0.0500
T10C0.0630
T11C0.0680
T12C0.0730
T13C0.1260
T14C0.1550
T15C0.2362
%
T01
X9741Y7796
X2931Y9126
X4458Y10899
X9831Y10826
X8831Y13326
X9811Y13526
X8031Y13826
X11331Y16026
X2831Y17626
X21931Y13766
X22601Y15676
X45431Y4107
X45431Y3319
X45431Y2532
X45431Y1745
X60371Y5986
T02
X13631Y18326
X12631Y18326
X8531Y18326
X8531Y17326
X4131Y15426
X4131Y14426
X4731Y13126
X5231Y11526
X6231Y11526
X2931Y10126
X1931Y10626
X1931Y11626
X9631Y10026
X9631Y9026
X5731Y7826
X4731Y7826
T03
X44731Y17145
X44731Y17932
X44731Y18719
X44731Y19507
X56737Y14726
X57525Y14726
X61737Y14726
X62525Y14726
X66737Y14726
X67525Y14726
X64525Y4726
X63737Y4726
T04
X63131Y9726
X65131Y9726
X69131Y9726
X63131Y11726
X59131Y11726
X58131Y11726
X54131Y11726
X54131Y9726
X58131Y9726
X59131Y9726
X66631Y16726
X67631Y16726
T05
X44833Y11078
X6231Y16626
X3431Y16626
T06
X2031Y5656
X2031Y6796
X6731Y7826
X17931Y7526
X1931Y14056
X1931Y15196
X42231Y14626
X42231Y13626
X42231Y12626
X42231Y11626
X42231Y9326
X42231Y8326
X42231Y7326
X42231Y6326
X42331Y4426
X42331Y3426
X42331Y2426
X42331Y1426
X56641Y16726
X57641Y16726
X61681Y16726
X62681Y16726
X46731Y21426
X45731Y21426
X44331Y21426
X43331Y21426
X42331Y21426
X42231Y19926
X42231Y18926
X42231Y17926
X42231Y16926
T07
X58194Y15316
X63194Y15316
X68194Y15316
X26171Y17926
X24831Y17926
X23491Y17926
X24161Y16426
X25501Y16426
T08
X45577Y16554
X45577Y20097
X63147Y3899
X65115Y3899
T09
X32631Y4376
X14331Y8975
X14331Y13876
X16182Y19926
X11280Y19926
X32631Y14676
T10
X27931Y17476
X26131Y22799
X16431Y22799
X58131Y3926
X58131Y2126
X28701Y2749
X19001Y2749
T11
X44892Y15173
T12
X9529Y19926
X7364Y19926
T13
X4461Y19926
T14
X24831Y9056
T15
X51131Y4726
X51131Y21726
M30
