G75*
G70*
%OFA0B0*%
%FSLAX24Y24*%
%IPPOS*%
%LPD*%
%AMOC8*
5,1,8,0,0,1.08239X$1,22.5*
%
%ADD10C,0.0050*%
%ADD11R,0.0170X0.0500*%
%ADD12R,0.0709X0.0630*%
%ADD13R,0.0630X0.0709*%
%ADD14C,0.0740*%
%ADD15C,0.0650*%
%ADD16R,0.0433X0.0433*%
%ADD17C,0.0750*%
%ADD18C,0.0594*%
%ADD19R,0.4500X0.3799*%
%ADD20R,0.0820X0.1500*%
%ADD21R,0.3799X0.4500*%
%ADD22R,0.1500X0.0820*%
%ADD23R,0.0673X0.0673*%
%ADD24C,0.1950*%
%ADD25R,0.4150X0.5000*%
%ADD26R,0.0750X0.0750*%
%ADD27R,0.1323X0.1972*%
%ADD28R,0.1323X0.0551*%
%ADD29R,0.0591X0.1535*%
%ADD30C,0.1095*%
%ADD31C,0.1660*%
%ADD32R,0.0256X0.0394*%
%ADD33R,0.0315X0.0335*%
%ADD34R,0.0555X0.0555*%
%ADD35C,0.0712*%
%ADD36R,0.1102X0.0433*%
%ADD37R,0.1535X0.0748*%
%ADD38C,0.1020*%
%ADD39R,0.1457X0.0591*%
%ADD40R,0.1457X0.0433*%
%ADD41C,0.0476*%
%ADD42R,0.0740X0.0740*%
%ADD43C,0.0555*%
%ADD44C,0.0673*%
%ADD45OC8,0.0560*%
%ADD46R,0.0945X0.1102*%
%ADD47R,0.0945X0.0900*%
%ADD48C,0.0945*%
%ADD49C,0.0160*%
%ADD50C,0.0436*%
%ADD51C,0.1000*%
%ADD52C,0.0180*%
%ADD53C,0.0080*%
%ADD54C,0.0476*%
%ADD55C,0.1540*%
%ADD56C,0.0400*%
%ADD57C,0.0820*%
%ADD58C,0.0010*%
%ADD59C,0.0500*%
%ADD60R,0.0436X0.0436*%
%ADD61C,0.2762*%
D10*
X000131Y000726D02*
X000131Y025726D01*
X070131Y025726D01*
X070131Y000726D01*
X000131Y000726D01*
X021631Y002749D02*
X021631Y002752D01*
X026031Y002749D02*
X026031Y002752D01*
X026031Y002749D02*
X026101Y002749D01*
X024351Y013776D02*
X024264Y013783D01*
X024180Y013806D01*
X024101Y013843D01*
X024030Y013893D01*
X023968Y013954D01*
X023918Y014026D01*
X023881Y014105D01*
X023859Y014189D01*
X023851Y014276D01*
X023851Y016746D01*
X024491Y016746D01*
X024491Y016316D01*
X024499Y016229D01*
X024521Y016145D01*
X024558Y016066D01*
X024608Y015994D01*
X024670Y015933D01*
X024741Y015883D01*
X024820Y015846D01*
X024904Y015823D01*
X024991Y015816D01*
X032001Y015816D01*
X032050Y015811D01*
X032097Y015797D01*
X032140Y015774D01*
X032178Y015742D01*
X032209Y015705D01*
X032232Y015661D01*
X032246Y015614D01*
X032251Y015566D01*
X032251Y015306D01*
X032256Y015257D01*
X032270Y015210D01*
X032293Y015167D01*
X032324Y015129D01*
X032362Y015098D01*
X032405Y015075D01*
X032452Y015060D01*
X032501Y015056D01*
X033011Y015056D01*
X033011Y014296D01*
X032481Y014296D01*
X032436Y014291D01*
X032393Y014278D01*
X032353Y014257D01*
X032318Y014228D01*
X032290Y014193D01*
X032269Y014154D01*
X032255Y014111D01*
X032251Y014066D01*
X032247Y014010D01*
X032231Y013956D01*
X032206Y013906D01*
X032171Y013863D01*
X032129Y013826D01*
X032080Y013799D01*
X032027Y013782D01*
X031971Y013776D01*
X024351Y013776D01*
X024262Y013784D02*
X032032Y013784D01*
X032135Y013832D02*
X024123Y013832D01*
X024046Y013881D02*
X032186Y013881D01*
X032218Y013929D02*
X023993Y013929D01*
X023951Y013978D02*
X032237Y013978D01*
X032248Y014027D02*
X023918Y014027D01*
X023895Y014075D02*
X032252Y014075D01*
X032259Y014124D02*
X023876Y014124D01*
X023863Y014172D02*
X032278Y014172D01*
X032312Y014221D02*
X023856Y014221D01*
X023852Y014269D02*
X032376Y014269D01*
X033011Y014318D02*
X023851Y014318D01*
X023851Y014366D02*
X033011Y014366D01*
X033011Y014415D02*
X023851Y014415D01*
X023851Y014463D02*
X033011Y014463D01*
X033011Y014512D02*
X023851Y014512D01*
X023851Y014561D02*
X033011Y014561D01*
X033011Y014609D02*
X023851Y014609D01*
X023851Y014658D02*
X033011Y014658D01*
X033011Y014706D02*
X023851Y014706D01*
X023851Y014755D02*
X033011Y014755D01*
X033011Y014803D02*
X023851Y014803D01*
X023851Y014852D02*
X033011Y014852D01*
X033011Y014900D02*
X023851Y014900D01*
X023851Y014949D02*
X033011Y014949D01*
X033011Y014997D02*
X023851Y014997D01*
X023851Y015046D02*
X033011Y015046D01*
X032368Y015094D02*
X023851Y015094D01*
X023851Y015143D02*
X032313Y015143D01*
X032280Y015192D02*
X023851Y015192D01*
X023851Y015240D02*
X032261Y015240D01*
X032253Y015289D02*
X023851Y015289D01*
X023851Y015337D02*
X032251Y015337D01*
X032251Y015386D02*
X023851Y015386D01*
X023851Y015434D02*
X032251Y015434D01*
X032251Y015483D02*
X023851Y015483D01*
X023851Y015531D02*
X032251Y015531D01*
X032250Y015580D02*
X023851Y015580D01*
X023851Y015628D02*
X032242Y015628D01*
X032224Y015677D02*
X023851Y015677D01*
X023851Y015726D02*
X032192Y015726D01*
X032139Y015774D02*
X023851Y015774D01*
X023851Y015823D02*
X024911Y015823D01*
X024766Y015871D02*
X023851Y015871D01*
X023851Y015920D02*
X024688Y015920D01*
X024634Y015968D02*
X023851Y015968D01*
X023851Y016017D02*
X024592Y016017D01*
X024558Y016065D02*
X023851Y016065D01*
X023851Y016114D02*
X024536Y016114D01*
X024516Y016162D02*
X023851Y016162D01*
X023851Y016211D02*
X024503Y016211D01*
X024496Y016260D02*
X023851Y016260D01*
X023851Y016308D02*
X024492Y016308D01*
X024491Y016357D02*
X023851Y016357D01*
X023851Y016405D02*
X024491Y016405D01*
X024491Y016454D02*
X023851Y016454D01*
X023851Y016502D02*
X024491Y016502D01*
X024491Y016551D02*
X023851Y016551D01*
X023851Y016599D02*
X024491Y016599D01*
X024491Y016648D02*
X023851Y016648D01*
X023851Y016696D02*
X024491Y016696D01*
X024491Y016745D02*
X023851Y016745D01*
D11*
X010556Y014526D03*
X010306Y014526D03*
X010056Y014526D03*
X009806Y014526D03*
X009556Y014526D03*
X009306Y014526D03*
X009056Y014526D03*
X008806Y014526D03*
X008556Y014526D03*
X008306Y014526D03*
X008056Y014526D03*
X007806Y014526D03*
X007556Y014526D03*
X007306Y014526D03*
X007306Y012526D03*
X007556Y012526D03*
X007806Y012526D03*
X008056Y012526D03*
X008306Y012526D03*
X008556Y012526D03*
X008806Y012526D03*
X009056Y012526D03*
X009306Y012526D03*
X009556Y012526D03*
X009806Y012526D03*
X010056Y012526D03*
X010306Y012526D03*
X010556Y012526D03*
D12*
X010531Y010677D03*
X011331Y010677D03*
X012131Y010677D03*
X012131Y009574D03*
X011331Y009574D03*
X010531Y009574D03*
X005631Y013074D03*
X005631Y014177D03*
X021931Y014574D03*
X021931Y015677D03*
X021931Y012977D03*
X021931Y011874D03*
D13*
X015382Y016026D03*
X014280Y016026D03*
X013182Y016026D03*
X012080Y016026D03*
X006782Y017626D03*
X005680Y017626D03*
X004682Y017626D03*
X003580Y017626D03*
X014780Y018326D03*
X015882Y018326D03*
X003982Y011626D03*
X002880Y011626D03*
X004280Y010126D03*
X005382Y010126D03*
X005382Y009126D03*
X004280Y009126D03*
D14*
X006731Y007826D03*
X002031Y006796D03*
X002031Y005656D03*
X017931Y007526D03*
X001931Y014056D03*
X001931Y015196D03*
X042231Y014626D03*
X042231Y013626D03*
X042231Y012626D03*
X042231Y009326D03*
X042231Y008326D03*
X042231Y007326D03*
X042331Y004426D03*
X042331Y003426D03*
X042331Y002426D03*
X056641Y016726D03*
X057641Y016726D03*
X061681Y016726D03*
X062681Y016726D03*
X066631Y016726D03*
X067631Y016726D03*
X046731Y021426D03*
X045731Y021426D03*
X044331Y021426D03*
X043331Y021426D03*
X042331Y021426D03*
X042231Y018926D03*
X042231Y017926D03*
X042231Y016926D03*
D15*
X013631Y018326D03*
X012631Y018326D03*
X008531Y018326D03*
X008531Y017326D03*
X004131Y015426D03*
X004131Y014426D03*
X005231Y011526D03*
X006231Y011526D03*
X009631Y010026D03*
X009631Y009026D03*
X005731Y007826D03*
X004731Y007826D03*
X001931Y010626D03*
X001931Y011626D03*
D16*
X008131Y009660D03*
X008831Y009660D03*
X008831Y008991D03*
X008131Y008991D03*
X008131Y008460D03*
X008831Y008460D03*
X008831Y007791D03*
X008131Y007791D03*
D17*
X014331Y008975D03*
X014331Y013876D03*
X016182Y019926D03*
X011280Y019926D03*
D18*
X006231Y016626D03*
X003431Y016626D03*
X044833Y011078D03*
D19*
X018731Y014576D03*
D20*
X017731Y010076D03*
X019731Y010076D03*
D21*
X010481Y004926D03*
D22*
X014981Y005926D03*
X014981Y003926D03*
D23*
X024161Y016426D03*
X025501Y016426D03*
X024831Y017926D03*
X023491Y017926D03*
X026171Y017926D03*
D24*
X024831Y009056D03*
D25*
X024831Y009956D03*
D26*
X032631Y014676D03*
X032631Y004376D03*
D27*
X027931Y014826D03*
D28*
X027931Y016423D03*
D29*
X023531Y019452D03*
X019031Y019452D03*
X019031Y022799D03*
X023531Y022799D03*
X021631Y006099D03*
X026031Y006099D03*
X026031Y002752D03*
X021631Y002752D03*
D30*
X009529Y019926D03*
X007364Y019926D03*
D31*
X004461Y019926D03*
D32*
X042859Y022726D03*
X043331Y022726D03*
X043803Y022726D03*
X046095Y022726D03*
X046567Y022726D03*
D33*
X047020Y024212D03*
X045642Y024212D03*
X044256Y024212D03*
X042406Y024212D03*
D34*
X044731Y019507D03*
X044731Y018719D03*
X044731Y017932D03*
X044731Y017145D03*
D35*
X045577Y016554D03*
X045577Y020097D03*
X063147Y003899D03*
X065115Y003899D03*
D36*
X044282Y011945D03*
X044282Y012732D03*
X044282Y013519D03*
X044282Y014307D03*
D37*
X046113Y015232D03*
X046113Y011019D03*
D38*
X044892Y015173D03*
D39*
X047203Y009832D03*
X047203Y005619D03*
D40*
X045037Y006545D03*
X045037Y007332D03*
X045037Y008119D03*
X045037Y008907D03*
D41*
X045431Y004107D03*
X045431Y003319D03*
X045431Y002532D03*
X045431Y001745D03*
D42*
X042331Y001426D03*
X042231Y006326D03*
X042231Y011626D03*
X042231Y019926D03*
D43*
X056737Y014726D03*
X057525Y014726D03*
X061737Y014726D03*
X062525Y014726D03*
X066737Y014726D03*
X067525Y014726D03*
X064525Y004726D03*
X063737Y004726D03*
D44*
X063194Y015316D03*
X058194Y015316D03*
X068194Y015316D03*
D45*
X063131Y011726D03*
X059131Y011726D03*
X058131Y011726D03*
X054131Y011726D03*
X054131Y009726D03*
X058131Y009726D03*
X059131Y009726D03*
X063131Y009726D03*
X065131Y009726D03*
X069131Y009726D03*
D46*
X055887Y004527D03*
X055887Y002126D03*
D47*
X060375Y002126D03*
X060375Y004527D03*
D48*
X058131Y003926D03*
X058131Y002126D03*
X028701Y002749D03*
X019001Y002749D03*
X027931Y017476D03*
X026131Y022799D03*
X016431Y022799D03*
D49*
X016217Y020316D02*
X016146Y020316D01*
X016076Y020302D01*
X016010Y020275D01*
X015951Y020236D01*
X015901Y020186D01*
X015860Y020135D01*
X015828Y020078D01*
X015807Y020016D01*
X015797Y019951D01*
X015798Y019886D01*
X015811Y019822D01*
X015834Y019761D01*
X015868Y019705D01*
X015911Y019656D01*
X016725Y018842D01*
X016784Y018791D01*
X016851Y018750D01*
X016924Y018720D01*
X017000Y018702D01*
X017078Y018696D01*
X022701Y018696D01*
X022786Y018688D01*
X022869Y018666D01*
X022946Y018630D01*
X023016Y018581D01*
X023076Y018521D01*
X023125Y018451D01*
X023161Y018373D01*
X023184Y018291D01*
X023191Y018206D01*
X023191Y017626D01*
X023801Y017626D01*
X023801Y020216D01*
X016500Y020216D01*
X016411Y020236D01*
X016352Y020275D01*
X016286Y020302D01*
X016217Y020316D01*
X016452Y020226D02*
X015942Y020226D01*
X015825Y020068D02*
X023801Y020068D01*
X023801Y019909D02*
X015798Y019909D01*
X015840Y019751D02*
X023801Y019751D01*
X023801Y019592D02*
X015974Y019592D01*
X016133Y019434D02*
X023801Y019434D01*
X023801Y019275D02*
X016291Y019275D01*
X016450Y019117D02*
X023801Y019117D01*
X023801Y018958D02*
X016609Y018958D01*
X016774Y018800D02*
X023801Y018800D01*
X023801Y018641D02*
X022922Y018641D01*
X023103Y018483D02*
X023801Y018483D01*
X023801Y018324D02*
X023175Y018324D01*
X023191Y018165D02*
X023801Y018165D01*
X023801Y018007D02*
X023191Y018007D01*
X023191Y017848D02*
X023801Y017848D01*
X023801Y017690D02*
X023191Y017690D01*
X021186Y016336D02*
X021210Y016289D01*
X021226Y016238D01*
X021231Y016186D01*
X021231Y010376D01*
X021236Y010327D01*
X021250Y010280D01*
X021273Y010237D01*
X021304Y010199D01*
X021342Y010168D01*
X021385Y010145D01*
X021432Y010130D01*
X021481Y010126D01*
X021931Y010126D01*
X022018Y010118D01*
X022102Y010096D01*
X022181Y010059D01*
X022252Y010009D01*
X022314Y009947D01*
X022364Y009876D01*
X022401Y009797D01*
X022423Y009712D01*
X022431Y009626D01*
X022431Y007026D01*
X022436Y006983D01*
X022450Y006943D01*
X022472Y006907D01*
X022503Y006877D01*
X022539Y006854D01*
X022579Y006840D01*
X022621Y006836D01*
X032511Y006836D01*
X032598Y006828D01*
X032682Y006806D01*
X032761Y006769D01*
X032832Y006719D01*
X032894Y006657D01*
X032944Y006586D01*
X032981Y006507D01*
X033003Y006422D01*
X033011Y006336D01*
X033011Y003996D01*
X031451Y003996D01*
X031364Y004003D01*
X031280Y004026D01*
X031201Y004063D01*
X031130Y004113D01*
X031068Y004174D01*
X031018Y004246D01*
X030981Y004325D01*
X030959Y004409D01*
X030951Y004496D01*
X030951Y004856D01*
X030943Y004942D01*
X030921Y005027D01*
X030884Y005106D01*
X030834Y005177D01*
X030772Y005239D01*
X030701Y005289D01*
X030622Y005326D01*
X030538Y005348D01*
X030451Y005356D01*
X021031Y005356D01*
X020944Y005363D01*
X020860Y005386D01*
X020781Y005423D01*
X020710Y005473D01*
X020648Y005534D01*
X020598Y005606D01*
X020561Y005685D01*
X020539Y005769D01*
X020531Y005856D01*
X020531Y012206D01*
X020523Y012292D01*
X020501Y012377D01*
X020464Y012456D01*
X020414Y012527D01*
X020352Y012589D01*
X020281Y012639D01*
X020202Y012676D01*
X020118Y012698D01*
X020031Y012706D01*
X016511Y012706D01*
X016511Y016456D01*
X020961Y016456D01*
X021014Y016450D01*
X021064Y016435D01*
X021111Y016410D01*
X021152Y016377D01*
X021186Y016336D01*
X021218Y016263D02*
X016511Y016263D01*
X016511Y016421D02*
X021090Y016421D01*
X021231Y016104D02*
X016511Y016104D01*
X016571Y016056D02*
X016571Y016626D01*
X016131Y016476D02*
X016131Y010576D01*
X016133Y010532D01*
X016139Y010489D01*
X016148Y010447D01*
X016161Y010405D01*
X016178Y010365D01*
X016198Y010326D01*
X016221Y010289D01*
X016248Y010255D01*
X016277Y010222D01*
X016310Y010193D01*
X016344Y010166D01*
X016381Y010143D01*
X016420Y010123D01*
X016460Y010106D01*
X016502Y010093D01*
X016544Y010084D01*
X016587Y010078D01*
X016631Y010076D01*
X017731Y010076D01*
X020531Y010080D02*
X022136Y010080D01*
X022332Y009921D02*
X020531Y009921D01*
X020531Y009763D02*
X022410Y009763D01*
X022431Y009604D02*
X020531Y009604D01*
X020531Y009446D02*
X022431Y009446D01*
X022431Y009287D02*
X020531Y009287D01*
X020531Y009128D02*
X022431Y009128D01*
X022431Y008970D02*
X020531Y008970D01*
X020531Y008811D02*
X022431Y008811D01*
X022431Y008653D02*
X020531Y008653D01*
X020531Y008494D02*
X022431Y008494D01*
X022431Y008336D02*
X020531Y008336D01*
X020531Y008177D02*
X022431Y008177D01*
X022431Y008019D02*
X020531Y008019D01*
X020531Y007860D02*
X022431Y007860D01*
X022431Y007702D02*
X020531Y007702D01*
X020531Y007543D02*
X022431Y007543D01*
X022431Y007384D02*
X020531Y007384D01*
X020531Y007226D02*
X022431Y007226D01*
X022431Y007067D02*
X020531Y007067D01*
X020531Y006909D02*
X022471Y006909D01*
X020531Y006750D02*
X032787Y006750D01*
X032940Y006592D02*
X020531Y006592D01*
X020531Y006433D02*
X033001Y006433D01*
X033011Y006275D02*
X020531Y006275D01*
X020531Y006116D02*
X033011Y006116D01*
X033011Y005958D02*
X020531Y005958D01*
X020536Y005799D02*
X033011Y005799D01*
X033011Y005641D02*
X020582Y005641D01*
X020700Y005482D02*
X033011Y005482D01*
X033011Y005323D02*
X030627Y005323D01*
X030843Y005165D02*
X033011Y005165D01*
X033011Y005006D02*
X030926Y005006D01*
X030951Y004848D02*
X033011Y004848D01*
X033011Y004689D02*
X030951Y004689D01*
X030951Y004531D02*
X033011Y004531D01*
X033011Y004372D02*
X030968Y004372D01*
X031040Y004214D02*
X033011Y004214D01*
X033011Y004055D02*
X031217Y004055D01*
X014981Y003926D02*
X013631Y003926D01*
X013587Y003928D01*
X013544Y003934D01*
X013502Y003943D01*
X013460Y003956D01*
X013420Y003973D01*
X013381Y003993D01*
X013344Y004016D01*
X013310Y004043D01*
X013277Y004072D01*
X013248Y004105D01*
X013221Y004139D01*
X013198Y004176D01*
X013178Y004215D01*
X013161Y004255D01*
X013148Y004297D01*
X013139Y004339D01*
X013133Y004382D01*
X013131Y004426D01*
X013131Y012026D01*
X013129Y012070D01*
X013123Y012113D01*
X013114Y012155D01*
X013101Y012197D01*
X013084Y012237D01*
X013064Y012276D01*
X013041Y012313D01*
X013014Y012347D01*
X012985Y012380D01*
X012952Y012409D01*
X012918Y012436D01*
X012881Y012459D01*
X012842Y012479D01*
X012802Y012496D01*
X012760Y012509D01*
X012718Y012518D01*
X012675Y012524D01*
X012631Y012526D01*
X010556Y012526D01*
X010306Y012526D02*
X010306Y012076D01*
X010056Y011876D02*
X010058Y011839D01*
X010064Y011803D01*
X010073Y011768D01*
X010086Y011734D01*
X010103Y011701D01*
X010123Y011670D01*
X010146Y011642D01*
X010172Y011616D01*
X010200Y011593D01*
X010231Y011573D01*
X010264Y011556D01*
X010298Y011543D01*
X010333Y011534D01*
X010369Y011528D01*
X010406Y011526D01*
X011731Y011526D01*
X011770Y011524D01*
X011809Y011518D01*
X011847Y011509D01*
X011884Y011496D01*
X011920Y011479D01*
X011953Y011459D01*
X011985Y011435D01*
X012014Y011409D01*
X012040Y011380D01*
X012064Y011348D01*
X012084Y011315D01*
X012101Y011279D01*
X012114Y011242D01*
X012123Y011204D01*
X012129Y011165D01*
X012131Y011126D01*
X012131Y010677D01*
X012131Y010326D01*
X012129Y010300D01*
X012124Y010274D01*
X012116Y010249D01*
X012104Y010226D01*
X012090Y010204D01*
X012072Y010185D01*
X012053Y010167D01*
X012031Y010153D01*
X012008Y010141D01*
X011983Y010133D01*
X011957Y010128D01*
X011931Y010126D01*
X011531Y010126D01*
X011505Y010124D01*
X011479Y010119D01*
X011454Y010111D01*
X011431Y010099D01*
X011409Y010085D01*
X011390Y010067D01*
X011372Y010048D01*
X011358Y010026D01*
X011346Y010003D01*
X011338Y009978D01*
X011333Y009952D01*
X011331Y009926D01*
X011331Y009574D01*
X012131Y009574D02*
X012131Y006156D01*
X012123Y006097D01*
X012111Y006039D01*
X012095Y005982D01*
X012075Y005926D01*
X012052Y005872D01*
X012025Y005819D01*
X011994Y005768D01*
X011961Y005719D01*
X011924Y005673D01*
X011884Y005628D01*
X011842Y005587D01*
X011797Y005549D01*
X011749Y005513D01*
X011700Y005481D01*
X011648Y005452D01*
X011595Y005426D01*
X011540Y005404D01*
X011483Y005386D01*
X011426Y005371D01*
X011367Y005360D01*
X011309Y005353D01*
X011249Y005350D01*
X011190Y005351D01*
X011131Y005356D01*
X007031Y006796D02*
X002031Y006796D01*
X005731Y007826D02*
X006490Y008584D01*
X006631Y008926D02*
X006631Y009819D01*
X006272Y010068D02*
X006244Y010036D01*
X006218Y010003D01*
X006196Y009968D01*
X006176Y009930D01*
X006160Y009891D01*
X006147Y009851D01*
X006138Y009810D01*
X006133Y009768D01*
X006131Y009726D01*
X006131Y009626D01*
X006272Y010067D02*
X007983Y011777D01*
X008410Y011404D02*
X008439Y011437D01*
X008466Y011471D01*
X008489Y011508D01*
X008509Y011547D01*
X008526Y011587D01*
X008539Y011629D01*
X008548Y011671D01*
X008554Y011714D01*
X008556Y011758D01*
X008556Y012526D01*
X008556Y012947D01*
X008629Y013124D02*
X008831Y013326D01*
X008629Y013124D02*
X008611Y013103D01*
X008594Y013080D01*
X008581Y013055D01*
X008570Y013030D01*
X008562Y013003D01*
X008558Y012975D01*
X008556Y012947D01*
X008306Y012526D02*
X008306Y011908D01*
X008056Y011954D02*
X008056Y012526D01*
X007806Y012526D02*
X007806Y012104D01*
X008056Y011954D02*
X008054Y011926D01*
X008050Y011898D01*
X008042Y011871D01*
X008031Y011846D01*
X008018Y011821D01*
X008001Y011798D01*
X007983Y011777D01*
X008160Y011554D02*
X008189Y011587D01*
X008216Y011621D01*
X008239Y011658D01*
X008259Y011697D01*
X008276Y011737D01*
X008289Y011779D01*
X008298Y011821D01*
X008304Y011864D01*
X008306Y011908D01*
X007733Y011927D02*
X006077Y010272D01*
X005724Y010126D02*
X005382Y010126D01*
X004280Y010126D02*
X002931Y010126D01*
X004458Y010899D02*
X004458Y011447D01*
X004385Y011623D02*
X003982Y011626D01*
X004385Y011624D02*
X004403Y011603D01*
X004420Y011580D01*
X004433Y011555D01*
X004444Y011530D01*
X004452Y011503D01*
X004456Y011475D01*
X004458Y011447D01*
X002880Y011626D02*
X001931Y011626D01*
X003588Y012399D02*
X001931Y014056D01*
X001931Y015196D02*
X002088Y015352D01*
X002265Y015426D02*
X004131Y015426D01*
X007056Y015426D01*
X007100Y015424D01*
X007143Y015418D01*
X007185Y015409D01*
X007227Y015396D01*
X007267Y015379D01*
X007306Y015359D01*
X007343Y015336D01*
X007377Y015309D01*
X007410Y015280D01*
X007439Y015247D01*
X007466Y015213D01*
X007489Y015176D01*
X007509Y015137D01*
X007526Y015097D01*
X007539Y015055D01*
X007548Y015013D01*
X007554Y014970D01*
X007556Y014926D01*
X007556Y014526D01*
X007306Y014526D02*
X006083Y014526D01*
X005907Y014452D02*
X005631Y014177D01*
X005906Y014453D02*
X005927Y014471D01*
X005950Y014488D01*
X005975Y014501D01*
X006000Y014512D01*
X006027Y014520D01*
X006055Y014524D01*
X006083Y014526D01*
X008056Y014526D02*
X008056Y016126D01*
X008054Y016170D01*
X008048Y016213D01*
X008039Y016255D01*
X008026Y016297D01*
X008009Y016337D01*
X007989Y016376D01*
X007966Y016413D01*
X007939Y016447D01*
X007910Y016480D01*
X007877Y016509D01*
X007843Y016536D01*
X007806Y016559D01*
X007767Y016579D01*
X007727Y016596D01*
X007685Y016609D01*
X007643Y016618D01*
X007600Y016624D01*
X007556Y016626D01*
X006231Y016626D01*
X006180Y016626D01*
X006136Y016628D01*
X006093Y016634D01*
X006051Y016643D01*
X006009Y016656D01*
X005969Y016673D01*
X005930Y016693D01*
X005893Y016716D01*
X005859Y016743D01*
X005826Y016772D01*
X005797Y016805D01*
X005770Y016839D01*
X005747Y016876D01*
X005727Y016915D01*
X005710Y016955D01*
X005697Y016997D01*
X005688Y017039D01*
X005682Y017082D01*
X005680Y017126D01*
X005680Y017626D01*
X004682Y017626D01*
X003580Y017626D02*
X002831Y017626D01*
X006782Y017626D02*
X007900Y017626D01*
X008465Y017391D02*
X008531Y017326D01*
X008556Y017275D02*
X008556Y016129D01*
X008556Y014526D01*
X008306Y014526D02*
X008306Y014204D01*
X008233Y014027D02*
X008031Y013826D01*
X008233Y014027D02*
X008251Y014048D01*
X008268Y014071D01*
X008281Y014096D01*
X008292Y014121D01*
X008300Y014148D01*
X008304Y014176D01*
X008306Y014204D01*
X008806Y014526D02*
X008806Y015994D01*
X009056Y015744D02*
X009056Y014526D01*
X009306Y014526D02*
X009306Y015597D01*
X009379Y015774D02*
X011158Y017552D01*
X011335Y017626D02*
X015435Y017626D01*
X015471Y017638D01*
X015506Y017654D01*
X015538Y017674D01*
X015569Y017697D01*
X015597Y017723D01*
X015622Y017752D01*
X015644Y017783D01*
X015662Y017816D01*
X015677Y017851D01*
X015688Y017888D01*
X015695Y017925D01*
X015699Y017963D01*
X015698Y018001D01*
X015694Y018039D01*
X015685Y018076D01*
X015882Y018326D01*
X014780Y018326D02*
X013631Y018326D01*
X012631Y018326D02*
X011638Y018326D01*
X011285Y018179D02*
X009202Y016097D01*
X008556Y016129D02*
X008558Y016181D01*
X008563Y016232D01*
X008572Y016283D01*
X008584Y016333D01*
X008599Y016382D01*
X008618Y016430D01*
X008640Y016477D01*
X008664Y016522D01*
X008692Y016566D01*
X008722Y016608D01*
X008755Y016647D01*
X008790Y016685D01*
X008921Y016815D01*
X011134Y019028D01*
X011280Y019382D02*
X011280Y019926D01*
X012385Y019779D02*
X008952Y016347D01*
X008617Y016769D02*
X008591Y016796D01*
X008617Y016769D02*
X008637Y016755D01*
X008658Y016743D01*
X008680Y016734D01*
X008703Y016728D01*
X008727Y016725D01*
X008751Y016726D01*
X008779Y016730D01*
X008806Y016737D01*
X008832Y016748D01*
X008857Y016761D01*
X008880Y016777D01*
X008901Y016795D01*
X008920Y016815D01*
X008591Y016796D02*
X008578Y016834D01*
X008568Y016873D01*
X008561Y016913D01*
X008556Y016953D01*
X008555Y016994D01*
X008557Y017034D01*
X008561Y017074D01*
X008561Y017075D02*
X008551Y017256D01*
X008556Y017275D02*
X008553Y017289D01*
X008548Y017302D01*
X008541Y017315D01*
X008531Y017325D01*
X008466Y017392D02*
X008427Y017427D01*
X008387Y017461D01*
X008344Y017491D01*
X008300Y017519D01*
X008254Y017543D01*
X008206Y017565D01*
X008157Y017584D01*
X008107Y017599D01*
X008056Y017611D01*
X008004Y017619D01*
X007952Y017624D01*
X007900Y017626D01*
X009702Y015597D02*
X011085Y016979D01*
X011438Y017126D02*
X016071Y017126D01*
X015881Y016726D02*
X011538Y016726D01*
X011438Y017126D02*
X011394Y017124D01*
X011351Y017118D01*
X011309Y017109D01*
X011267Y017096D01*
X011227Y017079D01*
X011188Y017059D01*
X011151Y017036D01*
X011117Y017009D01*
X011084Y016980D01*
X011185Y016579D02*
X009952Y015347D01*
X009702Y015598D02*
X009673Y015565D01*
X009646Y015531D01*
X009623Y015494D01*
X009603Y015455D01*
X009586Y015415D01*
X009573Y015373D01*
X009564Y015331D01*
X009558Y015288D01*
X009556Y015244D01*
X009556Y014526D01*
X009806Y014526D02*
X009806Y014994D01*
X010056Y014826D02*
X010056Y014526D01*
X010306Y014526D02*
X010306Y014776D01*
X009806Y014994D02*
X009808Y015038D01*
X009814Y015081D01*
X009823Y015123D01*
X009836Y015165D01*
X009853Y015205D01*
X009873Y015244D01*
X009896Y015281D01*
X009923Y015315D01*
X009952Y015348D01*
X009306Y015597D02*
X009308Y015625D01*
X009312Y015653D01*
X009320Y015680D01*
X009331Y015705D01*
X009344Y015730D01*
X009361Y015753D01*
X009379Y015774D01*
X009056Y015744D02*
X009058Y015788D01*
X009064Y015831D01*
X009073Y015873D01*
X009086Y015915D01*
X009103Y015955D01*
X009123Y015994D01*
X009146Y016031D01*
X009173Y016065D01*
X009202Y016098D01*
X008952Y016348D02*
X008923Y016315D01*
X008896Y016281D01*
X008873Y016244D01*
X008853Y016205D01*
X008836Y016165D01*
X008823Y016123D01*
X008814Y016081D01*
X008808Y016038D01*
X008806Y015994D01*
X010556Y015326D02*
X012932Y015326D01*
X012962Y015328D01*
X012992Y015333D01*
X013021Y015342D01*
X013048Y015355D01*
X013074Y015370D01*
X013098Y015389D01*
X013119Y015410D01*
X013138Y015434D01*
X013153Y015460D01*
X013166Y015487D01*
X013175Y015516D01*
X013180Y015546D01*
X013182Y015576D01*
X013182Y016026D01*
X014280Y016026D01*
X015881Y016726D02*
X015911Y016724D01*
X015941Y016719D01*
X015970Y016710D01*
X015997Y016697D01*
X016023Y016682D01*
X016047Y016663D01*
X016068Y016642D01*
X016087Y016618D01*
X016102Y016592D01*
X016115Y016565D01*
X016124Y016536D01*
X016129Y016506D01*
X016131Y016476D01*
X016571Y016626D02*
X016569Y016670D01*
X016563Y016713D01*
X016554Y016755D01*
X016541Y016797D01*
X016524Y016837D01*
X016504Y016876D01*
X016481Y016913D01*
X016454Y016947D01*
X016425Y016980D01*
X016392Y017009D01*
X016358Y017036D01*
X016321Y017059D01*
X016282Y017079D01*
X016242Y017096D01*
X016200Y017109D01*
X016158Y017118D01*
X016115Y017124D01*
X016071Y017126D01*
X016511Y015946D02*
X021231Y015946D01*
X021231Y015787D02*
X016511Y015787D01*
X016511Y015629D02*
X021231Y015629D01*
X021231Y015470D02*
X016511Y015470D01*
X016511Y015312D02*
X021231Y015312D01*
X021231Y015153D02*
X016511Y015153D01*
X016511Y014995D02*
X021231Y014995D01*
X021231Y014836D02*
X016511Y014836D01*
X016511Y014677D02*
X021231Y014677D01*
X021231Y014519D02*
X016511Y014519D01*
X016511Y014360D02*
X021231Y014360D01*
X021231Y014202D02*
X016511Y014202D01*
X016511Y014043D02*
X021231Y014043D01*
X021231Y013885D02*
X016511Y013885D01*
X016511Y013726D02*
X021231Y013726D01*
X021231Y013568D02*
X016511Y013568D01*
X016511Y013409D02*
X021231Y013409D01*
X021231Y013251D02*
X016511Y013251D01*
X016511Y013092D02*
X021231Y013092D01*
X021231Y012934D02*
X016511Y012934D01*
X016511Y012775D02*
X021231Y012775D01*
X021231Y012616D02*
X020313Y012616D01*
X020463Y012458D02*
X021231Y012458D01*
X021231Y012299D02*
X020522Y012299D01*
X020531Y012141D02*
X021231Y012141D01*
X021231Y011982D02*
X020531Y011982D01*
X020531Y011824D02*
X021231Y011824D01*
X021231Y011665D02*
X020531Y011665D01*
X020531Y011507D02*
X021231Y011507D01*
X021231Y011348D02*
X020531Y011348D01*
X020531Y011190D02*
X021231Y011190D01*
X021231Y011031D02*
X020531Y011031D01*
X020531Y010872D02*
X021231Y010872D01*
X021231Y010714D02*
X020531Y010714D01*
X020531Y010555D02*
X021231Y010555D01*
X021231Y010397D02*
X020531Y010397D01*
X020531Y010238D02*
X021272Y010238D01*
X014331Y008976D02*
X014331Y012819D01*
X014185Y013172D02*
X012977Y014379D01*
X013329Y014880D02*
X013296Y014909D01*
X013262Y014936D01*
X013225Y014959D01*
X013186Y014979D01*
X013146Y014996D01*
X013104Y015009D01*
X013062Y015018D01*
X013019Y015024D01*
X012975Y015026D01*
X010556Y015026D01*
X010556Y015326D02*
X010512Y015324D01*
X010469Y015318D01*
X010427Y015309D01*
X010385Y015296D01*
X010345Y015279D01*
X010306Y015259D01*
X010269Y015236D01*
X010235Y015209D01*
X010202Y015180D01*
X010173Y015147D01*
X010146Y015113D01*
X010123Y015076D01*
X010103Y015037D01*
X010086Y014997D01*
X010073Y014955D01*
X010064Y014913D01*
X010058Y014870D01*
X010056Y014826D01*
X010306Y014776D02*
X010308Y014806D01*
X010313Y014836D01*
X010322Y014865D01*
X010335Y014892D01*
X010350Y014918D01*
X010369Y014942D01*
X010390Y014963D01*
X010414Y014982D01*
X010440Y014997D01*
X010467Y015010D01*
X010496Y015019D01*
X010526Y015024D01*
X010556Y015026D01*
X010556Y014526D02*
X012624Y014526D01*
X013328Y014879D02*
X014331Y013876D01*
X012978Y014380D02*
X012945Y014409D01*
X012911Y014436D01*
X012874Y014459D01*
X012835Y014479D01*
X012795Y014496D01*
X012753Y014509D01*
X012711Y014518D01*
X012668Y014524D01*
X012624Y014526D01*
X009811Y013525D02*
X009805Y013511D01*
X009802Y013496D01*
X009803Y013480D01*
X009806Y013465D01*
X009806Y012526D01*
X009806Y011826D01*
X010056Y011876D02*
X010056Y012526D01*
X009556Y012526D02*
X009556Y011204D01*
X009629Y011027D02*
X009831Y010826D01*
X009907Y010750D01*
X010083Y010677D02*
X010531Y010677D01*
X010083Y010677D02*
X010055Y010679D01*
X010027Y010683D01*
X010000Y010691D01*
X009975Y010702D01*
X009950Y010715D01*
X009927Y010732D01*
X009906Y010750D01*
X009306Y010454D02*
X009308Y010426D01*
X009312Y010398D01*
X009320Y010371D01*
X009331Y010346D01*
X009344Y010321D01*
X009361Y010298D01*
X009379Y010277D01*
X009631Y010026D01*
X010009Y009648D01*
X010186Y009574D02*
X010531Y009574D01*
X010186Y009574D02*
X010158Y009576D01*
X010130Y009580D01*
X010103Y009588D01*
X010078Y009599D01*
X010053Y009612D01*
X010030Y009629D01*
X010009Y009647D01*
X008831Y009660D02*
X008831Y010784D01*
X008833Y010817D01*
X008838Y010851D01*
X008846Y010883D01*
X008857Y010914D01*
X008871Y010945D01*
X008888Y010973D01*
X008908Y011000D01*
X008931Y011025D01*
X008660Y011154D02*
X008277Y010772D01*
X008131Y010419D02*
X008131Y009660D01*
X006777Y010173D02*
X006748Y010140D01*
X006721Y010106D01*
X006698Y010069D01*
X006678Y010030D01*
X006661Y009990D01*
X006648Y009948D01*
X006639Y009906D01*
X006633Y009863D01*
X006631Y009819D01*
X006131Y009626D02*
X006129Y009582D01*
X006123Y009539D01*
X006114Y009497D01*
X006101Y009455D01*
X006084Y009415D01*
X006064Y009376D01*
X006041Y009339D01*
X006014Y009305D01*
X005985Y009272D01*
X005952Y009243D01*
X005918Y009216D01*
X005881Y009193D01*
X005842Y009173D01*
X005802Y009156D01*
X005760Y009143D01*
X005718Y009134D01*
X005675Y009128D01*
X005631Y009126D01*
X005382Y009126D01*
X006490Y008584D02*
X006518Y008616D01*
X006544Y008649D01*
X006566Y008684D01*
X006586Y008722D01*
X006602Y008761D01*
X006615Y008801D01*
X006624Y008842D01*
X006629Y008884D01*
X006631Y008926D01*
X008131Y008991D02*
X008131Y008460D01*
X008831Y008460D02*
X008831Y008991D01*
X008831Y007791D02*
X008131Y007791D01*
X009730Y007791D01*
X009736Y007792D01*
X009741Y007796D01*
X008850Y007772D02*
X008831Y007791D01*
X007531Y007296D02*
X007531Y010319D01*
X007533Y010363D01*
X007539Y010406D01*
X007548Y010448D01*
X007561Y010490D01*
X007578Y010530D01*
X007598Y010569D01*
X007621Y010606D01*
X007648Y010640D01*
X007677Y010673D01*
X007677Y010672D02*
X008410Y011404D01*
X008660Y011154D02*
X008689Y011187D01*
X008716Y011221D01*
X008739Y011258D01*
X008759Y011297D01*
X008776Y011337D01*
X008789Y011379D01*
X008798Y011421D01*
X008804Y011464D01*
X008806Y011508D01*
X008806Y012526D01*
X009056Y012526D02*
X009056Y011327D01*
X009054Y011290D01*
X009050Y011253D01*
X009041Y011216D01*
X009030Y011181D01*
X009016Y011147D01*
X008999Y011113D01*
X008979Y011082D01*
X008956Y011053D01*
X008931Y011025D01*
X009556Y011204D02*
X009558Y011176D01*
X009562Y011148D01*
X009570Y011121D01*
X009581Y011096D01*
X009594Y011071D01*
X009611Y011048D01*
X009629Y011027D01*
X010406Y011226D02*
X011131Y011226D01*
X011157Y011224D01*
X011183Y011219D01*
X011208Y011211D01*
X011231Y011199D01*
X011253Y011185D01*
X011272Y011167D01*
X011290Y011148D01*
X011304Y011126D01*
X011316Y011103D01*
X011324Y011078D01*
X011329Y011052D01*
X011331Y011026D01*
X011331Y010677D01*
X012231Y011826D02*
X012275Y011824D01*
X012318Y011818D01*
X012360Y011809D01*
X012402Y011796D01*
X012442Y011779D01*
X012481Y011759D01*
X012518Y011736D01*
X012552Y011709D01*
X012585Y011680D01*
X012614Y011647D01*
X012641Y011613D01*
X012664Y011576D01*
X012684Y011537D01*
X012701Y011497D01*
X012714Y011455D01*
X012723Y011413D01*
X012729Y011370D01*
X012731Y011326D01*
X012731Y010074D01*
X012729Y010030D01*
X012723Y009987D01*
X012714Y009945D01*
X012701Y009903D01*
X012684Y009863D01*
X012664Y009824D01*
X012641Y009787D01*
X012614Y009753D01*
X012585Y009720D01*
X012552Y009691D01*
X012518Y009664D01*
X012481Y009641D01*
X012442Y009621D01*
X012402Y009604D01*
X012360Y009591D01*
X012318Y009582D01*
X012275Y009576D01*
X012231Y009574D01*
X012131Y009574D01*
X009306Y010454D02*
X009306Y012526D01*
X010306Y012076D02*
X010308Y012046D01*
X010313Y012016D01*
X010322Y011987D01*
X010335Y011960D01*
X010350Y011934D01*
X010369Y011910D01*
X010390Y011889D01*
X010414Y011870D01*
X010440Y011855D01*
X010467Y011842D01*
X010496Y011833D01*
X010526Y011828D01*
X010556Y011826D01*
X012231Y011826D01*
X010406Y011226D02*
X010359Y011228D01*
X010312Y011233D01*
X010266Y011243D01*
X010221Y011255D01*
X010176Y011272D01*
X010134Y011291D01*
X010093Y011314D01*
X010053Y011341D01*
X010016Y011370D01*
X009982Y011402D01*
X009950Y011436D01*
X009921Y011473D01*
X009894Y011513D01*
X009871Y011554D01*
X009852Y011596D01*
X009835Y011641D01*
X009823Y011686D01*
X009813Y011732D01*
X009808Y011779D01*
X009806Y011826D01*
X008160Y011554D02*
X006777Y010172D01*
X006078Y010272D02*
X006045Y010243D01*
X006011Y010216D01*
X005974Y010193D01*
X005935Y010173D01*
X005895Y010156D01*
X005853Y010143D01*
X005811Y010134D01*
X005768Y010128D01*
X005724Y010126D01*
X004280Y009126D02*
X002931Y009126D01*
X007031Y006796D02*
X007075Y006798D01*
X007118Y006804D01*
X007160Y006813D01*
X007202Y006826D01*
X007242Y006843D01*
X007281Y006863D01*
X007318Y006886D01*
X007352Y006913D01*
X007385Y006942D01*
X007414Y006975D01*
X007441Y007009D01*
X007464Y007046D01*
X007484Y007085D01*
X007501Y007125D01*
X007514Y007167D01*
X007523Y007209D01*
X007529Y007252D01*
X007531Y007296D01*
X008131Y010419D02*
X008133Y010463D01*
X008139Y010506D01*
X008148Y010548D01*
X008161Y010590D01*
X008178Y010630D01*
X008198Y010669D01*
X008221Y010706D01*
X008248Y010740D01*
X008277Y010773D01*
X007004Y011599D02*
X007483Y012077D01*
X007733Y011927D02*
X007751Y011948D01*
X007768Y011971D01*
X007781Y011996D01*
X007792Y012021D01*
X007800Y012048D01*
X007804Y012076D01*
X007806Y012104D01*
X007556Y012254D02*
X007556Y012526D01*
X007556Y012254D02*
X007554Y012226D01*
X007550Y012198D01*
X007542Y012171D01*
X007531Y012146D01*
X007518Y012121D01*
X007501Y012098D01*
X007483Y012077D01*
X007004Y011599D02*
X006983Y011581D01*
X006960Y011564D01*
X006935Y011551D01*
X006910Y011540D01*
X006883Y011532D01*
X006855Y011528D01*
X006827Y011526D01*
X006231Y011526D01*
X006231Y012076D01*
X006229Y012106D01*
X006224Y012136D01*
X006215Y012165D01*
X006202Y012192D01*
X006187Y012218D01*
X006168Y012242D01*
X006147Y012263D01*
X006123Y012282D01*
X006097Y012297D01*
X006070Y012310D01*
X006041Y012319D01*
X006011Y012324D01*
X005981Y012326D01*
X003765Y012326D01*
X003737Y012328D01*
X003709Y012332D01*
X003682Y012340D01*
X003657Y012351D01*
X003632Y012364D01*
X003609Y012381D01*
X003588Y012399D01*
X004731Y013126D02*
X005507Y013126D01*
X005530Y013125D01*
X005552Y013120D01*
X005574Y013113D01*
X005595Y013103D01*
X005614Y013090D01*
X005631Y013075D01*
X002265Y015426D02*
X002237Y015424D01*
X002209Y015420D01*
X002182Y015412D01*
X002157Y015401D01*
X002132Y015388D01*
X002109Y015371D01*
X002088Y015353D01*
X011331Y016026D02*
X012080Y016026D01*
X011538Y016726D02*
X011494Y016724D01*
X011451Y016718D01*
X011409Y016709D01*
X011367Y016696D01*
X011327Y016679D01*
X011288Y016659D01*
X011251Y016636D01*
X011217Y016609D01*
X011184Y016580D01*
X011158Y017553D02*
X011179Y017571D01*
X011202Y017588D01*
X011227Y017601D01*
X011252Y017612D01*
X011279Y017620D01*
X011307Y017624D01*
X011335Y017626D01*
X011284Y018180D02*
X011317Y018209D01*
X011351Y018236D01*
X011388Y018259D01*
X011427Y018279D01*
X011467Y018296D01*
X011509Y018309D01*
X011551Y018318D01*
X011594Y018324D01*
X011638Y018326D01*
X011134Y019028D02*
X011163Y019061D01*
X011190Y019095D01*
X011213Y019132D01*
X011233Y019171D01*
X011250Y019211D01*
X011263Y019253D01*
X011272Y019295D01*
X011278Y019338D01*
X011280Y019382D01*
X012384Y019780D02*
X012417Y019809D01*
X012451Y019836D01*
X012488Y019859D01*
X012527Y019879D01*
X012567Y019896D01*
X012609Y019909D01*
X012651Y019918D01*
X012694Y019924D01*
X012738Y019926D01*
X016182Y019926D01*
X014185Y013173D02*
X014214Y013140D01*
X014241Y013106D01*
X014264Y013069D01*
X014284Y013030D01*
X014301Y012990D01*
X014314Y012948D01*
X014323Y012906D01*
X014329Y012863D01*
X014331Y012819D01*
X045731Y021426D02*
X045731Y022476D01*
X045733Y022506D01*
X045738Y022536D01*
X045747Y022565D01*
X045760Y022592D01*
X045775Y022618D01*
X045794Y022642D01*
X045815Y022663D01*
X045839Y022682D01*
X045865Y022697D01*
X045892Y022710D01*
X045921Y022719D01*
X045951Y022724D01*
X045981Y022726D01*
X046095Y022726D01*
X046567Y022726D02*
X046590Y022724D01*
X046613Y022719D01*
X046635Y022711D01*
X046656Y022700D01*
X046674Y022686D01*
X046691Y022669D01*
X046705Y022651D01*
X046716Y022630D01*
X046724Y022608D01*
X046729Y022585D01*
X046731Y022562D01*
X046731Y021426D01*
D50*
X022601Y015676D03*
X021931Y013766D03*
X011331Y016026D03*
X008031Y013826D03*
X008831Y013326D03*
X009811Y013526D03*
X004458Y010899D03*
X002931Y009126D03*
X009741Y007796D03*
X009831Y010826D03*
X002831Y017626D03*
D51*
X009529Y019926D02*
X011280Y019926D01*
X009951Y006606D02*
X009081Y006606D01*
X009081Y006656D01*
X009079Y006596D01*
X009074Y006535D01*
X009065Y006476D01*
X009052Y006417D01*
X009036Y006358D01*
X009016Y006301D01*
X008993Y006246D01*
X008966Y006191D01*
X008937Y006139D01*
X008904Y006088D01*
X008868Y006039D01*
X008830Y005993D01*
X008788Y005949D01*
X008744Y005907D01*
X008698Y005869D01*
X008649Y005833D01*
X008598Y005800D01*
X008546Y005771D01*
X008491Y005744D01*
X008436Y005721D01*
X008379Y005701D01*
X008320Y005685D01*
X008261Y005672D01*
X008202Y005663D01*
X008141Y005658D01*
X008081Y005656D01*
X009731Y005656D01*
X010251Y005356D01*
X010285Y005344D01*
X010318Y005328D01*
X010348Y005309D01*
X010377Y005287D01*
X010403Y005262D01*
X010426Y005234D01*
X010446Y005204D01*
X010463Y005173D01*
X010477Y005139D01*
X010487Y005104D01*
X010493Y005069D01*
X010496Y005033D01*
X010495Y004997D01*
X010490Y004961D01*
X010481Y004926D01*
X009081Y004656D02*
X009081Y004576D01*
X009081Y004656D02*
X009079Y004716D01*
X009074Y004777D01*
X009065Y004836D01*
X009052Y004895D01*
X009036Y004954D01*
X009016Y005011D01*
X008993Y005066D01*
X008966Y005121D01*
X008937Y005173D01*
X008904Y005224D01*
X008868Y005273D01*
X008830Y005319D01*
X008788Y005363D01*
X008744Y005405D01*
X008698Y005443D01*
X008649Y005479D01*
X008598Y005512D01*
X008546Y005541D01*
X008491Y005568D01*
X008436Y005591D01*
X008379Y005611D01*
X008320Y005627D01*
X008261Y005640D01*
X008202Y005649D01*
X008141Y005654D01*
X008081Y005656D01*
X002031Y005656D01*
X009951Y006606D02*
X009988Y006604D01*
X010025Y006599D01*
X010061Y006590D01*
X010096Y006577D01*
X010130Y006561D01*
X010162Y006542D01*
X010192Y006520D01*
X010220Y006495D01*
X010245Y006467D01*
X010267Y006437D01*
X010286Y006405D01*
X010302Y006371D01*
X010315Y006336D01*
X010324Y006300D01*
X010329Y006263D01*
X010331Y006226D01*
D52*
X009731Y005656D02*
X011131Y005356D01*
X014331Y008975D02*
X014331Y008976D01*
X021641Y010056D02*
X021673Y010058D01*
X021706Y010063D01*
X021737Y010072D01*
X021767Y010085D01*
X021795Y010100D01*
X021822Y010119D01*
X021846Y010141D01*
X021868Y010165D01*
X021887Y010192D01*
X021902Y010220D01*
X021915Y010250D01*
X021924Y010281D01*
X021929Y010314D01*
X021931Y010346D01*
X021931Y010423D02*
X021931Y011874D01*
X021931Y012977D02*
X021931Y013766D01*
X021931Y014574D01*
X021931Y015677D02*
X022600Y015677D01*
X022601Y015677D01*
X022601Y015677D01*
X022601Y015676D01*
X024594Y017126D02*
X024638Y017124D01*
X024681Y017118D01*
X024723Y017109D01*
X024765Y017096D01*
X024805Y017079D01*
X024844Y017059D01*
X024881Y017036D01*
X024915Y017009D01*
X024948Y016980D01*
X024947Y016979D02*
X025501Y016426D01*
X024594Y017126D02*
X023238Y017126D01*
X022885Y017272D02*
X021977Y018179D01*
X021624Y018326D02*
X015882Y018326D01*
X021624Y018326D02*
X021668Y018324D01*
X021711Y018318D01*
X021753Y018309D01*
X021795Y018296D01*
X021835Y018279D01*
X021874Y018259D01*
X021911Y018236D01*
X021945Y018209D01*
X021978Y018180D01*
X022884Y017272D02*
X022917Y017243D01*
X022951Y017216D01*
X022988Y017193D01*
X023027Y017173D01*
X023067Y017156D01*
X023109Y017143D01*
X023151Y017134D01*
X023194Y017128D01*
X023238Y017126D01*
X021931Y010423D02*
X021933Y010379D01*
X021939Y010336D01*
X021948Y010294D01*
X021961Y010252D01*
X021978Y010212D01*
X021998Y010173D01*
X022021Y010136D01*
X022048Y010102D01*
X022077Y010069D01*
X022131Y010016D01*
X042231Y009326D02*
X042231Y009157D01*
X042233Y009127D01*
X042238Y009097D01*
X042247Y009068D01*
X042260Y009041D01*
X042275Y009015D01*
X042294Y008991D01*
X042315Y008970D01*
X042339Y008951D01*
X042365Y008936D01*
X042392Y008923D01*
X042421Y008914D01*
X042451Y008909D01*
X042481Y008907D01*
X045037Y008907D01*
X045037Y008119D02*
X042437Y008119D01*
X042437Y008120D02*
X042410Y008122D01*
X042384Y008127D01*
X042358Y008136D01*
X042334Y008148D01*
X042312Y008163D01*
X042291Y008180D01*
X042274Y008201D01*
X042259Y008223D01*
X042247Y008247D01*
X042238Y008273D01*
X042233Y008299D01*
X042231Y008326D01*
X042237Y007332D02*
X045037Y007332D01*
X045037Y006545D02*
X042450Y006545D01*
X042421Y006543D01*
X042393Y006538D01*
X042366Y006528D01*
X042340Y006516D01*
X042317Y006500D01*
X042295Y006481D01*
X042276Y006459D01*
X042260Y006436D01*
X042248Y006410D01*
X042238Y006383D01*
X042233Y006355D01*
X042231Y006326D01*
X042231Y007326D02*
X042232Y007329D01*
X042234Y007331D01*
X042237Y007332D01*
X042331Y004426D02*
X045181Y004426D01*
X045211Y004424D01*
X045241Y004419D01*
X045270Y004410D01*
X045297Y004397D01*
X045323Y004382D01*
X045347Y004363D01*
X045368Y004342D01*
X045387Y004318D01*
X045402Y004292D01*
X045415Y004265D01*
X045424Y004236D01*
X045429Y004206D01*
X045431Y004176D01*
X045431Y004107D01*
X045325Y003426D02*
X042331Y003426D01*
X042331Y002426D02*
X045325Y002426D01*
X045343Y002428D01*
X045361Y002432D01*
X045378Y002440D01*
X045393Y002451D01*
X045406Y002464D01*
X045417Y002479D01*
X045425Y002496D01*
X045429Y002514D01*
X045431Y002532D01*
X045431Y001745D02*
X045431Y001676D01*
X045429Y001646D01*
X045424Y001616D01*
X045415Y001587D01*
X045402Y001560D01*
X045387Y001534D01*
X045368Y001510D01*
X045347Y001489D01*
X045323Y001470D01*
X045297Y001455D01*
X045270Y001442D01*
X045241Y001433D01*
X045211Y001428D01*
X045181Y001426D01*
X042331Y001426D01*
X045325Y003425D02*
X045343Y003423D01*
X045361Y003419D01*
X045378Y003411D01*
X045393Y003400D01*
X045406Y003387D01*
X045417Y003372D01*
X045425Y003355D01*
X045429Y003337D01*
X045431Y003319D01*
X042231Y011626D02*
X042231Y011695D01*
X042233Y011725D01*
X042238Y011755D01*
X042247Y011784D01*
X042260Y011811D01*
X042275Y011837D01*
X042294Y011861D01*
X042315Y011882D01*
X042339Y011901D01*
X042365Y011916D01*
X042392Y011929D01*
X042421Y011938D01*
X042451Y011943D01*
X042481Y011945D01*
X044282Y011945D01*
X044282Y012732D02*
X042337Y012732D01*
X042319Y012730D01*
X042301Y012726D01*
X042284Y012718D01*
X042269Y012707D01*
X042256Y012694D01*
X042245Y012679D01*
X042237Y012662D01*
X042233Y012644D01*
X042231Y012626D01*
X042337Y013519D02*
X044282Y013519D01*
X044282Y014307D02*
X042481Y014307D01*
X042451Y014309D01*
X042421Y014314D01*
X042392Y014323D01*
X042365Y014336D01*
X042339Y014351D01*
X042315Y014370D01*
X042294Y014391D01*
X042275Y014415D01*
X042260Y014441D01*
X042247Y014468D01*
X042238Y014497D01*
X042233Y014527D01*
X042231Y014557D01*
X042231Y014626D01*
X042231Y013626D02*
X042233Y013608D01*
X042237Y013590D01*
X042245Y013573D01*
X042256Y013558D01*
X042269Y013545D01*
X042284Y013534D01*
X042301Y013526D01*
X042319Y013522D01*
X042337Y013520D01*
X042231Y016926D02*
X042233Y016955D01*
X042238Y016983D01*
X042248Y017010D01*
X042260Y017036D01*
X042276Y017059D01*
X042295Y017081D01*
X042317Y017100D01*
X042340Y017116D01*
X042366Y017128D01*
X042393Y017138D01*
X042421Y017143D01*
X042450Y017145D01*
X044731Y017145D01*
X044731Y017932D02*
X042237Y017932D01*
X042234Y017931D01*
X042232Y017929D01*
X042231Y017926D01*
X042437Y018719D02*
X044731Y018719D01*
X044731Y019507D02*
X042481Y019507D01*
X042451Y019509D01*
X042421Y019514D01*
X042392Y019523D01*
X042365Y019536D01*
X042339Y019551D01*
X042315Y019570D01*
X042294Y019591D01*
X042275Y019615D01*
X042260Y019641D01*
X042247Y019668D01*
X042238Y019697D01*
X042233Y019727D01*
X042231Y019757D01*
X042231Y019926D01*
X042231Y018926D02*
X042233Y018899D01*
X042238Y018873D01*
X042247Y018847D01*
X042259Y018823D01*
X042274Y018801D01*
X042291Y018780D01*
X042312Y018763D01*
X042334Y018748D01*
X042358Y018736D01*
X042384Y018727D01*
X042410Y018722D01*
X042437Y018720D01*
X042331Y021426D02*
X042331Y021867D01*
X042333Y021919D01*
X042338Y021971D01*
X042346Y022023D01*
X042358Y022074D01*
X042373Y022124D01*
X042392Y022173D01*
X042414Y022221D01*
X042438Y022267D01*
X042466Y022311D01*
X042496Y022354D01*
X042530Y022394D01*
X042565Y022433D01*
X042565Y022432D02*
X042859Y022726D01*
X043331Y022726D02*
X043331Y021426D01*
X044331Y021867D02*
X044329Y021919D01*
X044324Y021971D01*
X044316Y022023D01*
X044304Y022074D01*
X044289Y022124D01*
X044270Y022173D01*
X044248Y022221D01*
X044224Y022267D01*
X044196Y022311D01*
X044166Y022354D01*
X044132Y022394D01*
X044097Y022433D01*
X044097Y022432D02*
X043803Y022726D01*
X044331Y021867D02*
X044331Y021426D01*
D53*
X028522Y017590D02*
X028531Y017486D01*
X028531Y016186D01*
X027341Y016186D01*
X027331Y016196D01*
X027331Y017486D01*
X027340Y017590D01*
X027367Y017691D01*
X027411Y017786D01*
X027471Y017871D01*
X027545Y017945D01*
X027631Y018005D01*
X028231Y018005D01*
X028317Y017945D01*
X028391Y017871D01*
X028451Y017786D01*
X028495Y017691D01*
X028522Y017590D01*
X028516Y017612D02*
X027346Y017612D01*
X027335Y017534D02*
X028527Y017534D01*
X028531Y017455D02*
X027331Y017455D01*
X027331Y017377D02*
X028531Y017377D01*
X028531Y017298D02*
X027331Y017298D01*
X027331Y017220D02*
X028531Y017220D01*
X028531Y017141D02*
X027331Y017141D01*
X027331Y017063D02*
X028531Y017063D01*
X028531Y016984D02*
X027331Y016984D01*
X027331Y016906D02*
X028531Y016906D01*
X028531Y016827D02*
X027331Y016827D01*
X027331Y016749D02*
X028531Y016749D01*
X028531Y016670D02*
X027331Y016670D01*
X027331Y016591D02*
X028531Y016591D01*
X028531Y016513D02*
X027331Y016513D01*
X027331Y016434D02*
X028531Y016434D01*
X028531Y016356D02*
X027331Y016356D01*
X027331Y016277D02*
X028531Y016277D01*
X028531Y016199D02*
X027331Y016199D01*
X027367Y017691D02*
X028495Y017691D01*
X028458Y017770D02*
X027404Y017770D01*
X027455Y017848D02*
X028407Y017848D01*
X028335Y017927D02*
X027527Y017927D01*
X027631Y018005D02*
X027726Y018049D01*
X027827Y018077D01*
X027931Y018086D01*
X028035Y018077D01*
X028136Y018049D01*
X028231Y018005D01*
X027953Y018084D02*
X027909Y018084D01*
D54*
X004731Y013126D03*
X002931Y010126D03*
D55*
X019001Y002749D02*
X021631Y002749D01*
X026101Y002749D01*
X028701Y002749D01*
X026131Y022799D02*
X023531Y022799D01*
X019031Y022799D01*
X016431Y022799D01*
D56*
X015431Y016026D02*
X015382Y016026D01*
X015431Y015908D02*
X015431Y014886D01*
X015431Y014343D01*
X015427Y014302D01*
X015426Y014261D01*
X015428Y014220D01*
X015434Y014179D01*
X015443Y014139D01*
X015454Y014100D01*
X015469Y014062D01*
X015487Y014025D01*
X015508Y013989D01*
X015531Y013955D01*
X015641Y013636D02*
X015641Y013016D01*
X015641Y013636D02*
X015642Y013674D01*
X015639Y013713D01*
X015633Y013751D01*
X015624Y013788D01*
X015611Y013825D01*
X015596Y013860D01*
X015577Y013894D01*
X015555Y013926D01*
X015531Y013956D01*
X014631Y014086D02*
X014601Y014086D01*
X014631Y014086D02*
X014686Y014088D01*
X014740Y014093D01*
X014794Y014103D01*
X014847Y014116D01*
X014899Y014132D01*
X014950Y014152D01*
X014999Y014176D01*
X015047Y014202D01*
X015092Y014232D01*
X015136Y014265D01*
X015177Y014301D01*
X015216Y014340D01*
X015252Y014381D01*
X015285Y014425D01*
X015315Y014470D01*
X015341Y014518D01*
X015365Y014567D01*
X015385Y014618D01*
X015401Y014670D01*
X015414Y014723D01*
X015424Y014777D01*
X015429Y014831D01*
X015431Y014886D01*
X015431Y015908D02*
X015430Y015930D01*
X015425Y015951D01*
X015418Y015972D01*
X015409Y015991D01*
X015396Y016010D01*
X015382Y016026D01*
X017721Y007836D02*
X017721Y007726D01*
X017721Y007656D01*
X014981Y005926D02*
X014981Y005716D01*
X014261Y005716D01*
D57*
X014331Y005926D02*
X014981Y005926D01*
X015131Y005926D02*
X015291Y005926D01*
X014331Y005926D02*
X014331Y008975D01*
X014331Y008976D02*
X014331Y006726D01*
X014333Y006671D01*
X014338Y006617D01*
X014348Y006563D01*
X014361Y006510D01*
X014377Y006458D01*
X014397Y006407D01*
X014421Y006358D01*
X014447Y006310D01*
X014477Y006265D01*
X014510Y006221D01*
X014546Y006180D01*
X014585Y006141D01*
X014626Y006105D01*
X014670Y006072D01*
X014715Y006042D01*
X014763Y006016D01*
X014812Y005992D01*
X014863Y005972D01*
X014915Y005956D01*
X014968Y005943D01*
X015022Y005933D01*
X015076Y005928D01*
X015131Y005926D01*
X017931Y007526D02*
X017931Y007826D01*
X017931Y007726D02*
X017931Y007526D01*
X017931Y007826D02*
X017929Y007881D01*
X017924Y007935D01*
X017914Y007989D01*
X017901Y008042D01*
X017885Y008094D01*
X017865Y008145D01*
X017841Y008194D01*
X017815Y008242D01*
X017785Y008287D01*
X017752Y008331D01*
X017716Y008372D01*
X017677Y008411D01*
X017636Y008447D01*
X017592Y008480D01*
X017547Y008510D01*
X017499Y008536D01*
X017450Y008560D01*
X017399Y008580D01*
X017347Y008596D01*
X017294Y008609D01*
X017240Y008619D01*
X017186Y008624D01*
X017131Y008626D01*
X016231Y008626D01*
X017131Y008626D02*
X018831Y008626D01*
X018931Y008626D01*
X018986Y008628D01*
X019040Y008633D01*
X019094Y008643D01*
X019147Y008656D01*
X019199Y008672D01*
X019250Y008692D01*
X019299Y008716D01*
X019347Y008742D01*
X019392Y008772D01*
X019436Y008805D01*
X019477Y008841D01*
X019516Y008880D01*
X019552Y008921D01*
X019585Y008965D01*
X019615Y009010D01*
X019641Y009058D01*
X019665Y009107D01*
X019685Y009158D01*
X019701Y009210D01*
X019714Y009263D01*
X019724Y009317D01*
X019729Y009371D01*
X019731Y009426D01*
X019731Y010076D01*
X016231Y008626D02*
X016176Y008628D01*
X016122Y008633D01*
X016068Y008643D01*
X016015Y008656D01*
X015963Y008672D01*
X015912Y008692D01*
X015863Y008716D01*
X015815Y008742D01*
X015770Y008772D01*
X015726Y008805D01*
X015685Y008841D01*
X015646Y008880D01*
X015610Y008921D01*
X015577Y008965D01*
X015547Y009010D01*
X015521Y009058D01*
X015497Y009107D01*
X015477Y009158D01*
X015461Y009210D01*
X015448Y009263D01*
X015438Y009317D01*
X015433Y009371D01*
X015431Y009426D01*
X015431Y013076D01*
X015429Y013131D01*
X015424Y013185D01*
X015414Y013239D01*
X015401Y013292D01*
X015385Y013344D01*
X015365Y013395D01*
X015341Y013444D01*
X015315Y013492D01*
X015285Y013537D01*
X015252Y013581D01*
X015216Y013622D01*
X015177Y013661D01*
X015136Y013697D01*
X015092Y013730D01*
X015047Y013760D01*
X014999Y013786D01*
X014950Y013810D01*
X014899Y013830D01*
X014847Y013846D01*
X014794Y013859D01*
X014740Y013869D01*
X014686Y013874D01*
X014631Y013876D01*
X014331Y013876D01*
X018831Y008626D02*
X018772Y008624D01*
X018714Y008618D01*
X018655Y008609D01*
X018598Y008595D01*
X018542Y008578D01*
X018487Y008557D01*
X018433Y008533D01*
X018381Y008505D01*
X018331Y008474D01*
X018283Y008440D01*
X018238Y008403D01*
X018195Y008362D01*
X018154Y008319D01*
X018117Y008274D01*
X018083Y008226D01*
X018052Y008176D01*
X018024Y008124D01*
X018000Y008070D01*
X017979Y008015D01*
X017962Y007959D01*
X017948Y007902D01*
X017939Y007843D01*
X017933Y007785D01*
X017931Y007726D01*
D58*
X017831Y007726D02*
X017721Y007726D01*
X017831Y007726D02*
X017848Y007728D01*
X017865Y007732D01*
X017881Y007739D01*
X017895Y007749D01*
X017908Y007762D01*
X017918Y007776D01*
X017925Y007792D01*
X017929Y007809D01*
X017931Y007826D01*
X014631Y013876D02*
X014631Y014086D01*
D59*
X054131Y011726D02*
X054131Y009726D01*
X056737Y008119D02*
X057131Y007726D01*
X057131Y002126D01*
X055887Y002126D01*
X060375Y002126D02*
X060375Y004527D01*
X060375Y005986D01*
X060371Y005986D01*
X063737Y004726D02*
X063737Y007726D01*
X066737Y007726D01*
X066737Y014726D01*
X066737Y016619D01*
X066631Y016726D01*
X067525Y016619D02*
X067631Y016726D01*
X067525Y016619D02*
X067525Y014726D01*
X067525Y009726D01*
X069131Y009726D01*
X063737Y007726D02*
X061737Y007726D01*
X057131Y007726D01*
X056737Y008119D02*
X056737Y014726D01*
X056737Y016629D01*
X056641Y016726D01*
X057525Y016609D02*
X057525Y014726D01*
X057525Y011726D01*
X058131Y011726D01*
X059131Y011726D02*
X059131Y009726D01*
X061737Y007726D02*
X061737Y014726D01*
X061737Y016669D01*
X061681Y016726D01*
X062525Y016569D02*
X062525Y014726D01*
X062525Y011726D01*
X063131Y011726D01*
X062525Y016569D02*
X062681Y016726D01*
X057641Y016726D02*
X057525Y016609D01*
D60*
X060371Y005986D03*
D61*
X051131Y004726D03*
X051131Y021726D03*
M02*
