G75*
G70*
%OFA0B0*%
%FSLAX24Y24*%
%IPPOS*%
%LPD*%
%AMOC8*
5,1,8,0,0,1.08239X$1,22.5*
%
%ADD10R,0.0290X0.0620*%
%ADD11R,0.0829X0.0750*%
%ADD12R,0.0750X0.0829*%
%ADD13C,0.0860*%
%ADD14C,0.0770*%
%ADD15R,0.0553X0.0553*%
%ADD16C,0.0870*%
%ADD17C,0.0714*%
%ADD18R,0.4620X0.3919*%
%ADD19R,0.0940X0.1620*%
%ADD20R,0.3919X0.4620*%
%ADD21R,0.1620X0.0940*%
%ADD22R,0.0793X0.0793*%
%ADD23C,0.2070*%
%ADD24R,0.4270X0.5120*%
%ADD25R,0.0870X0.0870*%
%ADD26R,0.1443X0.2092*%
%ADD27R,0.1443X0.0671*%
%ADD28R,0.0711X0.1655*%
%ADD29C,0.1215*%
%ADD30C,0.1780*%
%ADD31R,0.0376X0.0514*%
%ADD32R,0.0435X0.0455*%
%ADD33R,0.0675X0.0675*%
%ADD34C,0.0832*%
%ADD35R,0.1222X0.0553*%
%ADD36R,0.1655X0.0868*%
%ADD37C,0.1140*%
%ADD38R,0.1577X0.0711*%
%ADD39R,0.1577X0.0553*%
%ADD40C,0.0596*%
%ADD41R,0.0860X0.0860*%
%ADD42C,0.0675*%
%ADD43C,0.0793*%
%ADD44OC8,0.0680*%
%ADD45R,0.1065X0.1222*%
%ADD46R,0.1065X0.1020*%
%ADD47C,0.1065*%
%ADD48C,0.0596*%
%ADD49C,0.2882*%
D10*
X007306Y012526D03*
X007556Y012526D03*
X007806Y012526D03*
X008056Y012526D03*
X008306Y012526D03*
X008556Y012526D03*
X008806Y012526D03*
X009056Y012526D03*
X009306Y012526D03*
X009556Y012526D03*
X009806Y012526D03*
X010056Y012526D03*
X010306Y012526D03*
X010556Y012526D03*
X010556Y014526D03*
X010306Y014526D03*
X010056Y014526D03*
X009806Y014526D03*
X009556Y014526D03*
X009306Y014526D03*
X009056Y014526D03*
X008806Y014526D03*
X008556Y014526D03*
X008306Y014526D03*
X008056Y014526D03*
X007806Y014526D03*
X007556Y014526D03*
X007306Y014526D03*
D11*
X005631Y014177D03*
X005631Y013074D03*
X010531Y010677D03*
X011331Y010677D03*
X012131Y010677D03*
X012131Y009574D03*
X011331Y009574D03*
X010531Y009574D03*
X021931Y011874D03*
X021931Y012977D03*
X021931Y014574D03*
X021931Y015677D03*
D12*
X015382Y016026D03*
X014280Y016026D03*
X013182Y016026D03*
X012080Y016026D03*
X006782Y017626D03*
X005680Y017626D03*
X004682Y017626D03*
X003580Y017626D03*
X014780Y018326D03*
X015882Y018326D03*
X003982Y011626D03*
X002880Y011626D03*
X004280Y010126D03*
X005382Y010126D03*
X005382Y009126D03*
X004280Y009126D03*
D13*
X006731Y007826D03*
X002031Y006796D03*
X002031Y005656D03*
X017931Y007526D03*
X001931Y014056D03*
X001931Y015196D03*
X042231Y014626D03*
X042231Y013626D03*
X042231Y012626D03*
X042231Y009326D03*
X042231Y008326D03*
X042231Y007326D03*
X042331Y004426D03*
X042331Y003426D03*
X042331Y002426D03*
X056641Y016726D03*
X057641Y016726D03*
X061681Y016726D03*
X062681Y016726D03*
X066631Y016726D03*
X067631Y016726D03*
X046731Y021426D03*
X045731Y021426D03*
X044331Y021426D03*
X043331Y021426D03*
X042331Y021426D03*
X042231Y018926D03*
X042231Y017926D03*
X042231Y016926D03*
D14*
X013631Y018326D03*
X012631Y018326D03*
X008531Y018326D03*
X008531Y017326D03*
X004131Y015426D03*
X004131Y014426D03*
X005231Y011526D03*
X006231Y011526D03*
X009631Y010026D03*
X009631Y009026D03*
X005731Y007826D03*
X004731Y007826D03*
X001931Y010626D03*
X001931Y011626D03*
D15*
X008131Y009660D03*
X008831Y009660D03*
X008831Y008991D03*
X008131Y008991D03*
X008131Y008460D03*
X008831Y008460D03*
X008831Y007791D03*
X008131Y007791D03*
D16*
X014331Y008975D03*
X014331Y013876D03*
X016182Y019926D03*
X011280Y019926D03*
D17*
X006231Y016626D03*
X003431Y016626D03*
X044833Y011078D03*
D18*
X018731Y014576D03*
D19*
X017731Y010076D03*
X019731Y010076D03*
D20*
X010481Y004926D03*
D21*
X014981Y005926D03*
X014981Y003926D03*
D22*
X024161Y016426D03*
X025501Y016426D03*
X024831Y017926D03*
X023491Y017926D03*
X026171Y017926D03*
D23*
X024831Y009056D03*
D24*
X024831Y009956D03*
D25*
X032631Y014676D03*
X032631Y004376D03*
D26*
X027931Y014826D03*
D27*
X027931Y016423D03*
D28*
X023531Y019452D03*
X019031Y019452D03*
X019031Y022799D03*
X023531Y022799D03*
X021631Y006099D03*
X026031Y006099D03*
X026031Y002752D03*
X021631Y002752D03*
D29*
X009529Y019926D03*
X007364Y019926D03*
D30*
X004461Y019926D03*
D31*
X042859Y022726D03*
X043331Y022726D03*
X043803Y022726D03*
X046095Y022726D03*
X046567Y022726D03*
D32*
X047020Y024212D03*
X045642Y024212D03*
X044256Y024212D03*
X042406Y024212D03*
D33*
X044731Y019507D03*
X044731Y018719D03*
X044731Y017932D03*
X044731Y017145D03*
D34*
X045577Y016554D03*
X045577Y020097D03*
X063147Y003899D03*
X065115Y003899D03*
D35*
X044282Y011945D03*
X044282Y012732D03*
X044282Y013519D03*
X044282Y014307D03*
D36*
X046113Y015232D03*
X046113Y011019D03*
D37*
X044892Y015173D03*
D38*
X047203Y009832D03*
X047203Y005619D03*
D39*
X045037Y006545D03*
X045037Y007332D03*
X045037Y008119D03*
X045037Y008907D03*
D40*
X045431Y004107D03*
X045431Y003319D03*
X045431Y002532D03*
X045431Y001745D03*
D41*
X042331Y001426D03*
X042231Y006326D03*
X042231Y011626D03*
X042231Y019926D03*
D42*
X056737Y014726D03*
X057525Y014726D03*
X061737Y014726D03*
X062525Y014726D03*
X066737Y014726D03*
X067525Y014726D03*
X064525Y004726D03*
X063737Y004726D03*
D43*
X063194Y015316D03*
X058194Y015316D03*
X068194Y015316D03*
D44*
X063131Y011726D03*
X059131Y011726D03*
X058131Y011726D03*
X054131Y011726D03*
X054131Y009726D03*
X058131Y009726D03*
X059131Y009726D03*
X063131Y009726D03*
X065131Y009726D03*
X069131Y009726D03*
D45*
X055887Y004527D03*
X055887Y002126D03*
D46*
X060375Y002126D03*
X060375Y004527D03*
D47*
X058131Y003926D03*
X058131Y002126D03*
X028701Y002749D03*
X019001Y002749D03*
X027931Y017476D03*
X026131Y022799D03*
X016431Y022799D03*
D48*
X004731Y013126D03*
X002931Y010126D03*
D49*
X051131Y004726D03*
X051131Y021726D03*
M02*
