G04 (created by PCBNEW (2013-05-31 BZR 4019)-stable) date 6/4/2013 8:20:18 PM*
%MOIN*%
G04 Gerber Fmt 3.4, Leading zero omitted, Abs format*
%FSLAX34Y34*%
G01*
G70*
G90*
G04 APERTURE LIST*
%ADD10C,0.00590551*%
%ADD11R,0.0590551X0.0590551*%
%ADD12C,0.0590551*%
%ADD13R,0.0984X0.0984*%
%ADD14R,0.06X0.06*%
%ADD15C,0.06*%
%ADD16C,0.055*%
%ADD17C,0.11*%
%ADD18R,0.0511811X0.0511811*%
%ADD19C,0.0551181*%
%ADD20R,0.0669291X0.0669291*%
%ADD21C,0.0669291*%
%ADD22C,0.0393701*%
%ADD23R,0.0629921X0.0629921*%
%ADD24C,0.0629921*%
%ADD25C,0.08*%
%ADD26C,0.2*%
%ADD27C,0.04*%
%ADD28C,0.007*%
%ADD29C,0.01*%
G04 APERTURE END LIST*
G54D10*
G54D11*
X98500Y-49377D03*
G54D12*
X98500Y-48000D03*
X98500Y-46622D03*
G54D13*
X47000Y-57000D03*
G54D14*
X51000Y-73000D03*
G54D15*
X50000Y-73000D03*
X49000Y-73000D03*
X48000Y-73000D03*
X47000Y-73000D03*
G54D14*
X86500Y-61000D03*
G54D15*
X86500Y-60000D03*
X86500Y-59000D03*
G54D16*
X85000Y-45500D03*
X85000Y-46500D03*
X87500Y-45500D03*
X87500Y-46500D03*
X75500Y-47000D03*
X76500Y-47000D03*
X64000Y-47000D03*
X63000Y-47000D03*
X68500Y-45500D03*
X68500Y-46500D03*
X79000Y-47000D03*
X80000Y-47000D03*
X61000Y-47000D03*
X60000Y-47000D03*
X71000Y-45500D03*
X71000Y-46500D03*
G54D17*
X57750Y-41000D03*
X74500Y-41000D03*
X74500Y-73000D03*
X57750Y-73000D03*
X41000Y-41000D03*
X41000Y-73000D03*
G54D18*
X78000Y-41523D03*
G54D19*
X78000Y-44476D03*
G54D18*
X61500Y-41523D03*
G54D19*
X61500Y-44476D03*
G54D18*
X81716Y-40661D03*
X81716Y-42000D03*
X81716Y-43338D03*
X83212Y-41330D03*
X83212Y-42669D03*
X65216Y-40661D03*
X65216Y-42000D03*
X65216Y-43338D03*
X66712Y-41330D03*
X66712Y-42669D03*
G54D20*
X82287Y-48271D03*
G54D21*
X82287Y-44728D03*
G54D20*
X66287Y-47771D03*
G54D21*
X66287Y-44228D03*
G54D22*
X60893Y-64169D03*
X61681Y-64169D03*
X62468Y-64169D03*
X63255Y-64169D03*
X64043Y-64169D03*
X64830Y-64169D03*
X65618Y-64169D03*
X66405Y-64169D03*
X67192Y-64169D03*
X67980Y-64169D03*
X67980Y-72830D03*
X67192Y-72830D03*
X66405Y-72830D03*
X65618Y-72830D03*
X64830Y-72830D03*
X64043Y-72830D03*
X63255Y-72830D03*
X62468Y-72830D03*
X61681Y-72830D03*
X60893Y-72830D03*
G54D23*
X92984Y-42000D03*
G54D24*
X91015Y-42000D03*
G54D23*
X98000Y-41015D03*
G54D24*
X98000Y-42984D03*
G54D25*
X95800Y-45400D03*
G54D26*
X79500Y-48900D03*
G54D27*
X45750Y-49750D03*
X61140Y-45979D03*
X56370Y-46290D03*
X57740Y-46729D03*
X58809Y-46620D03*
X99279Y-53909D03*
X97620Y-57200D03*
X41659Y-50420D03*
X98420Y-69359D03*
X64017Y-40551D03*
X45009Y-58829D03*
X46870Y-59020D03*
X57764Y-54495D03*
X51837Y-65160D03*
X49871Y-61834D03*
X63324Y-70123D03*
X52314Y-61868D03*
X55655Y-60988D03*
X95610Y-69896D03*
X68621Y-70745D03*
X55664Y-61585D03*
X48495Y-61683D03*
X53305Y-55737D03*
X94732Y-45008D03*
X49550Y-62417D03*
X47378Y-61272D03*
X51986Y-70439D03*
X90899Y-69928D03*
X48695Y-57902D03*
X48704Y-58874D03*
X49300Y-56879D03*
X48370Y-59259D03*
X43809Y-67540D03*
X51040Y-67490D03*
X43650Y-54423D03*
X55400Y-55920D03*
X43146Y-54156D03*
X54516Y-54990D03*
X42818Y-54536D03*
X54153Y-55346D03*
X42795Y-55080D03*
X53829Y-55710D03*
X43879Y-67059D03*
X44100Y-53750D03*
X44629Y-50750D03*
X48398Y-66885D03*
X77973Y-68737D03*
X57522Y-65749D03*
X51957Y-64353D03*
X58277Y-68280D03*
X49464Y-68657D03*
X54825Y-55736D03*
X48133Y-64779D03*
X54577Y-67803D03*
X49301Y-66282D03*
X52011Y-62250D03*
X51029Y-63200D03*
X46145Y-67222D03*
X44300Y-59559D03*
X50060Y-67222D03*
X51280Y-67048D03*
X48725Y-59910D03*
X49700Y-57150D03*
X47279Y-59279D03*
X47975Y-58260D03*
X50000Y-69890D03*
X45110Y-68815D03*
X44940Y-62065D03*
X50063Y-64991D03*
X50611Y-55779D03*
X58188Y-69517D03*
X50670Y-62879D03*
G54D26*
X73600Y-58700D03*
X86400Y-63600D03*
X87500Y-56000D03*
X79100Y-58600D03*
G54D27*
X69500Y-71500D03*
X72000Y-71500D03*
X50709Y-61840D03*
X53940Y-63359D03*
X53959Y-64229D03*
X47829Y-63050D03*
X46400Y-62729D03*
X50250Y-58109D03*
X48029Y-55409D03*
X45350Y-57950D03*
X46650Y-58550D03*
X45209Y-56770D03*
X49050Y-55679D03*
X50579Y-57679D03*
X52579Y-54620D03*
X52050Y-54470D03*
X59890Y-52359D03*
X58970Y-52279D03*
X60920Y-57350D03*
X61950Y-57350D03*
X63500Y-56300D03*
X59100Y-60090D03*
X81520Y-72390D03*
X79440Y-72390D03*
X77429Y-72390D03*
X57700Y-63700D03*
X62420Y-65179D03*
X55170Y-71529D03*
X44520Y-72370D03*
X42670Y-68929D03*
X42840Y-66359D03*
X42629Y-63879D03*
X52259Y-58079D03*
X54659Y-48779D03*
X91979Y-41879D03*
X92929Y-41079D03*
X86729Y-40809D03*
X79650Y-42150D03*
X78490Y-42909D03*
X69190Y-42400D03*
X63040Y-45879D03*
X56129Y-47250D03*
X55359Y-48090D03*
X58670Y-45440D03*
X56359Y-45429D03*
X99209Y-53190D03*
X99240Y-58420D03*
X82440Y-66340D03*
X77400Y-66059D03*
X71900Y-66140D03*
X46640Y-46379D03*
X46120Y-45979D03*
X45179Y-45579D03*
X41600Y-51100D03*
X78120Y-65120D03*
X71159Y-64679D03*
X73640Y-64540D03*
X84879Y-62740D03*
X83359Y-62740D03*
X83740Y-64440D03*
X81800Y-64979D03*
X83000Y-65100D03*
X83159Y-64500D03*
X82420Y-65200D03*
X81640Y-64379D03*
X79779Y-62579D03*
X79059Y-64579D03*
X77040Y-63459D03*
X76740Y-64300D03*
X77400Y-65259D03*
X78420Y-64600D03*
X71240Y-63820D03*
X72559Y-65159D03*
X71679Y-65420D03*
X72800Y-64540D03*
X72620Y-63420D03*
X74640Y-63500D03*
X93540Y-73240D03*
X93000Y-72040D03*
X91279Y-73300D03*
X89340Y-67040D03*
X98459Y-68840D03*
X95020Y-62720D03*
X90200Y-67620D03*
X88940Y-67659D03*
X87259Y-66240D03*
X86240Y-64959D03*
X87879Y-65340D03*
X89159Y-59120D03*
X90040Y-59159D03*
X94940Y-57779D03*
X95100Y-59600D03*
X91479Y-56640D03*
X87579Y-58179D03*
X92320Y-48079D03*
X93340Y-47300D03*
X93479Y-46720D03*
X92240Y-44579D03*
X90740Y-44579D03*
X88420Y-47059D03*
X88240Y-64779D03*
X87740Y-64659D03*
X88779Y-64800D03*
X89500Y-64720D03*
X50677Y-65125D03*
X84186Y-70573D03*
X83713Y-43806D03*
X64200Y-45013D03*
X63002Y-42452D03*
X53438Y-60845D03*
X80229Y-51140D03*
X67940Y-50659D03*
X68029Y-51240D03*
X75329Y-51050D03*
X54031Y-61903D03*
X70100Y-51450D03*
X68829Y-53250D03*
X94679Y-69759D03*
X94779Y-68540D03*
X94079Y-69820D03*
X94271Y-68544D03*
X56850Y-68120D03*
X45550Y-68609D03*
X90279Y-57459D03*
X93820Y-61879D03*
X88820Y-60140D03*
X89079Y-48279D03*
X47000Y-67920D03*
X53420Y-67790D03*
X53784Y-67464D03*
X47592Y-67866D03*
X54511Y-62006D03*
G54D25*
X62900Y-44100D03*
G54D27*
X49750Y-53750D03*
X51500Y-51750D03*
X47310Y-55455D03*
X48015Y-58905D03*
X51279Y-61879D03*
X52600Y-63100D03*
X54229Y-64900D03*
X49420Y-63550D03*
X50600Y-56809D03*
X50129Y-55750D03*
X49600Y-58279D03*
X45220Y-57279D03*
X56420Y-48979D03*
X57679Y-48970D03*
X60709Y-51109D03*
X58290Y-51200D03*
X56500Y-64720D03*
X63759Y-60079D03*
X82850Y-72240D03*
X80800Y-72359D03*
X78779Y-72140D03*
X53129Y-70879D03*
X46640Y-70700D03*
X44090Y-70629D03*
X40990Y-68200D03*
X41100Y-65709D03*
X40990Y-60540D03*
X40990Y-59490D03*
X40979Y-58559D03*
X40990Y-56490D03*
X40990Y-57490D03*
X52320Y-49059D03*
X57050Y-49020D03*
X57529Y-49640D03*
X56340Y-49640D03*
X56729Y-51470D03*
X55800Y-50570D03*
X93500Y-71000D03*
X91700Y-66820D03*
X93900Y-62700D03*
X91759Y-67479D03*
X91900Y-59320D03*
X93400Y-59620D03*
X88200Y-58479D03*
X90220Y-48159D03*
X90720Y-45359D03*
X87400Y-49520D03*
X51340Y-65121D03*
G54D28*
X51400Y-45600D02*
X50800Y-46200D01*
X50800Y-45000D02*
X51400Y-45600D01*
X51400Y-45600D02*
X50000Y-45600D01*
X90720Y-46276D02*
X90720Y-45359D01*
G54D10*
G36*
X99450Y-73450D02*
X98909Y-73450D01*
X98909Y-68751D01*
X98841Y-68585D01*
X98715Y-68458D01*
X98549Y-68390D01*
X98370Y-68390D01*
X98205Y-68458D01*
X98078Y-68584D01*
X98009Y-68750D01*
X98009Y-68929D01*
X98078Y-69094D01*
X98204Y-69221D01*
X98369Y-69290D01*
X98548Y-69290D01*
X98714Y-69221D01*
X98841Y-69095D01*
X98909Y-68930D01*
X98909Y-68751D01*
X98909Y-73450D01*
X96050Y-73450D01*
X96050Y-70011D01*
X96060Y-69986D01*
X96060Y-69807D01*
X96050Y-69781D01*
X96050Y-46000D01*
X96167Y-45951D01*
X96350Y-45768D01*
X96449Y-45529D01*
X96450Y-45271D01*
X96351Y-45032D01*
X96168Y-44849D01*
X95929Y-44750D01*
X95671Y-44749D01*
X95432Y-44848D01*
X95249Y-45031D01*
X95150Y-45270D01*
X95149Y-45450D01*
X94843Y-45450D01*
X94987Y-45390D01*
X95113Y-45264D01*
X95182Y-45098D01*
X95182Y-44919D01*
X95114Y-44754D01*
X94987Y-44627D01*
X94822Y-44559D01*
X94643Y-44558D01*
X94478Y-44627D01*
X94351Y-44753D01*
X94282Y-44919D01*
X94282Y-45098D01*
X94350Y-45263D01*
X94477Y-45390D01*
X94621Y-45450D01*
X93549Y-45450D01*
X93549Y-42265D01*
X93549Y-41635D01*
X93511Y-41543D01*
X93441Y-41473D01*
X93349Y-41435D01*
X93249Y-41434D01*
X93211Y-41434D01*
X93311Y-41335D01*
X93379Y-41169D01*
X93379Y-40990D01*
X93311Y-40825D01*
X93185Y-40698D01*
X93019Y-40629D01*
X92840Y-40629D01*
X92675Y-40698D01*
X92548Y-40824D01*
X92479Y-40990D01*
X92479Y-41169D01*
X92548Y-41334D01*
X92648Y-41434D01*
X92619Y-41434D01*
X92527Y-41472D01*
X92457Y-41543D01*
X92419Y-41635D01*
X92419Y-41734D01*
X92419Y-41764D01*
X92361Y-41625D01*
X92235Y-41498D01*
X92069Y-41429D01*
X91890Y-41429D01*
X91725Y-41498D01*
X91598Y-41624D01*
X91535Y-41777D01*
X91494Y-41680D01*
X91336Y-41521D01*
X91128Y-41435D01*
X90903Y-41434D01*
X90696Y-41520D01*
X90537Y-41679D01*
X90450Y-41887D01*
X90450Y-42111D01*
X90536Y-42319D01*
X90695Y-42478D01*
X90902Y-42564D01*
X91127Y-42565D01*
X91335Y-42479D01*
X91494Y-42320D01*
X91580Y-42112D01*
X91580Y-42091D01*
X91598Y-42134D01*
X91724Y-42261D01*
X91890Y-42329D01*
X92069Y-42329D01*
X92234Y-42261D01*
X92361Y-42135D01*
X92419Y-41995D01*
X92419Y-42364D01*
X92457Y-42456D01*
X92527Y-42526D01*
X92619Y-42564D01*
X92718Y-42565D01*
X93348Y-42565D01*
X93440Y-42527D01*
X93511Y-42456D01*
X93549Y-42364D01*
X93549Y-42265D01*
X93549Y-45450D01*
X92690Y-45450D01*
X92690Y-44490D01*
X92621Y-44325D01*
X92495Y-44198D01*
X92330Y-44129D01*
X92151Y-44129D01*
X91985Y-44198D01*
X91858Y-44324D01*
X91790Y-44490D01*
X91790Y-44669D01*
X91858Y-44834D01*
X91984Y-44961D01*
X92150Y-45029D01*
X92329Y-45029D01*
X92494Y-44961D01*
X92621Y-44835D01*
X92690Y-44669D01*
X92690Y-44490D01*
X92690Y-45450D01*
X91169Y-45450D01*
X91170Y-45449D01*
X91170Y-45270D01*
X91101Y-45105D01*
X90975Y-44978D01*
X90964Y-44974D01*
X90994Y-44961D01*
X91121Y-44835D01*
X91190Y-44669D01*
X91190Y-44490D01*
X91121Y-44325D01*
X90995Y-44198D01*
X90830Y-44129D01*
X90651Y-44129D01*
X90485Y-44198D01*
X90358Y-44324D01*
X90290Y-44490D01*
X90290Y-44669D01*
X90358Y-44834D01*
X90484Y-44961D01*
X90495Y-44965D01*
X90465Y-44978D01*
X90338Y-45104D01*
X90270Y-45269D01*
X90270Y-45448D01*
X90270Y-45450D01*
X88025Y-45450D01*
X88025Y-45396D01*
X87945Y-45203D01*
X87797Y-45055D01*
X87604Y-44975D01*
X87396Y-44974D01*
X87203Y-45054D01*
X87055Y-45202D01*
X86975Y-45395D01*
X86975Y-45450D01*
X85525Y-45450D01*
X85525Y-45396D01*
X85445Y-45203D01*
X85297Y-45055D01*
X85104Y-44975D01*
X84896Y-44974D01*
X84703Y-45054D01*
X84555Y-45202D01*
X84475Y-45395D01*
X84475Y-45450D01*
X84163Y-45450D01*
X84163Y-43717D01*
X84095Y-43551D01*
X83968Y-43424D01*
X83803Y-43356D01*
X83718Y-43356D01*
X83718Y-42875D01*
X83718Y-42363D01*
X83718Y-41537D01*
X83718Y-41025D01*
X83680Y-40933D01*
X83610Y-40862D01*
X83518Y-40824D01*
X83418Y-40824D01*
X82907Y-40824D01*
X82815Y-40862D01*
X82744Y-40933D01*
X82706Y-41024D01*
X82706Y-41124D01*
X82706Y-41636D01*
X82744Y-41728D01*
X82814Y-41798D01*
X82906Y-41836D01*
X83006Y-41836D01*
X83518Y-41836D01*
X83609Y-41798D01*
X83680Y-41728D01*
X83718Y-41636D01*
X83718Y-41537D01*
X83718Y-42363D01*
X83680Y-42271D01*
X83610Y-42201D01*
X83518Y-42163D01*
X83418Y-42163D01*
X82907Y-42163D01*
X82815Y-42201D01*
X82744Y-42271D01*
X82706Y-42363D01*
X82706Y-42462D01*
X82706Y-42974D01*
X82744Y-43066D01*
X82814Y-43137D01*
X82906Y-43175D01*
X83006Y-43175D01*
X83518Y-43175D01*
X83609Y-43137D01*
X83680Y-43066D01*
X83718Y-42975D01*
X83718Y-42875D01*
X83718Y-43356D01*
X83624Y-43356D01*
X83458Y-43424D01*
X83332Y-43550D01*
X83263Y-43716D01*
X83263Y-43895D01*
X83331Y-44060D01*
X83458Y-44187D01*
X83623Y-44256D01*
X83802Y-44256D01*
X83967Y-44187D01*
X84094Y-44061D01*
X84163Y-43896D01*
X84163Y-43717D01*
X84163Y-45450D01*
X83950Y-45450D01*
X83950Y-47450D01*
X82872Y-47450D01*
X82872Y-44612D01*
X82783Y-44397D01*
X82619Y-44232D01*
X82404Y-44143D01*
X82222Y-44143D01*
X82222Y-43544D01*
X82222Y-43033D01*
X82222Y-42206D01*
X82222Y-41694D01*
X82184Y-41602D01*
X82114Y-41532D01*
X82022Y-41494D01*
X81922Y-41494D01*
X81411Y-41494D01*
X81319Y-41532D01*
X81248Y-41602D01*
X81210Y-41694D01*
X81210Y-41793D01*
X81210Y-42305D01*
X81248Y-42397D01*
X81318Y-42467D01*
X81410Y-42505D01*
X81510Y-42505D01*
X82021Y-42505D01*
X82113Y-42467D01*
X82184Y-42397D01*
X82222Y-42305D01*
X82222Y-42206D01*
X82222Y-43033D01*
X82184Y-42941D01*
X82114Y-42870D01*
X82022Y-42832D01*
X81922Y-42832D01*
X81411Y-42832D01*
X81319Y-42870D01*
X81248Y-42940D01*
X81210Y-43032D01*
X81210Y-43132D01*
X81210Y-43643D01*
X81248Y-43735D01*
X81318Y-43806D01*
X81410Y-43844D01*
X81510Y-43844D01*
X82021Y-43844D01*
X82113Y-43806D01*
X82184Y-43736D01*
X82222Y-43644D01*
X82222Y-43544D01*
X82222Y-44143D01*
X82171Y-44143D01*
X81956Y-44232D01*
X81792Y-44396D01*
X81702Y-44611D01*
X81702Y-44844D01*
X81791Y-45059D01*
X81955Y-45223D01*
X82170Y-45312D01*
X82403Y-45313D01*
X82618Y-45224D01*
X82782Y-45059D01*
X82871Y-44845D01*
X82872Y-44612D01*
X82872Y-47450D01*
X80285Y-47450D01*
X80297Y-47445D01*
X80444Y-47297D01*
X80524Y-47104D01*
X80525Y-46896D01*
X80445Y-46703D01*
X80297Y-46555D01*
X80104Y-46475D01*
X80100Y-46475D01*
X80100Y-42060D01*
X80031Y-41895D01*
X79905Y-41768D01*
X79739Y-41700D01*
X79560Y-41699D01*
X79395Y-41768D01*
X79268Y-41894D01*
X79200Y-42060D01*
X79199Y-42239D01*
X79268Y-42404D01*
X79394Y-42531D01*
X79560Y-42599D01*
X79739Y-42600D01*
X79904Y-42531D01*
X80031Y-42405D01*
X80099Y-42239D01*
X80100Y-42060D01*
X80100Y-46475D01*
X79896Y-46474D01*
X79703Y-46554D01*
X79555Y-46702D01*
X79499Y-46835D01*
X79445Y-46703D01*
X79297Y-46555D01*
X79104Y-46475D01*
X78940Y-46474D01*
X78940Y-42820D01*
X78871Y-42655D01*
X78745Y-42528D01*
X78580Y-42459D01*
X78505Y-42459D01*
X78505Y-41730D01*
X78505Y-41218D01*
X78467Y-41126D01*
X78397Y-41055D01*
X78305Y-41017D01*
X78206Y-41017D01*
X77694Y-41017D01*
X77602Y-41055D01*
X77532Y-41125D01*
X77494Y-41217D01*
X77494Y-41317D01*
X77494Y-41829D01*
X77532Y-41920D01*
X77602Y-41991D01*
X77694Y-42029D01*
X77793Y-42029D01*
X78305Y-42029D01*
X78397Y-41991D01*
X78467Y-41921D01*
X78505Y-41829D01*
X78505Y-41730D01*
X78505Y-42459D01*
X78401Y-42459D01*
X78235Y-42528D01*
X78108Y-42654D01*
X78040Y-42819D01*
X78040Y-42998D01*
X78108Y-43164D01*
X78234Y-43291D01*
X78400Y-43359D01*
X78579Y-43359D01*
X78744Y-43291D01*
X78871Y-43165D01*
X78940Y-42999D01*
X78940Y-42820D01*
X78940Y-46474D01*
X78896Y-46474D01*
X78703Y-46554D01*
X78555Y-46702D01*
X78525Y-46773D01*
X78525Y-44372D01*
X78445Y-44179D01*
X78298Y-44031D01*
X78105Y-43950D01*
X77895Y-43950D01*
X77702Y-44030D01*
X77554Y-44178D01*
X77474Y-44371D01*
X77474Y-44580D01*
X77554Y-44773D01*
X77701Y-44921D01*
X77894Y-45001D01*
X78104Y-45002D01*
X78297Y-44922D01*
X78445Y-44774D01*
X78525Y-44581D01*
X78525Y-44372D01*
X78525Y-46773D01*
X78475Y-46895D01*
X78474Y-47103D01*
X78554Y-47297D01*
X78702Y-47444D01*
X78714Y-47450D01*
X76785Y-47450D01*
X76797Y-47445D01*
X76944Y-47297D01*
X77024Y-47104D01*
X77025Y-46896D01*
X76945Y-46703D01*
X76797Y-46555D01*
X76604Y-46475D01*
X76396Y-46474D01*
X76203Y-46554D01*
X76055Y-46702D01*
X75999Y-46835D01*
X75945Y-46703D01*
X75797Y-46555D01*
X75604Y-46475D01*
X75396Y-46474D01*
X75203Y-46554D01*
X75055Y-46702D01*
X74975Y-46895D01*
X74974Y-47103D01*
X75054Y-47297D01*
X75202Y-47444D01*
X75214Y-47450D01*
X71525Y-47450D01*
X71525Y-46396D01*
X71445Y-46203D01*
X71297Y-46055D01*
X71164Y-45999D01*
X71297Y-45945D01*
X71444Y-45797D01*
X71524Y-45604D01*
X71525Y-45396D01*
X71445Y-45203D01*
X71297Y-45055D01*
X71104Y-44975D01*
X70896Y-44974D01*
X70703Y-45054D01*
X70555Y-45202D01*
X70475Y-45395D01*
X70474Y-45603D01*
X70554Y-45797D01*
X70702Y-45944D01*
X70835Y-46000D01*
X70703Y-46054D01*
X70555Y-46202D01*
X70475Y-46395D01*
X70474Y-46603D01*
X70554Y-46797D01*
X70702Y-46944D01*
X70895Y-47024D01*
X71103Y-47025D01*
X71297Y-46945D01*
X71444Y-46797D01*
X71524Y-46604D01*
X71525Y-46396D01*
X71525Y-47450D01*
X69640Y-47450D01*
X69640Y-42310D01*
X69571Y-42145D01*
X69445Y-42018D01*
X69280Y-41950D01*
X69101Y-41949D01*
X68935Y-42018D01*
X68808Y-42144D01*
X68740Y-42310D01*
X68740Y-42489D01*
X68808Y-42654D01*
X68934Y-42781D01*
X69100Y-42849D01*
X69279Y-42850D01*
X69444Y-42781D01*
X69571Y-42655D01*
X69640Y-42489D01*
X69640Y-42310D01*
X69640Y-47450D01*
X69025Y-47450D01*
X69025Y-46396D01*
X68945Y-46203D01*
X68797Y-46055D01*
X68664Y-45999D01*
X68797Y-45945D01*
X68944Y-45797D01*
X69024Y-45604D01*
X69025Y-45396D01*
X68945Y-45203D01*
X68797Y-45055D01*
X68604Y-44975D01*
X68396Y-44974D01*
X68203Y-45054D01*
X68055Y-45202D01*
X67975Y-45395D01*
X67974Y-45603D01*
X68054Y-45797D01*
X68202Y-45944D01*
X68335Y-46000D01*
X68203Y-46054D01*
X68055Y-46202D01*
X67975Y-46395D01*
X67974Y-46603D01*
X68054Y-46797D01*
X68202Y-46944D01*
X68395Y-47024D01*
X68603Y-47025D01*
X68797Y-46945D01*
X68944Y-46797D01*
X69024Y-46604D01*
X69025Y-46396D01*
X69025Y-47450D01*
X67218Y-47450D01*
X67218Y-42875D01*
X67218Y-42363D01*
X67218Y-41537D01*
X67218Y-41025D01*
X67180Y-40933D01*
X67110Y-40862D01*
X67018Y-40824D01*
X66918Y-40824D01*
X66407Y-40824D01*
X66315Y-40862D01*
X66244Y-40933D01*
X66206Y-41024D01*
X66206Y-41124D01*
X66206Y-41636D01*
X66244Y-41728D01*
X66314Y-41798D01*
X66406Y-41836D01*
X66506Y-41836D01*
X67018Y-41836D01*
X67109Y-41798D01*
X67180Y-41728D01*
X67218Y-41636D01*
X67218Y-41537D01*
X67218Y-42363D01*
X67180Y-42271D01*
X67110Y-42201D01*
X67018Y-42163D01*
X66918Y-42163D01*
X66407Y-42163D01*
X66315Y-42201D01*
X66244Y-42271D01*
X66206Y-42363D01*
X66206Y-42462D01*
X66206Y-42974D01*
X66244Y-43066D01*
X66314Y-43137D01*
X66406Y-43175D01*
X66506Y-43175D01*
X67018Y-43175D01*
X67109Y-43137D01*
X67180Y-43066D01*
X67218Y-42975D01*
X67218Y-42875D01*
X67218Y-47450D01*
X66872Y-47450D01*
X66872Y-44112D01*
X66783Y-43897D01*
X66619Y-43732D01*
X66404Y-43643D01*
X66171Y-43643D01*
X65956Y-43732D01*
X65792Y-43896D01*
X65722Y-44064D01*
X65722Y-43544D01*
X65722Y-43033D01*
X65722Y-42206D01*
X65722Y-41694D01*
X65684Y-41602D01*
X65614Y-41532D01*
X65522Y-41494D01*
X65422Y-41494D01*
X64911Y-41494D01*
X64819Y-41532D01*
X64748Y-41602D01*
X64710Y-41694D01*
X64710Y-41793D01*
X64710Y-42305D01*
X64748Y-42397D01*
X64818Y-42467D01*
X64910Y-42505D01*
X65010Y-42505D01*
X65521Y-42505D01*
X65613Y-42467D01*
X65684Y-42397D01*
X65722Y-42305D01*
X65722Y-42206D01*
X65722Y-43033D01*
X65684Y-42941D01*
X65614Y-42870D01*
X65522Y-42832D01*
X65422Y-42832D01*
X64911Y-42832D01*
X64819Y-42870D01*
X64748Y-42940D01*
X64710Y-43032D01*
X64710Y-43132D01*
X64710Y-43643D01*
X64748Y-43735D01*
X64818Y-43806D01*
X64910Y-43844D01*
X65010Y-43844D01*
X65521Y-43844D01*
X65613Y-43806D01*
X65684Y-43736D01*
X65722Y-43644D01*
X65722Y-43544D01*
X65722Y-44064D01*
X65702Y-44111D01*
X65702Y-44344D01*
X65791Y-44559D01*
X65955Y-44723D01*
X66170Y-44812D01*
X66403Y-44813D01*
X66618Y-44724D01*
X66782Y-44559D01*
X66871Y-44345D01*
X66872Y-44112D01*
X66872Y-47450D01*
X66872Y-47450D01*
X66872Y-47387D01*
X66834Y-47295D01*
X66763Y-47225D01*
X66671Y-47187D01*
X66572Y-47186D01*
X65903Y-47186D01*
X65811Y-47224D01*
X65740Y-47295D01*
X65702Y-47387D01*
X65702Y-47450D01*
X64650Y-47450D01*
X64650Y-44924D01*
X64581Y-44759D01*
X64455Y-44632D01*
X64289Y-44564D01*
X64110Y-44563D01*
X63945Y-44632D01*
X63818Y-44758D01*
X63750Y-44924D01*
X63749Y-45103D01*
X63818Y-45268D01*
X63944Y-45395D01*
X64110Y-45463D01*
X64289Y-45464D01*
X64454Y-45395D01*
X64581Y-45269D01*
X64649Y-45103D01*
X64650Y-44924D01*
X64650Y-47450D01*
X64529Y-47450D01*
X64529Y-47075D01*
X64518Y-46867D01*
X64460Y-46727D01*
X64367Y-46702D01*
X64297Y-46773D01*
X64297Y-46632D01*
X64272Y-46539D01*
X64075Y-46470D01*
X63867Y-46481D01*
X63727Y-46539D01*
X63702Y-46632D01*
X64000Y-46929D01*
X64297Y-46632D01*
X64297Y-46773D01*
X64070Y-47000D01*
X64367Y-47297D01*
X64460Y-47272D01*
X64529Y-47075D01*
X64529Y-47450D01*
X64275Y-47450D01*
X64297Y-47367D01*
X64000Y-47070D01*
X63702Y-47367D01*
X63724Y-47450D01*
X63285Y-47450D01*
X63297Y-47445D01*
X63444Y-47297D01*
X63497Y-47171D01*
X63539Y-47272D01*
X63632Y-47297D01*
X63929Y-47000D01*
X63632Y-46702D01*
X63550Y-46724D01*
X63550Y-43971D01*
X63452Y-43735D01*
X63452Y-42363D01*
X63384Y-42197D01*
X63257Y-42071D01*
X63092Y-42002D01*
X62913Y-42002D01*
X62747Y-42070D01*
X62621Y-42197D01*
X62552Y-42362D01*
X62552Y-42541D01*
X62620Y-42706D01*
X62747Y-42833D01*
X62912Y-42902D01*
X63091Y-42902D01*
X63257Y-42834D01*
X63383Y-42707D01*
X63452Y-42542D01*
X63452Y-42363D01*
X63452Y-43735D01*
X63451Y-43732D01*
X63268Y-43549D01*
X63029Y-43450D01*
X62771Y-43449D01*
X62532Y-43548D01*
X62349Y-43731D01*
X62250Y-43970D01*
X62249Y-44228D01*
X62348Y-44467D01*
X62531Y-44650D01*
X62770Y-44749D01*
X63028Y-44750D01*
X63267Y-44651D01*
X63450Y-44468D01*
X63549Y-44229D01*
X63550Y-43971D01*
X63550Y-46724D01*
X63539Y-46727D01*
X63500Y-46837D01*
X63490Y-46811D01*
X63490Y-45790D01*
X63421Y-45625D01*
X63295Y-45498D01*
X63130Y-45429D01*
X62951Y-45429D01*
X62785Y-45498D01*
X62658Y-45624D01*
X62590Y-45790D01*
X62590Y-45969D01*
X62658Y-46134D01*
X62784Y-46261D01*
X62950Y-46329D01*
X63129Y-46329D01*
X63294Y-46261D01*
X63421Y-46135D01*
X63490Y-45969D01*
X63490Y-45790D01*
X63490Y-46811D01*
X63445Y-46703D01*
X63297Y-46555D01*
X63104Y-46475D01*
X62896Y-46474D01*
X62703Y-46554D01*
X62555Y-46702D01*
X62475Y-46895D01*
X62474Y-47103D01*
X62554Y-47297D01*
X62702Y-47444D01*
X62714Y-47450D01*
X62030Y-47450D01*
X62030Y-44552D01*
X62019Y-44343D01*
X62005Y-44311D01*
X62005Y-41730D01*
X62005Y-41218D01*
X61967Y-41126D01*
X61897Y-41055D01*
X61805Y-41017D01*
X61706Y-41017D01*
X61194Y-41017D01*
X61102Y-41055D01*
X61032Y-41125D01*
X60994Y-41217D01*
X60994Y-41317D01*
X60994Y-41829D01*
X61032Y-41920D01*
X61102Y-41991D01*
X61194Y-42029D01*
X61293Y-42029D01*
X61805Y-42029D01*
X61897Y-41991D01*
X61967Y-41921D01*
X62005Y-41829D01*
X62005Y-41730D01*
X62005Y-44311D01*
X61961Y-44203D01*
X61868Y-44178D01*
X61797Y-44249D01*
X61797Y-44108D01*
X61773Y-44015D01*
X61575Y-43945D01*
X61367Y-43957D01*
X61226Y-44015D01*
X61202Y-44108D01*
X61500Y-44405D01*
X61797Y-44108D01*
X61797Y-44249D01*
X61570Y-44476D01*
X61868Y-44773D01*
X61961Y-44749D01*
X62030Y-44552D01*
X62030Y-47450D01*
X61797Y-47450D01*
X61797Y-44844D01*
X61500Y-44547D01*
X61429Y-44617D01*
X61429Y-44476D01*
X61131Y-44178D01*
X61038Y-44203D01*
X60969Y-44400D01*
X60980Y-44609D01*
X61038Y-44749D01*
X61131Y-44773D01*
X61429Y-44476D01*
X61429Y-44617D01*
X61202Y-44844D01*
X61226Y-44937D01*
X61424Y-45006D01*
X61632Y-44995D01*
X61773Y-44937D01*
X61797Y-44844D01*
X61797Y-47450D01*
X61529Y-47450D01*
X61529Y-47075D01*
X61518Y-46867D01*
X61460Y-46727D01*
X61367Y-46702D01*
X61297Y-46773D01*
X61297Y-46632D01*
X61272Y-46539D01*
X61075Y-46470D01*
X60867Y-46481D01*
X60727Y-46539D01*
X60702Y-46632D01*
X61000Y-46929D01*
X61297Y-46632D01*
X61297Y-46773D01*
X61070Y-47000D01*
X61367Y-47297D01*
X61460Y-47272D01*
X61529Y-47075D01*
X61529Y-47450D01*
X61275Y-47450D01*
X61297Y-47367D01*
X61000Y-47070D01*
X60702Y-47367D01*
X60724Y-47450D01*
X60285Y-47450D01*
X60297Y-47445D01*
X60444Y-47297D01*
X60497Y-47171D01*
X60539Y-47272D01*
X60632Y-47297D01*
X60929Y-47000D01*
X60632Y-46702D01*
X60539Y-46727D01*
X60500Y-46837D01*
X60445Y-46703D01*
X60297Y-46555D01*
X60104Y-46475D01*
X59896Y-46474D01*
X59703Y-46554D01*
X59555Y-46702D01*
X59475Y-46895D01*
X59474Y-47103D01*
X59554Y-47297D01*
X59702Y-47444D01*
X59714Y-47450D01*
X59120Y-47450D01*
X59120Y-45351D01*
X59051Y-45185D01*
X58925Y-45058D01*
X58759Y-44990D01*
X58580Y-44990D01*
X58415Y-45058D01*
X58288Y-45184D01*
X58220Y-45350D01*
X58220Y-45529D01*
X58288Y-45694D01*
X58414Y-45821D01*
X58580Y-45890D01*
X58759Y-45890D01*
X58924Y-45821D01*
X59051Y-45695D01*
X59120Y-45530D01*
X59120Y-45351D01*
X59120Y-47450D01*
X56809Y-47450D01*
X56809Y-45340D01*
X56741Y-45175D01*
X56615Y-45048D01*
X56449Y-44979D01*
X56270Y-44979D01*
X56105Y-45048D01*
X55978Y-45174D01*
X55909Y-45340D01*
X55909Y-45519D01*
X55978Y-45684D01*
X56104Y-45811D01*
X56269Y-45879D01*
X56448Y-45879D01*
X56614Y-45811D01*
X56741Y-45685D01*
X56809Y-45519D01*
X56809Y-45340D01*
X56809Y-47450D01*
X56534Y-47450D01*
X56579Y-47339D01*
X56579Y-47160D01*
X56511Y-46995D01*
X56385Y-46868D01*
X56219Y-46800D01*
X56040Y-46799D01*
X55875Y-46868D01*
X55748Y-46994D01*
X55679Y-47160D01*
X55679Y-47339D01*
X55725Y-47450D01*
X55300Y-47450D01*
X55300Y-43700D01*
X48200Y-43700D01*
X48200Y-47450D01*
X47090Y-47450D01*
X47090Y-46290D01*
X47021Y-46125D01*
X46895Y-45998D01*
X46730Y-45929D01*
X46570Y-45929D01*
X46570Y-45890D01*
X46501Y-45725D01*
X46375Y-45598D01*
X46209Y-45529D01*
X46030Y-45529D01*
X45865Y-45598D01*
X45738Y-45724D01*
X45670Y-45890D01*
X45670Y-46069D01*
X45738Y-46234D01*
X45864Y-46361D01*
X46030Y-46429D01*
X46190Y-46429D01*
X46190Y-46469D01*
X46258Y-46634D01*
X46384Y-46761D01*
X46550Y-46829D01*
X46729Y-46829D01*
X46894Y-46761D01*
X47021Y-46635D01*
X47090Y-46469D01*
X47090Y-46290D01*
X47090Y-47450D01*
X46450Y-47450D01*
X46450Y-54950D01*
X45629Y-54950D01*
X45629Y-45490D01*
X45561Y-45325D01*
X45435Y-45198D01*
X45269Y-45129D01*
X45090Y-45129D01*
X44925Y-45198D01*
X44798Y-45324D01*
X44729Y-45490D01*
X44729Y-45669D01*
X44798Y-45834D01*
X44924Y-45961D01*
X45090Y-46029D01*
X45269Y-46029D01*
X45434Y-45961D01*
X45561Y-45835D01*
X45629Y-45669D01*
X45629Y-45490D01*
X45629Y-54950D01*
X45079Y-54950D01*
X45079Y-50660D01*
X45011Y-50495D01*
X44885Y-50368D01*
X44719Y-50300D01*
X44540Y-50299D01*
X44375Y-50368D01*
X44248Y-50494D01*
X44179Y-50660D01*
X44179Y-50839D01*
X44248Y-51004D01*
X44374Y-51131D01*
X44540Y-51199D01*
X44719Y-51200D01*
X44884Y-51131D01*
X45011Y-51005D01*
X45079Y-50839D01*
X45079Y-50660D01*
X45079Y-54950D01*
X43228Y-54950D01*
X43176Y-54825D01*
X43170Y-54819D01*
X43199Y-54791D01*
X43257Y-54651D01*
X43268Y-54677D01*
X43394Y-54804D01*
X43560Y-54872D01*
X43739Y-54873D01*
X43904Y-54804D01*
X44031Y-54678D01*
X44099Y-54512D01*
X44100Y-54333D01*
X44044Y-54199D01*
X44189Y-54200D01*
X44354Y-54131D01*
X44481Y-54005D01*
X44549Y-53839D01*
X44550Y-53660D01*
X44481Y-53495D01*
X44355Y-53368D01*
X44189Y-53300D01*
X44010Y-53299D01*
X43845Y-53368D01*
X43718Y-53494D01*
X43650Y-53660D01*
X43649Y-53839D01*
X43705Y-53973D01*
X43560Y-53972D01*
X43557Y-53974D01*
X43527Y-53901D01*
X43401Y-53774D01*
X43235Y-53706D01*
X43056Y-53705D01*
X42891Y-53774D01*
X42764Y-53900D01*
X42696Y-54066D01*
X42696Y-54099D01*
X42563Y-54154D01*
X42436Y-54280D01*
X42368Y-54446D01*
X42367Y-54625D01*
X42436Y-54790D01*
X42442Y-54796D01*
X42413Y-54824D01*
X42361Y-54950D01*
X42050Y-54950D01*
X42050Y-51010D01*
X41981Y-50845D01*
X41855Y-50718D01*
X41689Y-50650D01*
X41510Y-50649D01*
X41345Y-50718D01*
X41218Y-50844D01*
X41150Y-51010D01*
X41149Y-51189D01*
X41218Y-51354D01*
X41344Y-51481D01*
X41510Y-51549D01*
X41689Y-51550D01*
X41854Y-51481D01*
X41981Y-51355D01*
X42049Y-51189D01*
X42050Y-51010D01*
X42050Y-54950D01*
X40550Y-54950D01*
X40550Y-41679D01*
X40840Y-41799D01*
X41158Y-41800D01*
X41452Y-41678D01*
X41677Y-41453D01*
X41799Y-41159D01*
X41800Y-40841D01*
X41679Y-40550D01*
X57070Y-40550D01*
X56950Y-40840D01*
X56949Y-41158D01*
X57071Y-41452D01*
X57296Y-41677D01*
X57590Y-41799D01*
X57908Y-41800D01*
X58202Y-41678D01*
X58427Y-41453D01*
X58549Y-41159D01*
X58550Y-40841D01*
X58429Y-40550D01*
X64710Y-40550D01*
X64710Y-40966D01*
X64748Y-41058D01*
X64818Y-41129D01*
X64910Y-41167D01*
X65010Y-41167D01*
X65521Y-41167D01*
X65613Y-41129D01*
X65684Y-41059D01*
X65722Y-40967D01*
X65722Y-40867D01*
X65722Y-40550D01*
X73820Y-40550D01*
X73700Y-40840D01*
X73699Y-41158D01*
X73821Y-41452D01*
X74046Y-41677D01*
X74340Y-41799D01*
X74658Y-41800D01*
X74952Y-41678D01*
X75177Y-41453D01*
X75299Y-41159D01*
X75300Y-40841D01*
X75179Y-40550D01*
X81210Y-40550D01*
X81210Y-40966D01*
X81248Y-41058D01*
X81318Y-41129D01*
X81410Y-41167D01*
X81510Y-41167D01*
X82021Y-41167D01*
X82113Y-41129D01*
X82184Y-41059D01*
X82222Y-40967D01*
X82222Y-40867D01*
X82222Y-40550D01*
X86353Y-40550D01*
X86348Y-40554D01*
X86279Y-40719D01*
X86279Y-40898D01*
X86348Y-41064D01*
X86474Y-41191D01*
X86640Y-41259D01*
X86819Y-41259D01*
X86984Y-41191D01*
X87111Y-41065D01*
X87179Y-40899D01*
X87179Y-40720D01*
X87111Y-40555D01*
X87106Y-40550D01*
X97482Y-40550D01*
X97473Y-40558D01*
X97435Y-40650D01*
X97434Y-40750D01*
X97434Y-41380D01*
X97472Y-41472D01*
X97543Y-41542D01*
X97635Y-41580D01*
X97734Y-41580D01*
X98364Y-41580D01*
X98456Y-41542D01*
X98526Y-41472D01*
X98564Y-41380D01*
X98565Y-41281D01*
X98565Y-40651D01*
X98527Y-40559D01*
X98517Y-40550D01*
X99450Y-40550D01*
X99450Y-52802D01*
X99299Y-52740D01*
X99120Y-52740D01*
X99045Y-52771D01*
X99045Y-47892D01*
X99045Y-46514D01*
X98962Y-46313D01*
X98809Y-46160D01*
X98608Y-46076D01*
X98565Y-46076D01*
X98565Y-42872D01*
X98479Y-42664D01*
X98320Y-42505D01*
X98112Y-42419D01*
X97888Y-42419D01*
X97680Y-42505D01*
X97521Y-42663D01*
X97435Y-42871D01*
X97434Y-43096D01*
X97520Y-43303D01*
X97679Y-43462D01*
X97887Y-43549D01*
X98111Y-43549D01*
X98319Y-43463D01*
X98478Y-43304D01*
X98564Y-43097D01*
X98565Y-42872D01*
X98565Y-46076D01*
X98392Y-46076D01*
X98191Y-46159D01*
X98038Y-46312D01*
X97954Y-46513D01*
X97954Y-46730D01*
X98037Y-46930D01*
X98190Y-47084D01*
X98391Y-47167D01*
X98607Y-47167D01*
X98808Y-47084D01*
X98961Y-46931D01*
X99045Y-46730D01*
X99045Y-46514D01*
X99045Y-47892D01*
X98962Y-47691D01*
X98809Y-47538D01*
X98608Y-47454D01*
X98392Y-47454D01*
X98191Y-47537D01*
X98038Y-47690D01*
X97954Y-47891D01*
X97954Y-48107D01*
X98037Y-48308D01*
X98190Y-48461D01*
X98391Y-48545D01*
X98607Y-48545D01*
X98808Y-48462D01*
X98961Y-48309D01*
X99045Y-48108D01*
X99045Y-47892D01*
X99045Y-52771D01*
X99045Y-52771D01*
X99045Y-49623D01*
X99045Y-49033D01*
X99007Y-48941D01*
X98937Y-48870D01*
X98845Y-48832D01*
X98745Y-48832D01*
X98155Y-48832D01*
X98063Y-48870D01*
X97992Y-48940D01*
X97954Y-49032D01*
X97954Y-49132D01*
X97954Y-49722D01*
X97992Y-49814D01*
X98062Y-49885D01*
X98154Y-49923D01*
X98254Y-49923D01*
X98844Y-49923D01*
X98936Y-49885D01*
X99007Y-49815D01*
X99045Y-49723D01*
X99045Y-49623D01*
X99045Y-52771D01*
X98955Y-52808D01*
X98828Y-52934D01*
X98759Y-53100D01*
X98759Y-53279D01*
X98828Y-53444D01*
X98954Y-53571D01*
X99119Y-53640D01*
X99298Y-53640D01*
X99450Y-53577D01*
X99450Y-58019D01*
X99330Y-57970D01*
X99151Y-57970D01*
X98985Y-58038D01*
X98858Y-58164D01*
X98790Y-58330D01*
X98790Y-58509D01*
X98858Y-58674D01*
X98984Y-58801D01*
X99150Y-58870D01*
X99329Y-58870D01*
X99450Y-58820D01*
X99450Y-73450D01*
X99450Y-73450D01*
G37*
G54D29*
X99450Y-73450D02*
X98909Y-73450D01*
X98909Y-68751D01*
X98841Y-68585D01*
X98715Y-68458D01*
X98549Y-68390D01*
X98370Y-68390D01*
X98205Y-68458D01*
X98078Y-68584D01*
X98009Y-68750D01*
X98009Y-68929D01*
X98078Y-69094D01*
X98204Y-69221D01*
X98369Y-69290D01*
X98548Y-69290D01*
X98714Y-69221D01*
X98841Y-69095D01*
X98909Y-68930D01*
X98909Y-68751D01*
X98909Y-73450D01*
X96050Y-73450D01*
X96050Y-70011D01*
X96060Y-69986D01*
X96060Y-69807D01*
X96050Y-69781D01*
X96050Y-46000D01*
X96167Y-45951D01*
X96350Y-45768D01*
X96449Y-45529D01*
X96450Y-45271D01*
X96351Y-45032D01*
X96168Y-44849D01*
X95929Y-44750D01*
X95671Y-44749D01*
X95432Y-44848D01*
X95249Y-45031D01*
X95150Y-45270D01*
X95149Y-45450D01*
X94843Y-45450D01*
X94987Y-45390D01*
X95113Y-45264D01*
X95182Y-45098D01*
X95182Y-44919D01*
X95114Y-44754D01*
X94987Y-44627D01*
X94822Y-44559D01*
X94643Y-44558D01*
X94478Y-44627D01*
X94351Y-44753D01*
X94282Y-44919D01*
X94282Y-45098D01*
X94350Y-45263D01*
X94477Y-45390D01*
X94621Y-45450D01*
X93549Y-45450D01*
X93549Y-42265D01*
X93549Y-41635D01*
X93511Y-41543D01*
X93441Y-41473D01*
X93349Y-41435D01*
X93249Y-41434D01*
X93211Y-41434D01*
X93311Y-41335D01*
X93379Y-41169D01*
X93379Y-40990D01*
X93311Y-40825D01*
X93185Y-40698D01*
X93019Y-40629D01*
X92840Y-40629D01*
X92675Y-40698D01*
X92548Y-40824D01*
X92479Y-40990D01*
X92479Y-41169D01*
X92548Y-41334D01*
X92648Y-41434D01*
X92619Y-41434D01*
X92527Y-41472D01*
X92457Y-41543D01*
X92419Y-41635D01*
X92419Y-41734D01*
X92419Y-41764D01*
X92361Y-41625D01*
X92235Y-41498D01*
X92069Y-41429D01*
X91890Y-41429D01*
X91725Y-41498D01*
X91598Y-41624D01*
X91535Y-41777D01*
X91494Y-41680D01*
X91336Y-41521D01*
X91128Y-41435D01*
X90903Y-41434D01*
X90696Y-41520D01*
X90537Y-41679D01*
X90450Y-41887D01*
X90450Y-42111D01*
X90536Y-42319D01*
X90695Y-42478D01*
X90902Y-42564D01*
X91127Y-42565D01*
X91335Y-42479D01*
X91494Y-42320D01*
X91580Y-42112D01*
X91580Y-42091D01*
X91598Y-42134D01*
X91724Y-42261D01*
X91890Y-42329D01*
X92069Y-42329D01*
X92234Y-42261D01*
X92361Y-42135D01*
X92419Y-41995D01*
X92419Y-42364D01*
X92457Y-42456D01*
X92527Y-42526D01*
X92619Y-42564D01*
X92718Y-42565D01*
X93348Y-42565D01*
X93440Y-42527D01*
X93511Y-42456D01*
X93549Y-42364D01*
X93549Y-42265D01*
X93549Y-45450D01*
X92690Y-45450D01*
X92690Y-44490D01*
X92621Y-44325D01*
X92495Y-44198D01*
X92330Y-44129D01*
X92151Y-44129D01*
X91985Y-44198D01*
X91858Y-44324D01*
X91790Y-44490D01*
X91790Y-44669D01*
X91858Y-44834D01*
X91984Y-44961D01*
X92150Y-45029D01*
X92329Y-45029D01*
X92494Y-44961D01*
X92621Y-44835D01*
X92690Y-44669D01*
X92690Y-44490D01*
X92690Y-45450D01*
X91169Y-45450D01*
X91170Y-45449D01*
X91170Y-45270D01*
X91101Y-45105D01*
X90975Y-44978D01*
X90964Y-44974D01*
X90994Y-44961D01*
X91121Y-44835D01*
X91190Y-44669D01*
X91190Y-44490D01*
X91121Y-44325D01*
X90995Y-44198D01*
X90830Y-44129D01*
X90651Y-44129D01*
X90485Y-44198D01*
X90358Y-44324D01*
X90290Y-44490D01*
X90290Y-44669D01*
X90358Y-44834D01*
X90484Y-44961D01*
X90495Y-44965D01*
X90465Y-44978D01*
X90338Y-45104D01*
X90270Y-45269D01*
X90270Y-45448D01*
X90270Y-45450D01*
X88025Y-45450D01*
X88025Y-45396D01*
X87945Y-45203D01*
X87797Y-45055D01*
X87604Y-44975D01*
X87396Y-44974D01*
X87203Y-45054D01*
X87055Y-45202D01*
X86975Y-45395D01*
X86975Y-45450D01*
X85525Y-45450D01*
X85525Y-45396D01*
X85445Y-45203D01*
X85297Y-45055D01*
X85104Y-44975D01*
X84896Y-44974D01*
X84703Y-45054D01*
X84555Y-45202D01*
X84475Y-45395D01*
X84475Y-45450D01*
X84163Y-45450D01*
X84163Y-43717D01*
X84095Y-43551D01*
X83968Y-43424D01*
X83803Y-43356D01*
X83718Y-43356D01*
X83718Y-42875D01*
X83718Y-42363D01*
X83718Y-41537D01*
X83718Y-41025D01*
X83680Y-40933D01*
X83610Y-40862D01*
X83518Y-40824D01*
X83418Y-40824D01*
X82907Y-40824D01*
X82815Y-40862D01*
X82744Y-40933D01*
X82706Y-41024D01*
X82706Y-41124D01*
X82706Y-41636D01*
X82744Y-41728D01*
X82814Y-41798D01*
X82906Y-41836D01*
X83006Y-41836D01*
X83518Y-41836D01*
X83609Y-41798D01*
X83680Y-41728D01*
X83718Y-41636D01*
X83718Y-41537D01*
X83718Y-42363D01*
X83680Y-42271D01*
X83610Y-42201D01*
X83518Y-42163D01*
X83418Y-42163D01*
X82907Y-42163D01*
X82815Y-42201D01*
X82744Y-42271D01*
X82706Y-42363D01*
X82706Y-42462D01*
X82706Y-42974D01*
X82744Y-43066D01*
X82814Y-43137D01*
X82906Y-43175D01*
X83006Y-43175D01*
X83518Y-43175D01*
X83609Y-43137D01*
X83680Y-43066D01*
X83718Y-42975D01*
X83718Y-42875D01*
X83718Y-43356D01*
X83624Y-43356D01*
X83458Y-43424D01*
X83332Y-43550D01*
X83263Y-43716D01*
X83263Y-43895D01*
X83331Y-44060D01*
X83458Y-44187D01*
X83623Y-44256D01*
X83802Y-44256D01*
X83967Y-44187D01*
X84094Y-44061D01*
X84163Y-43896D01*
X84163Y-43717D01*
X84163Y-45450D01*
X83950Y-45450D01*
X83950Y-47450D01*
X82872Y-47450D01*
X82872Y-44612D01*
X82783Y-44397D01*
X82619Y-44232D01*
X82404Y-44143D01*
X82222Y-44143D01*
X82222Y-43544D01*
X82222Y-43033D01*
X82222Y-42206D01*
X82222Y-41694D01*
X82184Y-41602D01*
X82114Y-41532D01*
X82022Y-41494D01*
X81922Y-41494D01*
X81411Y-41494D01*
X81319Y-41532D01*
X81248Y-41602D01*
X81210Y-41694D01*
X81210Y-41793D01*
X81210Y-42305D01*
X81248Y-42397D01*
X81318Y-42467D01*
X81410Y-42505D01*
X81510Y-42505D01*
X82021Y-42505D01*
X82113Y-42467D01*
X82184Y-42397D01*
X82222Y-42305D01*
X82222Y-42206D01*
X82222Y-43033D01*
X82184Y-42941D01*
X82114Y-42870D01*
X82022Y-42832D01*
X81922Y-42832D01*
X81411Y-42832D01*
X81319Y-42870D01*
X81248Y-42940D01*
X81210Y-43032D01*
X81210Y-43132D01*
X81210Y-43643D01*
X81248Y-43735D01*
X81318Y-43806D01*
X81410Y-43844D01*
X81510Y-43844D01*
X82021Y-43844D01*
X82113Y-43806D01*
X82184Y-43736D01*
X82222Y-43644D01*
X82222Y-43544D01*
X82222Y-44143D01*
X82171Y-44143D01*
X81956Y-44232D01*
X81792Y-44396D01*
X81702Y-44611D01*
X81702Y-44844D01*
X81791Y-45059D01*
X81955Y-45223D01*
X82170Y-45312D01*
X82403Y-45313D01*
X82618Y-45224D01*
X82782Y-45059D01*
X82871Y-44845D01*
X82872Y-44612D01*
X82872Y-47450D01*
X80285Y-47450D01*
X80297Y-47445D01*
X80444Y-47297D01*
X80524Y-47104D01*
X80525Y-46896D01*
X80445Y-46703D01*
X80297Y-46555D01*
X80104Y-46475D01*
X80100Y-46475D01*
X80100Y-42060D01*
X80031Y-41895D01*
X79905Y-41768D01*
X79739Y-41700D01*
X79560Y-41699D01*
X79395Y-41768D01*
X79268Y-41894D01*
X79200Y-42060D01*
X79199Y-42239D01*
X79268Y-42404D01*
X79394Y-42531D01*
X79560Y-42599D01*
X79739Y-42600D01*
X79904Y-42531D01*
X80031Y-42405D01*
X80099Y-42239D01*
X80100Y-42060D01*
X80100Y-46475D01*
X79896Y-46474D01*
X79703Y-46554D01*
X79555Y-46702D01*
X79499Y-46835D01*
X79445Y-46703D01*
X79297Y-46555D01*
X79104Y-46475D01*
X78940Y-46474D01*
X78940Y-42820D01*
X78871Y-42655D01*
X78745Y-42528D01*
X78580Y-42459D01*
X78505Y-42459D01*
X78505Y-41730D01*
X78505Y-41218D01*
X78467Y-41126D01*
X78397Y-41055D01*
X78305Y-41017D01*
X78206Y-41017D01*
X77694Y-41017D01*
X77602Y-41055D01*
X77532Y-41125D01*
X77494Y-41217D01*
X77494Y-41317D01*
X77494Y-41829D01*
X77532Y-41920D01*
X77602Y-41991D01*
X77694Y-42029D01*
X77793Y-42029D01*
X78305Y-42029D01*
X78397Y-41991D01*
X78467Y-41921D01*
X78505Y-41829D01*
X78505Y-41730D01*
X78505Y-42459D01*
X78401Y-42459D01*
X78235Y-42528D01*
X78108Y-42654D01*
X78040Y-42819D01*
X78040Y-42998D01*
X78108Y-43164D01*
X78234Y-43291D01*
X78400Y-43359D01*
X78579Y-43359D01*
X78744Y-43291D01*
X78871Y-43165D01*
X78940Y-42999D01*
X78940Y-42820D01*
X78940Y-46474D01*
X78896Y-46474D01*
X78703Y-46554D01*
X78555Y-46702D01*
X78525Y-46773D01*
X78525Y-44372D01*
X78445Y-44179D01*
X78298Y-44031D01*
X78105Y-43950D01*
X77895Y-43950D01*
X77702Y-44030D01*
X77554Y-44178D01*
X77474Y-44371D01*
X77474Y-44580D01*
X77554Y-44773D01*
X77701Y-44921D01*
X77894Y-45001D01*
X78104Y-45002D01*
X78297Y-44922D01*
X78445Y-44774D01*
X78525Y-44581D01*
X78525Y-44372D01*
X78525Y-46773D01*
X78475Y-46895D01*
X78474Y-47103D01*
X78554Y-47297D01*
X78702Y-47444D01*
X78714Y-47450D01*
X76785Y-47450D01*
X76797Y-47445D01*
X76944Y-47297D01*
X77024Y-47104D01*
X77025Y-46896D01*
X76945Y-46703D01*
X76797Y-46555D01*
X76604Y-46475D01*
X76396Y-46474D01*
X76203Y-46554D01*
X76055Y-46702D01*
X75999Y-46835D01*
X75945Y-46703D01*
X75797Y-46555D01*
X75604Y-46475D01*
X75396Y-46474D01*
X75203Y-46554D01*
X75055Y-46702D01*
X74975Y-46895D01*
X74974Y-47103D01*
X75054Y-47297D01*
X75202Y-47444D01*
X75214Y-47450D01*
X71525Y-47450D01*
X71525Y-46396D01*
X71445Y-46203D01*
X71297Y-46055D01*
X71164Y-45999D01*
X71297Y-45945D01*
X71444Y-45797D01*
X71524Y-45604D01*
X71525Y-45396D01*
X71445Y-45203D01*
X71297Y-45055D01*
X71104Y-44975D01*
X70896Y-44974D01*
X70703Y-45054D01*
X70555Y-45202D01*
X70475Y-45395D01*
X70474Y-45603D01*
X70554Y-45797D01*
X70702Y-45944D01*
X70835Y-46000D01*
X70703Y-46054D01*
X70555Y-46202D01*
X70475Y-46395D01*
X70474Y-46603D01*
X70554Y-46797D01*
X70702Y-46944D01*
X70895Y-47024D01*
X71103Y-47025D01*
X71297Y-46945D01*
X71444Y-46797D01*
X71524Y-46604D01*
X71525Y-46396D01*
X71525Y-47450D01*
X69640Y-47450D01*
X69640Y-42310D01*
X69571Y-42145D01*
X69445Y-42018D01*
X69280Y-41950D01*
X69101Y-41949D01*
X68935Y-42018D01*
X68808Y-42144D01*
X68740Y-42310D01*
X68740Y-42489D01*
X68808Y-42654D01*
X68934Y-42781D01*
X69100Y-42849D01*
X69279Y-42850D01*
X69444Y-42781D01*
X69571Y-42655D01*
X69640Y-42489D01*
X69640Y-42310D01*
X69640Y-47450D01*
X69025Y-47450D01*
X69025Y-46396D01*
X68945Y-46203D01*
X68797Y-46055D01*
X68664Y-45999D01*
X68797Y-45945D01*
X68944Y-45797D01*
X69024Y-45604D01*
X69025Y-45396D01*
X68945Y-45203D01*
X68797Y-45055D01*
X68604Y-44975D01*
X68396Y-44974D01*
X68203Y-45054D01*
X68055Y-45202D01*
X67975Y-45395D01*
X67974Y-45603D01*
X68054Y-45797D01*
X68202Y-45944D01*
X68335Y-46000D01*
X68203Y-46054D01*
X68055Y-46202D01*
X67975Y-46395D01*
X67974Y-46603D01*
X68054Y-46797D01*
X68202Y-46944D01*
X68395Y-47024D01*
X68603Y-47025D01*
X68797Y-46945D01*
X68944Y-46797D01*
X69024Y-46604D01*
X69025Y-46396D01*
X69025Y-47450D01*
X67218Y-47450D01*
X67218Y-42875D01*
X67218Y-42363D01*
X67218Y-41537D01*
X67218Y-41025D01*
X67180Y-40933D01*
X67110Y-40862D01*
X67018Y-40824D01*
X66918Y-40824D01*
X66407Y-40824D01*
X66315Y-40862D01*
X66244Y-40933D01*
X66206Y-41024D01*
X66206Y-41124D01*
X66206Y-41636D01*
X66244Y-41728D01*
X66314Y-41798D01*
X66406Y-41836D01*
X66506Y-41836D01*
X67018Y-41836D01*
X67109Y-41798D01*
X67180Y-41728D01*
X67218Y-41636D01*
X67218Y-41537D01*
X67218Y-42363D01*
X67180Y-42271D01*
X67110Y-42201D01*
X67018Y-42163D01*
X66918Y-42163D01*
X66407Y-42163D01*
X66315Y-42201D01*
X66244Y-42271D01*
X66206Y-42363D01*
X66206Y-42462D01*
X66206Y-42974D01*
X66244Y-43066D01*
X66314Y-43137D01*
X66406Y-43175D01*
X66506Y-43175D01*
X67018Y-43175D01*
X67109Y-43137D01*
X67180Y-43066D01*
X67218Y-42975D01*
X67218Y-42875D01*
X67218Y-47450D01*
X66872Y-47450D01*
X66872Y-44112D01*
X66783Y-43897D01*
X66619Y-43732D01*
X66404Y-43643D01*
X66171Y-43643D01*
X65956Y-43732D01*
X65792Y-43896D01*
X65722Y-44064D01*
X65722Y-43544D01*
X65722Y-43033D01*
X65722Y-42206D01*
X65722Y-41694D01*
X65684Y-41602D01*
X65614Y-41532D01*
X65522Y-41494D01*
X65422Y-41494D01*
X64911Y-41494D01*
X64819Y-41532D01*
X64748Y-41602D01*
X64710Y-41694D01*
X64710Y-41793D01*
X64710Y-42305D01*
X64748Y-42397D01*
X64818Y-42467D01*
X64910Y-42505D01*
X65010Y-42505D01*
X65521Y-42505D01*
X65613Y-42467D01*
X65684Y-42397D01*
X65722Y-42305D01*
X65722Y-42206D01*
X65722Y-43033D01*
X65684Y-42941D01*
X65614Y-42870D01*
X65522Y-42832D01*
X65422Y-42832D01*
X64911Y-42832D01*
X64819Y-42870D01*
X64748Y-42940D01*
X64710Y-43032D01*
X64710Y-43132D01*
X64710Y-43643D01*
X64748Y-43735D01*
X64818Y-43806D01*
X64910Y-43844D01*
X65010Y-43844D01*
X65521Y-43844D01*
X65613Y-43806D01*
X65684Y-43736D01*
X65722Y-43644D01*
X65722Y-43544D01*
X65722Y-44064D01*
X65702Y-44111D01*
X65702Y-44344D01*
X65791Y-44559D01*
X65955Y-44723D01*
X66170Y-44812D01*
X66403Y-44813D01*
X66618Y-44724D01*
X66782Y-44559D01*
X66871Y-44345D01*
X66872Y-44112D01*
X66872Y-47450D01*
X66872Y-47450D01*
X66872Y-47387D01*
X66834Y-47295D01*
X66763Y-47225D01*
X66671Y-47187D01*
X66572Y-47186D01*
X65903Y-47186D01*
X65811Y-47224D01*
X65740Y-47295D01*
X65702Y-47387D01*
X65702Y-47450D01*
X64650Y-47450D01*
X64650Y-44924D01*
X64581Y-44759D01*
X64455Y-44632D01*
X64289Y-44564D01*
X64110Y-44563D01*
X63945Y-44632D01*
X63818Y-44758D01*
X63750Y-44924D01*
X63749Y-45103D01*
X63818Y-45268D01*
X63944Y-45395D01*
X64110Y-45463D01*
X64289Y-45464D01*
X64454Y-45395D01*
X64581Y-45269D01*
X64649Y-45103D01*
X64650Y-44924D01*
X64650Y-47450D01*
X64529Y-47450D01*
X64529Y-47075D01*
X64518Y-46867D01*
X64460Y-46727D01*
X64367Y-46702D01*
X64297Y-46773D01*
X64297Y-46632D01*
X64272Y-46539D01*
X64075Y-46470D01*
X63867Y-46481D01*
X63727Y-46539D01*
X63702Y-46632D01*
X64000Y-46929D01*
X64297Y-46632D01*
X64297Y-46773D01*
X64070Y-47000D01*
X64367Y-47297D01*
X64460Y-47272D01*
X64529Y-47075D01*
X64529Y-47450D01*
X64275Y-47450D01*
X64297Y-47367D01*
X64000Y-47070D01*
X63702Y-47367D01*
X63724Y-47450D01*
X63285Y-47450D01*
X63297Y-47445D01*
X63444Y-47297D01*
X63497Y-47171D01*
X63539Y-47272D01*
X63632Y-47297D01*
X63929Y-47000D01*
X63632Y-46702D01*
X63550Y-46724D01*
X63550Y-43971D01*
X63452Y-43735D01*
X63452Y-42363D01*
X63384Y-42197D01*
X63257Y-42071D01*
X63092Y-42002D01*
X62913Y-42002D01*
X62747Y-42070D01*
X62621Y-42197D01*
X62552Y-42362D01*
X62552Y-42541D01*
X62620Y-42706D01*
X62747Y-42833D01*
X62912Y-42902D01*
X63091Y-42902D01*
X63257Y-42834D01*
X63383Y-42707D01*
X63452Y-42542D01*
X63452Y-42363D01*
X63452Y-43735D01*
X63451Y-43732D01*
X63268Y-43549D01*
X63029Y-43450D01*
X62771Y-43449D01*
X62532Y-43548D01*
X62349Y-43731D01*
X62250Y-43970D01*
X62249Y-44228D01*
X62348Y-44467D01*
X62531Y-44650D01*
X62770Y-44749D01*
X63028Y-44750D01*
X63267Y-44651D01*
X63450Y-44468D01*
X63549Y-44229D01*
X63550Y-43971D01*
X63550Y-46724D01*
X63539Y-46727D01*
X63500Y-46837D01*
X63490Y-46811D01*
X63490Y-45790D01*
X63421Y-45625D01*
X63295Y-45498D01*
X63130Y-45429D01*
X62951Y-45429D01*
X62785Y-45498D01*
X62658Y-45624D01*
X62590Y-45790D01*
X62590Y-45969D01*
X62658Y-46134D01*
X62784Y-46261D01*
X62950Y-46329D01*
X63129Y-46329D01*
X63294Y-46261D01*
X63421Y-46135D01*
X63490Y-45969D01*
X63490Y-45790D01*
X63490Y-46811D01*
X63445Y-46703D01*
X63297Y-46555D01*
X63104Y-46475D01*
X62896Y-46474D01*
X62703Y-46554D01*
X62555Y-46702D01*
X62475Y-46895D01*
X62474Y-47103D01*
X62554Y-47297D01*
X62702Y-47444D01*
X62714Y-47450D01*
X62030Y-47450D01*
X62030Y-44552D01*
X62019Y-44343D01*
X62005Y-44311D01*
X62005Y-41730D01*
X62005Y-41218D01*
X61967Y-41126D01*
X61897Y-41055D01*
X61805Y-41017D01*
X61706Y-41017D01*
X61194Y-41017D01*
X61102Y-41055D01*
X61032Y-41125D01*
X60994Y-41217D01*
X60994Y-41317D01*
X60994Y-41829D01*
X61032Y-41920D01*
X61102Y-41991D01*
X61194Y-42029D01*
X61293Y-42029D01*
X61805Y-42029D01*
X61897Y-41991D01*
X61967Y-41921D01*
X62005Y-41829D01*
X62005Y-41730D01*
X62005Y-44311D01*
X61961Y-44203D01*
X61868Y-44178D01*
X61797Y-44249D01*
X61797Y-44108D01*
X61773Y-44015D01*
X61575Y-43945D01*
X61367Y-43957D01*
X61226Y-44015D01*
X61202Y-44108D01*
X61500Y-44405D01*
X61797Y-44108D01*
X61797Y-44249D01*
X61570Y-44476D01*
X61868Y-44773D01*
X61961Y-44749D01*
X62030Y-44552D01*
X62030Y-47450D01*
X61797Y-47450D01*
X61797Y-44844D01*
X61500Y-44547D01*
X61429Y-44617D01*
X61429Y-44476D01*
X61131Y-44178D01*
X61038Y-44203D01*
X60969Y-44400D01*
X60980Y-44609D01*
X61038Y-44749D01*
X61131Y-44773D01*
X61429Y-44476D01*
X61429Y-44617D01*
X61202Y-44844D01*
X61226Y-44937D01*
X61424Y-45006D01*
X61632Y-44995D01*
X61773Y-44937D01*
X61797Y-44844D01*
X61797Y-47450D01*
X61529Y-47450D01*
X61529Y-47075D01*
X61518Y-46867D01*
X61460Y-46727D01*
X61367Y-46702D01*
X61297Y-46773D01*
X61297Y-46632D01*
X61272Y-46539D01*
X61075Y-46470D01*
X60867Y-46481D01*
X60727Y-46539D01*
X60702Y-46632D01*
X61000Y-46929D01*
X61297Y-46632D01*
X61297Y-46773D01*
X61070Y-47000D01*
X61367Y-47297D01*
X61460Y-47272D01*
X61529Y-47075D01*
X61529Y-47450D01*
X61275Y-47450D01*
X61297Y-47367D01*
X61000Y-47070D01*
X60702Y-47367D01*
X60724Y-47450D01*
X60285Y-47450D01*
X60297Y-47445D01*
X60444Y-47297D01*
X60497Y-47171D01*
X60539Y-47272D01*
X60632Y-47297D01*
X60929Y-47000D01*
X60632Y-46702D01*
X60539Y-46727D01*
X60500Y-46837D01*
X60445Y-46703D01*
X60297Y-46555D01*
X60104Y-46475D01*
X59896Y-46474D01*
X59703Y-46554D01*
X59555Y-46702D01*
X59475Y-46895D01*
X59474Y-47103D01*
X59554Y-47297D01*
X59702Y-47444D01*
X59714Y-47450D01*
X59120Y-47450D01*
X59120Y-45351D01*
X59051Y-45185D01*
X58925Y-45058D01*
X58759Y-44990D01*
X58580Y-44990D01*
X58415Y-45058D01*
X58288Y-45184D01*
X58220Y-45350D01*
X58220Y-45529D01*
X58288Y-45694D01*
X58414Y-45821D01*
X58580Y-45890D01*
X58759Y-45890D01*
X58924Y-45821D01*
X59051Y-45695D01*
X59120Y-45530D01*
X59120Y-45351D01*
X59120Y-47450D01*
X56809Y-47450D01*
X56809Y-45340D01*
X56741Y-45175D01*
X56615Y-45048D01*
X56449Y-44979D01*
X56270Y-44979D01*
X56105Y-45048D01*
X55978Y-45174D01*
X55909Y-45340D01*
X55909Y-45519D01*
X55978Y-45684D01*
X56104Y-45811D01*
X56269Y-45879D01*
X56448Y-45879D01*
X56614Y-45811D01*
X56741Y-45685D01*
X56809Y-45519D01*
X56809Y-45340D01*
X56809Y-47450D01*
X56534Y-47450D01*
X56579Y-47339D01*
X56579Y-47160D01*
X56511Y-46995D01*
X56385Y-46868D01*
X56219Y-46800D01*
X56040Y-46799D01*
X55875Y-46868D01*
X55748Y-46994D01*
X55679Y-47160D01*
X55679Y-47339D01*
X55725Y-47450D01*
X55300Y-47450D01*
X55300Y-43700D01*
X48200Y-43700D01*
X48200Y-47450D01*
X47090Y-47450D01*
X47090Y-46290D01*
X47021Y-46125D01*
X46895Y-45998D01*
X46730Y-45929D01*
X46570Y-45929D01*
X46570Y-45890D01*
X46501Y-45725D01*
X46375Y-45598D01*
X46209Y-45529D01*
X46030Y-45529D01*
X45865Y-45598D01*
X45738Y-45724D01*
X45670Y-45890D01*
X45670Y-46069D01*
X45738Y-46234D01*
X45864Y-46361D01*
X46030Y-46429D01*
X46190Y-46429D01*
X46190Y-46469D01*
X46258Y-46634D01*
X46384Y-46761D01*
X46550Y-46829D01*
X46729Y-46829D01*
X46894Y-46761D01*
X47021Y-46635D01*
X47090Y-46469D01*
X47090Y-46290D01*
X47090Y-47450D01*
X46450Y-47450D01*
X46450Y-54950D01*
X45629Y-54950D01*
X45629Y-45490D01*
X45561Y-45325D01*
X45435Y-45198D01*
X45269Y-45129D01*
X45090Y-45129D01*
X44925Y-45198D01*
X44798Y-45324D01*
X44729Y-45490D01*
X44729Y-45669D01*
X44798Y-45834D01*
X44924Y-45961D01*
X45090Y-46029D01*
X45269Y-46029D01*
X45434Y-45961D01*
X45561Y-45835D01*
X45629Y-45669D01*
X45629Y-45490D01*
X45629Y-54950D01*
X45079Y-54950D01*
X45079Y-50660D01*
X45011Y-50495D01*
X44885Y-50368D01*
X44719Y-50300D01*
X44540Y-50299D01*
X44375Y-50368D01*
X44248Y-50494D01*
X44179Y-50660D01*
X44179Y-50839D01*
X44248Y-51004D01*
X44374Y-51131D01*
X44540Y-51199D01*
X44719Y-51200D01*
X44884Y-51131D01*
X45011Y-51005D01*
X45079Y-50839D01*
X45079Y-50660D01*
X45079Y-54950D01*
X43228Y-54950D01*
X43176Y-54825D01*
X43170Y-54819D01*
X43199Y-54791D01*
X43257Y-54651D01*
X43268Y-54677D01*
X43394Y-54804D01*
X43560Y-54872D01*
X43739Y-54873D01*
X43904Y-54804D01*
X44031Y-54678D01*
X44099Y-54512D01*
X44100Y-54333D01*
X44044Y-54199D01*
X44189Y-54200D01*
X44354Y-54131D01*
X44481Y-54005D01*
X44549Y-53839D01*
X44550Y-53660D01*
X44481Y-53495D01*
X44355Y-53368D01*
X44189Y-53300D01*
X44010Y-53299D01*
X43845Y-53368D01*
X43718Y-53494D01*
X43650Y-53660D01*
X43649Y-53839D01*
X43705Y-53973D01*
X43560Y-53972D01*
X43557Y-53974D01*
X43527Y-53901D01*
X43401Y-53774D01*
X43235Y-53706D01*
X43056Y-53705D01*
X42891Y-53774D01*
X42764Y-53900D01*
X42696Y-54066D01*
X42696Y-54099D01*
X42563Y-54154D01*
X42436Y-54280D01*
X42368Y-54446D01*
X42367Y-54625D01*
X42436Y-54790D01*
X42442Y-54796D01*
X42413Y-54824D01*
X42361Y-54950D01*
X42050Y-54950D01*
X42050Y-51010D01*
X41981Y-50845D01*
X41855Y-50718D01*
X41689Y-50650D01*
X41510Y-50649D01*
X41345Y-50718D01*
X41218Y-50844D01*
X41150Y-51010D01*
X41149Y-51189D01*
X41218Y-51354D01*
X41344Y-51481D01*
X41510Y-51549D01*
X41689Y-51550D01*
X41854Y-51481D01*
X41981Y-51355D01*
X42049Y-51189D01*
X42050Y-51010D01*
X42050Y-54950D01*
X40550Y-54950D01*
X40550Y-41679D01*
X40840Y-41799D01*
X41158Y-41800D01*
X41452Y-41678D01*
X41677Y-41453D01*
X41799Y-41159D01*
X41800Y-40841D01*
X41679Y-40550D01*
X57070Y-40550D01*
X56950Y-40840D01*
X56949Y-41158D01*
X57071Y-41452D01*
X57296Y-41677D01*
X57590Y-41799D01*
X57908Y-41800D01*
X58202Y-41678D01*
X58427Y-41453D01*
X58549Y-41159D01*
X58550Y-40841D01*
X58429Y-40550D01*
X64710Y-40550D01*
X64710Y-40966D01*
X64748Y-41058D01*
X64818Y-41129D01*
X64910Y-41167D01*
X65010Y-41167D01*
X65521Y-41167D01*
X65613Y-41129D01*
X65684Y-41059D01*
X65722Y-40967D01*
X65722Y-40867D01*
X65722Y-40550D01*
X73820Y-40550D01*
X73700Y-40840D01*
X73699Y-41158D01*
X73821Y-41452D01*
X74046Y-41677D01*
X74340Y-41799D01*
X74658Y-41800D01*
X74952Y-41678D01*
X75177Y-41453D01*
X75299Y-41159D01*
X75300Y-40841D01*
X75179Y-40550D01*
X81210Y-40550D01*
X81210Y-40966D01*
X81248Y-41058D01*
X81318Y-41129D01*
X81410Y-41167D01*
X81510Y-41167D01*
X82021Y-41167D01*
X82113Y-41129D01*
X82184Y-41059D01*
X82222Y-40967D01*
X82222Y-40867D01*
X82222Y-40550D01*
X86353Y-40550D01*
X86348Y-40554D01*
X86279Y-40719D01*
X86279Y-40898D01*
X86348Y-41064D01*
X86474Y-41191D01*
X86640Y-41259D01*
X86819Y-41259D01*
X86984Y-41191D01*
X87111Y-41065D01*
X87179Y-40899D01*
X87179Y-40720D01*
X87111Y-40555D01*
X87106Y-40550D01*
X97482Y-40550D01*
X97473Y-40558D01*
X97435Y-40650D01*
X97434Y-40750D01*
X97434Y-41380D01*
X97472Y-41472D01*
X97543Y-41542D01*
X97635Y-41580D01*
X97734Y-41580D01*
X98364Y-41580D01*
X98456Y-41542D01*
X98526Y-41472D01*
X98564Y-41380D01*
X98565Y-41281D01*
X98565Y-40651D01*
X98527Y-40559D01*
X98517Y-40550D01*
X99450Y-40550D01*
X99450Y-52802D01*
X99299Y-52740D01*
X99120Y-52740D01*
X99045Y-52771D01*
X99045Y-47892D01*
X99045Y-46514D01*
X98962Y-46313D01*
X98809Y-46160D01*
X98608Y-46076D01*
X98565Y-46076D01*
X98565Y-42872D01*
X98479Y-42664D01*
X98320Y-42505D01*
X98112Y-42419D01*
X97888Y-42419D01*
X97680Y-42505D01*
X97521Y-42663D01*
X97435Y-42871D01*
X97434Y-43096D01*
X97520Y-43303D01*
X97679Y-43462D01*
X97887Y-43549D01*
X98111Y-43549D01*
X98319Y-43463D01*
X98478Y-43304D01*
X98564Y-43097D01*
X98565Y-42872D01*
X98565Y-46076D01*
X98392Y-46076D01*
X98191Y-46159D01*
X98038Y-46312D01*
X97954Y-46513D01*
X97954Y-46730D01*
X98037Y-46930D01*
X98190Y-47084D01*
X98391Y-47167D01*
X98607Y-47167D01*
X98808Y-47084D01*
X98961Y-46931D01*
X99045Y-46730D01*
X99045Y-46514D01*
X99045Y-47892D01*
X98962Y-47691D01*
X98809Y-47538D01*
X98608Y-47454D01*
X98392Y-47454D01*
X98191Y-47537D01*
X98038Y-47690D01*
X97954Y-47891D01*
X97954Y-48107D01*
X98037Y-48308D01*
X98190Y-48461D01*
X98391Y-48545D01*
X98607Y-48545D01*
X98808Y-48462D01*
X98961Y-48309D01*
X99045Y-48108D01*
X99045Y-47892D01*
X99045Y-52771D01*
X99045Y-52771D01*
X99045Y-49623D01*
X99045Y-49033D01*
X99007Y-48941D01*
X98937Y-48870D01*
X98845Y-48832D01*
X98745Y-48832D01*
X98155Y-48832D01*
X98063Y-48870D01*
X97992Y-48940D01*
X97954Y-49032D01*
X97954Y-49132D01*
X97954Y-49722D01*
X97992Y-49814D01*
X98062Y-49885D01*
X98154Y-49923D01*
X98254Y-49923D01*
X98844Y-49923D01*
X98936Y-49885D01*
X99007Y-49815D01*
X99045Y-49723D01*
X99045Y-49623D01*
X99045Y-52771D01*
X98955Y-52808D01*
X98828Y-52934D01*
X98759Y-53100D01*
X98759Y-53279D01*
X98828Y-53444D01*
X98954Y-53571D01*
X99119Y-53640D01*
X99298Y-53640D01*
X99450Y-53577D01*
X99450Y-58019D01*
X99330Y-57970D01*
X99151Y-57970D01*
X98985Y-58038D01*
X98858Y-58164D01*
X98790Y-58330D01*
X98790Y-58509D01*
X98858Y-58674D01*
X98984Y-58801D01*
X99150Y-58870D01*
X99329Y-58870D01*
X99450Y-58820D01*
X99450Y-73450D01*
G54D10*
G36*
X95450Y-73450D02*
X95129Y-73450D01*
X95129Y-69670D01*
X95061Y-69505D01*
X94935Y-69378D01*
X94769Y-69309D01*
X94590Y-69309D01*
X94425Y-69378D01*
X94349Y-69453D01*
X94335Y-69438D01*
X94169Y-69370D01*
X93990Y-69370D01*
X93825Y-69438D01*
X93698Y-69564D01*
X93629Y-69730D01*
X93629Y-69909D01*
X93698Y-70074D01*
X93824Y-70201D01*
X93990Y-70270D01*
X94169Y-70270D01*
X94334Y-70201D01*
X94410Y-70126D01*
X94424Y-70141D01*
X94590Y-70209D01*
X94769Y-70209D01*
X94934Y-70141D01*
X95061Y-70015D01*
X95129Y-69849D01*
X95129Y-69670D01*
X95129Y-73450D01*
X93940Y-73450D01*
X93990Y-73330D01*
X93990Y-73151D01*
X93921Y-72985D01*
X93795Y-72858D01*
X93630Y-72790D01*
X93451Y-72790D01*
X93450Y-72790D01*
X93450Y-71951D01*
X93381Y-71785D01*
X93255Y-71658D01*
X93089Y-71590D01*
X92910Y-71590D01*
X92770Y-71648D01*
X92770Y-47990D01*
X92701Y-47825D01*
X92575Y-47698D01*
X92409Y-47629D01*
X92230Y-47629D01*
X92065Y-47698D01*
X91938Y-47824D01*
X91870Y-47990D01*
X91870Y-48169D01*
X91938Y-48334D01*
X92064Y-48461D01*
X92230Y-48529D01*
X92409Y-48529D01*
X92574Y-48461D01*
X92701Y-48335D01*
X92770Y-48169D01*
X92770Y-47990D01*
X92770Y-71648D01*
X92745Y-71658D01*
X92618Y-71784D01*
X92550Y-71950D01*
X92549Y-72129D01*
X92618Y-72294D01*
X92744Y-72421D01*
X92910Y-72490D01*
X93089Y-72490D01*
X93254Y-72421D01*
X93381Y-72295D01*
X93449Y-72130D01*
X93450Y-71951D01*
X93450Y-72790D01*
X93285Y-72858D01*
X93158Y-72984D01*
X93090Y-73150D01*
X93090Y-73329D01*
X93139Y-73450D01*
X91929Y-73450D01*
X91929Y-56551D01*
X91861Y-56385D01*
X91735Y-56258D01*
X91569Y-56190D01*
X91390Y-56190D01*
X91225Y-56258D01*
X91098Y-56384D01*
X91029Y-56550D01*
X91029Y-56729D01*
X91098Y-56894D01*
X91224Y-57021D01*
X91390Y-57090D01*
X91569Y-57090D01*
X91734Y-57021D01*
X91861Y-56895D01*
X91929Y-56730D01*
X91929Y-56551D01*
X91929Y-73450D01*
X91704Y-73450D01*
X91729Y-73389D01*
X91729Y-73210D01*
X91661Y-73045D01*
X91535Y-72918D01*
X91369Y-72850D01*
X91349Y-72850D01*
X91349Y-69839D01*
X91280Y-69673D01*
X91154Y-69546D01*
X90989Y-69478D01*
X90810Y-69478D01*
X90729Y-69511D01*
X90729Y-57370D01*
X90661Y-57205D01*
X90535Y-57078D01*
X90369Y-57009D01*
X90190Y-57009D01*
X90025Y-57078D01*
X89898Y-57204D01*
X89829Y-57369D01*
X89829Y-57548D01*
X89898Y-57714D01*
X90024Y-57841D01*
X90190Y-57909D01*
X90369Y-57909D01*
X90534Y-57841D01*
X90661Y-57715D01*
X90729Y-57549D01*
X90729Y-57370D01*
X90729Y-69511D01*
X90650Y-69544D01*
X90650Y-67530D01*
X90581Y-67365D01*
X90490Y-67273D01*
X90490Y-59070D01*
X90421Y-58905D01*
X90295Y-58778D01*
X90130Y-58709D01*
X89951Y-58709D01*
X89785Y-58778D01*
X89658Y-58904D01*
X89608Y-59026D01*
X89541Y-58865D01*
X89529Y-58853D01*
X89529Y-48190D01*
X89461Y-48025D01*
X89335Y-47898D01*
X89169Y-47829D01*
X88990Y-47829D01*
X88870Y-47879D01*
X88870Y-46970D01*
X88801Y-46805D01*
X88675Y-46678D01*
X88509Y-46609D01*
X88330Y-46609D01*
X88165Y-46678D01*
X88038Y-46804D01*
X87970Y-46969D01*
X87970Y-47148D01*
X88038Y-47314D01*
X88164Y-47441D01*
X88330Y-47509D01*
X88509Y-47509D01*
X88674Y-47441D01*
X88801Y-47315D01*
X88870Y-47149D01*
X88870Y-46970D01*
X88870Y-47879D01*
X88825Y-47898D01*
X88698Y-48024D01*
X88629Y-48190D01*
X88629Y-48369D01*
X88698Y-48534D01*
X88824Y-48661D01*
X88990Y-48729D01*
X89169Y-48729D01*
X89334Y-48661D01*
X89461Y-48535D01*
X89529Y-48369D01*
X89529Y-48190D01*
X89529Y-58853D01*
X89415Y-58738D01*
X89249Y-58670D01*
X89070Y-58670D01*
X88905Y-58738D01*
X88778Y-58864D01*
X88750Y-58933D01*
X88750Y-55752D01*
X88560Y-55292D01*
X88208Y-54940D01*
X87749Y-54750D01*
X87252Y-54749D01*
X86792Y-54939D01*
X86440Y-55291D01*
X86250Y-55750D01*
X86249Y-56247D01*
X86439Y-56707D01*
X86791Y-57059D01*
X87250Y-57249D01*
X87747Y-57250D01*
X88207Y-57060D01*
X88559Y-56708D01*
X88749Y-56249D01*
X88750Y-55752D01*
X88750Y-58933D01*
X88709Y-59030D01*
X88709Y-59209D01*
X88778Y-59374D01*
X88904Y-59501D01*
X89069Y-59570D01*
X89248Y-59570D01*
X89414Y-59501D01*
X89541Y-59375D01*
X89591Y-59253D01*
X89658Y-59414D01*
X89784Y-59541D01*
X89950Y-59609D01*
X90129Y-59609D01*
X90294Y-59541D01*
X90421Y-59415D01*
X90490Y-59249D01*
X90490Y-59070D01*
X90490Y-67273D01*
X90455Y-67238D01*
X90289Y-67170D01*
X90110Y-67170D01*
X89950Y-67236D01*
X89950Y-64630D01*
X89881Y-64465D01*
X89755Y-64338D01*
X89589Y-64270D01*
X89410Y-64270D01*
X89270Y-64328D01*
X89270Y-60051D01*
X89201Y-59885D01*
X89075Y-59758D01*
X88909Y-59690D01*
X88730Y-59690D01*
X88565Y-59758D01*
X88438Y-59884D01*
X88370Y-60050D01*
X88370Y-60229D01*
X88438Y-60394D01*
X88564Y-60521D01*
X88730Y-60590D01*
X88909Y-60590D01*
X89074Y-60521D01*
X89201Y-60395D01*
X89270Y-60230D01*
X89270Y-60051D01*
X89270Y-64328D01*
X89245Y-64338D01*
X89118Y-64464D01*
X89107Y-64491D01*
X89035Y-64418D01*
X88869Y-64350D01*
X88690Y-64349D01*
X88525Y-64418D01*
X88520Y-64423D01*
X88495Y-64398D01*
X88330Y-64329D01*
X88151Y-64329D01*
X88077Y-64360D01*
X88029Y-64313D01*
X88029Y-58090D01*
X87961Y-57925D01*
X87835Y-57798D01*
X87669Y-57729D01*
X87490Y-57729D01*
X87325Y-57798D01*
X87198Y-57924D01*
X87129Y-58090D01*
X87129Y-58269D01*
X87198Y-58434D01*
X87324Y-58561D01*
X87490Y-58629D01*
X87669Y-58629D01*
X87834Y-58561D01*
X87961Y-58435D01*
X88029Y-58269D01*
X88029Y-58090D01*
X88029Y-64313D01*
X87995Y-64278D01*
X87830Y-64209D01*
X87651Y-64209D01*
X87485Y-64278D01*
X87462Y-64301D01*
X87649Y-63849D01*
X87650Y-63352D01*
X87460Y-62892D01*
X87108Y-62540D01*
X87050Y-62516D01*
X87050Y-59891D01*
X86966Y-59688D01*
X86811Y-59534D01*
X86730Y-59500D01*
X86811Y-59466D01*
X86965Y-59311D01*
X87049Y-59109D01*
X87050Y-58891D01*
X86966Y-58688D01*
X86811Y-58534D01*
X86609Y-58450D01*
X86391Y-58449D01*
X86188Y-58533D01*
X86034Y-58688D01*
X85950Y-58890D01*
X85949Y-59108D01*
X86033Y-59311D01*
X86188Y-59465D01*
X86269Y-59499D01*
X86188Y-59533D01*
X86034Y-59688D01*
X85950Y-59890D01*
X85949Y-60108D01*
X86033Y-60311D01*
X86172Y-60450D01*
X86150Y-60450D01*
X86058Y-60488D01*
X85987Y-60558D01*
X85949Y-60650D01*
X85950Y-60887D01*
X86012Y-60950D01*
X86450Y-60950D01*
X86450Y-60942D01*
X86550Y-60942D01*
X86550Y-60950D01*
X86987Y-60950D01*
X87050Y-60887D01*
X87050Y-60650D01*
X87012Y-60558D01*
X86941Y-60488D01*
X86849Y-60450D01*
X86827Y-60450D01*
X86965Y-60311D01*
X87049Y-60109D01*
X87050Y-59891D01*
X87050Y-62516D01*
X87050Y-62516D01*
X87050Y-61349D01*
X87050Y-61112D01*
X86987Y-61050D01*
X86550Y-61050D01*
X86550Y-61487D01*
X86612Y-61550D01*
X86750Y-61550D01*
X86849Y-61549D01*
X86941Y-61511D01*
X87012Y-61441D01*
X87050Y-61349D01*
X87050Y-62516D01*
X86649Y-62350D01*
X86450Y-62350D01*
X86450Y-61487D01*
X86450Y-61050D01*
X86012Y-61050D01*
X85950Y-61112D01*
X85949Y-61349D01*
X85987Y-61441D01*
X86058Y-61511D01*
X86150Y-61549D01*
X86249Y-61550D01*
X86387Y-61550D01*
X86450Y-61487D01*
X86450Y-62350D01*
X86152Y-62349D01*
X85692Y-62539D01*
X85340Y-62891D01*
X85329Y-62917D01*
X85329Y-62651D01*
X85261Y-62485D01*
X85135Y-62358D01*
X84969Y-62290D01*
X84790Y-62290D01*
X84625Y-62358D01*
X84498Y-62484D01*
X84429Y-62650D01*
X84429Y-62829D01*
X84498Y-62994D01*
X84624Y-63121D01*
X84790Y-63190D01*
X84969Y-63190D01*
X85134Y-63121D01*
X85261Y-62995D01*
X85329Y-62830D01*
X85329Y-62651D01*
X85329Y-62917D01*
X85150Y-63350D01*
X85149Y-63847D01*
X85339Y-64307D01*
X85691Y-64659D01*
X85850Y-64725D01*
X85790Y-64869D01*
X85790Y-65048D01*
X85858Y-65214D01*
X85984Y-65341D01*
X86150Y-65409D01*
X86329Y-65409D01*
X86494Y-65341D01*
X86621Y-65215D01*
X86690Y-65049D01*
X86690Y-64870D01*
X86676Y-64838D01*
X87107Y-64660D01*
X87355Y-64412D01*
X87290Y-64569D01*
X87290Y-64748D01*
X87358Y-64914D01*
X87484Y-65041D01*
X87525Y-65058D01*
X87498Y-65084D01*
X87429Y-65250D01*
X87429Y-65429D01*
X87498Y-65594D01*
X87624Y-65721D01*
X87790Y-65790D01*
X87969Y-65790D01*
X88134Y-65721D01*
X88261Y-65595D01*
X88329Y-65430D01*
X88329Y-65251D01*
X88321Y-65229D01*
X88329Y-65229D01*
X88494Y-65161D01*
X88499Y-65156D01*
X88524Y-65181D01*
X88690Y-65249D01*
X88869Y-65250D01*
X89034Y-65181D01*
X89161Y-65055D01*
X89172Y-65028D01*
X89244Y-65101D01*
X89410Y-65170D01*
X89589Y-65170D01*
X89754Y-65101D01*
X89881Y-64975D01*
X89949Y-64809D01*
X89950Y-64630D01*
X89950Y-67236D01*
X89945Y-67238D01*
X89818Y-67364D01*
X89790Y-67433D01*
X89790Y-66951D01*
X89721Y-66785D01*
X89595Y-66658D01*
X89430Y-66590D01*
X89251Y-66590D01*
X89085Y-66658D01*
X88958Y-66784D01*
X88890Y-66950D01*
X88890Y-67129D01*
X88923Y-67209D01*
X88851Y-67209D01*
X88685Y-67278D01*
X88558Y-67404D01*
X88490Y-67569D01*
X88490Y-67748D01*
X88558Y-67914D01*
X88684Y-68041D01*
X88850Y-68109D01*
X89029Y-68109D01*
X89194Y-68041D01*
X89321Y-67915D01*
X89390Y-67749D01*
X89390Y-67570D01*
X89356Y-67490D01*
X89429Y-67490D01*
X89594Y-67421D01*
X89721Y-67295D01*
X89790Y-67130D01*
X89790Y-66951D01*
X89790Y-67433D01*
X89750Y-67530D01*
X89749Y-67709D01*
X89818Y-67874D01*
X89944Y-68001D01*
X90110Y-68070D01*
X90289Y-68070D01*
X90454Y-68001D01*
X90581Y-67875D01*
X90649Y-67709D01*
X90650Y-67530D01*
X90650Y-69544D01*
X90644Y-69546D01*
X90517Y-69672D01*
X90449Y-69838D01*
X90449Y-70017D01*
X90517Y-70182D01*
X90643Y-70309D01*
X90809Y-70378D01*
X90988Y-70378D01*
X91153Y-70309D01*
X91280Y-70183D01*
X91349Y-70018D01*
X91349Y-69839D01*
X91349Y-72850D01*
X91190Y-72849D01*
X91025Y-72918D01*
X90898Y-73044D01*
X90829Y-73210D01*
X90829Y-73389D01*
X90854Y-73450D01*
X87709Y-73450D01*
X87709Y-66151D01*
X87641Y-65985D01*
X87515Y-65858D01*
X87349Y-65790D01*
X87170Y-65790D01*
X87005Y-65858D01*
X86878Y-65984D01*
X86809Y-66150D01*
X86809Y-66329D01*
X86878Y-66494D01*
X87004Y-66621D01*
X87169Y-66690D01*
X87348Y-66690D01*
X87514Y-66621D01*
X87641Y-66495D01*
X87709Y-66330D01*
X87709Y-66151D01*
X87709Y-73450D01*
X84636Y-73450D01*
X84636Y-70484D01*
X84567Y-70319D01*
X84441Y-70192D01*
X84276Y-70123D01*
X84190Y-70123D01*
X84190Y-64351D01*
X84121Y-64185D01*
X83995Y-64058D01*
X83830Y-63990D01*
X83809Y-63990D01*
X83809Y-62651D01*
X83741Y-62485D01*
X83615Y-62358D01*
X83449Y-62290D01*
X83270Y-62290D01*
X83105Y-62358D01*
X82978Y-62484D01*
X82909Y-62650D01*
X82909Y-62829D01*
X82978Y-62994D01*
X83104Y-63121D01*
X83269Y-63190D01*
X83448Y-63190D01*
X83614Y-63121D01*
X83741Y-62995D01*
X83809Y-62830D01*
X83809Y-62651D01*
X83809Y-63990D01*
X83651Y-63990D01*
X83485Y-64058D01*
X83420Y-64123D01*
X83415Y-64118D01*
X83249Y-64050D01*
X83070Y-64049D01*
X82905Y-64118D01*
X82778Y-64244D01*
X82709Y-64410D01*
X82709Y-64589D01*
X82760Y-64712D01*
X82745Y-64718D01*
X82653Y-64809D01*
X82509Y-64750D01*
X82330Y-64749D01*
X82212Y-64799D01*
X82181Y-64725D01*
X82055Y-64598D01*
X82039Y-64592D01*
X82090Y-64469D01*
X82090Y-64290D01*
X82021Y-64125D01*
X81895Y-63998D01*
X81730Y-63929D01*
X81551Y-63929D01*
X81385Y-63998D01*
X81258Y-64124D01*
X81190Y-64290D01*
X81190Y-64469D01*
X81258Y-64634D01*
X81384Y-64761D01*
X81400Y-64767D01*
X81350Y-64890D01*
X81349Y-65069D01*
X81418Y-65234D01*
X81544Y-65361D01*
X81710Y-65429D01*
X81889Y-65429D01*
X82007Y-65380D01*
X82038Y-65454D01*
X82164Y-65581D01*
X82330Y-65649D01*
X82509Y-65650D01*
X82674Y-65581D01*
X82766Y-65490D01*
X82910Y-65549D01*
X83089Y-65550D01*
X83254Y-65481D01*
X83381Y-65355D01*
X83449Y-65189D01*
X83450Y-65010D01*
X83399Y-64887D01*
X83414Y-64881D01*
X83479Y-64816D01*
X83484Y-64821D01*
X83650Y-64890D01*
X83829Y-64890D01*
X83994Y-64821D01*
X84121Y-64695D01*
X84190Y-64530D01*
X84190Y-64351D01*
X84190Y-70123D01*
X84097Y-70123D01*
X83931Y-70191D01*
X83804Y-70318D01*
X83736Y-70483D01*
X83736Y-70662D01*
X83804Y-70828D01*
X83930Y-70954D01*
X84096Y-71023D01*
X84275Y-71023D01*
X84440Y-70955D01*
X84567Y-70828D01*
X84636Y-70663D01*
X84636Y-70484D01*
X84636Y-73450D01*
X82890Y-73450D01*
X82890Y-66251D01*
X82821Y-66085D01*
X82695Y-65958D01*
X82530Y-65890D01*
X82351Y-65890D01*
X82185Y-65958D01*
X82058Y-66084D01*
X81990Y-66250D01*
X81990Y-66429D01*
X82058Y-66594D01*
X82184Y-66721D01*
X82350Y-66790D01*
X82529Y-66790D01*
X82694Y-66721D01*
X82821Y-66595D01*
X82890Y-66430D01*
X82890Y-66251D01*
X82890Y-73450D01*
X81970Y-73450D01*
X81970Y-72301D01*
X81901Y-72135D01*
X81775Y-72008D01*
X81609Y-71940D01*
X81430Y-71940D01*
X81265Y-72008D01*
X81138Y-72134D01*
X81070Y-72300D01*
X81070Y-72479D01*
X81138Y-72644D01*
X81264Y-72771D01*
X81430Y-72840D01*
X81609Y-72840D01*
X81774Y-72771D01*
X81901Y-72645D01*
X81970Y-72480D01*
X81970Y-72301D01*
X81970Y-73450D01*
X80679Y-73450D01*
X80679Y-51051D01*
X80611Y-50885D01*
X80485Y-50758D01*
X80319Y-50690D01*
X80140Y-50690D01*
X79975Y-50758D01*
X79848Y-50884D01*
X79779Y-51050D01*
X79779Y-51229D01*
X79848Y-51394D01*
X79974Y-51521D01*
X80140Y-51590D01*
X80319Y-51590D01*
X80484Y-51521D01*
X80611Y-51395D01*
X80679Y-51230D01*
X80679Y-51051D01*
X80679Y-73450D01*
X80350Y-73450D01*
X80350Y-58352D01*
X80160Y-57892D01*
X79808Y-57540D01*
X79349Y-57350D01*
X78852Y-57349D01*
X78392Y-57539D01*
X78040Y-57891D01*
X77850Y-58350D01*
X77849Y-58847D01*
X78039Y-59307D01*
X78391Y-59659D01*
X78850Y-59849D01*
X79347Y-59850D01*
X79807Y-59660D01*
X80159Y-59308D01*
X80349Y-58849D01*
X80350Y-58352D01*
X80350Y-73450D01*
X80229Y-73450D01*
X80229Y-62490D01*
X80161Y-62325D01*
X80035Y-62198D01*
X79869Y-62129D01*
X79690Y-62129D01*
X79525Y-62198D01*
X79398Y-62324D01*
X79329Y-62490D01*
X79329Y-62669D01*
X79398Y-62834D01*
X79524Y-62961D01*
X79690Y-63029D01*
X79869Y-63029D01*
X80034Y-62961D01*
X80161Y-62835D01*
X80229Y-62669D01*
X80229Y-62490D01*
X80229Y-73450D01*
X79890Y-73450D01*
X79890Y-72301D01*
X79821Y-72135D01*
X79695Y-72008D01*
X79530Y-71940D01*
X79509Y-71940D01*
X79509Y-64490D01*
X79441Y-64325D01*
X79315Y-64198D01*
X79149Y-64129D01*
X78970Y-64129D01*
X78805Y-64198D01*
X78729Y-64273D01*
X78675Y-64218D01*
X78509Y-64150D01*
X78330Y-64149D01*
X78165Y-64218D01*
X78038Y-64344D01*
X77970Y-64510D01*
X77970Y-64689D01*
X77972Y-64694D01*
X77865Y-64738D01*
X77738Y-64864D01*
X77710Y-64933D01*
X77655Y-64878D01*
X77490Y-64810D01*
X77490Y-63370D01*
X77421Y-63205D01*
X77295Y-63078D01*
X77130Y-63009D01*
X76951Y-63009D01*
X76785Y-63078D01*
X76658Y-63204D01*
X76590Y-63369D01*
X76590Y-63548D01*
X76658Y-63714D01*
X76784Y-63841D01*
X76806Y-63850D01*
X76651Y-63849D01*
X76485Y-63918D01*
X76358Y-64044D01*
X76290Y-64210D01*
X76290Y-64389D01*
X76358Y-64554D01*
X76484Y-64681D01*
X76650Y-64749D01*
X76829Y-64750D01*
X76994Y-64681D01*
X77121Y-64555D01*
X77190Y-64389D01*
X77190Y-64210D01*
X77121Y-64045D01*
X76995Y-63918D01*
X76973Y-63909D01*
X77129Y-63909D01*
X77294Y-63841D01*
X77421Y-63715D01*
X77490Y-63549D01*
X77490Y-63370D01*
X77490Y-64810D01*
X77489Y-64809D01*
X77310Y-64809D01*
X77145Y-64878D01*
X77018Y-65004D01*
X76950Y-65169D01*
X76949Y-65348D01*
X77018Y-65514D01*
X77144Y-65641D01*
X77189Y-65659D01*
X77145Y-65678D01*
X77018Y-65804D01*
X76950Y-65969D01*
X76949Y-66148D01*
X77018Y-66314D01*
X77144Y-66441D01*
X77310Y-66509D01*
X77489Y-66509D01*
X77654Y-66441D01*
X77781Y-66315D01*
X77849Y-66149D01*
X77850Y-65970D01*
X77781Y-65805D01*
X77655Y-65678D01*
X77610Y-65659D01*
X77654Y-65641D01*
X77781Y-65515D01*
X77809Y-65446D01*
X77864Y-65501D01*
X78030Y-65570D01*
X78209Y-65570D01*
X78374Y-65501D01*
X78501Y-65375D01*
X78570Y-65209D01*
X78570Y-65030D01*
X78568Y-65025D01*
X78674Y-64981D01*
X78750Y-64906D01*
X78804Y-64961D01*
X78969Y-65029D01*
X79148Y-65029D01*
X79314Y-64961D01*
X79441Y-64835D01*
X79509Y-64669D01*
X79509Y-64490D01*
X79509Y-71940D01*
X79351Y-71940D01*
X79185Y-72008D01*
X79058Y-72134D01*
X78990Y-72300D01*
X78990Y-72479D01*
X79058Y-72644D01*
X79184Y-72771D01*
X79350Y-72840D01*
X79529Y-72840D01*
X79694Y-72771D01*
X79821Y-72645D01*
X79890Y-72480D01*
X79890Y-72301D01*
X79890Y-73450D01*
X78423Y-73450D01*
X78423Y-68648D01*
X78355Y-68482D01*
X78228Y-68356D01*
X78063Y-68287D01*
X77884Y-68287D01*
X77719Y-68355D01*
X77592Y-68482D01*
X77523Y-68647D01*
X77523Y-68826D01*
X77591Y-68992D01*
X77718Y-69118D01*
X77883Y-69187D01*
X78062Y-69187D01*
X78228Y-69119D01*
X78354Y-68992D01*
X78423Y-68827D01*
X78423Y-68648D01*
X78423Y-73450D01*
X77879Y-73450D01*
X77879Y-72301D01*
X77811Y-72135D01*
X77685Y-72008D01*
X77519Y-71940D01*
X77340Y-71940D01*
X77175Y-72008D01*
X77048Y-72134D01*
X76979Y-72300D01*
X76979Y-72479D01*
X77048Y-72644D01*
X77174Y-72771D01*
X77340Y-72840D01*
X77519Y-72840D01*
X77684Y-72771D01*
X77811Y-72645D01*
X77879Y-72480D01*
X77879Y-72301D01*
X77879Y-73450D01*
X75779Y-73450D01*
X75779Y-50960D01*
X75711Y-50795D01*
X75585Y-50668D01*
X75419Y-50600D01*
X75240Y-50599D01*
X75075Y-50668D01*
X74948Y-50794D01*
X74879Y-50960D01*
X74879Y-51139D01*
X74948Y-51304D01*
X75074Y-51431D01*
X75240Y-51499D01*
X75419Y-51500D01*
X75584Y-51431D01*
X75711Y-51305D01*
X75779Y-51139D01*
X75779Y-50960D01*
X75779Y-73450D01*
X75179Y-73450D01*
X75299Y-73159D01*
X75300Y-72841D01*
X75178Y-72547D01*
X75090Y-72458D01*
X75090Y-63410D01*
X75021Y-63245D01*
X74895Y-63118D01*
X74850Y-63099D01*
X74850Y-58452D01*
X74660Y-57992D01*
X74308Y-57640D01*
X73849Y-57450D01*
X73352Y-57449D01*
X72892Y-57639D01*
X72540Y-57991D01*
X72350Y-58450D01*
X72349Y-58947D01*
X72539Y-59407D01*
X72891Y-59759D01*
X73350Y-59949D01*
X73847Y-59950D01*
X74307Y-59760D01*
X74659Y-59408D01*
X74849Y-58949D01*
X74850Y-58452D01*
X74850Y-63099D01*
X74730Y-63050D01*
X74551Y-63049D01*
X74385Y-63118D01*
X74258Y-63244D01*
X74190Y-63410D01*
X74190Y-63589D01*
X74258Y-63754D01*
X74384Y-63881D01*
X74550Y-63949D01*
X74729Y-63950D01*
X74894Y-63881D01*
X75021Y-63755D01*
X75090Y-63589D01*
X75090Y-63410D01*
X75090Y-72458D01*
X74953Y-72322D01*
X74659Y-72200D01*
X74341Y-72199D01*
X74090Y-72303D01*
X74090Y-64451D01*
X74021Y-64285D01*
X73895Y-64158D01*
X73730Y-64090D01*
X73551Y-64090D01*
X73385Y-64158D01*
X73258Y-64284D01*
X73220Y-64378D01*
X73181Y-64285D01*
X73070Y-64173D01*
X73070Y-63330D01*
X73001Y-63165D01*
X72875Y-63038D01*
X72709Y-62970D01*
X72530Y-62970D01*
X72365Y-63038D01*
X72238Y-63164D01*
X72170Y-63330D01*
X72170Y-63509D01*
X72238Y-63674D01*
X72364Y-63801D01*
X72530Y-63870D01*
X72709Y-63870D01*
X72874Y-63801D01*
X73001Y-63675D01*
X73070Y-63509D01*
X73070Y-63330D01*
X73070Y-64173D01*
X73055Y-64158D01*
X72889Y-64090D01*
X72710Y-64090D01*
X72545Y-64158D01*
X72418Y-64284D01*
X72350Y-64450D01*
X72349Y-64629D01*
X72395Y-64740D01*
X72305Y-64778D01*
X72178Y-64904D01*
X72109Y-65069D01*
X72109Y-65248D01*
X72178Y-65414D01*
X72304Y-65541D01*
X72469Y-65609D01*
X72648Y-65609D01*
X72814Y-65541D01*
X72941Y-65415D01*
X73009Y-65249D01*
X73009Y-65070D01*
X72963Y-64959D01*
X73054Y-64921D01*
X73181Y-64795D01*
X73220Y-64701D01*
X73258Y-64794D01*
X73384Y-64921D01*
X73550Y-64990D01*
X73729Y-64990D01*
X73894Y-64921D01*
X74021Y-64795D01*
X74090Y-64630D01*
X74090Y-64451D01*
X74090Y-72303D01*
X74047Y-72321D01*
X73822Y-72546D01*
X73700Y-72840D01*
X73699Y-73158D01*
X73820Y-73450D01*
X72350Y-73450D01*
X72350Y-66051D01*
X72281Y-65885D01*
X72155Y-65758D01*
X72029Y-65706D01*
X72061Y-65675D01*
X72129Y-65509D01*
X72129Y-65330D01*
X72061Y-65165D01*
X71935Y-65038D01*
X71769Y-64970D01*
X71590Y-64970D01*
X71446Y-65029D01*
X71541Y-64935D01*
X71609Y-64769D01*
X71609Y-64590D01*
X71541Y-64425D01*
X71415Y-64298D01*
X71337Y-64266D01*
X71494Y-64201D01*
X71621Y-64075D01*
X71690Y-63909D01*
X71690Y-63730D01*
X71621Y-63565D01*
X71495Y-63438D01*
X71330Y-63370D01*
X71151Y-63370D01*
X70985Y-63438D01*
X70858Y-63564D01*
X70790Y-63730D01*
X70790Y-63909D01*
X70858Y-64074D01*
X70984Y-64201D01*
X71062Y-64233D01*
X70905Y-64298D01*
X70778Y-64424D01*
X70709Y-64590D01*
X70709Y-64769D01*
X70778Y-64934D01*
X70904Y-65061D01*
X71069Y-65129D01*
X71248Y-65129D01*
X71393Y-65070D01*
X71298Y-65164D01*
X71229Y-65330D01*
X71229Y-65509D01*
X71298Y-65674D01*
X71424Y-65801D01*
X71550Y-65853D01*
X71518Y-65884D01*
X71450Y-66050D01*
X71449Y-66229D01*
X71518Y-66394D01*
X71644Y-66521D01*
X71810Y-66590D01*
X71989Y-66590D01*
X72154Y-66521D01*
X72281Y-66395D01*
X72349Y-66230D01*
X72350Y-66051D01*
X72350Y-73450D01*
X70550Y-73450D01*
X70550Y-51360D01*
X70481Y-51195D01*
X70355Y-51068D01*
X70189Y-51000D01*
X70010Y-50999D01*
X69845Y-51068D01*
X69718Y-51194D01*
X69650Y-51360D01*
X69649Y-51539D01*
X69718Y-51704D01*
X69844Y-51831D01*
X70010Y-51899D01*
X70189Y-51900D01*
X70354Y-51831D01*
X70481Y-51705D01*
X70549Y-51539D01*
X70550Y-51360D01*
X70550Y-73450D01*
X69279Y-73450D01*
X69279Y-53160D01*
X69211Y-52995D01*
X69085Y-52868D01*
X68919Y-52800D01*
X68740Y-52799D01*
X68575Y-52868D01*
X68479Y-52963D01*
X68479Y-51151D01*
X68411Y-50985D01*
X68327Y-50901D01*
X68390Y-50749D01*
X68390Y-50570D01*
X68321Y-50405D01*
X68195Y-50278D01*
X68030Y-50209D01*
X67851Y-50209D01*
X67685Y-50278D01*
X67558Y-50404D01*
X67490Y-50569D01*
X67490Y-50748D01*
X67558Y-50914D01*
X67642Y-50998D01*
X67579Y-51150D01*
X67579Y-51329D01*
X67648Y-51494D01*
X67774Y-51621D01*
X67940Y-51690D01*
X68119Y-51690D01*
X68284Y-51621D01*
X68411Y-51495D01*
X68479Y-51330D01*
X68479Y-51151D01*
X68479Y-52963D01*
X68448Y-52994D01*
X68379Y-53160D01*
X68379Y-53339D01*
X68448Y-53504D01*
X68574Y-53631D01*
X68740Y-53699D01*
X68919Y-53700D01*
X69084Y-53631D01*
X69211Y-53505D01*
X69279Y-53339D01*
X69279Y-53160D01*
X69279Y-73450D01*
X69071Y-73450D01*
X69071Y-70656D01*
X69003Y-70490D01*
X68876Y-70363D01*
X68711Y-70295D01*
X68532Y-70295D01*
X68427Y-70338D01*
X68427Y-64080D01*
X68359Y-63916D01*
X68233Y-63790D01*
X68069Y-63722D01*
X67891Y-63722D01*
X67727Y-63790D01*
X67601Y-63915D01*
X67586Y-63952D01*
X67571Y-63916D01*
X67446Y-63790D01*
X67282Y-63722D01*
X67104Y-63722D01*
X66940Y-63790D01*
X66814Y-63915D01*
X66799Y-63952D01*
X66784Y-63916D01*
X66658Y-63790D01*
X66494Y-63722D01*
X66317Y-63722D01*
X66152Y-63790D01*
X66026Y-63915D01*
X66011Y-63952D01*
X65997Y-63916D01*
X65871Y-63790D01*
X65707Y-63722D01*
X65529Y-63722D01*
X65365Y-63790D01*
X65239Y-63915D01*
X65224Y-63952D01*
X65209Y-63916D01*
X65084Y-63790D01*
X64919Y-63722D01*
X64742Y-63722D01*
X64577Y-63790D01*
X64452Y-63915D01*
X64437Y-63952D01*
X64422Y-63916D01*
X64296Y-63790D01*
X64132Y-63722D01*
X63954Y-63722D01*
X63950Y-63724D01*
X63950Y-56210D01*
X63881Y-56045D01*
X63755Y-55918D01*
X63589Y-55850D01*
X63410Y-55849D01*
X63245Y-55918D01*
X63118Y-56044D01*
X63050Y-56210D01*
X63049Y-56389D01*
X63118Y-56554D01*
X63244Y-56681D01*
X63410Y-56749D01*
X63589Y-56750D01*
X63754Y-56681D01*
X63881Y-56555D01*
X63949Y-56389D01*
X63950Y-56210D01*
X63950Y-63724D01*
X63790Y-63790D01*
X63664Y-63915D01*
X63649Y-63952D01*
X63634Y-63916D01*
X63509Y-63790D01*
X63345Y-63722D01*
X63167Y-63722D01*
X63003Y-63790D01*
X62877Y-63915D01*
X62862Y-63952D01*
X62847Y-63916D01*
X62721Y-63790D01*
X62557Y-63722D01*
X62400Y-63722D01*
X62400Y-57260D01*
X62331Y-57095D01*
X62205Y-56968D01*
X62039Y-56900D01*
X61860Y-56899D01*
X61695Y-56968D01*
X61568Y-57094D01*
X61500Y-57260D01*
X61499Y-57439D01*
X61568Y-57604D01*
X61694Y-57731D01*
X61860Y-57799D01*
X62039Y-57800D01*
X62204Y-57731D01*
X62331Y-57605D01*
X62399Y-57439D01*
X62400Y-57260D01*
X62400Y-63722D01*
X62380Y-63722D01*
X62215Y-63790D01*
X62089Y-63915D01*
X62074Y-63952D01*
X62060Y-63916D01*
X61934Y-63790D01*
X61770Y-63722D01*
X61592Y-63722D01*
X61428Y-63790D01*
X61370Y-63848D01*
X61370Y-57260D01*
X61301Y-57095D01*
X61175Y-56968D01*
X61009Y-56900D01*
X60830Y-56899D01*
X60665Y-56968D01*
X60538Y-57094D01*
X60470Y-57260D01*
X60470Y-57439D01*
X60538Y-57604D01*
X60664Y-57731D01*
X60830Y-57799D01*
X61009Y-57800D01*
X61174Y-57731D01*
X61301Y-57605D01*
X61370Y-57439D01*
X61370Y-57260D01*
X61370Y-63848D01*
X61302Y-63915D01*
X61290Y-63945D01*
X61289Y-63943D01*
X61204Y-63928D01*
X61134Y-63999D01*
X61134Y-63858D01*
X61119Y-63773D01*
X60950Y-63717D01*
X60773Y-63729D01*
X60667Y-63773D01*
X60653Y-63858D01*
X60893Y-64098D01*
X61134Y-63858D01*
X61134Y-63999D01*
X60964Y-64169D01*
X61204Y-64409D01*
X61289Y-64395D01*
X61290Y-64393D01*
X61302Y-64422D01*
X61427Y-64547D01*
X61591Y-64616D01*
X61769Y-64616D01*
X61933Y-64548D01*
X62059Y-64422D01*
X62074Y-64386D01*
X62089Y-64422D01*
X62215Y-64547D01*
X62379Y-64616D01*
X62556Y-64616D01*
X62721Y-64548D01*
X62847Y-64422D01*
X62862Y-64386D01*
X62876Y-64422D01*
X63002Y-64547D01*
X63166Y-64616D01*
X63344Y-64616D01*
X63508Y-64548D01*
X63634Y-64422D01*
X63649Y-64386D01*
X63664Y-64422D01*
X63789Y-64547D01*
X63954Y-64616D01*
X64131Y-64616D01*
X64296Y-64548D01*
X64421Y-64422D01*
X64436Y-64386D01*
X64451Y-64422D01*
X64577Y-64547D01*
X64741Y-64616D01*
X64919Y-64616D01*
X65083Y-64548D01*
X65209Y-64422D01*
X65224Y-64386D01*
X65239Y-64422D01*
X65364Y-64547D01*
X65528Y-64616D01*
X65706Y-64616D01*
X65870Y-64548D01*
X65996Y-64422D01*
X66011Y-64386D01*
X66026Y-64422D01*
X66152Y-64547D01*
X66316Y-64616D01*
X66494Y-64616D01*
X66658Y-64548D01*
X66784Y-64422D01*
X66799Y-64386D01*
X66813Y-64422D01*
X66939Y-64547D01*
X67103Y-64616D01*
X67281Y-64616D01*
X67445Y-64548D01*
X67571Y-64422D01*
X67586Y-64386D01*
X67601Y-64422D01*
X67726Y-64547D01*
X67891Y-64616D01*
X68068Y-64616D01*
X68233Y-64548D01*
X68358Y-64422D01*
X68427Y-64258D01*
X68427Y-64080D01*
X68427Y-70338D01*
X68367Y-70363D01*
X68240Y-70489D01*
X68171Y-70655D01*
X68171Y-70834D01*
X68239Y-70999D01*
X68366Y-71126D01*
X68531Y-71195D01*
X68710Y-71195D01*
X68876Y-71126D01*
X69002Y-71000D01*
X69071Y-70835D01*
X69071Y-70656D01*
X69071Y-73450D01*
X68427Y-73450D01*
X68427Y-72742D01*
X68359Y-72577D01*
X68233Y-72452D01*
X68069Y-72383D01*
X67891Y-72383D01*
X67727Y-72451D01*
X67601Y-72577D01*
X67586Y-72613D01*
X67571Y-72577D01*
X67446Y-72452D01*
X67282Y-72383D01*
X67104Y-72383D01*
X66940Y-72451D01*
X66814Y-72577D01*
X66799Y-72613D01*
X66784Y-72577D01*
X66658Y-72452D01*
X66494Y-72383D01*
X66317Y-72383D01*
X66152Y-72451D01*
X66026Y-72577D01*
X66011Y-72613D01*
X65997Y-72577D01*
X65871Y-72452D01*
X65707Y-72383D01*
X65529Y-72383D01*
X65365Y-72451D01*
X65239Y-72577D01*
X65224Y-72613D01*
X65209Y-72577D01*
X65084Y-72452D01*
X64919Y-72383D01*
X64742Y-72383D01*
X64577Y-72451D01*
X64452Y-72577D01*
X64437Y-72613D01*
X64422Y-72577D01*
X64296Y-72452D01*
X64132Y-72383D01*
X63954Y-72383D01*
X63790Y-72451D01*
X63774Y-72467D01*
X63774Y-70033D01*
X63706Y-69868D01*
X63579Y-69741D01*
X63414Y-69673D01*
X63235Y-69673D01*
X63069Y-69741D01*
X62943Y-69867D01*
X62874Y-70033D01*
X62874Y-70212D01*
X62942Y-70377D01*
X63069Y-70504D01*
X63234Y-70573D01*
X63413Y-70573D01*
X63578Y-70504D01*
X63705Y-70378D01*
X63774Y-70213D01*
X63774Y-70033D01*
X63774Y-72467D01*
X63664Y-72577D01*
X63649Y-72613D01*
X63634Y-72577D01*
X63509Y-72452D01*
X63345Y-72383D01*
X63167Y-72383D01*
X63003Y-72451D01*
X62877Y-72577D01*
X62870Y-72594D01*
X62870Y-65090D01*
X62801Y-64925D01*
X62675Y-64798D01*
X62509Y-64729D01*
X62330Y-64729D01*
X62165Y-64798D01*
X62038Y-64924D01*
X61970Y-65090D01*
X61970Y-65269D01*
X62038Y-65434D01*
X62164Y-65561D01*
X62330Y-65629D01*
X62509Y-65629D01*
X62674Y-65561D01*
X62801Y-65435D01*
X62870Y-65269D01*
X62870Y-65090D01*
X62870Y-72594D01*
X62862Y-72613D01*
X62847Y-72577D01*
X62721Y-72452D01*
X62557Y-72383D01*
X62380Y-72383D01*
X62215Y-72451D01*
X62089Y-72577D01*
X62074Y-72613D01*
X62060Y-72577D01*
X61934Y-72452D01*
X61770Y-72383D01*
X61592Y-72383D01*
X61428Y-72451D01*
X61302Y-72577D01*
X61287Y-72613D01*
X61272Y-72577D01*
X61147Y-72452D01*
X61134Y-72446D01*
X61134Y-64480D01*
X60893Y-64240D01*
X60822Y-64310D01*
X60822Y-64169D01*
X60582Y-63928D01*
X60497Y-63943D01*
X60441Y-64112D01*
X60454Y-64289D01*
X60497Y-64395D01*
X60582Y-64409D01*
X60822Y-64169D01*
X60822Y-64310D01*
X60653Y-64480D01*
X60667Y-64565D01*
X60836Y-64621D01*
X61013Y-64608D01*
X61119Y-64565D01*
X61134Y-64480D01*
X61134Y-72446D01*
X60982Y-72383D01*
X60805Y-72383D01*
X60640Y-72451D01*
X60515Y-72577D01*
X60446Y-72741D01*
X60446Y-72919D01*
X60514Y-73083D01*
X60640Y-73209D01*
X60804Y-73277D01*
X60982Y-73277D01*
X61146Y-73209D01*
X61272Y-73084D01*
X61287Y-73047D01*
X61302Y-73083D01*
X61427Y-73209D01*
X61591Y-73277D01*
X61769Y-73277D01*
X61933Y-73209D01*
X62059Y-73084D01*
X62074Y-73047D01*
X62089Y-73083D01*
X62215Y-73209D01*
X62379Y-73277D01*
X62556Y-73277D01*
X62721Y-73209D01*
X62847Y-73084D01*
X62862Y-73047D01*
X62876Y-73083D01*
X63002Y-73209D01*
X63166Y-73277D01*
X63344Y-73277D01*
X63508Y-73209D01*
X63634Y-73084D01*
X63649Y-73047D01*
X63664Y-73083D01*
X63789Y-73209D01*
X63954Y-73277D01*
X64131Y-73277D01*
X64296Y-73209D01*
X64421Y-73084D01*
X64436Y-73047D01*
X64451Y-73083D01*
X64577Y-73209D01*
X64741Y-73277D01*
X64919Y-73277D01*
X65083Y-73209D01*
X65209Y-73084D01*
X65224Y-73047D01*
X65239Y-73083D01*
X65364Y-73209D01*
X65528Y-73277D01*
X65706Y-73277D01*
X65870Y-73209D01*
X65996Y-73084D01*
X66011Y-73047D01*
X66026Y-73083D01*
X66152Y-73209D01*
X66316Y-73277D01*
X66494Y-73277D01*
X66658Y-73209D01*
X66784Y-73084D01*
X66799Y-73047D01*
X66813Y-73083D01*
X66939Y-73209D01*
X67103Y-73277D01*
X67281Y-73277D01*
X67445Y-73209D01*
X67571Y-73084D01*
X67586Y-73047D01*
X67601Y-73083D01*
X67726Y-73209D01*
X67891Y-73277D01*
X68068Y-73277D01*
X68233Y-73209D01*
X68358Y-73084D01*
X68427Y-72919D01*
X68427Y-72742D01*
X68427Y-73450D01*
X60340Y-73450D01*
X60340Y-52270D01*
X60271Y-52105D01*
X60145Y-51978D01*
X59980Y-51909D01*
X59801Y-51909D01*
X59635Y-51978D01*
X59508Y-52104D01*
X59440Y-52269D01*
X59440Y-52448D01*
X59508Y-52614D01*
X59634Y-52741D01*
X59800Y-52809D01*
X59979Y-52809D01*
X60144Y-52741D01*
X60271Y-52615D01*
X60340Y-52449D01*
X60340Y-52270D01*
X60340Y-73450D01*
X59550Y-73450D01*
X59550Y-60001D01*
X59481Y-59835D01*
X59420Y-59773D01*
X59420Y-52190D01*
X59351Y-52025D01*
X59225Y-51898D01*
X59059Y-51829D01*
X58880Y-51829D01*
X58715Y-51898D01*
X58588Y-52024D01*
X58520Y-52190D01*
X58520Y-52369D01*
X58588Y-52534D01*
X58714Y-52661D01*
X58880Y-52729D01*
X59059Y-52729D01*
X59224Y-52661D01*
X59351Y-52535D01*
X59420Y-52369D01*
X59420Y-52190D01*
X59420Y-59773D01*
X59355Y-59708D01*
X59189Y-59640D01*
X59010Y-59640D01*
X58845Y-59708D01*
X58718Y-59834D01*
X58650Y-60000D01*
X58649Y-60179D01*
X58718Y-60344D01*
X58844Y-60471D01*
X59010Y-60540D01*
X59189Y-60540D01*
X59354Y-60471D01*
X59481Y-60345D01*
X59549Y-60180D01*
X59550Y-60001D01*
X59550Y-73450D01*
X58727Y-73450D01*
X58727Y-68191D01*
X58659Y-68025D01*
X58532Y-67899D01*
X58367Y-67830D01*
X58214Y-67830D01*
X58214Y-54405D01*
X58145Y-54240D01*
X58019Y-54113D01*
X57853Y-54045D01*
X57674Y-54044D01*
X57509Y-54113D01*
X57382Y-54239D01*
X57314Y-54405D01*
X57313Y-54584D01*
X57382Y-54749D01*
X57508Y-54876D01*
X57674Y-54944D01*
X57853Y-54945D01*
X58018Y-54876D01*
X58145Y-54750D01*
X58213Y-54584D01*
X58214Y-54405D01*
X58214Y-67830D01*
X58188Y-67830D01*
X58150Y-67846D01*
X58150Y-63610D01*
X58081Y-63445D01*
X57955Y-63318D01*
X57789Y-63250D01*
X57610Y-63249D01*
X57445Y-63318D01*
X57318Y-63444D01*
X57250Y-63610D01*
X57249Y-63789D01*
X57318Y-63954D01*
X57444Y-64081D01*
X57610Y-64149D01*
X57789Y-64150D01*
X57954Y-64081D01*
X58081Y-63955D01*
X58149Y-63789D01*
X58150Y-63610D01*
X58150Y-67846D01*
X58023Y-67898D01*
X57972Y-67949D01*
X57972Y-65659D01*
X57903Y-65494D01*
X57777Y-65367D01*
X57612Y-65299D01*
X57433Y-65298D01*
X57267Y-65367D01*
X57140Y-65493D01*
X57072Y-65659D01*
X57072Y-65838D01*
X57140Y-66003D01*
X57266Y-66130D01*
X57432Y-66198D01*
X57611Y-66199D01*
X57776Y-66130D01*
X57903Y-66004D01*
X57972Y-65838D01*
X57972Y-65659D01*
X57972Y-67949D01*
X57896Y-68025D01*
X57827Y-68190D01*
X57827Y-68369D01*
X57895Y-68535D01*
X58022Y-68661D01*
X58187Y-68730D01*
X58366Y-68730D01*
X58532Y-68662D01*
X58658Y-68535D01*
X58727Y-68370D01*
X58727Y-68191D01*
X58727Y-73450D01*
X58639Y-73450D01*
X58639Y-69428D01*
X58570Y-69263D01*
X58444Y-69136D01*
X58278Y-69067D01*
X58099Y-69067D01*
X57934Y-69136D01*
X57807Y-69262D01*
X57739Y-69427D01*
X57738Y-69606D01*
X57807Y-69772D01*
X57933Y-69899D01*
X58099Y-69967D01*
X58278Y-69967D01*
X58443Y-69899D01*
X58570Y-69773D01*
X58638Y-69607D01*
X58639Y-69428D01*
X58639Y-73450D01*
X58429Y-73450D01*
X58549Y-73159D01*
X58550Y-72841D01*
X58428Y-72547D01*
X58203Y-72322D01*
X57909Y-72200D01*
X57591Y-72199D01*
X57300Y-72320D01*
X57300Y-68030D01*
X57231Y-67865D01*
X57105Y-67738D01*
X56939Y-67670D01*
X56760Y-67670D01*
X56595Y-67738D01*
X56468Y-67864D01*
X56400Y-68030D01*
X56399Y-68209D01*
X56468Y-68374D01*
X56594Y-68501D01*
X56760Y-68570D01*
X56939Y-68570D01*
X57104Y-68501D01*
X57231Y-68375D01*
X57299Y-68209D01*
X57300Y-68030D01*
X57300Y-72320D01*
X57297Y-72321D01*
X57072Y-72546D01*
X56950Y-72840D01*
X56949Y-73158D01*
X57070Y-73450D01*
X56114Y-73450D01*
X56114Y-61496D01*
X56046Y-61330D01*
X55997Y-61282D01*
X56036Y-61243D01*
X56105Y-61078D01*
X56105Y-60899D01*
X56037Y-60733D01*
X55910Y-60606D01*
X55850Y-60581D01*
X55850Y-55830D01*
X55781Y-55665D01*
X55655Y-55538D01*
X55489Y-55470D01*
X55310Y-55469D01*
X55218Y-55508D01*
X55207Y-55481D01*
X55109Y-55384D01*
X55109Y-48690D01*
X55041Y-48525D01*
X54915Y-48398D01*
X54749Y-48329D01*
X54570Y-48329D01*
X54405Y-48398D01*
X54278Y-48524D01*
X54209Y-48690D01*
X54209Y-48869D01*
X54278Y-49034D01*
X54404Y-49161D01*
X54569Y-49229D01*
X54748Y-49229D01*
X54914Y-49161D01*
X55041Y-49035D01*
X55109Y-48869D01*
X55109Y-48690D01*
X55109Y-55384D01*
X55080Y-55355D01*
X54915Y-55286D01*
X54856Y-55286D01*
X54897Y-55245D01*
X54965Y-55079D01*
X54966Y-54900D01*
X54897Y-54735D01*
X54771Y-54608D01*
X54605Y-54540D01*
X54426Y-54539D01*
X54261Y-54608D01*
X54134Y-54734D01*
X54067Y-54895D01*
X54063Y-54895D01*
X53898Y-54964D01*
X53771Y-55090D01*
X53703Y-55256D01*
X53703Y-55275D01*
X53574Y-55328D01*
X53550Y-55352D01*
X53394Y-55287D01*
X53215Y-55287D01*
X53050Y-55355D01*
X53029Y-55376D01*
X53029Y-54530D01*
X52961Y-54365D01*
X52835Y-54238D01*
X52669Y-54170D01*
X52490Y-54170D01*
X52416Y-54200D01*
X52305Y-54088D01*
X52139Y-54020D01*
X51960Y-54020D01*
X51795Y-54088D01*
X51668Y-54214D01*
X51600Y-54380D01*
X51599Y-54559D01*
X51668Y-54724D01*
X51794Y-54851D01*
X51960Y-54920D01*
X52139Y-54920D01*
X52213Y-54889D01*
X52324Y-55001D01*
X52490Y-55070D01*
X52669Y-55070D01*
X52834Y-55001D01*
X52961Y-54875D01*
X53029Y-54709D01*
X53029Y-54530D01*
X53029Y-55376D01*
X52923Y-55482D01*
X52855Y-55647D01*
X52854Y-55826D01*
X52923Y-55991D01*
X53049Y-56118D01*
X53215Y-56187D01*
X53394Y-56187D01*
X53559Y-56119D01*
X53583Y-56095D01*
X53739Y-56159D01*
X53918Y-56160D01*
X54083Y-56091D01*
X54210Y-55965D01*
X54278Y-55799D01*
X54278Y-55780D01*
X54375Y-55740D01*
X54375Y-55825D01*
X54444Y-55990D01*
X54570Y-56117D01*
X54735Y-56186D01*
X54914Y-56186D01*
X55007Y-56148D01*
X55018Y-56174D01*
X55144Y-56301D01*
X55310Y-56369D01*
X55489Y-56370D01*
X55654Y-56301D01*
X55781Y-56175D01*
X55849Y-56009D01*
X55850Y-55830D01*
X55850Y-60581D01*
X55745Y-60538D01*
X55566Y-60538D01*
X55401Y-60606D01*
X55274Y-60732D01*
X55205Y-60898D01*
X55205Y-61077D01*
X55273Y-61242D01*
X55322Y-61291D01*
X55283Y-61330D01*
X55214Y-61495D01*
X55214Y-61674D01*
X55283Y-61840D01*
X55409Y-61966D01*
X55574Y-62035D01*
X55753Y-62035D01*
X55919Y-61967D01*
X56046Y-61840D01*
X56114Y-61675D01*
X56114Y-61496D01*
X56114Y-73450D01*
X55620Y-73450D01*
X55620Y-71440D01*
X55551Y-71275D01*
X55425Y-71148D01*
X55259Y-71079D01*
X55080Y-71079D01*
X55027Y-71101D01*
X55027Y-67714D01*
X54962Y-67554D01*
X54962Y-61917D01*
X54893Y-61751D01*
X54767Y-61624D01*
X54601Y-61556D01*
X54422Y-61556D01*
X54350Y-61586D01*
X54286Y-61522D01*
X54121Y-61454D01*
X53942Y-61453D01*
X53888Y-61476D01*
X53888Y-60756D01*
X53820Y-60590D01*
X53693Y-60464D01*
X53528Y-60395D01*
X53349Y-60395D01*
X53184Y-60463D01*
X53057Y-60590D01*
X52988Y-60755D01*
X52988Y-60934D01*
X53057Y-61100D01*
X53183Y-61226D01*
X53348Y-61295D01*
X53527Y-61295D01*
X53693Y-61227D01*
X53820Y-61100D01*
X53888Y-60935D01*
X53888Y-60756D01*
X53888Y-61476D01*
X53777Y-61522D01*
X53650Y-61648D01*
X53581Y-61814D01*
X53581Y-61993D01*
X53649Y-62158D01*
X53776Y-62285D01*
X53941Y-62353D01*
X54120Y-62354D01*
X54193Y-62324D01*
X54256Y-62387D01*
X54422Y-62456D01*
X54601Y-62456D01*
X54766Y-62387D01*
X54893Y-62261D01*
X54961Y-62096D01*
X54962Y-61917D01*
X54962Y-67554D01*
X54959Y-67548D01*
X54833Y-67421D01*
X54667Y-67353D01*
X54488Y-67353D01*
X54409Y-67385D01*
X54409Y-64140D01*
X54341Y-63975D01*
X54215Y-63848D01*
X54075Y-63790D01*
X54194Y-63741D01*
X54321Y-63615D01*
X54390Y-63449D01*
X54390Y-63270D01*
X54321Y-63105D01*
X54195Y-62978D01*
X54030Y-62909D01*
X53851Y-62909D01*
X53685Y-62978D01*
X53558Y-63104D01*
X53490Y-63269D01*
X53490Y-63448D01*
X53558Y-63614D01*
X53684Y-63741D01*
X53824Y-63799D01*
X53705Y-63848D01*
X53578Y-63974D01*
X53509Y-64140D01*
X53509Y-64319D01*
X53578Y-64484D01*
X53704Y-64611D01*
X53869Y-64679D01*
X54048Y-64679D01*
X54214Y-64611D01*
X54341Y-64485D01*
X54409Y-64319D01*
X54409Y-64140D01*
X54409Y-67385D01*
X54323Y-67421D01*
X54233Y-67510D01*
X54234Y-67374D01*
X54165Y-67209D01*
X54039Y-67082D01*
X53873Y-67014D01*
X53694Y-67013D01*
X53529Y-67082D01*
X53402Y-67208D01*
X53348Y-67340D01*
X53330Y-67340D01*
X53165Y-67408D01*
X53038Y-67534D01*
X52970Y-67700D01*
X52970Y-67879D01*
X53038Y-68044D01*
X53164Y-68171D01*
X53330Y-68240D01*
X53509Y-68240D01*
X53674Y-68171D01*
X53801Y-68045D01*
X53855Y-67914D01*
X53873Y-67914D01*
X54038Y-67845D01*
X54127Y-67756D01*
X54127Y-67892D01*
X54196Y-68057D01*
X54322Y-68184D01*
X54488Y-68253D01*
X54667Y-68253D01*
X54832Y-68184D01*
X54959Y-68058D01*
X55027Y-67893D01*
X55027Y-67714D01*
X55027Y-71101D01*
X54915Y-71148D01*
X54788Y-71274D01*
X54720Y-71440D01*
X54720Y-71619D01*
X54788Y-71784D01*
X54914Y-71911D01*
X55080Y-71979D01*
X55259Y-71979D01*
X55424Y-71911D01*
X55551Y-71785D01*
X55620Y-71619D01*
X55620Y-71440D01*
X55620Y-73450D01*
X52764Y-73450D01*
X52764Y-61779D01*
X52709Y-61646D01*
X52709Y-57990D01*
X52641Y-57825D01*
X52515Y-57698D01*
X52349Y-57629D01*
X52170Y-57629D01*
X52005Y-57698D01*
X51878Y-57824D01*
X51809Y-57990D01*
X51809Y-58169D01*
X51878Y-58334D01*
X52004Y-58461D01*
X52169Y-58529D01*
X52348Y-58529D01*
X52514Y-58461D01*
X52641Y-58335D01*
X52709Y-58169D01*
X52709Y-57990D01*
X52709Y-61646D01*
X52696Y-61613D01*
X52569Y-61487D01*
X52404Y-61418D01*
X52225Y-61418D01*
X52059Y-61486D01*
X51933Y-61613D01*
X51864Y-61778D01*
X51864Y-61824D01*
X51757Y-61868D01*
X51630Y-61995D01*
X51561Y-62160D01*
X51561Y-62339D01*
X51629Y-62505D01*
X51756Y-62631D01*
X51921Y-62700D01*
X52100Y-62700D01*
X52266Y-62632D01*
X52392Y-62505D01*
X52461Y-62340D01*
X52461Y-62294D01*
X52569Y-62250D01*
X52695Y-62123D01*
X52764Y-61958D01*
X52764Y-61779D01*
X52764Y-73450D01*
X52436Y-73450D01*
X52436Y-70349D01*
X52407Y-70277D01*
X52407Y-64264D01*
X52338Y-64098D01*
X52212Y-63972D01*
X52046Y-63903D01*
X51867Y-63903D01*
X51702Y-63971D01*
X51575Y-64098D01*
X51507Y-64263D01*
X51506Y-64442D01*
X51575Y-64608D01*
X51698Y-64731D01*
X51583Y-64778D01*
X51479Y-64881D01*
X51479Y-63110D01*
X51411Y-62945D01*
X51285Y-62818D01*
X51159Y-62766D01*
X51159Y-61751D01*
X51091Y-61585D01*
X51062Y-61555D01*
X51062Y-55690D01*
X50993Y-55524D01*
X50867Y-55398D01*
X50701Y-55329D01*
X50522Y-55329D01*
X50357Y-55397D01*
X50230Y-55524D01*
X50162Y-55689D01*
X50161Y-55868D01*
X50230Y-56033D01*
X50356Y-56160D01*
X50522Y-56229D01*
X50701Y-56229D01*
X50866Y-56161D01*
X50993Y-56034D01*
X51061Y-55869D01*
X51062Y-55690D01*
X51062Y-61555D01*
X51029Y-61523D01*
X51029Y-57590D01*
X50961Y-57425D01*
X50835Y-57298D01*
X50669Y-57229D01*
X50490Y-57229D01*
X50325Y-57298D01*
X50198Y-57424D01*
X50150Y-57541D01*
X50150Y-57060D01*
X50081Y-56895D01*
X49955Y-56768D01*
X49789Y-56700D01*
X49712Y-56700D01*
X49681Y-56625D01*
X49555Y-56498D01*
X49500Y-56475D01*
X49500Y-55590D01*
X49431Y-55425D01*
X49305Y-55298D01*
X49139Y-55229D01*
X48960Y-55229D01*
X48795Y-55298D01*
X48668Y-55424D01*
X48600Y-55590D01*
X48599Y-55769D01*
X48668Y-55934D01*
X48794Y-56061D01*
X48960Y-56129D01*
X49139Y-56129D01*
X49304Y-56061D01*
X49431Y-55935D01*
X49499Y-55769D01*
X49500Y-55590D01*
X49500Y-56475D01*
X49389Y-56429D01*
X49210Y-56429D01*
X49045Y-56498D01*
X48918Y-56624D01*
X48850Y-56790D01*
X48849Y-56969D01*
X48918Y-57134D01*
X49044Y-57261D01*
X49210Y-57329D01*
X49287Y-57329D01*
X49318Y-57404D01*
X49444Y-57531D01*
X49610Y-57599D01*
X49789Y-57600D01*
X49954Y-57531D01*
X50081Y-57405D01*
X50149Y-57239D01*
X50150Y-57060D01*
X50150Y-57541D01*
X50129Y-57590D01*
X50129Y-57672D01*
X49995Y-57728D01*
X49868Y-57854D01*
X49800Y-58019D01*
X49799Y-58198D01*
X49868Y-58364D01*
X49994Y-58491D01*
X50160Y-58559D01*
X50339Y-58559D01*
X50504Y-58491D01*
X50631Y-58365D01*
X50699Y-58199D01*
X50699Y-58117D01*
X50834Y-58061D01*
X50961Y-57935D01*
X51029Y-57769D01*
X51029Y-57590D01*
X51029Y-61523D01*
X50965Y-61458D01*
X50799Y-61390D01*
X50620Y-61390D01*
X50455Y-61458D01*
X50328Y-61584D01*
X50292Y-61672D01*
X50253Y-61580D01*
X50127Y-61453D01*
X49961Y-61384D01*
X49782Y-61384D01*
X49617Y-61453D01*
X49490Y-61579D01*
X49422Y-61744D01*
X49421Y-61923D01*
X49442Y-61974D01*
X49296Y-62035D01*
X49175Y-62156D01*
X49175Y-59820D01*
X49106Y-59655D01*
X48980Y-59528D01*
X48814Y-59460D01*
X48774Y-59460D01*
X48820Y-59349D01*
X48820Y-59312D01*
X48958Y-59255D01*
X49085Y-59129D01*
X49153Y-58963D01*
X49154Y-58784D01*
X49145Y-58763D01*
X49145Y-57812D01*
X49076Y-57647D01*
X48950Y-57520D01*
X48784Y-57452D01*
X48605Y-57451D01*
X48479Y-57503D01*
X48479Y-55320D01*
X48411Y-55155D01*
X48285Y-55028D01*
X48119Y-54959D01*
X47940Y-54959D01*
X47775Y-55028D01*
X47648Y-55154D01*
X47579Y-55319D01*
X47579Y-55498D01*
X47648Y-55664D01*
X47774Y-55791D01*
X47940Y-55859D01*
X48119Y-55859D01*
X48284Y-55791D01*
X48411Y-55665D01*
X48479Y-55499D01*
X48479Y-55320D01*
X48479Y-57503D01*
X48440Y-57520D01*
X48313Y-57646D01*
X48245Y-57812D01*
X48245Y-57893D01*
X48230Y-57878D01*
X48064Y-57810D01*
X47885Y-57809D01*
X47742Y-57869D01*
X47742Y-57442D01*
X47742Y-56458D01*
X47704Y-56366D01*
X47633Y-56296D01*
X47541Y-56258D01*
X47442Y-56257D01*
X46458Y-56257D01*
X46366Y-56295D01*
X46296Y-56366D01*
X46258Y-56458D01*
X46257Y-56557D01*
X46257Y-57541D01*
X46295Y-57633D01*
X46366Y-57703D01*
X46458Y-57741D01*
X46557Y-57742D01*
X47541Y-57742D01*
X47633Y-57704D01*
X47703Y-57633D01*
X47741Y-57541D01*
X47742Y-57442D01*
X47742Y-57869D01*
X47720Y-57878D01*
X47593Y-58004D01*
X47525Y-58170D01*
X47524Y-58349D01*
X47593Y-58514D01*
X47719Y-58641D01*
X47885Y-58709D01*
X48064Y-58710D01*
X48229Y-58641D01*
X48356Y-58515D01*
X48424Y-58349D01*
X48424Y-58268D01*
X48439Y-58283D01*
X48605Y-58351D01*
X48784Y-58352D01*
X48949Y-58283D01*
X49076Y-58157D01*
X49144Y-57991D01*
X49145Y-57812D01*
X49145Y-58763D01*
X49085Y-58619D01*
X48959Y-58492D01*
X48793Y-58424D01*
X48614Y-58423D01*
X48449Y-58492D01*
X48322Y-58618D01*
X48254Y-58784D01*
X48254Y-58820D01*
X48115Y-58878D01*
X47988Y-59004D01*
X47920Y-59169D01*
X47920Y-59348D01*
X47988Y-59514D01*
X48114Y-59641D01*
X48280Y-59709D01*
X48320Y-59709D01*
X48275Y-59820D01*
X48274Y-59999D01*
X48343Y-60164D01*
X48469Y-60291D01*
X48635Y-60359D01*
X48814Y-60360D01*
X48979Y-60291D01*
X49106Y-60165D01*
X49174Y-59999D01*
X49175Y-59820D01*
X49175Y-62156D01*
X49169Y-62162D01*
X49100Y-62327D01*
X49100Y-62506D01*
X49168Y-62671D01*
X49295Y-62798D01*
X49460Y-62867D01*
X49639Y-62867D01*
X49805Y-62799D01*
X49931Y-62672D01*
X50000Y-62507D01*
X50000Y-62328D01*
X49979Y-62277D01*
X50126Y-62216D01*
X50253Y-62090D01*
X50289Y-62001D01*
X50328Y-62094D01*
X50454Y-62221D01*
X50619Y-62290D01*
X50798Y-62290D01*
X50964Y-62221D01*
X51091Y-62095D01*
X51159Y-61930D01*
X51159Y-61751D01*
X51159Y-62766D01*
X51119Y-62750D01*
X51103Y-62750D01*
X51051Y-62625D01*
X50925Y-62498D01*
X50759Y-62429D01*
X50580Y-62429D01*
X50415Y-62498D01*
X50288Y-62624D01*
X50220Y-62790D01*
X50220Y-62969D01*
X50288Y-63134D01*
X50414Y-63261D01*
X50580Y-63329D01*
X50596Y-63329D01*
X50648Y-63454D01*
X50774Y-63581D01*
X50940Y-63649D01*
X51119Y-63650D01*
X51284Y-63581D01*
X51411Y-63455D01*
X51479Y-63289D01*
X51479Y-63110D01*
X51479Y-64881D01*
X51456Y-64905D01*
X51387Y-65070D01*
X51387Y-65249D01*
X51455Y-65415D01*
X51582Y-65541D01*
X51747Y-65610D01*
X51926Y-65610D01*
X52092Y-65542D01*
X52218Y-65415D01*
X52287Y-65250D01*
X52287Y-65071D01*
X52219Y-64906D01*
X52096Y-64782D01*
X52211Y-64735D01*
X52338Y-64608D01*
X52406Y-64443D01*
X52407Y-64264D01*
X52407Y-70277D01*
X52368Y-70184D01*
X52242Y-70057D01*
X52076Y-69989D01*
X51897Y-69988D01*
X51732Y-70057D01*
X51730Y-70059D01*
X51730Y-66959D01*
X51661Y-66793D01*
X51535Y-66667D01*
X51369Y-66598D01*
X51190Y-66598D01*
X51127Y-66624D01*
X51127Y-65035D01*
X51059Y-64870D01*
X50932Y-64743D01*
X50767Y-64675D01*
X50588Y-64674D01*
X50443Y-64734D01*
X50318Y-64609D01*
X50153Y-64541D01*
X49974Y-64541D01*
X49808Y-64609D01*
X49682Y-64736D01*
X49613Y-64901D01*
X49613Y-65080D01*
X49681Y-65245D01*
X49808Y-65372D01*
X49973Y-65441D01*
X50152Y-65441D01*
X50297Y-65381D01*
X50422Y-65506D01*
X50587Y-65574D01*
X50766Y-65575D01*
X50931Y-65506D01*
X51058Y-65380D01*
X51127Y-65214D01*
X51127Y-65035D01*
X51127Y-66624D01*
X51025Y-66666D01*
X50898Y-66793D01*
X50830Y-66958D01*
X50830Y-67090D01*
X50785Y-67108D01*
X50658Y-67234D01*
X50590Y-67400D01*
X50590Y-67579D01*
X50658Y-67744D01*
X50784Y-67871D01*
X50950Y-67940D01*
X51129Y-67940D01*
X51294Y-67871D01*
X51421Y-67745D01*
X51490Y-67580D01*
X51490Y-67448D01*
X51534Y-67430D01*
X51661Y-67303D01*
X51730Y-67138D01*
X51730Y-66959D01*
X51730Y-70059D01*
X51605Y-70183D01*
X51536Y-70349D01*
X51536Y-70528D01*
X51605Y-70693D01*
X51731Y-70820D01*
X51896Y-70888D01*
X52075Y-70889D01*
X52241Y-70820D01*
X52368Y-70694D01*
X52436Y-70528D01*
X52436Y-70349D01*
X52436Y-73450D01*
X51503Y-73450D01*
X51511Y-73441D01*
X51549Y-73349D01*
X51550Y-73250D01*
X51550Y-72650D01*
X51512Y-72558D01*
X51441Y-72488D01*
X51349Y-72450D01*
X51250Y-72449D01*
X50650Y-72449D01*
X50558Y-72487D01*
X50510Y-72536D01*
X50510Y-67132D01*
X50441Y-66967D01*
X50315Y-66840D01*
X50149Y-66772D01*
X49970Y-66771D01*
X49805Y-66840D01*
X49751Y-66893D01*
X49751Y-66193D01*
X49683Y-66028D01*
X49556Y-65901D01*
X49391Y-65832D01*
X49212Y-65832D01*
X49047Y-65900D01*
X48945Y-66002D01*
X48945Y-61594D01*
X48876Y-61428D01*
X48750Y-61302D01*
X48585Y-61233D01*
X48406Y-61233D01*
X48240Y-61301D01*
X48113Y-61428D01*
X48045Y-61593D01*
X48045Y-61772D01*
X48113Y-61937D01*
X48239Y-62064D01*
X48405Y-62133D01*
X48584Y-62133D01*
X48749Y-62065D01*
X48876Y-61938D01*
X48945Y-61773D01*
X48945Y-61594D01*
X48945Y-66002D01*
X48920Y-66027D01*
X48851Y-66192D01*
X48851Y-66371D01*
X48919Y-66537D01*
X49046Y-66663D01*
X49211Y-66732D01*
X49390Y-66732D01*
X49556Y-66664D01*
X49682Y-66537D01*
X49751Y-66372D01*
X49751Y-66193D01*
X49751Y-66893D01*
X49678Y-66966D01*
X49610Y-67132D01*
X49609Y-67311D01*
X49678Y-67476D01*
X49804Y-67603D01*
X49970Y-67671D01*
X50149Y-67672D01*
X50314Y-67603D01*
X50441Y-67477D01*
X50509Y-67311D01*
X50510Y-67132D01*
X50510Y-72536D01*
X50488Y-72558D01*
X50450Y-72649D01*
X50450Y-69800D01*
X50381Y-69635D01*
X50255Y-69508D01*
X50089Y-69440D01*
X49914Y-69439D01*
X49914Y-68568D01*
X49845Y-68402D01*
X49719Y-68275D01*
X49554Y-68207D01*
X49375Y-68207D01*
X49209Y-68275D01*
X49082Y-68401D01*
X49014Y-68567D01*
X49014Y-68746D01*
X49082Y-68911D01*
X49209Y-69038D01*
X49374Y-69107D01*
X49553Y-69107D01*
X49718Y-69038D01*
X49845Y-68912D01*
X49914Y-68747D01*
X49914Y-68568D01*
X49914Y-69439D01*
X49910Y-69439D01*
X49745Y-69508D01*
X49618Y-69634D01*
X49550Y-69800D01*
X49549Y-69979D01*
X49618Y-70144D01*
X49744Y-70271D01*
X49910Y-70339D01*
X50089Y-70340D01*
X50254Y-70271D01*
X50381Y-70145D01*
X50449Y-69979D01*
X50450Y-69800D01*
X50450Y-72649D01*
X50450Y-72650D01*
X50449Y-72703D01*
X50385Y-72684D01*
X50315Y-72755D01*
X50315Y-72614D01*
X50287Y-72518D01*
X50081Y-72445D01*
X49863Y-72456D01*
X49712Y-72518D01*
X49684Y-72614D01*
X50000Y-72929D01*
X50315Y-72614D01*
X50315Y-72755D01*
X50070Y-73000D01*
X50385Y-73315D01*
X50449Y-73296D01*
X50449Y-73349D01*
X50487Y-73441D01*
X50496Y-73450D01*
X50296Y-73450D01*
X50315Y-73385D01*
X50000Y-73070D01*
X49684Y-73385D01*
X49703Y-73450D01*
X49327Y-73450D01*
X49465Y-73311D01*
X49497Y-73236D01*
X49518Y-73287D01*
X49614Y-73315D01*
X49929Y-73000D01*
X49614Y-72684D01*
X49518Y-72712D01*
X49499Y-72767D01*
X49466Y-72688D01*
X49311Y-72534D01*
X49109Y-72450D01*
X48891Y-72449D01*
X48848Y-72467D01*
X48848Y-66795D01*
X48779Y-66630D01*
X48653Y-66503D01*
X48583Y-66474D01*
X48583Y-64690D01*
X48515Y-64524D01*
X48388Y-64398D01*
X48279Y-64353D01*
X48279Y-62960D01*
X48211Y-62795D01*
X48085Y-62668D01*
X47919Y-62600D01*
X47828Y-62599D01*
X47828Y-61183D01*
X47760Y-61017D01*
X47729Y-60987D01*
X47729Y-59190D01*
X47661Y-59025D01*
X47535Y-58898D01*
X47369Y-58829D01*
X47278Y-58829D01*
X47251Y-58765D01*
X47125Y-58638D01*
X47099Y-58628D01*
X47100Y-58460D01*
X47031Y-58295D01*
X46905Y-58168D01*
X46739Y-58100D01*
X46560Y-58099D01*
X46395Y-58168D01*
X46268Y-58294D01*
X46200Y-58460D01*
X46199Y-58639D01*
X46268Y-58804D01*
X46394Y-58931D01*
X46420Y-58941D01*
X46420Y-59109D01*
X46488Y-59274D01*
X46614Y-59401D01*
X46780Y-59470D01*
X46871Y-59470D01*
X46898Y-59534D01*
X47024Y-59661D01*
X47190Y-59729D01*
X47369Y-59729D01*
X47534Y-59661D01*
X47661Y-59535D01*
X47729Y-59369D01*
X47729Y-59190D01*
X47729Y-60987D01*
X47633Y-60891D01*
X47468Y-60822D01*
X47289Y-60822D01*
X47124Y-60890D01*
X46997Y-61017D01*
X46928Y-61182D01*
X46928Y-61361D01*
X46996Y-61527D01*
X47123Y-61653D01*
X47288Y-61722D01*
X47467Y-61722D01*
X47633Y-61654D01*
X47759Y-61527D01*
X47828Y-61362D01*
X47828Y-61183D01*
X47828Y-62599D01*
X47740Y-62599D01*
X47575Y-62668D01*
X47448Y-62794D01*
X47379Y-62960D01*
X47379Y-63139D01*
X47448Y-63304D01*
X47574Y-63431D01*
X47740Y-63499D01*
X47919Y-63500D01*
X48084Y-63431D01*
X48211Y-63305D01*
X48279Y-63139D01*
X48279Y-62960D01*
X48279Y-64353D01*
X48223Y-64329D01*
X48044Y-64329D01*
X47879Y-64397D01*
X47752Y-64524D01*
X47683Y-64689D01*
X47683Y-64868D01*
X47751Y-65034D01*
X47878Y-65160D01*
X48043Y-65229D01*
X48222Y-65229D01*
X48388Y-65161D01*
X48514Y-65034D01*
X48583Y-64869D01*
X48583Y-64690D01*
X48583Y-66474D01*
X48487Y-66435D01*
X48308Y-66434D01*
X48143Y-66503D01*
X48016Y-66629D01*
X47948Y-66795D01*
X47947Y-66974D01*
X48016Y-67139D01*
X48142Y-67266D01*
X48308Y-67334D01*
X48487Y-67335D01*
X48652Y-67266D01*
X48779Y-67140D01*
X48847Y-66974D01*
X48848Y-66795D01*
X48848Y-72467D01*
X48688Y-72533D01*
X48534Y-72688D01*
X48500Y-72769D01*
X48466Y-72688D01*
X48311Y-72534D01*
X48109Y-72450D01*
X48042Y-72450D01*
X48042Y-67776D01*
X47973Y-67611D01*
X47847Y-67484D01*
X47681Y-67416D01*
X47502Y-67415D01*
X47337Y-67484D01*
X47268Y-67552D01*
X47255Y-67538D01*
X47089Y-67470D01*
X46910Y-67470D01*
X46850Y-67495D01*
X46850Y-62640D01*
X46781Y-62475D01*
X46655Y-62348D01*
X46489Y-62279D01*
X46310Y-62279D01*
X46145Y-62348D01*
X46018Y-62474D01*
X45950Y-62640D01*
X45949Y-62819D01*
X46018Y-62984D01*
X46144Y-63111D01*
X46310Y-63179D01*
X46489Y-63179D01*
X46654Y-63111D01*
X46781Y-62985D01*
X46849Y-62819D01*
X46850Y-62640D01*
X46850Y-67495D01*
X46745Y-67538D01*
X46618Y-67664D01*
X46595Y-67721D01*
X46595Y-67132D01*
X46526Y-66967D01*
X46400Y-66840D01*
X46234Y-66772D01*
X46055Y-66771D01*
X45890Y-66840D01*
X45800Y-66930D01*
X45800Y-57860D01*
X45731Y-57695D01*
X45659Y-57623D01*
X45659Y-56680D01*
X45591Y-56515D01*
X45465Y-56388D01*
X45299Y-56320D01*
X45120Y-56320D01*
X44955Y-56388D01*
X44828Y-56514D01*
X44759Y-56680D01*
X44759Y-56859D01*
X44828Y-57024D01*
X44954Y-57151D01*
X45119Y-57220D01*
X45298Y-57220D01*
X45464Y-57151D01*
X45591Y-57025D01*
X45659Y-56859D01*
X45659Y-56680D01*
X45659Y-57623D01*
X45605Y-57568D01*
X45439Y-57500D01*
X45260Y-57499D01*
X45095Y-57568D01*
X44968Y-57694D01*
X44900Y-57860D01*
X44899Y-58039D01*
X44968Y-58204D01*
X45094Y-58331D01*
X45260Y-58399D01*
X45439Y-58400D01*
X45604Y-58331D01*
X45731Y-58205D01*
X45799Y-58039D01*
X45800Y-57860D01*
X45800Y-66930D01*
X45763Y-66966D01*
X45695Y-67132D01*
X45694Y-67311D01*
X45763Y-67476D01*
X45889Y-67603D01*
X46055Y-67671D01*
X46234Y-67672D01*
X46399Y-67603D01*
X46526Y-67477D01*
X46594Y-67311D01*
X46595Y-67132D01*
X46595Y-67721D01*
X46550Y-67830D01*
X46549Y-68009D01*
X46618Y-68174D01*
X46744Y-68301D01*
X46910Y-68370D01*
X47089Y-68370D01*
X47254Y-68301D01*
X47323Y-68233D01*
X47336Y-68247D01*
X47502Y-68315D01*
X47681Y-68316D01*
X47846Y-68247D01*
X47973Y-68121D01*
X48041Y-67955D01*
X48042Y-67776D01*
X48042Y-72450D01*
X47891Y-72449D01*
X47688Y-72533D01*
X47534Y-72688D01*
X47500Y-72769D01*
X47466Y-72688D01*
X47311Y-72534D01*
X47109Y-72450D01*
X46891Y-72449D01*
X46688Y-72533D01*
X46534Y-72688D01*
X46450Y-72890D01*
X46449Y-73108D01*
X46533Y-73311D01*
X46672Y-73450D01*
X46000Y-73450D01*
X46000Y-68520D01*
X45931Y-68355D01*
X45805Y-68228D01*
X45639Y-68159D01*
X45460Y-68159D01*
X45459Y-68160D01*
X45459Y-58740D01*
X45391Y-58575D01*
X45265Y-58448D01*
X45099Y-58379D01*
X44920Y-58379D01*
X44755Y-58448D01*
X44628Y-58574D01*
X44559Y-58740D01*
X44559Y-58919D01*
X44628Y-59084D01*
X44754Y-59211D01*
X44919Y-59279D01*
X45098Y-59279D01*
X45264Y-59211D01*
X45391Y-59085D01*
X45459Y-58919D01*
X45459Y-58740D01*
X45459Y-68160D01*
X45390Y-68189D01*
X45390Y-61975D01*
X45321Y-61810D01*
X45195Y-61683D01*
X45029Y-61615D01*
X44850Y-61614D01*
X44750Y-61656D01*
X44750Y-59470D01*
X44681Y-59305D01*
X44555Y-59178D01*
X44389Y-59109D01*
X44210Y-59109D01*
X44045Y-59178D01*
X43918Y-59304D01*
X43850Y-59469D01*
X43849Y-59648D01*
X43918Y-59814D01*
X44044Y-59941D01*
X44210Y-60009D01*
X44389Y-60009D01*
X44554Y-59941D01*
X44681Y-59815D01*
X44749Y-59649D01*
X44750Y-59470D01*
X44750Y-61656D01*
X44685Y-61683D01*
X44558Y-61809D01*
X44490Y-61975D01*
X44489Y-62154D01*
X44558Y-62319D01*
X44684Y-62446D01*
X44850Y-62514D01*
X45029Y-62515D01*
X45194Y-62446D01*
X45321Y-62320D01*
X45389Y-62154D01*
X45390Y-61975D01*
X45390Y-68189D01*
X45295Y-68228D01*
X45168Y-68354D01*
X45164Y-68365D01*
X45020Y-68364D01*
X44855Y-68433D01*
X44728Y-68559D01*
X44660Y-68725D01*
X44659Y-68904D01*
X44728Y-69069D01*
X44854Y-69196D01*
X45020Y-69264D01*
X45199Y-69265D01*
X45364Y-69196D01*
X45491Y-69070D01*
X45495Y-69059D01*
X45639Y-69059D01*
X45804Y-68991D01*
X45931Y-68865D01*
X45999Y-68699D01*
X46000Y-68520D01*
X46000Y-73450D01*
X44970Y-73450D01*
X44970Y-72280D01*
X44901Y-72115D01*
X44775Y-71988D01*
X44609Y-71920D01*
X44430Y-71920D01*
X44329Y-71961D01*
X44329Y-66970D01*
X44261Y-66805D01*
X44135Y-66678D01*
X43969Y-66609D01*
X43790Y-66609D01*
X43625Y-66678D01*
X43498Y-66804D01*
X43429Y-66969D01*
X43429Y-67148D01*
X43469Y-67244D01*
X43428Y-67284D01*
X43359Y-67450D01*
X43359Y-67629D01*
X43428Y-67794D01*
X43554Y-67921D01*
X43719Y-67990D01*
X43898Y-67990D01*
X44064Y-67921D01*
X44191Y-67795D01*
X44259Y-67630D01*
X44259Y-67451D01*
X44220Y-67355D01*
X44261Y-67315D01*
X44329Y-67149D01*
X44329Y-66970D01*
X44329Y-71961D01*
X44265Y-71988D01*
X44138Y-72114D01*
X44070Y-72280D01*
X44070Y-72459D01*
X44138Y-72624D01*
X44264Y-72751D01*
X44430Y-72820D01*
X44609Y-72820D01*
X44774Y-72751D01*
X44901Y-72625D01*
X44970Y-72459D01*
X44970Y-72280D01*
X44970Y-73450D01*
X43290Y-73450D01*
X43290Y-66270D01*
X43221Y-66105D01*
X43095Y-65978D01*
X43079Y-65972D01*
X43079Y-63790D01*
X43011Y-63625D01*
X42885Y-63498D01*
X42719Y-63429D01*
X42540Y-63429D01*
X42375Y-63498D01*
X42248Y-63624D01*
X42179Y-63790D01*
X42179Y-63969D01*
X42248Y-64134D01*
X42374Y-64261D01*
X42540Y-64329D01*
X42719Y-64329D01*
X42884Y-64261D01*
X43011Y-64135D01*
X43079Y-63969D01*
X43079Y-63790D01*
X43079Y-65972D01*
X42930Y-65909D01*
X42751Y-65909D01*
X42585Y-65978D01*
X42458Y-66104D01*
X42390Y-66269D01*
X42390Y-66448D01*
X42458Y-66614D01*
X42584Y-66741D01*
X42750Y-66809D01*
X42929Y-66809D01*
X43094Y-66741D01*
X43221Y-66615D01*
X43290Y-66449D01*
X43290Y-66270D01*
X43290Y-73450D01*
X43120Y-73450D01*
X43120Y-68840D01*
X43051Y-68675D01*
X42925Y-68548D01*
X42759Y-68479D01*
X42580Y-68479D01*
X42415Y-68548D01*
X42288Y-68674D01*
X42220Y-68840D01*
X42220Y-69019D01*
X42288Y-69184D01*
X42414Y-69311D01*
X42580Y-69379D01*
X42759Y-69379D01*
X42924Y-69311D01*
X43051Y-69185D01*
X43120Y-69019D01*
X43120Y-68840D01*
X43120Y-73450D01*
X41679Y-73450D01*
X41799Y-73159D01*
X41800Y-72841D01*
X41678Y-72547D01*
X41453Y-72322D01*
X41159Y-72200D01*
X40841Y-72199D01*
X40550Y-72320D01*
X40550Y-55550D01*
X47050Y-55550D01*
X47050Y-48050D01*
X54909Y-48050D01*
X54909Y-48179D01*
X54978Y-48344D01*
X55104Y-48471D01*
X55269Y-48540D01*
X55448Y-48540D01*
X55614Y-48471D01*
X55741Y-48345D01*
X55809Y-48180D01*
X55809Y-48050D01*
X65702Y-48050D01*
X65702Y-48155D01*
X65740Y-48247D01*
X65810Y-48318D01*
X65902Y-48356D01*
X66002Y-48356D01*
X66671Y-48356D01*
X66763Y-48318D01*
X66833Y-48248D01*
X66872Y-48156D01*
X66872Y-48056D01*
X66872Y-48050D01*
X78582Y-48050D01*
X78440Y-48191D01*
X78250Y-48650D01*
X78249Y-49147D01*
X78439Y-49607D01*
X78791Y-49959D01*
X79250Y-50149D01*
X79747Y-50150D01*
X80207Y-49960D01*
X80559Y-49608D01*
X80749Y-49149D01*
X80750Y-48652D01*
X80560Y-48192D01*
X80417Y-48050D01*
X81702Y-48050D01*
X81702Y-48655D01*
X81740Y-48747D01*
X81810Y-48818D01*
X81902Y-48856D01*
X82002Y-48856D01*
X82671Y-48856D01*
X82763Y-48818D01*
X82833Y-48748D01*
X82872Y-48656D01*
X82872Y-48556D01*
X82872Y-48050D01*
X84550Y-48050D01*
X84550Y-46785D01*
X84554Y-46797D01*
X84702Y-46944D01*
X84895Y-47024D01*
X85103Y-47025D01*
X85297Y-46945D01*
X85444Y-46797D01*
X85524Y-46604D01*
X85525Y-46396D01*
X85445Y-46203D01*
X85297Y-46055D01*
X85285Y-46050D01*
X87214Y-46050D01*
X87203Y-46054D01*
X87055Y-46202D01*
X86975Y-46395D01*
X86974Y-46603D01*
X87054Y-46797D01*
X87202Y-46944D01*
X87395Y-47024D01*
X87603Y-47025D01*
X87797Y-46945D01*
X87944Y-46797D01*
X88024Y-46604D01*
X88025Y-46396D01*
X87945Y-46203D01*
X87797Y-46055D01*
X87785Y-46050D01*
X95450Y-46050D01*
X95450Y-59313D01*
X95390Y-59253D01*
X95390Y-57690D01*
X95321Y-57525D01*
X95195Y-57398D01*
X95030Y-57329D01*
X94851Y-57329D01*
X94685Y-57398D01*
X94558Y-57524D01*
X94490Y-57690D01*
X94490Y-57869D01*
X94558Y-58034D01*
X94684Y-58161D01*
X94850Y-58229D01*
X95029Y-58229D01*
X95194Y-58161D01*
X95321Y-58035D01*
X95390Y-57869D01*
X95390Y-57690D01*
X95390Y-59253D01*
X95355Y-59218D01*
X95189Y-59150D01*
X95010Y-59149D01*
X94845Y-59218D01*
X94718Y-59344D01*
X94650Y-59510D01*
X94649Y-59689D01*
X94718Y-59854D01*
X94844Y-59981D01*
X95010Y-60049D01*
X95189Y-60050D01*
X95354Y-59981D01*
X95450Y-59886D01*
X95450Y-62582D01*
X95401Y-62465D01*
X95275Y-62338D01*
X95109Y-62270D01*
X94930Y-62270D01*
X94765Y-62338D01*
X94638Y-62464D01*
X94570Y-62630D01*
X94570Y-62809D01*
X94638Y-62974D01*
X94764Y-63101D01*
X94930Y-63170D01*
X95109Y-63170D01*
X95274Y-63101D01*
X95401Y-62975D01*
X95450Y-62858D01*
X95450Y-69475D01*
X95356Y-69514D01*
X95229Y-69640D01*
X95229Y-68451D01*
X95161Y-68285D01*
X95035Y-68158D01*
X94869Y-68090D01*
X94690Y-68090D01*
X94525Y-68158D01*
X94522Y-68161D01*
X94360Y-68094D01*
X94270Y-68093D01*
X94270Y-61790D01*
X94201Y-61625D01*
X94075Y-61498D01*
X93929Y-61438D01*
X93929Y-46630D01*
X93861Y-46465D01*
X93735Y-46338D01*
X93569Y-46270D01*
X93390Y-46270D01*
X93225Y-46338D01*
X93098Y-46464D01*
X93029Y-46630D01*
X93029Y-46809D01*
X93078Y-46925D01*
X92958Y-47044D01*
X92890Y-47210D01*
X92890Y-47389D01*
X92958Y-47554D01*
X93084Y-47681D01*
X93250Y-47749D01*
X93429Y-47750D01*
X93594Y-47681D01*
X93721Y-47555D01*
X93790Y-47389D01*
X93790Y-47210D01*
X93742Y-47094D01*
X93861Y-46975D01*
X93929Y-46809D01*
X93929Y-46630D01*
X93929Y-61438D01*
X93909Y-61429D01*
X93730Y-61429D01*
X93565Y-61498D01*
X93438Y-61624D01*
X93370Y-61790D01*
X93370Y-61969D01*
X93438Y-62134D01*
X93564Y-62261D01*
X93730Y-62329D01*
X93909Y-62329D01*
X94074Y-62261D01*
X94201Y-62135D01*
X94270Y-61969D01*
X94270Y-61790D01*
X94270Y-68093D01*
X94181Y-68093D01*
X94016Y-68162D01*
X93889Y-68288D01*
X93821Y-68454D01*
X93820Y-68633D01*
X93889Y-68798D01*
X94015Y-68925D01*
X94181Y-68993D01*
X94360Y-68994D01*
X94525Y-68925D01*
X94528Y-68922D01*
X94690Y-68990D01*
X94869Y-68990D01*
X95034Y-68921D01*
X95161Y-68795D01*
X95229Y-68630D01*
X95229Y-68451D01*
X95229Y-69640D01*
X95229Y-69641D01*
X95160Y-69806D01*
X95160Y-69985D01*
X95228Y-70150D01*
X95355Y-70277D01*
X95450Y-70316D01*
X95450Y-73450D01*
X95450Y-73450D01*
G37*
G54D29*
X95450Y-73450D02*
X95129Y-73450D01*
X95129Y-69670D01*
X95061Y-69505D01*
X94935Y-69378D01*
X94769Y-69309D01*
X94590Y-69309D01*
X94425Y-69378D01*
X94349Y-69453D01*
X94335Y-69438D01*
X94169Y-69370D01*
X93990Y-69370D01*
X93825Y-69438D01*
X93698Y-69564D01*
X93629Y-69730D01*
X93629Y-69909D01*
X93698Y-70074D01*
X93824Y-70201D01*
X93990Y-70270D01*
X94169Y-70270D01*
X94334Y-70201D01*
X94410Y-70126D01*
X94424Y-70141D01*
X94590Y-70209D01*
X94769Y-70209D01*
X94934Y-70141D01*
X95061Y-70015D01*
X95129Y-69849D01*
X95129Y-69670D01*
X95129Y-73450D01*
X93940Y-73450D01*
X93990Y-73330D01*
X93990Y-73151D01*
X93921Y-72985D01*
X93795Y-72858D01*
X93630Y-72790D01*
X93451Y-72790D01*
X93450Y-72790D01*
X93450Y-71951D01*
X93381Y-71785D01*
X93255Y-71658D01*
X93089Y-71590D01*
X92910Y-71590D01*
X92770Y-71648D01*
X92770Y-47990D01*
X92701Y-47825D01*
X92575Y-47698D01*
X92409Y-47629D01*
X92230Y-47629D01*
X92065Y-47698D01*
X91938Y-47824D01*
X91870Y-47990D01*
X91870Y-48169D01*
X91938Y-48334D01*
X92064Y-48461D01*
X92230Y-48529D01*
X92409Y-48529D01*
X92574Y-48461D01*
X92701Y-48335D01*
X92770Y-48169D01*
X92770Y-47990D01*
X92770Y-71648D01*
X92745Y-71658D01*
X92618Y-71784D01*
X92550Y-71950D01*
X92549Y-72129D01*
X92618Y-72294D01*
X92744Y-72421D01*
X92910Y-72490D01*
X93089Y-72490D01*
X93254Y-72421D01*
X93381Y-72295D01*
X93449Y-72130D01*
X93450Y-71951D01*
X93450Y-72790D01*
X93285Y-72858D01*
X93158Y-72984D01*
X93090Y-73150D01*
X93090Y-73329D01*
X93139Y-73450D01*
X91929Y-73450D01*
X91929Y-56551D01*
X91861Y-56385D01*
X91735Y-56258D01*
X91569Y-56190D01*
X91390Y-56190D01*
X91225Y-56258D01*
X91098Y-56384D01*
X91029Y-56550D01*
X91029Y-56729D01*
X91098Y-56894D01*
X91224Y-57021D01*
X91390Y-57090D01*
X91569Y-57090D01*
X91734Y-57021D01*
X91861Y-56895D01*
X91929Y-56730D01*
X91929Y-56551D01*
X91929Y-73450D01*
X91704Y-73450D01*
X91729Y-73389D01*
X91729Y-73210D01*
X91661Y-73045D01*
X91535Y-72918D01*
X91369Y-72850D01*
X91349Y-72850D01*
X91349Y-69839D01*
X91280Y-69673D01*
X91154Y-69546D01*
X90989Y-69478D01*
X90810Y-69478D01*
X90729Y-69511D01*
X90729Y-57370D01*
X90661Y-57205D01*
X90535Y-57078D01*
X90369Y-57009D01*
X90190Y-57009D01*
X90025Y-57078D01*
X89898Y-57204D01*
X89829Y-57369D01*
X89829Y-57548D01*
X89898Y-57714D01*
X90024Y-57841D01*
X90190Y-57909D01*
X90369Y-57909D01*
X90534Y-57841D01*
X90661Y-57715D01*
X90729Y-57549D01*
X90729Y-57370D01*
X90729Y-69511D01*
X90650Y-69544D01*
X90650Y-67530D01*
X90581Y-67365D01*
X90490Y-67273D01*
X90490Y-59070D01*
X90421Y-58905D01*
X90295Y-58778D01*
X90130Y-58709D01*
X89951Y-58709D01*
X89785Y-58778D01*
X89658Y-58904D01*
X89608Y-59026D01*
X89541Y-58865D01*
X89529Y-58853D01*
X89529Y-48190D01*
X89461Y-48025D01*
X89335Y-47898D01*
X89169Y-47829D01*
X88990Y-47829D01*
X88870Y-47879D01*
X88870Y-46970D01*
X88801Y-46805D01*
X88675Y-46678D01*
X88509Y-46609D01*
X88330Y-46609D01*
X88165Y-46678D01*
X88038Y-46804D01*
X87970Y-46969D01*
X87970Y-47148D01*
X88038Y-47314D01*
X88164Y-47441D01*
X88330Y-47509D01*
X88509Y-47509D01*
X88674Y-47441D01*
X88801Y-47315D01*
X88870Y-47149D01*
X88870Y-46970D01*
X88870Y-47879D01*
X88825Y-47898D01*
X88698Y-48024D01*
X88629Y-48190D01*
X88629Y-48369D01*
X88698Y-48534D01*
X88824Y-48661D01*
X88990Y-48729D01*
X89169Y-48729D01*
X89334Y-48661D01*
X89461Y-48535D01*
X89529Y-48369D01*
X89529Y-48190D01*
X89529Y-58853D01*
X89415Y-58738D01*
X89249Y-58670D01*
X89070Y-58670D01*
X88905Y-58738D01*
X88778Y-58864D01*
X88750Y-58933D01*
X88750Y-55752D01*
X88560Y-55292D01*
X88208Y-54940D01*
X87749Y-54750D01*
X87252Y-54749D01*
X86792Y-54939D01*
X86440Y-55291D01*
X86250Y-55750D01*
X86249Y-56247D01*
X86439Y-56707D01*
X86791Y-57059D01*
X87250Y-57249D01*
X87747Y-57250D01*
X88207Y-57060D01*
X88559Y-56708D01*
X88749Y-56249D01*
X88750Y-55752D01*
X88750Y-58933D01*
X88709Y-59030D01*
X88709Y-59209D01*
X88778Y-59374D01*
X88904Y-59501D01*
X89069Y-59570D01*
X89248Y-59570D01*
X89414Y-59501D01*
X89541Y-59375D01*
X89591Y-59253D01*
X89658Y-59414D01*
X89784Y-59541D01*
X89950Y-59609D01*
X90129Y-59609D01*
X90294Y-59541D01*
X90421Y-59415D01*
X90490Y-59249D01*
X90490Y-59070D01*
X90490Y-67273D01*
X90455Y-67238D01*
X90289Y-67170D01*
X90110Y-67170D01*
X89950Y-67236D01*
X89950Y-64630D01*
X89881Y-64465D01*
X89755Y-64338D01*
X89589Y-64270D01*
X89410Y-64270D01*
X89270Y-64328D01*
X89270Y-60051D01*
X89201Y-59885D01*
X89075Y-59758D01*
X88909Y-59690D01*
X88730Y-59690D01*
X88565Y-59758D01*
X88438Y-59884D01*
X88370Y-60050D01*
X88370Y-60229D01*
X88438Y-60394D01*
X88564Y-60521D01*
X88730Y-60590D01*
X88909Y-60590D01*
X89074Y-60521D01*
X89201Y-60395D01*
X89270Y-60230D01*
X89270Y-60051D01*
X89270Y-64328D01*
X89245Y-64338D01*
X89118Y-64464D01*
X89107Y-64491D01*
X89035Y-64418D01*
X88869Y-64350D01*
X88690Y-64349D01*
X88525Y-64418D01*
X88520Y-64423D01*
X88495Y-64398D01*
X88330Y-64329D01*
X88151Y-64329D01*
X88077Y-64360D01*
X88029Y-64313D01*
X88029Y-58090D01*
X87961Y-57925D01*
X87835Y-57798D01*
X87669Y-57729D01*
X87490Y-57729D01*
X87325Y-57798D01*
X87198Y-57924D01*
X87129Y-58090D01*
X87129Y-58269D01*
X87198Y-58434D01*
X87324Y-58561D01*
X87490Y-58629D01*
X87669Y-58629D01*
X87834Y-58561D01*
X87961Y-58435D01*
X88029Y-58269D01*
X88029Y-58090D01*
X88029Y-64313D01*
X87995Y-64278D01*
X87830Y-64209D01*
X87651Y-64209D01*
X87485Y-64278D01*
X87462Y-64301D01*
X87649Y-63849D01*
X87650Y-63352D01*
X87460Y-62892D01*
X87108Y-62540D01*
X87050Y-62516D01*
X87050Y-59891D01*
X86966Y-59688D01*
X86811Y-59534D01*
X86730Y-59500D01*
X86811Y-59466D01*
X86965Y-59311D01*
X87049Y-59109D01*
X87050Y-58891D01*
X86966Y-58688D01*
X86811Y-58534D01*
X86609Y-58450D01*
X86391Y-58449D01*
X86188Y-58533D01*
X86034Y-58688D01*
X85950Y-58890D01*
X85949Y-59108D01*
X86033Y-59311D01*
X86188Y-59465D01*
X86269Y-59499D01*
X86188Y-59533D01*
X86034Y-59688D01*
X85950Y-59890D01*
X85949Y-60108D01*
X86033Y-60311D01*
X86172Y-60450D01*
X86150Y-60450D01*
X86058Y-60488D01*
X85987Y-60558D01*
X85949Y-60650D01*
X85950Y-60887D01*
X86012Y-60950D01*
X86450Y-60950D01*
X86450Y-60942D01*
X86550Y-60942D01*
X86550Y-60950D01*
X86987Y-60950D01*
X87050Y-60887D01*
X87050Y-60650D01*
X87012Y-60558D01*
X86941Y-60488D01*
X86849Y-60450D01*
X86827Y-60450D01*
X86965Y-60311D01*
X87049Y-60109D01*
X87050Y-59891D01*
X87050Y-62516D01*
X87050Y-62516D01*
X87050Y-61349D01*
X87050Y-61112D01*
X86987Y-61050D01*
X86550Y-61050D01*
X86550Y-61487D01*
X86612Y-61550D01*
X86750Y-61550D01*
X86849Y-61549D01*
X86941Y-61511D01*
X87012Y-61441D01*
X87050Y-61349D01*
X87050Y-62516D01*
X86649Y-62350D01*
X86450Y-62350D01*
X86450Y-61487D01*
X86450Y-61050D01*
X86012Y-61050D01*
X85950Y-61112D01*
X85949Y-61349D01*
X85987Y-61441D01*
X86058Y-61511D01*
X86150Y-61549D01*
X86249Y-61550D01*
X86387Y-61550D01*
X86450Y-61487D01*
X86450Y-62350D01*
X86152Y-62349D01*
X85692Y-62539D01*
X85340Y-62891D01*
X85329Y-62917D01*
X85329Y-62651D01*
X85261Y-62485D01*
X85135Y-62358D01*
X84969Y-62290D01*
X84790Y-62290D01*
X84625Y-62358D01*
X84498Y-62484D01*
X84429Y-62650D01*
X84429Y-62829D01*
X84498Y-62994D01*
X84624Y-63121D01*
X84790Y-63190D01*
X84969Y-63190D01*
X85134Y-63121D01*
X85261Y-62995D01*
X85329Y-62830D01*
X85329Y-62651D01*
X85329Y-62917D01*
X85150Y-63350D01*
X85149Y-63847D01*
X85339Y-64307D01*
X85691Y-64659D01*
X85850Y-64725D01*
X85790Y-64869D01*
X85790Y-65048D01*
X85858Y-65214D01*
X85984Y-65341D01*
X86150Y-65409D01*
X86329Y-65409D01*
X86494Y-65341D01*
X86621Y-65215D01*
X86690Y-65049D01*
X86690Y-64870D01*
X86676Y-64838D01*
X87107Y-64660D01*
X87355Y-64412D01*
X87290Y-64569D01*
X87290Y-64748D01*
X87358Y-64914D01*
X87484Y-65041D01*
X87525Y-65058D01*
X87498Y-65084D01*
X87429Y-65250D01*
X87429Y-65429D01*
X87498Y-65594D01*
X87624Y-65721D01*
X87790Y-65790D01*
X87969Y-65790D01*
X88134Y-65721D01*
X88261Y-65595D01*
X88329Y-65430D01*
X88329Y-65251D01*
X88321Y-65229D01*
X88329Y-65229D01*
X88494Y-65161D01*
X88499Y-65156D01*
X88524Y-65181D01*
X88690Y-65249D01*
X88869Y-65250D01*
X89034Y-65181D01*
X89161Y-65055D01*
X89172Y-65028D01*
X89244Y-65101D01*
X89410Y-65170D01*
X89589Y-65170D01*
X89754Y-65101D01*
X89881Y-64975D01*
X89949Y-64809D01*
X89950Y-64630D01*
X89950Y-67236D01*
X89945Y-67238D01*
X89818Y-67364D01*
X89790Y-67433D01*
X89790Y-66951D01*
X89721Y-66785D01*
X89595Y-66658D01*
X89430Y-66590D01*
X89251Y-66590D01*
X89085Y-66658D01*
X88958Y-66784D01*
X88890Y-66950D01*
X88890Y-67129D01*
X88923Y-67209D01*
X88851Y-67209D01*
X88685Y-67278D01*
X88558Y-67404D01*
X88490Y-67569D01*
X88490Y-67748D01*
X88558Y-67914D01*
X88684Y-68041D01*
X88850Y-68109D01*
X89029Y-68109D01*
X89194Y-68041D01*
X89321Y-67915D01*
X89390Y-67749D01*
X89390Y-67570D01*
X89356Y-67490D01*
X89429Y-67490D01*
X89594Y-67421D01*
X89721Y-67295D01*
X89790Y-67130D01*
X89790Y-66951D01*
X89790Y-67433D01*
X89750Y-67530D01*
X89749Y-67709D01*
X89818Y-67874D01*
X89944Y-68001D01*
X90110Y-68070D01*
X90289Y-68070D01*
X90454Y-68001D01*
X90581Y-67875D01*
X90649Y-67709D01*
X90650Y-67530D01*
X90650Y-69544D01*
X90644Y-69546D01*
X90517Y-69672D01*
X90449Y-69838D01*
X90449Y-70017D01*
X90517Y-70182D01*
X90643Y-70309D01*
X90809Y-70378D01*
X90988Y-70378D01*
X91153Y-70309D01*
X91280Y-70183D01*
X91349Y-70018D01*
X91349Y-69839D01*
X91349Y-72850D01*
X91190Y-72849D01*
X91025Y-72918D01*
X90898Y-73044D01*
X90829Y-73210D01*
X90829Y-73389D01*
X90854Y-73450D01*
X87709Y-73450D01*
X87709Y-66151D01*
X87641Y-65985D01*
X87515Y-65858D01*
X87349Y-65790D01*
X87170Y-65790D01*
X87005Y-65858D01*
X86878Y-65984D01*
X86809Y-66150D01*
X86809Y-66329D01*
X86878Y-66494D01*
X87004Y-66621D01*
X87169Y-66690D01*
X87348Y-66690D01*
X87514Y-66621D01*
X87641Y-66495D01*
X87709Y-66330D01*
X87709Y-66151D01*
X87709Y-73450D01*
X84636Y-73450D01*
X84636Y-70484D01*
X84567Y-70319D01*
X84441Y-70192D01*
X84276Y-70123D01*
X84190Y-70123D01*
X84190Y-64351D01*
X84121Y-64185D01*
X83995Y-64058D01*
X83830Y-63990D01*
X83809Y-63990D01*
X83809Y-62651D01*
X83741Y-62485D01*
X83615Y-62358D01*
X83449Y-62290D01*
X83270Y-62290D01*
X83105Y-62358D01*
X82978Y-62484D01*
X82909Y-62650D01*
X82909Y-62829D01*
X82978Y-62994D01*
X83104Y-63121D01*
X83269Y-63190D01*
X83448Y-63190D01*
X83614Y-63121D01*
X83741Y-62995D01*
X83809Y-62830D01*
X83809Y-62651D01*
X83809Y-63990D01*
X83651Y-63990D01*
X83485Y-64058D01*
X83420Y-64123D01*
X83415Y-64118D01*
X83249Y-64050D01*
X83070Y-64049D01*
X82905Y-64118D01*
X82778Y-64244D01*
X82709Y-64410D01*
X82709Y-64589D01*
X82760Y-64712D01*
X82745Y-64718D01*
X82653Y-64809D01*
X82509Y-64750D01*
X82330Y-64749D01*
X82212Y-64799D01*
X82181Y-64725D01*
X82055Y-64598D01*
X82039Y-64592D01*
X82090Y-64469D01*
X82090Y-64290D01*
X82021Y-64125D01*
X81895Y-63998D01*
X81730Y-63929D01*
X81551Y-63929D01*
X81385Y-63998D01*
X81258Y-64124D01*
X81190Y-64290D01*
X81190Y-64469D01*
X81258Y-64634D01*
X81384Y-64761D01*
X81400Y-64767D01*
X81350Y-64890D01*
X81349Y-65069D01*
X81418Y-65234D01*
X81544Y-65361D01*
X81710Y-65429D01*
X81889Y-65429D01*
X82007Y-65380D01*
X82038Y-65454D01*
X82164Y-65581D01*
X82330Y-65649D01*
X82509Y-65650D01*
X82674Y-65581D01*
X82766Y-65490D01*
X82910Y-65549D01*
X83089Y-65550D01*
X83254Y-65481D01*
X83381Y-65355D01*
X83449Y-65189D01*
X83450Y-65010D01*
X83399Y-64887D01*
X83414Y-64881D01*
X83479Y-64816D01*
X83484Y-64821D01*
X83650Y-64890D01*
X83829Y-64890D01*
X83994Y-64821D01*
X84121Y-64695D01*
X84190Y-64530D01*
X84190Y-64351D01*
X84190Y-70123D01*
X84097Y-70123D01*
X83931Y-70191D01*
X83804Y-70318D01*
X83736Y-70483D01*
X83736Y-70662D01*
X83804Y-70828D01*
X83930Y-70954D01*
X84096Y-71023D01*
X84275Y-71023D01*
X84440Y-70955D01*
X84567Y-70828D01*
X84636Y-70663D01*
X84636Y-70484D01*
X84636Y-73450D01*
X82890Y-73450D01*
X82890Y-66251D01*
X82821Y-66085D01*
X82695Y-65958D01*
X82530Y-65890D01*
X82351Y-65890D01*
X82185Y-65958D01*
X82058Y-66084D01*
X81990Y-66250D01*
X81990Y-66429D01*
X82058Y-66594D01*
X82184Y-66721D01*
X82350Y-66790D01*
X82529Y-66790D01*
X82694Y-66721D01*
X82821Y-66595D01*
X82890Y-66430D01*
X82890Y-66251D01*
X82890Y-73450D01*
X81970Y-73450D01*
X81970Y-72301D01*
X81901Y-72135D01*
X81775Y-72008D01*
X81609Y-71940D01*
X81430Y-71940D01*
X81265Y-72008D01*
X81138Y-72134D01*
X81070Y-72300D01*
X81070Y-72479D01*
X81138Y-72644D01*
X81264Y-72771D01*
X81430Y-72840D01*
X81609Y-72840D01*
X81774Y-72771D01*
X81901Y-72645D01*
X81970Y-72480D01*
X81970Y-72301D01*
X81970Y-73450D01*
X80679Y-73450D01*
X80679Y-51051D01*
X80611Y-50885D01*
X80485Y-50758D01*
X80319Y-50690D01*
X80140Y-50690D01*
X79975Y-50758D01*
X79848Y-50884D01*
X79779Y-51050D01*
X79779Y-51229D01*
X79848Y-51394D01*
X79974Y-51521D01*
X80140Y-51590D01*
X80319Y-51590D01*
X80484Y-51521D01*
X80611Y-51395D01*
X80679Y-51230D01*
X80679Y-51051D01*
X80679Y-73450D01*
X80350Y-73450D01*
X80350Y-58352D01*
X80160Y-57892D01*
X79808Y-57540D01*
X79349Y-57350D01*
X78852Y-57349D01*
X78392Y-57539D01*
X78040Y-57891D01*
X77850Y-58350D01*
X77849Y-58847D01*
X78039Y-59307D01*
X78391Y-59659D01*
X78850Y-59849D01*
X79347Y-59850D01*
X79807Y-59660D01*
X80159Y-59308D01*
X80349Y-58849D01*
X80350Y-58352D01*
X80350Y-73450D01*
X80229Y-73450D01*
X80229Y-62490D01*
X80161Y-62325D01*
X80035Y-62198D01*
X79869Y-62129D01*
X79690Y-62129D01*
X79525Y-62198D01*
X79398Y-62324D01*
X79329Y-62490D01*
X79329Y-62669D01*
X79398Y-62834D01*
X79524Y-62961D01*
X79690Y-63029D01*
X79869Y-63029D01*
X80034Y-62961D01*
X80161Y-62835D01*
X80229Y-62669D01*
X80229Y-62490D01*
X80229Y-73450D01*
X79890Y-73450D01*
X79890Y-72301D01*
X79821Y-72135D01*
X79695Y-72008D01*
X79530Y-71940D01*
X79509Y-71940D01*
X79509Y-64490D01*
X79441Y-64325D01*
X79315Y-64198D01*
X79149Y-64129D01*
X78970Y-64129D01*
X78805Y-64198D01*
X78729Y-64273D01*
X78675Y-64218D01*
X78509Y-64150D01*
X78330Y-64149D01*
X78165Y-64218D01*
X78038Y-64344D01*
X77970Y-64510D01*
X77970Y-64689D01*
X77972Y-64694D01*
X77865Y-64738D01*
X77738Y-64864D01*
X77710Y-64933D01*
X77655Y-64878D01*
X77490Y-64810D01*
X77490Y-63370D01*
X77421Y-63205D01*
X77295Y-63078D01*
X77130Y-63009D01*
X76951Y-63009D01*
X76785Y-63078D01*
X76658Y-63204D01*
X76590Y-63369D01*
X76590Y-63548D01*
X76658Y-63714D01*
X76784Y-63841D01*
X76806Y-63850D01*
X76651Y-63849D01*
X76485Y-63918D01*
X76358Y-64044D01*
X76290Y-64210D01*
X76290Y-64389D01*
X76358Y-64554D01*
X76484Y-64681D01*
X76650Y-64749D01*
X76829Y-64750D01*
X76994Y-64681D01*
X77121Y-64555D01*
X77190Y-64389D01*
X77190Y-64210D01*
X77121Y-64045D01*
X76995Y-63918D01*
X76973Y-63909D01*
X77129Y-63909D01*
X77294Y-63841D01*
X77421Y-63715D01*
X77490Y-63549D01*
X77490Y-63370D01*
X77490Y-64810D01*
X77489Y-64809D01*
X77310Y-64809D01*
X77145Y-64878D01*
X77018Y-65004D01*
X76950Y-65169D01*
X76949Y-65348D01*
X77018Y-65514D01*
X77144Y-65641D01*
X77189Y-65659D01*
X77145Y-65678D01*
X77018Y-65804D01*
X76950Y-65969D01*
X76949Y-66148D01*
X77018Y-66314D01*
X77144Y-66441D01*
X77310Y-66509D01*
X77489Y-66509D01*
X77654Y-66441D01*
X77781Y-66315D01*
X77849Y-66149D01*
X77850Y-65970D01*
X77781Y-65805D01*
X77655Y-65678D01*
X77610Y-65659D01*
X77654Y-65641D01*
X77781Y-65515D01*
X77809Y-65446D01*
X77864Y-65501D01*
X78030Y-65570D01*
X78209Y-65570D01*
X78374Y-65501D01*
X78501Y-65375D01*
X78570Y-65209D01*
X78570Y-65030D01*
X78568Y-65025D01*
X78674Y-64981D01*
X78750Y-64906D01*
X78804Y-64961D01*
X78969Y-65029D01*
X79148Y-65029D01*
X79314Y-64961D01*
X79441Y-64835D01*
X79509Y-64669D01*
X79509Y-64490D01*
X79509Y-71940D01*
X79351Y-71940D01*
X79185Y-72008D01*
X79058Y-72134D01*
X78990Y-72300D01*
X78990Y-72479D01*
X79058Y-72644D01*
X79184Y-72771D01*
X79350Y-72840D01*
X79529Y-72840D01*
X79694Y-72771D01*
X79821Y-72645D01*
X79890Y-72480D01*
X79890Y-72301D01*
X79890Y-73450D01*
X78423Y-73450D01*
X78423Y-68648D01*
X78355Y-68482D01*
X78228Y-68356D01*
X78063Y-68287D01*
X77884Y-68287D01*
X77719Y-68355D01*
X77592Y-68482D01*
X77523Y-68647D01*
X77523Y-68826D01*
X77591Y-68992D01*
X77718Y-69118D01*
X77883Y-69187D01*
X78062Y-69187D01*
X78228Y-69119D01*
X78354Y-68992D01*
X78423Y-68827D01*
X78423Y-68648D01*
X78423Y-73450D01*
X77879Y-73450D01*
X77879Y-72301D01*
X77811Y-72135D01*
X77685Y-72008D01*
X77519Y-71940D01*
X77340Y-71940D01*
X77175Y-72008D01*
X77048Y-72134D01*
X76979Y-72300D01*
X76979Y-72479D01*
X77048Y-72644D01*
X77174Y-72771D01*
X77340Y-72840D01*
X77519Y-72840D01*
X77684Y-72771D01*
X77811Y-72645D01*
X77879Y-72480D01*
X77879Y-72301D01*
X77879Y-73450D01*
X75779Y-73450D01*
X75779Y-50960D01*
X75711Y-50795D01*
X75585Y-50668D01*
X75419Y-50600D01*
X75240Y-50599D01*
X75075Y-50668D01*
X74948Y-50794D01*
X74879Y-50960D01*
X74879Y-51139D01*
X74948Y-51304D01*
X75074Y-51431D01*
X75240Y-51499D01*
X75419Y-51500D01*
X75584Y-51431D01*
X75711Y-51305D01*
X75779Y-51139D01*
X75779Y-50960D01*
X75779Y-73450D01*
X75179Y-73450D01*
X75299Y-73159D01*
X75300Y-72841D01*
X75178Y-72547D01*
X75090Y-72458D01*
X75090Y-63410D01*
X75021Y-63245D01*
X74895Y-63118D01*
X74850Y-63099D01*
X74850Y-58452D01*
X74660Y-57992D01*
X74308Y-57640D01*
X73849Y-57450D01*
X73352Y-57449D01*
X72892Y-57639D01*
X72540Y-57991D01*
X72350Y-58450D01*
X72349Y-58947D01*
X72539Y-59407D01*
X72891Y-59759D01*
X73350Y-59949D01*
X73847Y-59950D01*
X74307Y-59760D01*
X74659Y-59408D01*
X74849Y-58949D01*
X74850Y-58452D01*
X74850Y-63099D01*
X74730Y-63050D01*
X74551Y-63049D01*
X74385Y-63118D01*
X74258Y-63244D01*
X74190Y-63410D01*
X74190Y-63589D01*
X74258Y-63754D01*
X74384Y-63881D01*
X74550Y-63949D01*
X74729Y-63950D01*
X74894Y-63881D01*
X75021Y-63755D01*
X75090Y-63589D01*
X75090Y-63410D01*
X75090Y-72458D01*
X74953Y-72322D01*
X74659Y-72200D01*
X74341Y-72199D01*
X74090Y-72303D01*
X74090Y-64451D01*
X74021Y-64285D01*
X73895Y-64158D01*
X73730Y-64090D01*
X73551Y-64090D01*
X73385Y-64158D01*
X73258Y-64284D01*
X73220Y-64378D01*
X73181Y-64285D01*
X73070Y-64173D01*
X73070Y-63330D01*
X73001Y-63165D01*
X72875Y-63038D01*
X72709Y-62970D01*
X72530Y-62970D01*
X72365Y-63038D01*
X72238Y-63164D01*
X72170Y-63330D01*
X72170Y-63509D01*
X72238Y-63674D01*
X72364Y-63801D01*
X72530Y-63870D01*
X72709Y-63870D01*
X72874Y-63801D01*
X73001Y-63675D01*
X73070Y-63509D01*
X73070Y-63330D01*
X73070Y-64173D01*
X73055Y-64158D01*
X72889Y-64090D01*
X72710Y-64090D01*
X72545Y-64158D01*
X72418Y-64284D01*
X72350Y-64450D01*
X72349Y-64629D01*
X72395Y-64740D01*
X72305Y-64778D01*
X72178Y-64904D01*
X72109Y-65069D01*
X72109Y-65248D01*
X72178Y-65414D01*
X72304Y-65541D01*
X72469Y-65609D01*
X72648Y-65609D01*
X72814Y-65541D01*
X72941Y-65415D01*
X73009Y-65249D01*
X73009Y-65070D01*
X72963Y-64959D01*
X73054Y-64921D01*
X73181Y-64795D01*
X73220Y-64701D01*
X73258Y-64794D01*
X73384Y-64921D01*
X73550Y-64990D01*
X73729Y-64990D01*
X73894Y-64921D01*
X74021Y-64795D01*
X74090Y-64630D01*
X74090Y-64451D01*
X74090Y-72303D01*
X74047Y-72321D01*
X73822Y-72546D01*
X73700Y-72840D01*
X73699Y-73158D01*
X73820Y-73450D01*
X72350Y-73450D01*
X72350Y-66051D01*
X72281Y-65885D01*
X72155Y-65758D01*
X72029Y-65706D01*
X72061Y-65675D01*
X72129Y-65509D01*
X72129Y-65330D01*
X72061Y-65165D01*
X71935Y-65038D01*
X71769Y-64970D01*
X71590Y-64970D01*
X71446Y-65029D01*
X71541Y-64935D01*
X71609Y-64769D01*
X71609Y-64590D01*
X71541Y-64425D01*
X71415Y-64298D01*
X71337Y-64266D01*
X71494Y-64201D01*
X71621Y-64075D01*
X71690Y-63909D01*
X71690Y-63730D01*
X71621Y-63565D01*
X71495Y-63438D01*
X71330Y-63370D01*
X71151Y-63370D01*
X70985Y-63438D01*
X70858Y-63564D01*
X70790Y-63730D01*
X70790Y-63909D01*
X70858Y-64074D01*
X70984Y-64201D01*
X71062Y-64233D01*
X70905Y-64298D01*
X70778Y-64424D01*
X70709Y-64590D01*
X70709Y-64769D01*
X70778Y-64934D01*
X70904Y-65061D01*
X71069Y-65129D01*
X71248Y-65129D01*
X71393Y-65070D01*
X71298Y-65164D01*
X71229Y-65330D01*
X71229Y-65509D01*
X71298Y-65674D01*
X71424Y-65801D01*
X71550Y-65853D01*
X71518Y-65884D01*
X71450Y-66050D01*
X71449Y-66229D01*
X71518Y-66394D01*
X71644Y-66521D01*
X71810Y-66590D01*
X71989Y-66590D01*
X72154Y-66521D01*
X72281Y-66395D01*
X72349Y-66230D01*
X72350Y-66051D01*
X72350Y-73450D01*
X70550Y-73450D01*
X70550Y-51360D01*
X70481Y-51195D01*
X70355Y-51068D01*
X70189Y-51000D01*
X70010Y-50999D01*
X69845Y-51068D01*
X69718Y-51194D01*
X69650Y-51360D01*
X69649Y-51539D01*
X69718Y-51704D01*
X69844Y-51831D01*
X70010Y-51899D01*
X70189Y-51900D01*
X70354Y-51831D01*
X70481Y-51705D01*
X70549Y-51539D01*
X70550Y-51360D01*
X70550Y-73450D01*
X69279Y-73450D01*
X69279Y-53160D01*
X69211Y-52995D01*
X69085Y-52868D01*
X68919Y-52800D01*
X68740Y-52799D01*
X68575Y-52868D01*
X68479Y-52963D01*
X68479Y-51151D01*
X68411Y-50985D01*
X68327Y-50901D01*
X68390Y-50749D01*
X68390Y-50570D01*
X68321Y-50405D01*
X68195Y-50278D01*
X68030Y-50209D01*
X67851Y-50209D01*
X67685Y-50278D01*
X67558Y-50404D01*
X67490Y-50569D01*
X67490Y-50748D01*
X67558Y-50914D01*
X67642Y-50998D01*
X67579Y-51150D01*
X67579Y-51329D01*
X67648Y-51494D01*
X67774Y-51621D01*
X67940Y-51690D01*
X68119Y-51690D01*
X68284Y-51621D01*
X68411Y-51495D01*
X68479Y-51330D01*
X68479Y-51151D01*
X68479Y-52963D01*
X68448Y-52994D01*
X68379Y-53160D01*
X68379Y-53339D01*
X68448Y-53504D01*
X68574Y-53631D01*
X68740Y-53699D01*
X68919Y-53700D01*
X69084Y-53631D01*
X69211Y-53505D01*
X69279Y-53339D01*
X69279Y-53160D01*
X69279Y-73450D01*
X69071Y-73450D01*
X69071Y-70656D01*
X69003Y-70490D01*
X68876Y-70363D01*
X68711Y-70295D01*
X68532Y-70295D01*
X68427Y-70338D01*
X68427Y-64080D01*
X68359Y-63916D01*
X68233Y-63790D01*
X68069Y-63722D01*
X67891Y-63722D01*
X67727Y-63790D01*
X67601Y-63915D01*
X67586Y-63952D01*
X67571Y-63916D01*
X67446Y-63790D01*
X67282Y-63722D01*
X67104Y-63722D01*
X66940Y-63790D01*
X66814Y-63915D01*
X66799Y-63952D01*
X66784Y-63916D01*
X66658Y-63790D01*
X66494Y-63722D01*
X66317Y-63722D01*
X66152Y-63790D01*
X66026Y-63915D01*
X66011Y-63952D01*
X65997Y-63916D01*
X65871Y-63790D01*
X65707Y-63722D01*
X65529Y-63722D01*
X65365Y-63790D01*
X65239Y-63915D01*
X65224Y-63952D01*
X65209Y-63916D01*
X65084Y-63790D01*
X64919Y-63722D01*
X64742Y-63722D01*
X64577Y-63790D01*
X64452Y-63915D01*
X64437Y-63952D01*
X64422Y-63916D01*
X64296Y-63790D01*
X64132Y-63722D01*
X63954Y-63722D01*
X63950Y-63724D01*
X63950Y-56210D01*
X63881Y-56045D01*
X63755Y-55918D01*
X63589Y-55850D01*
X63410Y-55849D01*
X63245Y-55918D01*
X63118Y-56044D01*
X63050Y-56210D01*
X63049Y-56389D01*
X63118Y-56554D01*
X63244Y-56681D01*
X63410Y-56749D01*
X63589Y-56750D01*
X63754Y-56681D01*
X63881Y-56555D01*
X63949Y-56389D01*
X63950Y-56210D01*
X63950Y-63724D01*
X63790Y-63790D01*
X63664Y-63915D01*
X63649Y-63952D01*
X63634Y-63916D01*
X63509Y-63790D01*
X63345Y-63722D01*
X63167Y-63722D01*
X63003Y-63790D01*
X62877Y-63915D01*
X62862Y-63952D01*
X62847Y-63916D01*
X62721Y-63790D01*
X62557Y-63722D01*
X62400Y-63722D01*
X62400Y-57260D01*
X62331Y-57095D01*
X62205Y-56968D01*
X62039Y-56900D01*
X61860Y-56899D01*
X61695Y-56968D01*
X61568Y-57094D01*
X61500Y-57260D01*
X61499Y-57439D01*
X61568Y-57604D01*
X61694Y-57731D01*
X61860Y-57799D01*
X62039Y-57800D01*
X62204Y-57731D01*
X62331Y-57605D01*
X62399Y-57439D01*
X62400Y-57260D01*
X62400Y-63722D01*
X62380Y-63722D01*
X62215Y-63790D01*
X62089Y-63915D01*
X62074Y-63952D01*
X62060Y-63916D01*
X61934Y-63790D01*
X61770Y-63722D01*
X61592Y-63722D01*
X61428Y-63790D01*
X61370Y-63848D01*
X61370Y-57260D01*
X61301Y-57095D01*
X61175Y-56968D01*
X61009Y-56900D01*
X60830Y-56899D01*
X60665Y-56968D01*
X60538Y-57094D01*
X60470Y-57260D01*
X60470Y-57439D01*
X60538Y-57604D01*
X60664Y-57731D01*
X60830Y-57799D01*
X61009Y-57800D01*
X61174Y-57731D01*
X61301Y-57605D01*
X61370Y-57439D01*
X61370Y-57260D01*
X61370Y-63848D01*
X61302Y-63915D01*
X61290Y-63945D01*
X61289Y-63943D01*
X61204Y-63928D01*
X61134Y-63999D01*
X61134Y-63858D01*
X61119Y-63773D01*
X60950Y-63717D01*
X60773Y-63729D01*
X60667Y-63773D01*
X60653Y-63858D01*
X60893Y-64098D01*
X61134Y-63858D01*
X61134Y-63999D01*
X60964Y-64169D01*
X61204Y-64409D01*
X61289Y-64395D01*
X61290Y-64393D01*
X61302Y-64422D01*
X61427Y-64547D01*
X61591Y-64616D01*
X61769Y-64616D01*
X61933Y-64548D01*
X62059Y-64422D01*
X62074Y-64386D01*
X62089Y-64422D01*
X62215Y-64547D01*
X62379Y-64616D01*
X62556Y-64616D01*
X62721Y-64548D01*
X62847Y-64422D01*
X62862Y-64386D01*
X62876Y-64422D01*
X63002Y-64547D01*
X63166Y-64616D01*
X63344Y-64616D01*
X63508Y-64548D01*
X63634Y-64422D01*
X63649Y-64386D01*
X63664Y-64422D01*
X63789Y-64547D01*
X63954Y-64616D01*
X64131Y-64616D01*
X64296Y-64548D01*
X64421Y-64422D01*
X64436Y-64386D01*
X64451Y-64422D01*
X64577Y-64547D01*
X64741Y-64616D01*
X64919Y-64616D01*
X65083Y-64548D01*
X65209Y-64422D01*
X65224Y-64386D01*
X65239Y-64422D01*
X65364Y-64547D01*
X65528Y-64616D01*
X65706Y-64616D01*
X65870Y-64548D01*
X65996Y-64422D01*
X66011Y-64386D01*
X66026Y-64422D01*
X66152Y-64547D01*
X66316Y-64616D01*
X66494Y-64616D01*
X66658Y-64548D01*
X66784Y-64422D01*
X66799Y-64386D01*
X66813Y-64422D01*
X66939Y-64547D01*
X67103Y-64616D01*
X67281Y-64616D01*
X67445Y-64548D01*
X67571Y-64422D01*
X67586Y-64386D01*
X67601Y-64422D01*
X67726Y-64547D01*
X67891Y-64616D01*
X68068Y-64616D01*
X68233Y-64548D01*
X68358Y-64422D01*
X68427Y-64258D01*
X68427Y-64080D01*
X68427Y-70338D01*
X68367Y-70363D01*
X68240Y-70489D01*
X68171Y-70655D01*
X68171Y-70834D01*
X68239Y-70999D01*
X68366Y-71126D01*
X68531Y-71195D01*
X68710Y-71195D01*
X68876Y-71126D01*
X69002Y-71000D01*
X69071Y-70835D01*
X69071Y-70656D01*
X69071Y-73450D01*
X68427Y-73450D01*
X68427Y-72742D01*
X68359Y-72577D01*
X68233Y-72452D01*
X68069Y-72383D01*
X67891Y-72383D01*
X67727Y-72451D01*
X67601Y-72577D01*
X67586Y-72613D01*
X67571Y-72577D01*
X67446Y-72452D01*
X67282Y-72383D01*
X67104Y-72383D01*
X66940Y-72451D01*
X66814Y-72577D01*
X66799Y-72613D01*
X66784Y-72577D01*
X66658Y-72452D01*
X66494Y-72383D01*
X66317Y-72383D01*
X66152Y-72451D01*
X66026Y-72577D01*
X66011Y-72613D01*
X65997Y-72577D01*
X65871Y-72452D01*
X65707Y-72383D01*
X65529Y-72383D01*
X65365Y-72451D01*
X65239Y-72577D01*
X65224Y-72613D01*
X65209Y-72577D01*
X65084Y-72452D01*
X64919Y-72383D01*
X64742Y-72383D01*
X64577Y-72451D01*
X64452Y-72577D01*
X64437Y-72613D01*
X64422Y-72577D01*
X64296Y-72452D01*
X64132Y-72383D01*
X63954Y-72383D01*
X63790Y-72451D01*
X63774Y-72467D01*
X63774Y-70033D01*
X63706Y-69868D01*
X63579Y-69741D01*
X63414Y-69673D01*
X63235Y-69673D01*
X63069Y-69741D01*
X62943Y-69867D01*
X62874Y-70033D01*
X62874Y-70212D01*
X62942Y-70377D01*
X63069Y-70504D01*
X63234Y-70573D01*
X63413Y-70573D01*
X63578Y-70504D01*
X63705Y-70378D01*
X63774Y-70213D01*
X63774Y-70033D01*
X63774Y-72467D01*
X63664Y-72577D01*
X63649Y-72613D01*
X63634Y-72577D01*
X63509Y-72452D01*
X63345Y-72383D01*
X63167Y-72383D01*
X63003Y-72451D01*
X62877Y-72577D01*
X62870Y-72594D01*
X62870Y-65090D01*
X62801Y-64925D01*
X62675Y-64798D01*
X62509Y-64729D01*
X62330Y-64729D01*
X62165Y-64798D01*
X62038Y-64924D01*
X61970Y-65090D01*
X61970Y-65269D01*
X62038Y-65434D01*
X62164Y-65561D01*
X62330Y-65629D01*
X62509Y-65629D01*
X62674Y-65561D01*
X62801Y-65435D01*
X62870Y-65269D01*
X62870Y-65090D01*
X62870Y-72594D01*
X62862Y-72613D01*
X62847Y-72577D01*
X62721Y-72452D01*
X62557Y-72383D01*
X62380Y-72383D01*
X62215Y-72451D01*
X62089Y-72577D01*
X62074Y-72613D01*
X62060Y-72577D01*
X61934Y-72452D01*
X61770Y-72383D01*
X61592Y-72383D01*
X61428Y-72451D01*
X61302Y-72577D01*
X61287Y-72613D01*
X61272Y-72577D01*
X61147Y-72452D01*
X61134Y-72446D01*
X61134Y-64480D01*
X60893Y-64240D01*
X60822Y-64310D01*
X60822Y-64169D01*
X60582Y-63928D01*
X60497Y-63943D01*
X60441Y-64112D01*
X60454Y-64289D01*
X60497Y-64395D01*
X60582Y-64409D01*
X60822Y-64169D01*
X60822Y-64310D01*
X60653Y-64480D01*
X60667Y-64565D01*
X60836Y-64621D01*
X61013Y-64608D01*
X61119Y-64565D01*
X61134Y-64480D01*
X61134Y-72446D01*
X60982Y-72383D01*
X60805Y-72383D01*
X60640Y-72451D01*
X60515Y-72577D01*
X60446Y-72741D01*
X60446Y-72919D01*
X60514Y-73083D01*
X60640Y-73209D01*
X60804Y-73277D01*
X60982Y-73277D01*
X61146Y-73209D01*
X61272Y-73084D01*
X61287Y-73047D01*
X61302Y-73083D01*
X61427Y-73209D01*
X61591Y-73277D01*
X61769Y-73277D01*
X61933Y-73209D01*
X62059Y-73084D01*
X62074Y-73047D01*
X62089Y-73083D01*
X62215Y-73209D01*
X62379Y-73277D01*
X62556Y-73277D01*
X62721Y-73209D01*
X62847Y-73084D01*
X62862Y-73047D01*
X62876Y-73083D01*
X63002Y-73209D01*
X63166Y-73277D01*
X63344Y-73277D01*
X63508Y-73209D01*
X63634Y-73084D01*
X63649Y-73047D01*
X63664Y-73083D01*
X63789Y-73209D01*
X63954Y-73277D01*
X64131Y-73277D01*
X64296Y-73209D01*
X64421Y-73084D01*
X64436Y-73047D01*
X64451Y-73083D01*
X64577Y-73209D01*
X64741Y-73277D01*
X64919Y-73277D01*
X65083Y-73209D01*
X65209Y-73084D01*
X65224Y-73047D01*
X65239Y-73083D01*
X65364Y-73209D01*
X65528Y-73277D01*
X65706Y-73277D01*
X65870Y-73209D01*
X65996Y-73084D01*
X66011Y-73047D01*
X66026Y-73083D01*
X66152Y-73209D01*
X66316Y-73277D01*
X66494Y-73277D01*
X66658Y-73209D01*
X66784Y-73084D01*
X66799Y-73047D01*
X66813Y-73083D01*
X66939Y-73209D01*
X67103Y-73277D01*
X67281Y-73277D01*
X67445Y-73209D01*
X67571Y-73084D01*
X67586Y-73047D01*
X67601Y-73083D01*
X67726Y-73209D01*
X67891Y-73277D01*
X68068Y-73277D01*
X68233Y-73209D01*
X68358Y-73084D01*
X68427Y-72919D01*
X68427Y-72742D01*
X68427Y-73450D01*
X60340Y-73450D01*
X60340Y-52270D01*
X60271Y-52105D01*
X60145Y-51978D01*
X59980Y-51909D01*
X59801Y-51909D01*
X59635Y-51978D01*
X59508Y-52104D01*
X59440Y-52269D01*
X59440Y-52448D01*
X59508Y-52614D01*
X59634Y-52741D01*
X59800Y-52809D01*
X59979Y-52809D01*
X60144Y-52741D01*
X60271Y-52615D01*
X60340Y-52449D01*
X60340Y-52270D01*
X60340Y-73450D01*
X59550Y-73450D01*
X59550Y-60001D01*
X59481Y-59835D01*
X59420Y-59773D01*
X59420Y-52190D01*
X59351Y-52025D01*
X59225Y-51898D01*
X59059Y-51829D01*
X58880Y-51829D01*
X58715Y-51898D01*
X58588Y-52024D01*
X58520Y-52190D01*
X58520Y-52369D01*
X58588Y-52534D01*
X58714Y-52661D01*
X58880Y-52729D01*
X59059Y-52729D01*
X59224Y-52661D01*
X59351Y-52535D01*
X59420Y-52369D01*
X59420Y-52190D01*
X59420Y-59773D01*
X59355Y-59708D01*
X59189Y-59640D01*
X59010Y-59640D01*
X58845Y-59708D01*
X58718Y-59834D01*
X58650Y-60000D01*
X58649Y-60179D01*
X58718Y-60344D01*
X58844Y-60471D01*
X59010Y-60540D01*
X59189Y-60540D01*
X59354Y-60471D01*
X59481Y-60345D01*
X59549Y-60180D01*
X59550Y-60001D01*
X59550Y-73450D01*
X58727Y-73450D01*
X58727Y-68191D01*
X58659Y-68025D01*
X58532Y-67899D01*
X58367Y-67830D01*
X58214Y-67830D01*
X58214Y-54405D01*
X58145Y-54240D01*
X58019Y-54113D01*
X57853Y-54045D01*
X57674Y-54044D01*
X57509Y-54113D01*
X57382Y-54239D01*
X57314Y-54405D01*
X57313Y-54584D01*
X57382Y-54749D01*
X57508Y-54876D01*
X57674Y-54944D01*
X57853Y-54945D01*
X58018Y-54876D01*
X58145Y-54750D01*
X58213Y-54584D01*
X58214Y-54405D01*
X58214Y-67830D01*
X58188Y-67830D01*
X58150Y-67846D01*
X58150Y-63610D01*
X58081Y-63445D01*
X57955Y-63318D01*
X57789Y-63250D01*
X57610Y-63249D01*
X57445Y-63318D01*
X57318Y-63444D01*
X57250Y-63610D01*
X57249Y-63789D01*
X57318Y-63954D01*
X57444Y-64081D01*
X57610Y-64149D01*
X57789Y-64150D01*
X57954Y-64081D01*
X58081Y-63955D01*
X58149Y-63789D01*
X58150Y-63610D01*
X58150Y-67846D01*
X58023Y-67898D01*
X57972Y-67949D01*
X57972Y-65659D01*
X57903Y-65494D01*
X57777Y-65367D01*
X57612Y-65299D01*
X57433Y-65298D01*
X57267Y-65367D01*
X57140Y-65493D01*
X57072Y-65659D01*
X57072Y-65838D01*
X57140Y-66003D01*
X57266Y-66130D01*
X57432Y-66198D01*
X57611Y-66199D01*
X57776Y-66130D01*
X57903Y-66004D01*
X57972Y-65838D01*
X57972Y-65659D01*
X57972Y-67949D01*
X57896Y-68025D01*
X57827Y-68190D01*
X57827Y-68369D01*
X57895Y-68535D01*
X58022Y-68661D01*
X58187Y-68730D01*
X58366Y-68730D01*
X58532Y-68662D01*
X58658Y-68535D01*
X58727Y-68370D01*
X58727Y-68191D01*
X58727Y-73450D01*
X58639Y-73450D01*
X58639Y-69428D01*
X58570Y-69263D01*
X58444Y-69136D01*
X58278Y-69067D01*
X58099Y-69067D01*
X57934Y-69136D01*
X57807Y-69262D01*
X57739Y-69427D01*
X57738Y-69606D01*
X57807Y-69772D01*
X57933Y-69899D01*
X58099Y-69967D01*
X58278Y-69967D01*
X58443Y-69899D01*
X58570Y-69773D01*
X58638Y-69607D01*
X58639Y-69428D01*
X58639Y-73450D01*
X58429Y-73450D01*
X58549Y-73159D01*
X58550Y-72841D01*
X58428Y-72547D01*
X58203Y-72322D01*
X57909Y-72200D01*
X57591Y-72199D01*
X57300Y-72320D01*
X57300Y-68030D01*
X57231Y-67865D01*
X57105Y-67738D01*
X56939Y-67670D01*
X56760Y-67670D01*
X56595Y-67738D01*
X56468Y-67864D01*
X56400Y-68030D01*
X56399Y-68209D01*
X56468Y-68374D01*
X56594Y-68501D01*
X56760Y-68570D01*
X56939Y-68570D01*
X57104Y-68501D01*
X57231Y-68375D01*
X57299Y-68209D01*
X57300Y-68030D01*
X57300Y-72320D01*
X57297Y-72321D01*
X57072Y-72546D01*
X56950Y-72840D01*
X56949Y-73158D01*
X57070Y-73450D01*
X56114Y-73450D01*
X56114Y-61496D01*
X56046Y-61330D01*
X55997Y-61282D01*
X56036Y-61243D01*
X56105Y-61078D01*
X56105Y-60899D01*
X56037Y-60733D01*
X55910Y-60606D01*
X55850Y-60581D01*
X55850Y-55830D01*
X55781Y-55665D01*
X55655Y-55538D01*
X55489Y-55470D01*
X55310Y-55469D01*
X55218Y-55508D01*
X55207Y-55481D01*
X55109Y-55384D01*
X55109Y-48690D01*
X55041Y-48525D01*
X54915Y-48398D01*
X54749Y-48329D01*
X54570Y-48329D01*
X54405Y-48398D01*
X54278Y-48524D01*
X54209Y-48690D01*
X54209Y-48869D01*
X54278Y-49034D01*
X54404Y-49161D01*
X54569Y-49229D01*
X54748Y-49229D01*
X54914Y-49161D01*
X55041Y-49035D01*
X55109Y-48869D01*
X55109Y-48690D01*
X55109Y-55384D01*
X55080Y-55355D01*
X54915Y-55286D01*
X54856Y-55286D01*
X54897Y-55245D01*
X54965Y-55079D01*
X54966Y-54900D01*
X54897Y-54735D01*
X54771Y-54608D01*
X54605Y-54540D01*
X54426Y-54539D01*
X54261Y-54608D01*
X54134Y-54734D01*
X54067Y-54895D01*
X54063Y-54895D01*
X53898Y-54964D01*
X53771Y-55090D01*
X53703Y-55256D01*
X53703Y-55275D01*
X53574Y-55328D01*
X53550Y-55352D01*
X53394Y-55287D01*
X53215Y-55287D01*
X53050Y-55355D01*
X53029Y-55376D01*
X53029Y-54530D01*
X52961Y-54365D01*
X52835Y-54238D01*
X52669Y-54170D01*
X52490Y-54170D01*
X52416Y-54200D01*
X52305Y-54088D01*
X52139Y-54020D01*
X51960Y-54020D01*
X51795Y-54088D01*
X51668Y-54214D01*
X51600Y-54380D01*
X51599Y-54559D01*
X51668Y-54724D01*
X51794Y-54851D01*
X51960Y-54920D01*
X52139Y-54920D01*
X52213Y-54889D01*
X52324Y-55001D01*
X52490Y-55070D01*
X52669Y-55070D01*
X52834Y-55001D01*
X52961Y-54875D01*
X53029Y-54709D01*
X53029Y-54530D01*
X53029Y-55376D01*
X52923Y-55482D01*
X52855Y-55647D01*
X52854Y-55826D01*
X52923Y-55991D01*
X53049Y-56118D01*
X53215Y-56187D01*
X53394Y-56187D01*
X53559Y-56119D01*
X53583Y-56095D01*
X53739Y-56159D01*
X53918Y-56160D01*
X54083Y-56091D01*
X54210Y-55965D01*
X54278Y-55799D01*
X54278Y-55780D01*
X54375Y-55740D01*
X54375Y-55825D01*
X54444Y-55990D01*
X54570Y-56117D01*
X54735Y-56186D01*
X54914Y-56186D01*
X55007Y-56148D01*
X55018Y-56174D01*
X55144Y-56301D01*
X55310Y-56369D01*
X55489Y-56370D01*
X55654Y-56301D01*
X55781Y-56175D01*
X55849Y-56009D01*
X55850Y-55830D01*
X55850Y-60581D01*
X55745Y-60538D01*
X55566Y-60538D01*
X55401Y-60606D01*
X55274Y-60732D01*
X55205Y-60898D01*
X55205Y-61077D01*
X55273Y-61242D01*
X55322Y-61291D01*
X55283Y-61330D01*
X55214Y-61495D01*
X55214Y-61674D01*
X55283Y-61840D01*
X55409Y-61966D01*
X55574Y-62035D01*
X55753Y-62035D01*
X55919Y-61967D01*
X56046Y-61840D01*
X56114Y-61675D01*
X56114Y-61496D01*
X56114Y-73450D01*
X55620Y-73450D01*
X55620Y-71440D01*
X55551Y-71275D01*
X55425Y-71148D01*
X55259Y-71079D01*
X55080Y-71079D01*
X55027Y-71101D01*
X55027Y-67714D01*
X54962Y-67554D01*
X54962Y-61917D01*
X54893Y-61751D01*
X54767Y-61624D01*
X54601Y-61556D01*
X54422Y-61556D01*
X54350Y-61586D01*
X54286Y-61522D01*
X54121Y-61454D01*
X53942Y-61453D01*
X53888Y-61476D01*
X53888Y-60756D01*
X53820Y-60590D01*
X53693Y-60464D01*
X53528Y-60395D01*
X53349Y-60395D01*
X53184Y-60463D01*
X53057Y-60590D01*
X52988Y-60755D01*
X52988Y-60934D01*
X53057Y-61100D01*
X53183Y-61226D01*
X53348Y-61295D01*
X53527Y-61295D01*
X53693Y-61227D01*
X53820Y-61100D01*
X53888Y-60935D01*
X53888Y-60756D01*
X53888Y-61476D01*
X53777Y-61522D01*
X53650Y-61648D01*
X53581Y-61814D01*
X53581Y-61993D01*
X53649Y-62158D01*
X53776Y-62285D01*
X53941Y-62353D01*
X54120Y-62354D01*
X54193Y-62324D01*
X54256Y-62387D01*
X54422Y-62456D01*
X54601Y-62456D01*
X54766Y-62387D01*
X54893Y-62261D01*
X54961Y-62096D01*
X54962Y-61917D01*
X54962Y-67554D01*
X54959Y-67548D01*
X54833Y-67421D01*
X54667Y-67353D01*
X54488Y-67353D01*
X54409Y-67385D01*
X54409Y-64140D01*
X54341Y-63975D01*
X54215Y-63848D01*
X54075Y-63790D01*
X54194Y-63741D01*
X54321Y-63615D01*
X54390Y-63449D01*
X54390Y-63270D01*
X54321Y-63105D01*
X54195Y-62978D01*
X54030Y-62909D01*
X53851Y-62909D01*
X53685Y-62978D01*
X53558Y-63104D01*
X53490Y-63269D01*
X53490Y-63448D01*
X53558Y-63614D01*
X53684Y-63741D01*
X53824Y-63799D01*
X53705Y-63848D01*
X53578Y-63974D01*
X53509Y-64140D01*
X53509Y-64319D01*
X53578Y-64484D01*
X53704Y-64611D01*
X53869Y-64679D01*
X54048Y-64679D01*
X54214Y-64611D01*
X54341Y-64485D01*
X54409Y-64319D01*
X54409Y-64140D01*
X54409Y-67385D01*
X54323Y-67421D01*
X54233Y-67510D01*
X54234Y-67374D01*
X54165Y-67209D01*
X54039Y-67082D01*
X53873Y-67014D01*
X53694Y-67013D01*
X53529Y-67082D01*
X53402Y-67208D01*
X53348Y-67340D01*
X53330Y-67340D01*
X53165Y-67408D01*
X53038Y-67534D01*
X52970Y-67700D01*
X52970Y-67879D01*
X53038Y-68044D01*
X53164Y-68171D01*
X53330Y-68240D01*
X53509Y-68240D01*
X53674Y-68171D01*
X53801Y-68045D01*
X53855Y-67914D01*
X53873Y-67914D01*
X54038Y-67845D01*
X54127Y-67756D01*
X54127Y-67892D01*
X54196Y-68057D01*
X54322Y-68184D01*
X54488Y-68253D01*
X54667Y-68253D01*
X54832Y-68184D01*
X54959Y-68058D01*
X55027Y-67893D01*
X55027Y-67714D01*
X55027Y-71101D01*
X54915Y-71148D01*
X54788Y-71274D01*
X54720Y-71440D01*
X54720Y-71619D01*
X54788Y-71784D01*
X54914Y-71911D01*
X55080Y-71979D01*
X55259Y-71979D01*
X55424Y-71911D01*
X55551Y-71785D01*
X55620Y-71619D01*
X55620Y-71440D01*
X55620Y-73450D01*
X52764Y-73450D01*
X52764Y-61779D01*
X52709Y-61646D01*
X52709Y-57990D01*
X52641Y-57825D01*
X52515Y-57698D01*
X52349Y-57629D01*
X52170Y-57629D01*
X52005Y-57698D01*
X51878Y-57824D01*
X51809Y-57990D01*
X51809Y-58169D01*
X51878Y-58334D01*
X52004Y-58461D01*
X52169Y-58529D01*
X52348Y-58529D01*
X52514Y-58461D01*
X52641Y-58335D01*
X52709Y-58169D01*
X52709Y-57990D01*
X52709Y-61646D01*
X52696Y-61613D01*
X52569Y-61487D01*
X52404Y-61418D01*
X52225Y-61418D01*
X52059Y-61486D01*
X51933Y-61613D01*
X51864Y-61778D01*
X51864Y-61824D01*
X51757Y-61868D01*
X51630Y-61995D01*
X51561Y-62160D01*
X51561Y-62339D01*
X51629Y-62505D01*
X51756Y-62631D01*
X51921Y-62700D01*
X52100Y-62700D01*
X52266Y-62632D01*
X52392Y-62505D01*
X52461Y-62340D01*
X52461Y-62294D01*
X52569Y-62250D01*
X52695Y-62123D01*
X52764Y-61958D01*
X52764Y-61779D01*
X52764Y-73450D01*
X52436Y-73450D01*
X52436Y-70349D01*
X52407Y-70277D01*
X52407Y-64264D01*
X52338Y-64098D01*
X52212Y-63972D01*
X52046Y-63903D01*
X51867Y-63903D01*
X51702Y-63971D01*
X51575Y-64098D01*
X51507Y-64263D01*
X51506Y-64442D01*
X51575Y-64608D01*
X51698Y-64731D01*
X51583Y-64778D01*
X51479Y-64881D01*
X51479Y-63110D01*
X51411Y-62945D01*
X51285Y-62818D01*
X51159Y-62766D01*
X51159Y-61751D01*
X51091Y-61585D01*
X51062Y-61555D01*
X51062Y-55690D01*
X50993Y-55524D01*
X50867Y-55398D01*
X50701Y-55329D01*
X50522Y-55329D01*
X50357Y-55397D01*
X50230Y-55524D01*
X50162Y-55689D01*
X50161Y-55868D01*
X50230Y-56033D01*
X50356Y-56160D01*
X50522Y-56229D01*
X50701Y-56229D01*
X50866Y-56161D01*
X50993Y-56034D01*
X51061Y-55869D01*
X51062Y-55690D01*
X51062Y-61555D01*
X51029Y-61523D01*
X51029Y-57590D01*
X50961Y-57425D01*
X50835Y-57298D01*
X50669Y-57229D01*
X50490Y-57229D01*
X50325Y-57298D01*
X50198Y-57424D01*
X50150Y-57541D01*
X50150Y-57060D01*
X50081Y-56895D01*
X49955Y-56768D01*
X49789Y-56700D01*
X49712Y-56700D01*
X49681Y-56625D01*
X49555Y-56498D01*
X49500Y-56475D01*
X49500Y-55590D01*
X49431Y-55425D01*
X49305Y-55298D01*
X49139Y-55229D01*
X48960Y-55229D01*
X48795Y-55298D01*
X48668Y-55424D01*
X48600Y-55590D01*
X48599Y-55769D01*
X48668Y-55934D01*
X48794Y-56061D01*
X48960Y-56129D01*
X49139Y-56129D01*
X49304Y-56061D01*
X49431Y-55935D01*
X49499Y-55769D01*
X49500Y-55590D01*
X49500Y-56475D01*
X49389Y-56429D01*
X49210Y-56429D01*
X49045Y-56498D01*
X48918Y-56624D01*
X48850Y-56790D01*
X48849Y-56969D01*
X48918Y-57134D01*
X49044Y-57261D01*
X49210Y-57329D01*
X49287Y-57329D01*
X49318Y-57404D01*
X49444Y-57531D01*
X49610Y-57599D01*
X49789Y-57600D01*
X49954Y-57531D01*
X50081Y-57405D01*
X50149Y-57239D01*
X50150Y-57060D01*
X50150Y-57541D01*
X50129Y-57590D01*
X50129Y-57672D01*
X49995Y-57728D01*
X49868Y-57854D01*
X49800Y-58019D01*
X49799Y-58198D01*
X49868Y-58364D01*
X49994Y-58491D01*
X50160Y-58559D01*
X50339Y-58559D01*
X50504Y-58491D01*
X50631Y-58365D01*
X50699Y-58199D01*
X50699Y-58117D01*
X50834Y-58061D01*
X50961Y-57935D01*
X51029Y-57769D01*
X51029Y-57590D01*
X51029Y-61523D01*
X50965Y-61458D01*
X50799Y-61390D01*
X50620Y-61390D01*
X50455Y-61458D01*
X50328Y-61584D01*
X50292Y-61672D01*
X50253Y-61580D01*
X50127Y-61453D01*
X49961Y-61384D01*
X49782Y-61384D01*
X49617Y-61453D01*
X49490Y-61579D01*
X49422Y-61744D01*
X49421Y-61923D01*
X49442Y-61974D01*
X49296Y-62035D01*
X49175Y-62156D01*
X49175Y-59820D01*
X49106Y-59655D01*
X48980Y-59528D01*
X48814Y-59460D01*
X48774Y-59460D01*
X48820Y-59349D01*
X48820Y-59312D01*
X48958Y-59255D01*
X49085Y-59129D01*
X49153Y-58963D01*
X49154Y-58784D01*
X49145Y-58763D01*
X49145Y-57812D01*
X49076Y-57647D01*
X48950Y-57520D01*
X48784Y-57452D01*
X48605Y-57451D01*
X48479Y-57503D01*
X48479Y-55320D01*
X48411Y-55155D01*
X48285Y-55028D01*
X48119Y-54959D01*
X47940Y-54959D01*
X47775Y-55028D01*
X47648Y-55154D01*
X47579Y-55319D01*
X47579Y-55498D01*
X47648Y-55664D01*
X47774Y-55791D01*
X47940Y-55859D01*
X48119Y-55859D01*
X48284Y-55791D01*
X48411Y-55665D01*
X48479Y-55499D01*
X48479Y-55320D01*
X48479Y-57503D01*
X48440Y-57520D01*
X48313Y-57646D01*
X48245Y-57812D01*
X48245Y-57893D01*
X48230Y-57878D01*
X48064Y-57810D01*
X47885Y-57809D01*
X47742Y-57869D01*
X47742Y-57442D01*
X47742Y-56458D01*
X47704Y-56366D01*
X47633Y-56296D01*
X47541Y-56258D01*
X47442Y-56257D01*
X46458Y-56257D01*
X46366Y-56295D01*
X46296Y-56366D01*
X46258Y-56458D01*
X46257Y-56557D01*
X46257Y-57541D01*
X46295Y-57633D01*
X46366Y-57703D01*
X46458Y-57741D01*
X46557Y-57742D01*
X47541Y-57742D01*
X47633Y-57704D01*
X47703Y-57633D01*
X47741Y-57541D01*
X47742Y-57442D01*
X47742Y-57869D01*
X47720Y-57878D01*
X47593Y-58004D01*
X47525Y-58170D01*
X47524Y-58349D01*
X47593Y-58514D01*
X47719Y-58641D01*
X47885Y-58709D01*
X48064Y-58710D01*
X48229Y-58641D01*
X48356Y-58515D01*
X48424Y-58349D01*
X48424Y-58268D01*
X48439Y-58283D01*
X48605Y-58351D01*
X48784Y-58352D01*
X48949Y-58283D01*
X49076Y-58157D01*
X49144Y-57991D01*
X49145Y-57812D01*
X49145Y-58763D01*
X49085Y-58619D01*
X48959Y-58492D01*
X48793Y-58424D01*
X48614Y-58423D01*
X48449Y-58492D01*
X48322Y-58618D01*
X48254Y-58784D01*
X48254Y-58820D01*
X48115Y-58878D01*
X47988Y-59004D01*
X47920Y-59169D01*
X47920Y-59348D01*
X47988Y-59514D01*
X48114Y-59641D01*
X48280Y-59709D01*
X48320Y-59709D01*
X48275Y-59820D01*
X48274Y-59999D01*
X48343Y-60164D01*
X48469Y-60291D01*
X48635Y-60359D01*
X48814Y-60360D01*
X48979Y-60291D01*
X49106Y-60165D01*
X49174Y-59999D01*
X49175Y-59820D01*
X49175Y-62156D01*
X49169Y-62162D01*
X49100Y-62327D01*
X49100Y-62506D01*
X49168Y-62671D01*
X49295Y-62798D01*
X49460Y-62867D01*
X49639Y-62867D01*
X49805Y-62799D01*
X49931Y-62672D01*
X50000Y-62507D01*
X50000Y-62328D01*
X49979Y-62277D01*
X50126Y-62216D01*
X50253Y-62090D01*
X50289Y-62001D01*
X50328Y-62094D01*
X50454Y-62221D01*
X50619Y-62290D01*
X50798Y-62290D01*
X50964Y-62221D01*
X51091Y-62095D01*
X51159Y-61930D01*
X51159Y-61751D01*
X51159Y-62766D01*
X51119Y-62750D01*
X51103Y-62750D01*
X51051Y-62625D01*
X50925Y-62498D01*
X50759Y-62429D01*
X50580Y-62429D01*
X50415Y-62498D01*
X50288Y-62624D01*
X50220Y-62790D01*
X50220Y-62969D01*
X50288Y-63134D01*
X50414Y-63261D01*
X50580Y-63329D01*
X50596Y-63329D01*
X50648Y-63454D01*
X50774Y-63581D01*
X50940Y-63649D01*
X51119Y-63650D01*
X51284Y-63581D01*
X51411Y-63455D01*
X51479Y-63289D01*
X51479Y-63110D01*
X51479Y-64881D01*
X51456Y-64905D01*
X51387Y-65070D01*
X51387Y-65249D01*
X51455Y-65415D01*
X51582Y-65541D01*
X51747Y-65610D01*
X51926Y-65610D01*
X52092Y-65542D01*
X52218Y-65415D01*
X52287Y-65250D01*
X52287Y-65071D01*
X52219Y-64906D01*
X52096Y-64782D01*
X52211Y-64735D01*
X52338Y-64608D01*
X52406Y-64443D01*
X52407Y-64264D01*
X52407Y-70277D01*
X52368Y-70184D01*
X52242Y-70057D01*
X52076Y-69989D01*
X51897Y-69988D01*
X51732Y-70057D01*
X51730Y-70059D01*
X51730Y-66959D01*
X51661Y-66793D01*
X51535Y-66667D01*
X51369Y-66598D01*
X51190Y-66598D01*
X51127Y-66624D01*
X51127Y-65035D01*
X51059Y-64870D01*
X50932Y-64743D01*
X50767Y-64675D01*
X50588Y-64674D01*
X50443Y-64734D01*
X50318Y-64609D01*
X50153Y-64541D01*
X49974Y-64541D01*
X49808Y-64609D01*
X49682Y-64736D01*
X49613Y-64901D01*
X49613Y-65080D01*
X49681Y-65245D01*
X49808Y-65372D01*
X49973Y-65441D01*
X50152Y-65441D01*
X50297Y-65381D01*
X50422Y-65506D01*
X50587Y-65574D01*
X50766Y-65575D01*
X50931Y-65506D01*
X51058Y-65380D01*
X51127Y-65214D01*
X51127Y-65035D01*
X51127Y-66624D01*
X51025Y-66666D01*
X50898Y-66793D01*
X50830Y-66958D01*
X50830Y-67090D01*
X50785Y-67108D01*
X50658Y-67234D01*
X50590Y-67400D01*
X50590Y-67579D01*
X50658Y-67744D01*
X50784Y-67871D01*
X50950Y-67940D01*
X51129Y-67940D01*
X51294Y-67871D01*
X51421Y-67745D01*
X51490Y-67580D01*
X51490Y-67448D01*
X51534Y-67430D01*
X51661Y-67303D01*
X51730Y-67138D01*
X51730Y-66959D01*
X51730Y-70059D01*
X51605Y-70183D01*
X51536Y-70349D01*
X51536Y-70528D01*
X51605Y-70693D01*
X51731Y-70820D01*
X51896Y-70888D01*
X52075Y-70889D01*
X52241Y-70820D01*
X52368Y-70694D01*
X52436Y-70528D01*
X52436Y-70349D01*
X52436Y-73450D01*
X51503Y-73450D01*
X51511Y-73441D01*
X51549Y-73349D01*
X51550Y-73250D01*
X51550Y-72650D01*
X51512Y-72558D01*
X51441Y-72488D01*
X51349Y-72450D01*
X51250Y-72449D01*
X50650Y-72449D01*
X50558Y-72487D01*
X50510Y-72536D01*
X50510Y-67132D01*
X50441Y-66967D01*
X50315Y-66840D01*
X50149Y-66772D01*
X49970Y-66771D01*
X49805Y-66840D01*
X49751Y-66893D01*
X49751Y-66193D01*
X49683Y-66028D01*
X49556Y-65901D01*
X49391Y-65832D01*
X49212Y-65832D01*
X49047Y-65900D01*
X48945Y-66002D01*
X48945Y-61594D01*
X48876Y-61428D01*
X48750Y-61302D01*
X48585Y-61233D01*
X48406Y-61233D01*
X48240Y-61301D01*
X48113Y-61428D01*
X48045Y-61593D01*
X48045Y-61772D01*
X48113Y-61937D01*
X48239Y-62064D01*
X48405Y-62133D01*
X48584Y-62133D01*
X48749Y-62065D01*
X48876Y-61938D01*
X48945Y-61773D01*
X48945Y-61594D01*
X48945Y-66002D01*
X48920Y-66027D01*
X48851Y-66192D01*
X48851Y-66371D01*
X48919Y-66537D01*
X49046Y-66663D01*
X49211Y-66732D01*
X49390Y-66732D01*
X49556Y-66664D01*
X49682Y-66537D01*
X49751Y-66372D01*
X49751Y-66193D01*
X49751Y-66893D01*
X49678Y-66966D01*
X49610Y-67132D01*
X49609Y-67311D01*
X49678Y-67476D01*
X49804Y-67603D01*
X49970Y-67671D01*
X50149Y-67672D01*
X50314Y-67603D01*
X50441Y-67477D01*
X50509Y-67311D01*
X50510Y-67132D01*
X50510Y-72536D01*
X50488Y-72558D01*
X50450Y-72649D01*
X50450Y-69800D01*
X50381Y-69635D01*
X50255Y-69508D01*
X50089Y-69440D01*
X49914Y-69439D01*
X49914Y-68568D01*
X49845Y-68402D01*
X49719Y-68275D01*
X49554Y-68207D01*
X49375Y-68207D01*
X49209Y-68275D01*
X49082Y-68401D01*
X49014Y-68567D01*
X49014Y-68746D01*
X49082Y-68911D01*
X49209Y-69038D01*
X49374Y-69107D01*
X49553Y-69107D01*
X49718Y-69038D01*
X49845Y-68912D01*
X49914Y-68747D01*
X49914Y-68568D01*
X49914Y-69439D01*
X49910Y-69439D01*
X49745Y-69508D01*
X49618Y-69634D01*
X49550Y-69800D01*
X49549Y-69979D01*
X49618Y-70144D01*
X49744Y-70271D01*
X49910Y-70339D01*
X50089Y-70340D01*
X50254Y-70271D01*
X50381Y-70145D01*
X50449Y-69979D01*
X50450Y-69800D01*
X50450Y-72649D01*
X50450Y-72650D01*
X50449Y-72703D01*
X50385Y-72684D01*
X50315Y-72755D01*
X50315Y-72614D01*
X50287Y-72518D01*
X50081Y-72445D01*
X49863Y-72456D01*
X49712Y-72518D01*
X49684Y-72614D01*
X50000Y-72929D01*
X50315Y-72614D01*
X50315Y-72755D01*
X50070Y-73000D01*
X50385Y-73315D01*
X50449Y-73296D01*
X50449Y-73349D01*
X50487Y-73441D01*
X50496Y-73450D01*
X50296Y-73450D01*
X50315Y-73385D01*
X50000Y-73070D01*
X49684Y-73385D01*
X49703Y-73450D01*
X49327Y-73450D01*
X49465Y-73311D01*
X49497Y-73236D01*
X49518Y-73287D01*
X49614Y-73315D01*
X49929Y-73000D01*
X49614Y-72684D01*
X49518Y-72712D01*
X49499Y-72767D01*
X49466Y-72688D01*
X49311Y-72534D01*
X49109Y-72450D01*
X48891Y-72449D01*
X48848Y-72467D01*
X48848Y-66795D01*
X48779Y-66630D01*
X48653Y-66503D01*
X48583Y-66474D01*
X48583Y-64690D01*
X48515Y-64524D01*
X48388Y-64398D01*
X48279Y-64353D01*
X48279Y-62960D01*
X48211Y-62795D01*
X48085Y-62668D01*
X47919Y-62600D01*
X47828Y-62599D01*
X47828Y-61183D01*
X47760Y-61017D01*
X47729Y-60987D01*
X47729Y-59190D01*
X47661Y-59025D01*
X47535Y-58898D01*
X47369Y-58829D01*
X47278Y-58829D01*
X47251Y-58765D01*
X47125Y-58638D01*
X47099Y-58628D01*
X47100Y-58460D01*
X47031Y-58295D01*
X46905Y-58168D01*
X46739Y-58100D01*
X46560Y-58099D01*
X46395Y-58168D01*
X46268Y-58294D01*
X46200Y-58460D01*
X46199Y-58639D01*
X46268Y-58804D01*
X46394Y-58931D01*
X46420Y-58941D01*
X46420Y-59109D01*
X46488Y-59274D01*
X46614Y-59401D01*
X46780Y-59470D01*
X46871Y-59470D01*
X46898Y-59534D01*
X47024Y-59661D01*
X47190Y-59729D01*
X47369Y-59729D01*
X47534Y-59661D01*
X47661Y-59535D01*
X47729Y-59369D01*
X47729Y-59190D01*
X47729Y-60987D01*
X47633Y-60891D01*
X47468Y-60822D01*
X47289Y-60822D01*
X47124Y-60890D01*
X46997Y-61017D01*
X46928Y-61182D01*
X46928Y-61361D01*
X46996Y-61527D01*
X47123Y-61653D01*
X47288Y-61722D01*
X47467Y-61722D01*
X47633Y-61654D01*
X47759Y-61527D01*
X47828Y-61362D01*
X47828Y-61183D01*
X47828Y-62599D01*
X47740Y-62599D01*
X47575Y-62668D01*
X47448Y-62794D01*
X47379Y-62960D01*
X47379Y-63139D01*
X47448Y-63304D01*
X47574Y-63431D01*
X47740Y-63499D01*
X47919Y-63500D01*
X48084Y-63431D01*
X48211Y-63305D01*
X48279Y-63139D01*
X48279Y-62960D01*
X48279Y-64353D01*
X48223Y-64329D01*
X48044Y-64329D01*
X47879Y-64397D01*
X47752Y-64524D01*
X47683Y-64689D01*
X47683Y-64868D01*
X47751Y-65034D01*
X47878Y-65160D01*
X48043Y-65229D01*
X48222Y-65229D01*
X48388Y-65161D01*
X48514Y-65034D01*
X48583Y-64869D01*
X48583Y-64690D01*
X48583Y-66474D01*
X48487Y-66435D01*
X48308Y-66434D01*
X48143Y-66503D01*
X48016Y-66629D01*
X47948Y-66795D01*
X47947Y-66974D01*
X48016Y-67139D01*
X48142Y-67266D01*
X48308Y-67334D01*
X48487Y-67335D01*
X48652Y-67266D01*
X48779Y-67140D01*
X48847Y-66974D01*
X48848Y-66795D01*
X48848Y-72467D01*
X48688Y-72533D01*
X48534Y-72688D01*
X48500Y-72769D01*
X48466Y-72688D01*
X48311Y-72534D01*
X48109Y-72450D01*
X48042Y-72450D01*
X48042Y-67776D01*
X47973Y-67611D01*
X47847Y-67484D01*
X47681Y-67416D01*
X47502Y-67415D01*
X47337Y-67484D01*
X47268Y-67552D01*
X47255Y-67538D01*
X47089Y-67470D01*
X46910Y-67470D01*
X46850Y-67495D01*
X46850Y-62640D01*
X46781Y-62475D01*
X46655Y-62348D01*
X46489Y-62279D01*
X46310Y-62279D01*
X46145Y-62348D01*
X46018Y-62474D01*
X45950Y-62640D01*
X45949Y-62819D01*
X46018Y-62984D01*
X46144Y-63111D01*
X46310Y-63179D01*
X46489Y-63179D01*
X46654Y-63111D01*
X46781Y-62985D01*
X46849Y-62819D01*
X46850Y-62640D01*
X46850Y-67495D01*
X46745Y-67538D01*
X46618Y-67664D01*
X46595Y-67721D01*
X46595Y-67132D01*
X46526Y-66967D01*
X46400Y-66840D01*
X46234Y-66772D01*
X46055Y-66771D01*
X45890Y-66840D01*
X45800Y-66930D01*
X45800Y-57860D01*
X45731Y-57695D01*
X45659Y-57623D01*
X45659Y-56680D01*
X45591Y-56515D01*
X45465Y-56388D01*
X45299Y-56320D01*
X45120Y-56320D01*
X44955Y-56388D01*
X44828Y-56514D01*
X44759Y-56680D01*
X44759Y-56859D01*
X44828Y-57024D01*
X44954Y-57151D01*
X45119Y-57220D01*
X45298Y-57220D01*
X45464Y-57151D01*
X45591Y-57025D01*
X45659Y-56859D01*
X45659Y-56680D01*
X45659Y-57623D01*
X45605Y-57568D01*
X45439Y-57500D01*
X45260Y-57499D01*
X45095Y-57568D01*
X44968Y-57694D01*
X44900Y-57860D01*
X44899Y-58039D01*
X44968Y-58204D01*
X45094Y-58331D01*
X45260Y-58399D01*
X45439Y-58400D01*
X45604Y-58331D01*
X45731Y-58205D01*
X45799Y-58039D01*
X45800Y-57860D01*
X45800Y-66930D01*
X45763Y-66966D01*
X45695Y-67132D01*
X45694Y-67311D01*
X45763Y-67476D01*
X45889Y-67603D01*
X46055Y-67671D01*
X46234Y-67672D01*
X46399Y-67603D01*
X46526Y-67477D01*
X46594Y-67311D01*
X46595Y-67132D01*
X46595Y-67721D01*
X46550Y-67830D01*
X46549Y-68009D01*
X46618Y-68174D01*
X46744Y-68301D01*
X46910Y-68370D01*
X47089Y-68370D01*
X47254Y-68301D01*
X47323Y-68233D01*
X47336Y-68247D01*
X47502Y-68315D01*
X47681Y-68316D01*
X47846Y-68247D01*
X47973Y-68121D01*
X48041Y-67955D01*
X48042Y-67776D01*
X48042Y-72450D01*
X47891Y-72449D01*
X47688Y-72533D01*
X47534Y-72688D01*
X47500Y-72769D01*
X47466Y-72688D01*
X47311Y-72534D01*
X47109Y-72450D01*
X46891Y-72449D01*
X46688Y-72533D01*
X46534Y-72688D01*
X46450Y-72890D01*
X46449Y-73108D01*
X46533Y-73311D01*
X46672Y-73450D01*
X46000Y-73450D01*
X46000Y-68520D01*
X45931Y-68355D01*
X45805Y-68228D01*
X45639Y-68159D01*
X45460Y-68159D01*
X45459Y-68160D01*
X45459Y-58740D01*
X45391Y-58575D01*
X45265Y-58448D01*
X45099Y-58379D01*
X44920Y-58379D01*
X44755Y-58448D01*
X44628Y-58574D01*
X44559Y-58740D01*
X44559Y-58919D01*
X44628Y-59084D01*
X44754Y-59211D01*
X44919Y-59279D01*
X45098Y-59279D01*
X45264Y-59211D01*
X45391Y-59085D01*
X45459Y-58919D01*
X45459Y-58740D01*
X45459Y-68160D01*
X45390Y-68189D01*
X45390Y-61975D01*
X45321Y-61810D01*
X45195Y-61683D01*
X45029Y-61615D01*
X44850Y-61614D01*
X44750Y-61656D01*
X44750Y-59470D01*
X44681Y-59305D01*
X44555Y-59178D01*
X44389Y-59109D01*
X44210Y-59109D01*
X44045Y-59178D01*
X43918Y-59304D01*
X43850Y-59469D01*
X43849Y-59648D01*
X43918Y-59814D01*
X44044Y-59941D01*
X44210Y-60009D01*
X44389Y-60009D01*
X44554Y-59941D01*
X44681Y-59815D01*
X44749Y-59649D01*
X44750Y-59470D01*
X44750Y-61656D01*
X44685Y-61683D01*
X44558Y-61809D01*
X44490Y-61975D01*
X44489Y-62154D01*
X44558Y-62319D01*
X44684Y-62446D01*
X44850Y-62514D01*
X45029Y-62515D01*
X45194Y-62446D01*
X45321Y-62320D01*
X45389Y-62154D01*
X45390Y-61975D01*
X45390Y-68189D01*
X45295Y-68228D01*
X45168Y-68354D01*
X45164Y-68365D01*
X45020Y-68364D01*
X44855Y-68433D01*
X44728Y-68559D01*
X44660Y-68725D01*
X44659Y-68904D01*
X44728Y-69069D01*
X44854Y-69196D01*
X45020Y-69264D01*
X45199Y-69265D01*
X45364Y-69196D01*
X45491Y-69070D01*
X45495Y-69059D01*
X45639Y-69059D01*
X45804Y-68991D01*
X45931Y-68865D01*
X45999Y-68699D01*
X46000Y-68520D01*
X46000Y-73450D01*
X44970Y-73450D01*
X44970Y-72280D01*
X44901Y-72115D01*
X44775Y-71988D01*
X44609Y-71920D01*
X44430Y-71920D01*
X44329Y-71961D01*
X44329Y-66970D01*
X44261Y-66805D01*
X44135Y-66678D01*
X43969Y-66609D01*
X43790Y-66609D01*
X43625Y-66678D01*
X43498Y-66804D01*
X43429Y-66969D01*
X43429Y-67148D01*
X43469Y-67244D01*
X43428Y-67284D01*
X43359Y-67450D01*
X43359Y-67629D01*
X43428Y-67794D01*
X43554Y-67921D01*
X43719Y-67990D01*
X43898Y-67990D01*
X44064Y-67921D01*
X44191Y-67795D01*
X44259Y-67630D01*
X44259Y-67451D01*
X44220Y-67355D01*
X44261Y-67315D01*
X44329Y-67149D01*
X44329Y-66970D01*
X44329Y-71961D01*
X44265Y-71988D01*
X44138Y-72114D01*
X44070Y-72280D01*
X44070Y-72459D01*
X44138Y-72624D01*
X44264Y-72751D01*
X44430Y-72820D01*
X44609Y-72820D01*
X44774Y-72751D01*
X44901Y-72625D01*
X44970Y-72459D01*
X44970Y-72280D01*
X44970Y-73450D01*
X43290Y-73450D01*
X43290Y-66270D01*
X43221Y-66105D01*
X43095Y-65978D01*
X43079Y-65972D01*
X43079Y-63790D01*
X43011Y-63625D01*
X42885Y-63498D01*
X42719Y-63429D01*
X42540Y-63429D01*
X42375Y-63498D01*
X42248Y-63624D01*
X42179Y-63790D01*
X42179Y-63969D01*
X42248Y-64134D01*
X42374Y-64261D01*
X42540Y-64329D01*
X42719Y-64329D01*
X42884Y-64261D01*
X43011Y-64135D01*
X43079Y-63969D01*
X43079Y-63790D01*
X43079Y-65972D01*
X42930Y-65909D01*
X42751Y-65909D01*
X42585Y-65978D01*
X42458Y-66104D01*
X42390Y-66269D01*
X42390Y-66448D01*
X42458Y-66614D01*
X42584Y-66741D01*
X42750Y-66809D01*
X42929Y-66809D01*
X43094Y-66741D01*
X43221Y-66615D01*
X43290Y-66449D01*
X43290Y-66270D01*
X43290Y-73450D01*
X43120Y-73450D01*
X43120Y-68840D01*
X43051Y-68675D01*
X42925Y-68548D01*
X42759Y-68479D01*
X42580Y-68479D01*
X42415Y-68548D01*
X42288Y-68674D01*
X42220Y-68840D01*
X42220Y-69019D01*
X42288Y-69184D01*
X42414Y-69311D01*
X42580Y-69379D01*
X42759Y-69379D01*
X42924Y-69311D01*
X43051Y-69185D01*
X43120Y-69019D01*
X43120Y-68840D01*
X43120Y-73450D01*
X41679Y-73450D01*
X41799Y-73159D01*
X41800Y-72841D01*
X41678Y-72547D01*
X41453Y-72322D01*
X41159Y-72200D01*
X40841Y-72199D01*
X40550Y-72320D01*
X40550Y-55550D01*
X47050Y-55550D01*
X47050Y-48050D01*
X54909Y-48050D01*
X54909Y-48179D01*
X54978Y-48344D01*
X55104Y-48471D01*
X55269Y-48540D01*
X55448Y-48540D01*
X55614Y-48471D01*
X55741Y-48345D01*
X55809Y-48180D01*
X55809Y-48050D01*
X65702Y-48050D01*
X65702Y-48155D01*
X65740Y-48247D01*
X65810Y-48318D01*
X65902Y-48356D01*
X66002Y-48356D01*
X66671Y-48356D01*
X66763Y-48318D01*
X66833Y-48248D01*
X66872Y-48156D01*
X66872Y-48056D01*
X66872Y-48050D01*
X78582Y-48050D01*
X78440Y-48191D01*
X78250Y-48650D01*
X78249Y-49147D01*
X78439Y-49607D01*
X78791Y-49959D01*
X79250Y-50149D01*
X79747Y-50150D01*
X80207Y-49960D01*
X80559Y-49608D01*
X80749Y-49149D01*
X80750Y-48652D01*
X80560Y-48192D01*
X80417Y-48050D01*
X81702Y-48050D01*
X81702Y-48655D01*
X81740Y-48747D01*
X81810Y-48818D01*
X81902Y-48856D01*
X82002Y-48856D01*
X82671Y-48856D01*
X82763Y-48818D01*
X82833Y-48748D01*
X82872Y-48656D01*
X82872Y-48556D01*
X82872Y-48050D01*
X84550Y-48050D01*
X84550Y-46785D01*
X84554Y-46797D01*
X84702Y-46944D01*
X84895Y-47024D01*
X85103Y-47025D01*
X85297Y-46945D01*
X85444Y-46797D01*
X85524Y-46604D01*
X85525Y-46396D01*
X85445Y-46203D01*
X85297Y-46055D01*
X85285Y-46050D01*
X87214Y-46050D01*
X87203Y-46054D01*
X87055Y-46202D01*
X86975Y-46395D01*
X86974Y-46603D01*
X87054Y-46797D01*
X87202Y-46944D01*
X87395Y-47024D01*
X87603Y-47025D01*
X87797Y-46945D01*
X87944Y-46797D01*
X88024Y-46604D01*
X88025Y-46396D01*
X87945Y-46203D01*
X87797Y-46055D01*
X87785Y-46050D01*
X95450Y-46050D01*
X95450Y-59313D01*
X95390Y-59253D01*
X95390Y-57690D01*
X95321Y-57525D01*
X95195Y-57398D01*
X95030Y-57329D01*
X94851Y-57329D01*
X94685Y-57398D01*
X94558Y-57524D01*
X94490Y-57690D01*
X94490Y-57869D01*
X94558Y-58034D01*
X94684Y-58161D01*
X94850Y-58229D01*
X95029Y-58229D01*
X95194Y-58161D01*
X95321Y-58035D01*
X95390Y-57869D01*
X95390Y-57690D01*
X95390Y-59253D01*
X95355Y-59218D01*
X95189Y-59150D01*
X95010Y-59149D01*
X94845Y-59218D01*
X94718Y-59344D01*
X94650Y-59510D01*
X94649Y-59689D01*
X94718Y-59854D01*
X94844Y-59981D01*
X95010Y-60049D01*
X95189Y-60050D01*
X95354Y-59981D01*
X95450Y-59886D01*
X95450Y-62582D01*
X95401Y-62465D01*
X95275Y-62338D01*
X95109Y-62270D01*
X94930Y-62270D01*
X94765Y-62338D01*
X94638Y-62464D01*
X94570Y-62630D01*
X94570Y-62809D01*
X94638Y-62974D01*
X94764Y-63101D01*
X94930Y-63170D01*
X95109Y-63170D01*
X95274Y-63101D01*
X95401Y-62975D01*
X95450Y-62858D01*
X95450Y-69475D01*
X95356Y-69514D01*
X95229Y-69640D01*
X95229Y-68451D01*
X95161Y-68285D01*
X95035Y-68158D01*
X94869Y-68090D01*
X94690Y-68090D01*
X94525Y-68158D01*
X94522Y-68161D01*
X94360Y-68094D01*
X94270Y-68093D01*
X94270Y-61790D01*
X94201Y-61625D01*
X94075Y-61498D01*
X93929Y-61438D01*
X93929Y-46630D01*
X93861Y-46465D01*
X93735Y-46338D01*
X93569Y-46270D01*
X93390Y-46270D01*
X93225Y-46338D01*
X93098Y-46464D01*
X93029Y-46630D01*
X93029Y-46809D01*
X93078Y-46925D01*
X92958Y-47044D01*
X92890Y-47210D01*
X92890Y-47389D01*
X92958Y-47554D01*
X93084Y-47681D01*
X93250Y-47749D01*
X93429Y-47750D01*
X93594Y-47681D01*
X93721Y-47555D01*
X93790Y-47389D01*
X93790Y-47210D01*
X93742Y-47094D01*
X93861Y-46975D01*
X93929Y-46809D01*
X93929Y-46630D01*
X93929Y-61438D01*
X93909Y-61429D01*
X93730Y-61429D01*
X93565Y-61498D01*
X93438Y-61624D01*
X93370Y-61790D01*
X93370Y-61969D01*
X93438Y-62134D01*
X93564Y-62261D01*
X93730Y-62329D01*
X93909Y-62329D01*
X94074Y-62261D01*
X94201Y-62135D01*
X94270Y-61969D01*
X94270Y-61790D01*
X94270Y-68093D01*
X94181Y-68093D01*
X94016Y-68162D01*
X93889Y-68288D01*
X93821Y-68454D01*
X93820Y-68633D01*
X93889Y-68798D01*
X94015Y-68925D01*
X94181Y-68993D01*
X94360Y-68994D01*
X94525Y-68925D01*
X94528Y-68922D01*
X94690Y-68990D01*
X94869Y-68990D01*
X95034Y-68921D01*
X95161Y-68795D01*
X95229Y-68630D01*
X95229Y-68451D01*
X95229Y-69640D01*
X95229Y-69641D01*
X95160Y-69806D01*
X95160Y-69985D01*
X95228Y-70150D01*
X95355Y-70277D01*
X95450Y-70316D01*
X95450Y-73450D01*
M02*
