%
M48
M72
T01C0.0236
T02C0.0276
T03C0.0315
T04C0.0354
T05C0.0394
T06C0.0400
T07C0.0433
T08C0.0591
T09C0.0710
T10C0.0866
T11C0.1181
T12C0.1260
T13C0.1550
%
T01
X4501Y5601
X6901Y7351
X11251Y6001
X14301Y7351
X19001Y7351
X27151Y7801
X30851Y10801
X33751Y11401
X34651Y11451
X35151Y11451
X35651Y11451
X37551Y10701
X38651Y9951
X39201Y9951
X37801Y9451
X39651Y9101
X40201Y8201
X40151Y6601
X39651Y5601
X39351Y4651
X42651Y5001
X43151Y4601
X43151Y6101
X49251Y8351
X47151Y9201
X44651Y10601
X49051Y12351
X50701Y13501
X51951Y13501
X51451Y14601
X51101Y15151
X51201Y15851
X50801Y16251
X50651Y16951
X49651Y16601
X49651Y18101
X50151Y18751
X46751Y18501
X46651Y20101
X46951Y21701
X45251Y22101
X49651Y22101
X52001Y20601
X54601Y21351
X54701Y20801
X55801Y20851
X56301Y21351
X57551Y22001
X58151Y22001
X59501Y20251
X59851Y19851
X60251Y19501
X60651Y19151
X60651Y18101
X60251Y17601
X59051Y17101
X58301Y17751
X57701Y17701
X57951Y18251
X61851Y20101
X66851Y19001
X69651Y19401
X69651Y18601
X71751Y18301
X73151Y19001
X73451Y20201
X73651Y22001
X71651Y23301
X69351Y22601
X68551Y24401
X66651Y24301
X62751Y24551
X62301Y23951
X63651Y26601
X63201Y28601
X66651Y28901
X69151Y28401
X69151Y27901
X69151Y27401
X69651Y27401
X69651Y27901
X69651Y28401
X72751Y27201
X69651Y26901
X69151Y26901
X72351Y25501
X76251Y22551
X76751Y22551
X77251Y22551
X77751Y22551
X78251Y22551
X82151Y22601
X69151Y17601
X69151Y16601
X66351Y17601
X63151Y15101
X60101Y14351
X59751Y13901
X59001Y15451
X54151Y13351
X54151Y12101
X52951Y12201
X52951Y11609
X53451Y11001
X53917Y10351
X51901Y9551
X51851Y8401
X54401Y8751
X55001Y7951
X55001Y6201
X55501Y4601
X56851Y4151
X60301Y4151
X63851Y4151
X68851Y4151
X72351Y4151
X75351Y4151
X80551Y4601
X82201Y4951
X80551Y6101
X80551Y7601
X82051Y9901
X83501Y10188
X81651Y13301
X78251Y15551
X77751Y15551
X77251Y15551
X76751Y15551
X76251Y15551
X73651Y15001
X73551Y13201
X71751Y13301
X69851Y14401
X66851Y14351
X69151Y12601
X72351Y11501
X69651Y9431
X66851Y10251
X63901Y9601
X61601Y9158
X50801Y10901
X49551Y14051
X52501Y14751
X39651Y17101
X39251Y15001
X37251Y14601
X37651Y13601
X29301Y12951
X33751Y8681
X14301Y11001
X9071Y10201
X6351Y10201
X6301Y11101
X6301Y11601
X6301Y12101
X4151Y13601
X3481Y14991
X7001Y13951
X8776Y13976
X7801Y15101
X8651Y16101
X7001Y16601
X7651Y17301
X9301Y18101
X10451Y18151
X10851Y19201
X8501Y19101
X9301Y20801
X13201Y20301
X12651Y22901
X10251Y24601
X9201Y25601
X9051Y26451
X10201Y27351
X10601Y27851
X8201Y28201
X7951Y29001
X7551Y30101
X8401Y31301
X7651Y31701
X9151Y32101
X11151Y31251
X11851Y31351
X12151Y30601
X12551Y30001
X18051Y29351
X11991Y26301
X12651Y25401
X6651Y26601
X4651Y26101
X3651Y26801
X3351Y26001
X3001Y24551
X3651Y22151
X3651Y18851
X3201Y18001
X10751Y16551
X12151Y16101
X13101Y15801
X13651Y14101
X22151Y24601
X33901Y29751
X30151Y31101
X27951Y30451
X26851Y31851
X26351Y31851
X25851Y31851
X25851Y32401
X26351Y32401
X26851Y32401
X40151Y28051
X40151Y27501
X40151Y26951
X40151Y26401
X40151Y25851
X40151Y25301
X40151Y24751
X40151Y24201
X49351Y25301
X54151Y26801
X53151Y28101
X69151Y29601
X73651Y29001
X76251Y29551
X76751Y29551
X77251Y29551
X77751Y29551
X78251Y29551
X82101Y29251
X83651Y28601
X67351Y21101
X6351Y27601
T02
X6651Y19101
X7651Y19101
X53151Y22101
X54151Y22101
X67651Y30601
X68651Y30601
X64151Y12101
X63151Y12101
T03
X60364Y24770
X59576Y24770
X58789Y24770
X58002Y24770
X57214Y24770
X56427Y24770
X55639Y24770
X54852Y24770
X54065Y24770
X53277Y24770
X53277Y33431
X54065Y33431
X54852Y33431
X55639Y33431
X56427Y33431
X57214Y33431
X58002Y33431
X58789Y33431
X59576Y33431
X60364Y33431
T04
X72301Y29001
X71901Y27001
X83651Y31601
X80301Y21551
X61101Y11101
X60101Y11101
X59051Y11101
X59551Y10101
X60601Y10101
X58201Y7001
X43151Y4051
X40151Y5101
X36101Y5401
X40351Y7451
X41151Y6801
X42501Y8451
X28651Y5101
X23401Y6051
X12101Y11401
X2051Y12251
X30001Y22801
X38851Y19501
X26301Y30401
X40701Y32051
X45851Y32101
X74651Y9651
X80351Y9651
T05
X46131Y7751
X45151Y7751
X44171Y7751
X44171Y6451
X45151Y6451
X46131Y6451
T06
X48651Y16101
X48651Y17101
X48651Y18101
X48651Y19101
X48651Y20101
X11151Y21601
X11151Y22601
X11151Y23601
X11151Y24601
X11151Y25601
T07
X22151Y22901
X29151Y24761
X30651Y25431
X29151Y26101
X30651Y26771
X29151Y27441
X31151Y20901
X22151Y15301
X31151Y13301
T08
X46151Y14821
X46151Y17380
X47651Y23821
X47651Y26380
X15931Y28601
X13372Y28601
X4651Y20380
X4651Y17821
T09
X80151Y17601
X80151Y19251
X80151Y15951
T10
X49250Y30101
X47084Y30101
X24750Y31101
X22584Y31101
T11
X7651Y2101
X22651Y2101
X48901Y2101
X75151Y2101
X83021Y15946
X83021Y19256
X75151Y34601
X48901Y34601
X22651Y34601
X7651Y34601
T12
X19681Y31101
X44181Y30101
T13
X38021Y26101
M30
