G75*
G70*
%OFA0B0*%
%FSLAX24Y24*%
%IPPOS*%
%LPD*%
%AMOC8*
5,1,8,0,0,1.08239X$1,22.5*
%
%ADD10R,0.0198X0.0671*%
%ADD11R,0.0671X0.0198*%
%ADD12R,0.0860X0.0290*%
%ADD13R,0.0513X0.0474*%
%ADD14R,0.0474X0.0513*%
%ADD15R,0.0580X0.0659*%
%ADD16R,0.0659X0.0580*%
%ADD17C,0.0730*%
%ADD18R,0.1261X0.0710*%
%ADD19R,0.2550X0.2360*%
%ADD20R,0.0611X0.0316*%
%ADD21R,0.0867X0.0552*%
%ADD22R,0.0870X0.0670*%
%ADD23R,0.0870X0.1580*%
%ADD24C,0.0820*%
%ADD25C,0.0680*%
%ADD26R,0.0395X0.0395*%
%ADD27R,0.0966X0.0336*%
%ADD28R,0.0316X0.0611*%
%ADD29R,0.0552X0.0867*%
%ADD30R,0.0316X0.0336*%
%ADD31R,0.0356X0.0749*%
%ADD32C,0.1261*%
%ADD33C,0.1145*%
%ADD34R,0.0218X0.0415*%
%ADD35R,0.0395X0.0218*%
%ADD36C,0.2380*%
%ADD37R,0.0749X0.0356*%
%ADD38R,0.0336X0.0316*%
%ADD39R,0.0714X0.0714*%
%ADD40R,0.0493X0.0257*%
%ADD41R,0.1182X0.1182*%
%ADD42R,0.1025X0.1025*%
%ADD43R,0.0867X0.2442*%
%ADD44R,0.0966X0.0966*%
%ADD45R,0.0257X0.0493*%
%ADD46R,0.2442X0.0867*%
%ADD47R,0.0753X0.0753*%
%ADD48C,0.2030*%
%ADD49R,0.5080X0.4230*%
%ADD50R,0.1458X0.0474*%
%ADD51R,0.0615X0.0336*%
%ADD52R,0.0907X0.0592*%
%ADD53C,0.1346*%
%ADD54C,0.1340*%
%ADD55C,0.0634*%
D10*
X005675Y021357D03*
X005872Y021357D03*
X006069Y021357D03*
X006265Y021357D03*
X006462Y021357D03*
X006659Y021357D03*
X006856Y021357D03*
X007053Y021357D03*
X007250Y021357D03*
X007446Y021357D03*
X007643Y021357D03*
X007840Y021357D03*
X008037Y021357D03*
X008234Y021357D03*
X008431Y021357D03*
X008628Y021357D03*
X008628Y025845D03*
X008431Y025845D03*
X008234Y025845D03*
X008037Y025845D03*
X007840Y025845D03*
X007643Y025845D03*
X007446Y025845D03*
X007250Y025845D03*
X007053Y025845D03*
X006856Y025845D03*
X006659Y025845D03*
X006462Y025845D03*
X006265Y025845D03*
X006069Y025845D03*
X005872Y025845D03*
X005675Y025845D03*
X052675Y019845D03*
X052872Y019845D03*
X053069Y019845D03*
X053265Y019845D03*
X053462Y019845D03*
X053659Y019845D03*
X053856Y019845D03*
X054053Y019845D03*
X054250Y019845D03*
X054446Y019845D03*
X054643Y019845D03*
X054840Y019845D03*
X055037Y019845D03*
X055234Y019845D03*
X055431Y019845D03*
X055628Y019845D03*
X055628Y015357D03*
X055431Y015357D03*
X055234Y015357D03*
X055037Y015357D03*
X054840Y015357D03*
X054643Y015357D03*
X054446Y015357D03*
X054250Y015357D03*
X054053Y015357D03*
X053856Y015357D03*
X053659Y015357D03*
X053462Y015357D03*
X053265Y015357D03*
X053069Y015357D03*
X052872Y015357D03*
X052675Y015357D03*
D11*
X051907Y016124D03*
X051907Y016321D03*
X051907Y016518D03*
X051907Y016715D03*
X051907Y016912D03*
X051907Y017109D03*
X051907Y017306D03*
X051907Y017502D03*
X051907Y017699D03*
X051907Y017896D03*
X051907Y018093D03*
X051907Y018290D03*
X051907Y018487D03*
X051907Y018683D03*
X051907Y018880D03*
X051907Y019077D03*
X056395Y019077D03*
X056395Y018880D03*
X056395Y018683D03*
X056395Y018487D03*
X056395Y018290D03*
X056395Y018093D03*
X056395Y017896D03*
X056395Y017699D03*
X056395Y017502D03*
X056395Y017306D03*
X056395Y017109D03*
X056395Y016912D03*
X056395Y016715D03*
X056395Y016518D03*
X056395Y016321D03*
X056395Y016124D03*
X009395Y022124D03*
X009395Y022321D03*
X009395Y022518D03*
X009395Y022715D03*
X009395Y022912D03*
X009395Y023109D03*
X009395Y023306D03*
X009395Y023502D03*
X009395Y023699D03*
X009395Y023896D03*
X009395Y024093D03*
X009395Y024290D03*
X009395Y024487D03*
X009395Y024683D03*
X009395Y024880D03*
X009395Y025077D03*
X004907Y025077D03*
X004907Y024880D03*
X004907Y024683D03*
X004907Y024487D03*
X004907Y024290D03*
X004907Y024093D03*
X004907Y023896D03*
X004907Y023699D03*
X004907Y023502D03*
X004907Y023306D03*
X004907Y023109D03*
X004907Y022912D03*
X004907Y022715D03*
X004907Y022518D03*
X004907Y022321D03*
X004907Y022124D03*
D12*
X061806Y019601D03*
X061806Y019101D03*
X061806Y018601D03*
X061806Y018101D03*
X061806Y017601D03*
X061806Y017101D03*
X061806Y016601D03*
X061806Y016101D03*
X061806Y015601D03*
X061806Y015101D03*
X061806Y014601D03*
X061806Y014101D03*
X065496Y014101D03*
X065496Y014601D03*
X065496Y015101D03*
X065496Y015601D03*
X065496Y016101D03*
X065496Y016601D03*
X065496Y017101D03*
X065496Y017601D03*
X065496Y018101D03*
X065496Y018601D03*
X065496Y019101D03*
X065496Y019601D03*
D13*
X067817Y021601D03*
X068486Y021601D03*
X065651Y023266D03*
X065651Y023935D03*
X065651Y024766D03*
X064651Y024766D03*
X064651Y025435D03*
X065651Y025435D03*
X064986Y026601D03*
X064317Y026601D03*
X067817Y029601D03*
X068486Y029601D03*
X073151Y025435D03*
X073151Y024766D03*
X073151Y018435D03*
X073151Y017766D03*
X068486Y015601D03*
X067817Y015601D03*
X063986Y013101D03*
X063317Y013101D03*
X067817Y011601D03*
X068486Y011601D03*
X073151Y011435D03*
X073151Y010766D03*
X078151Y005435D03*
X078151Y004766D03*
X067651Y004766D03*
X067651Y005435D03*
X066151Y004935D03*
X066151Y004266D03*
X056151Y004766D03*
X056151Y005435D03*
X056151Y008766D03*
X056151Y009435D03*
X055151Y009435D03*
X055151Y008766D03*
X057151Y008766D03*
X057151Y009435D03*
X058151Y009435D03*
X058151Y008766D03*
X052986Y010101D03*
X052317Y010101D03*
X051486Y010101D03*
X050817Y010101D03*
X053817Y011601D03*
X054486Y011601D03*
X058317Y016101D03*
X058986Y016101D03*
X058486Y017101D03*
X057817Y017101D03*
X060651Y016935D03*
X060651Y016266D03*
X050986Y018101D03*
X050317Y018101D03*
X050817Y020601D03*
X051486Y020601D03*
X053317Y021101D03*
X053986Y021101D03*
X038651Y016435D03*
X038651Y015766D03*
X037651Y015766D03*
X036651Y015766D03*
X036651Y016435D03*
X037651Y016435D03*
X034986Y012101D03*
X034317Y012101D03*
X038151Y011935D03*
X038151Y011266D03*
X038151Y008435D03*
X038151Y007766D03*
X038151Y006935D03*
X039151Y006935D03*
X039151Y006266D03*
X038151Y006266D03*
X012986Y015101D03*
X012317Y015101D03*
X009986Y015601D03*
X009317Y015601D03*
X008651Y015435D03*
X008651Y014766D03*
X007151Y014766D03*
X007151Y015435D03*
X006486Y015601D03*
X005817Y015601D03*
X003486Y015601D03*
X002817Y015601D03*
X006817Y020101D03*
X007486Y020101D03*
X009317Y020101D03*
X009986Y020101D03*
X005651Y027266D03*
X005651Y027935D03*
X008317Y027601D03*
X008986Y027601D03*
X008817Y028601D03*
X009486Y028601D03*
X005651Y031266D03*
X005651Y031935D03*
X004151Y031935D03*
X002651Y031935D03*
X002651Y031266D03*
X004151Y031266D03*
X001151Y031266D03*
X001151Y031935D03*
X009817Y032101D03*
X010486Y032101D03*
X011317Y032101D03*
X011986Y032101D03*
X028651Y030435D03*
X028651Y029766D03*
X030151Y029766D03*
X031651Y029766D03*
X031651Y030435D03*
X030151Y030435D03*
X008986Y008601D03*
X008317Y008601D03*
X006986Y008601D03*
X006317Y008601D03*
X006486Y004251D03*
X005817Y004251D03*
D14*
X005651Y010766D03*
X005651Y011435D03*
X005817Y014601D03*
X006486Y014601D03*
X004986Y014601D03*
X004317Y014601D03*
X004317Y015601D03*
X004986Y015601D03*
X009317Y014601D03*
X009986Y014601D03*
X010817Y014601D03*
X011486Y014601D03*
X011486Y015601D03*
X010817Y015601D03*
X009986Y019101D03*
X009317Y019101D03*
X011817Y019101D03*
X012486Y019101D03*
X012486Y020601D03*
X011817Y020601D03*
X003651Y022816D03*
X003651Y023485D03*
X003651Y024266D03*
X003651Y024935D03*
X010817Y027101D03*
X011486Y027101D03*
X014317Y027101D03*
X014986Y027101D03*
X008151Y029766D03*
X008151Y030435D03*
X033151Y030435D03*
X033151Y029766D03*
X049817Y024601D03*
X050486Y024601D03*
X053151Y026766D03*
X053151Y027435D03*
X051986Y032101D03*
X051317Y032101D03*
X064651Y028435D03*
X065651Y028435D03*
X065651Y027766D03*
X064651Y027766D03*
X067817Y023601D03*
X068486Y023601D03*
X068486Y022601D03*
X067817Y022601D03*
X067817Y020601D03*
X068486Y020601D03*
X068486Y018601D03*
X067817Y018601D03*
X067817Y017601D03*
X068486Y017601D03*
X068486Y016601D03*
X067817Y016601D03*
X067817Y014601D03*
X068486Y014601D03*
X068486Y012601D03*
X067817Y012601D03*
X067817Y010601D03*
X068486Y010601D03*
X073317Y006601D03*
X073986Y006601D03*
X079317Y006101D03*
X079986Y006101D03*
X079986Y007601D03*
X079317Y007601D03*
X079317Y004601D03*
X079986Y004601D03*
X061986Y006601D03*
X061317Y006601D03*
X054151Y007266D03*
X053151Y007266D03*
X053151Y007935D03*
X054151Y007935D03*
X054151Y005935D03*
X053151Y005935D03*
X053151Y005266D03*
X054151Y005266D03*
X049651Y011266D03*
X049651Y011935D03*
X049651Y012766D03*
X049651Y013435D03*
X049817Y014601D03*
X050486Y014601D03*
X053817Y012601D03*
X054486Y012601D03*
X060651Y014766D03*
X060651Y015435D03*
X039651Y015766D03*
X039651Y016435D03*
X038486Y014601D03*
X037817Y014601D03*
X039151Y011935D03*
X039151Y011266D03*
X038986Y010601D03*
X038317Y010601D03*
X038317Y009101D03*
X038986Y009101D03*
X039151Y008435D03*
X039151Y007766D03*
X038651Y005435D03*
X038651Y004766D03*
X032151Y008766D03*
X032151Y009435D03*
X032151Y010766D03*
X032151Y011435D03*
X028151Y008935D03*
X028151Y008266D03*
D15*
X034305Y007601D03*
X035998Y007601D03*
X015998Y015101D03*
X014305Y015101D03*
X067305Y013601D03*
X068998Y013601D03*
X068998Y009601D03*
X067305Y009601D03*
X067305Y019601D03*
X068998Y019601D03*
D16*
X070651Y019254D03*
X070651Y018447D03*
X070651Y016754D03*
X070651Y015947D03*
X070651Y014254D03*
X070651Y013447D03*
X070651Y011754D03*
X070651Y010947D03*
X070651Y009254D03*
X081651Y012254D03*
X081651Y013947D03*
X070651Y020947D03*
X070651Y021754D03*
X070651Y023447D03*
X047151Y011447D03*
X047151Y009754D03*
X036151Y012754D03*
X036151Y014447D03*
X010151Y012447D03*
X010151Y010754D03*
X004151Y010754D03*
X004151Y012447D03*
D17*
X006651Y019101D03*
X007651Y019101D03*
X053151Y022101D03*
X054151Y022101D03*
X067651Y030601D03*
X068651Y030601D03*
X064151Y012101D03*
X063151Y012101D03*
D18*
X074741Y011501D03*
X074741Y013201D03*
X074741Y015001D03*
X074741Y016701D03*
X074741Y018501D03*
X074741Y020201D03*
X074741Y022001D03*
X074741Y023701D03*
X074741Y025501D03*
X074741Y027201D03*
X074741Y029001D03*
X074741Y009701D03*
D19*
X077276Y010601D03*
X077276Y014101D03*
X077276Y017601D03*
X077276Y021101D03*
X077276Y024601D03*
X077276Y028101D03*
D20*
X082811Y025798D03*
X082811Y025404D03*
X082811Y022798D03*
X082811Y022404D03*
X082811Y013298D03*
X082811Y012904D03*
X082811Y006388D03*
X082811Y005994D03*
X082811Y005601D03*
X082811Y005207D03*
X082811Y004813D03*
X043992Y009904D03*
X043992Y010298D03*
X043992Y012904D03*
X043992Y013298D03*
X043992Y015904D03*
X043992Y016298D03*
X014311Y012798D03*
X014311Y012404D03*
X014311Y010298D03*
X014311Y009904D03*
X014311Y019904D03*
X014311Y020298D03*
X014311Y022404D03*
X014311Y022798D03*
X014311Y024904D03*
X014311Y025298D03*
X014311Y030404D03*
X014311Y030798D03*
D21*
X015757Y031309D03*
X015757Y029892D03*
X015757Y025809D03*
X015757Y024392D03*
X015757Y023309D03*
X015757Y021892D03*
X015757Y020809D03*
X015757Y019392D03*
X015757Y013309D03*
X015757Y011892D03*
X015757Y010809D03*
X015757Y009392D03*
X042545Y009392D03*
X042545Y010809D03*
X042545Y012392D03*
X042545Y013809D03*
X042545Y015392D03*
X042545Y016809D03*
X084257Y013809D03*
X084257Y012392D03*
X084257Y006900D03*
X084257Y004302D03*
X084257Y021892D03*
X084257Y023309D03*
X084257Y024892D03*
X084257Y026309D03*
D22*
X051891Y007511D03*
X051891Y006611D03*
X051891Y005711D03*
D23*
X049411Y006601D03*
D24*
X048651Y016101D03*
X048651Y017101D03*
X048651Y018101D03*
X048651Y019101D03*
X048651Y020101D03*
X011151Y021601D03*
X011151Y022601D03*
X011151Y023601D03*
X011151Y024601D03*
X011151Y025601D03*
D25*
X053277Y024770D03*
X054065Y024770D03*
X054852Y024770D03*
X055639Y024770D03*
X056427Y024770D03*
X057214Y024770D03*
X058002Y024770D03*
X058789Y024770D03*
X059576Y024770D03*
X060364Y024770D03*
X060364Y033431D03*
X059576Y033431D03*
X058789Y033431D03*
X058002Y033431D03*
X057214Y033431D03*
X056427Y033431D03*
X055639Y033431D03*
X054852Y033431D03*
X054065Y033431D03*
X053277Y033431D03*
D26*
X050446Y032101D03*
X049856Y032101D03*
X005651Y030396D03*
X005651Y029806D03*
X004151Y029806D03*
X002651Y029806D03*
X002651Y030396D03*
X004151Y030396D03*
X001151Y030396D03*
X001151Y029806D03*
X055151Y010896D03*
X055151Y010306D03*
X056151Y010306D03*
X056151Y010896D03*
X057151Y010896D03*
X057151Y010306D03*
X058151Y010306D03*
X058151Y010896D03*
D27*
X066781Y024851D03*
X066781Y025351D03*
X066781Y025851D03*
X066781Y026351D03*
X066781Y026851D03*
X066781Y027351D03*
X066781Y027851D03*
X066781Y028351D03*
X070521Y028351D03*
X070521Y027851D03*
X070521Y027351D03*
X070521Y026851D03*
X070521Y026351D03*
X070521Y025851D03*
X070521Y025351D03*
X070521Y024851D03*
D28*
X069848Y004260D03*
X069454Y004260D03*
X072954Y004260D03*
X073348Y004260D03*
X075954Y004260D03*
X076348Y004260D03*
X064848Y004260D03*
X064454Y004260D03*
X061348Y004260D03*
X060954Y004260D03*
X057848Y004260D03*
X057454Y004260D03*
D29*
X056943Y005707D03*
X058360Y005707D03*
X060443Y005707D03*
X061860Y005707D03*
X063943Y005707D03*
X065360Y005707D03*
X068943Y005707D03*
X070360Y005707D03*
X072443Y005707D03*
X073860Y005707D03*
X075443Y005707D03*
X076860Y005707D03*
D30*
X065525Y009158D03*
X064777Y009158D03*
X065151Y010044D03*
X049025Y009544D03*
X048277Y009544D03*
X048651Y008658D03*
D31*
X053679Y014101D03*
X054151Y014101D03*
X054624Y014101D03*
D32*
X083021Y015946D03*
X083021Y019256D03*
D33*
X080151Y019251D03*
X080151Y017601D03*
X080151Y015951D03*
D34*
X052143Y012878D03*
X051946Y012878D03*
X051750Y012878D03*
X051553Y012878D03*
X051356Y012878D03*
X051159Y012878D03*
X051159Y011323D03*
X051356Y011323D03*
X051553Y011323D03*
X051750Y011323D03*
X051946Y011323D03*
X052143Y011323D03*
X010643Y029323D03*
X010446Y029323D03*
X010250Y029323D03*
X010053Y029323D03*
X009856Y029323D03*
X009659Y029323D03*
X009659Y030878D03*
X009856Y030878D03*
X010053Y030878D03*
X010250Y030878D03*
X010446Y030878D03*
X010643Y030878D03*
D35*
X010939Y030593D03*
X010939Y030396D03*
X010939Y030199D03*
X010939Y030002D03*
X010939Y029806D03*
X010939Y029609D03*
X009364Y029609D03*
X009364Y029806D03*
X009364Y030002D03*
X009364Y030199D03*
X009364Y030396D03*
X009364Y030593D03*
X050864Y012593D03*
X050864Y012396D03*
X050864Y012199D03*
X050864Y012002D03*
X050864Y011806D03*
X050864Y011609D03*
X052439Y011609D03*
X052439Y011806D03*
X052439Y012002D03*
X052439Y012199D03*
X052439Y012396D03*
X052439Y012593D03*
D36*
X007651Y002101D03*
X022651Y002101D03*
X048901Y002101D03*
X075151Y002101D03*
X075151Y034601D03*
X048901Y034601D03*
X022651Y034601D03*
X007651Y034601D03*
D37*
X007151Y028073D03*
X007151Y027601D03*
X007151Y027128D03*
D38*
X014708Y017975D03*
X015594Y017601D03*
X014708Y017227D03*
D39*
X044171Y007751D03*
X045151Y007751D03*
X046131Y007751D03*
X046131Y006451D03*
X045151Y006451D03*
X044171Y006451D03*
D40*
X036244Y009205D03*
X036244Y009461D03*
X036244Y009717D03*
X036244Y009973D03*
X036244Y010229D03*
X036244Y010485D03*
X036244Y010741D03*
X036244Y010996D03*
X034059Y010996D03*
X034059Y010741D03*
X034059Y010485D03*
X034059Y010229D03*
X034059Y009973D03*
X034059Y009717D03*
X034059Y009461D03*
X034059Y009205D03*
D41*
X035151Y010101D03*
X007651Y011601D03*
D42*
X005651Y007467D03*
X005651Y005735D03*
X009651Y005735D03*
X009651Y007467D03*
X029285Y008101D03*
X031017Y008101D03*
X031017Y012101D03*
X029285Y012101D03*
X035285Y022601D03*
X037017Y022601D03*
D43*
X032998Y005601D03*
X031305Y005601D03*
D44*
X046151Y014821D03*
X046151Y017380D03*
X047651Y023821D03*
X047651Y026380D03*
X015931Y028601D03*
X013372Y028601D03*
X004651Y020380D03*
X004651Y017821D03*
D45*
X006756Y012693D03*
X007011Y012693D03*
X007267Y012693D03*
X007523Y012693D03*
X007779Y012693D03*
X008035Y012693D03*
X008291Y012693D03*
X008547Y012693D03*
X008547Y010508D03*
X008291Y010508D03*
X008035Y010508D03*
X007779Y010508D03*
X007523Y010508D03*
X007267Y010508D03*
X007011Y010508D03*
X006756Y010508D03*
D46*
X002151Y009447D03*
X002151Y007754D03*
X012151Y007754D03*
X012151Y009447D03*
D47*
X022151Y015301D03*
X031151Y013301D03*
X031151Y020901D03*
X029151Y024761D03*
X030651Y025431D03*
X029151Y026101D03*
X030651Y026771D03*
X029151Y027441D03*
X022151Y022901D03*
D48*
X038021Y026101D03*
D49*
X037121Y026101D03*
D50*
X026246Y026601D03*
X023057Y026601D03*
X021246Y026601D03*
X018057Y026601D03*
D51*
X002494Y026404D03*
X002494Y026798D03*
X002494Y027191D03*
X002494Y026010D03*
X002494Y019691D03*
X002494Y019298D03*
X002494Y018904D03*
X002494Y018510D03*
X014309Y006191D03*
X014309Y005798D03*
X014309Y005404D03*
X014309Y005010D03*
X018994Y005010D03*
X018994Y005404D03*
X018994Y005798D03*
X018994Y006191D03*
X043994Y020010D03*
X043994Y020404D03*
X043994Y020798D03*
X043994Y021191D03*
X082809Y028010D03*
X082809Y028404D03*
X082809Y028798D03*
X082809Y029191D03*
X082809Y010191D03*
X082809Y009798D03*
X082809Y009404D03*
X082809Y009010D03*
D52*
X084238Y008479D03*
X084238Y010723D03*
X084238Y027479D03*
X084238Y029723D03*
X042565Y021723D03*
X042565Y019479D03*
X017565Y006723D03*
X015738Y006723D03*
X015738Y004479D03*
X017565Y004479D03*
X001065Y017979D03*
X001065Y020223D03*
X001065Y025479D03*
X001065Y027723D03*
D53*
X022584Y031101D03*
X024750Y031101D03*
X047084Y030101D03*
X049250Y030101D03*
D54*
X044181Y030101D03*
X019681Y031101D03*
D55*
X026301Y030401D03*
X040701Y032051D03*
X045851Y032101D03*
X030001Y022801D03*
X038851Y019501D03*
X059051Y011101D03*
X060101Y011101D03*
X061101Y011101D03*
X060601Y010101D03*
X059551Y010101D03*
X058201Y007001D03*
X043151Y004051D03*
X040151Y005101D03*
X036101Y005401D03*
X040351Y007451D03*
X041151Y006801D03*
X042501Y008451D03*
X028651Y005101D03*
X023401Y006051D03*
X012101Y011401D03*
X002051Y012251D03*
X071901Y027001D03*
X072301Y029001D03*
X083651Y031601D03*
X080301Y021551D03*
X080351Y009651D03*
X074651Y009651D03*
M02*
