G75*
G70*
%OFA0B0*%
%FSLAX24Y24*%
%IPPOS*%
%LPD*%
%AMOC8*
5,1,8,0,0,1.08239X$1,22.5*
%
%ADD10C,0.0000*%
%ADD11R,0.0886X0.0256*%
%ADD12R,0.0394X0.0433*%
%ADD13R,0.0433X0.0394*%
%ADD14R,0.0906X0.0906*%
%ADD15R,0.0098X0.0157*%
%ADD16R,0.0157X0.0098*%
%ADD17R,0.0118X0.0157*%
%ADD18R,0.0157X0.0118*%
%ADD19C,0.0520*%
%ADD20C,0.0650*%
%ADD21C,0.0740*%
%ADD22OC8,0.0740*%
%ADD23C,0.1181*%
%ADD24R,0.0590X0.0790*%
%ADD25R,0.1500X0.0790*%
%ADD26C,0.0160*%
%ADD27C,0.0100*%
%ADD28C,0.0357*%
%ADD29C,0.0400*%
%ADD30C,0.0120*%
D10*
X000100Y000100D02*
X000100Y027970D01*
X028592Y027970D01*
X028592Y000100D01*
X000100Y000100D01*
X002537Y014350D02*
X002539Y014393D01*
X002545Y014435D01*
X002555Y014477D01*
X002568Y014518D01*
X002586Y014557D01*
X002607Y014595D01*
X002631Y014630D01*
X002658Y014663D01*
X002689Y014694D01*
X002722Y014721D01*
X002757Y014745D01*
X002795Y014766D01*
X002834Y014784D01*
X002875Y014797D01*
X002917Y014807D01*
X002959Y014813D01*
X003002Y014815D01*
X003045Y014813D01*
X003087Y014807D01*
X003129Y014797D01*
X003170Y014784D01*
X003209Y014766D01*
X003247Y014745D01*
X003282Y014721D01*
X003315Y014694D01*
X003346Y014663D01*
X003373Y014630D01*
X003397Y014595D01*
X003418Y014557D01*
X003436Y014518D01*
X003449Y014477D01*
X003459Y014435D01*
X003465Y014393D01*
X003467Y014350D01*
X003465Y014307D01*
X003459Y014265D01*
X003449Y014223D01*
X003436Y014182D01*
X003418Y014143D01*
X003397Y014105D01*
X003373Y014070D01*
X003346Y014037D01*
X003315Y014006D01*
X003282Y013979D01*
X003247Y013955D01*
X003209Y013934D01*
X003170Y013916D01*
X003129Y013903D01*
X003087Y013893D01*
X003045Y013887D01*
X003002Y013885D01*
X002959Y013887D01*
X002917Y013893D01*
X002875Y013903D01*
X002834Y013916D01*
X002795Y013934D01*
X002757Y013955D01*
X002722Y013979D01*
X002689Y014006D01*
X002658Y014037D01*
X002631Y014070D01*
X002607Y014105D01*
X002586Y014143D01*
X002568Y014182D01*
X002555Y014223D01*
X002545Y014265D01*
X002539Y014307D01*
X002537Y014350D01*
X024033Y014350D02*
X024035Y014393D01*
X024041Y014435D01*
X024051Y014477D01*
X024064Y014518D01*
X024082Y014557D01*
X024103Y014595D01*
X024127Y014630D01*
X024154Y014663D01*
X024185Y014694D01*
X024218Y014721D01*
X024253Y014745D01*
X024291Y014766D01*
X024330Y014784D01*
X024371Y014797D01*
X024413Y014807D01*
X024455Y014813D01*
X024498Y014815D01*
X024541Y014813D01*
X024583Y014807D01*
X024625Y014797D01*
X024666Y014784D01*
X024705Y014766D01*
X024743Y014745D01*
X024778Y014721D01*
X024811Y014694D01*
X024842Y014663D01*
X024869Y014630D01*
X024893Y014595D01*
X024914Y014557D01*
X024932Y014518D01*
X024945Y014477D01*
X024955Y014435D01*
X024961Y014393D01*
X024963Y014350D01*
X024961Y014307D01*
X024955Y014265D01*
X024945Y014223D01*
X024932Y014182D01*
X024914Y014143D01*
X024893Y014105D01*
X024869Y014070D01*
X024842Y014037D01*
X024811Y014006D01*
X024778Y013979D01*
X024743Y013955D01*
X024705Y013934D01*
X024666Y013916D01*
X024625Y013903D01*
X024583Y013893D01*
X024541Y013887D01*
X024498Y013885D01*
X024455Y013887D01*
X024413Y013893D01*
X024371Y013903D01*
X024330Y013916D01*
X024291Y013934D01*
X024253Y013955D01*
X024218Y013979D01*
X024185Y014006D01*
X024154Y014037D01*
X024127Y014070D01*
X024103Y014105D01*
X024082Y014143D01*
X024064Y014182D01*
X024051Y014223D01*
X024041Y014265D01*
X024035Y014307D01*
X024033Y014350D01*
D11*
X006720Y009850D03*
X006720Y009350D03*
X006720Y008850D03*
X006720Y008350D03*
X006720Y007850D03*
X006720Y007350D03*
X006720Y006850D03*
X006720Y006350D03*
X002980Y006350D03*
X002980Y006850D03*
X002980Y007350D03*
X002980Y007850D03*
X002980Y008350D03*
X002980Y008850D03*
X002980Y009350D03*
X002980Y009850D03*
D12*
X008100Y006935D03*
X008100Y006265D03*
X009600Y006265D03*
X009600Y006935D03*
X009100Y008765D03*
X009100Y009435D03*
X010600Y009435D03*
X010600Y008765D03*
X009850Y012015D03*
X009850Y012685D03*
X008850Y012685D03*
X008850Y012015D03*
X015350Y011435D03*
X015350Y010765D03*
X019100Y005935D03*
X019100Y005265D03*
X021765Y017100D03*
X022435Y017100D03*
X018100Y024265D03*
X018100Y024935D03*
D13*
X011685Y025100D03*
X011015Y025100D03*
X020265Y016100D03*
X020935Y016100D03*
X023265Y016100D03*
X023935Y016100D03*
X018185Y005100D03*
X017515Y005100D03*
X016685Y005100D03*
X016015Y005100D03*
X016015Y004100D03*
X016685Y004100D03*
X009935Y010350D03*
X009265Y010350D03*
X007435Y005350D03*
X006765Y005350D03*
D14*
X017600Y011100D03*
D15*
X017502Y010391D03*
X017698Y010391D03*
X017895Y010391D03*
X018092Y010391D03*
X017305Y010391D03*
X017108Y010391D03*
X017108Y011809D03*
X017305Y011809D03*
X017502Y011809D03*
X017698Y011809D03*
X017895Y011809D03*
X018092Y011809D03*
D16*
X018309Y011592D03*
X018309Y011395D03*
X018309Y011198D03*
X018309Y011002D03*
X018309Y010805D03*
X018309Y010608D03*
X016891Y010608D03*
X016891Y010805D03*
X016891Y011002D03*
X016891Y011198D03*
X016891Y011395D03*
X016891Y011592D03*
D17*
X016484Y007269D03*
X016228Y007269D03*
X015972Y007269D03*
X015716Y007269D03*
X015716Y005931D03*
X015972Y005931D03*
X016228Y005931D03*
X016484Y005931D03*
D18*
X016769Y006216D03*
X016769Y006472D03*
X016769Y006728D03*
X016769Y006984D03*
X015431Y006984D03*
X015431Y006728D03*
X015431Y006472D03*
X015431Y006216D03*
D19*
X019100Y020840D02*
X019100Y021360D01*
X020100Y021360D02*
X020100Y020840D01*
X021100Y020840D02*
X021100Y021360D01*
X022100Y021360D02*
X022100Y020840D01*
X023100Y020840D02*
X023100Y021360D01*
X024100Y021360D02*
X024100Y020840D01*
X025100Y020840D02*
X025100Y021360D01*
X025100Y023840D02*
X025100Y024360D01*
X024100Y024360D02*
X024100Y023840D01*
X023100Y023840D02*
X023100Y024360D01*
X022100Y024360D02*
X022100Y023840D01*
X021100Y023840D02*
X021100Y024360D01*
X020100Y024360D02*
X020100Y023840D01*
X019100Y023840D02*
X019100Y024360D01*
D20*
X021100Y019100D03*
X023100Y019100D03*
D21*
X022600Y026100D03*
X021600Y026100D03*
X020600Y026100D03*
X019600Y026100D03*
X023600Y026100D03*
X001100Y008600D03*
X001100Y007600D03*
D22*
X008600Y002100D03*
X008600Y001100D03*
X009600Y001100D03*
X010600Y001100D03*
X010600Y002100D03*
X009600Y002100D03*
X011600Y002100D03*
X012600Y002100D03*
X012600Y001100D03*
X011600Y001100D03*
X013600Y001100D03*
X014600Y001100D03*
X014600Y002100D03*
X013600Y002100D03*
X015600Y002100D03*
X016600Y002100D03*
X016600Y001100D03*
X015600Y001100D03*
X017600Y001100D03*
X018600Y001100D03*
X018600Y002100D03*
X017600Y002100D03*
X019600Y002100D03*
X020600Y002100D03*
X020600Y001100D03*
X019600Y001100D03*
X026600Y009100D03*
X026600Y010100D03*
X026600Y011100D03*
X026600Y012100D03*
X026600Y013100D03*
X027600Y013100D03*
X027600Y012100D03*
X027600Y011100D03*
X027600Y010100D03*
X027600Y009100D03*
D23*
X009824Y025047D03*
X004824Y025047D03*
D24*
X006690Y022840D03*
X007590Y022840D03*
X008490Y022840D03*
D25*
X007600Y020360D03*
D26*
X008490Y020360D01*
X008490Y022840D01*
X008490Y025047D01*
X009824Y025047D01*
X011600Y026100D02*
X019600Y026100D01*
X011600Y026100D02*
X007590Y026100D01*
X007590Y022840D01*
X006690Y022840D02*
X006690Y023181D01*
X004824Y025047D01*
X002980Y009850D02*
X002980Y009350D01*
X002980Y008850D01*
X001350Y008850D01*
X001100Y008600D01*
X001100Y007600D02*
X001350Y007350D01*
X002980Y007350D01*
X002980Y006850D01*
X002980Y006350D01*
X002980Y007350D02*
X002980Y007850D01*
X002980Y008350D02*
X002980Y008850D01*
D27*
X006100Y006600D02*
X006100Y020100D01*
X007600Y020100D01*
X007600Y020360D01*
X011100Y024600D02*
X016600Y024600D01*
X017600Y025600D01*
X018100Y025600D01*
X018100Y024935D01*
X018100Y024265D02*
X018935Y024265D01*
X019100Y024100D01*
X019100Y022100D01*
X018600Y021600D01*
X018600Y013100D01*
X014600Y013100D01*
X014100Y013100D01*
X010600Y009600D01*
X010600Y009435D01*
X011350Y008435D01*
X011350Y007100D01*
X009600Y005350D01*
X007435Y005350D01*
X006765Y005350D02*
X006720Y005350D01*
X006720Y006350D01*
X008015Y006350D01*
X008100Y006265D01*
X008100Y006100D01*
X006600Y006100D01*
X006100Y006600D01*
X006720Y006850D02*
X008015Y006850D01*
X008100Y006935D01*
X008100Y006265D02*
X009600Y006265D01*
X009765Y006265D01*
X010600Y007100D01*
X010600Y008765D01*
X009850Y008765D01*
X009850Y009100D01*
X009850Y008765D02*
X009100Y008765D01*
X009100Y009435D02*
X009265Y010350D01*
X009850Y010435D02*
X009850Y010850D01*
X008600Y010850D01*
X008600Y009850D01*
X007600Y008850D01*
X006720Y008850D01*
X006720Y008350D02*
X008015Y008350D01*
X009100Y009435D01*
X008350Y010100D02*
X007600Y009350D01*
X006720Y009350D01*
X006720Y009850D02*
X007600Y009850D01*
X008350Y010100D02*
X008350Y012600D01*
X008435Y012685D01*
X008850Y012685D01*
X009850Y012685D01*
X009850Y012015D02*
X009850Y010850D01*
X009850Y010435D02*
X009935Y010350D01*
X010600Y009435D01*
X009185Y007350D02*
X009600Y006935D01*
X009185Y007350D02*
X006720Y007350D01*
X006720Y007850D02*
X008100Y007850D01*
X008850Y011600D02*
X008850Y012015D01*
X013600Y012100D02*
X015850Y012100D01*
X016752Y011198D01*
X016891Y011198D01*
X016891Y011002D02*
X017350Y011002D01*
X017350Y010850D01*
X017698Y010850D01*
X017698Y011002D01*
X017600Y011100D01*
X017698Y010850D02*
X017698Y010391D01*
X017502Y010391D01*
X017305Y010391D01*
X017108Y010391D02*
X017108Y010358D01*
X016850Y010100D01*
X014100Y010100D01*
X014100Y001600D01*
X013600Y001100D01*
X014600Y001100D02*
X015100Y001600D01*
X015100Y007600D01*
X015850Y007600D01*
X015972Y007478D01*
X015972Y007269D01*
X015716Y007269D02*
X015431Y006984D01*
X015431Y006728D01*
X015431Y006472D01*
X015431Y006216D01*
X015573Y006073D01*
X015600Y006100D01*
X015600Y003600D01*
X016600Y003600D01*
X017100Y004100D01*
X018185Y004100D01*
X018185Y005100D01*
X019100Y005100D01*
X019100Y005265D01*
X019100Y005100D02*
X019600Y005600D01*
X023100Y005600D01*
X026600Y009100D01*
X026100Y009600D02*
X028100Y009600D01*
X028100Y012600D01*
X026100Y012600D01*
X024850Y012600D01*
X026100Y012600D02*
X026600Y013100D01*
X018600Y013100D01*
X018600Y011350D02*
X019850Y011350D01*
X026100Y011350D01*
X026350Y011600D01*
X027100Y011600D01*
X027600Y012100D01*
X027600Y011100D02*
X027100Y010600D01*
X026350Y010600D01*
X026141Y010391D01*
X018092Y010391D01*
X017895Y010391D02*
X017895Y010305D01*
X018100Y010100D01*
X025350Y010100D01*
X021722Y006472D01*
X016769Y006472D01*
X016769Y006216D02*
X019100Y006216D01*
X019100Y006100D01*
X019100Y005935D01*
X019100Y006100D02*
X022600Y006100D01*
X026100Y009600D01*
X024842Y010608D02*
X018309Y010608D01*
X018309Y010805D01*
X018309Y011002D02*
X019100Y011002D01*
X026600Y011002D01*
X026600Y011100D01*
X024850Y010663D02*
X024842Y010608D01*
X021850Y008100D02*
X017315Y008100D01*
X016484Y007269D01*
X016228Y007269D02*
X016228Y007847D01*
X016100Y007975D01*
X014600Y007975D01*
X014600Y002100D01*
X013600Y002100D02*
X013600Y012100D01*
X014600Y011600D02*
X014765Y011435D01*
X015350Y011435D01*
X015435Y011350D01*
X016100Y011350D01*
X016645Y010805D01*
X016891Y010805D01*
X016891Y010608D02*
X016100Y010608D01*
X016100Y010600D01*
X016100Y010608D02*
X015507Y010608D01*
X015350Y010765D01*
X016891Y010608D02*
X017108Y010608D01*
X017350Y010850D01*
X018309Y011198D02*
X018448Y011198D01*
X018600Y011350D01*
X019100Y007100D02*
X019100Y006984D01*
X016769Y006984D01*
X016769Y006728D02*
X019850Y006728D01*
X019850Y006850D01*
X017515Y005100D02*
X016685Y005100D01*
X016015Y005100D02*
X016015Y004100D01*
X016685Y004100D02*
X017100Y004100D01*
X015972Y005143D02*
X015972Y005931D01*
X015716Y005931D02*
X015573Y006073D01*
X016228Y005931D02*
X016484Y005931D01*
X016769Y006216D01*
X023600Y015600D02*
X024100Y015600D01*
X024600Y016100D01*
X024600Y020100D01*
X022100Y020100D01*
X021100Y021100D01*
X020100Y021100D02*
X022100Y019100D01*
X022600Y019100D01*
X023100Y019100D01*
X022600Y019100D02*
X022600Y017100D01*
X022435Y017100D01*
X022600Y017100D02*
X023100Y017100D01*
X024100Y016100D01*
X023935Y016100D01*
X023600Y015600D02*
X023100Y016100D01*
X023265Y016100D01*
X023100Y016100D02*
X020935Y016100D01*
X020265Y016100D02*
X020100Y016100D01*
X021100Y017100D01*
X021100Y019100D01*
X019100Y021100D01*
X019600Y022600D02*
X023600Y022600D01*
X025100Y024100D01*
X020600Y026100D02*
X020100Y025600D01*
X018100Y025600D01*
X019100Y024100D02*
X020100Y024100D01*
X021100Y017100D02*
X021765Y017100D01*
X011685Y025100D02*
X011685Y026100D01*
X011600Y026100D01*
X011100Y025100D02*
X011015Y025100D01*
X011015Y025047D01*
X009824Y025047D01*
X011100Y025100D02*
X011100Y024600D01*
D28*
X014600Y013100D03*
X014600Y011600D03*
X014600Y011600D03*
X019100Y011002D03*
X019850Y011350D03*
X021850Y008100D03*
X019850Y006850D03*
X019100Y007100D03*
X024850Y010663D03*
X025350Y010100D03*
X024850Y012600D03*
X009850Y009100D03*
X009850Y009100D03*
X008100Y007850D03*
X007600Y009850D03*
X008850Y011600D03*
D29*
X016100Y010600D03*
X019600Y022600D03*
D30*
X015972Y005143D02*
X016015Y005100D01*
M02*
