G75*
G70*
%OFA0B0*%
%FSLAX24Y24*%
%IPPOS*%
%LPD*%
%AMOC8*
5,1,8,0,0,1.08239X$1,22.5*
%
%ADD10C,0.0520*%
%ADD11C,0.0650*%
%ADD12C,0.0740*%
%ADD13OC8,0.0740*%
%ADD14C,0.1181*%
%ADD15C,0.0357*%
%ADD16C,0.0100*%
%ADD17C,0.0400*%
D10*
X019100Y020840D02*
X019100Y021360D01*
X020100Y021360D02*
X020100Y020840D01*
X021100Y020840D02*
X021100Y021360D01*
X022100Y021360D02*
X022100Y020840D01*
X023100Y020840D02*
X023100Y021360D01*
X024100Y021360D02*
X024100Y020840D01*
X025100Y020840D02*
X025100Y021360D01*
X025100Y023840D02*
X025100Y024360D01*
X024100Y024360D02*
X024100Y023840D01*
X023100Y023840D02*
X023100Y024360D01*
X022100Y024360D02*
X022100Y023840D01*
X021100Y023840D02*
X021100Y024360D01*
X020100Y024360D02*
X020100Y023840D01*
X019100Y023840D02*
X019100Y024360D01*
D11*
X021100Y019100D03*
X023100Y019100D03*
D12*
X022600Y026100D03*
X021600Y026100D03*
X020600Y026100D03*
X019600Y026100D03*
X023600Y026100D03*
X001100Y008600D03*
X001100Y007600D03*
D13*
X008600Y002100D03*
X008600Y001100D03*
X009600Y001100D03*
X010600Y001100D03*
X010600Y002100D03*
X009600Y002100D03*
X011600Y002100D03*
X012600Y002100D03*
X012600Y001100D03*
X011600Y001100D03*
X013600Y001100D03*
X014600Y001100D03*
X014600Y002100D03*
X013600Y002100D03*
X015600Y002100D03*
X016600Y002100D03*
X016600Y001100D03*
X015600Y001100D03*
X017600Y001100D03*
X018600Y001100D03*
X018600Y002100D03*
X017600Y002100D03*
X019600Y002100D03*
X020600Y002100D03*
X020600Y001100D03*
X019600Y001100D03*
X026600Y009100D03*
X026600Y010100D03*
X026600Y011100D03*
X026600Y012100D03*
X026600Y013100D03*
X027600Y013100D03*
X027600Y012100D03*
X027600Y011100D03*
X027600Y010100D03*
X027600Y009100D03*
D14*
X009824Y025047D03*
X004824Y025047D03*
D15*
X014600Y013100D03*
X014600Y011600D03*
X014600Y011600D03*
X019100Y011002D03*
X019850Y011350D03*
X021850Y008100D03*
X019850Y006850D03*
X019100Y007100D03*
X024850Y010663D03*
X025350Y010100D03*
X024850Y012600D03*
X009850Y009100D03*
X009850Y009100D03*
X008100Y007850D03*
X007600Y009850D03*
X008850Y011600D03*
D16*
X007600Y001600D02*
X012100Y001600D01*
X012600Y001100D01*
X012600Y002100D02*
X011850Y002850D01*
X008100Y002850D01*
X008100Y007850D01*
X009850Y009100D02*
X008850Y010100D01*
X008850Y011600D01*
X007600Y009850D02*
X007600Y001600D01*
X015100Y001600D02*
X015600Y001100D01*
X015100Y001600D02*
X015100Y026600D01*
X024100Y026600D01*
X024100Y024100D01*
X023600Y024600D02*
X023600Y026100D01*
X022600Y026100D02*
X022600Y024600D01*
X022100Y024100D01*
X021600Y024600D02*
X021600Y026100D01*
X020600Y026100D02*
X020600Y021600D01*
X020600Y015100D01*
X020600Y009100D01*
X026600Y009100D01*
X027600Y009100D02*
X027600Y009600D01*
X025100Y009600D01*
X022600Y012100D01*
X022600Y020600D01*
X022100Y021100D01*
X023100Y021100D02*
X025600Y018600D01*
X025600Y012100D01*
X026600Y012100D01*
X027100Y011600D02*
X026600Y011100D01*
X027100Y011600D02*
X027100Y018100D01*
X024100Y021100D01*
X025100Y021100D02*
X028100Y018100D01*
X028100Y012600D01*
X027600Y012100D01*
X025600Y012100D02*
X025350Y012100D01*
X025350Y010100D01*
X024850Y010663D02*
X024850Y012600D01*
X027600Y010100D02*
X028100Y009600D01*
X028100Y008100D01*
X021850Y008100D01*
X019850Y006850D02*
X019850Y011350D01*
X019100Y011002D02*
X019100Y007100D01*
X016100Y010600D02*
X020600Y015100D01*
X015600Y018600D02*
X015600Y002100D01*
X014600Y011600D02*
X014600Y013100D01*
X015600Y018600D02*
X019600Y022600D01*
X020600Y021600D02*
X021100Y021100D01*
X021100Y024100D02*
X021600Y024600D01*
X023100Y024100D02*
X023600Y024600D01*
D17*
X019600Y022600D03*
X016100Y010600D03*
M02*
