%
M48
M72
T01C0.0197
T02C0.0240
T03C0.0276
T04C0.0320
T05C0.0400
T06C0.0787
T07C0.0929
%
T01
X8100Y7850
X9850Y9100
X9850Y9100
X7600Y9850
X8850Y11600
X14600Y11600
X14600Y11600
X14600Y13100
X19100Y11002
X19850Y11350
X21850Y8100
X19850Y6850
X19100Y7100
X24850Y10663
X25350Y10100
X24850Y12600
T02
X16100Y10600
X19600Y22600
T03
X21100Y19100
X23100Y19100
T04
X23100Y21100
X22100Y21100
X21100Y21100
X20100Y21100
X19100Y21100
X19100Y24100
X20100Y24100
X21100Y24100
X22100Y24100
X23100Y24100
X24100Y24100
X25100Y24100
X25100Y21100
X24100Y21100
T05
X1100Y7600
X1100Y8600
X8600Y2100
X8600Y1100
X9600Y1100
X10600Y1100
X10600Y2100
X9600Y2100
X11600Y2100
X12600Y2100
X12600Y1100
X11600Y1100
X13600Y1100
X14600Y1100
X14600Y2100
X13600Y2100
X15600Y2100
X16600Y2100
X16600Y1100
X15600Y1100
X17600Y1100
X18600Y1100
X18600Y2100
X17600Y2100
X19600Y2100
X20600Y2100
X20600Y1100
X19600Y1100
X26600Y9100
X26600Y10100
X26600Y11100
X26600Y12100
X26600Y13100
X27600Y13100
X27600Y12100
X27600Y11100
X27600Y10100
X27600Y9100
X23600Y26100
X22600Y26100
X21600Y26100
X20600Y26100
X19600Y26100
T06
X9824Y25047
X4824Y25047
T07
X3002Y14350
X24498Y14350
M30
