G75*
G70*
%OFA0B0*%
%FSLAX24Y24*%
%IPPOS*%
%LPD*%
%AMOC8*
5,1,8,0,0,1.08239X$1,22.5*
%
%ADD10R,0.0118X0.0591*%
%ADD11R,0.0591X0.0118*%
%ADD12R,0.0433X0.0433*%
%ADD13R,0.0709X0.0630*%
%ADD14R,0.0433X0.0394*%
%ADD15R,0.0780X0.0210*%
%ADD16R,0.0598X0.0642*%
%ADD17R,0.1181X0.0630*%
%ADD18R,0.2470X0.2280*%
%ADD19R,0.1063X0.0236*%
%ADD20R,0.0787X0.0472*%
%ADD21R,0.0276X0.0354*%
%ADD22R,0.0433X0.0433*%
%ADD23R,0.0630X0.0709*%
%ADD24R,0.0138X0.0335*%
%ADD25R,0.0315X0.0138*%
%ADD26R,0.1457X0.0591*%
%ADD27R,0.1654X0.0433*%
%ADD28R,0.0354X0.0276*%
%ADD29R,0.0256X0.0886*%
%ADD30R,0.0610X0.0236*%
%ADD31R,0.0866X0.0236*%
%ADD32R,0.5000X0.4150*%
%ADD33R,0.0236X0.0256*%
%ADD34R,0.0642X0.0598*%
%ADD35R,0.0790X0.0590*%
%ADD36R,0.0790X0.1500*%
%ADD37R,0.0531X0.0236*%
%ADD38R,0.0394X0.0433*%
%ADD39R,0.0256X0.0236*%
%ADD40R,0.0579X0.0500*%
%ADD41R,0.0236X0.0866*%
%ADD42R,0.0709X0.0256*%
D10*
X026477Y014459D03*
X026674Y014459D03*
X026870Y014459D03*
X027067Y014459D03*
X027264Y014459D03*
X027461Y014459D03*
X027658Y014459D03*
X027855Y014459D03*
X028052Y014459D03*
X028248Y014459D03*
X028445Y014459D03*
X028642Y014459D03*
X028839Y014459D03*
X029036Y014459D03*
X029233Y014459D03*
X029430Y014459D03*
X029430Y018948D03*
X029233Y018948D03*
X029036Y018948D03*
X028839Y018948D03*
X028642Y018948D03*
X028445Y018948D03*
X028248Y018948D03*
X028052Y018948D03*
X027855Y018948D03*
X027658Y018948D03*
X027461Y018948D03*
X027264Y018948D03*
X027067Y018948D03*
X026870Y018948D03*
X026674Y018948D03*
X026477Y018948D03*
X086677Y009948D03*
X086874Y009948D03*
X087070Y009948D03*
X087267Y009948D03*
X087464Y009948D03*
X087661Y009948D03*
X087858Y009948D03*
X088055Y009948D03*
X088252Y009948D03*
X088448Y009948D03*
X088645Y009948D03*
X088842Y009948D03*
X089039Y009948D03*
X089236Y009948D03*
X089433Y009948D03*
X089630Y009948D03*
X089630Y005459D03*
X089433Y005459D03*
X089236Y005459D03*
X089039Y005459D03*
X088842Y005459D03*
X088645Y005459D03*
X088448Y005459D03*
X088252Y005459D03*
X088055Y005459D03*
X087858Y005459D03*
X087661Y005459D03*
X087464Y005459D03*
X087267Y005459D03*
X087070Y005459D03*
X086874Y005459D03*
X086677Y005459D03*
D11*
X085909Y006227D03*
X085909Y006424D03*
X085909Y006621D03*
X085909Y006818D03*
X085909Y007015D03*
X085909Y007211D03*
X085909Y007408D03*
X085909Y007605D03*
X085909Y007802D03*
X085909Y007999D03*
X085909Y008196D03*
X085909Y008393D03*
X085909Y008589D03*
X085909Y008786D03*
X085909Y008983D03*
X085909Y009180D03*
X090397Y009180D03*
X090397Y008983D03*
X090397Y008786D03*
X090397Y008589D03*
X090397Y008393D03*
X090397Y008196D03*
X090397Y007999D03*
X090397Y007802D03*
X090397Y007605D03*
X090397Y007408D03*
X090397Y007211D03*
X090397Y007015D03*
X090397Y006818D03*
X090397Y006621D03*
X090397Y006424D03*
X090397Y006227D03*
X030197Y015227D03*
X030197Y015424D03*
X030197Y015621D03*
X030197Y015818D03*
X030197Y016015D03*
X030197Y016211D03*
X030197Y016408D03*
X030197Y016605D03*
X030197Y016802D03*
X030197Y016999D03*
X030197Y017196D03*
X030197Y017393D03*
X030197Y017589D03*
X030197Y017786D03*
X030197Y017983D03*
X030197Y018180D03*
X025709Y018180D03*
X025709Y017983D03*
X025709Y017786D03*
X025709Y017589D03*
X025709Y017393D03*
X025709Y017196D03*
X025709Y016999D03*
X025709Y016802D03*
X025709Y016605D03*
X025709Y016408D03*
X025709Y016211D03*
X025709Y016015D03*
X025709Y015818D03*
X025709Y015621D03*
X025709Y015424D03*
X025709Y015227D03*
D12*
X024603Y016469D03*
X023953Y016469D03*
X023953Y017138D03*
X024603Y017138D03*
X024503Y017669D03*
X024503Y018338D03*
X023788Y018254D03*
X023119Y018254D03*
X027619Y019954D03*
X028288Y019954D03*
X028288Y020704D03*
X027619Y020704D03*
X032203Y020288D03*
X032203Y019619D03*
X031853Y017018D03*
X032553Y017018D03*
X032553Y016349D03*
X031853Y016349D03*
X035869Y016454D03*
X036538Y016454D03*
X040703Y017369D03*
X040703Y018038D03*
X040703Y018619D03*
X040703Y019288D03*
X047953Y020369D03*
X047953Y021038D03*
X048453Y023369D03*
X048453Y024038D03*
X043953Y024119D03*
X043953Y024788D03*
X043953Y026119D03*
X043953Y026788D03*
X044203Y027869D03*
X043453Y027869D03*
X043453Y028538D03*
X044203Y028538D03*
X042138Y027954D03*
X041469Y027954D03*
X053369Y025704D03*
X054038Y025704D03*
X039538Y022204D03*
X038869Y022204D03*
X028703Y024369D03*
X027953Y024369D03*
X027953Y025038D03*
X028703Y025038D03*
X027788Y023704D03*
X027119Y023704D03*
X026538Y023704D03*
X025869Y023704D03*
X024538Y023204D03*
X023869Y023204D03*
X024038Y023954D03*
X023369Y023954D03*
X022953Y025869D03*
X022203Y025869D03*
X022203Y026538D03*
X022953Y026538D03*
X047369Y016704D03*
X048038Y016704D03*
X043538Y015704D03*
X042869Y015704D03*
X042869Y014954D03*
X043538Y014954D03*
X034088Y012404D03*
X033419Y012404D03*
X028138Y012354D03*
X027469Y012354D03*
X027469Y013004D03*
X028138Y013004D03*
X020203Y013088D03*
X020203Y012419D03*
X020203Y013919D03*
X020203Y014588D03*
X011653Y013338D03*
X011653Y012669D03*
X007653Y012338D03*
X007653Y011669D03*
X022619Y007904D03*
X023288Y007904D03*
X022953Y007088D03*
X022953Y006419D03*
X020788Y005254D03*
X020119Y005254D03*
X021619Y005004D03*
X022288Y005004D03*
X023453Y002838D03*
X023453Y002169D03*
X020203Y002169D03*
X020203Y002838D03*
X016953Y002838D03*
X016953Y002169D03*
X013703Y002169D03*
X013703Y002838D03*
X005038Y005554D03*
X004369Y005554D03*
X036369Y007454D03*
X037038Y007454D03*
X040369Y004704D03*
X041038Y004704D03*
X041038Y003954D03*
X040369Y003954D03*
X040369Y003204D03*
X041038Y003204D03*
X059719Y009154D03*
X060388Y009154D03*
X054038Y011704D03*
X053369Y011704D03*
X069853Y010338D03*
X069853Y009669D03*
X069853Y005788D03*
X069853Y005119D03*
X068253Y005119D03*
X068253Y005788D03*
X073803Y005738D03*
X073803Y005069D03*
X072903Y002038D03*
X072903Y001369D03*
X069653Y001369D03*
X069653Y002038D03*
X066403Y002038D03*
X066403Y001369D03*
X076153Y001369D03*
X076153Y002038D03*
X082069Y004454D03*
X082738Y004454D03*
X089153Y004038D03*
X090153Y004038D03*
X090153Y003369D03*
X089153Y003369D03*
X093069Y005204D03*
X093738Y005204D03*
X092403Y007869D03*
X091403Y007869D03*
X091403Y008538D03*
X092403Y008538D03*
X089738Y010954D03*
X089069Y010954D03*
X087988Y010954D03*
X087319Y010954D03*
X087319Y011954D03*
X087988Y011954D03*
X084188Y012454D03*
X083519Y012454D03*
X082688Y012704D03*
X082019Y012704D03*
X084853Y013869D03*
X084853Y014538D03*
X084519Y015354D03*
X085188Y015354D03*
X078803Y016119D03*
X078803Y016788D03*
X074988Y016954D03*
X074319Y016954D03*
X089903Y023119D03*
X089903Y023788D03*
X086903Y025369D03*
X086903Y026038D03*
X084403Y027619D03*
X084403Y028288D03*
X084403Y029119D03*
X084403Y029788D03*
X054038Y018704D03*
X053369Y018704D03*
X082903Y008038D03*
X083903Y008038D03*
X083903Y007369D03*
X082903Y007369D03*
X093569Y014704D03*
X094238Y014704D03*
D13*
X090153Y019152D03*
X090153Y020255D03*
X090153Y021152D03*
X090153Y022255D03*
X085403Y027152D03*
X085403Y028255D03*
X085403Y029152D03*
X085403Y030255D03*
X045953Y028755D03*
X044953Y028755D03*
X044953Y027652D03*
X045953Y027652D03*
X022953Y017355D03*
X022953Y016252D03*
X021203Y015055D03*
X021203Y013952D03*
X021203Y013055D03*
X021203Y011952D03*
D14*
X031869Y015754D03*
X032538Y015754D03*
D15*
X041608Y016454D03*
X041608Y016954D03*
X041608Y017454D03*
X041608Y017954D03*
X041608Y018454D03*
X041608Y018954D03*
X041608Y019454D03*
X041608Y019954D03*
X041608Y020454D03*
X041608Y020954D03*
X041608Y021454D03*
X041608Y021954D03*
X045298Y021954D03*
X045298Y021454D03*
X045298Y020954D03*
X045298Y020454D03*
X045298Y019954D03*
X045298Y019454D03*
X045298Y018954D03*
X045298Y018454D03*
X045298Y017954D03*
X045298Y017454D03*
X045298Y016954D03*
X045298Y016454D03*
D16*
X046857Y015704D03*
X048550Y015704D03*
X048550Y018204D03*
X046857Y018204D03*
X046857Y024954D03*
X048550Y024954D03*
D17*
X053613Y026804D03*
X053613Y028604D03*
X053613Y021604D03*
X053613Y019804D03*
X053613Y014604D03*
X053613Y012804D03*
D18*
X051078Y013704D03*
X051078Y020704D03*
X051078Y027704D03*
D19*
X061878Y004991D03*
X061878Y004597D03*
X061878Y004204D03*
X061878Y003810D03*
X061878Y003416D03*
D20*
X063059Y002904D03*
X063059Y005503D03*
X063059Y007995D03*
X063059Y009412D03*
X094759Y011995D03*
X094759Y013412D03*
D21*
X059109Y005504D03*
X058597Y005504D03*
X058597Y005004D03*
X059109Y005004D03*
X059109Y003704D03*
X058597Y003704D03*
D22*
G36*
X042940Y002912D02*
X042635Y003217D01*
X042940Y003522D01*
X043245Y003217D01*
X042940Y002912D01*
G37*
G36*
X042440Y002412D02*
X042135Y002717D01*
X042440Y003022D01*
X042745Y002717D01*
X042440Y002412D01*
G37*
G36*
X041966Y002885D02*
X041661Y003190D01*
X041966Y003495D01*
X042271Y003190D01*
X041966Y002885D01*
G37*
G36*
X042466Y003385D02*
X042161Y003690D01*
X042466Y003995D01*
X042771Y003690D01*
X042466Y003385D01*
G37*
G36*
X042771Y007217D02*
X042466Y006912D01*
X042161Y007217D01*
X042466Y007522D01*
X042771Y007217D01*
G37*
G36*
X043245Y007690D02*
X042940Y007385D01*
X042635Y007690D01*
X042940Y007995D01*
X043245Y007690D01*
G37*
G36*
X042745Y008190D02*
X042440Y007885D01*
X042135Y008190D01*
X042440Y008495D01*
X042745Y008190D01*
G37*
G36*
X042271Y007717D02*
X041966Y007412D01*
X041661Y007717D01*
X041966Y008022D01*
X042271Y007717D01*
G37*
G36*
X075416Y005635D02*
X075111Y005940D01*
X075416Y006245D01*
X075721Y005940D01*
X075416Y005635D01*
G37*
G36*
X075890Y005162D02*
X075585Y005467D01*
X075890Y005772D01*
X076195Y005467D01*
X075890Y005162D01*
G37*
G36*
X076390Y005662D02*
X076085Y005967D01*
X076390Y006272D01*
X076695Y005967D01*
X076390Y005662D01*
G37*
G36*
X075916Y006135D02*
X075611Y006440D01*
X075916Y006745D01*
X076221Y006440D01*
X075916Y006135D01*
G37*
G36*
X076221Y010467D02*
X075916Y010162D01*
X075611Y010467D01*
X075916Y010772D01*
X076221Y010467D01*
G37*
G36*
X076695Y010940D02*
X076390Y010635D01*
X076085Y010940D01*
X076390Y011245D01*
X076695Y010940D01*
G37*
G36*
X076195Y011440D02*
X075890Y011135D01*
X075585Y011440D01*
X075890Y011745D01*
X076195Y011440D01*
G37*
G36*
X075721Y010967D02*
X075416Y010662D01*
X075111Y010967D01*
X075416Y011272D01*
X075721Y010967D01*
G37*
D23*
X068704Y011454D03*
X067602Y011454D03*
X087102Y013204D03*
X088204Y013204D03*
X037754Y008454D03*
X036652Y008454D03*
D24*
X021945Y007531D03*
X021748Y007531D03*
X021552Y007531D03*
X021355Y007531D03*
X021158Y007531D03*
X020961Y007531D03*
X020961Y005976D03*
X021158Y005976D03*
X021355Y005976D03*
X021552Y005976D03*
X021748Y005976D03*
X021945Y005976D03*
X082861Y013426D03*
X083058Y013426D03*
X083255Y013426D03*
X083452Y013426D03*
X083648Y013426D03*
X083845Y013426D03*
X083845Y014981D03*
X083648Y014981D03*
X083452Y014981D03*
X083255Y014981D03*
X083058Y014981D03*
X082861Y014981D03*
D25*
X082566Y014696D03*
X082566Y014499D03*
X082566Y014302D03*
X082566Y014105D03*
X082566Y013908D03*
X082566Y013711D03*
X084141Y013711D03*
X084141Y013908D03*
X084141Y014105D03*
X084141Y014302D03*
X084141Y014499D03*
X084141Y014696D03*
X022241Y007246D03*
X022241Y007049D03*
X022241Y006852D03*
X022241Y006655D03*
X022241Y006458D03*
X022241Y006261D03*
X020666Y006261D03*
X020666Y006458D03*
X020666Y006655D03*
X020666Y006852D03*
X020666Y007049D03*
X020666Y007246D03*
D26*
X001321Y003085D03*
X001321Y005722D03*
X001321Y007097D03*
X001321Y011310D03*
X001271Y012635D03*
X001271Y015272D03*
X001321Y016735D03*
X001321Y019372D03*
D27*
X003585Y018447D03*
X003585Y017660D03*
X003535Y014347D03*
X003535Y013560D03*
X003585Y010385D03*
X003585Y009597D03*
X003585Y008810D03*
X003585Y008022D03*
X003585Y004797D03*
X003585Y004010D03*
D28*
X020653Y008498D03*
X021478Y008648D03*
X021478Y009159D03*
X020653Y009009D03*
X034403Y016248D03*
X034403Y016759D03*
X035153Y016759D03*
X035153Y016248D03*
X078153Y016209D03*
X078153Y015698D03*
X078153Y015209D03*
X078153Y014698D03*
X082553Y016098D03*
X083403Y016098D03*
X083403Y016609D03*
X082553Y016609D03*
D29*
X027203Y025083D03*
X026703Y025083D03*
X026203Y025083D03*
X025703Y025083D03*
X025203Y025083D03*
X024703Y025083D03*
X024203Y025083D03*
X023703Y025083D03*
X023703Y028824D03*
X024203Y028824D03*
X024703Y028824D03*
X025203Y028824D03*
X025703Y028824D03*
X026203Y028824D03*
X026703Y028824D03*
X027203Y028824D03*
D30*
X036640Y020704D03*
X036640Y020204D03*
X036640Y019704D03*
X036640Y019204D03*
X036640Y018704D03*
X036640Y018204D03*
X036640Y017704D03*
X036640Y017204D03*
X038766Y017204D03*
X038766Y017704D03*
X038766Y018204D03*
X038766Y018704D03*
X038766Y019204D03*
X038766Y019704D03*
X038766Y020204D03*
X038766Y020704D03*
D31*
X010677Y013254D03*
X010677Y012754D03*
X010677Y012254D03*
X010677Y011754D03*
X008630Y011754D03*
X008630Y012254D03*
X008630Y012754D03*
X008630Y013254D03*
D32*
X034983Y025454D03*
D33*
X008153Y015196D03*
X007779Y014311D03*
X008527Y014311D03*
D34*
X006453Y014800D03*
X006453Y013107D03*
D35*
X018943Y013414D03*
X018943Y014314D03*
X018943Y012514D03*
X083393Y027814D03*
X083393Y028714D03*
X083393Y029614D03*
X087393Y021614D03*
X087393Y020714D03*
X087393Y019814D03*
D36*
X084913Y020704D03*
X080913Y028704D03*
X016463Y013404D03*
D37*
X061613Y008900D03*
X061613Y008507D03*
X093313Y012507D03*
X093313Y012900D03*
D38*
X089153Y019619D03*
X089153Y020288D03*
X089153Y021119D03*
X089153Y021788D03*
X088153Y004038D03*
X088153Y003369D03*
D39*
X088710Y027580D03*
X089596Y027954D03*
X088710Y028328D03*
D40*
X090903Y027607D03*
X090903Y029300D03*
D41*
X089153Y026227D03*
X088653Y026227D03*
X088153Y026227D03*
X087653Y026227D03*
X087653Y024180D03*
X088153Y024180D03*
X088653Y024180D03*
X089153Y024180D03*
D42*
X077256Y016204D03*
X077256Y015704D03*
X077256Y015204D03*
X077256Y014704D03*
X075051Y014704D03*
X075051Y015204D03*
X075051Y015704D03*
X075051Y016204D03*
M02*
