%
M48
M72
T01C0.0236
T02C0.0300
T03C0.0315
T04C0.0320
T05C0.0354
T06C0.0394
T07C0.0400
T08C0.0433
T09C0.0472
T10C0.0583
T11C0.0591
T12C0.0630
T13C0.0710
T14C0.1102
T15C0.1181
T16C0.1539
T17C0.1550
%
T01
X5453Y3984
X5863Y4864
X13703Y3404
X16953Y3404
X20203Y3404
X23453Y3404
X22853Y5004
X24203Y5554
X24203Y6454
X23803Y7904
X21553Y8154
X20353Y7854
X20053Y7254
X18603Y8204
X18053Y8195
X17503Y8204
X17553Y9304
X18953Y10104
X19213Y10554
X18053Y10754
X18603Y11154
X21553Y9634
X20583Y9504
X22953Y9604
X24753Y9604
X24753Y10654
X26453Y11304
X26003Y11804
X26653Y12404
X28603Y11854
X29003Y11454
X30203Y11354
X34603Y11904
X32353Y12754
X34353Y13154
X35853Y14454
X35403Y14904
X34153Y15254
X33103Y14654
X34593Y15704
X33153Y16354
X33153Y17004
X34353Y17704
X34603Y18204
X34353Y18704
X34603Y19204
X33253Y19204
X31903Y18954
X32803Y18704
X32303Y18404
X31203Y19454
X30603Y20854
X28953Y20704
X25703Y23054
X23153Y24504
X22203Y25304
X26753Y26004
X29253Y24704
X29453Y28004
X45078Y22604
X43878Y21929
X44453Y20454
X49003Y21854
X49353Y21404
X49303Y20704
X49053Y18904
X46153Y18204
X39953Y18804
X35903Y17204
X39203Y16754
X36603Y15854
X42253Y15454
X45053Y15054
X46153Y15704
X49053Y14854
X49353Y14254
X43553Y14304
X41853Y9804
X42003Y8604
X41253Y7454
X37773Y7454
X35653Y7454
X39453Y4704
X39453Y3954
X48003Y9204
X55853Y6104
X58603Y6354
X59653Y5254
X60573Y3834
X59653Y3704
X61803Y1454
X75253Y4854
X81178Y4454
X81803Y7379
X79903Y7654
X83703Y9004
X84253Y8604
X84953Y9054
X84903Y10454
X85053Y11854
X86703Y11854
X84753Y12454
X82003Y13304
X81453Y14222
X81953Y14704
X82503Y15604
X83453Y15604
X85703Y15354
X87703Y14854
X86153Y14204
X88903Y12954
X91553Y12964
X93313Y13454
X89103Y11604
X91903Y10954
X92653Y9154
X93203Y8229
X91753Y4804
X90893Y3324
X76753Y904
X59753Y8604
X69853Y10904
X73777Y11454
X75353Y12004
X77253Y13854
X78153Y14204
X73653Y14704
X79403Y16204
X79703Y16804
X73653Y16954
X88153Y18904
X91853Y21804
X91853Y22904
X88153Y22704
X89753Y26254
X89758Y26919
X86903Y26754
X80913Y27534
X87228Y29639
X52753Y25754
X49053Y25754
X46153Y24954
X40203Y22204
X35953Y20704
X28303Y17204
X28653Y16804
X29453Y16554
X29503Y15954
X28653Y15154
X30753Y14554
X30753Y13904
X22003Y17104
X23903Y17654
X15153Y14154
X13153Y14154
X11703Y14154
X9103Y14254
X14353Y12004
X13853Y11604
X10003Y11354
X9503Y11754
X13903Y9704
X8153Y9454
X20103Y5854
X52753Y18754
X76653Y9704
T02
X27903Y13604
T03
X19203Y16454
X17203Y16454
X15203Y16454
X10153Y17660
X10153Y18447
X13203Y25454
X15203Y25454
X19203Y25454
X61153Y15597
X62403Y15597
X62403Y14810
X61153Y14810
X61153Y13135
X62403Y13135
X62403Y12347
X61153Y12347
X61153Y11560
X62403Y11560
X62403Y10772
X61153Y10772
X66691Y12784
X67478Y12784
X68265Y12784
X69053Y12784
X69840Y12784
X70628Y12784
X71415Y12784
X72202Y12784
X72990Y12784
X73777Y12784
X68403Y14772
X68403Y15560
X68403Y16347
X68403Y17135
X73653Y17954
X75653Y17954
X77653Y17954
X68403Y21272
X68403Y22060
X68403Y22847
X68403Y23635
X71653Y26954
X73653Y26954
X77653Y26954
X68403Y28310
X68403Y29097
X92653Y28847
X92653Y28060
X92653Y19385
X92653Y18597
X92653Y17810
X92653Y17022
X80403Y11347
X80403Y10560
X73777Y4123
X72990Y4123
X72202Y4123
X71415Y4123
X70628Y4123
X69840Y4123
X69053Y4123
X68265Y4123
X67478Y4123
X66691Y4123
X40077Y1123
X39290Y1123
X38502Y1123
X37715Y1123
X36928Y1123
X36140Y1123
X35353Y1123
X34565Y1123
X33778Y1123
X32991Y1123
X32991Y9784
X33778Y9784
X34565Y9784
X35353Y9784
X36140Y9784
X36928Y9784
X37715Y9784
X38502Y9784
X39290Y9784
X40077Y9784
T04
X25703Y2204
X24703Y2204
X22453Y2204
X21453Y2204
X19203Y2204
X18203Y2204
X15953Y2204
X14953Y2204
X67653Y1954
X68653Y1954
X70903Y1954
X71903Y1954
X74153Y1954
X75153Y1954
X77403Y1954
X78403Y1954
T05
X60903Y5704
X39703Y22954
X38103Y22954
X47578Y27079
X46853Y27629
X48378Y27629
T06
X85173Y18354
X86153Y18354
X87133Y18354
X87133Y17054
X86153Y17054
X85173Y17054
X82953Y10454
X82953Y8854
X22953Y13054
T07
X26453Y10504
X27453Y10504
X28453Y10504
X29453Y10504
X30453Y10504
X80653Y21704
X95153Y10704
X95153Y9704
X95153Y8704
X95153Y7704
X95153Y6704
X86403Y1704
T08
X70618Y18954
X91053Y19154
X91053Y21154
X78689Y25954
X42953Y25454
X41453Y26124
X42953Y26794
X41453Y24784
X42953Y24114
X20239Y24454
X12168Y17454
X23303Y13854
T09
X22053Y13954
X22103Y11954
T10
X5691Y25689
X5691Y27319
T11
X32424Y21154
X34983Y21154
X35833Y13704
X33274Y13704
X81124Y5954
X83683Y5954
X93403Y4233
X93403Y1674
T12
X86403Y28704
T13
X58184Y19685
X59351Y18518
X57018Y20851
T14
X60153Y7204
X6153Y7204
X6153Y23204
T15
X59043Y22884
X61384Y20544
T16
X2802Y26504
T17
X34083Y25454
M30
