G75*
G70*
%OFA0B0*%
%FSLAX24Y24*%
%IPPOS*%
%LPD*%
%AMOC8*
5,1,8,0,0,1.08239X$1,22.5*
%
%ADD10R,0.0198X0.0671*%
%ADD11R,0.0671X0.0198*%
%ADD12C,0.0820*%
%ADD13R,0.0513X0.0513*%
%ADD14R,0.0789X0.0710*%
%ADD15R,0.0513X0.0474*%
%ADD16R,0.0966X0.0966*%
%ADD17R,0.0860X0.0290*%
%ADD18R,0.0678X0.0722*%
%ADD19R,0.1261X0.0710*%
%ADD20R,0.2550X0.2360*%
%ADD21C,0.1261*%
%ADD22C,0.1145*%
%ADD23R,0.1143X0.0316*%
%ADD24R,0.0867X0.0552*%
%ADD25R,0.0356X0.0434*%
%ADD26C,0.0680*%
%ADD27R,0.0513X0.0513*%
%ADD28R,0.0710X0.0789*%
%ADD29R,0.0218X0.0415*%
%ADD30R,0.0395X0.0218*%
%ADD31R,0.1537X0.0671*%
%ADD32R,0.1734X0.0513*%
%ADD33R,0.0434X0.0356*%
%ADD34C,0.0595*%
%ADD35C,0.0730*%
%ADD36C,0.0954*%
%ADD37C,0.1619*%
%ADD38R,0.0336X0.0966*%
%ADD39R,0.0690X0.0316*%
%ADD40R,0.0946X0.0316*%
%ADD41R,0.0730X0.0730*%
%ADD42C,0.2030*%
%ADD43R,0.5080X0.4230*%
%ADD44R,0.0316X0.0336*%
%ADD45R,0.0722X0.0678*%
%ADD46R,0.0870X0.0670*%
%ADD47R,0.0870X0.1580*%
%ADD48R,0.0611X0.0316*%
%ADD49C,0.0580*%
%ADD50C,0.2180*%
%ADD51R,0.0474X0.0513*%
%ADD52R,0.0336X0.0316*%
%ADD53R,0.0659X0.0580*%
%ADD54R,0.0674X0.0674*%
%ADD55R,0.0316X0.0946*%
%ADD56R,0.0789X0.0336*%
%ADD57C,0.0476*%
%ADD58C,0.0611*%
%ADD59C,0.0789*%
%ADD60C,0.0671*%
%ADD61C,0.1025*%
%ADD62R,0.0476X0.0476*%
D10*
X026477Y014459D03*
X026674Y014459D03*
X026870Y014459D03*
X027067Y014459D03*
X027264Y014459D03*
X027461Y014459D03*
X027658Y014459D03*
X027855Y014459D03*
X028052Y014459D03*
X028248Y014459D03*
X028445Y014459D03*
X028642Y014459D03*
X028839Y014459D03*
X029036Y014459D03*
X029233Y014459D03*
X029430Y014459D03*
X029430Y018948D03*
X029233Y018948D03*
X029036Y018948D03*
X028839Y018948D03*
X028642Y018948D03*
X028445Y018948D03*
X028248Y018948D03*
X028052Y018948D03*
X027855Y018948D03*
X027658Y018948D03*
X027461Y018948D03*
X027264Y018948D03*
X027067Y018948D03*
X026870Y018948D03*
X026674Y018948D03*
X026477Y018948D03*
X086677Y009948D03*
X086874Y009948D03*
X087070Y009948D03*
X087267Y009948D03*
X087464Y009948D03*
X087661Y009948D03*
X087858Y009948D03*
X088055Y009948D03*
X088252Y009948D03*
X088448Y009948D03*
X088645Y009948D03*
X088842Y009948D03*
X089039Y009948D03*
X089236Y009948D03*
X089433Y009948D03*
X089630Y009948D03*
X089630Y005459D03*
X089433Y005459D03*
X089236Y005459D03*
X089039Y005459D03*
X088842Y005459D03*
X088645Y005459D03*
X088448Y005459D03*
X088252Y005459D03*
X088055Y005459D03*
X087858Y005459D03*
X087661Y005459D03*
X087464Y005459D03*
X087267Y005459D03*
X087070Y005459D03*
X086874Y005459D03*
X086677Y005459D03*
D11*
X085909Y006227D03*
X085909Y006424D03*
X085909Y006621D03*
X085909Y006818D03*
X085909Y007015D03*
X085909Y007211D03*
X085909Y007408D03*
X085909Y007605D03*
X085909Y007802D03*
X085909Y007999D03*
X085909Y008196D03*
X085909Y008393D03*
X085909Y008589D03*
X085909Y008786D03*
X085909Y008983D03*
X085909Y009180D03*
X090397Y009180D03*
X090397Y008983D03*
X090397Y008786D03*
X090397Y008589D03*
X090397Y008393D03*
X090397Y008196D03*
X090397Y007999D03*
X090397Y007802D03*
X090397Y007605D03*
X090397Y007408D03*
X090397Y007211D03*
X090397Y007015D03*
X090397Y006818D03*
X090397Y006621D03*
X090397Y006424D03*
X090397Y006227D03*
X030197Y015227D03*
X030197Y015424D03*
X030197Y015621D03*
X030197Y015818D03*
X030197Y016015D03*
X030197Y016211D03*
X030197Y016408D03*
X030197Y016605D03*
X030197Y016802D03*
X030197Y016999D03*
X030197Y017196D03*
X030197Y017393D03*
X030197Y017589D03*
X030197Y017786D03*
X030197Y017983D03*
X030197Y018180D03*
X025709Y018180D03*
X025709Y017983D03*
X025709Y017786D03*
X025709Y017589D03*
X025709Y017393D03*
X025709Y017196D03*
X025709Y016999D03*
X025709Y016802D03*
X025709Y016605D03*
X025709Y016408D03*
X025709Y016211D03*
X025709Y016015D03*
X025709Y015818D03*
X025709Y015621D03*
X025709Y015424D03*
X025709Y015227D03*
D12*
X026453Y010504D03*
X027453Y010504D03*
X028453Y010504D03*
X029453Y010504D03*
X030453Y010504D03*
X025703Y002204D03*
X024703Y002204D03*
X022453Y002204D03*
X021453Y002204D03*
X019203Y002204D03*
X018203Y002204D03*
X015953Y002204D03*
X014953Y002204D03*
X067653Y001954D03*
X068653Y001954D03*
X070903Y001954D03*
X071903Y001954D03*
X074153Y001954D03*
X075153Y001954D03*
X077403Y001954D03*
X078403Y001954D03*
X086403Y001704D03*
X095153Y006704D03*
X095153Y007704D03*
X095153Y008704D03*
X095153Y009704D03*
X095153Y010704D03*
X080653Y021704D03*
D13*
X089903Y023119D03*
X089903Y023788D03*
X086903Y025369D03*
X086903Y026038D03*
X084403Y027619D03*
X084403Y028288D03*
X084403Y029119D03*
X084403Y029788D03*
X054038Y025704D03*
X053369Y025704D03*
X048453Y024038D03*
X048453Y023369D03*
X043953Y024119D03*
X043953Y024788D03*
X043953Y026119D03*
X043953Y026788D03*
X044203Y027869D03*
X043453Y027869D03*
X043453Y028538D03*
X044203Y028538D03*
X042138Y027954D03*
X041469Y027954D03*
X028703Y025038D03*
X027953Y025038D03*
X027953Y024369D03*
X028703Y024369D03*
X027788Y023704D03*
X027119Y023704D03*
X026538Y023704D03*
X025869Y023704D03*
X024538Y023204D03*
X023869Y023204D03*
X024038Y023954D03*
X023369Y023954D03*
X022953Y025869D03*
X022203Y025869D03*
X022203Y026538D03*
X022953Y026538D03*
X038869Y022204D03*
X039538Y022204D03*
X032203Y020288D03*
X032203Y019619D03*
X028288Y019954D03*
X027619Y019954D03*
X027619Y020704D03*
X028288Y020704D03*
X024503Y018338D03*
X023788Y018254D03*
X023119Y018254D03*
X024503Y017669D03*
X024603Y017138D03*
X023953Y017138D03*
X023953Y016469D03*
X024603Y016469D03*
X020203Y014588D03*
X020203Y013919D03*
X020203Y013088D03*
X020203Y012419D03*
X027469Y012354D03*
X028138Y012354D03*
X028138Y013004D03*
X027469Y013004D03*
X033419Y012404D03*
X034088Y012404D03*
X042869Y014954D03*
X043538Y014954D03*
X043538Y015704D03*
X042869Y015704D03*
X040703Y017369D03*
X040703Y018038D03*
X040703Y018619D03*
X040703Y019288D03*
X047953Y020369D03*
X047953Y021038D03*
X053369Y018704D03*
X054038Y018704D03*
X048038Y016704D03*
X047369Y016704D03*
X036538Y016454D03*
X035869Y016454D03*
X032553Y016349D03*
X031853Y016349D03*
X031853Y017018D03*
X032553Y017018D03*
X011653Y013338D03*
X011653Y012669D03*
X007653Y012338D03*
X007653Y011669D03*
X022619Y007904D03*
X023288Y007904D03*
X022953Y007088D03*
X022953Y006419D03*
X020788Y005254D03*
X020119Y005254D03*
X021619Y005004D03*
X022288Y005004D03*
X023453Y002838D03*
X023453Y002169D03*
X020203Y002169D03*
X020203Y002838D03*
X016953Y002838D03*
X016953Y002169D03*
X013703Y002169D03*
X013703Y002838D03*
X005038Y005554D03*
X004369Y005554D03*
X036369Y007454D03*
X037038Y007454D03*
X040369Y004704D03*
X041038Y004704D03*
X041038Y003954D03*
X040369Y003954D03*
X040369Y003204D03*
X041038Y003204D03*
X059719Y009154D03*
X060388Y009154D03*
X054038Y011704D03*
X053369Y011704D03*
X069853Y010338D03*
X069853Y009669D03*
X069853Y005788D03*
X069853Y005119D03*
X068253Y005119D03*
X068253Y005788D03*
X073803Y005738D03*
X073803Y005069D03*
X072903Y002038D03*
X072903Y001369D03*
X069653Y001369D03*
X069653Y002038D03*
X066403Y002038D03*
X066403Y001369D03*
X076153Y001369D03*
X076153Y002038D03*
X082069Y004454D03*
X082738Y004454D03*
X089153Y004038D03*
X090153Y004038D03*
X090153Y003369D03*
X089153Y003369D03*
X093069Y005204D03*
X093738Y005204D03*
X092403Y007869D03*
X091403Y007869D03*
X091403Y008538D03*
X092403Y008538D03*
X089738Y010954D03*
X089069Y010954D03*
X087988Y010954D03*
X087319Y010954D03*
X087319Y011954D03*
X087988Y011954D03*
X084188Y012454D03*
X083519Y012454D03*
X082688Y012704D03*
X082019Y012704D03*
X084853Y013869D03*
X084853Y014538D03*
X084519Y015354D03*
X085188Y015354D03*
X078803Y016119D03*
X078803Y016788D03*
X074988Y016954D03*
X074319Y016954D03*
X093569Y014704D03*
X094238Y014704D03*
X083903Y008038D03*
X082903Y008038D03*
X082903Y007369D03*
X083903Y007369D03*
D14*
X090153Y019152D03*
X090153Y020255D03*
X090153Y021152D03*
X090153Y022255D03*
X085403Y027152D03*
X085403Y028255D03*
X085403Y029152D03*
X085403Y030255D03*
X045953Y028755D03*
X044953Y028755D03*
X044953Y027652D03*
X045953Y027652D03*
X022953Y017355D03*
X022953Y016252D03*
X021203Y015055D03*
X021203Y013952D03*
X021203Y013055D03*
X021203Y011952D03*
D15*
X031869Y015754D03*
X032538Y015754D03*
D16*
X033274Y013704D03*
X035833Y013704D03*
X034983Y021154D03*
X032424Y021154D03*
X081124Y005954D03*
X083683Y005954D03*
X093403Y004233D03*
X093403Y001674D03*
D17*
X045298Y016454D03*
X045298Y016954D03*
X045298Y017454D03*
X045298Y017954D03*
X045298Y018454D03*
X045298Y018954D03*
X045298Y019454D03*
X045298Y019954D03*
X045298Y020454D03*
X045298Y020954D03*
X045298Y021454D03*
X045298Y021954D03*
X041608Y021954D03*
X041608Y021454D03*
X041608Y020954D03*
X041608Y020454D03*
X041608Y019954D03*
X041608Y019454D03*
X041608Y018954D03*
X041608Y018454D03*
X041608Y017954D03*
X041608Y017454D03*
X041608Y016954D03*
X041608Y016454D03*
D18*
X046857Y015704D03*
X048550Y015704D03*
X048550Y018204D03*
X046857Y018204D03*
X046857Y024954D03*
X048550Y024954D03*
D19*
X053613Y026804D03*
X053613Y028604D03*
X053613Y021604D03*
X053613Y019804D03*
X053613Y014604D03*
X053613Y012804D03*
D20*
X051078Y013704D03*
X051078Y020704D03*
X051078Y027704D03*
D21*
X059043Y022884D03*
X061384Y020544D03*
D22*
X058184Y019685D03*
X059351Y018518D03*
X057018Y020851D03*
D23*
X061878Y004991D03*
X061878Y004597D03*
X061878Y004204D03*
X061878Y003810D03*
X061878Y003416D03*
D24*
X063059Y002904D03*
X063059Y005503D03*
X063059Y007995D03*
X063059Y009412D03*
X094759Y011995D03*
X094759Y013412D03*
D25*
X059109Y005504D03*
X058597Y005504D03*
X058597Y005004D03*
X059109Y005004D03*
X059109Y003704D03*
X058597Y003704D03*
D26*
X066691Y004123D03*
X067478Y004123D03*
X068265Y004123D03*
X069053Y004123D03*
X069840Y004123D03*
X070628Y004123D03*
X071415Y004123D03*
X072202Y004123D03*
X072990Y004123D03*
X073777Y004123D03*
X073777Y012784D03*
X072990Y012784D03*
X072202Y012784D03*
X071415Y012784D03*
X070628Y012784D03*
X069840Y012784D03*
X069053Y012784D03*
X068265Y012784D03*
X067478Y012784D03*
X066691Y012784D03*
X040077Y009784D03*
X039290Y009784D03*
X038502Y009784D03*
X037715Y009784D03*
X036928Y009784D03*
X036140Y009784D03*
X035353Y009784D03*
X034565Y009784D03*
X033778Y009784D03*
X032991Y009784D03*
X032991Y001123D03*
X033778Y001123D03*
X034565Y001123D03*
X035353Y001123D03*
X036140Y001123D03*
X036928Y001123D03*
X037715Y001123D03*
X038502Y001123D03*
X039290Y001123D03*
X040077Y001123D03*
D27*
G36*
X042440Y002355D02*
X042078Y002717D01*
X042440Y003079D01*
X042802Y002717D01*
X042440Y002355D01*
G37*
G36*
X041966Y002828D02*
X041604Y003190D01*
X041966Y003552D01*
X042328Y003190D01*
X041966Y002828D01*
G37*
G36*
X042940Y002855D02*
X042578Y003217D01*
X042940Y003579D01*
X043302Y003217D01*
X042940Y002855D01*
G37*
G36*
X042466Y003328D02*
X042104Y003690D01*
X042466Y004052D01*
X042828Y003690D01*
X042466Y003328D01*
G37*
G36*
X042828Y007217D02*
X042466Y006855D01*
X042104Y007217D01*
X042466Y007579D01*
X042828Y007217D01*
G37*
G36*
X043302Y007690D02*
X042940Y007328D01*
X042578Y007690D01*
X042940Y008052D01*
X043302Y007690D01*
G37*
G36*
X042802Y008190D02*
X042440Y007828D01*
X042078Y008190D01*
X042440Y008552D01*
X042802Y008190D01*
G37*
G36*
X042328Y007717D02*
X041966Y007355D01*
X041604Y007717D01*
X041966Y008079D01*
X042328Y007717D01*
G37*
G36*
X075416Y005578D02*
X075054Y005940D01*
X075416Y006302D01*
X075778Y005940D01*
X075416Y005578D01*
G37*
G36*
X075890Y005105D02*
X075528Y005467D01*
X075890Y005829D01*
X076252Y005467D01*
X075890Y005105D01*
G37*
G36*
X076390Y005605D02*
X076028Y005967D01*
X076390Y006329D01*
X076752Y005967D01*
X076390Y005605D01*
G37*
G36*
X075916Y006078D02*
X075554Y006440D01*
X075916Y006802D01*
X076278Y006440D01*
X075916Y006078D01*
G37*
G36*
X076278Y010467D02*
X075916Y010105D01*
X075554Y010467D01*
X075916Y010829D01*
X076278Y010467D01*
G37*
G36*
X076752Y010940D02*
X076390Y010578D01*
X076028Y010940D01*
X076390Y011302D01*
X076752Y010940D01*
G37*
G36*
X076252Y011440D02*
X075890Y011078D01*
X075528Y011440D01*
X075890Y011802D01*
X076252Y011440D01*
G37*
G36*
X075778Y010967D02*
X075416Y010605D01*
X075054Y010967D01*
X075416Y011329D01*
X075778Y010967D01*
G37*
D28*
X068704Y011454D03*
X067602Y011454D03*
X087102Y013204D03*
X088204Y013204D03*
X037754Y008454D03*
X036652Y008454D03*
D29*
X021945Y007531D03*
X021748Y007531D03*
X021552Y007531D03*
X021355Y007531D03*
X021158Y007531D03*
X020961Y007531D03*
X020961Y005976D03*
X021158Y005976D03*
X021355Y005976D03*
X021552Y005976D03*
X021748Y005976D03*
X021945Y005976D03*
X082861Y013426D03*
X083058Y013426D03*
X083255Y013426D03*
X083452Y013426D03*
X083648Y013426D03*
X083845Y013426D03*
X083845Y014981D03*
X083648Y014981D03*
X083452Y014981D03*
X083255Y014981D03*
X083058Y014981D03*
X082861Y014981D03*
D30*
X082566Y014696D03*
X082566Y014499D03*
X082566Y014302D03*
X082566Y014105D03*
X082566Y013908D03*
X082566Y013711D03*
X084141Y013711D03*
X084141Y013908D03*
X084141Y014105D03*
X084141Y014302D03*
X084141Y014499D03*
X084141Y014696D03*
X022241Y007246D03*
X022241Y007049D03*
X022241Y006852D03*
X022241Y006655D03*
X022241Y006458D03*
X022241Y006261D03*
X020666Y006261D03*
X020666Y006458D03*
X020666Y006655D03*
X020666Y006852D03*
X020666Y007049D03*
X020666Y007246D03*
D31*
X001321Y003085D03*
X001321Y005722D03*
X001321Y007097D03*
X001321Y011310D03*
X001271Y012635D03*
X001271Y015272D03*
X001321Y016735D03*
X001321Y019372D03*
D32*
X003585Y018447D03*
X003585Y017660D03*
X003535Y014347D03*
X003535Y013560D03*
X003585Y010385D03*
X003585Y009597D03*
X003585Y008810D03*
X003585Y008022D03*
X003585Y004797D03*
X003585Y004010D03*
D33*
X020653Y008498D03*
X021478Y008648D03*
X021478Y009159D03*
X020653Y009009D03*
X034403Y016248D03*
X034403Y016759D03*
X035153Y016759D03*
X035153Y016248D03*
X078153Y016209D03*
X078153Y015698D03*
X078153Y015209D03*
X078153Y014698D03*
X082553Y016098D03*
X083403Y016098D03*
X083403Y016609D03*
X082553Y016609D03*
D34*
X077653Y017954D03*
X075653Y017954D03*
X073653Y017954D03*
X068403Y017135D03*
X068403Y016347D03*
X068403Y015560D03*
X068403Y014772D03*
X062403Y014810D03*
X061153Y014810D03*
X061153Y015597D03*
X062403Y015597D03*
X062403Y013135D03*
X061153Y013135D03*
X061153Y012347D03*
X062403Y012347D03*
X062403Y011560D03*
X061153Y011560D03*
X061153Y010772D03*
X062403Y010772D03*
X080403Y010560D03*
X080403Y011347D03*
X092653Y017022D03*
X092653Y017810D03*
X092653Y018597D03*
X092653Y019385D03*
X077653Y026954D03*
X073653Y026954D03*
X071653Y026954D03*
X068403Y028310D03*
X068403Y029097D03*
X068403Y023635D03*
X068403Y022847D03*
X068403Y022060D03*
X068403Y021272D03*
X092653Y028060D03*
X092653Y028847D03*
X019203Y025454D03*
X015203Y025454D03*
X013203Y025454D03*
X010153Y018447D03*
X010153Y017660D03*
X015203Y016454D03*
X017203Y016454D03*
X019203Y016454D03*
D35*
X012168Y017454D03*
X023303Y013854D03*
X020239Y024454D03*
X070618Y018954D03*
X091053Y019154D03*
X091053Y021154D03*
X078689Y025954D03*
D36*
X005691Y025689D03*
X005691Y027319D03*
D37*
X002802Y026504D03*
D38*
X023703Y025083D03*
X024203Y025083D03*
X024703Y025083D03*
X025203Y025083D03*
X025703Y025083D03*
X026203Y025083D03*
X026703Y025083D03*
X027203Y025083D03*
X027203Y028824D03*
X026703Y028824D03*
X026203Y028824D03*
X025703Y028824D03*
X025203Y028824D03*
X024703Y028824D03*
X024203Y028824D03*
X023703Y028824D03*
D39*
X036640Y020704D03*
X036640Y020204D03*
X036640Y019704D03*
X036640Y019204D03*
X036640Y018704D03*
X036640Y018204D03*
X036640Y017704D03*
X036640Y017204D03*
X038766Y017204D03*
X038766Y017704D03*
X038766Y018204D03*
X038766Y018704D03*
X038766Y019204D03*
X038766Y019704D03*
X038766Y020204D03*
X038766Y020704D03*
D40*
X010677Y013254D03*
X010677Y012754D03*
X010677Y012254D03*
X010677Y011754D03*
X008630Y011754D03*
X008630Y012254D03*
X008630Y012754D03*
X008630Y013254D03*
D41*
X041453Y024784D03*
X042953Y024114D03*
X042953Y025454D03*
X041453Y026124D03*
X042953Y026794D03*
D42*
X034083Y025454D03*
D43*
X034983Y025454D03*
D44*
X008153Y015196D03*
X007779Y014311D03*
X008527Y014311D03*
D45*
X006453Y014800D03*
X006453Y013107D03*
D46*
X018943Y013414D03*
X018943Y014314D03*
X018943Y012514D03*
X083393Y027814D03*
X083393Y028714D03*
X083393Y029614D03*
X087393Y021614D03*
X087393Y020714D03*
X087393Y019814D03*
D47*
X084913Y020704D03*
X080913Y028704D03*
X016463Y013404D03*
D48*
X061613Y008900D03*
X061613Y008507D03*
X093313Y012507D03*
X093313Y012900D03*
D49*
X027903Y013604D03*
D50*
X006153Y007204D03*
X006153Y023204D03*
X060153Y007204D03*
D51*
X088153Y004038D03*
X088153Y003369D03*
X089153Y019619D03*
X089153Y020288D03*
X089153Y021119D03*
X089153Y021788D03*
D52*
X088710Y027580D03*
X089596Y027954D03*
X088710Y028328D03*
D53*
X090903Y027607D03*
X090903Y029300D03*
D54*
X087133Y018354D03*
X086153Y018354D03*
X085173Y018354D03*
X085173Y017054D03*
X086153Y017054D03*
X087133Y017054D03*
D55*
X087653Y024180D03*
X088153Y024180D03*
X088653Y024180D03*
X089153Y024180D03*
X089153Y026227D03*
X088653Y026227D03*
X088153Y026227D03*
X087653Y026227D03*
D56*
X077256Y016204D03*
X077256Y015704D03*
X077256Y015204D03*
X077256Y014704D03*
X075051Y014704D03*
X075051Y015204D03*
X075051Y015704D03*
X075051Y016204D03*
D57*
X073653Y016954D03*
X079403Y016204D03*
X079703Y016804D03*
X082503Y015604D03*
X083453Y015604D03*
X085703Y015354D03*
X087703Y014854D03*
X086153Y014204D03*
X088903Y012954D03*
X091553Y012964D03*
X089103Y011604D03*
X086703Y011854D03*
X085053Y011854D03*
X084753Y012454D03*
X082003Y013304D03*
X081453Y014222D03*
X081953Y014704D03*
X078153Y014204D03*
X077253Y013854D03*
X073653Y014704D03*
X075353Y012004D03*
X073777Y011454D03*
X069853Y010904D03*
X076653Y009704D03*
X079903Y007654D03*
X081803Y007379D03*
X084253Y008604D03*
X083703Y009004D03*
X084953Y009054D03*
X084903Y010454D03*
X091903Y010954D03*
X092653Y009154D03*
X093203Y008229D03*
X091753Y004804D03*
X090893Y003324D03*
X081178Y004454D03*
X075253Y004854D03*
X076753Y000904D03*
X061803Y001454D03*
X059653Y003704D03*
X060573Y003834D03*
X059653Y005254D03*
X058603Y006354D03*
X055853Y006104D03*
X059753Y008604D03*
X048003Y009204D03*
X042003Y008604D03*
X041853Y009804D03*
X041253Y007454D03*
X037773Y007454D03*
X035653Y007454D03*
X039453Y004704D03*
X039453Y003954D03*
X024203Y005554D03*
X022853Y005004D03*
X020103Y005854D03*
X020053Y007254D03*
X020353Y007854D03*
X021553Y008154D03*
X023803Y007904D03*
X024203Y006454D03*
X018603Y008204D03*
X018053Y008195D03*
X017503Y008204D03*
X017553Y009304D03*
X018953Y010104D03*
X019213Y010554D03*
X018053Y010754D03*
X018603Y011154D03*
X021553Y009634D03*
X020583Y009504D03*
X022953Y009604D03*
X024753Y009604D03*
X024753Y010654D03*
X026453Y011304D03*
X026003Y011804D03*
X026653Y012404D03*
X028603Y011854D03*
X029003Y011454D03*
X030203Y011354D03*
X034603Y011904D03*
X032353Y012754D03*
X034353Y013154D03*
X035853Y014454D03*
X035403Y014904D03*
X034153Y015254D03*
X033103Y014654D03*
X034593Y015704D03*
X033153Y016354D03*
X033153Y017004D03*
X034353Y017704D03*
X034603Y018204D03*
X034353Y018704D03*
X034603Y019204D03*
X033253Y019204D03*
X031903Y018954D03*
X032803Y018704D03*
X032303Y018404D03*
X031203Y019454D03*
X030603Y020854D03*
X028953Y020704D03*
X025703Y023054D03*
X023153Y024504D03*
X022203Y025304D03*
X026753Y026004D03*
X029253Y024704D03*
X029453Y028004D03*
X045078Y022604D03*
X043878Y021929D03*
X044453Y020454D03*
X049003Y021854D03*
X049353Y021404D03*
X049303Y020704D03*
X049053Y018904D03*
X046153Y018204D03*
X039953Y018804D03*
X035903Y017204D03*
X039203Y016754D03*
X036603Y015854D03*
X042253Y015454D03*
X045053Y015054D03*
X046153Y015704D03*
X049053Y014854D03*
X049353Y014254D03*
X043553Y014304D03*
X052753Y018754D03*
X040203Y022204D03*
X035953Y020704D03*
X028303Y017204D03*
X028653Y016804D03*
X029453Y016554D03*
X029503Y015954D03*
X028653Y015154D03*
X030753Y014554D03*
X030753Y013904D03*
X022003Y017104D03*
X023903Y017654D03*
X015153Y014154D03*
X013153Y014154D03*
X011703Y014154D03*
X009103Y014254D03*
X014353Y012004D03*
X013853Y011604D03*
X010003Y011354D03*
X009503Y011754D03*
X013903Y009704D03*
X008153Y009454D03*
X005863Y004864D03*
X005453Y003984D03*
X013703Y003404D03*
X016953Y003404D03*
X020203Y003404D03*
X023453Y003404D03*
X088153Y018904D03*
X091853Y021804D03*
X091853Y022904D03*
X088153Y022704D03*
X089753Y026254D03*
X089758Y026919D03*
X086903Y026754D03*
X080913Y027534D03*
X087228Y029639D03*
X052753Y025754D03*
X049053Y025754D03*
X046153Y024954D03*
D58*
X039703Y022954D03*
X038103Y022954D03*
X047578Y027079D03*
X046853Y027629D03*
X048378Y027629D03*
X060903Y005704D03*
D59*
X022103Y011954D03*
X022053Y013954D03*
D60*
X022953Y013054D03*
X082953Y010454D03*
X082953Y008854D03*
D61*
X086403Y028704D03*
D62*
X093313Y013454D03*
M02*
