G75*
G70*
%OFA0B0*%
%FSLAX24Y24*%
%IPPOS*%
%LPD*%
%AMOC8*
5,1,8,0,0,1.08239X$1,22.5*
%
%ADD10C,0.0820*%
%ADD11R,0.0966X0.0966*%
%ADD12R,0.0513X0.0513*%
%ADD13R,0.0678X0.0722*%
%ADD14R,0.1261X0.0710*%
%ADD15R,0.2550X0.2360*%
%ADD16C,0.1261*%
%ADD17C,0.1145*%
%ADD18C,0.0680*%
%ADD19C,0.0595*%
%ADD20C,0.0730*%
%ADD21C,0.0954*%
%ADD22C,0.1619*%
%ADD23R,0.0730X0.0730*%
%ADD24C,0.2030*%
%ADD25R,0.1734X0.0513*%
%ADD26R,0.1537X0.0671*%
%ADD27C,0.0580*%
%ADD28C,0.2180*%
%ADD29R,0.0674X0.0674*%
%ADD30C,0.0476*%
%ADD31C,0.0611*%
%ADD32C,0.0789*%
%ADD33C,0.0671*%
%ADD34C,0.1025*%
%ADD35R,0.0476X0.0476*%
D10*
X014953Y002204D03*
X015953Y002204D03*
X018203Y002204D03*
X019203Y002204D03*
X021453Y002204D03*
X022453Y002204D03*
X024703Y002204D03*
X025703Y002204D03*
X026453Y010504D03*
X027453Y010504D03*
X028453Y010504D03*
X029453Y010504D03*
X030453Y010504D03*
X067653Y001954D03*
X068653Y001954D03*
X070903Y001954D03*
X071903Y001954D03*
X074153Y001954D03*
X075153Y001954D03*
X077403Y001954D03*
X078403Y001954D03*
X086403Y001704D03*
X095153Y006704D03*
X095153Y007704D03*
X095153Y008704D03*
X095153Y009704D03*
X095153Y010704D03*
X080653Y021704D03*
D11*
X035833Y013704D03*
X033274Y013704D03*
X032424Y021154D03*
X034983Y021154D03*
X081124Y005954D03*
X083683Y005954D03*
X093403Y004233D03*
X093403Y001674D03*
D12*
X049788Y015454D03*
X049119Y015454D03*
X049203Y016869D03*
X049203Y017538D03*
X049119Y022454D03*
X049788Y022454D03*
X049203Y023869D03*
X049203Y024538D03*
X049203Y010538D03*
X049203Y009869D03*
X049188Y009204D03*
X048519Y009204D03*
X005053Y005538D03*
X005053Y004869D03*
D13*
X048357Y012704D03*
X050050Y012704D03*
X052107Y012704D03*
X053800Y012704D03*
X053800Y019704D03*
X052107Y019704D03*
X050050Y019704D03*
X048357Y019704D03*
X048357Y026704D03*
X050050Y026704D03*
X052107Y026704D03*
X053800Y026704D03*
D14*
X050293Y025104D03*
X050293Y023304D03*
X050293Y018104D03*
X050293Y016304D03*
X050293Y011104D03*
X050293Y009304D03*
D15*
X052828Y010204D03*
X052828Y017204D03*
X052828Y024204D03*
D16*
X059043Y022884D03*
X061384Y020544D03*
D17*
X058184Y019685D03*
X059351Y018518D03*
X057018Y020851D03*
D18*
X066691Y012784D03*
X067478Y012784D03*
X068265Y012784D03*
X069053Y012784D03*
X069840Y012784D03*
X070628Y012784D03*
X071415Y012784D03*
X072202Y012784D03*
X072990Y012784D03*
X073777Y012784D03*
X073777Y004123D03*
X072990Y004123D03*
X072202Y004123D03*
X071415Y004123D03*
X070628Y004123D03*
X069840Y004123D03*
X069053Y004123D03*
X068265Y004123D03*
X067478Y004123D03*
X066691Y004123D03*
X040077Y001123D03*
X039290Y001123D03*
X038502Y001123D03*
X037715Y001123D03*
X036928Y001123D03*
X036140Y001123D03*
X035353Y001123D03*
X034565Y001123D03*
X033778Y001123D03*
X032991Y001123D03*
X032991Y009784D03*
X033778Y009784D03*
X034565Y009784D03*
X035353Y009784D03*
X036140Y009784D03*
X036928Y009784D03*
X037715Y009784D03*
X038502Y009784D03*
X039290Y009784D03*
X040077Y009784D03*
D19*
X061153Y010772D03*
X062403Y010772D03*
X062403Y011560D03*
X061153Y011560D03*
X061153Y012347D03*
X062403Y012347D03*
X062403Y013135D03*
X061153Y013135D03*
X061153Y014810D03*
X062403Y014810D03*
X062403Y015597D03*
X061153Y015597D03*
X068403Y015560D03*
X068403Y014772D03*
X068403Y016347D03*
X068403Y017135D03*
X073653Y017954D03*
X075653Y017954D03*
X077653Y017954D03*
X068403Y021272D03*
X068403Y022060D03*
X068403Y022847D03*
X068403Y023635D03*
X071653Y026954D03*
X073653Y026954D03*
X077653Y026954D03*
X068403Y028310D03*
X068403Y029097D03*
X092653Y028847D03*
X092653Y028060D03*
X092653Y019385D03*
X092653Y018597D03*
X092653Y017810D03*
X092653Y017022D03*
X080403Y011347D03*
X080403Y010560D03*
X019203Y016454D03*
X017203Y016454D03*
X015203Y016454D03*
X010153Y017660D03*
X010153Y018447D03*
X013203Y025454D03*
X015203Y025454D03*
X019203Y025454D03*
D20*
X020239Y024454D03*
X012168Y017454D03*
X023303Y013854D03*
X070618Y018954D03*
X091053Y019154D03*
X091053Y021154D03*
X078689Y025954D03*
D21*
X005691Y025689D03*
X005691Y027319D03*
D22*
X002802Y026504D03*
D23*
X041453Y026124D03*
X042953Y026794D03*
X042953Y025454D03*
X041453Y024784D03*
X042953Y024114D03*
D24*
X034083Y025454D03*
D25*
X003585Y004797D03*
X003585Y004010D03*
D26*
X001321Y003085D03*
X001321Y005722D03*
D27*
X027903Y013604D03*
D28*
X006153Y007204D03*
X006153Y023204D03*
X060153Y007204D03*
D29*
X085173Y017054D03*
X086153Y017054D03*
X087133Y017054D03*
X087133Y018354D03*
X086153Y018354D03*
X085173Y018354D03*
D30*
X088153Y018904D03*
X091853Y021804D03*
X091853Y022904D03*
X088153Y022704D03*
X089753Y026254D03*
X089758Y026919D03*
X086903Y026754D03*
X080913Y027534D03*
X087228Y029639D03*
X052753Y025754D03*
X049053Y025754D03*
X046153Y024954D03*
X045078Y022604D03*
X043878Y021929D03*
X044453Y020454D03*
X049003Y021854D03*
X049353Y021404D03*
X049303Y020704D03*
X049053Y018904D03*
X046153Y018204D03*
X039953Y018804D03*
X035903Y017204D03*
X034353Y017704D03*
X034603Y018204D03*
X034353Y018704D03*
X034603Y019204D03*
X033253Y019204D03*
X031903Y018954D03*
X032803Y018704D03*
X032303Y018404D03*
X031203Y019454D03*
X030603Y020854D03*
X028953Y020704D03*
X025703Y023054D03*
X023153Y024504D03*
X022203Y025304D03*
X026753Y026004D03*
X029253Y024704D03*
X029453Y028004D03*
X040203Y022204D03*
X035953Y020704D03*
X028303Y017204D03*
X028653Y016804D03*
X029453Y016554D03*
X029503Y015954D03*
X028653Y015154D03*
X030753Y014554D03*
X030753Y013904D03*
X032353Y012754D03*
X034353Y013154D03*
X034603Y011904D03*
X030203Y011354D03*
X029003Y011454D03*
X028603Y011854D03*
X026653Y012404D03*
X026003Y011804D03*
X026453Y011304D03*
X024753Y010654D03*
X024753Y009604D03*
X022953Y009604D03*
X021553Y009634D03*
X020583Y009504D03*
X018953Y010104D03*
X019213Y010554D03*
X018053Y010754D03*
X018603Y011154D03*
X014353Y012004D03*
X013853Y011604D03*
X010003Y011354D03*
X009503Y011754D03*
X013903Y009704D03*
X017553Y009304D03*
X017503Y008204D03*
X018053Y008195D03*
X018603Y008204D03*
X020353Y007854D03*
X021553Y008154D03*
X023803Y007904D03*
X024203Y006454D03*
X024203Y005554D03*
X022853Y005004D03*
X020103Y005854D03*
X020053Y007254D03*
X020203Y003404D03*
X016953Y003404D03*
X013703Y003404D03*
X005863Y004864D03*
X005453Y003984D03*
X008153Y009454D03*
X009103Y014254D03*
X011703Y014154D03*
X013153Y014154D03*
X015153Y014154D03*
X022003Y017104D03*
X023903Y017654D03*
X033153Y017004D03*
X033153Y016354D03*
X034593Y015704D03*
X034153Y015254D03*
X033103Y014654D03*
X035403Y014904D03*
X035853Y014454D03*
X036603Y015854D03*
X039203Y016754D03*
X042253Y015454D03*
X045053Y015054D03*
X046153Y015704D03*
X049053Y014854D03*
X049353Y014254D03*
X043553Y014304D03*
X041853Y009804D03*
X042003Y008604D03*
X041253Y007454D03*
X037773Y007454D03*
X035653Y007454D03*
X039453Y004704D03*
X039453Y003954D03*
X048003Y009204D03*
X055853Y006104D03*
X058603Y006354D03*
X059653Y005254D03*
X060573Y003834D03*
X059653Y003704D03*
X061803Y001454D03*
X075253Y004854D03*
X081178Y004454D03*
X081803Y007379D03*
X079903Y007654D03*
X083703Y009004D03*
X084253Y008604D03*
X084953Y009054D03*
X084903Y010454D03*
X085053Y011854D03*
X086703Y011854D03*
X084753Y012454D03*
X082003Y013304D03*
X081453Y014222D03*
X081953Y014704D03*
X082503Y015604D03*
X083453Y015604D03*
X085703Y015354D03*
X087703Y014854D03*
X086153Y014204D03*
X088903Y012954D03*
X091553Y012964D03*
X089103Y011604D03*
X091903Y010954D03*
X092653Y009154D03*
X093203Y008229D03*
X091753Y004804D03*
X090893Y003324D03*
X076753Y000904D03*
X059753Y008604D03*
X069853Y010904D03*
X073777Y011454D03*
X075353Y012004D03*
X077253Y013854D03*
X078153Y014204D03*
X073653Y014704D03*
X079403Y016204D03*
X079703Y016804D03*
X073653Y016954D03*
X052753Y018754D03*
X076653Y009704D03*
X023453Y003404D03*
D31*
X060903Y005704D03*
X039703Y022954D03*
X038103Y022954D03*
X047578Y027079D03*
X046853Y027629D03*
X048378Y027629D03*
D32*
X022053Y013954D03*
X022103Y011954D03*
D33*
X022953Y013054D03*
X082953Y010454D03*
X082953Y008854D03*
D34*
X086403Y028704D03*
D35*
X093313Y013454D03*
M02*
