G75*
G70*
%OFA0B0*%
%FSLAX24Y24*%
%IPPOS*%
%LPD*%
%AMOC8*
5,1,8,0,0,1.08239X$1,22.5*
%
%ADD10R,0.0118X0.0591*%
%ADD11R,0.0591X0.0118*%
%ADD12R,0.0433X0.0394*%
%ADD13R,0.0433X0.0433*%
%ADD14R,0.0790X0.0590*%
%ADD15R,0.0790X0.1500*%
%ADD16R,0.0709X0.0630*%
%ADD17R,0.0138X0.0335*%
%ADD18R,0.0315X0.0138*%
%ADD19R,0.0354X0.0276*%
%ADD20R,0.0433X0.0433*%
%ADD21R,0.0630X0.0709*%
%ADD22R,0.0276X0.0354*%
%ADD23R,0.0866X0.0236*%
%ADD24R,0.0256X0.0236*%
%ADD25R,0.0642X0.0598*%
%ADD26R,0.2760X0.2760*%
%ADD27R,0.0990X0.0590*%
%ADD28R,0.0906X0.0689*%
%ADD29R,0.0598X0.0642*%
%ADD30R,0.0256X0.0886*%
%ADD31R,0.0780X0.0210*%
%ADD32R,0.0610X0.0236*%
%ADD33R,0.5000X0.4150*%
%ADD34R,0.1181X0.0630*%
%ADD35R,0.2470X0.2280*%
%ADD36R,0.0689X0.0906*%
%ADD37R,0.0590X0.0990*%
D10*
X032435Y009988D03*
X032632Y009988D03*
X032828Y009988D03*
X033025Y009988D03*
X033222Y009988D03*
X033419Y009988D03*
X033616Y009988D03*
X033813Y009988D03*
X034010Y009988D03*
X034206Y009988D03*
X034403Y009988D03*
X034600Y009988D03*
X034797Y009988D03*
X034994Y009988D03*
X035191Y009988D03*
X035387Y009988D03*
X035387Y014476D03*
X035191Y014476D03*
X034994Y014476D03*
X034797Y014476D03*
X034600Y014476D03*
X034403Y014476D03*
X034206Y014476D03*
X034010Y014476D03*
X033813Y014476D03*
X033616Y014476D03*
X033419Y014476D03*
X033222Y014476D03*
X033025Y014476D03*
X032828Y014476D03*
X032632Y014476D03*
X032435Y014476D03*
D11*
X031667Y013709D03*
X031667Y013512D03*
X031667Y013315D03*
X031667Y013118D03*
X031667Y012921D03*
X031667Y012724D03*
X031667Y012527D03*
X031667Y012331D03*
X031667Y012134D03*
X031667Y011937D03*
X031667Y011740D03*
X031667Y011543D03*
X031667Y011346D03*
X031667Y011149D03*
X031667Y010953D03*
X031667Y010756D03*
X036155Y010756D03*
X036155Y010953D03*
X036155Y011149D03*
X036155Y011346D03*
X036155Y011543D03*
X036155Y011740D03*
X036155Y011937D03*
X036155Y012134D03*
X036155Y012331D03*
X036155Y012527D03*
X036155Y012724D03*
X036155Y012921D03*
X036155Y013118D03*
X036155Y013315D03*
X036155Y013512D03*
X036155Y013709D03*
D12*
X038626Y011182D03*
X039296Y011182D03*
D13*
X009296Y001587D03*
X009296Y002257D03*
X012621Y005597D03*
X012621Y006267D03*
X012731Y006967D03*
X012061Y006967D03*
X008466Y010182D03*
X008466Y010852D03*
X008471Y011472D03*
X008471Y012142D03*
X012546Y018017D03*
X013216Y018017D03*
X023586Y009262D03*
X023586Y008592D03*
X023586Y007612D03*
X023586Y006942D03*
X023356Y003542D03*
X023356Y002872D03*
X023356Y002292D03*
X023356Y001622D03*
X024526Y001622D03*
X024526Y002292D03*
X024526Y002872D03*
X024526Y003542D03*
X025676Y003542D03*
X025676Y002872D03*
X025676Y002292D03*
X025676Y001622D03*
X026836Y001622D03*
X026836Y002292D03*
X026836Y002872D03*
X026836Y003542D03*
X028381Y001702D03*
X029051Y001702D03*
X029751Y001712D03*
X030421Y001712D03*
X031261Y003127D03*
X031261Y003797D03*
X031296Y004762D03*
X030626Y004762D03*
X033136Y007682D03*
X033806Y007682D03*
X033806Y008477D03*
X033136Y008477D03*
X030461Y012397D03*
X030461Y013067D03*
X029611Y013067D03*
X029611Y012397D03*
X030426Y014312D03*
X030426Y014982D03*
X029346Y014632D03*
X028676Y014632D03*
X028866Y016097D03*
X028866Y016767D03*
X032926Y018312D03*
X033596Y018312D03*
X033726Y016732D03*
X034396Y016732D03*
X034391Y015917D03*
X033721Y015917D03*
X038111Y012517D03*
X038111Y011847D03*
X038911Y011847D03*
X038911Y012517D03*
X044336Y008752D03*
X045006Y008752D03*
X047581Y007017D03*
X048251Y007017D03*
X048246Y006062D03*
X047576Y006062D03*
X047576Y005062D03*
X048246Y005062D03*
X053151Y009902D03*
X053821Y009902D03*
X036156Y002322D03*
X036156Y001652D03*
X016976Y006697D03*
X016976Y007367D03*
X027850Y031595D03*
X027850Y032265D03*
X028850Y032265D03*
X028850Y031596D03*
X030671Y032465D03*
X031340Y032465D03*
X028705Y033780D03*
X028705Y034450D03*
X028705Y035830D03*
X028705Y036500D03*
X025260Y036760D03*
X025260Y036090D03*
X024000Y038470D03*
X024000Y039140D03*
X019335Y040105D03*
X018666Y040105D03*
X018966Y046905D03*
X019635Y046905D03*
X025016Y044305D03*
X025685Y044305D03*
X032066Y045520D03*
X032735Y045520D03*
X032735Y046420D03*
X032066Y046420D03*
X034925Y043050D03*
X034925Y042380D03*
X034925Y041850D03*
X034925Y041180D03*
X036041Y038440D03*
X036710Y038440D03*
X042041Y040080D03*
X042046Y040910D03*
X042715Y040910D03*
X042710Y040080D03*
X044096Y042780D03*
X044765Y042780D03*
X045326Y042770D03*
X045995Y042770D03*
X046191Y040400D03*
X046860Y040400D03*
X046860Y039550D03*
X046191Y039550D03*
X046325Y038480D03*
X046325Y037810D03*
X047165Y037810D03*
X047165Y038480D03*
X049530Y036747D03*
X050199Y036747D03*
X039945Y044095D03*
X039276Y044095D03*
X019305Y033610D03*
X018636Y033610D03*
D14*
X009431Y012137D03*
X009431Y011237D03*
X009431Y010337D03*
X022426Y009037D03*
X022426Y008137D03*
X022426Y007237D03*
D15*
X019946Y008127D03*
X011911Y011247D03*
D16*
X007531Y011566D03*
X007531Y012668D03*
X007536Y010658D03*
X007536Y009556D03*
X024736Y009778D03*
X024736Y008676D03*
X024736Y007628D03*
X024736Y006526D03*
X028811Y012481D03*
X028811Y013583D03*
X026850Y031379D03*
X025900Y031379D03*
X025900Y032481D03*
X026850Y032481D03*
D17*
X028969Y004140D03*
X029166Y004140D03*
X029363Y004140D03*
X029560Y004140D03*
X029756Y004140D03*
X029953Y004140D03*
X029953Y002585D03*
X029756Y002585D03*
X029560Y002585D03*
X029363Y002585D03*
X029166Y002585D03*
X028969Y002585D03*
D18*
X028674Y002870D03*
X028674Y003067D03*
X028674Y003264D03*
X028674Y003461D03*
X028674Y003657D03*
X028674Y003854D03*
X030249Y003854D03*
X030249Y003657D03*
X030249Y003461D03*
X030249Y003264D03*
X030249Y003067D03*
X030249Y002870D03*
D19*
X029531Y005071D03*
X029531Y005583D03*
X028556Y005593D03*
X028556Y005081D03*
D20*
G36*
X049392Y005406D02*
X049712Y005116D01*
X049422Y004796D01*
X049102Y005086D01*
X049392Y005406D01*
G37*
G36*
X050017Y006161D02*
X050337Y005871D01*
X050047Y005551D01*
X049727Y005841D01*
X050017Y006161D01*
G37*
G36*
X050515Y005713D02*
X050835Y005423D01*
X050545Y005103D01*
X050225Y005393D01*
X050515Y005713D01*
G37*
G36*
X049890Y004958D02*
X050210Y004668D01*
X049920Y004348D01*
X049600Y004638D01*
X049890Y004958D01*
G37*
G36*
X049682Y009773D02*
X050002Y010063D01*
X050292Y009743D01*
X049972Y009453D01*
X049682Y009773D01*
G37*
G36*
X049602Y010583D02*
X049282Y010293D01*
X048992Y010613D01*
X049312Y010903D01*
X049602Y010583D01*
G37*
G36*
X050100Y011031D02*
X049780Y010741D01*
X049490Y011061D01*
X049810Y011351D01*
X050100Y011031D01*
G37*
G36*
X050180Y010221D02*
X050500Y010511D01*
X050790Y010191D01*
X050470Y009901D01*
X050180Y010221D01*
G37*
D21*
X045767Y009802D03*
X044665Y009802D03*
D22*
X052405Y007947D03*
X052917Y007947D03*
X052917Y007177D03*
X052405Y007177D03*
X052405Y006322D03*
X052917Y006322D03*
D23*
X015945Y006282D03*
X015945Y005782D03*
X015945Y006782D03*
X015945Y007282D03*
X013897Y007282D03*
X013897Y006782D03*
X013897Y006282D03*
X013897Y005782D03*
D24*
X012794Y007618D03*
X012794Y008366D03*
X011908Y007992D03*
D25*
X010741Y007914D03*
X010741Y006221D03*
D26*
X009831Y019737D03*
X045078Y028922D03*
D27*
X012551Y020637D03*
X012551Y018837D03*
D28*
X014296Y018642D03*
X014296Y020642D03*
D29*
X017030Y020577D03*
X018723Y020577D03*
X024794Y035110D03*
X026487Y035110D03*
X026447Y042645D03*
X024754Y042645D03*
X024719Y045355D03*
X026412Y045355D03*
D30*
X041710Y038825D03*
X042210Y038825D03*
X042710Y038825D03*
X043210Y038825D03*
X043710Y038825D03*
X044210Y038825D03*
X044710Y038825D03*
X045210Y038825D03*
X045210Y035085D03*
X044710Y035085D03*
X044210Y035085D03*
X043710Y035085D03*
X043210Y035085D03*
X042710Y035085D03*
X042210Y035085D03*
X041710Y035085D03*
D31*
X033535Y038515D03*
X033535Y039015D03*
X033535Y039515D03*
X033535Y040015D03*
X033535Y040515D03*
X033535Y041015D03*
X033535Y041515D03*
X033535Y042015D03*
X033535Y042515D03*
X033535Y043015D03*
X033535Y043515D03*
X033535Y044015D03*
X029845Y044015D03*
X029845Y043515D03*
X029845Y043015D03*
X029845Y042515D03*
X029845Y042015D03*
X029845Y041515D03*
X029845Y041015D03*
X029845Y040515D03*
X029845Y040015D03*
X029845Y039515D03*
X029845Y039015D03*
X029845Y038515D03*
D32*
X037147Y039530D03*
X037147Y040030D03*
X037147Y040530D03*
X037147Y041030D03*
X037147Y041530D03*
X037147Y042030D03*
X037147Y042530D03*
X037147Y043030D03*
X039273Y043030D03*
X039273Y042530D03*
X039273Y042030D03*
X039273Y041530D03*
X039273Y041030D03*
X039273Y040530D03*
X039273Y040030D03*
X039273Y039530D03*
D33*
X037730Y035140D03*
D34*
X019090Y037555D03*
X019090Y039355D03*
X019090Y044055D03*
X019090Y045855D03*
X019090Y032655D03*
X019090Y030855D03*
D35*
X021625Y031755D03*
X021625Y038455D03*
X021625Y044955D03*
D36*
X046429Y035792D03*
X048429Y035792D03*
D37*
X045978Y031642D03*
X044178Y031642D03*
M02*
