G75*
G70*
%OFA0B0*%
%FSLAX24Y24*%
%IPPOS*%
%LPD*%
%AMOC8*
5,1,8,0,0,1.08239X$1,22.5*
%
%ADD10R,0.0591X0.0118*%
%ADD11R,0.0118X0.0591*%
%ADD12R,0.0433X0.0433*%
%ADD13R,0.0394X0.0433*%
%ADD14R,0.0790X0.0590*%
%ADD15R,0.0790X0.1500*%
%ADD16R,0.0709X0.0630*%
%ADD17R,0.0630X0.0709*%
%ADD18R,0.0138X0.0335*%
%ADD19R,0.0315X0.0138*%
%ADD20R,0.0354X0.0276*%
%ADD21R,0.0236X0.0866*%
%ADD22R,0.0256X0.0236*%
%ADD23R,0.0642X0.0598*%
%ADD24R,0.0591X0.0217*%
%ADD25R,0.2760X0.2760*%
%ADD26R,0.0990X0.0590*%
%ADD27R,0.0906X0.0689*%
%ADD28R,0.0433X0.0433*%
D10*
X026857Y006326D03*
X026857Y006523D03*
X026857Y006720D03*
X026857Y006917D03*
X026857Y007113D03*
X026857Y007310D03*
X026857Y007507D03*
X026857Y007704D03*
X026857Y007901D03*
X026857Y008098D03*
X026857Y008294D03*
X026857Y008491D03*
X026857Y008688D03*
X026857Y008885D03*
X026857Y009082D03*
X026857Y009279D03*
X031345Y009279D03*
X031345Y009082D03*
X031345Y008885D03*
X031345Y008688D03*
X031345Y008491D03*
X031345Y008294D03*
X031345Y008098D03*
X031345Y007901D03*
X031345Y007704D03*
X031345Y007507D03*
X031345Y007310D03*
X031345Y007113D03*
X031345Y006917D03*
X031345Y006720D03*
X031345Y006523D03*
X031345Y006326D03*
D11*
X030577Y005558D03*
X030380Y005558D03*
X030183Y005558D03*
X029987Y005558D03*
X029790Y005558D03*
X029593Y005558D03*
X029396Y005558D03*
X029199Y005558D03*
X029002Y005558D03*
X028806Y005558D03*
X028609Y005558D03*
X028412Y005558D03*
X028215Y005558D03*
X028018Y005558D03*
X027821Y005558D03*
X027624Y005558D03*
X027624Y010046D03*
X027821Y010046D03*
X028018Y010046D03*
X028215Y010046D03*
X028412Y010046D03*
X028609Y010046D03*
X028806Y010046D03*
X029002Y010046D03*
X029199Y010046D03*
X029396Y010046D03*
X029593Y010046D03*
X029790Y010046D03*
X029987Y010046D03*
X030183Y010046D03*
X030380Y010046D03*
X030577Y010046D03*
D12*
X031601Y010518D03*
X031601Y011187D03*
X029430Y011377D03*
X028761Y011377D03*
X028766Y012202D03*
X029435Y012202D03*
X034316Y012452D03*
X034985Y012452D03*
X032501Y014718D03*
X032501Y015387D03*
X035851Y016318D03*
X035851Y016987D03*
X031651Y018068D03*
X031651Y018737D03*
X031651Y019468D03*
X031651Y020137D03*
X019035Y017552D03*
X018366Y017552D03*
X018316Y016652D03*
X018985Y016652D03*
X018985Y014852D03*
X018316Y014852D03*
X018316Y014002D03*
X018985Y014002D03*
X009535Y017852D03*
X008866Y017852D03*
X014816Y009302D03*
X015485Y009302D03*
X018666Y008252D03*
X019335Y008252D03*
X024701Y008287D03*
X025671Y008287D03*
X025671Y007618D03*
X024701Y007618D03*
X024416Y005052D03*
X025085Y005052D03*
X026651Y004087D03*
X026651Y003418D03*
X025001Y003218D03*
X025001Y003887D03*
X024085Y002002D03*
X023416Y002002D03*
X022585Y002052D03*
X021916Y002052D03*
X020401Y001768D03*
X019151Y001768D03*
X017901Y001768D03*
X016651Y001768D03*
X016651Y002437D03*
X017901Y002437D03*
X019151Y002437D03*
X020401Y002437D03*
X020401Y003118D03*
X019151Y003118D03*
X017901Y003118D03*
X016651Y003118D03*
X016651Y003787D03*
X017901Y003787D03*
X019151Y003787D03*
X020401Y003787D03*
X011701Y004068D03*
X011701Y004737D03*
X011701Y005518D03*
X011701Y006187D03*
X029151Y004337D03*
X030201Y004337D03*
X030201Y003668D03*
X029151Y003668D03*
X037266Y003602D03*
X037935Y003602D03*
X039451Y003187D03*
X039451Y002518D03*
X045716Y004588D03*
X045716Y005257D03*
X040535Y008852D03*
X039866Y008852D03*
X033751Y008287D03*
X032701Y008287D03*
X032701Y007618D03*
X033751Y007618D03*
D13*
X028151Y004337D03*
X028151Y003668D03*
D14*
X010341Y004262D03*
X010341Y005162D03*
X010341Y006062D03*
X030391Y018212D03*
X030391Y019112D03*
X030391Y020012D03*
D15*
X027911Y019102D03*
X007861Y005152D03*
D16*
X013101Y005601D03*
X013101Y006704D03*
X013101Y004454D03*
X013101Y003351D03*
X032651Y017501D03*
X032651Y018604D03*
X032651Y019751D03*
X032651Y020854D03*
D17*
X029702Y013052D03*
X028600Y013052D03*
X021952Y012702D03*
X020850Y012702D03*
D18*
X022759Y004330D03*
X022956Y004330D03*
X023152Y004330D03*
X023349Y004330D03*
X023546Y004330D03*
X023743Y004330D03*
X023743Y002775D03*
X023546Y002775D03*
X023349Y002775D03*
X023152Y002775D03*
X022956Y002775D03*
X022759Y002775D03*
D19*
X022463Y003060D03*
X022463Y003257D03*
X022463Y003454D03*
X022463Y003651D03*
X022463Y003848D03*
X022463Y004044D03*
X024038Y004044D03*
X024038Y003848D03*
X024038Y003651D03*
X024038Y003454D03*
X024038Y003257D03*
X024038Y003060D03*
D20*
X023301Y005196D03*
X023301Y005708D03*
X022301Y005708D03*
X022301Y005196D03*
D21*
X033251Y013529D03*
X033751Y013529D03*
X034251Y013529D03*
X034751Y013529D03*
X034751Y015576D03*
X034251Y015576D03*
X033751Y015576D03*
X033251Y015576D03*
D22*
X035408Y017678D03*
X036294Y018052D03*
X035408Y018426D03*
D23*
X037001Y018706D03*
X037001Y020399D03*
X013401Y020449D03*
X013401Y018756D03*
D24*
X015588Y008252D03*
X015588Y007752D03*
X015588Y007252D03*
X015588Y006752D03*
X017714Y006752D03*
X017714Y007252D03*
X017714Y007752D03*
X017714Y008252D03*
D25*
X007201Y019702D03*
D26*
X009921Y018802D03*
X009921Y020602D03*
D27*
X011451Y020602D03*
X011451Y018602D03*
D28*
G36*
X015468Y016555D02*
X015148Y016845D01*
X015438Y017165D01*
X015758Y016875D01*
X015468Y016555D01*
G37*
G36*
X015965Y016108D02*
X015645Y016398D01*
X015935Y016718D01*
X016255Y016428D01*
X015965Y016108D01*
G37*
G36*
X016529Y016752D02*
X016209Y017042D01*
X016499Y017362D01*
X016819Y017072D01*
X016529Y016752D01*
G37*
G36*
X016032Y017199D02*
X015712Y017489D01*
X016002Y017809D01*
X016322Y017519D01*
X016032Y017199D01*
G37*
G36*
X016267Y012878D02*
X015947Y012588D01*
X015657Y012908D01*
X015977Y013198D01*
X016267Y012878D01*
G37*
G36*
X015770Y012430D02*
X015450Y012140D01*
X015160Y012460D01*
X015480Y012750D01*
X015770Y012430D01*
G37*
G36*
X016226Y012276D02*
X016546Y012566D01*
X016836Y012246D01*
X016516Y011956D01*
X016226Y012276D01*
G37*
G36*
X015729Y011828D02*
X016049Y012118D01*
X016339Y011798D01*
X016019Y011508D01*
X015729Y011828D01*
G37*
M02*
