G75*
G70*
%OFA0B0*%
%FSLAX24Y24*%
%IPPOS*%
%LPD*%
%AMOC8*
5,1,8,0,0,1.08239X$1,22.5*
%
%ADD10C,0.0477*%
%ADD11C,0.0595*%
%ADD12R,0.0966X0.0966*%
%ADD13R,0.0513X0.0513*%
%ADD14R,0.0671X0.0297*%
%ADD15C,0.0820*%
%ADD16R,0.0690X0.0316*%
%ADD17R,0.0336X0.0159*%
%ADD18R,0.0159X0.0336*%
%ADD19R,0.1812X0.1812*%
%ADD20R,0.0336X0.0316*%
%ADD21R,0.0710X0.0789*%
%ADD22R,0.1261X0.0710*%
%ADD23R,0.2550X0.2360*%
%ADD24R,0.0710X0.1261*%
%ADD25R,0.2360X0.2550*%
%ADD26R,0.0595X0.0595*%
%ADD27C,0.0954*%
%ADD28C,0.1619*%
%ADD29R,0.0671X0.0198*%
%ADD30R,0.0198X0.0671*%
%ADD31R,0.0513X0.0474*%
%ADD32R,0.0434X0.0356*%
%ADD33R,0.0356X0.0434*%
%ADD34R,0.0870X0.0670*%
%ADD35R,0.0870X0.1580*%
%ADD36R,0.0789X0.0710*%
%ADD37R,0.0474X0.0513*%
%ADD38C,0.0680*%
%ADD39R,0.0513X0.0513*%
%ADD40R,0.0986X0.0769*%
%ADD41R,0.0769X0.0986*%
%ADD42C,0.0580*%
%ADD43R,0.0722X0.0678*%
%ADD44R,0.0434X0.0395*%
%ADD45R,0.0395X0.0316*%
%ADD46R,0.0316X0.0395*%
%ADD47R,0.0476X0.0476*%
%ADD48C,0.0480*%
%ADD49C,0.0789*%
%ADD50C,0.0476*%
D10*
X039936Y011351D03*
X040936Y011351D03*
X044266Y011351D03*
X045266Y011351D03*
X043101Y007601D03*
X042101Y007601D03*
X053601Y011351D03*
X054601Y011351D03*
X058601Y011351D03*
X059601Y011351D03*
X043101Y022601D03*
X042101Y022601D03*
D11*
X032161Y022997D03*
X032161Y023784D03*
X026691Y019894D03*
X026691Y019107D03*
X026691Y017464D03*
X026691Y016677D03*
X032151Y018207D03*
X032151Y018994D03*
X055669Y028521D03*
X055669Y029309D03*
X058207Y022851D03*
X058994Y022851D03*
X039801Y032907D03*
X039801Y033694D03*
D12*
X041851Y033680D03*
X041851Y031121D03*
X056169Y031135D03*
X056169Y033694D03*
X062101Y022880D03*
X062101Y020321D03*
X024795Y019371D03*
X022236Y019371D03*
X022160Y004491D03*
X019601Y004491D03*
X018420Y004491D03*
X015861Y004491D03*
X008575Y034331D03*
X006016Y034331D03*
D13*
X010206Y034326D03*
X010875Y034326D03*
X016966Y029636D03*
X017635Y029636D03*
X015821Y027915D03*
X015821Y027246D03*
X015520Y025821D03*
X014851Y025821D03*
X015481Y025100D03*
X014800Y024911D03*
X014131Y024911D03*
X015481Y024431D03*
X016286Y024431D03*
X016286Y025100D03*
X017416Y025100D03*
X018111Y025276D03*
X018780Y025276D03*
X018236Y024615D03*
X018236Y023946D03*
X017416Y024431D03*
X020666Y023545D03*
X021531Y023550D03*
X021531Y022881D03*
X020666Y022876D03*
X022501Y022856D03*
X022501Y023525D03*
X024491Y021416D03*
X025160Y021416D03*
X025831Y021416D03*
X026500Y021416D03*
X026500Y022261D03*
X025831Y022261D03*
X025816Y023096D03*
X026485Y023096D03*
X027216Y022256D03*
X027885Y022256D03*
X028016Y022951D03*
X028016Y023620D03*
X026510Y020576D03*
X025841Y020576D03*
X025170Y020606D03*
X024501Y020606D03*
X024346Y018111D03*
X023765Y018116D03*
X025015Y018111D03*
X025030Y017271D03*
X024361Y017271D03*
X023770Y017276D03*
X023101Y017276D03*
X023096Y018116D03*
X021071Y018686D03*
X021071Y019355D03*
X017496Y019610D03*
X017496Y018941D03*
X015836Y019296D03*
X015836Y019965D03*
X012380Y019266D03*
X011711Y019266D03*
X011175Y019261D03*
X010506Y019261D03*
X010506Y020096D03*
X011175Y020096D03*
X011185Y020926D03*
X011731Y020926D03*
X012400Y020926D03*
X012400Y021751D03*
X011731Y021751D03*
X011185Y021751D03*
X010516Y021751D03*
X010521Y022576D03*
X011190Y022576D03*
X011200Y023416D03*
X011801Y023561D03*
X012470Y023561D03*
X011200Y024241D03*
X010531Y024241D03*
X010531Y023416D03*
X009366Y023276D03*
X009366Y023945D03*
X009396Y025096D03*
X010065Y025096D03*
X010696Y025101D03*
X011365Y025101D03*
X010801Y025881D03*
X010045Y025936D03*
X009376Y025936D03*
X010801Y026550D03*
X009376Y022585D03*
X009376Y021916D03*
X009386Y021065D03*
X009386Y020396D03*
X010516Y020926D03*
X009371Y019350D03*
X009371Y018681D03*
X009341Y017920D03*
X009341Y017251D03*
X009341Y016660D03*
X009341Y015991D03*
X009341Y015310D03*
X009341Y014641D03*
X010161Y014201D03*
X010830Y014201D03*
X011155Y015056D03*
X010486Y015056D03*
X010486Y015911D03*
X011155Y015911D03*
X011986Y016086D03*
X012655Y016086D03*
X011160Y016761D03*
X010491Y016761D03*
X010501Y017596D03*
X011170Y017596D03*
X012076Y017596D03*
X012745Y017596D03*
X011175Y018426D03*
X010506Y018426D03*
X006280Y018711D03*
X005611Y018711D03*
X005611Y019546D03*
X006280Y019546D03*
X006280Y020376D03*
X005611Y020376D03*
X005611Y021206D03*
X006280Y021206D03*
X006280Y017856D03*
X005611Y017856D03*
X005611Y017011D03*
X006280Y017011D03*
X006280Y016151D03*
X005611Y016151D03*
X005611Y015296D03*
X006280Y015296D03*
X010161Y013326D03*
X010830Y013326D03*
X010220Y012471D03*
X009551Y012471D03*
X008856Y012530D03*
X008856Y011861D03*
X009546Y011621D03*
X010215Y011621D03*
X010210Y010751D03*
X009541Y010751D03*
X012821Y011901D03*
X012821Y012570D03*
X013716Y012565D03*
X013716Y011896D03*
X016831Y015236D03*
X017500Y015236D03*
X017495Y016076D03*
X018056Y016126D03*
X018725Y016126D03*
X016826Y016076D03*
X020306Y012815D03*
X021131Y012815D03*
X021131Y012146D03*
X020306Y012146D03*
X018440Y008236D03*
X017771Y008236D03*
X017771Y007401D03*
X018440Y007401D03*
X016255Y005716D03*
X015586Y005716D03*
X014641Y004720D03*
X014641Y004051D03*
X011401Y004016D03*
X011401Y004685D03*
X007801Y004685D03*
X007801Y004016D03*
X004356Y004036D03*
X004356Y004705D03*
X020696Y005676D03*
X021365Y005676D03*
X049851Y018266D03*
X049851Y018935D03*
X051266Y020101D03*
X051935Y020101D03*
X055266Y020101D03*
X055935Y020101D03*
X057601Y017185D03*
X057601Y016516D03*
X060101Y016516D03*
X060101Y017185D03*
X054685Y023851D03*
X054016Y023851D03*
X050725Y028521D03*
X050725Y029190D03*
X050669Y030580D03*
X050669Y031250D03*
X051397Y031884D03*
X052066Y031884D03*
X052019Y030893D03*
X052688Y030893D03*
X053620Y030947D03*
X054289Y030947D03*
X054745Y029728D03*
X054745Y029059D03*
X046085Y029351D03*
X045416Y029351D03*
X045416Y028001D03*
X046085Y028001D03*
X038485Y028651D03*
X037816Y028651D03*
X037816Y030151D03*
X038485Y030151D03*
X043551Y033016D03*
X043551Y033685D03*
X045501Y033685D03*
X045501Y033016D03*
X018920Y027456D03*
X018251Y027456D03*
D14*
X044538Y030651D03*
X044538Y031151D03*
X044538Y031651D03*
X044538Y032151D03*
X046664Y032151D03*
X046664Y031651D03*
X046664Y031151D03*
X046664Y030651D03*
D15*
X002161Y002796D03*
X003161Y002796D03*
X005661Y002781D03*
X006661Y002781D03*
X009181Y002776D03*
X010181Y002776D03*
X012661Y002781D03*
X013661Y002781D03*
X021486Y001701D03*
X021626Y015086D03*
X020626Y015086D03*
X022626Y015086D03*
X023626Y015086D03*
X024626Y015086D03*
X041351Y028651D03*
X042351Y028651D03*
X051851Y022851D03*
X051851Y021851D03*
X053169Y032915D03*
X054169Y032915D03*
D16*
X053710Y029483D03*
X053710Y028983D03*
X053710Y028483D03*
X053710Y027983D03*
X051584Y027983D03*
X051584Y028483D03*
X051584Y028983D03*
X051584Y029483D03*
X052538Y017351D03*
X052538Y016851D03*
X052538Y016351D03*
X052538Y015851D03*
X054664Y015851D03*
X054664Y016351D03*
X054664Y016851D03*
X054664Y017351D03*
D17*
X017583Y021090D03*
X017583Y021247D03*
X017583Y021405D03*
X017583Y021562D03*
X017583Y021720D03*
X017583Y021877D03*
X017583Y022035D03*
X017583Y022192D03*
X017583Y022349D03*
X017583Y022507D03*
X017583Y022664D03*
X017583Y022822D03*
X015319Y022822D03*
X015319Y022664D03*
X015319Y022507D03*
X015319Y022349D03*
X015319Y022192D03*
X015319Y022035D03*
X015319Y021877D03*
X015319Y021720D03*
X015319Y021562D03*
X015319Y021405D03*
X015319Y021247D03*
X015319Y021090D03*
D18*
X015585Y020824D03*
X015742Y020824D03*
X015900Y020824D03*
X016057Y020824D03*
X016215Y020824D03*
X016372Y020824D03*
X016530Y020824D03*
X016687Y020824D03*
X016844Y020824D03*
X017002Y020824D03*
X017159Y020824D03*
X017317Y020824D03*
X017317Y023088D03*
X017159Y023088D03*
X017002Y023088D03*
X016844Y023088D03*
X016687Y023088D03*
X016530Y023088D03*
X016372Y023088D03*
X016215Y023088D03*
X016057Y023088D03*
X015900Y023088D03*
X015742Y023088D03*
X015585Y023088D03*
D19*
X016451Y021956D03*
D20*
X008229Y022005D03*
X007343Y021631D03*
X008229Y021257D03*
X008229Y020675D03*
X007343Y020301D03*
X008229Y019927D03*
X008229Y019330D03*
X007343Y018956D03*
X008229Y018582D03*
X008229Y018005D03*
X007343Y017631D03*
X008229Y017257D03*
X008229Y016720D03*
X007343Y016346D03*
X008229Y015972D03*
X008229Y015410D03*
X007343Y015036D03*
X008229Y014662D03*
X008229Y014095D03*
X007343Y013721D03*
X008229Y013347D03*
X008229Y022682D03*
X007343Y023056D03*
X008229Y023430D03*
D21*
X007262Y027126D03*
X006160Y027126D03*
X016550Y016921D03*
X017652Y016921D03*
X027425Y008631D03*
X028527Y008631D03*
D22*
X022656Y029991D03*
X022656Y031791D03*
X011156Y031956D03*
X011156Y030156D03*
D23*
X013691Y031056D03*
X020121Y030891D03*
D24*
X017821Y030896D03*
X016021Y030896D03*
D25*
X016921Y033431D03*
D26*
X003076Y021420D03*
X003076Y020633D03*
X003076Y019846D03*
X003076Y019058D03*
X003076Y018271D03*
X003076Y017483D03*
X003076Y016696D03*
X003076Y015909D03*
X003076Y015121D03*
D27*
X029663Y027286D03*
X029663Y028916D03*
D28*
X032552Y028101D03*
D29*
X019320Y013402D03*
X019320Y013205D03*
X019320Y013008D03*
X019320Y012812D03*
X019320Y012615D03*
X019320Y012418D03*
X019320Y012221D03*
X019320Y012024D03*
X019320Y011827D03*
X019320Y011631D03*
X019320Y011434D03*
X019320Y011237D03*
X019320Y011040D03*
X019320Y010843D03*
X019320Y010646D03*
X019320Y010449D03*
X014832Y010449D03*
X014832Y010646D03*
X014832Y010843D03*
X014832Y011040D03*
X014832Y011237D03*
X014832Y011434D03*
X014832Y011631D03*
X014832Y011827D03*
X014832Y012024D03*
X014832Y012221D03*
X014832Y012418D03*
X014832Y012615D03*
X014832Y012812D03*
X014832Y013008D03*
X014832Y013205D03*
X014832Y013402D03*
D30*
X015599Y014170D03*
X015796Y014170D03*
X015993Y014170D03*
X016190Y014170D03*
X016387Y014170D03*
X016584Y014170D03*
X016781Y014170D03*
X016977Y014170D03*
X017174Y014170D03*
X017371Y014170D03*
X017568Y014170D03*
X017765Y014170D03*
X017962Y014170D03*
X018158Y014170D03*
X018355Y014170D03*
X018552Y014170D03*
X018552Y009682D03*
X018355Y009682D03*
X018158Y009682D03*
X017962Y009682D03*
X017765Y009682D03*
X017568Y009682D03*
X017371Y009682D03*
X017174Y009682D03*
X016977Y009682D03*
X016781Y009682D03*
X016584Y009682D03*
X016387Y009682D03*
X016190Y009682D03*
X015993Y009682D03*
X015796Y009682D03*
X015599Y009682D03*
D31*
X016561Y008406D03*
X017230Y008406D03*
D32*
X012356Y013615D03*
X012356Y014127D03*
D33*
X013660Y014251D03*
X014172Y014251D03*
D34*
X029891Y014111D03*
X029891Y013211D03*
X029891Y015011D03*
D35*
X027411Y014101D03*
D36*
X032151Y014550D03*
X032151Y013652D03*
X032151Y012550D03*
X032151Y015652D03*
D37*
X031151Y015435D03*
X031151Y014766D03*
X031151Y013585D03*
X031151Y012916D03*
D38*
X031500Y010696D03*
X030712Y010696D03*
X029925Y010696D03*
X029138Y010696D03*
X028350Y010696D03*
X027563Y010696D03*
X026775Y010696D03*
X025988Y010696D03*
X025201Y010696D03*
X024413Y010696D03*
X024413Y002035D03*
X025201Y002035D03*
X025988Y002035D03*
X026775Y002035D03*
X027563Y002035D03*
X028350Y002035D03*
X029138Y002035D03*
X029925Y002035D03*
X030712Y002035D03*
X031500Y002035D03*
D39*
G36*
X033151Y003598D02*
X033530Y003255D01*
X033187Y002876D01*
X032808Y003219D01*
X033151Y003598D01*
G37*
G36*
X032654Y004046D02*
X033033Y003703D01*
X032690Y003324D01*
X032311Y003667D01*
X032654Y004046D01*
G37*
G36*
X032182Y003791D02*
X031803Y004134D01*
X032146Y004513D01*
X032525Y004170D01*
X032182Y003791D01*
G37*
G36*
X031685Y004239D02*
X031306Y004582D01*
X031649Y004961D01*
X032028Y004618D01*
X031685Y004239D01*
G37*
G36*
X032832Y004486D02*
X032453Y004829D01*
X032796Y005208D01*
X033175Y004865D01*
X032832Y004486D01*
G37*
G36*
X033289Y004781D02*
X033668Y004438D01*
X033325Y004059D01*
X032946Y004402D01*
X033289Y004781D01*
G37*
G36*
X032335Y004934D02*
X031956Y005277D01*
X032299Y005656D01*
X032678Y005313D01*
X032335Y004934D01*
G37*
G36*
X033786Y004333D02*
X034165Y003990D01*
X033822Y003611D01*
X033443Y003954D01*
X033786Y004333D01*
G37*
G36*
X032873Y007289D02*
X032494Y006946D01*
X032151Y007325D01*
X032530Y007668D01*
X032873Y007289D01*
G37*
G36*
X033370Y007737D02*
X032991Y007394D01*
X032648Y007773D01*
X033027Y008116D01*
X033370Y007737D01*
G37*
G36*
X033101Y008170D02*
X033480Y008513D01*
X033823Y008134D01*
X033444Y007791D01*
X033101Y008170D01*
G37*
G36*
X032028Y008428D02*
X032407Y008771D01*
X032750Y008392D01*
X032371Y008049D01*
X032028Y008428D01*
G37*
G36*
X031531Y007980D02*
X031910Y008323D01*
X032253Y007944D01*
X031874Y007601D01*
X031531Y007980D01*
G37*
G36*
X033218Y008809D02*
X032839Y008466D01*
X032496Y008845D01*
X032875Y009188D01*
X033218Y008809D01*
G37*
G36*
X033715Y009257D02*
X033336Y008914D01*
X032993Y009293D01*
X033372Y009636D01*
X033715Y009257D01*
G37*
G36*
X033598Y008618D02*
X033977Y008961D01*
X034320Y008582D01*
X033941Y008239D01*
X033598Y008618D01*
G37*
D40*
X024841Y023656D03*
X024841Y025656D03*
X017121Y026471D03*
X017121Y028471D03*
X005061Y028101D03*
X005061Y030101D03*
D41*
X012526Y027706D03*
X014526Y027706D03*
X020651Y025026D03*
X022651Y025026D03*
D42*
X004341Y021481D03*
X004341Y020681D03*
X004341Y019881D03*
X004341Y019081D03*
X004341Y018281D03*
X004341Y017481D03*
X004341Y016681D03*
X004341Y015881D03*
X004341Y015081D03*
D43*
X026576Y023879D03*
X026576Y025572D03*
X002796Y028159D03*
X002796Y029852D03*
D44*
X006362Y026350D03*
X006362Y025602D03*
X007189Y025976D03*
D45*
X018436Y029151D03*
X018436Y029820D03*
D46*
X014865Y029436D03*
X014196Y029436D03*
D47*
X037851Y030951D03*
X043651Y030301D03*
X047101Y028001D03*
X046401Y033801D03*
X055601Y017351D03*
X055351Y016851D03*
X056851Y017351D03*
X059101Y016601D03*
D48*
X050669Y027915D03*
X052669Y028415D03*
X052669Y029415D03*
X052669Y031415D03*
D49*
X033251Y014451D03*
X033151Y012501D03*
X016451Y021951D03*
D50*
X018216Y021636D03*
X018666Y020136D03*
X018396Y019636D03*
X018156Y019171D03*
X019116Y018201D03*
X019441Y018571D03*
X020111Y019136D03*
X020421Y019886D03*
X020976Y021501D03*
X022836Y021671D03*
X023666Y021396D03*
X023351Y020196D03*
X023191Y019491D03*
X021436Y017916D03*
X020396Y017401D03*
X018396Y016806D03*
X016756Y018611D03*
X016371Y019521D03*
X015221Y019861D03*
X014656Y019491D03*
X015316Y018931D03*
X013106Y018996D03*
X013001Y020011D03*
X012406Y020296D03*
X011681Y020076D03*
X010001Y020621D03*
X008636Y020661D03*
X008636Y022011D03*
X008636Y019326D03*
X008636Y018001D03*
X008636Y016726D03*
X008671Y015416D03*
X008761Y014091D03*
X012861Y013531D03*
X014026Y013691D03*
X013541Y016096D03*
X013351Y017276D03*
X014461Y020531D03*
X013526Y020681D03*
X013501Y021256D03*
X014276Y021121D03*
X013006Y021981D03*
X012901Y022591D03*
X013141Y023726D03*
X012171Y024886D03*
X011711Y026391D03*
X013463Y027208D03*
X014191Y028746D03*
X013701Y029236D03*
X015401Y029251D03*
X015501Y029876D03*
X016516Y029241D03*
X019371Y028791D03*
X018396Y026031D03*
X019286Y025411D03*
X019806Y024806D03*
X021626Y025371D03*
X027766Y024301D03*
X028481Y021791D03*
X025671Y017851D03*
X021736Y012156D03*
X021771Y008276D03*
X021761Y007561D03*
X021811Y006841D03*
X021471Y006241D03*
X022656Y006841D03*
X023216Y006261D03*
X023791Y006671D03*
X024006Y007376D03*
X019591Y007546D03*
X017226Y007791D03*
X015076Y005811D03*
X019378Y005449D03*
X027296Y004061D03*
X029761Y008036D03*
X028351Y009446D03*
X033051Y009946D03*
X012861Y010676D03*
X008906Y010741D03*
X010561Y028911D03*
X003741Y030626D03*
M02*
