G75*
G70*
%OFA0B0*%
%FSLAX24Y24*%
%IPPOS*%
%LPD*%
%AMOC8*
5,1,8,0,0,1.08239X$1,22.5*
%
%ADD10C,0.0060*%
%ADD11C,0.0020*%
%ADD12C,0.0050*%
%ADD13C,0.0157*%
D10*
X041894Y005124D02*
X042321Y005124D01*
X042794Y005201D02*
X043221Y005201D01*
X043007Y004988D02*
X043007Y005415D01*
X055944Y004974D02*
X056371Y004974D01*
X056844Y005101D02*
X057271Y005101D01*
X057057Y004888D02*
X057057Y005315D01*
X043057Y019988D02*
X043057Y020415D01*
X042844Y020201D02*
X043271Y020201D01*
X042321Y020124D02*
X041894Y020124D01*
D11*
X029693Y020146D02*
X029646Y020146D01*
X029553Y020146D02*
X029366Y020146D01*
X029366Y020100D02*
X029366Y020193D01*
X029366Y020284D02*
X029366Y020424D01*
X029412Y020471D01*
X029459Y020424D01*
X029459Y020330D01*
X029506Y020284D01*
X029553Y020330D01*
X029553Y020471D01*
X029553Y020560D02*
X029553Y020653D01*
X029599Y020607D02*
X029412Y020607D01*
X029366Y020653D01*
X029412Y020744D02*
X029366Y020791D01*
X029366Y020884D01*
X029412Y020931D01*
X029506Y020931D01*
X029553Y020884D01*
X029553Y020791D01*
X029506Y020744D01*
X029412Y020744D01*
X029366Y021020D02*
X029553Y021020D01*
X029553Y021114D02*
X029553Y021160D01*
X029553Y021114D02*
X029459Y021020D01*
X029553Y020146D02*
X029553Y020100D01*
X029506Y020010D02*
X029553Y019964D01*
X029506Y019917D01*
X029366Y019917D01*
X029366Y020010D02*
X029506Y020010D01*
X029506Y019917D02*
X029553Y019870D01*
X029553Y019823D01*
X029366Y019823D01*
X029553Y019733D02*
X029553Y019687D01*
X029459Y019593D01*
X029459Y019504D02*
X029459Y019317D01*
X029412Y019317D02*
X029506Y019317D01*
X029553Y019364D01*
X029553Y019457D01*
X029506Y019504D01*
X029459Y019504D01*
X029366Y019457D02*
X029366Y019364D01*
X029412Y019317D01*
X029366Y019228D02*
X029506Y019228D01*
X029553Y019181D01*
X029553Y019088D01*
X029506Y019041D01*
X029646Y019041D02*
X029366Y019041D01*
X029366Y018858D02*
X029646Y018858D01*
X029646Y018765D02*
X029646Y018951D01*
X029553Y018398D02*
X029459Y018258D01*
X029366Y018398D01*
X029366Y018258D02*
X029646Y018258D01*
X029599Y018169D02*
X029412Y017982D01*
X029366Y018029D01*
X029366Y018122D01*
X029412Y018169D01*
X029599Y018169D01*
X029646Y018122D01*
X029646Y018029D01*
X029599Y017982D01*
X029412Y017982D01*
X029483Y018019D02*
X029483Y017926D01*
X029436Y017879D01*
X029342Y017879D01*
X029296Y017926D01*
X029296Y018019D01*
X029342Y018066D01*
X029436Y018066D01*
X029483Y018019D01*
X029483Y018155D02*
X029296Y018155D01*
X029389Y018155D02*
X029483Y018249D01*
X029483Y018295D01*
X029366Y017893D02*
X029366Y017706D01*
X029342Y017742D02*
X029296Y017788D01*
X029342Y017742D02*
X029529Y017742D01*
X029553Y017706D02*
X029646Y017799D01*
X029366Y017799D01*
X029483Y017788D02*
X029483Y017695D01*
X029483Y017606D02*
X029483Y017465D01*
X029436Y017419D01*
X029389Y017465D01*
X029389Y017559D01*
X029342Y017606D01*
X029296Y017559D01*
X029296Y017419D01*
X029296Y017328D02*
X029296Y017235D01*
X029296Y017281D02*
X029483Y017281D01*
X029483Y017235D01*
X029436Y017145D02*
X029296Y017145D01*
X029296Y017052D02*
X029436Y017052D01*
X029483Y017099D01*
X029436Y017145D01*
X029436Y017052D02*
X029483Y017005D01*
X029483Y016958D01*
X029296Y016958D01*
X029483Y016868D02*
X029483Y016822D01*
X029389Y016728D01*
X029389Y016639D02*
X029389Y016452D01*
X029342Y016452D02*
X029436Y016452D01*
X029483Y016499D01*
X029483Y016592D01*
X029436Y016639D01*
X029389Y016639D01*
X029296Y016592D02*
X029296Y016499D01*
X029342Y016452D01*
X029296Y016363D02*
X029436Y016363D01*
X029483Y016316D01*
X029483Y016223D01*
X029436Y016176D01*
X029576Y016176D02*
X029296Y016176D01*
X029296Y015993D02*
X029576Y015993D01*
X029576Y015900D02*
X029576Y016086D01*
X029483Y015533D02*
X029389Y015393D01*
X029296Y015533D01*
X029296Y015393D02*
X029576Y015393D01*
X029529Y015304D02*
X029576Y015257D01*
X029576Y015164D01*
X029529Y015117D01*
X029342Y015117D01*
X029529Y015304D01*
X029342Y015304D01*
X029296Y015257D01*
X029296Y015164D01*
X029342Y015117D01*
X029296Y015028D02*
X029296Y014841D01*
X029296Y014934D02*
X029576Y014934D01*
X029483Y014841D01*
X029483Y016728D02*
X029296Y016728D01*
X029576Y017281D02*
X029623Y017281D01*
X029553Y019593D02*
X029366Y019593D01*
D12*
X029151Y015909D02*
X026159Y015909D01*
X026159Y016358D01*
X027191Y016358D01*
X029151Y016358D01*
X029151Y016858D01*
X028191Y016858D01*
X028191Y017283D01*
X029151Y017283D01*
X029151Y017783D01*
X027191Y017783D01*
X026159Y017783D01*
X026159Y018232D01*
X029151Y018232D01*
X029151Y017783D01*
X029151Y018339D02*
X026159Y018339D01*
X026159Y018788D01*
X027191Y018788D01*
X029151Y018788D01*
X029151Y019288D01*
X028191Y019288D01*
X028191Y019713D01*
X029151Y019713D01*
X029151Y020213D01*
X027191Y020213D01*
X026159Y020213D01*
X026159Y020662D01*
X029151Y020662D01*
X029151Y020213D01*
X029151Y019713D02*
X029151Y019288D01*
X029151Y018788D02*
X029151Y018339D01*
X029151Y017283D02*
X029151Y016858D01*
X029151Y016358D02*
X029151Y015909D01*
X027191Y016358D02*
X027191Y017783D01*
X027191Y018788D02*
X027191Y020213D01*
X040987Y018632D02*
X040987Y017176D01*
X040987Y018632D02*
X041892Y018632D01*
X043309Y018632D02*
X044215Y018632D01*
X044215Y017176D01*
X043546Y015640D02*
X041656Y015640D01*
X041833Y015640D02*
X043369Y015640D01*
X043309Y003632D02*
X044215Y003632D01*
X044215Y002176D01*
X041892Y003632D02*
X040987Y003632D01*
X040987Y002176D01*
X041656Y000640D02*
X043546Y000640D01*
X043369Y000640D02*
X041833Y000640D01*
X054987Y002176D02*
X054987Y003632D01*
X055892Y003632D01*
X057309Y003632D02*
X058215Y003632D01*
X058215Y002176D01*
X057546Y000640D02*
X055656Y000640D01*
X055833Y000640D02*
X057369Y000640D01*
D13*
X056994Y000694D02*
X056994Y002215D01*
X056207Y002215D02*
X056207Y000694D01*
X042994Y000694D02*
X042994Y002215D01*
X042207Y002215D02*
X042207Y000694D01*
X042207Y015694D02*
X042207Y017215D01*
X042994Y017215D02*
X042994Y015694D01*
M02*
