%
M48
M72
T01C0.0197
T02C0.0236
T03C0.0240
T04C0.0300
T05C0.0315
T06C0.0320
T07C0.0400
T08C0.0472
T09C0.0583
T10C0.0591
T11C0.1539
%
T01
X39936Y11351
X40936Y11351
X44266Y11351
X45266Y11351
X43101Y7601
X42101Y7601
X53601Y11351
X54601Y11351
X58601Y11351
X59601Y11351
X43101Y22601
X42101Y22601
T02
X47101Y28001
X43651Y30301
X37851Y30951
X46401Y33801
X27766Y24301
X28481Y21791
X23666Y21396
X22836Y21671
X20976Y21501
X18666Y20136
X18396Y19636
X18156Y19171
X19116Y18201
X19441Y18571
X20111Y19136
X20421Y19886
X21436Y17916
X20396Y17401
X18396Y16806
X16756Y18611
X16371Y19521
X15221Y19861
X14656Y19491
X15316Y18931
X13106Y18996
X13001Y20011
X12406Y20296
X11681Y20076
X10001Y20621
X8636Y20661
X8636Y22011
X8636Y19326
X8636Y18001
X8636Y16726
X8671Y15416
X8761Y14091
X12861Y13531
X14026Y13691
X13541Y16096
X13351Y17276
X14461Y20531
X13526Y20681
X13501Y21256
X14276Y21121
X13006Y21981
X12901Y22591
X13141Y23726
X12171Y24886
X11711Y26391
X13463Y27208
X14191Y28746
X13701Y29236
X15401Y29251
X15501Y29876
X16516Y29241
X19371Y28791
X18396Y26031
X19286Y25411
X19806Y24806
X21626Y25371
X18216Y21636
X23351Y20196
X23191Y19491
X25671Y17851
X21736Y12156
X21771Y8276
X21761Y7561
X21811Y6841
X21471Y6241
X22656Y6841
X23216Y6261
X23791Y6671
X24006Y7376
X19591Y7546
X17226Y7791
X15076Y5811
X19378Y5449
X27296Y4061
X29761Y8036
X28351Y9446
X33051Y9946
X12861Y10676
X8906Y10741
X10561Y28911
X3741Y30626
X55351Y16851
X55601Y17351
X56851Y17351
X59101Y16601
T03
X50669Y27915
X52669Y28415
X52669Y29415
X52669Y31415
T04
X4341Y21481
X4341Y20681
X4341Y19881
X4341Y19081
X4341Y18281
X4341Y17481
X4341Y16681
X4341Y15881
X4341Y15081
T05
X3076Y15121
X3076Y15909
X3076Y16696
X3076Y17483
X3076Y18271
X3076Y19058
X3076Y19846
X3076Y20633
X3076Y21420
X24413Y10696
X25201Y10696
X25988Y10696
X26775Y10696
X27563Y10696
X28350Y10696
X29138Y10696
X29925Y10696
X30712Y10696
X31500Y10696
X26691Y16677
X26691Y17464
X26691Y19107
X26691Y19894
X32151Y18994
X32151Y18207
X32161Y22997
X32161Y23784
X39801Y32907
X39801Y33694
X55669Y29309
X55669Y28521
X58207Y22851
X58994Y22851
X31500Y2035
X30712Y2035
X29925Y2035
X29138Y2035
X28350Y2035
X27563Y2035
X26775Y2035
X25988Y2035
X25201Y2035
X24413Y2035
T06
X2161Y2796
X3161Y2796
X5661Y2781
X6661Y2781
X9181Y2776
X10181Y2776
X12661Y2781
X13661Y2781
X51851Y21851
X51851Y22851
X42351Y28651
X41351Y28651
X53169Y32915
X54169Y32915
T07
X24626Y15086
X23626Y15086
X22626Y15086
X21626Y15086
X20626Y15086
X21486Y1701
T08
X33151Y12501
X33251Y14451
X16451Y21951
T09
X29663Y27286
X29663Y28916
T10
X41851Y31121
X41851Y33680
X56169Y33694
X56169Y31135
X62101Y22880
X62101Y20321
X24795Y19371
X22236Y19371
X22160Y4491
X19601Y4491
X18420Y4491
X15861Y4491
X8575Y34331
X6016Y34331
T11
X32552Y28101
M30
