**ABCDEFGHIJKLMNOPQRSTUVWXYZabcdefghijklmnopqrstuvwxyz**************************
**PARASOLID !"#$%&'()*+,-./:;<=>?@[\]^_`{|}~0123456789**************************
**PART1;
MC=AMD64;
MC_MODEL=Intel64 Family 6 Model 60 Stepping 3, GenuineIntel;
MC_ID=unknown;
OS=Windows_NT;
OS_RELEASE=unknown;
FRU=Parasolid Version 24.1, build 264,  4-19-2013;
APPL=SolidWorks 2013-2013186;
SITE=;
USER=unknown;
FORMAT=text;
GUISE=transmit;
KEY=Blank;
FILE=Blank.x_t;
DATE=Fri Apr 18 11:15:43 2014;
**PART2;
SCH=SCH_2401264_20000;
USFLD_SIZE=0;
**PART3;
**END_OF_HEADER*****************************************************************
T51 : TRANSMIT FILE created by modeller version 240126423 SCH_2401264_20000_1300
6189 0 12 27 CCCCCCCCCCCCCCCCCCCCCCCA16 index_map_offset0 0 1 dA9 index_map82 0
 A17 node_id_index_map82 0 A20 schema_embedding_map82 0 Z1 1148 0 2 3 0 0 0 1e3
 1e-8 0 4 0 1 0 1 1 5 6 7 8 9 10 11 0 0 0 0 70 11 CI9 list_type0 0 1 uI10 notran
smit0 0 1 lCCCDCCDI12 finger_index0 0 1 dI12 finger_block1012 0 CZ2 0 4 T1 0 0 2
 20 1 12 12 50 255 3 529 0 1 13 0 0 +0 -.016112499906 0 0 -1 0 0 0 -1 13 255 5 2
9 0 1 0 14 0 0 15 0 51 255 6 28 0 16 17 0 0 -0 .00508 0 0 -1 0 .0127 0 0 -1 30 2
55 7 736 0 10 18 0 0 -.02152303438179665 -.006587499906 .018796 0 1 0 29 255 8 7
35 0 11 19 0 .02152303438179665 -.016112499906 .018796 19 255 9 7 0 1 15 0 20 V1
6 255 10 734 0 ?21 0 22 7 0 0 1 18 255 11 733 0 23 0 24 8 ?1 17 255 23 0 25 26 2
6 11 27 28 0 29 -18 24 543 0 30 11 31 19 ?1 17 30 0 32 33 34 24 35 36 0 37 -18 3
1 614 0 38 24 39 40 ?1 29 19 545 0 24 40 8 -.02152303438179665 -.016112499906 -.
018796 29 40 690 0 31 41 19 .02152303438179665 0 -.018796 29 41 691 0 39 42 40 -
.02152303438179665 0 -.018796 18 39 613 0 43 31 44 41 ?1 29 42 692 0 44 45 41 .0
2152303438179665 -.016112499906 -.018796 18 44 609 0 46 39 47 42 ?1 29 45 869 0
 47 48 42 -.02152303438179665 0 .018796 18 47 797 0 49 44 50 45 ?1 29 48 870 0 5
0 51 45 .02152303438179665 0 .018796 18 50 792 0 52 47 53 48 ?1 29 51 871 0 53 0
 48 -.02152303438179665 -.016112499906 .018796 18 53 789 0 54 50 0 51 ?1 17 54 0
 55 29 49 53 56 22 0 26 -15 255 55 817 0 29 57 0 17 29 0 55 52 54 11 26 58 0 21
 -17 49 0 55 54 52 47 59 60 0 56 +17 56 0 61 43 27 47 54 22 0 62 +16 22 726 0 ?5
6 10 28 18 0 0 1 17 26 0 25 23 23 53 29 58 0 27 +15 25 804 0 26 63 0 16 58 765 0
 ?26 64 60 65 0 0 1 17 27 0 61 56 21 53 23 28 0 0 +15 61 332 0 21 66 0 17 21 0 6
1 27 67 11 52 10 0 0 +16 28 723 0 ?27 22 68 69 0 0 1 16 68 555 0 ?70 28 71 72 0
 0 1 31 255 69 725 0 28 72 18 0 +0 -.016112499906 0 0 -1 0 0 0 -1 .028575 30 72
 557 0 68 73 69 0 +.02152303438179665 -.006587499906 -.018796 0 1 0 30 18 728 0
 22 69 7 0 +-.02152303438179665 -.006587499906 .018796 0 1 0 30 73 549 0 71 74 7
2 0 --.02152303438179665 -.006587499906 -.018796 0 1 0 16 71 547 0 ?75 68 76 73
 0 0 1 31 74 546 0 76 77 73 0 +0 -.016112499906 0 0 -1 0 0 0 -1 .028575 16 76 54
4 0 ?46 71 78 74 0 0 1 31 77 166 0 79 80 74 0 +0 .0171831 0 0 1 0 0 0 1 .009525
 16 79 170 0 ?81 82 83 77 0 0 1 31 80 160 0 83 84 77 0 +0 .0161925 0 0 1 0 0 0 1
 .009525 16 83 174 0 ?85 79 86 80 0 0 1 31 84 5 0 78 87 80 0 +0 .00508 0 0 1 0 0
 0 1 .0127 16 78 4 0 ?88 76 89 84 0 0 1 31 87 71 0 89 90 84 0 +0 0 0 0 1 0 0 0 1
 .00635 16 89 49 0 ?91 78 92 87 0 0 1 31 90 137 0 93 94 87 0 +0 .00508 0 0 1 0 0
 0 1 .009525 16 93 107 0 ?95 92 82 90 0 0 1 31 94 138 0 92 96 90 0 +0 .0327025 0
 0 1 0 0 0 1 .009525 16 92 101 0 ?97 89 93 94 0 0 1 31 96 140 0 82 98 94 0 +0 .0
327025 0 0 1 0 0 0 1 .00635 16 82 110 0 ?99 93 79 96 0 0 1 31 98 280 0 100 101 9
6 0 +0 .0161925 0 0 1 0 0 0 1 .0074676 16 100 171 0 ?102 86 103 98 0 0 1 31 101
 281 0 86 104 98 0 +0 .0171831 0 0 1 0 0 0 1 .0074676 16 86 211 0 ?105 83 100 10
1 0 0 1 31 104 344 0 103 106 101 0 +0 0 0 0 -1 0 0 0 -1 .0127 16 103 312 0 ?107
 100 108 104 0 0 1 31 106 346 0 108 109 104 0 +0 0 0 0 -1 0 0 0 -1 .028575 16 10
8 534 0 ?67 103 110 106 110 110 1 31 109 425 0 111 112 106 0 +0 -.022462499906 0
 0 -1 0 0 0 -1 .028575 16 111 391 0 ?113 110 36 109 0 0 1 30 112 685 0 36 114 10
9 0 +-.028575 -.016112499906 -.018796 1 0 0 16 36 585 0 ?35 111 64 112 0 0 1 30
 114 687 0 64 65 112 0 +-.028575 0 -.018796 1 0 0 16 64 572 0 ?38 36 58 114 0 0
 1 30 65 864 0 58 115 114 0 +.028575 -.016112499906 .018796 -1 0 121415466385078
2e-31 30 115 866 0 60 0 65 0 +.028575 0 .018796 -1 0 1214154663850782e-31 16 60
 753 0 ?49 58 0 115 0 0 1 17 38 0 32 34 33 31 116 64 0 70 +15 32 638 0 30 117 0
 17 34 0 32 30 38 44 70 68 0 35 -17 33 0 32 38 30 39 75 71 0 116 -17 116 0 118 6
2 119 39 38 64 0 0 -17 70 0 61 67 46 31 34 68 0 119 +17 67 0 61 21 70 50 119 108
 0 0 +17 46 0 61 70 75 44 37 76 0 34 +17 119 0 118 116 59 31 67 108 0 0 -15 118
 322 0 62 120 121 17 59 0 118 119 62 50 49 60 0 67 -17 62 0 118 59 116 47 43 110
 0 0 -17 43 0 61 75 56 39 62 110 0 33 +16 110 716 0 ?43 108 111 106 108 108 1 17
 75 0 61 46 43 24 33 71 0 0 +14 255 120 320 122 ?66 123 118 5 124 -123 123 66 12
3 20 15 121 323 0 107 120 0 17 107 0 121 107 107 0 125 103 0 0 +17 125 0 126 125
 125 0 107 103 0 0 -15 126 26 0 125 16 0 14 16 25 127 ?128 129 130 5 6 -0 0 128
 129 20 81 255 1 127 1133 131 16 132 0 122 133 134 14 128 55 133 ?135 16 136 5 1
37 +0 0 135 16 20 14 129 98 138 ?16 14 139 5 17 +0 0 16 14 20 15 130 24 0 140 16
 126 13 20 8 0 0 0 0 0 0 9 14 14 14 161 141 ?129 0 142 5 143 -144 144 129 0 20 8
1 1 141 1136 131 14 145 0 138 146 147 15 142 125 0 95 14 148 51 143 133 0 144 14
9 137 0 -0 .0327025 0 0 -1 0 .009525 0 0 -1 14 144 121 146 ?150 135 151 5 143 -1
4 14 150 135 20 81 1 146 1137 131 144 152 0 141 153 154 14 150 222 153 ?155 144
 156 5 157 -0 0 155 144 20 14 135 113 158 ?144 128 159 5 149 +0 0 144 128 20 15
 151 164 0 81 144 160 17 81 0 151 81 81 0 161 79 0 0 +15 160 124 0 162 144 0 17
 162 0 160 162 162 0 97 92 0 0 -17 97 0 159 97 97 0 162 92 0 0 +15 159 115 0 97
 135 163 15 163 116 0 164 135 0 17 164 0 163 164 164 0 99 82 0 0 -17 99 0 165 99
 99 0 164 82 0 0 +15 165 129 0 99 128 0 17 161 0 166 161 161 0 81 79 0 0 -15 166
 225 0 161 150 0 81 1 158 1139 131 135 167 0 153 168 169 50 149 135 0 135 170 14
3 0 +0 .0327025 0 0 1 0 0 0 1 50 170 265 0 155 157 149 0 +0 .0161925 0 0 1 0 0 0
 1 14 155 226 168 ?171 150 172 5 170 +0 0 171 150 20 50 157 266 0 150 173 170 0
 +0 .0171831 0 0 1 0 0 0 1 51 173 267 0 171 174 157 0 -0 .0171831 0 0 -1 0 .0074
676 0 0 -1 14 171 254 175 ?123 155 176 5 173 -0 0 123 155 20 51 174 341 0 66 124
 173 0 -0 -.006587499906 0 0 1 0 .028575 0 0 1 14 66 328 177 ?178 120 179 5 174
 -0 0 178 120 20 50 124 342 0 123 180 174 0 +0 0 0 0 -1 0 0 0 -1 14 123 336 181
 ?120 171 182 5 124 -120 120 120 171 20 50 180 420 0 178 183 124 0 +0 -.02246249
9906 0 0 -1 0 0 0 -1 14 178 409 184 ?185 66 186 5 180 +0 0 185 66 20 50 183 671
 0 185 187 180 0 +0 -.016112499906 0 0 -1 0 0 0 -1 14 185 623 188 ?117 178 189 5
 183 -0 0 117 178 20 50 187 672 0 117 190 183 0 +-.028575 -.080443111674073 -.01
8796 0 0 1 1 0 0 14 117 635 191 ?63 185 32 5 187 -0 0 63 185 20 50 190 850 0 63
 192 187 0 +0 -.016112499906 0 0 -1 0 0 0 -1 14 63 802 193 ?57 117 25 5 190 -0 0
 57 117 20 50 192 851 0 57 0 190 0 +.028575 -.080443111674073 .018796 -121415466
3850782e-31 0 -1 -1 0 1214154663850782e-31 14 57 814 194 ?0 63 55 5 192 -0 0 0 6
3 20 81 1 194 1148 131 57 195 0 193 0 196 80 255 1 131 197 198 9000 1 1 1 1 1 1
 1 1 0 FFFFTFTFFFFFFF1 81 1 195 1088 199 57 0 194 200 0 201 81 1 193 1147 131 63
 200 0 191 194 202 82 255 1 196 1006437540 81 1 200 1087 199 63 0 193 203 195 20
4 81 1 191 1146 131 117 203 0 188 193 205 82 1 202 1008141476 81 1 203 1086 199
 117 0 191 206 200 207 81 1 188 1145 131 185 206 0 184 191 208 82 1 205 99686928
4 81 1 206 1085 199 185 0 188 209 203 210 81 1 184 1144 131 178 209 0 181 188 21
1 82 1 208 998573220 81 1 209 1084 199 178 0 184 212 206 213 81 1 181 1143 131 1
23 214 0 177 184 215 82 1 211 191497383 81 1 214 1081 199 123 0 181 216 217 218
 81 1 177 1142 131 66 212 0 175 181 219 82 1 215 -1046150002 81 1 212 1083 199 6
6 0 177 217 209 220 81 1 175 1141 131 171 216 0 168 177 221 82 1 219 -1045625689
 81 1 216 1080 199 171 0 175 222 214 223 81 1 168 1140 131 155 222 0 158 175 224
 82 1 221 -1458568247 81 1 222 1079 199 155 0 168 225 216 226 82 1 224 -14419221
03 80 1 199 0 227 8001 0 0 0 0 3 5 0 0 0 FFFFTFTFFFFFFF2 81 1 225 1078 199 150 0
 153 152 222 228 83 255 3 226 .792156862745098 .819607843137255 .933333333333333
 81 1 153 1138 131 150 225 0 146 158 229 81 1 152 1077 199 144 0 146 167 225 230
 83 3 228 .792156862745098 .819607843137255 .933333333333333 81 1 167 1076 199 1
35 0 158 231 152 232 83 3 230 .792156862745098 .819607843137255 .933333333333333
 81 1 231 1075 199 128 0 133 132 167 233 83 3 232 .792156862745098 .819607843137
255 .933333333333333 81 1 133 1134 131 128 231 0 127 138 234 81 1 132 1074 199 1
6 0 127 235 231 236 83 3 233 .792156862745098 .819607843137255 .933333333333333
 81 1 235 1073 199 129 0 138 145 132 237 83 3 236 .792156862745098 .819607843137
255 .933333333333333 81 1 138 1135 131 129 235 0 133 141 238 81 1 145 1072 199 1
4 0 141 0 235 239 83 3 237 .792156862745098 .819607843137255 .933333333333333 83
 3 239 .792156862745098 .819607843137255 .933333333333333 82 1 238 -491846744 82
 1 234 -514325592 82 1 229 -1441463351 79 255 15 227 SDL/TYSA_COLOUR83 3 223 .79
2156862745098 .819607843137255 .933333333333333 81 1 217 1082 199 120 0 122 214
 212 240 83 3 220 .792156862745098 .819607843137255 .933333333333333 81 1 122 11
32 131 120 217 0 0 127 241 83 3 240 .792156862745098 .819607843137255 .933333333
333333 82 1 241 -1042742108 83 3 218 .792156862745098 .819607843137255 .93333333
3333333 83 3 213 .792156862745098 .819607843137255 .933333333333333 83 3 210 .79
2156862745098 .819607843137255 .933333333333333 83 3 207 .792156862745098 .81960
7843137255 .933333333333333 83 3 204 .792156862745098 .819607843137255 .93333333
3333333 83 3 201 .792156862745098 .819607843137255 .933333333333333 79 14 198 SW
EntUnchanged15 189 625 0 37 185 0 17 37 0 189 35 35 24 46 76 0 75 -17 35 0 189 3
7 37 44 30 36 0 0 +15 186 411 0 113 178 0 17 113 0 186 113 113 0 242 111 0 0 +17
 242 0 179 242 242 0 113 111 0 0 -15 179 331 0 242 66 61 15 182 338 0 91 123 0 1
7 91 0 182 91 91 0 243 89 0 0 +17 243 0 136 243 243 0 91 89 0 0 -15 136 59 0 243
 128 165 15 176 257 0 244 171 245 17 244 0 176 244 244 0 105 86 0 0 -15 245 258
 0 102 171 0 17 102 0 245 102 102 0 246 100 0 0 +17 246 0 172 246 246 0 102 100
 0 0 -15 172 228 0 246 155 247 15 247 229 0 85 155 0 17 85 0 247 85 85 0 248 83
 0 0 +17 248 0 148 248 248 0 85 83 0 0 -15 148 159 0 248 14 0 17 105 0 156 105 1
05 0 244 86 0 0 +15 156 224 0 105 150 166 82 1 169 -493419608 82 1 154 -49564779
9 51 137 68 0 128 143 17 0 -0 .00508 0 0 -1 0 .00635 0 0 -1 50 17 2 0 129 137 6
 0 +0 .00508 0 0 1 0 0 0 1 17 95 0 142 95 95 0 249 93 0 0 +17 249 0 250 249 249
 0 95 93 0 0 -15 250 95 0 249 129 0 82 1 147 -1442905143 17 140 0 130 140 140 0
 88 78 0 0 -17 88 0 139 88 88 0 140 78 0 0 +15 139 3 0 88 129 250 82 1 134 -5184
54363 17 52 0 55 49 29 50 21 10 0 59 -19 15 30 0 1 0 9 5 S50 13 526 0 1 251 3 0
 +0 -.016112499906 0 0 -1 0 0 0 -1 50 251 524 0 1 252 13 0 +0 -.016112499906 0 0
 -1 0 0 0 -1 50 252 522 0 1 253 251 0 +0 -.016112499906 0 0 -1 0 0 0 -1 50 253 5
21 0 1 0 252 0 +0 -.016112499906 0 0 -1 0 0 0 -1 74 4 CI16 index_map_offset0 0 1
 dCCZ20 12 2 0 0 194 195 0 0 0 0 0 0 0 0 0 0 0 0 0 0 0 0 0 0 1 0 
