**ABCDEFGHIJKLMNOPQRSTUVWXYZabcdefghijklmnopqrstuvwxyz**************************
**PARASOLID !"#$%&'()*+,-./:;<=>?@[\]^_`{|}~0123456789**************************
**PART1;
MC=AMD64;
MC_MODEL=Intel64 Family 6 Model 60 Stepping 3, GenuineIntel;
MC_ID=unknown;
OS=Windows_NT;
OS_RELEASE=unknown;
FRU=Parasolid Version 24.1, build 264,  4-19-2013;
APPL=SolidWorks 2013-2013186;
SITE=;
USER=unknown;
FORMAT=text;
GUISE=transmit;
KEY=Shaft_Carrier_Combined;
FILE=Shaft_Carrier_Combined.x_t;
DATE=Fri Apr 18 11:03:38 2014;
**PART2;
SCH=SCH_2401264_20000;
USFLD_SIZE=0;
**PART3;
**END_OF_HEADER*****************************************************************
T51 : TRANSMIT FILE created by modeller version 240126423 SCH_2401264_20000_1300
6189 0 12 27 CCCCCCCCCCCCCCCCCCCCCCCA16 index_map_offset0 0 1 dA9 index_map82 0
 A17 node_id_index_map82 0 A20 schema_embedding_map82 0 Z1 2864 2 3 4 0 0 0 1e3
 1e-8 0 5 0 1 0 1 1 6 7 8 9 10 11 12 0 0 0 0 81 255 2 2 2627 13 1 0 0 0 0 14 0 7
0 11 CI9 list_type0 0 1 uI10 notransmit0 0 1 lCCCDCCDI12 finger_index0 0 1 dI12
 finger_block1012 0 CZ3 0 4 T1 0 0 3 20 1 15 15 50 255 4 2249 0 1 16 0 0 +0 -.01
7699999906 0 0 -1 0 0 0 -1 13 255 6 29 0 1 0 17 0 0 18 0 51 255 7 2521 0 19 20 0
 0 +0 -.014524999906 -.0206375 1 0 0 .003175 0 0 -1 31 255 8 2500 0 11 21 0 0 --
.003175 -.014524999906 -.0206375 1 -341480999208033e-31 0 341480999208033e-31 1
 0 .003175 29 255 9 2483 0 12 22 0 -.003175 -.017699999906 -.0206375 19 255 10 7
 0 1 18 0 23 V16 255 11 2494 0 ?24 0 25 8 0 0 1 18 255 12 2481 0 26 0 27 9 ?1 17
 255 26 0 28 29 30 12 31 32 0 33 +18 27 2478 0 34 12 35 22 ?1 17 34 0 36 37 38 2
7 39 25 0 30 +18 35 2470 0 39 27 40 41 ?1 29 22 2480 0 27 41 9 .003175 -.0176999
99906 -.0206375 29 41 2472 0 35 42 22 .003175 -.014524999906 -.0174625 29 42 246
9 0 40 43 41 -.003175 -.014524999906 -.0174625 18 40 2467 0 24 35 44 42 ?1 29 43
 1967 0 44 45 42 .003175 -.006587499906 -.01090344777721024 18 44 1965 0 46 40 4
7 43 ?1 29 45 1964 0 47 48 43 .003175 -.00357604031118674 -.0072748389157424 18
 47 1962 0 49 44 50 45 ?1 29 48 1949 0 50 51 45 0 0 -.0079375 18 50 1947 0 52 47
 53 48 ?1 29 51 1940 0 53 54 48 -.003175 -.00357604031118674 -.0072748389157424
 18 53 1938 0 55 50 56 51 ?1 29 54 1937 0 56 57 51 -.003175 -.006587499906 -.010
90344777721024 18 56 1935 0 58 53 59 54 ?1 29 57 1158 0 59 60 54 -.0215230343817
9665 -.016112499906 -.018796 18 59 1156 0 61 56 62 57 ?1 29 60 955 0 62 63 57 .0
2152303438179665 -.016112499906 .018796 18 62 953 0 64 59 65 60 ?1 29 63 650 0 6
5 66 60 .02375952440601455 -.006587499906 .015875 18 65 647 0 67 62 68 63 ?1 29
 66 576 0 68 69 63 .02375952440601455 -.006587499906 -.015875 18 68 575 0 70 65
 71 66 1e-8 1 29 69 320 0 71 72 66 -.0123297142857143 0 .003044362927223535 18 7
1 318 0 73 68 74 69 ?1 29 72 423 0 74 75 69 .0123297142857143 0 -.00304436292722
353 18 74 369 0 76 71 77 72 ?1 29 75 635 0 78 79 72 -.02375952440601455 -.006587
499906 -.015875 18 78 606 0 80 81 82 75 1e-8 1 29 79 636 0 77 83 75 .02375952440
601455 -.022462499906 -.015875 18 77 607 0 84 74 81 79 ?1 29 83 637 0 81 85 79 -
.02375952440601455 -.022462499906 -.015875 18 81 604 0 86 77 78 83 ?1 29 85 706
 0 87 88 83 -.02375952440601455 -.006587499906 .015875 18 87 678 0 89 90 91 85 ?
1 29 88 707 0 82 92 85 .02375952440601455 -.022462499906 .015875 18 82 677 0 93
 78 90 88 ?1 29 92 708 0 90 94 88 -.02375952440601455 -.022462499906 .015875 18
 90 676 0 95 82 87 92 ?1 29 94 1113 0 91 96 92 -.02152303438179665 -.01611249990
6 .018796 18 91 1014 0 97 87 98 94 ?1 29 96 1117 0 98 99 94 -.0215230343817966 0
 .018796 18 98 1012 0 100 91 101 96 ?1 29 99 1118 0 101 102 96 .0215230343817966
5 0 .018796 18 101 1021 0 103 98 104 99 ?1 29 102 1331 0 104 105 99 .02152303438
179665 -.016112499906 -.018796 18 104 1232 0 106 101 107 102 ?1 29 105 1334 0 10
7 108 102 .02152303438179665 0 -.018796 18 107 1230 0 109 104 110 105 ?1 29 108
 1335 0 110 111 105 -.0215230343817966 0 -.018796 18 110 1242 0 112 107 113 108
 ?1 29 111 1440 0 113 114 108 -.0123297142857143 .00508 .00304436292722354 18 11
3 1401 0 115 110 116 111 ?1 29 114 1441 0 116 117 111 -.0123297142857143 .00508
 -.00304436292722354 18 116 1403 0 118 113 119 114 ?1 29 117 1443 0 119 120 114
 -.0123297142857143 0 -.00304436292722354 18 119 1402 0 121 116 122 117 ?1 29 12
0 1519 0 122 123 117 .0123297142857143 .00508 -.00304436292722353 18 122 1480 0
 124 119 125 120 ?1 29 123 1520 0 125 126 120 .0123297142857143 .00508 .00304436
292722353 18 125 1482 0 127 122 128 123 ?1 29 126 1522 0 128 129 123 .0123297142
857143 0 .00304436292722353 18 128 1481 0 130 125 131 126 ?1 29 129 1667 0 131 1
32 126 0 -.006587499906 -.015875 18 131 1620 0 133 128 134 129 ?1 29 132 1668 0
 135 136 129 .003175 -.022462499906 -.015875 18 135 1617 0 137 138 139 132 ?1 29
 136 1669 0 139 140 132 -.003175 -.022462499906 -.015875 18 139 1618 0 141 135 1
42 136 ?1 29 140 1670 0 142 143 136 -.003175 -.009762499906 -.015875 18 142 1622
 0 144 139 145 140 ?1 29 143 1671 0 145 146 140 .003175 -.009762499906 -.015875
 18 145 1615 0 147 142 148 143 ?1 29 146 1674 0 134 149 143 -.003175 -.009762499
906 -.0174625 18 134 1621 0 150 131 138 146 ?1 29 149 1675 0 138 151 146 .003175
 -.009762499906 -.0174625 18 138 1619 0 152 134 135 149 ?1 29 151 1887 0 148 153
 149 -.003175 -.006587499906 -.0072748389157424 18 148 1806 0 154 145 155 151 ?1
 29 153 1888 0 155 156 151 .003175 -.006587499906 -.0072748389157424 18 155 1809
 0 157 148 158 153 ?1 29 156 2428 0 158 159 153 .003175 -.022462499906 -.0283980
6331424735 18 158 2353 0 160 155 161 156 ?1 29 159 2430 0 161 162 156 -.003175 -
.022462499906 -.02839806331424735 18 161 2344 0 163 158 164 159 ?1 29 162 2432 0
 164 165 159 .003175 -.017699999906 -.02839806331424735 18 164 2345 0 37 161 166
 162 ?1 29 165 2433 0 166 0 162 -.003175 -.017699999906 -.02839806331424735 18 1
66 2351 0 167 164 0 165 ?1 17 167 0 168 169 170 166 171 172 0 173 -15 255 168 38
8 0 167 174 175 17 169 0 168 176 167 161 173 177 0 178 +17 170 0 168 167 179 164
 180 181 0 0 +17 171 0 28 30 29 164 167 172 0 170 +16 172 2330 0 ?171 181 182 18
3 0 0 1 17 173 0 184 33 163 166 169 177 0 29 -15 184 1634 0 141 185 0 17 33 0 18
4 24 173 12 29 182 0 186 +17 163 0 184 173 141 161 187 188 0 169 -16 177 2306 0
 ?169 189 181 190 0 0 1 17 29 0 28 171 26 166 33 182 0 0 -15 28 2377 0 30 191 0
 16 182 2326 0 ?33 172 192 193 0 0 1 16 192 2479 0 ?37 182 0 194 0 0 1 30 255 19
3 2425 0 182 194 183 0 +-.003175 -.017699999906 -.0174625 -1170791997284684e-31
 0 1 30 194 2427 0 192 0 193 0 +.003175 -.017699999906 -.0174625 117079199728468
4e-31 0 -1 31 183 2415 0 172 193 195 0 +0 -.017699999906 0 0 -1 0 0 0 -1 .028575
 30 195 2413 0 181 183 190 0 +.003175 -.006587499906 -.02839806331424735 0 1 0 1
6 181 2307 0 ?170 177 172 195 0 0 1 30 190 2412 0 177 195 196 0 --.003175 -.0065
87499906 -.02839806331424735 0 1 0 30 196 1882 0 197 190 198 0 +-.003175 -.00658
7499906 -3566918188707935e-33 0 -541467664456303e-30 1 16 197 1936 0 ?154 199 20
0 196 0 0 1 30 198 1878 0 200 196 201 0 +.003175 -.006587499906 -356691818870793
5e-33 0 -541467664456303e-30 1 16 200 1966 0 ?157 197 189 198 0 0 1 30 201 1872
 0 199 198 202 0 +.003175 -.006587499906 -.0072748389157424 0 1 0 16 199 1772 0
 ?203 204 197 201 0 0 1 30 202 1666 0 205 201 206 0 +.003175 1084202172485504e-3
4 -.0174625 -341480999208033e-31 1 0 16 205 2471 0 ?152 207 208 202 0 0 1 31 206
 1665 0 207 202 209 0 +0 -.009762499906 -.0174625 0 0 1 1 0 0 .003175 16 207 159
5 0 ?210 211 205 206 0 0 1 30 209 1664 0 211 206 212 0 +-.003175 108420217248550
4e-34 -.0174625 341480999208033e-31 1 0 16 211 2468 0 ?150 213 207 209 0 0 1 30
 212 1662 0 204 209 214 0 +.003175 1084202172485504e-34 -.015875 -34148099920803
3e-31 1 0 16 204 1602 0 ?215 216 199 212 0 0 1 31 214 1661 0 217 212 218 0 +0 -.
009762499906 -.015875 0 0 1 1 0 0 .003175 16 217 1605 0 ?219 208 216 214 216 216
 1 30 218 1660 0 208 214 220 0 +-.003175 1084202172485504e-34 -.015875 341480999
208033e-31 1 0 16 208 1591 0 ?221 205 217 218 0 0 1 30 220 1658 0 222 218 223 0
 +.003175 -.022462499906 -.0174625 0 0 1 16 222 1590 0 ?137 224 188 220 0 0 1 30
 223 1657 0 188 220 225 0 +-.003175 -.022462499906 -.0174625 0 0 1 16 188 1594 0
 ?187 222 226 223 0 0 1 30 225 1656 0 226 223 227 0 +-.003175 -.009762499906 -.0
174625 0 0 1 16 226 1598 0 ?228 188 213 225 0 0 1 30 227 1655 0 213 225 229 0 +.
003175 -.009762499906 -.0174625 0 0 1 16 213 1586 0 ?147 226 211 227 0 0 1 31 22
9 1518 0 224 227 230 0 -.0175 .00508 0 0 1 0 0 0 1 .006 16 224 1474 0 ?231 232 2
22 229 0 0 1 30 230 1516 0 232 229 233 0 +.0123297142857143 .00254 -.00304436292
722353 0 -1 0 16 232 1475 0 ?76 234 224 230 0 0 1 30 233 1515 0 234 230 235 0 -.
0123297142857143 .00254 .00304436292722353 0 -1 0 16 234 1473 0 ?236 237 232 233
 0 0 1 31 235 1438 0 237 233 238 0 --.0175 .00508 -867361737988404e-33 0 1 0 0 0
 1 .006 16 237 1395 0 ?239 240 234 235 0 0 1 30 238 1437 0 240 235 241 0 +-.0123
297142857143 .00254 .003044362927223535 0 -1 0 16 240 1396 0 ?73 242 237 238 0 0
 1 30 241 1436 0 242 238 243 0 --.0123297142857143 .00254 -.00304436292722354 0
 -1 0 16 242 1394 0 ?244 245 240 241 0 0 1 30 243 1326 0 245 241 246 0 +.028575
 0 -.018796 1 0 -1214154663850782e-31 16 245 1197 0 ?109 247 242 243 0 0 1 30 24
6 1324 0 247 243 248 0 +.028575 -.016112499906 -.018796 1 0 -1214154663850784e-3
1 16 247 1188 0 ?249 250 245 246 0 0 1 31 248 1314 0 251 246 252 0 --.00762 -.01
6112499906 -.023495 0 -1 0 0 0 -1 .00238125 16 251 1194 0 ?253 254 250 248 0 0 1
 31 252 1313 0 254 248 255 0 +0 -.016112499906 0 0 -1 0 0 0 -1 .028575 16 254 11
95 0 ?106 256 251 252 0 0 1 30 255 1110 0 256 252 257 0 +.028575 0 .018796 -1 0
 1214154663850782e-31 16 256 980 0 ?100 258 254 255 0 0 1 30 257 1108 0 258 255
 259 0 +.028575 -.016112499906 .018796 -1 0 1214154663850784e-31 16 258 969 0 ?2
60 261 256 257 0 0 1 31 259 1097 0 262 257 263 0 -.00762 -.016112499906 .023495
 0 -1 0 0 0 -1 .00238125 16 262 977 0 ?264 265 261 259 0 0 1 31 263 1096 0 265 2
59 266 0 +0 -.016112499906 0 0 -1 0 0 0 -1 .028575 16 265 978 0 ?97 267 262 263
 0 0 1 31 266 880 0 267 263 268 0 +.00762 -.022462499906 -.023495 0 -1 0 0 0 1 .
00238125 16 267 857 0 ?269 270 265 266 0 0 1 31 268 842 0 270 266 271 0 +-.00762
 -.022462499906 -.023495 0 -1 0 0 0 1 .00238125 16 270 819 0 ?272 273 267 268 0
 0 1 31 271 804 0 273 268 274 0 +-.00762 -.022462499906 .023495 0 -1 0 0 0 -1 .0
0238125 16 273 781 0 ?275 276 270 271 0 0 1 31 274 766 0 276 271 277 0 +.00762 -
.022462499906 .023495 0 -1 0 0 0 -1 .00238125 16 276 743 0 ?278 279 273 274 0 0
 1 31 277 704 0 280 274 281 0 +0 -.022462499906 0 0 -1 0 0 0 -1 .028575 16 280 6
69 0 ?282 283 279 277 0 0 1 30 281 703 0 283 277 284 0 +0 -.022462499906 .015875
 1 0 0 16 283 672 0 ?93 285 280 281 0 0 1 30 284 701 0 279 281 286 0 +0 -.006587
499906 .015875 1 0 0 16 279 665 0 ?287 280 276 284 0 0 1 30 286 700 0 285 284 28
8 0 +.02375952440601455 -.022462499906 .015875 0 1 0 16 285 664 0 ?289 290 283 2
86 0 0 1 30 288 699 0 290 286 291 0 +-.02375952440601455 -.022462499906 .015875
 0 1 0 16 290 668 0 ?292 293 285 288 0 0 1 30 291 633 0 294 288 295 0 +0 -.02246
2499906 -.015875 1 0 0 16 294 590 0 ?296 297 298 291 298 298 1 31 295 632 0 299
 291 300 0 +0 -.022462499906 0 0 -1 0 0 0 -1 .028575 16 299 598 0 ?178 301 297 2
95 297 297 1 30 300 631 0 1 295 302 303 +0 -.006587499906 -.015875 1 0 0 31 302
 550 0 304 300 305 0 +.0175 -.0015875 0 0 -1 0 0 0 -1 .008 141 255 303 306 307 3
07 300 133 255 306 639 0 308 309 310 0 +300 -.02375952440601455 -.006587499906 -
.015875 0 -.006587499906 -.015875 -.02375952440601455 0 141 307 311 303 303 300
 133 311 1563 0 293 312 313 0 +300 0 -.006587499906 -.015875 .02375952440601455
 -.006587499906 -.015875 0 .02375952440601455 16 293 1562 0 ?70 308 290 311 0 0
 1 30 312 1168 0 314 315 311 0 +.02152303438179665 -.006587499906 -.018796 0 1 0
 30 313 1717 0 316 311 317 0 +-.003175 -.006587499906 -.0072748389157424 0 1 0 1
6 316 1715 0 ?318 319 314 313 0 0 1 30 317 1943 0 319 313 320 0 +-.003175 .00145
7572158022954 -.001209670104436462 0 .638633540938321 .769511013818894 16 319 19
41 0 ?321 322 316 317 0 0 1 30 320 1970 0 322 317 323 0 -.003175 -.0090306973748
7499 -.01384733850752082 0 .638633540938321 .769511013818894 16 322 1968 0 ?46 3
24 319 320 0 0 1 38 255 323 2176 0 324 320 325 0 +326 327 328 329 330 16 324 197
4 0 ?331 332 322 323 0 0 1 32 255 325 2177 0 332 323 333 0 -0 -.006587499906 -.0
1090344777721024 0 -1 0 0 0 1 .00497155222278975 .003175 51 326 2211 0 334 335 2
0 336 +0 .001457572158022954 -.001209670104436464 0 .638633540938321 .7695110138
18894 .003175 0 -.769511013818894 .638633540938321 51 327 410 0 337 338 339 340
 -0 -.006587499906 0 0 1 0 .0079375 0 0 1 40 255 6 328 0 1 6 .000333599873125115
5 .393970874412431 ??-.003175 -.00357604031118674 -.0072748389157424 -.002899079
98762469 -.00198854031118674 -.00738912995388186 -.00235825809465954 -.001065940
130743042 -.00757908470786366 -.0015317733691407 -.000388108950294009 -.00778829
741314437 -.000574055173113508 -507501255358964e-19 -.0079167144010771 -44940222
7534778e-23 -3078963354232885e-30 -.00793749999999873 41 255 1 329 L-.003175 -.0
0357604031118674 -.0072748389157424 41 1 330 L-449402227534778e-23 -307896335423
2885e-30 -.00793749999999873 14 255 337 1718 341 ?342 343 344 6 327 +0 0 342 343
 23 51 338 411 0 345 346 327 0 -.0175 -.006587499906 0 0 1 0 .006 0 0 1 50 339 4
09 0 343 327 347 0 +0 -.006587499906 0 0 -1 0 0 0 -1 141 340 323 348 348 327 141
 348 333 340 340 327 38 333 2178 0 349 325 350 0 +20 327 351 352 353 16 349 1982
 0 ?49 354 332 333 0 0 1 32 350 2179 0 354 333 355 0 -0 -.006587499906 -.0109034
4777721024 0 -1 0 0 0 -1 .00497155222278975 .003175 51 20 2210 0 356 326 7 357 +
0 .001457572158022954 -.001209670104436462 0 -.638633540938321 -.769511013818894
 .003175 0 .769511013818894 -.638633540938321 40 6 351 0 1 6 .000211031127911876
 .338014472396687 ??44940229179545e-22 0 -.0079375 .00100194499099069 -.00015814
0567086304 -.00787400866681189 .001891133121993435 -.000622061225178154 -.007708
92481250786 .002570081331570255 -.00134852178270207 -.00750989934680313 .0029976
7641733788 -.00227857388630736 -.00734968314602312 .003175 -.003576040311186745
 -.00727483891574241 41 1 352 L44940229179545e-22 0 -.0079375 41 1 353 L.003175
 -.003576040311186745 -.00727483891574241 14 356 2191 358 ?334 359 360 6 20 -0 0
 334 359 23 141 357 333 357 357 20 81 1 358 2821 361 356 362 0 341 363 364 14 33
4 2193 363 ?191 356 365 6 326 -0 0 191 356 23 14 359 1858 366 ?356 367 368 6 369
 -0 0 356 367 23 15 360 2192 0 370 356 0 13 23 8 0 0 0 0 0 0 10 17 14 17 2274 37
1 ?372 0 373 6 374 +375 375 372 0 23 81 1 371 2824 361 17 376 0 366 377 378 14 3
72 2260 377 ?343 17 379 6 380 +0 0 343 17 23 15 373 2277 0 178 17 381 50 374 627
 0 375 382 383 0 +0 -.022462499906 0 0 -1 0 0 0 -1 14 375 616 384 ?385 386 387 6
 374 +17 17 385 386 23 81 1 384 2826 361 375 388 0 377 389 390 14 385 683 389 ?3
91 375 392 6 382 -0 0 391 375 23 14 386 608 393 ?375 394 395 6 383 +342 342 375
 394 23 15 387 2272 0 160 375 396 17 160 0 387 84 397 158 137 222 0 180 -15 396
 846 0 398 375 0 17 398 0 396 398 398 0 269 267 0 0 -17 269 0 399 269 269 0 398
 267 0 0 +15 399 865 0 269 400 0 14 400 861 401 ?402 403 404 6 405 -0 0 402 403
 23 81 1 401 2829 361 400 406 0 393 407 408 14 402 1026 407 ?409 400 410 6 411 -
0 0 409 400 23 14 403 823 412 ?400 413 414 6 415 -0 0 400 413 23 15 404 1137 0 4
16 400 399 51 405 876 0 400 417 415 0 +.00762 .00673519209080187 -.023495 0 -1 0
 .00238125 0 0 -1 50 417 1090 0 409 411 405 0 +0 -.016112499906 0 0 -1 0 0 0 -1
 51 415 838 0 403 405 418 0 +-.00762 .00673519209080187 -.023495 0 -1 0 .0023812
5 0 0 -1 51 418 800 0 413 415 419 0 +-.00762 .00673519209080187 .023495 0 -1 0 .
00238125 0 0 -1 14 413 785 420 ?403 421 422 6 418 -0 0 403 421 23 51 419 762 0 4
21 418 423 0 +.00762 .00673519209080187 .023495 0 -1 0 .00238125 0 0 -1 14 421 7
47 424 ?413 391 425 6 419 -0 0 413 391 23 50 423 698 0 391 419 382 0 +0 -.022462
499906 0 0 -1 0 0 0 -1 14 391 687 426 ?421 385 427 6 423 +0 0 421 385 23 50 382
 696 0 385 423 374 0 +0 -.022462499906 .015875 0 0 1 1 0 0 81 1 426 2834 361 391
 428 0 424 429 430 15 427 770 0 431 391 432 17 431 0 427 431 431 0 275 273 0 0 -
15 432 732 0 433 391 434 17 433 0 432 433 433 0 278 276 0 0 -15 434 689 0 282 39
1 0 17 282 0 434 93 93 90 435 280 0 436 +17 93 0 434 282 282 82 95 283 0 437 +17
 435 0 168 289 436 82 282 280 0 0 -17 436 0 168 435 89 90 292 290 0 0 -17 89 0 1
68 436 438 87 80 439 0 440 -17 292 0 392 287 95 87 436 290 0 0 +15 392 686 0 287
 385 0 17 287 0 392 437 292 65 440 279 0 289 +17 95 0 392 292 437 90 93 283 0 28
2 -17 437 0 392 95 287 82 289 285 0 435 -17 289 0 168 441 435 65 437 285 0 0 +17
 441 0 168 442 289 68 67 443 0 0 -17 442 0 168 179 441 77 444 301 0 0 -17 67 0 4
45 440 70 65 441 443 0 287 +16 443 346 0 ?67 446 439 447 0 0 1 16 446 171 0 ?448
 449 443 450 0 0 1 16 439 652 0 ?80 443 451 452 0 0 1 133 447 577 0 443 453 309
 0 +309 .02375952440601455 -.006587499906 -.015875 .02375952440601455 -.00658749
9906 .015875 .981765356578623 2.15982729701117 31 453 506 0 454 455 447 0 +.0175
 -.0015875 0 0 -1 0 0 0 -1 .006 31 309 578 0 1 447 306 456 +0 -.006587499906 0 0
 -1 0 0 0 -1 .028575 141 456 447 457 457 309 141 457 452 456 456 309 133 452 653
 0 439 458 459 0 +309 -.02375952440601455 -.006587499906 .015875 -.0237595244060
1455 -.006587499906 -.015875 4.123358010168415 5.30141995060096 30 458 645 0 1 4
60 452 461 +-.02375952440601455 -.022462499906 -.015875 0 1 0 31 459 923 0 261 4
52 462 0 --.00762 -.016112499906 .023495 0 -1 0 0 0 -1 .00238125 16 261 976 0 ?4
63 262 258 459 0 0 1 30 462 948 0 464 459 465 0 +-.02152303438179665 -.006587499
906 .018796 0 1 0 16 464 946 0 ?466 467 468 462 0 0 1 30 465 956 0 467 462 469 0
 -.02152303438179665 -.006587499906 .018796 0 1 0 16 467 954 0 ?470 471 464 465
 0 0 1 31 469 1139 0 250 465 315 0 -.00762 -.016112499906 -.023495 0 -1 0 0 0 -1
 .00238125 16 250 1193 0 ?416 251 247 469 0 0 1 30 315 1159 0 471 469 312 0 --.0
2152303438179665 -.006587499906 -.018796 0 1 0 16 471 1157 0 ?472 314 467 315 0
 0 1 17 472 0 175 106 473 59 112 471 0 0 +16 314 1166 0 ?474 316 471 312 0 0 1 1
7 474 0 175 103 106 107 475 314 0 476 +15 175 389 0 106 174 0 17 103 0 175 470 4
74 101 476 477 0 478 +17 106 0 175 474 472 104 479 254 0 475 +17 475 0 480 61 10
9 104 474 314 0 249 -17 476 0 481 482 483 107 103 477 0 0 -15 481 384 0 476 484
 0 17 482 0 481 485 476 110 109 245 0 473 -17 483 0 481 476 485 101 100 256 0 0
 -16 477 1154 0 ?103 451 486 487 451 451 1 16 451 937 0 ?473 439 477 487 477 477
 1 16 486 358 0 ?488 477 489 490 0 0 1 31 487 413 0 451 491 492 0 +0 0 0 0 -1 0
 0 0 -1 .028575 31 491 415 0 489 490 487 0 +0 0 0 0 -1 0 0 0 -1 .0079375 31 492
 281 0 449 487 450 0 +0 .0171831 0 0 1 0 0 0 1 .0074676 16 449 211 0 ?493 494 44
6 492 0 0 1 31 450 280 0 446 492 495 0 +0 .0161925 0 0 1 0 0 0 1 .0074676 31 495
 140 0 496 450 497 0 +0 .0327025 0 0 1 0 0 0 1 .00635 16 496 110 0 ?498 499 500
 495 0 0 1 31 497 138 0 501 495 502 0 +0 .0327025 0 0 1 0 0 0 1 .009525 16 501 1
01 0 ?503 504 499 497 0 0 1 31 502 137 0 499 497 505 0 +0 .00508 0 0 1 0 0 0 1 .
009525 16 499 107 0 ?506 501 496 502 0 0 1 31 505 71 0 504 502 507 0 +0 0 0 0 1
 0 0 0 1 .00635 16 504 49 0 ?508 509 501 505 0 0 1 31 507 5 0 468 505 510 0 +0 .
00508 0 0 1 0 0 0 1 .0127 16 468 1376 0 ?511 464 512 507 512 512 1 31 510 23 0 5
09 507 513 0 +0 0 0 0 1 0 0 0 1 .0127 16 509 319 0 ?514 515 504 510 515 515 1 31
 513 160 0 494 510 516 0 +0 .0161925 0 0 1 0 0 0 1 .009525 16 494 174 0 ?517 500
 449 513 0 0 1 31 516 166 0 500 513 455 0 +0 .0171831 0 0 1 0 0 0 1 .009525 16 5
00 170 0 ?518 496 494 516 0 0 1 31 455 456 0 519 516 453 0 +-.0175 -.0015875 -86
7361737988404e-33 0 -1 0 0 0 -1 .006 16 519 470 0 ?520 521 522 455 0 0 1 17 520
 0 523 520 520 0 524 519 0 0 +16 521 352 0 ?525 526 519 527 0 0 1 16 522 467 0 ?
528 519 529 530 0 0 1 17 528 0 531 528 528 0 532 522 0 0 +16 529 471 0 ?533 522
 454 534 0 0 1 31 530 500 0 522 305 534 0 +-.0175 -.0015875 -867361737988404e-33
 0 -1 0 0 0 -1 .008 31 305 549 0 535 302 530 0 +.0175 -.006587499906 0 0 -1 0 0
 0 -1 .008 31 534 499 0 529 530 527 0 +-.0175 -.006587499906 -867361737988404e-3
3 0 -1 0 0 0 -1 .008 31 527 419 0 521 534 536 0 +-.0175 0 -867361737988404e-33 0
 -1 0 0 0 -1 .006 31 536 417 0 526 527 490 0 +.0175 0 0 0 -1 0 0 0 -1 .006 16 52
6 349 0 ?537 489 521 536 0 0 1 31 490 416 0 486 536 491 0 +0 -.006587499906 0 0
 -1 0 0 0 -1 .0079375 17 537 0 538 539 540 128 541 526 0 514 +16 489 1709 0 ?542
 486 526 491 0 0 1 17 542 0 543 542 542 50 52 489 0 331 +15 543 1904 0 542 544 0
 17 52 0 344 49 331 50 542 489 0 542 -17 331 0 344 52 318 50 55 324 0 545 +15 34
4 393 0 488 337 0 17 318 0 344 331 488 53 546 316 0 0 +17 55 0 365 547 548 53 33
1 324 0 321 -17 545 0 360 370 549 50 49 349 0 548 -17 370 0 360 550 545 131 548
 189 0 551 -17 549 0 360 545 550 47 46 322 0 0 -17 49 0 344 552 52 47 545 349 0
 203 +17 548 0 365 55 551 50 370 189 0 0 +15 365 2194 0 551 334 0 17 551 0 365 5
48 547 131 58 332 0 0 -16 189 2200 0 ?548 200 177 355 0 0 1 30 355 2212 0 189 35
0 553 0 +0 -2068445681150395e-33 -.0079375 0 .638633540938321 .769511013818894 3
0 553 2475 0 554 355 555 0 +0 -.014524999906 -.0174625 1 0 0 16 554 2473 0 ?556
 32 354 553 0 0 1 30 555 2486 0 32 553 21 0 -0 -.017699999906 -.0206375 1 0 0 16
 32 2484 0 ?26 25 554 555 0 0 1 31 21 2499 0 25 555 8 0 +.003175 -.014524999906
 -.0206375 1 341480999208033e-31 0 -341480999208033e-31 1 0 .003175 16 25 2489 0
 ?34 11 32 21 0 0 1 17 556 0 379 152 557 35 558 554 0 38 +16 354 1986 0 ?559 554
 349 350 0 0 1 17 559 0 445 70 560 131 550 354 0 219 +15 445 378 0 133 343 0 17
 70 0 445 67 559 68 561 293 0 444 +17 560 0 445 559 562 44 157 200 0 550 -17 550
 0 360 549 370 44 559 354 0 0 -17 219 0 563 144 147 131 564 217 0 565 +15 563 16
38 0 219 566 0 17 144 0 563 567 219 142 565 216 0 228 +17 147 0 563 219 568 145
 569 213 0 215 +17 564 0 395 570 561 145 219 217 0 0 -17 565 0 571 572 221 131 1
44 216 0 561 -15 571 611 0 296 342 0 17 572 0 571 86 565 78 133 308 0 0 -17 221
 0 571 565 296 142 141 208 0 0 +16 216 1608 0 ?144 217 204 214 217 217 1 17 561
 0 395 564 444 131 70 293 0 370 -15 395 1578 0 570 386 0 17 444 0 395 561 573 68
 442 301 0 441 +17 573 0 395 444 570 77 397 298 0 442 +16 301 593 0 ?444 574 299
 310 0 0 1 16 574 597 0 ?438 535 301 460 0 0 1 133 310 642 0 301 306 575 0 +575
 .02375952440601455 -.022462499906 -.015875 .02375952440601455 -.006587499906 -.
015875 0 .015875 30 575 643 0 1 310 460 576 +.02375952440601455 -.022462499906 -
.015875 0 1 0 133 460 644 0 574 575 458 0 +458 -.02375952440601455 -.02246249990
6 -.015875 -.02375952440601455 -.006587499906 -.015875 0 .015875 141 576 310 576
 576 575 17 438 0 168 89 176 78 86 574 0 572 +16 535 521 0 ?577 304 574 305 0 0
 1 17 577 0 578 577 577 0 579 535 0 0 +16 304 517 0 ?580 454 535 302 0 0 1 17 58
0 0 581 580 580 0 582 304 0 0 +16 454 520 0 ?583 529 304 453 0 0 1 17 583 0 584
 583 583 0 585 454 0 0 +15 584 504 0 583 345 0 17 585 0 586 585 585 0 583 454 0
 0 -15 586 537 0 585 394 581 14 394 535 429 ?386 587 586 6 588 +0 0 386 587 23 1
5 581 538 0 580 394 0 81 1 429 2835 361 394 589 0 426 590 591 14 587 530 590 ?39
4 592 593 6 594 -0 0 394 592 23 50 588 547 0 394 383 594 0 +.0175 -.0015875 0 0
 -1 0 0 0 -1 50 383 624 0 386 374 588 0 +0 -.022462499906 -.015875 0 0 1 1 0 0 5
1 594 545 0 587 588 595 0 +.0175 -.0015875 0 0 -1 0 .008 0 0 -1 50 595 497 0 592
 594 596 0 +-.0175 -.0015875 -867361737988404e-33 0 -1 0 0 0 -1 14 592 485 597 ?
587 598 599 6 595 +0 0 587 598 23 51 596 495 0 598 595 346 0 +-.0175 -.0015875 -
867361737988404e-33 0 -1 0 .008 0 0 -1 14 598 480 600 ?592 174 601 6 596 -0 0 59
2 174 23 51 346 412 0 602 596 338 0 --.0175 -.006587499906 -867361737988404e-33
 0 1 0 .006 0 0 1 14 602 457 603 ?544 345 604 6 346 +0 0 544 345 23 81 1 603 283
9 361 602 605 0 600 606 607 14 544 323 606 ?608 602 609 6 610 -0 0 608 602 23 14
 345 507 611 ?602 612 613 6 338 +0 0 602 612 23 15 604 404 0 614 602 523 17 614
 0 604 115 121 71 525 521 0 539 -15 523 454 0 520 602 0 17 115 0 604 615 614 113
 73 240 0 239 -17 121 0 604 614 615 119 244 242 0 525 -17 525 0 538 540 539 119
 614 521 0 616 +17 539 0 538 525 537 71 514 509 0 0 -15 538 383 0 540 484 481 17
 514 0 617 236 73 128 539 509 0 0 +15 617 1455 0 514 612 0 17 236 0 617 618 514
 125 130 234 0 511 +17 73 0 617 514 618 71 115 240 0 614 +17 618 0 617 73 236 11
3 511 468 0 0 -17 511 0 619 231 239 125 618 468 0 0 +15 619 1463 0 231 620 621 1
7 231 0 619 118 511 122 127 224 0 622 +17 239 0 619 511 118 113 615 237 0 618 +1
7 118 0 619 239 231 116 622 512 0 615 +17 615 0 604 121 115 116 239 237 0 244 -1
7 244 0 623 622 616 116 121 242 0 0 +15 623 24 0 622 624 0 17 622 0 623 76 244 1
22 118 512 0 0 -17 616 0 623 244 76 119 540 515 0 0 +17 76 0 623 616 622 74 124
 232 0 540 +17 540 0 538 537 525 74 616 515 0 541 -16 515 313 0 ?616 512 509 510
 509 509 1 16 512 1452 0 ?118 468 515 507 468 468 1 17 541 0 613 124 130 74 537
 526 0 0 -15 613 399 0 541 345 584 17 124 0 613 127 541 122 76 232 0 231 -17 130
 0 613 541 127 128 236 234 0 537 -17 127 0 613 130 124 125 231 224 0 236 -14 624
 25 625 ?626 620 623 6 335 -612 612 626 620 23 81 1 625 2842 361 624 627 0 611 6
28 629 14 626 55 628 ?630 624 631 6 632 +0 0 630 624 23 14 620 98 633 ?624 608 6
19 6 634 +0 0 624 608 23 51 335 28 0 624 610 326 0 -0 .00508 0 0 -1 0 .0127 0 0
 -1 14 612 1456 635 ?345 342 617 6 335 -624 624 345 342 23 81 1 635 2845 361 612
 636 0 633 637 638 14 342 1575 637 ?612 337 571 6 383 +386 386 612 337 23 81 1 6
37 2846 361 342 639 0 635 640 641 80 255 1 361 642 643 9000 1 1 1 1 1 1 1 1 0 FF
FFTFTFFFFFFF1 81 1 639 2677 644 342 0 637 645 636 646 81 1 640 2847 361 343 647
 0 637 648 649 82 255 1 641 149029984 14 343 1746 640 ?337 372 650 6 339 +0 0 33
7 372 23 81 1 647 2675 644 343 0 640 651 645 652 81 1 648 2848 361 653 654 0 640
 655 656 82 1 649 -719387552 14 653 1623 648 ?185 657 36 6 658 -0 0 185 657 23 8
1 1 654 2709 644 653 0 648 659 660 661 81 1 655 2849 361 185 660 0 648 662 663 8
2 1 656 1277953128 14 185 1631 655 ?566 653 184 6 664 +0 0 566 653 23 81 1 660 2
710 644 185 0 655 654 665 666 81 1 662 2850 361 191 667 0 655 668 669 82 1 663 1
278215272 14 191 2375 662 ?19 334 28 6 670 +0 0 19 334 23 81 1 667 2716 644 191
 0 662 671 672 673 81 1 668 2851 361 19 672 0 662 674 675 82 1 669 1278477416 14
 19 2509 668 ?0 191 676 6 7 +0 0 0 191 23 81 1 672 2717 644 19 0 668 667 0 677 8
1 1 674 2852 361 367 678 0 668 679 680 82 1 675 -1213201304 14 367 1854 674 ?359
 566 681 6 682 +0 0 359 566 23 81 1 678 2712 644 367 0 674 665 683 684 81 1 679
 2853 361 566 665 0 674 685 686 82 1 680 -742128544 14 566 1635 679 ?367 185 563
 6 687 -0 0 367 185 23 81 1 665 2711 644 566 0 679 660 678 688 81 1 685 2854 361
 689 690 0 679 691 692 82 1 686 154141792 14 689 1247 685 ?657 409 480 6 693 -0
 0 657 409 23 81 1 690 2707 644 689 0 685 694 659 695 81 1 691 2855 361 657 659
 0 685 696 697 82 1 692 -1253964733 14 657 1255 691 ?653 689 698 6 699 -0 0 653
 689 23 81 1 659 2708 644 657 0 691 690 654 700 81 1 696 2856 361 409 694 0 691
 701 702 82 1 697 -1258486717 14 409 1038 696 ?689 402 703 6 417 -0 0 689 402 23
 81 1 694 2706 644 409 0 696 704 690 705 81 1 701 2857 361 706 707 0 696 708 709
 82 1 702 -1271135165 14 706 254 701 ?484 710 711 6 712 -0 0 484 710 23 81 1 707
 2690 644 706 0 701 713 714 715 81 1 708 2858 361 710 713 0 701 716 717 82 1 709
 -1458568247 14 710 226 708 ?706 718 719 6 720 +0 0 706 718 23 81 1 713 2689 644
 710 0 708 721 707 722 81 1 716 2859 361 718 721 0 708 723 724 82 1 717 -1441922
103 14 718 222 716 ?710 725 726 6 727 -0 0 710 725 23 81 1 721 2688 644 718 0 71
6 728 713 729 81 1 723 2860 361 725 728 0 716 730 731 82 1 724 -1441463351 14 72
5 121 723 ?718 630 732 6 733 -608 608 718 630 23 81 1 728 2687 644 725 0 723 734
 721 735 81 1 730 2861 361 608 736 0 723 737 738 82 1 731 -495647799 14 608 161
 730 ?620 544 739 6 733 -725 725 620 544 23 81 1 736 2682 644 608 0 730 740 741
 742 81 1 737 2862 361 630 734 0 730 743 744 82 1 738 -1442905143 14 630 113 737
 ?725 626 745 6 746 +0 0 725 626 23 81 1 734 2686 644 630 0 737 747 728 748 81 1
 743 2863 361 484 714 0 737 749 750 82 1 744 -493419608 14 484 381 743 ?174 706
 538 6 347 -0 0 174 706 23 81 1 714 2691 644 484 0 743 707 751 752 81 1 749 2864
 361 174 751 0 743 0 753 82 1 750 -378862524 14 174 385 749 ?598 484 168 6 754 -
0 0 598 484 23 81 1 751 2692 644 174 0 749 714 755 756 82 1 753 161809506 80 1 6
44 0 757 8001 0 0 0 0 3 5 0 0 0 FFFFTFTFFFFFFF2 81 1 755 2693 644 598 0 600 751
 758 759 83 255 3 756 .792156862745098 .819607843137255 .933333333333333 81 1 60
0 2838 361 598 755 0 597 603 760 81 1 758 2694 644 592 0 597 755 761 762 83 3 75
9 .792156862745098 .819607843137255 .933333333333333 81 1 597 2837 361 592 758 0
 590 600 763 81 1 761 2695 644 587 0 590 758 589 764 83 3 762 .792156862745098 .
819607843137255 .933333333333333 81 1 590 2836 361 587 761 0 429 597 765 81 1 58
9 2696 644 394 0 429 761 766 767 83 3 764 .792156862745098 .819607843137255 .933
333333333333 81 1 766 2697 644 386 0 393 589 388 768 83 3 767 .792156862745098 .
819607843137255 .933333333333333 81 1 393 2828 361 386 766 0 389 401 769 81 1 38
8 2698 644 375 0 384 766 770 771 83 3 768 .792156862745098 .819607843137255 .933
333333333333 81 1 770 2699 644 385 0 389 388 428 772 83 3 771 .792156862745098 .
819607843137255 .933333333333333 81 1 389 2827 361 385 770 0 384 393 773 81 1 42
8 2700 644 391 0 426 770 774 775 83 3 772 .792156862745098 .819607843137255 .933
333333333333 81 1 774 2701 644 421 0 424 428 776 777 83 3 775 .792156862745098 .
819607843137255 .933333333333333 81 1 424 2833 361 421 774 0 420 426 778 81 1 77
6 2702 644 413 0 420 774 779 780 83 3 777 .792156862745098 .819607843137255 .933
333333333333 81 1 420 2832 361 413 776 0 412 424 781 81 1 779 2703 644 403 0 412
 776 406 782 83 3 780 .792156862745098 .819607843137255 .933333333333333 81 1 41
2 2831 361 403 779 0 407 420 783 81 1 406 2704 644 400 0 401 779 704 784 83 3 78
2 .792156862745098 .819607843137255 .933333333333333 81 1 704 2705 644 402 0 407
 406 694 785 83 3 784 .792156862745098 .819607843137255 .933333333333333 81 1 40
7 2830 361 402 704 0 401 412 786 83 3 785 .792156862745098 .819607843137255 .933
333333333333 82 1 786 -1266351037 82 1 783 -375651261 82 1 781 -375520189 82 1 7
78 -375389117 82 1 773 -1287191601 82 1 769 134349920 82 1 765 -1384250419 82 1
 763 -1390214195 82 1 760 -1388248115 79 255 15 757 SDL/TYSA_COLOUR51 754 407 0
 174 347 712 0 -0 -.006587499906 0 0 1 0 .028575 0 0 1 50 347 408 0 484 339 754
 0 +0 0 0 0 -1 0 0 0 -1 51 712 267 0 706 754 727 0 -0 .0171831 0 0 -1 0 .0074676
 0 0 -1 50 727 266 0 718 712 720 0 +0 .0171831 0 0 1 0 0 0 1 50 720 265 0 710 72
7 746 0 +0 .0161925 0 0 1 0 0 0 1 50 746 135 0 630 720 733 0 +0 .0327025 0 0 1 0
 0 0 1 51 733 133 0 725 746 632 0 -0 .0327025 0 0 -1 0 .009525 0 0 -1 51 632 68
 0 626 733 634 0 -0 .00508 0 0 -1 0 .00635 0 0 -1 50 634 2 0 620 632 610 0 +0 .0
0508 0 0 1 0 0 0 1 50 610 22 0 544 634 335 0 +0 0 0 0 1 0 0 0 1 83 3 752 .792156
862745098 .819607843137255 .933333333333333 81 1 747 2685 644 626 0 628 627 734
 787 83 3 748 .792156862745098 .819607843137255 .933333333333333 81 1 628 2843 3
61 626 747 0 625 633 788 81 1 627 2684 644 624 0 625 741 747 789 83 3 787 .79215
6862745098 .819607843137255 .933333333333333 81 1 741 2683 644 620 0 633 736 627
 790 83 3 789 .792156862745098 .819607843137255 .933333333333333 81 1 633 2844 3
61 620 741 0 628 635 791 83 3 790 .792156862745098 .819607843137255 .93333333333
3333 82 1 791 -377813948 82 1 788 148702297 15 745 115 0 503 630 792 17 503 0 74
5 503 503 0 793 501 0 0 +15 792 116 0 794 630 0 17 794 0 792 794 794 0 498 496 0
 0 -17 498 0 795 498 498 0 794 496 0 0 +15 795 129 0 498 626 0 17 793 0 796 793
 793 0 503 501 0 0 -15 796 124 0 793 725 0 81 1 740 2681 644 544 0 606 605 736 7
97 83 3 742 .792156862745098 .819607843137255 .933333333333333 81 1 606 2840 361
 544 740 0 603 611 798 81 1 605 2680 644 602 0 603 799 740 800 83 3 797 .7921568
62745098 .819607843137255 .933333333333333 81 1 799 2679 644 345 0 611 636 605 8
01 83 3 800 .792156862745098 .819607843137255 .933333333333333 81 1 611 2841 361
 345 799 0 606 625 802 81 1 636 2678 644 612 0 635 639 799 803 83 3 801 .7921568
62745098 .819607843137255 .933333333333333 83 3 803 .792156862745098 .8196078431
37255 .933333333333333 82 1 802 -374078396 82 1 798 146343008 15 739 125 0 506 6
08 804 17 506 0 739 506 506 0 805 499 0 0 +15 804 159 0 806 608 0 17 806 0 804 8
06 806 0 517 494 0 0 -17 517 0 807 517 517 0 806 494 0 0 +15 807 229 0 517 710 0
 17 805 0 621 805 805 0 506 499 0 0 -15 621 95 0 805 620 0 83 3 735 .79215686274
5098 .819607843137255 .933333333333333 15 732 164 0 518 725 796 17 518 0 732 518
 518 0 808 500 0 0 +17 808 0 809 808 808 0 518 500 0 0 -15 809 225 0 808 718 0 8
3 3 729 .792156862745098 .819607843137255 .933333333333333 15 726 224 0 493 718
 809 17 493 0 726 493 493 0 810 449 0 0 +17 810 0 711 810 810 0 493 449 0 0 -15
 711 257 0 810 706 811 15 811 258 0 448 706 0 17 448 0 811 448 448 0 812 446 0 0
 +17 812 0 719 812 812 0 448 446 0 0 -15 719 228 0 812 710 807 83 3 722 .7921568
62745098 .819607843137255 .933333333333333 83 3 715 .792156862745098 .8196078431
37255 .933333333333333 83 3 705 .792156862745098 .819607843137255 .9333333333333
33 15 703 1040 0 813 409 814 17 813 0 703 813 813 0 463 261 0 0 -15 814 1041 0 8
15 409 816 17 815 0 814 815 815 0 264 262 0 0 -15 816 1042 0 260 409 0 17 260 0
 816 817 817 91 64 258 0 0 +17 817 0 816 260 260 62 97 265 0 470 -17 64 0 410 47
8 818 62 260 258 0 817 -15 410 1029 0 64 402 0 17 478 0 410 100 64 101 470 467 0
 483 -17 818 0 410 64 100 91 466 464 0 260 -17 100 0 410 818 478 98 483 256 0 46
6 +17 466 0 175 473 97 98 818 464 0 485 +17 473 0 175 472 466 110 485 451 0 0 +1
7 97 0 175 466 470 91 817 265 0 818 +17 485 0 481 483 482 98 473 451 0 0 -17 470
 0 175 97 103 62 478 467 0 0 +17 264 0 425 264 264 0 815 262 0 0 +15 425 927 0 2
64 421 819 15 819 751 0 278 421 0 17 278 0 819 278 278 0 433 276 0 0 +17 463 0 4
22 463 463 0 813 261 0 0 +15 422 921 0 463 413 820 15 820 789 0 275 413 0 17 275
 0 820 275 275 0 431 273 0 0 +83 3 700 .792156862745098 .819607843137255 .933333
333333333 15 698 1257 0 821 657 822 50 699 1307 0 657 693 411 0 +0 -.01611249990
6 0 0 -1 0 0 0 -1 50 693 1311 0 689 658 699 0 +.028575 -.080443111674073 -.01879
6 1214154663850784e-31 0 1 1 0 -1214154663850784e-31 50 411 1091 0 402 699 417 0
 +.028575 -.080443111674073 .018796 -1214154663850784e-31 0 -1 -1 0 121415466385
0784e-31 50 658 1649 0 653 687 693 0 +.003175 1084202172485504e-34 -.0174625 1 3
41480999208033e-31 0 -341480999208033e-31 1 0 51 687 1650 0 566 664 658 0 +0 -.0
09762499906 -.0174625 0 0 1 .003175 1 0 0 50 664 1651 0 185 380 687 0 +-.003175
 1084202172485504e-34 -.0174625 1 -341480999208033e-31 0 341480999208033e-31 1 0
 50 380 1654 0 372 369 664 0 +0 0 -.0174625 0 0 1 1 0 0 50 369 1868 0 359 682 38
0 0 +.003175 0 0 1 0 0 0 0 -1 50 682 1869 0 367 670 369 0 +-.003175 0 0 1 0 0 0
 0 -1 50 670 2410 0 191 0 682 0 +0 -.017699999906 0 0 -1 0 0 0 -1 17 821 0 698 8
21 821 0 416 250 0 0 -15 822 1258 0 823 657 824 17 823 0 822 823 823 0 253 251 0
 0 -15 824 1259 0 479 657 0 17 479 0 824 249 249 59 106 254 0 472 -17 249 0 824
 479 479 104 61 247 0 0 +17 61 0 480 112 475 59 249 247 0 479 -15 480 1250 0 61
 689 0 17 112 0 480 109 61 110 472 471 0 482 -17 109 0 480 475 112 107 482 245 0
 474 +17 253 0 414 253 253 0 823 251 0 0 +15 414 1143 0 253 403 825 15 825 827 0
 272 403 0 17 272 0 825 272 272 0 826 270 0 0 +17 826 0 381 826 826 0 272 270 0
 0 -15 381 808 0 826 17 0 17 416 0 404 416 416 0 821 250 0 0 +83 3 695 .79215686
2745098 .819607843137255 .933333333333333 83 3 688 .792156862745098 .81960784313
7255 .933333333333333 81 1 683 2713 644 359 0 366 678 362 827 83 3 684 .79215686
2745098 .819607843137255 .933333333333333 81 1 366 2823 361 359 683 0 363 371 82
8 81 1 362 2714 644 356 0 358 683 671 829 83 3 827 .792156862745098 .81960784313
7255 .933333333333333 81 1 671 2715 644 334 0 363 362 667 830 83 3 829 .79215686
2745098 .819607843137255 .933333333333333 81 1 363 2822 361 334 671 0 358 366 83
1 83 3 830 .792156862745098 .819607843137255 .933333333333333 82 1 831 -16685353
6 82 1 828 -737999776 15 681 1857 0 832 367 0 17 832 0 681 321 546 56 154 197 0
 547 -17 321 0 681 546 832 53 547 319 0 318 +17 546 0 681 832 321 148 318 316 0
 488 -17 154 0 445 562 58 148 832 197 0 546 +17 547 0 365 551 55 56 321 319 0 0
 -17 562 0 445 560 154 155 488 486 0 0 -17 58 0 445 154 133 56 551 332 0 832 +17
 133 0 445 58 80 131 572 308 0 559 +16 332 1978 0 ?58 349 324 325 0 0 1 17 80 0
 445 133 440 78 89 439 0 438 +16 308 601 0 ?133 298 293 306 0 0 1 16 298 1545 0
 ?573 294 308 291 294 294 1 17 440 0 445 80 67 87 287 279 0 292 -17 488 0 344 31
8 552 148 562 486 0 0 +17 552 0 344 488 49 155 203 199 0 562 -17 203 0 368 46 15
7 47 552 199 0 549 +15 368 1861 0 203 359 0 17 46 0 368 157 203 44 549 322 0 560
 +17 157 0 368 203 46 155 560 200 0 552 +83 3 677 .792156862745098 .819607843137
255 .933333333333333 15 676 2510 0 186 19 0 17 186 0 676 31 558 12 24 11 0 0 -17
 31 0 676 39 186 27 26 32 0 0 -17 558 0 676 186 39 40 556 554 0 0 -17 24 0 184 1
50 33 40 186 11 0 557 +17 150 0 184 228 24 134 557 211 0 567 +17 557 0 379 556 2
10 40 150 211 0 558 -15 379 1642 0 557 372 0 17 210 0 379 557 152 134 568 207 0
 0 +17 152 0 379 210 556 138 38 205 0 569 +17 568 0 563 147 567 138 210 207 0 0
 -17 567 0 563 568 144 134 228 226 0 210 -17 228 0 184 141 150 142 567 226 0 221
 +17 141 0 184 163 228 139 221 208 0 187 -17 187 0 373 833 178 139 163 188 0 296
 +17 833 0 373 178 187 81 296 294 0 0 -17 178 0 373 187 833 161 176 299 0 0 +17
 296 0 571 221 86 139 833 294 0 0 +17 86 0 571 296 572 81 438 574 0 176 -17 176
 0 168 438 169 81 178 299 0 833 -17 38 0 36 34 569 35 152 205 0 0 -17 569 0 36 3
8 215 138 147 213 0 568 -15 36 1626 0 215 653 0 17 215 0 36 569 137 145 570 204
 0 564 +17 137 0 36 215 180 135 160 222 0 570 +17 570 0 395 573 564 135 215 204
 0 397 -17 397 0 387 160 84 135 573 298 0 0 -17 84 0 387 397 160 77 179 297 0 57
3 +17 179 0 168 170 442 158 84 297 0 0 -16 297 2269 0 ?84 299 294 295 299 299 1
 17 180 0 36 137 37 158 170 181 0 179 -17 37 0 36 180 34 164 30 192 0 171 +17 30
 0 28 26 171 27 37 192 0 31 -17 39 0 676 558 31 35 34 25 0 556 -83 3 673 .792156
862745098 .819607843137255 .933333333333333 83 3 666 .792156862745098 .819607843
137255 .933333333333333 83 3 661 .792156862745098 .819607843137255 .933333333333
333 81 1 651 2674 644 372 0 377 376 647 834 81 1 645 2676 644 337 0 341 647 639
 835 83 3 652 .792156862745098 .819607843137255 .933333333333333 81 1 341 2820 3
61 337 645 0 0 358 836 83 3 835 .792156862745098 .819607843137255 .9333333333333
33 82 1 836 -724368288 81 1 377 2825 361 372 651 0 371 384 837 81 1 376 2673 644
 17 0 371 0 651 838 83 3 834 .792156862745098 .819607843137255 .933333333333333
 83 3 838 .792156862745098 .819607843137255 .933333333333333 82 1 837 1262027880
 15 650 461 0 839 343 840 17 839 0 650 839 839 0 533 529 0 0 -15 840 511 0 579 3
43 445 17 579 0 840 579 579 0 577 535 0 0 -17 533 0 841 533 533 0 839 529 0 0 +1
5 841 484 0 533 598 0 83 3 646 .792156862745098 .819607843137255 .93333333333333
3 79 14 643 SWEntUnchanged82 1 638 -1195834300 15 631 59 0 842 626 795 17 842 0
 631 842 842 0 508 504 0 0 -17 508 0 609 508 508 0 842 504 0 0 +15 609 1906 0 50
8 544 543 82 1 629 -377551804 82 1 607 -374209468 15 601 483 0 532 598 841 17 53
2 0 601 532 532 0 528 522 0 0 -15 599 487 0 524 592 531 17 524 0 599 524 524 0 5
20 519 0 0 -15 531 488 0 528 592 0 15 593 533 0 582 587 578 17 582 0 593 582 582
 0 580 304 0 0 -15 578 534 0 577 587 0 82 1 591 -1386216499 141 461 460 461 461
 458 82 1 430 -1291516899 82 1 408 -375782333 82 1 390 134153314 82 1 378 -68877
214 82 1 364 -165411744 141 336 323 336 336 326 19 18 30 0 1 0 10 6 S50 16 2246
 0 1 843 4 0 +0 -.017699999906 0 0 -1 0 0 0 -1 50 843 2244 0 1 844 16 0 +0 -.017
699999906 0 0 -1 0 0 0 -1 50 844 2243 0 1 845 843 0 +0 -.017699999906 0 0 -1 0 0
 0 -1 50 845 918 0 1 846 844 0 +0 -.016112499906 0 0 -1 0 0 0 -1 50 846 915 0 1
 847 845 0 +0 -.016112499906 0 0 -1 0 0 0 -1 50 847 913 0 1 848 846 0 +0 -.01611
2499906 0 0 -1 0 0 0 -1 50 848 911 0 1 849 847 0 +0 -.016112499906 0 0 -1 0 0 0
 -1 50 849 910 0 1 0 848 0 +0 -.016112499906 0 0 -1 0 0 0 -1 74 4 CI16 index_map
_offset0 0 1 dCCZ20 15 3 0 0 749 2 672 0 0 0 0 0 0 0 0 0 0 0 0 0 0 0 0 0 80 2 13
 850 851 8004 0 0 0 0 3 5 0 0 0 FFTFFFFFFFFFFF2 3 83 1 14 1e3 79 16 851 SDL/TYSA
_DENSITY1 0 
